<svg width="180" height="180" fill="none" xmlns="http://www.w3.org/2000/svg"><path clip-rule="evenodd" d="M162.927 2H16.26C8.173 2 1.594 8.58 1.594 16.667v110c0 8.087 6.58 14.666 14.666 14.666h146.667c8.087 0 14.667-6.579 14.667-14.666v-110c0-8.088-6.58-14.667-14.667-14.667zM9.159 18.629c0-4.852 3.948-8.8 8.8-8.8h143.178c4.851 0 8.8 3.948 8.8 8.8v102.666H9.159V18.629z" stroke="#dc848d" stroke-width="3"/><path d="M96.927 148.667H82.26v14.666H57.327c-4.852 0-8.8 3.949-8.8 8.8v2.934A2.93 2.93 0 0051.46 178h76.267a2.93 2.93 0 002.933-2.933v-2.934c0-4.851-3.948-8.8-8.8-8.8H96.927v-14.666zM131.899 87.646l.005.003a.353.353 0 01.191.32v4.663a.374.374 0 01-.191.32l-.005.002-4.496 2.341-1.116.581.378 1.2 1.521 4.822c.048.162-.003.287-.072.353l-.011.011-.012.012-3.285 3.303v.001a.364.364 0 01-.365.094l-.001-.001-4.848-1.523-1.2-.377-.58 1.116-2.341 4.495-.003.006a.353.353 0 01-.32.19h-4.663a.374.374 0 01-.319-.19l-.003-.006-2.341-4.495-.581-1.116-1.199.377-4.849 1.523v.001a.323.323 0 01-.327-.074l-.01-.011-.01-.01-3.306-3.306-.01-.01-.01-.01c-.069-.066-.12-.191-.072-.353v-.004l1.52-4.817.379-1.2-1.116-.582-4.496-2.34-.006-.004a.374.374 0 01-.19-.32V87.97c0-.144.076-.261.19-.32l.006-.003 4.496-2.34 1.115-.581-.377-1.2-1.523-4.848h0a.362.362 0 01.094-.366l3.303-3.285.012-.011.011-.012a.32.32 0 01.327-.074h0l4.849 1.523 1.199.377.581-1.115 2.341-4.496h0l.003-.005a.373.373 0 01.319-.19h4.663c.144 0 .261.076.32.19l.003.005 2.341 4.496.58 1.115 1.2-.377 4.848-1.523h.001a.362.362 0 01.365.094l1.061-1.06-1.061 1.06 3.288 3.288a.36.36 0 01.094.366h0l-1.523 4.848-.377 1.2 1.115.58 4.496 2.341zm-29.025 2.645c0 5.491 4.461 9.952 9.952 9.952 5.475 0 9.934-4.463 9.934-9.952 0-5.473-4.461-9.934-9.934-9.934-5.489 0-9.952 4.46-9.952 9.934zM102.662 58.474l.013.014.013.014c.049.05.106.165.049.35l-2.345 6.452-.001.003c-.06.157-.178.218-.246.225l-.02.002-.02.003-8.197 1.105-1.245.168-.053 1.255-.35 8.255v.023a.32.32 0 01-.172.26l-.007.003-.008.003-6.263 2.93-.003.001c-.134.063-.259.033-.326-.02l-.01-.009-.011-.008-6.576-5.03-1.001-.766-.927.855-6.068 5.59a.367.367 0 01-.36.073l-.006-.002-6.492-2.336a.357.357 0 01-.229-.285s0 0 0 0l-1.086-8.196-.166-1.248-1.257-.054-8.243-.35a.363.363 0 01-.318-.207v-.001l-2.928-6.261-.005-.01-.004-.01a.269.269 0 01-.02-.148.438.438 0 01.076-.2l5.016-6.541.766-1-.852-.927-5.6-6.099-.004-.004a.311.311 0 01-.063-.32h0l.004-.011 2.355-6.496a.356.356 0 01.285-.23s0 0 0 0l8.195-1.087 1.248-.165.053-1.258.35-8.273v-.022a.308.308 0 01.19-.268s0 0 0 0l6.26-2.929.003-.001a.317.317 0 01.346.036h.001l6.576 5.03 1.001.766.927-.854 6.067-5.59a.35.35 0 01.352-.076h0l.011.004 6.502 2.358.013.005.012.004c.075.026.176.12.197.273v.001l1.087 8.177.166 1.248 1.258.053 8.242.35c.153.01.263.092.318.208v.001l2.919 6.241a.36.36 0 01-.044.37l-.001.002-5.01 6.559-.762.997.847.926 5.581 6.099zm-22.19 5.801l.005-.002c6.533-3.06 9.363-10.861 6.303-17.397-2.143-4.578-6.797-7.552-11.858-7.552-1.913 0-3.79.416-5.54 1.249-3.16 1.478-5.552 4.103-6.754 7.38h0l-.003.008a13.058 13.058 0 00.457 10.006v.001c2.145 4.582 6.802 7.534 11.859 7.534 1.915 0 3.788-.417 5.532-1.227z" stroke="#dc848d" stroke-width="3"/></svg>