<svg width="972" height="516" fill="none" xmlns="http://www.w3.org/2000/svg"><path d="M10.999 0v516M48.999 0v516M86.999 0v516M124.999 0v516M162.999 0v516M200.999 0v516M238.999 0v516M276.999 0v516M314.999 0v516M352.999 0v516M390.999 0v516M428.999 0v516M466.999 0v516M504.999 0v516M542.999 0v516M580.999 0v516M618.999 0v516M656.999 0v516M694.999 0v516M732.999 0v516M770.999 0v516M808.999 0v516M846.999 0v516M884.999 0v516M922.999 0v516M960.999 0v516M0 505h972M0 467h972M0 429h972M0 391h972M0 353h972M0 315h972M0 277h972M0 239h972M0 201h972M0 163h972M0 125h972M0 87h972M0 49h972M0 11h972" stroke="#0F4465" stroke-miterlimit="10"/><rect x="283.5" y="270.539" width="402.221" height="227.961" rx="4.5" fill="#103654" stroke="#0F6195"/><rect x="303.938" y="403.057" width="83.422" height="83.422" rx="4.5" stroke="#0F6195"/><rect x="396.802" y="403.057" width="83.422" height="83.422" rx="4.5" stroke="#0F6195"/><rect x="489.665" y="403.057" width="83.422" height="83.422" rx="4.5" stroke="#0F6195"/><rect x="582.529" y="403.057" width="83.422" height="83.422" rx="4.5" stroke="#0F6195"/><rect x="303.938" y="298.374" width="362.013" height="74.135" rx="4.5" stroke="#0F6195"/><path d="M325.806 396.875h-1.977l-1.589-2.874h-1.261v2.874h-1.722v-8.088h3.784c.832 0 1.491.242 1.976.727.494.485.74 1.112.74 1.88 0 .663-.174 1.2-.521 1.613-.34.412-.756.675-1.249.788l1.819 3.08zm-3.02-4.39c.356 0 .647-.097.873-.291.227-.202.34-.469.34-.8 0-.332-.113-.594-.34-.788-.226-.202-.517-.303-.873-.303h-1.807v2.182h1.807zm6.613 4.536c-.906 0-1.654-.283-2.244-.849-.59-.566-.885-1.31-.885-2.232 0-.865.283-1.592.849-2.182.574-.59 1.301-.886 2.183-.886.873 0 1.58.3 2.122.898.541.59.812 1.366.812 2.328v.34h-4.353c.048.388.222.711.521.97.299.258.687.388 1.164.388.259 0 .538-.053.837-.158.307-.105.55-.246.728-.424l.679.994c-.59.542-1.395.813-2.413.813zm1.346-3.626a1.475 1.475 0 00-.4-.898c-.235-.266-.583-.4-1.043-.4-.437 0-.776.134-1.019.4a1.554 1.554 0 00-.424.898h2.886zm5.332 3.626c-.905 0-1.649-.287-2.231-.861-.582-.574-.873-1.314-.873-2.22 0-.897.291-1.633.873-2.207.582-.574 1.326-.861 2.231-.861 1.035 0 1.807.352 2.316 1.055l-1.006.946c-.283-.42-.696-.63-1.237-.63-.469 0-.853.157-1.152.473-.291.307-.437.715-.437 1.224 0 .51.146.922.437 1.237.299.316.683.473 1.152.473.525 0 .938-.21 1.237-.63l1.006.933c-.509.712-1.281 1.068-2.316 1.068zm8.295-.886c-.566.59-1.318.886-2.256.886-.938 0-1.689-.296-2.255-.886-.558-.598-.837-1.33-.837-2.195 0-.865.279-1.592.837-2.182.566-.59 1.317-.886 2.255-.886s1.69.296 2.256.886c.566.59.849 1.317.849 2.182s-.283 1.597-.849 2.195zm-3.347-.97c.267.324.63.485 1.091.485.461 0 .825-.161 1.092-.485.274-.331.412-.74.412-1.225 0-.477-.138-.877-.412-1.2-.267-.332-.631-.497-1.092-.497-.461 0-.824.165-1.091.497-.267.323-.4.723-.4 1.2 0 .485.133.894.4 1.225zm14.154 1.71h-1.552v-3.699c0-.622-.291-.933-.873-.933-.251 0-.485.068-.704.206-.21.137-.38.295-.509.473v3.953h-1.552v-3.699c0-.622-.291-.933-.873-.933a1.27 1.27 0 00-.691.206 1.758 1.758 0 00-.522.485v3.941h-1.54v-5.857h1.54v.764c.146-.21.4-.412.764-.606a2.34 2.34 0 011.152-.304c.849 0 1.391.356 1.625 1.068.186-.291.461-.542.825-.752.371-.21.768-.316 1.188-.316.55 0 .974.15 1.273.449.299.291.449.732.449 1.322v4.232zm4.263.146c-.905 0-1.653-.283-2.243-.849-.59-.566-.886-1.31-.886-2.232 0-.865.283-1.592.849-2.182.574-.59 1.302-.886 2.183-.886.873 0 1.581.3 2.122.898.542.59.813 1.366.813 2.328v.34h-4.354c.049.388.223.711.522.97.299.258.687.388 1.164.388.259 0 .537-.053.837-.158.307-.105.549-.246.727-.424l.679.994c-.59.542-1.394.813-2.413.813zm1.346-3.626a1.47 1.47 0 00-.4-.898c-.235-.266-.582-.4-1.043-.4-.436 0-.776.134-1.019.4a1.554 1.554 0 00-.424.898h2.886zm8.097 3.48h-1.54v-3.541c0-.727-.36-1.091-1.079-1.091-.558 0-1.002.23-1.334.691v3.941h-1.54v-5.857h1.54v.764c.509-.606 1.193-.91 2.049-.91.631 0 1.104.166 1.419.498.324.331.485.788.485 1.37v4.135zm7.108 0h-1.553v-.752c-.477.598-1.079.898-1.806.898-.76 0-1.383-.271-1.868-.813-.485-.55-.728-1.302-.728-2.255 0-.938.243-1.686.728-2.244.485-.558 1.108-.837 1.868-.837.743 0 1.346.3 1.806.898v-2.983h1.553v8.088zm-2.887-1.225c.259 0 .514-.06.764-.182.251-.129.441-.291.57-.485v-2.073a1.386 1.386 0 00-.57-.473 1.639 1.639 0 00-.764-.194c-.436 0-.792.157-1.067.473-.275.315-.412.727-.412 1.237 0 .501.137.909.412 1.224.275.316.631.473 1.067.473zm9.47 1.225h-1.54v-.606c-.42.501-1.039.752-1.855.752a2.2 2.2 0 01-1.419-.51c-.412-.347-.618-.824-.618-1.431 0-.63.202-1.103.606-1.418a2.285 2.285 0 011.431-.473c.833 0 1.451.238 1.855.715v-.788a.854.854 0 00-.351-.716c-.235-.177-.546-.266-.934-.266-.639 0-1.209.23-1.71.691l-.582-1.031c.695-.614 1.548-.922 2.559-.922.752 0 1.366.174 1.843.522.477.348.715.913.715 1.698v3.783zm-2.777-.897c.574 0 .987-.17 1.237-.51v-.727c-.25-.34-.663-.51-1.237-.51-.315 0-.578.081-.788.243a.752.752 0 00-.315.643c0 .266.105.477.315.63.21.154.473.231.788.231zm6.269 1.043c-.541 0-.954-.138-1.237-.413-.282-.275-.424-.671-.424-1.188v-3.056h-.97v-1.346h.97v-1.601h1.552v1.601h1.189v1.346h-1.189v2.644c0 .185.049.339.146.46a.47.47 0 00.388.182c.242 0 .42-.056.533-.17l.328 1.165c-.283.25-.712.376-1.286.376zm2.897-6.634a.921.921 0 01-.655-.266.921.921 0 01-.266-.655c0-.251.089-.465.266-.643a.918.918 0 01.655-.267.89.89 0 01.655.267.876.876 0 01.267.643c0 .25-.089.469-.267.655a.893.893 0 01-.655.266zm.776 6.488h-1.54v-5.857h1.54v5.857zm6.499-.74c-.566.59-1.318.886-2.255.886-.938 0-1.69-.296-2.256-.886-.558-.598-.837-1.33-.837-2.195 0-.865.279-1.592.837-2.182.566-.59 1.318-.886 2.256-.886.937 0 1.689.296 2.255.886.566.59.849 1.317.849 2.182s-.283 1.597-.849 2.195zm-3.347-.97c.267.324.631.485 1.092.485.46 0 .824-.161 1.091-.485.275-.331.412-.74.412-1.225 0-.477-.137-.877-.412-1.2-.267-.332-.631-.497-1.091-.497-.461 0-.825.165-1.092.497-.266.323-.4.723-.4 1.2 0 .485.134.894.4 1.225zm10.832 1.71h-1.54v-3.541c0-.727-.36-1.091-1.08-1.091-.557 0-1.002.23-1.333.691v3.941h-1.54v-5.857h1.54v.764c.509-.606 1.192-.91 2.049-.91.63 0 1.103.166 1.419.498.323.331.485.788.485 1.37v4.135zm3.639.146c-.509 0-.999-.081-1.467-.243a3.276 3.276 0 01-1.152-.667l.667-1.079c.226.21.533.396.921.558.388.161.756.242 1.104.242.323 0 .566-.056.727-.17a.526.526 0 00.255-.46c0-.146-.089-.263-.267-.352a1.871 1.871 0 00-.643-.206 9.027 9.027 0 01-.836-.182 6.041 6.041 0 01-.837-.291 1.615 1.615 0 01-.643-.534c-.17-.25-.254-.558-.254-.921 0-.518.214-.954.642-1.31.429-.356 1.015-.534 1.759-.534.905 0 1.693.267 2.364.801l-.618 1.055a2.159 2.159 0 00-.752-.485 2.494 2.494 0 00-.982-.194c-.275 0-.497.056-.667.169-.17.106-.255.243-.255.413 0 .129.085.238.255.327.17.081.384.142.642.182.259.041.538.105.837.194.299.081.578.182.837.303.259.113.473.299.643.558.169.259.254.574.254.946 0 .55-.226 1.002-.679 1.358-.444.348-1.063.522-1.855.522zm8.663-.146h-1.552v-4.511h-.97v-1.346h.97v-.315c0-.623.182-1.116.546-1.48.363-.372.84-.558 1.431-.558.679 0 1.188.182 1.528.546l-.583.91c-.161-.162-.375-.243-.642-.243a.703.703 0 00-.534.218c-.129.138-.194.34-.194.607v.315h1.189v1.346h-1.189v4.511zm7.047-.74c-.566.59-1.317.886-2.255.886s-1.69-.296-2.256-.886c-.557-.598-.836-1.33-.836-2.195 0-.865.279-1.592.836-2.182.566-.59 1.318-.886 2.256-.886.938 0 1.689.296 2.255.886.566.59.849 1.317.849 2.182s-.283 1.597-.849 2.195zm-3.347-.97c.267.324.631.485 1.092.485.461 0 .824-.161 1.091-.485.275-.331.413-.74.413-1.225 0-.477-.138-.877-.413-1.2-.267-.332-.63-.497-1.091-.497-.461 0-.825.165-1.092.497-.266.323-.4.723-.4 1.2 0 .485.134.894.4 1.225zm6.879 1.71h-1.54v-5.857h1.54v.8c.218-.275.497-.501.836-.679.34-.178.684-.267 1.031-.267v1.504a2.025 2.025 0 00-1.249.158c-.291.129-.497.287-.618.473v3.868zm5.726 2.292l.23-1.383c.146.065.308.097.485.097.413 0 .684-.141.813-.424l.218-.497-2.377-5.942h1.65l1.527 4.074 1.528-4.074h1.662l-2.753 6.815c-.202.517-.485.877-.849 1.079-.364.21-.82.324-1.37.34-.283 0-.538-.029-.764-.085zm11.395-3.032c-.566.59-1.318.886-2.256.886-.937 0-1.689-.296-2.255-.886-.558-.598-.837-1.33-.837-2.195 0-.865.279-1.592.837-2.182.566-.59 1.318-.886 2.255-.886.938 0 1.69.296 2.256.886.566.59.849 1.317.849 2.182s-.283 1.597-.849 2.195zm-3.347-.97c.267.324.631.485 1.091.485.461 0 .825-.161 1.092-.485.275-.331.412-.74.412-1.225 0-.477-.137-.877-.412-1.2-.267-.332-.631-.497-1.092-.497-.46 0-.824.165-1.091.497-.267.323-.4.723-.4 1.2 0 .485.133.894.4 1.225zm10.832 1.71h-1.54v-.74c-.526.59-1.213.886-2.062.886-.63 0-1.103-.162-1.419-.486-.315-.323-.473-.776-.473-1.358v-4.159h1.54v3.553c0 .719.36 1.079 1.08 1.079.541 0 .986-.222 1.334-.667v-3.965h1.54v5.857z" fill="#0F6195"/><rect x="594.222" y="243.5" width="144.46" height="63.944" rx="4.5" fill="#103654" stroke="#0F6195"/><circle cx="626.047" cy="274.616" r="21.383" fill="#103654" stroke="#0F6195"/><path d="M611.376 290.569c.105-.286.231-.557.382-.803 1.397-2.275 3.617-4.72 6.488-5.604 1.904-.368 5.309-1.941 5.309-3.643m17.548 10.05a4.499 4.499 0 00-.382-.803c-1.397-2.275-3.617-4.72-6.488-5.604-1.904-.368-5.239-1.885-5.239-3.587" stroke="#0F6195"/><path d="M632.466 273.573c0 4.506-2.631 7.948-6.027 7.948-2.397 0-4.474-1.82-5.488-4.475" stroke="#0F6195"/><path d="M622.017 282.648c-.592-2.838-3.075-13.362 1.418-14.189 3.595-.662 4.706-1.782 5.534-2.334 2.404 2.996 6.207 8.125.97 16.05m-12.534 2.364c.119-2.01.828-2.364 1.231-4.082.605-2.574-3.902-20.337 7.568-20.337 11.469 0 9.814 9.341 9.814 18.8 0 3.254.736 5.759 1.961 7.511" stroke="#0F6195"/><path fill="#0F6195" d="M659.062 260.715h64.285v5.533h-64.285zM659.062 271.849h53.251v5.533h-53.251zM659.062 282.983h58.499v5.533h-58.499z"/><path d="M308.925 387.711l1.094 2.372.117.254.278.033 2.594.307-1.918 1.774-.205.19.055.275.509 2.562-2.28-1.276-.244-.137-.244.137-2.28 1.276.509-2.562.055-.275-.206-.19-1.918-1.774 2.595-.307.278-.033.117-.254 1.094-2.372zM329.979 416.223v.096l.035.089.053.132s0 0 0 0c2.93 7.337 4.095 13.613 4.133 20.633.039 7.363-1.634 13.487-4.172 21.927l-.05.152-.038.112.017.116.025.177 1.688 15.633v.002l.079.763.046.449h6.061l-.046-.543-.08-.923v-.003c-.424-4.666-.688-7.798-.527-9.592.08-.895.266-1.316.373-1.455.066-.086.093-.098.115-.107.043-.017.14-.04.385-.04 1.598 0 3.138 1.199 4.677 3.498 1.523 2.275 2.862 5.352 4.039 8.293l.209.55.123.322h22.689v-5.846l-.406-.078-.686-.132-.005-.001c-4.473-.814-9.371-2.658-13.058-5.447-3.682-2.787-6.107-6.39-6.107-10.946V414.72H329.979v1.503z" stroke="#0F6195"/><mask id="a" fill="#fff"><path d="M604.887 468.45h.005l-.002-.028-.003.028z"/></mask><path d="M604.887 468.45l-.992-.132-.15 1.132h1.142v-1zm.005 0v1h1.118l-.124-1.11-.994.11zm-.002-.028h1l-1.991-.132.991.132zm-.003 1.028h.005v-2h-.005v2zm.005-1l.994-.11v.002l.001.002v.004l.001.009c0 .001.002.027.002.065h-2c0 .049.004.09.005.101l.002.024.001.008v.005l.994-.11zm-.993-.16l-.004.028 1.983.264.004-.028-1.983-.264z" fill="#0F6195" mask="url(#a)"/><path d="M631.988 415.54c.143 5.67 2.009 9.958 4.407 10.729.157.049.28.219.343.367l-24.979-.011c.068-.156.194-.197.355-.249l.007-.003c2.38-.805 4.229-5.216 4.373-10.861m15.494.028c-.009-.318-.248-.317-.554-.314h-1.508l-.132-.002c-.282-.006-.496-.011-.506.29m2.7.026l-.499.014h-.001v-.005l.001.004.499-.013zm-2.7-.026c-.158 5.336-2.355 9.395-5.045 9.395-2.688 0-4.887-3.979-5.047-9.315m10.092-.08l.5.016v-.001-.004.003l-.5-.014zm-10.092.08c-.012-.345-.295-.37-.64-.37h-1.422a5.73 5.73 0 01-.134-.002c-.283-.006-.496-.011-.506.29m2.702.082l-.499.016h-.001v-.005l.001.004.499-.015zm-2.702-.082l.5.016v-.001-.004.002l-.5-.013zm-4.28 11.43a.56.56 0 01.002-.073.008.008 0 01.005-.002l.047-.016.008-.002h0l.005-.002c1.402-.474 2.534-1.952 3.328-3.901.787-1.931 1.288-4.434 1.379-7.224h.008l.138.002h1.422c.058 0 .105.001.144.003.095 2.678.694 5.044 1.632 6.765.942 1.728 2.297 2.917 3.911 2.917 1.619 0 2.973-1.214 3.912-2.959.928-1.724 1.523-4.079 1.626-6.726h.008l.137.002h1.515l.04-.001h.012c.088 2.812.594 5.302 1.391 7.209.799 1.911 1.935 3.341 3.335 3.803a.298.298 0 01.058.092l.002.013a.334.334 0 01.004.067.326.326 0 01-.007.069l-.003.016-.011.022-.009.028.474.159-.474-.159h0l-.001.001-.001.005-.005.016-.021.061-.076.233a73.117 73.117 0 00-1.087 3.722c-.537 2.055-1.084 4.56-1.147 6.489h-19.347c-.063-1.926-.605-4.414-1.139-6.451a71.191 71.191 0 00-1.078-3.689l-.075-.231-.02-.061-.006-.016-.001-.004v-.001h-.001l-.473.16.473-.16-.009-.029-.01-.02a.676.676 0 01-.015-.127z" stroke="#0F6195"/><mask id="b" fill="#fff"><path d="M643.591 468.45h.004l-.002-.024a.187.187 0 01-.002.024z"/></mask><path d="M643.591 468.45l-.99-.141-.163 1.141h1.153v-1zm.004 0v1h1.079l-.082-1.077-.997.077zm-.002-.024l.997-.077-1.997.077h1zm-.002 1.024h.004v-2h-.004v2zm1.001-1.077l-.002-.024-1.994.154.001.024 1.995-.154zm-1.999.053a.812.812 0 01.007-.11v-.003l.001-.002v-.001-.001l.99.141.99.141v-.001-.003l.001-.004.001-.011.004-.03c.002-.019.006-.063.006-.116h-2z" fill="#0F6195" mask="url(#b)"/><path d="M643.595 468.388l-.001.017h-.003m.004-.017s0 0 0 0m0 0s0 0 0 0m0 0l-.002.007a.036.036 0 00-.002.01m.004-.017v-.001.001zm-.004.017l.002.023.001-.023h-.003z" stroke="#0F6195"/><mask id="c" fill="#fff"><path d="M604.887 468.359l.003.062.004-.038c0-.007-.007-.015-.007-.024z"/></mask><path d="M604.89 468.421l-.997.071 1.993.028-.996-.099zm.004-.038l.995.1.005-.05v-.05h-1zm.993-.024l-.001.024c0 .004 0 .037-.005.079 0 .004-.007.09-.038.191-.002.006-.063.239-.272.435-.138.109-.517.257-.75.269a1.752 1.752 0 01-.636-.286c-.165-.162-.227-.341-.232-.354a.896.896 0 01-.036-.116c-.011-.041-.016-.074-.018-.084l-.007-.052-.001-.019-.002-.015v-.01.013l.004.058 1.995-.142-.002-.027-.001-.017-.001-.018-.001-.016-.002-.019a.79.79 0 00-.024-.136 1.03 1.03 0 00-.036-.116c-.006-.014-.068-.192-.232-.354a1.766 1.766 0 00-.637-.286c-.232.012-.611.16-.75.269-.209.196-.269.428-.271.435-.031.101-.038.186-.039.191a1.14 1.14 0 00-.005.079v.024h2zm-.001.161l.003-.037-1.99-.199-.004.037 1.991.199zm.008-.137a.989.989 0 00-.063-.352l-.016-.041-.012-.028-.007-.014-.001-.002c0-.001 0 0 0 0l.005.009a.99.99 0 01.087.404h-2a1.006 1.006 0 00.082.403l.011.024.006.012v.001l.001.001-.001-.001-.005-.011-.011-.025a2 2 0 01-.015-.039l-.019-.056a1.013 1.013 0 01-.042-.285h2z" fill="#0F6195" mask="url(#c)"/><path d="M605.404 468.499l7.948-23.747.001-.002c.518-1.507.86-2.585 1.05-4.276h19.675c.191 1.692.533 2.78 1.05 4.291l.001.002 7.953 23.729c-.021.097-.086.225-.25.386-.207.203-.535.422-1.001.644-.929.443-2.301.853-4.034 1.2-3.457.692-8.248 1.116-13.555 1.116-5.302 0-10.087-.424-13.543-1.115-1.732-.347-3.104-.755-4.035-1.198-.467-.222-.797-.44-1.006-.644-.165-.161-.232-.289-.254-.386zM419.115 439.699a1.188 1.188 0 01-.459.285 1.508 1.508 0 01-.237.058c-1.128.184-2.829-.499-5.206-2.876-2.377-2.377-3.06-4.078-2.876-5.206a1.5 1.5 0 01.058-.236c.059-.173.156-.331.285-.46l7.743-7.742c.759-.76 1.861-1.448 3.064-1.946s2.468-.79 3.541-.79h2.826c.551 0 1.03.379 1.157.915a9.79 9.79 0 0019.049 0 1.19 1.19 0 011.157-.915h2.826c1.076 0 2.34.291 3.542.788 1.201.498 2.302 1.186 3.063 1.948l7.743 7.742c.129.129.227.287.285.46a1.5 1.5 0 01.058.236c.184 1.128-.499 2.829-2.876 5.206-2.377 2.377-4.078 3.06-5.206 2.876a1.5 1.5 0 01-.236-.058 1.192 1.192 0 01-.46-.285l-2.723-2.724-.467-.467-.323.576a27.988 27.988 0 00-1.308 2.665 29.774 29.774 0 00-2.436 11.773c0 4.271.919 8.401 2.447 12.222a33.649 33.649 0 001.682 3.592c.198.363.381.681.545.95.093.153.159.256.192.305.526.79-.04 1.848-.989 1.848h-32.081a1.188 1.188 0 01-.988-1.848c.032-.049.098-.152.191-.305.164-.269.347-.587.546-.95a33.85 33.85 0 001.681-3.592c1.528-3.821 2.447-7.951 2.447-12.222 0-4.261-.914-8.221-2.436-11.773a27.988 27.988 0 00-1.308-2.665l-.323-.576-.466.467-2.724 2.724zM530.107 469.531c-3.13.019-9.472-.325-16.168-1.568m16.168 1.568c3.131.019 9.473-.325 16.169-1.568m-16.169 1.568v-23.946m-10.95-19.623c-8.599 12.868-14.649 37.882-14.649 39.579 3.022 1.046 6.266 1.834 9.431 2.422m5.218-42.001c3.512 1.299 8.763 1.503 10.95 1.443 2.187.06 7.439-.144 10.951-1.443m-21.901 0v-4.269c1.468.24 5.712.721 10.95.721 5.239 0 9.483-.481 10.951-.721v4.269m-24.324 20.451c-.632 3.607-2.077 12.966-2.795 21.55m27.119-42.001c8.598 12.868 14.649 37.882 14.649 39.579-3.022 1.046-6.266 1.834-9.431 2.422m0 0c-.718-8.584-2.163-17.943-2.796-21.55" stroke="#0F6195"/><circle cx="651.672" cy="297.156" r="5.054" fill="#7BBEE8"/><circle cx="624.662" cy="435.06" r="2.111" fill="#7BBEE8"/><circle cx="528.421" cy="435.06" r="2.111" fill="#7BBEE8"/><circle cx="437.246" cy="435.06" r="2.111" fill="#7BBEE8"/><circle cx="344.382" cy="435.06" r="2.111" fill="#7BBEE8"/><path d="M651.672 302.21v53.016H343.973M344.473 355.226v80.218M437.496 355.226v80.218M528.478 355.226v80.218M624.74 355.226v80.218" stroke="#7BBEE8"/></svg>