<?xml version="1.0" ?>

<!DOCTYPE svg  PUBLIC '-//W3C//DTD SVG 1.1//EN'  'http://www.w3.org/Graphics/SVG/1.1/DTD/svg11.dtd'>

<!-- Uploaded to: SVG Repo, www.svgrepo.com, Generator: SVG Repo Mixer Tools -->
<svg fill="rgba(185, 9, 27, 1)" width="800px" height="800px" viewBox="0 0 512 512" version="1.1" xml:space="preserve" xmlns="http://www.w3.org/2000/svg" xmlns:xlink="http://www.w3.org/1999/xlink">

<g id="_x37_24_x2C__Analysis_x2C__argument_x2C__business_x2C__convince_x2C__debate">

<g>

<path d="M483.14,47.525h-23.542h-0.092H56.256v326.936v0.123v17.672h183.021    c0.978,0,1.925,0.367,2.66,1.101l27.762,27.732l27.762-27.732c0.672-0.704,1.62-1.101,2.658-1.101H483.14V47.525z     M404.258,485.999h50.693v-37.853h-50.693V485.999z M152.627,448.115v15.196h220.535c2.049,0,3.762,1.683,3.762,3.761    c0,2.079-1.713,3.762-3.762,3.762H152.627v15.165h244.141v-37.884H152.627z M145.106,485.999v-37.853h-24.093l-43.906,18.926    l43.906,18.927H145.106z M166.049,209.633l2.538,0.674c1.988,0.457,4.129,0.701,6.391,0.701c6.298,0,12.169-1.986,16.938-5.35    c1.62-1.162,3.118-2.477,4.464-3.914l0.305-0.336h0.032l0.06-0.062l0,0l0.032-0.06l0.121-0.154l0.061-0.061l0.062-0.061h0.032    l0.03-0.062l0.062-0.062l0.03-0.062h0.031l0.062-0.091l0.03-0.063l0.03-0.029l0.032-0.031l0.062-0.062l0.062-0.06v-0.031    l0.06-0.063l0.062-0.061l0.031-0.03l0.03-0.03l0.032-0.061l0.06-0.094l0,0l0.062-0.059l0.062-0.063l0.03-0.031l0.032-0.029    l0.061-0.092l0.03-0.062l0,0l0.062-0.062l0.062-0.091l0.03-0.032l0.032-0.029l0.152-0.214l0.062-0.062    c0.581-0.795,1.162-1.651,1.681-2.508c0.367-0.643,0.733-1.284,1.039-1.925l-0.244-0.093l-0.123-0.03l-1.772-0.489l-0.123-0.029    c-1.223-0.275-2.476-0.49-3.76-0.613l0,0h-0.123h-0.03l-0.428-0.061h-0.031h-0.121l0,0h-0.093h-0.03h-0.062l-0.091-0.03h-0.031    h-0.091h-0.03h-0.062h-0.062h-0.062h-0.091l0,0h-0.091l-0.062-0.032h-0.062h-0.091l0,0h-0.093h-0.03H193.2h-0.062h-0.032h-0.121    l0,0h-0.091h-0.032h-0.062h-0.091h-0.03l-0.093-0.029h-0.03h-0.091h-0.062h-0.032h-0.091h-0.305l-0.091,0.029h-0.214h-0.154    h-0.153h-0.244h-0.03l-0.307,0.032h-0.03h-0.246h-0.121l-0.184,0.03h-0.183l-0.093,0.031h-0.306l0,0l-0.275,0.029h-0.091    l-0.214,0.031l-0.153,0.03h-0.123l-0.244,0.03h-0.032l-0.305,0.061h-0.03l-0.246,0.032h-0.121l-0.153,0.03l-0.214,0.031    l-0.093,0.029l-0.244,0.03l-0.03,0.032l-0.276,0.029l-0.061,0.031l-0.214,0.029l-0.152,0.032l-0.123,0.03l-0.244,0.061h-0.031    l-0.275,0.063h-0.03l-0.244,0.061l-0.123,0.03l-0.152,0.03l-0.185,0.061h-0.091l-0.275,0.092l0,0l-0.335,0.093l-0.214,0.062    l-0.154,0.029l-0.335,0.123h-0.062l-0.275,0.092l0,0l-0.704,0.244l-0.091,0.031c-0.856,0.305-1.713,0.672-2.538,1.039h-0.031    c-0.641,0.305-1.253,0.642-1.864,0.979l-0.093,0.029c-0.795,0.461-1.59,0.948-2.323,1.469l0,0c-1.467,1.01-2.813,2.14-4.036,3.395    C169.321,204.282,167.456,206.82,166.049,209.633z M199.468,209.603c-0.979,0.856-1.988,1.651-3.059,2.385    c-6.054,4.312-13.452,6.849-21.433,6.849c-2.722,0-5.441-0.305-8.072-0.886c-1.162-0.246-2.293-0.552-3.424-0.918    c-0.367,1.865-0.581,3.821-0.581,5.81c0,8.07,3.301,15.408,8.621,20.729c5.289,5.32,12.627,8.591,20.76,8.591    c8.102,0,15.41-3.271,20.731-8.591c5.318-5.289,8.591-12.628,8.591-20.729c0-1.56-0.093-3.088-0.337-4.586    c-4.373-0.215-8.591-1.254-12.445-2.875C205.429,213.914,202.25,211.957,199.468,209.603z M208.06,198.565    c-0.306,0.61-0.643,1.223-1.009,1.833l-0.214,0.429c-0.643,1.04-1.314,2.05-2.08,3.059c2.141,1.742,4.556,3.21,7.125,4.31    c2.17,0.918,4.464,1.561,6.849,1.927c-1.437-2.995-3.364-5.717-5.717-8.04c-1.438-1.469-3.027-2.754-4.771-3.883L208.06,198.565z     M195.981,287.354h13.943l-0.398-12.107L195.981,287.354z M174.06,275.889l-0.581,11.465h12.506L174.06,275.889z M203.504,270.568    v-12.291c-3.548,1.133-7.309,1.713-11.222,1.713c-4.311,0-8.409-0.703-12.26-2.049v13.269l10.976,10.55L203.504,270.568z     M322.103,209.633l2.539,0.674c2.017,0.457,4.157,0.701,6.389,0.701c6.329,0,12.169-1.986,16.938-5.35    c1.62-1.162,3.119-2.477,4.494-3.914l0.307-0.336l0,0l0.061-0.062l0,0l0.061-0.06l0.123-0.154l0.03-0.061l0.062-0.061h0.031    l0.029-0.062l0.063-0.062l0.061-0.062l0,0l0.063-0.091l0.059-0.063v-0.029l0.063-0.031l0.031-0.062l0.061-0.06v-0.031l0.061-0.063    l0.061-0.061l0.032-0.03l0.03-0.03l0.061-0.061l0.03-0.094h0.031l0.03-0.059l0.061-0.063l0.032-0.031l0.03-0.029l0.061-0.092    l0.063-0.062l0,0l0.029-0.062l0.062-0.091l0.03-0.032l0.031-0.029l0.152-0.214l0.062-0.062c0.61-0.795,1.161-1.651,1.681-2.508    c0.367-0.643,0.734-1.284,1.07-1.925l-0.275-0.093l-0.123-0.03l-1.742-0.489l-0.152-0.029c-1.223-0.275-2.477-0.49-3.761-0.613    l0,0h-0.091h-0.062l-0.429-0.061h-0.031h-0.092l0,0h-0.121h-0.031h-0.061l-0.092-0.03l0,0h-0.123l0,0h-0.091h-0.062h-0.029h-0.123    l0,0h-0.092l-0.031-0.032h-0.062h-0.091h-0.03h-0.091h-0.032h-0.091h-0.062h-0.03h-0.093l0,0h-0.121h-0.032h-0.061h-0.092h-0.029    l-0.094-0.029h-0.029h-0.062h-0.062h-0.061h-0.092h-0.306l-0.091,0.029h-0.215h-0.152h-0.123h-0.245h-0.06l-0.275,0.032h-0.062    h-0.244h-0.122l-0.186,0.03h-0.182l-0.094,0.031h-0.273l0,0l-0.307,0.029h-0.061l-0.213,0.031l-0.154,0.03h-0.153l-0.214,0.03    h-0.061l-0.275,0.061h-0.061l-0.246,0.032h-0.092l-0.182,0.03l-0.185,0.031l-0.091,0.029l-0.275,0.03l-0.03,0.032l-0.275,0.029    l-0.062,0.031l-0.214,0.029l-0.153,0.032l-0.122,0.03l-0.214,0.061h-0.063l-0.273,0.063h-0.031l-0.244,0.061l-0.123,0.03    l-0.152,0.03l-0.184,0.061h-0.092l-0.275,0.092l0,0l-0.336,0.093l-0.213,0.062l-0.123,0.029l-0.672,0.215h-0.032l-0.672,0.244    l-0.091,0.031c-1.561,0.549-3.059,1.223-4.465,2.018l-0.093,0.029c-0.795,0.461-1.558,0.948-2.323,1.469l0,0    c-1.438,1.01-2.781,2.14-4.036,3.395C325.375,204.282,323.51,206.82,322.103,209.633z M355.521,209.603    c-0.979,0.856-1.988,1.651-3.027,2.385c-6.085,4.312-13.482,6.849-21.464,6.849c-2.722,0-5.441-0.305-8.071-0.886    c-1.131-0.246-2.294-0.552-3.424-0.918c-0.367,1.865-0.551,3.821-0.551,5.81c0,8.07,3.271,15.408,8.591,20.729    c5.321,5.32,12.659,8.591,20.761,8.591s15.439-3.271,20.76-8.591c5.289-5.289,8.592-12.628,8.592-20.729    c0-1.56-0.123-3.088-0.367-4.586c-4.372-0.215-8.561-1.254-12.412-2.875C361.482,213.914,358.334,211.957,355.521,209.603z     M364.143,198.565c-0.335,0.61-0.672,1.223-1.009,1.833l-0.244,0.429c-0.642,1.04-1.314,2.05-2.048,3.059    c2.139,1.742,4.523,3.21,7.123,4.31c2.141,0.918,4.434,1.561,6.849,1.959c-1.468-3.027-3.394-5.749-5.718-8.072    c-1.467-1.469-3.057-2.754-4.769-3.883L364.143,198.565z M352.035,287.354h13.973l-0.428-12.107L352.035,287.354z     M330.113,275.889l-0.582,11.465h12.507L330.113,275.889z M373.01,273.504l0.612,17.489c0.062,2.077-1.59,3.79-3.64,3.852    l-44.394,0.03c-2.079,0-3.761-1.682-3.761-3.761l0.916-17.763l-33.663,14.674v29.598h117.286v-29.598L373.01,273.504z     M359.558,270.568v-12.291c-3.546,1.133-7.309,1.713-11.222,1.713c-4.279,0-8.407-0.703-12.229-2.049v13.269l10.943,10.55    L359.558,270.568z M244.076,158.451l2.537,0.702c2.018,0.429,4.159,0.674,6.391,0.674c6.298,0,12.169-1.987,16.938-5.382    c1.59-1.131,3.088-2.414,4.433-3.822l0.184-0.243c1.347-1.437,2.569-3.059,3.608-4.802c0.366-0.609,0.733-1.252,1.07-1.895    l-0.275-0.092l-1.896-0.521l-0.123-0.03c-1.223-0.305-2.476-0.489-3.76-0.611l0,0l-0.123-0.03h-0.03l-0.428-0.03h-0.032h-0.091    l0,0l-0.123-0.031h-0.029h-0.062h-0.092l0,0h-0.122h-0.03h-0.062h-0.062h-0.029l-0.123-0.029l0,0h-0.091h-0.062h-0.062h-0.062    h-0.03h-0.093h-0.029h-0.092h-0.062l-0.029-0.032h-0.123l0,0h-0.092h-0.031h-0.062h-0.091h-0.03h-0.093h-0.03h-0.091h-0.062H270.4    h-0.092h-0.305h-0.092h-0.214h-0.154l-0.121,0.032h-0.275h-0.03h-0.307l-0.03,0.029h-0.245h-0.121l-0.185,0.031h-0.183h-0.093    l-0.273,0.03h-0.032l-0.275,0.03h-0.091l-0.214,0.031h-0.153l-0.123,0.029l-0.243,0.031h-0.032l-0.305,0.03l-0.03,0.032    l-0.245,0.029h-0.121l-0.153,0.029l-0.184,0.032l-0.123,0.03l-0.244,0.031h-0.03l-0.275,0.06h-0.062l-0.214,0.062l-0.152,0.031    l-0.123,0.029l-0.244,0.032l-0.031,0.03l-0.306,0.061l0,0l-0.275,0.063h-0.091l-0.185,0.061l-0.152,0.03l-0.121,0.03l-0.246,0.061    v0.031c-0.458,0.121-0.916,0.244-1.375,0.396l0,0c-4.464,1.438-8.439,3.945-11.68,7.154    C247.348,153.1,245.483,155.639,244.076,158.451z M277.494,158.42c-0.979,0.856-1.987,1.651-3.026,2.385    c-6.086,4.312-13.483,6.85-21.464,6.85c-2.722,0-5.441-0.307-8.072-0.887c-1.162-0.275-2.293-0.581-3.424-0.947    c-0.367,1.895-0.551,3.821-0.551,5.808c0,8.104,3.271,15.44,8.591,20.761c5.291,5.32,12.658,8.592,20.76,8.592    s15.44-3.271,20.73-8.592c5.319-5.32,8.621-12.657,8.621-20.761c0-1.528-0.122-3.057-0.366-4.556    c-4.373-0.244-8.562-1.252-12.444-2.904C283.455,162.731,280.308,160.775,277.494,158.42z M286.115,147.354    c-0.366,0.701-0.733,1.344-1.1,2.018l-0.152,0.273c-0.643,1.041-1.314,2.05-2.05,3.027c2.141,1.773,4.525,3.211,7.124,4.311    c2.141,0.918,4.435,1.59,6.819,1.957c-1.438-2.995-3.364-5.717-5.718-8.072l-0.245-0.244l0,0    c-1.376-1.346-2.874-2.537-4.494-3.607L286.115,147.354z M274.008,236.172h13.943l-0.398-12.108L274.008,236.172z     M252.086,224.705l-0.581,11.467h12.505L252.086,224.705z M217.537,273.748c-0.214-0.061-0.396-0.153-0.581-0.244l0,0    l0.581,17.489c0.062,2.077-1.558,3.79-3.607,3.852l-44.394,0.03c-2.08,0-3.762-1.682-3.762-3.761l0.917-17.763l-33.663,14.674    v29.598h117.286v-29.598L217.537,273.748z M328.34,264.086v-9.906c-2.293-1.467-4.402-3.148-6.299-5.074    c-5.197-5.197-8.865-11.955-10.272-19.477l-16.786-7.338l0.581,17.52c0.062,2.08-1.559,3.791-3.608,3.852l-44.393,0.031    c-2.08,0-3.762-1.682-3.762-3.76l0.917-17.766l-15.807,6.881c-1.285,7.765-5.015,14.707-10.365,20.057    c-2.232,2.232-4.738,4.188-7.491,5.809v9.172l0,0l0.032-0.029l0.182-0.063h0.032c0.856-0.334,1.865-0.334,2.781,0.063l0.062,0.061    h0.062l0.062,0.03c0.152,0.062,0.305,0.122,0.458,0.214h0.031l0.062,0.031l4.646,2.049h100.439l5.379-2.355l0.032-0.029h0.03    l0.031-0.03h0.062l0,0l0.091-0.032l0,0l0.062-0.029h0.03l0.031-0.031h0.06l0.032-0.03h0.061l0,0l0.061-0.03h0.031h0.029    l0.031-0.031h0.063h0.029h0.029l0.063-0.029l0,0h0.093l0,0l0.06-0.031h0.031h0.03h0.062h0.031h0.06l0,0l0.062-0.03h0.062l0,0    h0.091l0,0h0.062h0.032h0.029h0.062h0.03h0.061l0,0l0.063,0.03h0.029h0.031h0.062h0.03h0.061h0.03l0.032,0.031h0.061h0.03h0.062    l0,0l0.061,0.029h0.03h0.032h0.059v0.031h0.094l0.062,0.03h0.03h0.029l0.031,0.03h0.03l0.062,0.031l0.091,0.029l0,0h0.062    l0.031,0.032h0.03l0.062,0.03l0,0L328.34,264.086L328.34,264.086z M281.53,219.387v-12.291c-3.548,1.1-7.309,1.712-11.222,1.712    c-4.312,0-8.408-0.704-12.26-2.05v13.271l10.976,10.548L281.53,219.387z M289.052,203.732v9.173    c0.979-0.429,2.079-0.429,3.057-0.032l0.031,0.032c0.275,0.091,0.52,0.183,0.733,0.335l18.314,7.951    c0.396-9.603,4.494-18.285,10.854-24.645c4.771-4.77,10.825-8.256,17.58-9.875l0.308-0.062l0.06-0.03    c0.581-0.123,1.162-0.246,1.744-0.337l0.03-0.03l0.337-0.031l0.335-0.061h0.032l0.213-0.03l0.121-0.032l0.338-0.059h0.029    l0.369-0.063h0.059l0.308-0.031l0.153-0.029h0.213l0.244-0.031l0.123-0.03l0.367-0.03l0.366-0.031h0.091l0.276-0.029h0.214h0.152    l0.306-0.032h0.062h0.367l0.061-0.03h0.306h0.154h0.214h0.273l0.123-0.029h0.367h0.123h0.121h0.123l0.091,0.029h0.031h0.153h0.123    h0.121h0.061h0.062h0.123h0.152h0.123h0.03l0.091,0.03h0.123h0.122h0.121h0.154l0.121,0.032h0.123h0.092h0.031h0.121l0.123,0.029    h0.123c9.141,0.674,17.367,4.648,23.512,10.793c6.727,6.727,10.885,16.021,10.885,26.295c0,10.242-4.158,19.536-10.916,26.264    c-2.232,2.262-4.77,4.219-7.521,5.809v9.203c0.979-0.457,2.08-0.457,3.057-0.031h0.031c0.276,0.093,0.52,0.214,0.734,0.337    l40.726,17.733c1.405,0.612,2.262,1.988,2.262,3.426v35.802c0,2.048-1.681,3.761-3.76,3.761H285.321    c-2.08,0-3.761-1.713-3.761-3.761v-35.802c0-1.652,1.07-3.027,2.537-3.549l18.59-8.102h-65.98l18.865,8.225    c1.406,0.612,2.232,1.988,2.232,3.426l0.029,35.802c0,2.048-1.681,3.761-3.76,3.761H129.268c-2.08,0-3.76-1.713-3.76-3.761    v-35.802c0-1.652,1.039-3.027,2.537-3.549l41.184-17.947l0.032-0.029h0.03l0.031-0.03h0.06l0,0l0.061-0.032h0.032l0.062-0.029    h0.03l0.03-0.031h0.032l0.03-0.03h0.062l0,0l0.091-0.03l0,0h0.062l0.032-0.031h0.03h0.062h0.03l0.062-0.029l0,0h0.061h0.03    l0.061-0.031h0.032h0.03h0.062l0,0h0.091l0,0l0.062-0.03h0.031h0.03h0.062h0.03h0.062h0.032h0.03h0.062l0,0h0.091l0,0l0.062,0.03    h0.03h0.032h0.062h0.03h0.062l0,0l0.061,0.031h0.03h0.031h0.06h0.032l0.062,0.029l0,0h0.062h0.03l0.03,0.031h0.062l0.093,0.03l0,0    h0.06l0.032,0.03h0.03l0.062,0.031l0.062,0.029h0.03h0.031l0.062,0.032l0,0l0.06,0.03h0.032l0.062,0.029l0,0l0.062,0.031h0.03    l0.03,0.03l0.062,0.031l0,0l0.061,0.03v-9.876c-2.385-1.499-4.585-3.241-6.543-5.228c-6.726-6.728-10.915-16.021-10.915-26.264    c0-10.273,4.189-19.568,10.915-26.295c4.74-4.77,10.793-8.256,17.581-9.875l0.305-0.062l0.032-0.03    c0.581-0.123,1.191-0.246,1.772-0.337v-0.03l0.368-0.031l0.335-0.061h0.031l0.183-0.03l0.153-0.032l0.307-0.059h0.06l0.367-0.063    h0.062l0.307-0.031l0.152-0.029h0.214l0.244-0.031l0.123-0.03l0.367-0.03l0.367-0.031h0.091l0.275-0.029h0.184h0.183l0.305-0.032    h0.062h0.367l0.032-0.03h0.335h0.153h0.214h0.275l0.093-0.029h0.396h0.123h0.121h0.123l0.091,0.029h0.032h0.123h0.152h0.121h0.062    h0.062h0.123h0.121h0.123h0.062l0.091,0.03h0.123h0.123h0.121h0.123l0.123,0.032h0.152h0.091h0.032h0.121l0.123,0.029h0.123    c9.141,0.674,17.365,4.648,23.48,10.793c6.268,6.236,10.304,14.707,10.823,24.123l17.856-7.765l0.061-0.032h0.03l0.032-0.029    l0.062-0.031l0,0l0.06-0.03h0.032h0.062v-0.03h0.06l0.031-0.031h0.03h0.061v-0.029h0.091l0,0l0.062-0.032h0.032h0.03l0.062-0.03    h0.03h0.061l0,0l0.062-0.031h0.032h0.06h0.032h0.03h0.062l0,0l0.061-0.029h0.03h0.061h0.032h0.03h0.062l0,0h0.091h0.031h0.03    h0.061l0,0h0.091l0,0h0.062h0.03h0.032l0.062,0.029l0,0h0.091l0,0h0.062h0.03l0.032,0.031h0.06l0,0h0.093l0,0l0.061,0.03h0.03    h0.03l0.061,0.032h0.093v0.029h0.06h0.032l0.03,0.031l0.062,0.03h0.061h0.03l0.032,0.03l0.062,0.031l0,0l0.062,0.029h0.03    l0.062,0.032l0,0l0.061,0.03h0.03l0.03,0.031h0.061v0.029l0.062,0.03l0,0v-9.876c-2.385-1.496-4.585-3.239-6.543-5.228    c-6.726-6.726-10.915-16.021-10.915-26.295c0-10.242,4.188-19.567,10.915-26.293c4.587-4.587,10.397-7.98,16.877-9.661    l0.122-0.032l0.215-0.062l0.214-0.06l0.152-0.032l0.306-0.09h0.031l0.367-0.063l0.062-0.029l0.275-0.062l0.152-0.032l0.214-0.029    l0.244-0.062l0.123-0.03l0.335-0.061l0,0l0.368-0.062h0.092l0.275-0.062l0.183-0.029h0.152l0.307-0.063h0.061l0.368-0.061h0.06    l0.307-0.03l0.153-0.031l0.214-0.03l0.244-0.031h0.123l0.366-0.029l0.367-0.032h0.091l0.275-0.03h0.185l0.183-0.029h0.305h0.062    l0.367-0.031h0.062h0.305h0.154l0.213-0.03h0.275h0.093h0.396h0.123h0.121h0.123h0.091h0.032h0.122h0.153l0.121,0.03h0.062h0.062    h0.122h0.121h0.123h0.062h0.091l0.123,0.031h0.123h0.121h0.123h0.122l0.153,0.029h0.091h0.032h0.121h0.122l0.123,0.03    c9.141,0.674,17.365,4.648,23.48,10.764c6.728,6.726,10.916,16.051,10.916,26.293c0,10.274-4.188,19.569-10.916,26.295    C294.34,200.155,291.803,202.142,289.052,203.732z M150.823,90.85h52.007c3.975,0,7.614,1.621,10.243,4.25    c2.63,2.631,4.25,6.238,4.25,10.242v28.589c0,3.975-1.62,7.612-4.25,10.243c-2.385,2.385-5.594,3.942-9.172,4.218v8.623    c0,0.672-0.182,1.345-0.549,1.956c-1.102,1.772-3.396,2.324-5.168,1.224l-18.986-11.771h-28.375c-3.974,0-7.612-1.622-10.212-4.25    c-2.629-2.631-4.249-6.238-4.249-10.243v-28.589c0-4.004,1.62-7.611,4.249-10.242C143.211,92.471,146.849,90.85,150.823,90.85z     M202.83,98.371h-52.007c-1.895,0-3.637,0.795-4.892,2.049c-1.285,1.254-2.048,2.996-2.048,4.922v28.589    c0,1.925,0.763,3.667,2.048,4.923c1.255,1.252,2.997,2.047,4.892,2.047h29.413c0.856,0,1.62,0.275,2.262,0.734l13.912,8.652    v-5.626c0-2.077,1.683-3.761,3.76-3.761h2.66c1.927,0,3.669-0.795,4.924-2.047c1.253-1.256,2.048-2.998,2.048-4.923v-28.589    c0-1.926-0.795-3.668-2.048-4.922C206.5,99.166,204.757,98.371,202.83,98.371z M158.804,112.59c-2.08,0-3.761-1.684-3.761-3.763    c0-2.077,1.681-3.761,3.761-3.761h36.078c2.079,0,3.76,1.684,3.76,3.761c0,2.079-1.681,3.763-3.76,3.763H158.804z     M158.804,127.203c-2.08,0-3.761-1.682-3.761-3.729c0-2.08,1.681-3.763,3.761-3.763h36.078c2.079,0,3.76,1.683,3.76,3.763    c0,2.047-1.681,3.729-3.76,3.729H158.804z M276.577,111.61c1.437,0,2.904-0.918,3.394-2.109c1.253-2.507-0.672-5.411-3.394-5.411    h-7.521c-1.407,0-2.874,0.947-3.363,2.109c-1.253,2.507,0.672,5.411,3.363,5.411H276.577z M306.632,111.61    c1.438,0,2.905-0.918,3.395-2.109c1.223-2.507-0.673-5.411-3.395-5.411h-7.522c-1.405,0-2.904,0.947-3.362,2.109    c-1.254,2.507,0.643,5.411,3.362,5.411H306.632z M336.688,111.61c1.406,0,2.904-0.918,3.362-2.109    c1.255-2.507-0.642-5.411-3.362-5.411h-7.522c-1.405,0-2.903,0.947-3.362,2.109c-1.254,2.507,0.643,5.411,3.362,5.411H336.688z     M366.741,111.61c1.407,0,2.906-0.918,3.364-2.109c1.253-2.507-0.643-5.411-3.364-5.411h-7.521c-1.438,0-2.904,0.947-3.394,2.109    c-1.224,2.507,0.672,5.411,3.394,5.411H366.741z M396.768,111.61c1.437,0,2.903-0.918,3.393-2.109    c1.253-2.507-0.674-5.411-3.393-5.411h-7.492c-1.437,0-2.903,0.947-3.393,2.109c-1.256,2.507,0.672,5.411,3.393,5.411H396.768z     M426.82,111.61c1.438,0,2.906-0.918,3.396-2.109c1.253-2.507-0.674-5.411-3.396-5.411h-7.489c-1.437,0-2.905,0.947-3.394,2.109    c-1.255,2.507,0.672,5.411,3.394,5.411H426.82z M427.524,133.471c0,1.408,0.918,2.904,2.11,3.364    c2.506,1.253,5.412-0.642,5.412-3.364v-7.521c0-1.407-0.949-2.904-2.111-3.364c-2.506-1.252-5.411,0.643-5.411,3.364V133.471z     M427.524,163.526c0,1.405,0.918,2.874,2.11,3.364c2.506,1.252,5.412-0.674,5.412-3.364v-7.521c0-1.438-0.949-2.906-2.111-3.395    c-2.506-1.254-5.411,0.672-5.411,3.395V163.526z M427.524,193.551c0,1.437,0.918,2.905,2.11,3.393    c2.506,1.256,5.412-0.672,5.412-3.393v-7.492c0-1.436-0.949-2.903-2.111-3.393c-2.506-1.254-5.411,0.674-5.411,3.393V193.551z     M427.524,223.605c0,1.438,0.918,2.904,2.11,3.394c2.506,1.255,5.412-0.672,5.412-3.394v-7.49c0-1.438-0.949-2.904-2.111-3.395    c-2.506-1.253-5.411,0.672-5.411,3.395V223.605z M239.031,104.09c-1.437,0-2.904,0.947-3.394,2.109    c-1.253,2.507,0.674,5.411,3.394,5.411h7.491c1.438,0,2.904-0.918,3.394-2.109c1.254-2.507-0.672-5.411-3.394-5.411H239.031z     M52.496,40.034h403.25V26.002H28.861V370.73h19.873V43.797C48.733,41.717,50.416,40.034,52.496,40.034z" style="fill-rule:evenodd;clip-rule:evenodd;"/>

</g>

</g>

<g id="Layer_1"/>

</svg>