<?xml version="1.0" encoding="utf-8"?>
<!-- Generator: Adobe Illustrator 27.5.0, SVG Export Plug-In . SVG Version: 6.00 Build 0)  -->
<svg version="1.1" xmlns="http://www.w3.org/2000/svg" xmlns:xlink="http://www.w3.org/1999/xlink" x="0px" y="0px"
	 viewBox="0 0 750 500" style="enable-background:new 0 0 750 500;" xml:space="preserve">
<g id="BACKGROUND">
	<rect style="opacity:0.39;fill:#708CF5;" width="750" height="500"/>
</g>
<g id="OBJECTS">
	<g>
		<g>
			<rect x="147.886" y="321.524" style="fill:#397AFA;" width="15.75" height="75.941"/>
			<rect x="269.508" y="290.427" style="fill:#397AFA;" width="15.75" height="107.039"/>
			<rect x="210.009" y="297.135" style="fill:#397AFA;" width="15.749" height="100.331"/>
			<path style="fill:#FFFFFF;" d="M177.205,284.243v112.302v0.921h1.425h14.325h1.425v-0.921V284.243H177.205z M178.631,396.545
				V285.371h14.325v111.174H178.631z"/>
			<path style="fill:#FFFFFF;" d="M239.629,254.423v141.879v1.164h1.425h14.325h1.425v-1.164V254.423H239.629z M241.054,396.302
				V255.849h14.325v140.453H241.054z"/>
		</g>
		<g>
			<rect x="374.123" y="123.904" style="fill:#397AFA;" width="23.487" height="167.016"/>
			<rect x="555.492" y="131.298" style="fill:#397AFA;" width="23.487" height="159.622"/>
			<rect x="466.765" y="141.301" style="fill:#397AFA;" width="23.486" height="149.618"/>
			<path style="fill:#FFFFFF;" d="M417.846,77.608v211.577v1.736h2.125h21.362h2.126v-1.736V77.608H417.846z M419.971,289.185
				V79.734h21.362v209.451H419.971z"/>
			<path style="fill:#FFFFFF;" d="M510.934,77.608v211.577v1.736h2.125h21.363h2.126v-1.736V77.608H510.934z M513.06,289.185V79.734
				h21.363v209.451H513.06z"/>
			<path style="fill:#FFFFFF;" d="M592.103,211.363v75.521v2.164h2.125h21.362h2.126v-2.164v-75.521H592.103z M594.229,286.884
				v-73.396h21.362v73.396H594.229z"/>
		</g>
		<g>
			<g>
				<path style="fill:#397AFA;" d="M620.358,166.061c0,1.316-1.067,2.384-2.384,2.384s-2.384-1.067-2.384-2.384
					c0-1.316,1.067-2.384,2.384-2.384S620.358,164.745,620.358,166.061z"/>
				<path style="fill:#397AFA;" d="M645.881,86.325c0,1.316-1.067,2.384-2.384,2.384c-1.317,0-2.384-1.067-2.384-2.384
					c0-1.316,1.067-2.384,2.384-2.384C644.814,83.941,645.881,85.008,645.881,86.325z"/>
				<path style="fill:#FFFFFF;" d="M586.371,104.854c-2.218,0-4.021-1.804-4.021-4.022c0-2.218,1.804-4.022,4.021-4.022
					c2.218,0,4.023,1.804,4.023,4.022C590.394,103.049,588.589,104.854,586.371,104.854z M586.371,97.81
					c-1.666,0-3.021,1.355-3.021,3.022c0,1.667,1.355,3.022,3.021,3.022c1.667,0,3.023-1.355,3.023-3.022
					C589.394,99.165,588.038,97.81,586.371,97.81z"/>
				<path style="fill:#FFFFFF;" d="M660.241,141.819c-2.218,0-4.022-1.804-4.022-4.022c0-2.218,1.805-4.022,4.022-4.022
					c2.218,0,4.021,1.804,4.021,4.022C664.263,140.015,662.459,141.819,660.241,141.819z M660.241,134.775
					c-1.667,0-3.022,1.355-3.022,3.022c0,1.667,1.355,3.022,3.022,3.022c1.666,0,3.021-1.355,3.021-3.022
					C663.263,136.131,661.907,134.775,660.241,134.775z"/>
			</g>
			<g>
				<path style="fill:#397AFA;" d="M121.756,371.775c0,1.316-1.067,2.384-2.384,2.384c-1.316,0-2.384-1.067-2.384-2.384
					c0-1.316,1.067-2.384,2.384-2.384C120.689,369.391,121.756,370.458,121.756,371.775z"/>
				<circle style="fill:#397AFA;" cx="144.895" cy="292.038" r="2.384"/>
				<path style="fill:#FFFFFF;" d="M87.769,310.566c-2.218,0-4.021-1.804-4.021-4.022s1.804-4.022,4.021-4.022
					c2.218,0,4.022,1.805,4.022,4.022S89.986,310.566,87.769,310.566z M87.769,303.522c-1.666,0-3.021,1.355-3.021,3.022
					c0,1.666,1.355,3.022,3.021,3.022c1.667,0,3.022-1.355,3.022-3.022C90.791,304.878,89.435,303.522,87.769,303.522z"/>
				<path style="fill:#FFFFFF;" d="M91.291,239.198c0,1.945-1.577,3.522-3.522,3.522c-1.945,0-3.522-1.577-3.522-3.522
					s1.577-3.522,3.522-3.522C89.714,235.676,91.291,237.253,91.291,239.198z"/>
			</g>
		</g>
	</g>
	<g>
		<g>
			<g>
				<g>
					<g>
						<path style="fill:#576184;" d="M588.752,290.463L588.752,290.463c4.897-4.288,5.312-12.181-1.912-20.431l-83.539-95.405
							c-7.224-8.25-17.05-11.462-21.947-7.174l0,0c-4.897,4.288-3.01,14.452,4.214,22.703l83.539,95.404
							C576.331,293.81,583.855,294.751,588.752,290.463z"/>
						<path style="fill:#353148;" d="M582.193,293.476c-0.814,0-1.648-0.091-2.497-0.273c-3.678-0.792-7.47-3.32-10.966-7.313
							l-83.539-95.403c-7.393-8.445-9.263-18.946-4.167-23.408c5.097-4.463,15.26-1.222,22.652,7.221l83.539,95.405
							c3.475,3.968,5.419,8.118,5.625,12.004c0.19,3.6-1.145,6.843-3.76,9.132C587.089,292.584,584.742,293.476,582.193,293.476z
							 M486.917,166.044c-2.042,0-3.85,0.574-5.234,1.786c-4.681,4.1-2.77,13.967,4.261,21.997l83.539,95.404
							c3.353,3.83,6.958,6.248,10.425,6.994c3.193,0.685,6.136-0.054,8.516-2.138l0,0c2.379-2.083,3.593-5.04,3.419-8.327
							c-0.193-3.659-2.053-7.601-5.378-11.398l-83.539-95.404C497.973,169.302,491.78,166.044,486.917,166.044z"/>
					</g>
					<g>
						<g>
							<path style="fill:#9DD3FF;" d="M490.631,194.052l16.548-14.49c2.233-1.955,2.458-5.35,0.502-7.582l-6.102-6.966
								c-1.956-2.233-5.351-2.458-7.584-0.502l-16.545,14.487c-2.233,1.955-2.458,5.35-0.503,7.583l6.1,6.968
								C485.003,195.782,488.398,196.007,490.631,194.052z"/>
							<path style="fill:#121936;" d="M487.1,195.883c-0.132,0-0.265-0.004-0.398-0.013c-1.565-0.104-2.997-0.811-4.03-1.992
								l-6.101-6.968c-2.133-2.438-1.886-6.155,0.551-8.288l16.545-14.487c1.18-1.034,2.697-1.544,4.259-1.442
								c1.565,0.104,2.997,0.811,4.03,1.991l6.102,6.966c1.034,1.18,1.547,2.692,1.442,4.258c-0.103,1.565-0.81,2.996-1.991,4.03
								l-16.548,14.49C489.881,195.374,488.522,195.883,487.1,195.883z M497.53,163.679c-1.181,0-2.309,0.422-3.205,1.208
								l-16.545,14.487c-2.022,1.77-2.227,4.855-0.457,6.878l6.101,6.968c0.858,0.98,2.046,1.567,3.345,1.653
								c1.307,0.087,2.556-0.339,3.534-1.196l16.548-14.49c0.98-0.858,1.565-2.045,1.651-3.344c0.087-1.299-0.339-2.553-1.196-3.532
								l-6.102-6.966c-0.857-0.98-2.046-1.566-3.345-1.652C497.749,163.683,497.64,163.679,497.53,163.679z M490.632,194.052h0.01
								H490.632z"/>
						</g>
						<g>
							<line style="fill:#708CF5;" x1="494.621" y1="168" x2="505.369" y2="180.408"/>
							<path style="fill:#121936;" d="M505.369,180.908c-0.14,0-0.279-0.059-0.378-0.173l-10.748-12.408
								c-0.181-0.208-0.158-0.524,0.051-0.705c0.209-0.181,0.524-0.158,0.705,0.051l10.748,12.408
								c0.181,0.208,0.158,0.524-0.051,0.705C505.602,180.868,505.485,180.908,505.369,180.908z"/>
						</g>
						<g>
							<line style="fill:#708CF5;" x1="495.625" y1="178.829" x2="500.999" y2="185.033"/>
							<path style="fill:#121936;" d="M500.999,185.533c-0.14,0-0.279-0.059-0.378-0.173l-5.374-6.204
								c-0.181-0.208-0.158-0.524,0.051-0.705c0.209-0.181,0.524-0.158,0.705,0.051l5.374,6.204
								c0.181,0.208,0.158,0.524-0.051,0.705C501.231,185.493,501.115,185.533,500.999,185.533z"/>
						</g>
					</g>
				</g>
				<g>
					<g>
						<path style="fill:#121936;" d="M402.159,171.235c22.584,25.792,61.8,28.392,87.591,5.808
							c25.791-22.584,28.392-61.8,5.808-87.592c-22.584-25.791-61.8-28.392-87.591-5.808
							C382.176,106.228,379.575,145.443,402.159,171.235z M416.719,93.074c20.46-17.916,51.571-15.853,69.487,4.607
							c17.916,20.461,15.853,51.571-4.607,69.488c-20.461,17.916-51.571,15.853-69.487-4.608
							C394.195,142.101,396.258,110.99,416.719,93.074z"/>
					</g>
				</g>
				<path style="opacity:0.47;fill:#FFFFFF;" d="M410.819,163.527c18.62,21.265,50.952,23.407,72.217,4.788
					c21.265-18.62,23.407-50.952,4.788-72.216c-18.619-21.265-50.951-23.409-72.216-4.789
					C394.345,109.929,392.2,142.262,410.819,163.527z"/>
				<path style="opacity:0.69;fill:#FFFFFF;" d="M433.09,108.5c4.864,5.555,13.31,6.114,18.864,1.251
					c5.555-4.864,6.114-13.31,1.251-18.864c-4.864-5.555-13.309-6.115-18.864-1.251C428.786,94.499,428.226,102.945,433.09,108.5z"
					/>
			</g>
		</g>
		<g>
			<path style="fill:#121936;" d="M567.58,256.547c-0.147-0.581-57.708-6.321-57.708-6.321l-19.034,66.903
				c-1.539,5.41-2.47,10.975-2.776,16.591l-5.589,81.527c-0.092,1.342,0.981,2.476,2.325,2.459l25.93-0.32
				c1.381-0.017,2.532-1.061,2.684-2.433l6.978-63.012l8.778-21.543l2.773,84.815c0.047,1.426,1.227,2.553,2.654,2.533l27.383-0.009
				c0.897,0,1.645-0.685,1.724-1.579c1.56-31.159,3.119-62.317,4.679-93.476c0.714-14.263,2.577-28.476,2.409-42.777
				C570.694,271.639,569.49,264.103,567.58,256.547z"/>
			<path style="fill:#FFFFFF;" d="M527.913,335.539c-0.061,0-0.123-0.011-0.184-0.035c-0.257-0.102-0.383-0.392-0.281-0.648
				l12.89-32.638c0.102-0.257,0.392-0.386,0.648-0.281c0.257,0.102,0.383,0.392,0.281,0.648l-12.89,32.638
				C528.301,335.419,528.112,335.539,527.913,335.539z"/>
			<g>
				<path style="fill:#397AFA;" d="M536.672,417.545l-1.262,1.087l-17.829,16.115c-1.18,1.067-0.41,3.027,1.181,3.005l39.929-0.553
					c1.066-0.015,1.913-0.902,1.878-1.968l-0.071-17.677L536.672,417.545z"/>
				<path style="fill:#121936;" d="M517.581,434.747l0.62-0.561c0.299,0.274,0.69,0.459,1.168,0.452l39.929-0.553
					c0.492-0.007,0.931-0.205,1.265-0.514l0.005,1.659c0.036,1.066-0.811,1.954-1.877,1.968l-39.929,0.553
					C517.171,437.774,516.401,435.814,517.581,434.747z"/>
				<path style="fill:#FFFFFF;" d="M523.374,434.957c-0.274,0-0.498-0.221-0.5-0.496c-0.002-0.275,0.22-0.502,0.496-0.504
					l37.158-0.325c0.001,0,0.003,0,0.004,0c0.274,0,0.498,0.221,0.5,0.496s-0.22,0.502-0.496,0.504l-37.158,0.325
					C523.377,434.957,523.375,434.957,523.374,434.957z"/>
				<path style="fill:#FFFFFF;" d="M538.754,422.781c-0.135,0-0.271-0.055-0.369-0.162l-3.344-3.649
					c-0.187-0.204-0.172-0.52,0.031-0.707c0.202-0.185,0.52-0.172,0.707,0.031l3.344,3.649c0.187,0.204,0.172,0.52-0.031,0.706
					C538.996,422.738,538.875,422.781,538.754,422.781z"/>
				<path style="fill:#FFFFFF;" d="M536.009,425.37c-0.135,0-0.271-0.055-0.369-0.162l-3.343-3.649
					c-0.186-0.204-0.172-0.521,0.031-0.707c0.203-0.186,0.52-0.172,0.707,0.031l3.343,3.649c0.187,0.204,0.172,0.521-0.031,0.707
					C536.251,425.327,536.13,425.37,536.009,425.37z"/>
				<path style="fill:#FFFFFF;" d="M533.428,427.915c-0.135,0-0.27-0.055-0.369-0.162l-3.343-3.649
					c-0.187-0.204-0.172-0.52,0.031-0.707c0.203-0.186,0.52-0.172,0.707,0.031l3.343,3.649c0.187,0.204,0.172,0.521-0.031,0.707
					C533.67,427.872,533.549,427.915,533.428,427.915z"/>
				<path style="fill:#FFFFFF;" d="M538.691,418.281l-0.314-0.107c-1.336-0.679-0.909-6.252-0.84-6.623
					c0.107-0.58,0.435-1.084,0.921-1.418c0.485-0.334,1.073-0.459,1.653-0.352c0.581,0.107,1.084,0.434,1.419,0.921
					c0.334,0.486,0.459,1.073,0.352,1.653l0,0c-0.133,0.721-2.094,5.384-2.966,5.813L538.691,418.281z M539.707,410.744
					c-0.242,0-0.478,0.073-0.683,0.214c-0.267,0.183-0.445,0.458-0.505,0.775c-0.182,0.985-0.15,4.149,0.179,5.24
					c0.683-1.036,2.065-4.07,2.201-4.799l0,0c0.059-0.317-0.01-0.639-0.193-0.905c-0.183-0.267-0.459-0.445-0.776-0.505
					C539.856,410.751,539.781,410.744,539.707,410.744z"/>
				<path style="fill:#FFFFFF;" d="M538.094,418.246c-1.713,0-5.294-1.327-5.478-1.436c-1.051-0.619-1.402-1.975-0.785-3.025
					c0.616-1.05,1.977-1.403,3.024-0.784h0.001c0.569,0.335,3.826,2.902,4.165,4.26c0.084,0.337,0.001,0.573-0.084,0.712
					C538.818,418.168,538.512,418.246,538.094,418.246z M533.737,413.695c-0.102,0-0.204,0.013-0.306,0.039
					c-0.313,0.081-0.575,0.279-0.739,0.558c-0.338,0.575-0.144,1.318,0.431,1.657c0.668,0.393,3.833,1.228,4.896,1.326
					c-0.424-0.777-2.797-2.898-3.671-3.413C534.16,413.752,533.95,413.695,533.737,413.695z"/>
			</g>
			<g>
				<path style="fill:#397AFA;" d="M485.546,417.545l-1.262,1.087l-17.829,16.115c-1.18,1.067-0.41,3.027,1.181,3.005l39.929-0.553
					c1.066-0.015,1.913-0.902,1.877-1.968l-0.071-17.677L485.546,417.545z"/>
				<path style="fill:#121936;" d="M466.455,434.747l0.62-0.561c0.299,0.274,0.69,0.459,1.168,0.452l39.929-0.553
					c0.491-0.007,0.931-0.205,1.264-0.514l0.005,1.659c0.036,1.066-0.811,1.954-1.877,1.968l-39.93,0.553
					C466.045,437.774,465.275,435.814,466.455,434.747z"/>
				<path style="fill:#FFFFFF;" d="M472.248,434.957c-0.274,0-0.498-0.221-0.5-0.496c-0.002-0.275,0.22-0.502,0.496-0.504
					l37.158-0.325c0.001,0,0.003,0,0.004,0c0.274,0,0.498,0.221,0.5,0.496c0.002,0.275-0.22,0.502-0.496,0.504l-37.158,0.325
					C472.251,434.957,472.249,434.957,472.248,434.957z"/>
				<path style="fill:#FFFFFF;" d="M500.955,428.879c-0.754,0-1.49-0.226-2.127-0.659c-0.838-0.57-1.403-1.434-1.593-2.429v-0.001
					c-0.39-2.055,0.966-4.045,3.02-4.436c0.997-0.186,2.006,0.02,2.844,0.592c0.838,0.57,1.403,1.433,1.593,2.428
					c0.188,0.997-0.022,2.007-0.592,2.845c-0.57,0.838-1.434,1.403-2.43,1.592C501.433,428.856,501.193,428.879,500.955,428.879z
					 M498.218,425.604c0.14,0.733,0.556,1.368,1.173,1.788c0.618,0.421,1.363,0.573,2.094,0.435
					c1.515-0.287,2.513-1.753,2.226-3.268c-0.14-0.732-0.556-1.368-1.173-1.788c-0.619-0.421-1.363-0.573-2.094-0.436
					C498.929,422.625,497.931,424.09,498.218,425.604L498.218,425.604z"/>
				<path style="fill:#FFFFFF;" d="M487.628,422.781c-0.135,0-0.271-0.055-0.369-0.162l-3.344-3.649
					c-0.187-0.204-0.172-0.52,0.031-0.707c0.203-0.185,0.52-0.172,0.707,0.031l3.344,3.649c0.186,0.204,0.172,0.52-0.031,0.706
					C487.87,422.738,487.749,422.781,487.628,422.781z"/>
				<path style="fill:#FFFFFF;" d="M484.884,425.37c-0.135,0-0.27-0.055-0.369-0.162l-3.344-3.649
					c-0.186-0.204-0.172-0.52,0.031-0.706c0.203-0.188,0.521-0.173,0.707,0.03l3.344,3.649c0.187,0.204,0.172,0.52-0.031,0.707
					C485.126,425.327,485.005,425.37,484.884,425.37z"/>
				<path style="fill:#FFFFFF;" d="M482.302,427.915c-0.135,0-0.27-0.055-0.369-0.162l-3.343-3.649
					c-0.187-0.204-0.172-0.52,0.031-0.707c0.202-0.186,0.521-0.172,0.707,0.031l3.343,3.649c0.186,0.204,0.172,0.521-0.031,0.707
					C482.544,427.872,482.423,427.915,482.302,427.915z"/>
				<path style="fill:#FFFFFF;" d="M487.566,418.281l-0.314-0.107c-1.337-0.679-0.91-6.252-0.841-6.623
					c0.221-1.198,1.373-1.998,2.575-1.77c0.58,0.107,1.084,0.435,1.418,0.921c0.335,0.486,0.459,1.073,0.352,1.653l0,0
					c-0.133,0.721-2.094,5.384-2.965,5.813L487.566,418.281z M488.583,410.745c-0.571,0-1.081,0.407-1.189,0.988
					c-0.182,0.984-0.149,4.149,0.18,5.24c0.682-1.036,2.064-4.07,2.2-4.799l0,0c0.059-0.317-0.01-0.64-0.193-0.905
					c-0.183-0.267-0.458-0.445-0.775-0.505C488.73,410.751,488.656,410.745,488.583,410.745z"/>
				<path style="fill:#FFFFFF;" d="M486.968,418.247c-1.713,0-5.293-1.328-5.478-1.437c-1.051-0.618-1.403-1.975-0.785-3.025
					c0.617-1.05,1.975-1.403,3.024-0.784l0,0c0.57,0.335,3.827,2.901,4.166,4.26c0.085,0.337,0.001,0.573-0.084,0.713
					C487.691,418.168,487.385,418.247,486.968,418.247z M482.612,413.696c-0.415,0-0.82,0.213-1.046,0.597
					c-0.338,0.574-0.145,1.317,0.432,1.656c0.668,0.393,3.832,1.229,4.896,1.327c-0.423-0.779-2.796-2.9-3.67-3.414h-0.001
					C483.031,413.75,482.82,413.696,482.612,413.696z"/>
			</g>
		</g>
		<g>
			<g>
				<g>
					<path style="fill:#FFA386;" d="M452.455,174.716c-1.612-0.933-3.453-1.428-4.486,0.648c-1.202,1.74,0.112,3.085,1.671,4.157
						c-1.068-0.517-2.152-0.643-2.908,0.55c-1.6,1.974-0.104,3.833,1.629,4.962c-1.952-0.573-2.487,2.807-0.702,4.782l9.137,11.2
						c1.914,2.47,8.217,3.482,10.216,3.853c0.418,0.078,0.85,0.016,1.221-0.192c4.216-2.364,5.897-10.579,4.455-17.495
						c0,0-3.193-10.347-4.926-13.614c-0.186-0.35-0.384-0.704-0.676-0.972c-0.292-0.268-0.699-0.441-1.087-0.361
						c-0.505,0.103-0.836,0.585-1.058,1.051c-0.687,1.447-0.831,3.071-0.967,4.678c-0.975-1.001-2.011-2.078-3.129-3.272
						c-2.538-2.346-6.247-6.728-9.122-3.229C450.829,172.762,451.473,173.86,452.455,174.716z"/>
					<path style="opacity:0.36;fill:#FF6A48;" d="M463.974,177.963l4.983,6.073c0,0-3.605-7.957-4.605-8.972L463.974,177.963z"/>
				</g>
				<path style="fill:#FF6A48;" d="M455.759,178.468c-0.132,0-0.263-0.052-0.361-0.154c-1.215-1.27-3.305-3.38-3.738-3.635
					c-0.237-0.14-0.317-0.446-0.177-0.684c0.14-0.239,0.447-0.317,0.685-0.177c0.681,0.4,3.412,3.24,3.953,3.805
					c0.19,0.2,0.184,0.516-0.016,0.707C456.008,178.422,455.883,178.468,455.759,178.468z"/>
				<path style="fill:#FF6A48;" d="M452.321,182.811c-0.129,0-0.258-0.049-0.355-0.148l-2.999-3.027
					c-0.194-0.196-0.192-0.513,0.004-0.707c0.195-0.195,0.514-0.193,0.707,0.003l2.999,3.027c0.194,0.196,0.192,0.513-0.004,0.707
					C452.576,182.763,452.448,182.811,452.321,182.811z"/>
				<path style="fill:#FF6A48;" d="M450.013,187.128c-0.125,0-0.25-0.046-0.348-0.14l-1.652-1.595
					c-0.198-0.192-0.204-0.508-0.012-0.707c0.191-0.198,0.508-0.204,0.707-0.013l1.652,1.595c0.198,0.192,0.204,0.508,0.012,0.707
					C450.274,187.077,450.144,187.128,450.013,187.128z"/>
			</g>
			<g>
				<g>
					<g>
						<g>
							<g>
								<path style="fill:#FFA386;" d="M545.463,149.848c-1.687-0.553-3.127-1.602-4.212-2.945l5.232,0.168
									c0.43,0.014,0.851-0.02,1.259-0.093c0.328-0.059,0.645-0.148,0.953-0.257c0.025-0.009,0.05-0.016,0.075-0.025
									c0.292-0.108,0.573-0.241,0.843-0.391c0.039-0.022,0.078-0.043,0.116-0.066c0.263-0.154,0.513-0.325,0.749-0.515
									c0.031-0.025,0.06-0.051,0.09-0.076c0.241-0.202,0.47-0.418,0.677-0.654c0.001-0.001,0.002-0.002,0.003-0.003
									c0.206-0.235,0.389-0.489,0.557-0.754c0.021-0.034,0.045-0.066,0.065-0.1c0.155-0.256,0.29-0.525,0.407-0.804
									c0.021-0.051,0.042-0.102,0.062-0.153c0.109-0.281,0.199-0.571,0.266-0.87c0.01-0.046,0.017-0.094,0.026-0.141
									c0.062-0.317,0.107-0.641,0.118-0.973l0.005-0.139c0.008-0.242-0.003-0.48-0.023-0.716
									c-0.006-0.071-0.017-0.141-0.026-0.212c-0.021-0.168-0.047-0.334-0.081-0.497c-0.015-0.072-0.031-0.145-0.049-0.216
									c-0.044-0.175-0.095-0.347-0.153-0.516c-0.016-0.048-0.03-0.097-0.048-0.144c-0.083-0.221-0.176-0.438-0.284-0.646
									c-0.003-0.006-0.007-0.012-0.01-0.018c-0.104-0.2-0.22-0.393-0.344-0.579c-0.025-0.038-0.052-0.075-0.079-0.112
									c-0.112-0.16-0.23-0.314-0.356-0.462c-0.027-0.031-0.052-0.063-0.079-0.093c-0.317-0.357-0.673-0.68-1.065-0.955l0,0
									c-0.934-0.656-2.059-1.061-3.279-1.1l-7.684-0.247c0.197-1.369,0.504-2.745,0.863-4.032
									c0.778-2.791-1.735-5.398-4.555-4.732c-8.237,1.948-11.445,2.041-13.357,1.715c-0.252-0.043-0.482-0.093-0.698-0.147
									l-3.902,20.303c-1.496,6.868,2.972,10.265,9.663,11.969l0.087,8.234c0.06,5.641,4.099,10.199,8.977,10.13l0.202-0.003
									c4.878-0.069,9.563-3.351,9.504-8.992l-0.526-12.374c-0.239,0.055-0.48,0.105-0.729,0.123L545.463,149.848z"/>
								<g>
									<path style="fill:none;" d="M548.694,146.722c-0.308,0.109-0.625,0.199-0.953,0.257
										C548.069,146.92,548.386,146.831,548.694,146.722z"/>
									<path style="fill:#FF6A48;" d="M547.316,143.101c-0.094,0-0.188-0.026-0.271-0.081l-2.477-1.605l2.502-2.799
										c0.185-0.206,0.504-0.222,0.706-0.039c0.206,0.184,0.224,0.5,0.04,0.706l-1.725,1.928l1.496,0.97
										c0.232,0.15,0.298,0.46,0.148,0.691C547.641,143.02,547.479,143.101,547.316,143.101z"/>
									<g>
										<path style="fill:#121936;" d="M522.936,137.437c-0.024,0.711,0.533,1.307,1.243,1.331
											c0.711,0.024,1.307-0.533,1.331-1.243c0.024-0.711-0.532-1.307-1.243-1.331
											C523.556,136.17,522.96,136.727,522.936,137.437z"/>
										<path style="fill:#FF6A48;" d="M526.177,146.111c-0.648,0-1.364-0.2-2.141-0.598c-0.245-0.126-0.343-0.427-0.217-0.673
											c0.127-0.246,0.428-0.342,0.674-0.217c0.978,0.502,1.817,0.617,2.423,0.333c0.443-0.208,0.625-0.554,0.632-0.569
											c0.125-0.244,0.425-0.345,0.669-0.223c0.245,0.122,0.349,0.415,0.229,0.662c-0.039,0.083-0.418,0.821-1.372,1.142
											C526.792,146.064,526.492,146.111,526.177,146.111z"/>
										<g>
											<g>
												<g>
													<g>
														<g>
															<g>
																<path style="fill:#121936;" d="M531.607,134.681c-0.436-0.023-0.859-0.316-1.284-0.573
																	c-0.423-0.269-0.854-0.527-1.238-0.736c-0.384-0.21-0.834-0.435-1.288-0.645c-0.446-0.22-0.922-0.419-1.173-0.771
																	c-0.246-0.335-0.14-0.851,0.546-1.182c0.654-0.33,1.926-0.382,3.199,0.31c1.268,0.698,1.898,1.79,1.963,2.513
																	C532.411,134.346,532.025,134.709,531.607,134.681z"/>
															</g>
														</g>
													</g>
												</g>
											</g>
										</g>
										<path style="fill:#FF6A48;" d="M525.396,139.468c-0.118,0-0.236-0.042-0.331-0.126c-0.081-0.07-0.797-0.658-1.649-0.055
											c-0.224,0.159-0.538,0.105-0.696-0.12c-0.159-0.226-0.105-0.538,0.12-0.697c1.22-0.861,2.425-0.294,2.891,0.126
											c0.206,0.185,0.223,0.501,0.038,0.706C525.67,139.413,525.533,139.468,525.396,139.468z"/>
									</g>
									<path style="fill:#FF6A48;" d="M527.194,160.124c0,0,8.114,1.163,9.728-1.815c1.614-2.978,0,0,0,0s0.437,4.88-9.677,6.603
										L527.194,160.124z"/>
									<g>
										<path style="fill:#FFA386;" d="M520.733,134.39l-0.703,2.129c-0.268,0.812-1.144,1.253-1.956,0.985l0,0
											c-0.406-0.134-0.844,0.086-0.978,0.492l0,0c-0.434,1.313,0.279,2.729,1.592,3.163l0.862,0.285"/>
										<path style="fill:#FF6A48;" d="M519.551,141.944c-0.052,0-0.104-0.008-0.157-0.025l-0.863-0.285
											c-1.572-0.52-2.429-2.222-1.909-3.794c0.106-0.323,0.332-0.585,0.637-0.739c0.305-0.153,0.648-0.178,0.973-0.071
											c0.265,0.087,0.55,0.066,0.801-0.06c0.25-0.126,0.435-0.341,0.523-0.607l0.703-2.129c0.086-0.263,0.364-0.408,0.632-0.318
											c0.262,0.087,0.404,0.369,0.317,0.631l-0.703,2.129c-0.171,0.52-0.534,0.941-1.023,1.188
											c-0.487,0.246-1.043,0.288-1.564,0.115c-0.071-0.023-0.144-0.018-0.21,0.016c-0.065,0.033-0.113,0.089-0.137,0.158
											c-0.347,1.05,0.225,2.186,1.274,2.532l0.863,0.285c0.262,0.087,0.404,0.369,0.317,0.631
											C519.956,141.811,519.761,141.944,519.551,141.944z"/>
									</g>
									<g>
										<path style="fill:#FFFFFF;" d="M525.613,142.29c-2.651,0-4.809-2.157-4.809-4.809c0-2.651,2.157-4.809,4.809-4.809
											c2.651,0,4.809,2.157,4.809,4.809C530.422,140.133,528.265,142.29,525.613,142.29z M525.613,133.672
											c-2.1,0-3.809,1.709-3.809,3.809s1.709,3.809,3.809,3.809s3.809-1.709,3.809-3.809S527.713,133.672,525.613,133.672z"/>
										<path style="fill:#FFFFFF;" d="M529.921,136.821c-0.242,0-0.455-0.177-0.493-0.424c-0.042-0.273,0.145-0.528,0.418-0.57
											l12.495-1.931c0.267-0.042,0.528,0.146,0.57,0.418c0.042,0.273-0.144,0.528-0.418,0.57l-12.495,1.931
											C529.973,136.819,529.946,136.821,529.921,136.821z"/>
										<path style="fill:#FFFFFF;" d="M521.464,136.821c-0.079,0-0.158-0.019-0.233-0.058c-0.564-0.296-1.44-0.22-1.73-0.167
											c-0.268,0.048-0.532-0.127-0.584-0.399c-0.051-0.271,0.127-0.532,0.398-0.583c0.058-0.01,1.392-0.255,2.382,0.265
											c0.245,0.128,0.339,0.431,0.21,0.675C521.817,136.724,521.644,136.821,521.464,136.821z"/>
									</g>
								</g>
							</g>
							<path style="fill:#121936;" d="M544.546,111.017l-7.522-0.99c-1.148-2.033-3.38-3.347-5.863-3.17
								c-2.469,0.176-4.481,1.776-5.339,3.931c-0.238,0.105-0.47,0.225-0.704,0.342c-0.804-0.429-1.728-0.656-2.704-0.586
								c-2.758,0.196-4.835,2.591-4.638,5.35c0.04,0.57,0.195,1.101,0.407,1.599c-0.613,1.002-1.139,2.07-1.533,3.213
								c-0.381,2.895,1.396,5.633,4.193,6.475c0.191,0.058,0.39,0.114,0.602,0.166c0.217,0.054,0.446,0.104,0.698,0.147
								c1.912,0.326,5.12,0.233,13.357-1.715c2.82-0.667,5.333,1.941,4.555,4.732c-0.359,1.287-0.666,2.663-0.863,4.032l7.684,0.247
								c1.22,0.039,2.345,0.443,3.279,1.1c0.392,0.276,0.748,0.597,1.065,0.955c0.027,0.031,0.053,0.062,0.079,0.093
								c0.126,0.148,0.245,0.302,0.356,0.462c0.026,0.037,0.053,0.074,0.079,0.112c0.124,0.187,0.241,0.379,0.344,0.579
								c0.003,0.006,0.007,0.012,0.01,0.018c0.107,0.209,0.201,0.425,0.284,0.646c0.018,0.047,0.031,0.096,0.048,0.144
								c0.058,0.169,0.11,0.341,0.153,0.516c0.018,0.072,0.033,0.144,0.049,0.216c0.034,0.164,0.06,0.329,0.081,0.497
								c0.009,0.071,0.019,0.14,0.026,0.212c0.02,0.236,0.031,0.474,0.023,0.716l-0.005,0.139c-0.011,0.333-0.055,0.656-0.118,0.973
								c-0.009,0.047-0.016,0.094-0.026,0.141c-0.066,0.3-0.157,0.589-0.266,0.87c-0.02,0.052-0.041,0.103-0.062,0.153
								c-0.117,0.279-0.252,0.548-0.407,0.804c-0.021,0.034-0.044,0.066-0.065,0.1c-0.168,0.265-0.352,0.519-0.557,0.754
								c-0.001,0.001-0.002,0.002-0.003,0.003c-0.207,0.236-0.436,0.452-0.677,0.654c-0.03,0.025-0.059,0.052-0.09,0.076
								c-0.236,0.19-0.487,0.362-0.749,0.515c-0.039,0.023-0.078,0.044-0.116,0.066c-0.27,0.15-0.55,0.283-0.843,0.391
								c-0.025,0.009-0.05,0.016-0.075,0.025c-0.308,0.11-0.625,0.199-0.953,0.257c-0.408,0.073-0.829,0.107-1.259,0.093
								l-5.232-0.168c1.085,1.343,2.525,2.392,4.212,2.945l-0.742,6.89c0.25-0.018,0.491-0.067,0.729-0.123
								c0.341-0.079,0.674-0.182,0.989-0.326c1.113-0.507,2.029-1.403,2.533-2.563l1.611-3.714c3.76-0.98,6.606-4.319,6.777-8.404
								c0.049-1.169-0.133-2.293-0.494-3.337c1.591-1.066,2.68-2.836,2.766-4.895C566.78,121.284,551.394,111.918,544.546,111.017z"
								/>
						</g>
					</g>
				</g>
			</g>
			<g>
				<path style="fill:#3E2FD1;" d="M601.604,228.956c0,0-26.342-48.13-27.879-50.128c-4.772-6.206-12.197-10.06-20.295-10.173
					l-15.078-0.21L521.155,168c-2.67,0-10.453,1.406-12.446,3.183c-6.233,5.555-10.512,15.314-12.953,22.829l-5.095,15.685
					l-15.105-17.555c-0.6-0.697-1.621-0.846-2.395-0.35l-17.783,11.4c-0.826,0.529-1.031,1.647-0.447,2.436l24.548,33.131
					c5.85,9.127,18.49,9.809,25.431,2.33l-4.411,35.349h72.996l2.361-30.154l17.769-0.927
					C601.808,244.929,606.318,235.659,601.604,228.956z"/>
				<g>
					<path style="fill:#121936;" d="M493.454,214.389c-0.15,0-0.3-0.068-0.397-0.197l-4.66-6.121
						c-0.168-0.22-0.125-0.533,0.095-0.701c0.221-0.167,0.534-0.124,0.7,0.095l4.66,6.121c0.168,0.22,0.125,0.533-0.095,0.701
						C493.666,214.356,493.56,214.389,493.454,214.389z"/>
					<path style="fill:#121936;" d="M575.55,250.706c-0.018,0-0.036-0.001-0.055-0.003c-0.274-0.03-0.473-0.276-0.443-0.551
						l4.451-41.11c0.029-0.275,0.283-0.468,0.551-0.443c0.274,0.03,0.473,0.276,0.443,0.551l-4.451,41.11
						C576.019,250.516,575.802,250.706,575.55,250.706z"/>
					<path style="fill:#121936;" d="M504.909,241.595c-0.095,0-0.19-0.027-0.275-0.083c-0.23-0.152-0.294-0.462-0.142-0.693
						l15.664-23.726c0.151-0.231,0.461-0.294,0.692-0.142c0.231,0.152,0.294,0.462,0.142,0.693l-15.664,23.726
						C505.23,241.516,505.071,241.595,504.909,241.595z"/>
				</g>
			</g>
		</g>
	</g>
	<g>
		<g>
			<g>
				<path style="fill:#FFFFFF;" d="M348.376,270.883H120.791c-3.459,0-6.263-2.804-6.263-6.263V109.493
					c0-3.459,2.804-6.263,6.263-6.263h227.586c3.459,0,6.263,2.804,6.263,6.263v155.128
					C354.639,268.079,351.835,270.883,348.376,270.883z"/>
				<g>
					<g>
						<path style="fill:#397AFA;" d="M348.376,103.23H120.791c-3.459,0-6.263,2.804-6.263,6.263v18.543h240.111v-18.543
							C354.639,106.034,351.835,103.23,348.376,103.23z"/>
						<path style="fill:#353148;" d="M354.639,128.536h-240.11c-0.276,0-0.5-0.224-0.5-0.5v-18.543c0-3.729,3.034-6.763,6.763-6.763
							h227.585c3.728,0,6.763,3.034,6.763,6.763v18.543C355.139,128.313,354.915,128.536,354.639,128.536z M115.028,127.536h239.11
							v-18.043c0-3.178-2.585-5.763-5.763-5.763H120.791c-3.178,0-5.763,2.585-5.763,5.763V127.536z"/>
					</g>
					<g>
						<path style="fill:#FFFFFF;" d="M313.379,118.992c-2.155,0-3.908-1.753-3.908-3.908s1.753-3.908,3.908-3.908
							c2.154,0,3.907,1.753,3.907,3.908S315.533,118.992,313.379,118.992z M313.379,112.177c-1.604,0-2.908,1.304-2.908,2.908
							s1.305,2.908,2.908,2.908c1.603,0,2.907-1.304,2.907-2.908S314.982,112.177,313.379,112.177z"/>
						<path style="fill:#FFFFFF;" d="M327.281,118.992c-2.155,0-3.908-1.753-3.908-3.908s1.753-3.908,3.908-3.908
							c2.154,0,3.907,1.753,3.907,3.908S329.435,118.992,327.281,118.992z M327.281,112.177c-1.604,0-2.908,1.304-2.908,2.908
							s1.305,2.908,2.908,2.908c1.603,0,2.907-1.304,2.907-2.908S328.885,112.177,327.281,112.177z"/>
						<path style="fill:#FFFFFF;" d="M341.603,118.992c-2.155,0-3.908-1.753-3.908-3.908s1.753-3.908,3.908-3.908
							c2.155,0,3.908,1.753,3.908,3.908S343.758,118.992,341.603,118.992z M341.603,112.177c-1.604,0-2.908,1.304-2.908,2.908
							s1.305,2.908,2.908,2.908c1.604,0,2.908-1.304,2.908-2.908S343.206,112.177,341.603,112.177z"/>
					</g>
				</g>
			</g>
			<g>
				<path style="fill:#FFFFFF;" d="M338.483,259.442H130.684c-2.816,0-5.099-2.283-5.099-5.099V142.141
					c0-2.816,2.283-5.099,5.099-5.099h207.798c2.816,0,5.099,2.283,5.099,5.099v112.202
					C343.582,257.159,341.299,259.442,338.483,259.442z"/>
				<path style="fill:#353148;" d="M338.482,259.942H130.685c-3.087,0-5.599-2.512-5.599-5.6V142.141
					c0-3.087,2.512-5.599,5.599-5.599h207.798c3.087,0,5.599,2.512,5.599,5.599v112.202
					C344.081,257.431,341.569,259.942,338.482,259.942z M130.685,137.542c-2.536,0-4.599,2.063-4.599,4.599v112.202
					c0,2.536,2.063,4.6,4.599,4.6h207.798c2.536,0,4.599-2.064,4.599-4.6V142.141c0-2.536-2.063-4.599-4.599-4.599H130.685z"/>
			</g>
			<g>
				<path style="fill:#9DD3FF;" d="M187.155,248.654c-26.784,0-48.496-21.712-48.496-48.496c0-26.784,21.712-48.496,48.496-48.496
					C187.764,151.662,187.435,248.654,187.155,248.654z"/>
				<path style="fill:#3E2FD1;" d="M239.726,200.158c0-26.784-21.713-48.496-48.496-48.496c-0.314,0-0.379,23.675-0.329,48.696
					C190.901,200.54,239.726,200.366,239.726,200.158z"/>
				<path style="fill:#121936;" d="M192.012,240.591c-0.635,0-0.635,0-0.684-18.484c-0.012-4.491-0.014-8.982-0.008-12.35
					c0.012-6.107,0.012-6.107,0.542-6.11c35.75-0.07,35.979,0.16,36.202,0.384c0.095,0.094,0.149,0.225,0.149,0.358
					C228.214,224.351,211.974,240.591,192.012,240.591z M192.343,204.646c-0.091,3.966,0.013,31.254,0.132,34.942
					c19.055-0.246,34.506-15.707,34.736-34.765C224.834,204.676,211.81,204.608,192.343,204.646z"/>
			</g>
			<g>
				<path style="fill:#121936;" d="M320.534,176.537h-65.798c-0.276,0-0.5-0.224-0.5-0.5c0-0.276,0.224-0.5,0.5-0.5h65.798
					c0.276,0,0.5,0.224,0.5,0.5C321.034,176.314,320.81,176.537,320.534,176.537z"/>
				<path style="fill:#121936;" d="M286.441,191.294h-31.705c-0.276,0-0.5-0.224-0.5-0.5c0-0.276,0.224-0.5,0.5-0.5h31.705
					c0.276,0,0.5,0.224,0.5,0.5C286.941,191.07,286.718,191.294,286.441,191.294z"/>
				<path style="fill:#121936;" d="M320.435,191.294h-28.62c-0.276,0-0.5-0.224-0.5-0.5c0-0.276,0.224-0.5,0.5-0.5h28.62
					c0.276,0,0.5,0.224,0.5,0.5C320.935,191.07,320.711,191.294,320.435,191.294z"/>
			</g>
		</g>
		<g>
			<g>
				<path style="fill:#121936;" d="M370.755,208.736c-2.204-0.052-3.957-0.005-3.957-0.005l-116.513-0.134
					c-12.881,0.08-23.508,9.521-25.485,21.832h-0.106l0.004,0.694c-0.157,1.183-0.241,2.389-0.233,3.616l0.061,9.934
					c0.048,7.71-3.033,15.226-8.839,20.298c-3.392,2.962-7.534,5.07-12.075,5.961c-0.294,0.058,1.329,0.085,2.889,0.122
					c2.205,0.052,3.957,0.005,3.957,0.005l116.513,0.134c12.88-0.08,23.507-9.521,25.485-21.832h0.106l-0.004-0.695
					c0.157-1.183,0.241-2.388,0.233-3.615l-0.085-13.754c1.437-11.156,10.04-20.3,20.938-22.44
					C373.939,208.8,372.316,208.773,370.755,208.736z"/>
				<path style="fill:#FFFFFF;" d="M399.754,208.598h-149.01h0c17.913,0,32.433,15.131,32.433,33.796v140.704
					c0,12.056,9.38,21.83,20.95,21.83h142.271V257.201C448.219,231.784,434.01,208.598,399.754,208.598z"/>
				<path style="fill:#121936;" d="M446.398,260.323c-0.207,0-0.375-0.168-0.375-0.375v-10.736
					c0-21.914-17.828-39.742-39.742-39.742H250.34c-0.207,0-0.375-0.168-0.375-0.375s0.168-0.375,0.375-0.375h155.942
					c22.327,0,40.492,18.165,40.492,40.492v10.736C446.773,260.155,446.605,260.323,446.398,260.323z"/>
				<path style="fill:#121936;" d="M480.126,363.288l-155.197,0.195l0.094,15.105c0.081,13.1-9.474,24.3-21.872,26.734
					c-0.304,0.06,1.372,0.088,2.984,0.126c2.277,0.053,4.087,0.005,4.087,0.005l120.357,0.138c0.272-0.002,0.54-0.016,0.81-0.025
					l22.159,0.025c14.822-0.092,26.764-12.182,26.672-27.004L480.126,363.288z"/>
			</g>
			<g>
				<path style="fill:#121936;" d="M424.395,270.37H309.843c-0.276,0-0.5-0.224-0.5-0.5c0-0.276,0.224-0.5,0.5-0.5h114.552
					c0.276,0,0.5,0.224,0.5,0.5C424.895,270.147,424.671,270.37,424.395,270.37z"/>
				<path style="fill:#3E2FD1;" d="M372.582,246.502h-60.463c-0.553,0-1-0.448-1-1c0-0.552,0.447-1,1-1h60.463c0.553,0,1,0.448,1,1
					C373.582,246.054,373.135,246.502,372.582,246.502z"/>
				<path style="fill:#121936;" d="M364.926,318.175h-55.083c-0.276,0-0.5-0.224-0.5-0.5s0.224-0.5,0.5-0.5h55.083
					c0.276,0,0.5,0.224,0.5,0.5S365.202,318.175,364.926,318.175z"/>
				<path style="fill:#121936;" d="M347.266,292.789h-37.423c-0.276,0-0.5-0.224-0.5-0.5c0-0.276,0.224-0.5,0.5-0.5h37.423
					c0.276,0,0.5,0.224,0.5,0.5C347.766,292.565,347.542,292.789,347.266,292.789z"/>
				<path style="fill:#121936;" d="M424.395,292.789H360.33c-0.276,0-0.5-0.224-0.5-0.5c0-0.276,0.224-0.5,0.5-0.5h64.064
					c0.276,0,0.5,0.224,0.5,0.5C424.895,292.565,424.671,292.789,424.395,292.789z"/>
				<path style="fill:#121936;" d="M347.266,345.33h-37.423c-0.276,0-0.5-0.224-0.5-0.5c0-0.276,0.224-0.5,0.5-0.5h37.423
					c0.276,0,0.5,0.224,0.5,0.5C347.766,345.106,347.542,345.33,347.266,345.33z"/>
				<path style="fill:#121936;" d="M364.926,345.33h-9.192c-0.276,0-0.5-0.224-0.5-0.5c0-0.276,0.224-0.5,0.5-0.5h9.192
					c0.276,0,0.5,0.224,0.5,0.5C365.426,345.106,365.202,345.33,364.926,345.33z"/>
				<g>
					<rect x="377.168" y="310.687" style="fill:#9DD3FF;" width="12.019" height="38.183"/>
					<path style="fill:#397AFA;" d="M406.911,349.37h-12.018c-0.276,0-0.5-0.224-0.5-0.5v-22.853c0-0.276,0.224-0.5,0.5-0.5h12.018
						c0.276,0,0.5,0.224,0.5,0.5v22.853C407.411,349.147,407.188,349.37,406.911,349.37z M395.393,348.37h11.018v-21.853h-11.018
						V348.37z"/>
					<rect x="412.375" y="306.762" style="fill:#3E2FD1;" width="12.019" height="42.108"/>
				</g>
			</g>
		</g>
		<g>
			<path style="fill:#121936;" d="M344.829,188.027l-29.253-30.176c-0.191-0.198-0.187-0.515,0.012-0.707
				c0.198-0.193,0.515-0.186,0.707,0.011l28.567,29.47l31.74-29.778l37.62,29.172c0.218,0.169,0.258,0.483,0.089,0.701
				c-0.171,0.219-0.483,0.257-0.702,0.089l-36.944-28.649L344.829,188.027z"/>
			<circle style="fill:#3E2FD1;" cx="315.935" cy="157.503" r="7.916"/>
			<path style="fill:#3E2FD1;" d="M384.55,157.503c0,4.372-3.544,7.916-7.916,7.916c-4.372,0-7.916-3.544-7.916-7.916
				s3.544-7.916,7.916-7.916C381.006,149.587,384.55,153.131,384.55,157.503z"/>
			
				<ellipse transform="matrix(0.1602 -0.9871 0.9871 0.1602 105.6011 496.9458)" style="fill:#397AFA;" cx="344.846" cy="186.413" rx="7.916" ry="7.916"/>
			
				<ellipse transform="matrix(0.1222 -0.9925 0.9925 0.1222 178.3258 574.4515)" style="fill:#397AFA;" cx="413.916" cy="186.413" rx="7.916" ry="7.916"/>
		</g>
	</g>
</g>
</svg>
