<svg width="52" height="65" viewBox="0 0 52 65" fill="none" xmlns="http://www.w3.org/2000/svg">
<path d="M10.3279 11.4242C10.3279 11.4242 1.83791 8.73971 1.03447 16.0919C0.231022 23.4441 13.7407 32.3136 13.7407 32.3136" stroke="#dc848d" stroke-width="2"/>
<path d="M41.6733 11.4242C41.6733 11.4242 50.1633 8.73971 50.9667 16.0919C51.7702 23.4441 37.7499 32.488 37.7499 32.488" stroke="#dc848d" stroke-width="2"/>
<path d="M16.4113 54.7138C19.3372 52.457 21.0555 48.9374 21.0555 45.2028V41.126C21.0555 41.126 22.5344 41.8408 25.6412 41.8078C28.7479 41.7747 30.1775 41.126 30.1775 41.126V44.7802C30.1775 48.7019 32.0709 52.3742 35.2434 54.6031L37.2946 56.044C37.67 56.3075 37.4873 56.907 37.0293 56.907H14.9533C14.5078 56.907 14.3163 56.3304 14.6717 56.0554L16.4113 54.7138Z" fill="#dc848d"/>
<path fill-rule="evenodd" clip-rule="evenodd" d="M8.38791 5.90718C8.38791 5.90718 15.6034 4.38916 25.3058 4.38916C35.0069 4.38916 43.59 5.90718 43.59 5.90718L39.9388 29.1605C38.7191 36.1999 32.7058 41.3322 25.6776 41.3322C18.5069 41.3322 12.4162 35.9943 11.3566 28.781L8.38791 5.90718Z" fill="#dc848d" stroke="white" stroke-width="2"/>
<path fill-rule="evenodd" clip-rule="evenodd" d="M34.07 23.7903C34.07 28.5191 30.3006 32.353 25.6514 32.353C21.0022 32.353 17.234 28.5191 17.234 23.7903C17.234 19.0615 21.0022 15.2275 25.6514 15.2275C30.3006 15.2275 34.07 19.0615 34.07 23.7903Z" fill="rgba(185, 9, 27, 1)"/>
<path fill-rule="evenodd" clip-rule="evenodd" d="M26.6861 27.5893H25.3095V21.9123C25.0091 22.1236 24.6938 22.2559 24.3646 22.3069L24.2457 21.1243C24.3609 21.0951 24.4885 21.0403 24.6324 20.9601C24.7764 20.8799 24.914 20.7832 25.0467 20.6699C25.1793 20.5579 25.2982 20.4383 25.4021 20.3097C25.506 20.1824 25.5823 20.0564 25.6324 19.9316H26.6861V27.5893Z" fill="white"/>
<path fill-rule="evenodd" clip-rule="evenodd" d="M30.7473 14.1759H20.9258V12.749H30.7473V14.1759Z" fill="#dc848d"/>
<path fill-rule="evenodd" clip-rule="evenodd" d="M29.7866 0L21.8672 11.773H24.7281L32.501 0H29.7866ZM34.2725 0L26.3532 11.773H29.2141L36.987 0H34.2725Z" fill="rgba(185, 9, 27, 1)"/>
<path opacity="0.590777" fill-rule="evenodd" clip-rule="evenodd" d="M16.9387 0L24.858 11.773H21.9971L14.2242 0H16.9387ZM21.4247 0L29.344 11.773H26.4831L18.7102 0H21.4247Z" fill="rgba(185, 9, 27, 1)"/>
</svg>
