<svg width="72" height="72" xmlns="http://www.w3.org/2000/svg" xmlns:xlink="http://www.w3.org/1999/xlink"><defs><path id="a" d="M0 0h72v72H0z"/></defs><g fill="none" fill-rule="evenodd"><mask id="b" fill="#fff"><use xlink:href="#a"/></mask><g stroke="#dc848d" mask="url(#b)"><path d="M39.814 40.156h.002c4.494-2.104 6.44-7.47 4.336-11.963A9.049 9.049 0 0035.996 23a8.82 8.82 0 00-3.809.859 8.972 8.972 0 00-4.647 5.076l-.002.004a8.975 8.975 0 00.315 6.88v.001A9.037 9.037 0 0036.01 41a9 9 0 003.805-.844z"/><path d="M38.504 14a1.052 1.052 0 011.06.947l.283 2.928c1.208.337 2.369.827 3.453 1.458l2.258-1.87a1.061 1.061 0 011.431.072l3.464 3.507a1.06 1.06 0 01.062 1.422l-1.866 2.253a14.428 14.428 0 011.455 3.458l2.937.283A1.06 1.06 0 0154 29.514v4.973c0 .263-.098.517-.275.712-.073.08-1.211.34-3.576.62a14.738 14.738 0 01-1.46 3.46l1.87 2.257a1.06 1.06 0 01-.067 1.426l-3.508 3.507a1.06 1.06 0 01-1.425.066l-2.253-1.867a14.411 14.411 0 01-3.459 1.453l-.283 2.933A1.05 1.05 0 0138.51 50h-4.968a1.052 1.052 0 01-1.06-.947l-.283-2.928a14.74 14.74 0 01-3.454-1.458l-2.258 1.87a1.06 1.06 0 01-1.426-.067l-3.507-3.508a1.06 1.06 0 01-.067-1.426l1.865-2.253a14.428 14.428 0 01-1.455-3.458l-2.938-.283A1.06 1.06 0 0118 34.487v-4.973a1.06 1.06 0 01.958-1.056l2.94-.283a14.739 14.739 0 011.457-3.453l-1.87-2.258a1.06 1.06 0 01.067-1.426l3.508-3.507a1.06 1.06 0 011.426-.066l2.253 1.867a14.407 14.407 0 013.458-1.453l.284-2.933c.032-.319.208-.609.483-.783l5.54-.163z"/><path d="M65.526 25.644c1.475 7.496.18 15.284-3.633 21.86-3.813 6.576-9.876 11.473-17.015 13.745a29.607 29.607 0 01-21.637-1.446C16.45 56.6 11.064 50.938 8.12 43.91M6.61 38.217A30.844 30.844 0 019.864 16.56c3.695-6.563 9.663-11.507 16.751-13.877A29.847 29.847 0 0148.24 3.73c6.833 3.043 12.307 8.541 15.366 15.432"/><path d="M-1.214 31.974l7.767 6.365 6.29-7.86M72.532 31.477l-7.15-6.07-6 7.234"/></g></g></svg>