<svg width="72" height="72" fill="none" xmlns="http://www.w3.org/2000/svg"><path d="M68 50.625a.5.5 0 01-.5-.5v-1.61c0-5.821-4.725-10.546-10.547-10.546-5.822 0-10.547 4.725-10.547 10.547v1.609a.5.5 0 01-.5.5h-1.718a2 2 0 00-2 2V70a2 2 0 002 2H70a2 2 0 002-2V52.625a2 2 0 00-2-2h-2zm-8.938 12.656h-4.218v-4.218h4.218v4.218zm4.22-12.656H50.624v-2.11a6.319 6.319 0 016.328-6.328 6.319 6.319 0 016.328 6.329v2.109z" fill="rgba(185, 9, 27, 1)"/><path d="M54.844 21.094V2a2 2 0 00-2-2H2a2 2 0 00-2 2v19.094h4.219v4.218H0v21.094h25.313v4.219h-4.22v4.219H0v2.218a2 2 0 002 2h19.094v2.22a2 2 0 002 2h8.656a2 2 0 002-2v-2.22h3.719a.5.5 0 00.5-.5v-3.718H33.75v-4.219h-4.219v-4.219h12.825c.928-6.455 6.033-11.56 12.488-12.487v-8.606h-4.219v-4.22h4.219zM25.312 8.437h4.22v4.22h-4.22v-4.22zm-8.437 0h4.219v4.22h-4.219v-4.22zm-8.438 0h4.22v4.22h-4.22v-4.22zm4.22 29.532h-4.22V33.75h4.22v4.219zm8.437 0h-4.219V33.75h4.219v4.219zm8.437 0h-4.218V33.75h4.218v4.219zm16.875 0H37.97V33.75h8.437v4.219zm0-12.657H8.438v-4.218h37.968v4.218zm0-12.656H37.97V8.437h8.437v4.22z" fill="#dc848d"/></svg>