<svg width="72" height="72" fill="none" xmlns="http://www.w3.org/2000/svg"><g clip-path="url(#clip0)" stroke="#dc848d"><path d="M33.09 21.12c0-2.21 0-3.839.104-5.127.103-1.282.306-2.182.687-2.945a7.5 7.5 0 013.357-3.357c.763-.381 1.663-.584 2.945-.687C41.471 8.9 43.1 8.9 45.31 8.9h9.58c2.21 0 3.839 0 5.127.104 1.281.103 2.182.306 2.945.687a7.5 7.5 0 013.357 3.357c.381.763.584 1.663.687 2.945.104 1.288.104 2.916.104 5.127v38.16c0 2.21 0 3.839-.104 5.126-.103 1.282-.306 2.183-.687 2.946a7.5 7.5 0 01-3.357 3.357c-.763.38-1.664.584-2.945.687-1.288.103-2.916.104-5.127.104h-9.58c-2.21 0-3.839 0-5.127-.104-1.282-.103-2.182-.306-2.945-.687a7.5 7.5 0 01-3.357-3.357c-.381-.763-.584-1.664-.687-2.946-.104-1.287-.104-2.916-.104-5.126V21.12z" fill="#fff"/><path d="M67.408 13.23H32.791"/><path stroke-linecap="round" d="M47.955 10.955h3.909M33.227 64.136h33.364M54.5 10.955h-.182"/><rect x="45.5" y="67.591" width="9.636" height="1.455" rx=".727"/><path d="M4.89 10a9.5 9.5 0 019.5-9.5h19.645a9.5 9.5 0 019.5 9.5v52a9.5 9.5 0 01-9.5 9.5H14.39a9.5 9.5 0 01-9.5-9.5V10z" fill="#fff"/><path d="M14.004.5h21.329v.057a3.5 3.5 0 01-3.5 3.5h-14.33a3.5 3.5 0 01-3.5-3.5V.5z"/><path stroke-linecap="round" d="M20.136 1.955h8.818M15.227 69.046h17.818M31.591 1.955h.636"/></g><defs><clipPath id="clip0"><path fill="#fff" d="M0 0h72v72H0z"/></clipPath></defs></svg>