<svg width="231" height="213" viewBox="0 0 231 213" fill="none" xmlns="http://www.w3.org/2000/svg">
<circle cx="116" cy="147.933" r="41.6242" stroke="#176293"/>
<path d="M223.21 180.221C223.71 185.221 225.21 212.221 200.71 212.221L165.71 177.221H115.71H65.7099L30.7099 212.221C6.20985 212.221 7.70986 185.221 8.20986 180.221C10.2598 159.721 34.7099 88.2209 39.7099 79.2209C44.7099 70.2209 70.2099 63.7209 74.7099 63.2209C78.3099 62.8209 103.543 63.0542 115.71 63.2209C127.877 63.0542 153.11 62.8209 156.71 63.2209C161.21 63.7209 186.71 70.2209 191.71 79.2209C196.71 88.2209 221.16 159.721 223.21 180.221Z" fill="#103654" stroke="#176293"/>
<circle cx="83" cy="144" r="16.5" stroke="#176293"/>
<circle cx="147.5" cy="144.5" r="16" stroke="#176293"/>
<circle cx="63.5" cy="102.5" r="16" stroke="#176293"/>
<circle cx="147.5" cy="144.5" r="8" stroke="#176293"/>
<circle cx="63.5" cy="102.5" r="8" stroke="#176293"/>
<circle cx="168.5" cy="114.5" r="5.5" fill="#176293"/>
<circle cx="181.5" cy="102.5" r="5.5" fill="#176293"/>
<circle cx="155.5" cy="102.5" r="5.5" fill="#176293"/>
<circle cx="168.5" cy="89.5" r="5.5" fill="#176293"/>
<mask id="mask0" mask-type="alpha" maskUnits="userSpaceOnUse" x="56" y="0" width="120" height="120">
<circle cx="116" cy="60" r="15.5" stroke="black"/>
<circle cx="116" cy="60" r="30.5" stroke="black"/>
<circle cx="116" cy="60" r="44.5" stroke="black"/>
<circle cx="116" cy="60" r="59.5" stroke="black"/>
</mask>
<g mask="url(#mask0)">
<path d="M190.71 -73.0002C196.021 -73.0002 199.654 -72.7652 202.081 -72.4481C202.702 -75.5524 203.195 -76.0322 203.499 -72.9996C203.529 -72.6952 203.599 -72.4279 203.698 -72.1943C204.788 -69.632 209.392 -71.1197 203.698 -72.1943C203.231 -72.2825 202.695 -72.3679 202.081 -72.4481C198.506 -54.5679 190.709 50.3803 190.709 72.7209C185.709 63.7209 160.209 57.2209 155.709 56.7209C152.109 56.3209 127.167 52.8333 115 53C102.833 52.8333 77.3083 56.3209 73.7083 56.7209C69.2083 57.2209 43.7083 63.7209 38.7083 72.7209C34.4985 25.5016 22.5488 -71.9983 20.4989 -51.4984C19.9989 -46.4983 -3.79053 -73.0002 20.7095 -73.0002L55.7095 -108H105.71H155.71L190.71 -73.0002Z" fill="#176293"/>
</g>
<circle cx="226.5" cy="97.5" r="4" stroke="#176293"/>
<circle cx="16" cy="55" r="2.5" stroke="#176293"/>
<rect x="3.88889" y="89" width="2.22222" height="10" rx="1.11111" fill="#176293"/>
<rect y="95.1111" width="2.22222" height="10" rx="1.11111" transform="rotate(-90 0 95.1111)" fill="#176293"/>
<rect x="199.889" y="58" width="2.22222" height="10" rx="1.11111" fill="#176293"/>
<rect x="196" y="64.1111" width="2.22222" height="10" rx="1.11111" transform="rotate(-90 196 64.1111)" fill="#176293"/>
<rect x="95.5" y="63.0381" width="38" height="44.462" stroke="#176293"/>
</svg>
