<svg width="130" height="130" viewBox="0 0 130 130" fill="none" xmlns="http://www.w3.org/2000/svg">
<g clip-path="url(#clip0)">
<path d="M71.563 15.6666H109.354C111.564 15.6666 113.193 15.667 114.48 15.7704C115.762 15.8735 116.663 16.0763 117.426 16.4575C118.879 17.1835 120.057 18.3614 120.783 19.8143C121.164 20.5773 121.367 21.4781 121.47 22.76C121.573 24.0476 121.574 25.676 121.574 27.8866V117.279C121.574 119.49 121.573 121.118 121.47 122.406C121.367 123.688 121.164 124.589 120.783 125.352C120.057 126.804 118.879 127.982 117.426 128.708C116.663 129.09 115.762 129.292 114.48 129.395C113.193 129.499 111.564 129.499 109.354 129.499H71.563C69.3524 129.499 67.7241 129.499 66.4364 129.395C65.1545 129.292 64.2537 129.09 63.4907 128.708C62.0378 127.982 60.8599 126.804 60.1339 125.352C59.7527 124.589 59.5499 123.688 59.4469 122.406C59.3434 121.118 59.343 119.49 59.343 117.279V27.8866C59.343 25.676 59.3434 24.0476 59.4469 22.76C59.5499 21.4781 59.7527 20.5773 60.1339 19.8143C60.8599 18.3614 62.0378 17.1835 63.4907 16.4575C64.2537 16.0763 65.1545 15.8735 66.4364 15.7704C67.7241 15.667 69.3524 15.6666 71.563 15.6666Z" fill="white" stroke="#dc848d"/>
<path d="M58.2297 71.8112H71.2533L77.1484 90.8773L86.4921 71.8112H94.1375L100.729 53.8145L107.01 64.1578H117.864" stroke="#dc848d"/>
<circle cx="72.1796" cy="85.8216" r="2.5" fill="white" stroke="#dc848d"/>
<circle cx="86.7791" cy="72.3005" r="2.5" fill="white" stroke="#dc848d"/>
<circle cx="101.094" cy="54.9837" r="2.5" fill="white" stroke="#dc848d"/>
<circle cx="56.1796" cy="80.4026" r="2.5" fill="white" stroke="#dc848d"/>
<circle cx="69.1796" cy="80.4026" r="2.5" fill="white" stroke="#dc848d"/>
<path d="M114.995 67.4055L118.289 64.111L114.995 60.8165" stroke="#dc848d"/>
<path d="M121.709 23.8882H59.2052" stroke="#dc848d"/>
<line x1="86.2335" y1="19.7542" x2="94.6818" y2="19.7542" stroke="#dc848d" stroke-linecap="round"/>
<line x1="60.069" y1="116.417" x2="121.573" y2="116.417" stroke="#dc848d" stroke-linecap="round"/>
<line x1="98.5883" y1="19.7542" x2="99.7686" y2="19.7542" stroke="#dc848d" stroke-linecap="round"/>
<rect x="82.1185" y="121.051" width="17.8965" height="4.08752" rx="2.04376" stroke="#dc848d"/>
<path d="M17.9264 0.500824H69.5084C74.7551 0.500824 79.0083 4.75412 79.0083 10.0008V120C79.0083 125.247 74.755 129.5 69.5083 129.5H17.9264C12.6797 129.5 8.42639 125.247 8.42639 120V10.0008C8.42639 4.75412 12.6797 0.500824 17.9264 0.500824Z" fill="white" stroke="#dc848d"/>
<path d="M24.8815 0.5H64.1977V4.22781C64.1977 6.16081 62.6307 7.72781 60.6977 7.72781H28.3815C26.4485 7.72781 24.8815 6.16081 24.8815 4.22781V0.5Z" stroke="#dc848d"/>
<line x1="35.5784" y1="3.61346" x2="52.6795" y2="3.61346" stroke="#dc848d" stroke-linecap="round"/>
<line x1="27.351" y1="124.563" x2="60.085" y2="124.562" stroke="#dc848d" stroke-linecap="round"/>
<line x1="56.1472" y1="3.61346" x2="57.6156" y2="3.61346" stroke="#dc848d" stroke-linecap="round"/>
</g>
<defs>
<clipPath id="clip0">
<rect width="130" height="130" fill="white"/>
</clipPath>
</defs>
</svg>
