<svg width="176" height="177" fill="none" xmlns="http://www.w3.org/2000/svg"><mask id="a" fill="#fff"><path fill-rule="evenodd" clip-rule="evenodd" d="M0 87.662V81.88h15.415c3.23-35.01 31.218-62.848 66.296-65.845V.788h13.567v15.337c34.614 3.43 62.107 31.073 65.308 65.754H176v13.567h-15.414c-3.201 34.681-30.694 62.324-65.308 65.755v15.462H81.71v-15.371c-35.078-2.998-63.065-30.835-66.296-65.846H0v-7.784zm88-58.329c-32.767 0-59.33 26.563-59.33 59.33 0 15.544 5.978 29.692 15.76 40.27.794-4.09 2.893-8.207 7.934-9.505 10.992-2.835 20.423-7.618 20.49-7.652 1.539-2.658 1.824-7.339 1.824-7.339-3.496-3.808-4.84-8.575-5.472-12.595-.258.233-.563.402-.91.404-1.04.005-2.438-1.51-3.949-7.39-1.89-7.36-.107-8.795 1.61-8.773.246.003.488.035.72.085-.005-.048-.01-.076-.01-.076-4.796-20.381 5.2-21.155 6.79-21.153.135 0 .209.006.209.006.849-3.837 5.672-7.812 10.705-7.942a9.356 9.356 0 012.16.191c1.792.375 4.18.502 6.616.496 5.36-.011 10.953-.654 10.953-.654.165 2.535-1.978 4.295-1.978 4.295 12.199 7.543 7.128 24.694 7.128 24.694l.005.16c.319-.098.397-.098.723-.1h.078c1.711-.014 3.48 1.433 1.595 8.772-1.498 5.83-2.887 7.367-3.923 7.39-.291.007-.553-.105-.782-.276-.643 3.987-2.174 8.701-5.626 12.466 0 0 .323 5.287 2.131 7.812 0 0 9.152 4.334 20.184 7.177 5.042 1.299 7.141 5.418 7.935 9.508 9.782-10.579 15.76-24.727 15.76-40.271 0-32.767-26.563-59.33-59.33-59.33z"/></mask><path d="M0 81.88v-3h-3v3h3zm15.415 0v3h2.736l.251-2.725-2.987-.276zm66.296-65.846l.255 2.989 2.745-.235v-2.754h-3zm0-15.246v-3h-3v3h3zm13.567 0h3v-3h-3v3zm0 15.337h-3v2.717l2.704.268.296-2.985zm65.308 65.754l-2.988.276.252 2.724h2.736v-3zm15.414 0h3v-3h-3v3zm0 5.783h-3 3zm0 2h-3 3zm0 5.784v3h3v-3h-3zm-15.414 0v-3h-2.736l-.252 2.725 2.988.275zm-65.308 65.755l-.296-2.986-2.704.268v2.718h3zm0 15.462v3h3v-3h-3zm-13.567 0h-3v3h3v-3zm0-15.371h3v-2.755l-2.745-.234-.255 2.989zM15.415 95.446l2.987-.275-.251-2.725h-2.736v3zM0 95.446h-3v3h3v-3zm44.43 33.487l-2.202 2.037 4.02 4.347 1.128-5.812-2.946-.572zm7.934-9.505l.748 2.905h.001l-.749-2.905zm20.49-7.652l1.356 2.675.793-.402.446-.769-2.596-1.504zm1.824-7.339l2.995.182.077-1.272-.862-.939-2.21 2.029zm-5.472-12.595l2.963-.466-.861-5.473-4.113 3.712 2.01 2.227zm-.91.404l-.01-3h-.004l.014 3zm-3.949-7.39l-2.906.746 2.906-.747zm1.61-8.773l-.04 3h.01l.03-3zm.72.085l-.629 2.933 4.136.888-.53-4.197-2.976.376zm-.01-.076l2.953-.529-.014-.08-.019-.078-2.92.687zm6.79-21.153l-.005 3h.004v-3zm.209.006l-.253 2.99 2.615.22.567-2.562-2.93-.648zm10.705-7.942l.077 3h.001l-.078-3zm2.16.191l-.614 2.937.614-2.937zm6.616.496l-.007-3 .007 3zm10.953-.654l2.993-.195-.204-3.146-3.132.36.343 2.98zm-1.978 4.295l-1.904-2.318-3.242 2.664 3.568 2.206 1.578-2.552zm7.128 24.694l-2.877-.851-.136.462.014.48 2.999-.091zm.005.16l-2.999.092.121 3.923 3.754-1.146-.876-2.87zm.723-.1l.014 3h.001l-.015-3zm.078 0l.019 3h.005l-.024-3zm1.595 8.772l2.906.746-2.906-.746zm-3.923 7.39l-.065-3h-.013l.078 3zm-.782-.276l1.796-2.403-3.968-2.965-.79 4.89 2.962.478zm-5.626 12.466l-2.212-2.028-.86.939.077 1.272 2.995-.183zm2.131 7.812l-2.439 1.746.452.632.703.333 1.284-2.711zm20.184 7.177l-.748 2.905.748-2.905zm7.935 9.508l-2.945.571 1.127 5.813 4.02-4.347-2.202-2.037zM-3 81.879v5.783h6V81.88h-6zm18.415-3H0v6h15.415v-6zm66.04-65.835c-36.526 3.122-65.663 32.104-69.027 68.56l5.974.55C21.5 48.59 48.337 21.898 81.966 19.024l-.51-5.979zM78.711.788v15.246h6V.788h-6zm8.783-3H81.71v6h5.783v-6zm2 0h-2v6h2v-6zm5.784 0h-5.784v6h5.784v-6zm3 18.337V.788h-6v15.337h6zm65.295 65.479c-3.333-36.114-31.956-64.892-68-68.465l-.591 5.971c33.184 3.29 59.548 29.796 62.616 63.045l5.975-.551zM176 78.879h-15.414v6H176v-6zm3 8.783V81.88h-6v5.783h6zm0 2v-2h-6v2h6zm0 5.784v-5.784h-6v5.784h6zm-18.414 3H176v-6h-15.414v6zm-65.012 65.74c36.043-3.572 64.667-32.351 67.999-68.464l-5.975-.551c-3.068 33.248-29.432 59.755-62.616 63.044l.592 5.971zm2.704 12.477v-15.462h-6v15.462h6zm-8.784 3h5.784v-6h-5.784v6zm-2 0h2v-6h-2v6zm-5.783 0h5.783v-6H81.71v6zm-3-18.371v15.371h6v-15.371h-6zm-66.283-65.57c3.364 36.456 32.501 65.438 69.027 68.559l.511-5.978c-33.629-2.874-60.466-29.568-63.564-63.132l-5.974.55zM0 98.446h15.415v-6H0v6zm-3-8.784v5.784h6v-5.784h-6zm0-2v2h6v-2h-6zm34.67 1c0-31.11 25.22-56.329 56.33-56.329v-6c-34.423 0-62.33 27.906-62.33 62.33h6zm14.963 38.234c-9.29-10.045-14.962-23.473-14.962-38.233h-6c0 16.328 6.282 31.196 16.557 42.307l4.405-4.074zm4.983-10.373c-6.66 1.714-9.235 7.224-10.13 11.839l5.89 1.143c.691-3.565 2.314-6.291 5.736-7.172l-1.496-5.81zm19.88-7.423c-.009.005-9.208 4.671-19.881 7.423l1.498 5.81c11.312-2.917 20.974-7.819 21.097-7.882l-2.714-5.351zm3.182-4.663l-2.994-.184v-.001-.001.003l-.002.025-.01.121a25.328 25.328 0 01-.285 2.191c-.25 1.428-.636 2.829-1.13 3.681l5.192 3.008c1.046-1.806 1.572-4.075 1.849-5.651a31.382 31.382 0 00.37-2.928c0-.022.002-.04.003-.054l.001-.017v-.006-.003-.001l-2.994-.183zm-8.436-12.128c.67 4.254 2.144 9.712 6.227 14.157l4.419-4.058c-2.91-3.17-4.123-7.247-4.719-11.032l-5.927.933zm2.065 2.937c1.364-.005 2.353-.675 2.909-1.177l-4.02-4.454c.041-.037.419-.367 1.09-.37l.021 6zm-6.866-9.644c.782 3.04 1.595 5.217 2.485 6.7.823 1.369 2.22 2.954 4.385 2.944l-.03-6c1.125-.006 1.304.824.79-.033-.447-.744-1.088-2.264-1.819-5.104l-5.81 1.493zm4.555-12.518c-.842-.011-1.906.154-2.916.81-1.041.677-1.738 1.69-2.128 2.861-.711 2.14-.483 5.06.49 8.847l5.81-1.493c-.917-3.572-.743-5.05-.606-5.461.035-.105-.013.093-.296.277-.251.163-.449.158-.433.158l.079-6zm1.312.151a6.604 6.604 0 00-1.32-.151l-.062 6c.005 0 .044 0 .122.017l1.26-5.866zm-.641 2.857l-2.953.529v-.002-.002l-.002-.004-.001-.008-.002-.013-.004-.022a1.02 1.02 0 01-.003-.026l5.952-.752a5.358 5.358 0 00-.027-.19l-.004-.02-.002-.01v-.005-.002h-.001v-.001l-2.953.528zM73.46 51.94c-1.172-.002-5.24.273-8.176 4.109-2.913 3.805-4.014 10.212-1.538 20.731l5.84-1.374c-2.32-9.863-.821-14.034.462-15.71 1.26-1.645 2.985-1.757 3.403-1.756l.009-6zm.204 3.006l.253-2.99h-.002-.001a.615.615 0 00-.012 0l-.017-.002-.04-.003a6.676 6.676 0 00-.39-.011v6h.023a.87.87 0 01-.053-.003h-.006l-.004-.001h-.001-.001l.251-2.99zm10.629-10.94c-3.258.083-6.32 1.395-8.671 3.199-2.316 1.777-4.266 4.288-4.887 7.093l5.859 1.296c.228-1.032 1.115-2.427 2.68-3.63 1.531-1.174 3.398-1.915 5.173-1.96l-.154-5.999zm2.85.253c-.956-.2-1.913-.278-2.851-.254l.156 5.998c.5-.013.992.03 1.468.129l1.228-5.873zm5.995.432c-2.379.006-4.515-.123-5.995-.432l-1.227 5.873c2.105.44 4.745.565 7.237.559l-.015-6zm10.961 2.346l-.343-2.98h-.011l-.043.006a146.33 146.33 0 01-.858.09c-.59.058-1.436.137-2.446.216-2.028.159-4.683.316-7.258.322l.012 6c2.786-.006 5.607-.175 7.715-.34a124.91 124.91 0 003.302-.304l.198-.021.053-.006.015-.002h.006l-.342-2.981zm-1.978 4.295a359.587 359.587 0 001.908 2.316l.003-.003a.045.045 0 00.008-.007l.019-.016.046-.04a8.316 8.316 0 00.503-.477c.29-.3.669-.732 1.044-1.282.73-1.073 1.582-2.808 1.44-4.98l-5.987.389c.024.362-.114.775-.414 1.216a3.657 3.657 0 01-.499.586l-.007.007.01-.01.01-.007.005-.005.003-.002.002-.001c.001-.001.002-.002 1.906 2.316zm7.128 24.694c2.877.85 2.877.85 2.877.848l.001-.003a33.006 33.006 0 00.684-3.155c.308-1.87.587-4.47.445-7.356-.282-5.733-2.277-13.078-9.557-17.58l-3.156 5.104c4.919 3.041 6.488 8.043 6.72 12.77.116 2.346-.111 4.504-.372 6.085a27.35 27.35 0 01-.367 1.842 16.422 16.422 0 01-.148.58l-.005.02h-.001l.001-.002v-.002c.001-.001.001-.002 2.878.849zm3.003.067l-.004-.16-5.998.185.005.16 5.997-.185zm-2.29-3.007c-.108 0-.406-.002-.72.037a4.996 4.996 0 00-.864.193l1.752 5.739c.053-.017.053-.016.027-.01a1.324 1.324 0 01-.173.032 1.42 1.42 0 01-.121.01h.033l.095-.001-.029-6zm.074 0h-.074l.03 6h.082l-.038-6zm4.52 12.518c.97-3.778 1.198-6.69.494-8.828-.384-1.168-1.074-2.181-2.109-2.863-1.004-.662-2.066-.834-2.91-.827l.048 6c.012 0-.188.003-.438-.162-.281-.185-.326-.381-.29-.271.138.417.308 1.897-.607 5.458l5.812 1.493zm-6.764 9.643c2.125-.046 3.49-1.618 4.301-2.982.881-1.48 1.688-3.645 2.463-6.66l-5.812-1.494c-.723 2.814-1.359 4.333-1.807 5.085-.516.868-.365.076.725.053l.13 5.998zm-2.642-.872c.593.444 1.5.902 2.654.872l-.155-5.998a1.77 1.77 0 011.092.32l-3.591 4.806zm-1.62 12.09c3.992-4.354 5.681-9.703 6.377-14.015l-5.924-.956c-.591 3.662-1.964 7.74-4.876 10.916l4.423 4.055zm2.359 4.039c-.492-.688-.936-2.07-1.234-3.66a24.87 24.87 0 01-.329-2.422l-.011-.138-.002-.029v-.004.003l-2.994.184-2.995.184v.004a.12.12 0 000 .006l.002.019.004.061.016.206a31.293 31.293 0 00.411 3.032c.317 1.684.938 4.208 2.254 6.046l4.878-3.492zm18.494 6.018c-5.363-1.382-10.289-3.132-13.882-4.542a122.277 122.277 0 01-4.246-1.757 94.893 94.893 0 01-1.522-.685h.001l-1.284 2.712c-1.284 2.711-1.284 2.711-1.283 2.712h.001l.002.001a.057.057 0 01.007.004l.025.011.088.041.329.152c.286.13.701.317 1.231.549a127.01 127.01 0 004.459 1.845c3.741 1.468 8.908 3.306 14.577 4.767l1.497-5.81zm10.131 11.842c-.896-4.616-3.47-10.126-10.131-11.842l-1.497 5.81c3.422.882 5.046 3.609 5.738 7.174l5.89-1.142zm9.815-39.7c0 14.76-5.673 28.188-14.963 38.234l4.405 4.074c10.275-11.111 16.558-25.979 16.558-42.308h-6zM88 32.333c31.11 0 56.33 25.22 56.33 56.33h6c0-34.424-27.906-62.33-62.33-62.33v6z" fill="#dc848d" mask="url(#a)"/></svg>