<svg xmlns="http://www.w3.org/2000/svg" width="512" height="512" viewBox="0 0 512 512" version="1.1"><path d="" stroke="none" fill="#080404" fill-rule="evenodd"/><path d="M 3.400 32.400 L 0 35.800 0 88.400 L 0 141 112.466 141 L 224.933 141 231.216 136.912 C 234.672 134.664, 242.900 130.184, 249.500 126.956 L 261.500 121.088 273.479 117.004 L 285.457 112.919 297.479 110.507 L 309.500 108.094 322.500 106.928 L 335.500 105.761 347 106.428 C 357.928 107.062, 369.233 108.325, 375.250 109.583 L 378 110.159 378 74.030 L 378 37.901 376.506 35.011 C 375.684 33.422, 374.009 31.419, 372.783 30.561 L 370.555 29 188.677 29 L 6.800 29 3.400 32.400 M 69.418 70.969 C 64.019 73.153, 60.378 80.327, 61.275 87.014 L 61.797 90.906 63.886 93.839 L 65.974 96.773 70.190 98.459 L 74.406 100.146 77.453 99.570 C 79.129 99.253, 81.886 98.149, 83.580 97.115 L 86.660 95.236 88.330 91.717 L 90 88.198 89.996 84.349 L 89.993 80.500 88.005 77.241 L 86.018 73.982 82.759 71.995 L 79.500 70.007 75.500 70.067 C 73.300 70.100, 70.563 70.506, 69.418 70.969 M 129.418 70.969 C 124.019 73.153, 120.378 80.327, 121.275 87.014 L 121.797 90.906 123.886 93.839 L 125.974 96.773 130.190 98.459 L 134.406 100.146 137.453 99.570 C 139.129 99.253, 141.886 98.149, 143.580 97.115 L 146.660 95.236 148.330 91.717 L 150 88.198 149.996 84.349 L 149.993 80.500 148.005 77.241 L 146.018 73.982 142.759 71.995 L 139.500 70.007 135.500 70.067 C 133.300 70.100, 130.563 70.506, 129.418 70.969 M 189.418 70.969 C 184.019 73.153, 180.378 80.327, 181.275 87.014 L 181.797 90.906 183.886 93.839 L 185.974 96.773 190.190 98.459 L 194.406 100.146 197.453 99.570 C 199.129 99.253, 201.886 98.149, 203.580 97.115 L 206.660 95.236 208.330 91.717 L 210 88.198 209.996 84.349 L 209.993 80.500 208.005 77.241 L 206.018 73.982 202.759 71.995 L 199.500 70.007 195.500 70.067 C 193.300 70.100, 190.563 70.506, 189.418 70.969 M 324.500 136.020 C 311.544 137.088, 296.673 140.162, 283.351 144.526 L 272.705 148.013 262.102 153.326 C 256.271 156.248, 249.584 159.852, 247.243 161.336 L 242.986 164.034 255.330 179.767 C 262.118 188.420, 283.320 215.525, 302.444 240 C 321.569 264.475, 337.537 284.623, 337.930 284.774 C 338.843 285.124, 432.500 165.342, 432.500 163.826 L 432.500 162.693 423 157.334 C 400.014 144.365, 373.249 136.974, 344.500 135.654 L 334.500 135.195 324.500 136.020 M 0 282.550 L 0 395.099 1.456 397.915 L 2.912 400.730 6.357 402.365 L 9.802 404 83.401 404 L 157 404 157 403.125 C 157 402.644, 155.494 398.931, 153.653 394.875 C 146.506 379.125, 140.682 358.447, 137.354 337 L 135.570 325.500 135.614 307 L 135.658 288.500 137.350 278.500 C 143.588 241.636, 159.400 206.602, 181.606 180.443 C 184.848 176.624, 188.118 172.713, 188.872 171.750 L 190.245 170 95.122 170 L 0 170 0 282.550 M 412.881 237.490 C 389.025 268.010, 369.355 293.435, 369.170 293.990 L 368.833 295 440.417 295 L 512 295 512 291.551 C 512 286.082, 508.110 267.377, 504.815 257 L 501.798 247.500 495.908 235.124 L 490.017 222.748 484.281 214.124 C 476.354 202.204, 459.141 182, 456.912 182 C 456.552 182, 436.738 206.971, 412.881 237.490 M 212.691 189.750 C 185.861 217.001, 169.154 253.490, 164.976 293.959 L 163.793 305.417 164.471 314.959 C 167.365 355.681, 178.633 387.816, 200.078 416.500 L 206.806 425.500 215.653 434.196 C 239.581 457.715, 267.250 472.324, 301.942 479.757 L 314.500 482.447 338.500 482.447 L 362.500 482.447 375.058 479.757 C 450.541 463.585, 511.773 394.497, 511.996 325.250 L 512 324 423.148 324 L 334.296 324 330.898 321.717 L 327.500 319.434 312.653 300.467 C 304.487 290.035, 280.485 259.337, 259.316 232.250 C 238.146 205.162, 220.491 183, 220.081 183 C 219.672 183, 216.347 186.037, 212.691 189.750" stroke="none" fill="#040404" fill-rule="evenodd"/></svg>