<svg xmlns="http://www.w3.org/2000/svg" width="512" height="512" viewBox="0 0 512 512" version="1.1"><path d="" stroke="none" fill="#080404" fill-rule="evenodd"/><path d="M 195.223 1.935 C 172.387 7.545, 152.677 25.351, 144.991 47.313 C 142.990 53.032, 143.389 52.804, 130.599 55.547 C 108.725 60.239, 87.516 77.210, 76.631 98.732 C 73.209 105.498, 69.301 119.665, 68.480 128.281 C 67.914 134.220, 67.503 135.262, 65.167 136.670 C 48.933 146.452, 33.318 160.449, 23.633 173.900 C 12.968 188.713, 4.685 208.398, 1.548 226.385 C -0.450 237.842, -0.441 258.921, 1.567 270.500 C 8.087 308.096, 33.489 343.308, 66.550 360.580 L 74.053 364.500 73.276 368.500 C 72.849 370.700, 72.537 377.900, 72.583 384.500 C 72.654 394.835, 73.046 397.610, 75.406 404.500 C 82.148 424.177, 95.447 439.201, 113.500 447.534 C 121.572 451.259, 131.827 454, 137.696 454 L 141.764 454 144.351 462.250 C 147.910 473.601, 153.156 482.142, 162.007 490.993 C 170.654 499.640, 179.139 504.924, 190.500 508.735 C 197.628 511.127, 200.027 511.424, 212.500 511.460 C 224.557 511.494, 227.462 511.178, 233.429 509.179 C 258.080 500.921, 275.483 482.761, 282.200 458.287 C 284.215 450.945, 284.361 447.716, 284.757 401.750 L 285.178 353 312.533 353 L 339.888 353 340.194 398.250 C 340.487 441.550, 340.587 443.651, 342.523 447 C 343.721 449.073, 346.356 451.418, 348.985 452.750 C 353.162 454.867, 354.641 455, 374.075 455 L 394.725 455 398.004 461.660 C 400.046 465.808, 403.590 470.617, 407.401 474.410 C 433.407 500.295, 476.468 490.291, 489.143 455.419 C 492.177 447.073, 492.177 431.927, 489.143 423.581 C 476.504 388.810, 433.286 378.770, 407.391 404.589 C 403.599 408.371, 400.040 413.206, 398.004 417.340 L 394.725 424 382.863 424 L 371 424 370.996 378.750 C 370.993 335.361, 370.911 333.366, 369.005 330.241 C 367.912 328.448, 365.552 326.088, 363.759 324.995 C 360.659 323.105, 358.655 323.007, 322.750 323.004 L 285 323 285 297 L 285 271 350.250 271.017 L 415.500 271.034 417.778 276.301 C 425.368 293.847, 443.137 305.208, 463 305.216 C 486.181 305.225, 504.048 290.875, 511.439 266.312 C 512.596 262.466, 512.953 257.293, 512.817 246.312 C 512.666 234.136, 512.532 232.924, 512.067 239.500 C 511.543 246.887, 511.436 247.198, 510.669 243.562 C 508.535 233.444, 498.986 220.384, 489.132 214.106 C 464.264 198.264, 429.408 208.812, 417.778 235.699 L 415.500 240.966 350.250 240.983 L 285 241 285 215 L 285 189 322.750 188.996 C 358.655 188.993, 360.659 188.895, 363.759 187.005 C 365.552 185.912, 367.912 183.552, 369.005 181.759 C 370.911 178.634, 370.993 176.639, 370.996 133.250 L 371 88 382.863 88 L 394.725 88 398.004 94.660 C 404.264 107.376, 417.981 118.026, 431.799 120.898 C 456.154 125.962, 480.933 111.948, 488.979 88.562 C 495.227 70.400, 490.830 51.668, 477.083 37.890 C 461.190 21.962, 439.499 18.518, 419.141 28.691 C 411.376 32.571, 402.048 42.125, 398.004 50.340 L 394.725 57 373.613 57.016 C 353.622 57.032, 352.290 57.152, 348.556 59.267 C 346.386 60.496, 343.686 63.076, 342.556 65.001 C 340.577 68.370, 340.489 70.185, 340.194 113.750 L 339.888 159 312.533 159 L 285.178 159 284.757 110.250 C 284.361 64.284, 284.215 61.055, 282.200 53.713 C 276.664 33.541, 262.906 16.534, 245 7.727 C 239.775 5.157, 232.575 2.374, 229 1.542 C 220.236 -0.497, 204.372 -0.313, 195.223 1.935 M 206.737 31.108 C 189.459 32.999, 174.582 48.238, 171.815 66.879 C 169.884 79.893, 165.006 83.996, 151.460 83.998 C 136.562 84.001, 124.245 88.833, 114.492 98.500 C 94.432 118.383, 94.052 149.607, 113.628 169.498 C 122.784 178.802, 132.880 183.509, 146.675 184.908 C 155.991 185.852, 158.881 187.305, 162.750 192.990 C 167.121 199.412, 164.980 208.009, 157.666 213.408 C 155.269 215.177, 153.494 215.483, 146.166 215.393 C 131.665 215.213, 116.574 210.218, 103.303 201.206 C 95.586 195.966, 84.437 183.969, 80 176.131 C 74.082 165.678, 75.349 165.956, 66.426 173.151 C 27.924 204.193, 19.162 259.832, 46.256 301.221 C 58.093 319.304, 76.891 333.933, 96.576 340.382 C 108.252 344.207, 111.710 353.147, 106.375 365.714 C 103.818 371.735, 103.501 373.648, 103.506 382.992 C 103.512 392.576, 103.770 394.027, 106.444 399.494 C 109.849 406.455, 116.687 414.146, 122.498 417.552 C 130.746 422.385, 134.677 423.229, 148.370 423.103 C 159.670 423, 161.639 423.232, 164.514 425.008 C 168.921 427.732, 170.783 432.083, 171.545 441.436 C 172.590 454.268, 176.294 462.259, 184.948 470.354 C 208.388 492.280, 247.038 479.294, 252.912 447.520 C 254.556 438.624, 254.336 370.059, 252.640 362.853 C 250.921 355.551, 247.293 349.446, 241.496 344.103 C 234.027 337.219, 229.233 335.500, 217.500 335.501 C 208.494 335.501, 206.974 335.778, 202.214 338.286 C 190.333 344.544, 183.533 354.384, 182.069 367.437 C 180.733 379.349, 176.214 384.940, 167.324 385.681 C 161.323 386.182, 155.581 383.140, 152.854 378.016 C 148.999 370.771, 151.596 353.269, 158.465 340.200 C 175.505 307.779, 214.935 294.819, 247.312 310.998 C 250.616 312.649, 253.473 314, 253.660 314 C 253.847 314, 254 259.183, 254 192.184 C 254 108.658, 253.658 68.517, 252.912 64.480 C 248.890 42.725, 229.385 28.628, 206.737 31.108 M 435 55.121 C 428.440 57.729, 423.714 65.006, 423.714 72.500 C 423.714 78.170, 425.477 82.228, 429.661 86.186 C 437.817 93.903, 451.493 92.256, 457.749 82.803 C 461.675 76.870, 461.675 68.130, 457.749 62.197 C 456.236 59.910, 453.216 57.131, 451.039 56.020 C 446.773 53.843, 439.271 53.423, 435 55.121 M 0.405 248.500 C 0.406 257.300, 0.559 260.766, 0.745 256.203 C 0.930 251.639, 0.929 244.439, 0.742 240.203 C 0.555 235.966, 0.404 239.700, 0.405 248.500 M 455.500 238.831 C 445.655 243.520, 441.561 254.035, 445.880 263.541 C 454.199 281.857, 481.320 276.042, 481.373 255.932 C 481.407 242.793, 467.073 233.318, 455.500 238.831 M 435 422.121 C 428.440 424.729, 423.714 432.006, 423.714 439.500 C 423.714 445.170, 425.477 449.228, 429.661 453.186 C 437.817 460.903, 451.493 459.256, 457.749 449.803 C 461.675 443.870, 461.675 435.130, 457.749 429.197 C 456.236 426.910, 453.216 424.131, 451.039 423.020 C 446.773 420.843, 439.271 420.423, 435 422.121" stroke="none" fill="#040404" fill-rule="evenodd"/></svg>