<svg xmlns="http://www.w3.org/2000/svg" width="82" height="57" fill="none" viewBox="0 0 82 57"><rect width="75.5999" height="51.2287" x=".84314" fill="#dc848d" rx="3"/><path stroke="rgba(185, 9, 27, 1)" stroke-linejoin="round" stroke-width="2" d="M36.4831 28.8162v13.8744h20.52m-20.52-5.5498l5.94-2.7749 4.86 2.7749 5.94-5.5497 2.43 2.7748M36.4831 7.47095v7.68435m32.4 5.1228h-32.4v-5.1228m0 0l5.4-2.0492 5.94 2.0492 4.86-7.17207 5.4 7.17207 5.4-4.6106 5.4 4.6106"/><path stroke="rgba(185, 9, 27, 1)" stroke-width="2" d="M31.0831 42.6907h-6.48M22.4431 42.6907H7.32312M7.32311 37.3542h6.47999"/><ellipse cx="19.7431" cy="19.7444" fill="#dc848d" rx="13.5" ry="13.3408"/><path stroke="rgba(185, 9, 27, 1)" stroke-width="2" d="M17.0431 37.3542h14.04"/><path fill="#fff" d="M29.289 29.1777c-1.888 1.8658-4.2934 3.1364-6.9122 3.6511-2.6187.5148-5.3331.2506-7.7999-.7591-2.4668-1.0098-4.5752-2.7197-6.05864-4.9136-1.4834-2.1939-2.27516-4.7732-2.27516-7.4117h13.5l9.5459 9.4333z"/><path stroke="rgba(185, 9, 27, 1)" stroke-width="2" d="M32.2431 19.7444c0 6.8045-5.5852 12.3408-12.5 12.3408s-12.5-5.5363-12.5-12.3408 5.5852-12.34084 12.5-12.34084 12.5 5.53634 12.5 12.34084z"/><path stroke="rgba(185, 9, 27, 1)" stroke-width="2" d="M7.32312 19.2107H18.8985l8.9446 9.6054"/><path fill="#fff" stroke="rgba(185, 9, 27, 1)" stroke-width="2" d="M73.4528 37.3511c0 4.8771-4.0041 8.851-8.9686 8.851-4.9644 0-8.9686-3.9739-8.9686-8.851 0-4.8772 4.0042-8.8511 8.9686-8.8511 4.9645 0 8.9686 3.9739 8.9686 8.8511z"/><path stroke="rgba(185, 9, 27, 1)" stroke-width="2" d="M69.7309 44.0913l11.5426 11.4065"/></svg>
