<svg width="72" height="72" fill="none" xmlns="http://www.w3.org/2000/svg"><g clip-path="url(#a)"><path d="M21.19 67.786h29.52v-12.66h-2.145c-4.082-.07-7.286-2.591-8.158-6.507a14.874 14.874 0 0 1-.214-2.794c-.034-1.1 0-2.2 0-3.272.068-.058.104-.118.138-.118 1.941.034 3.896-.047 5.823.144 1.759.174 3.241 1.125 4.575 2.484V33.99c-1.19-.056-2.366-.023-3.514-.183a8.172 8.172 0 0 1-7-7.663c-.08-1.607 0-3.221 0-5.028 2.212.121 4.367.121 6.471.394 1.553.2 2.842 1.126 4.034 2.355V12.733h-2.033c-4.893 0-8.485-3.59-8.497-8.468V.02c2.375.146 4.73-.338 7.005.433 2.91.985 4.721 3.019 5.498 5.984.076.281.123.59.222 1.06.382-2.48 1.429-4.402 3.322-5.815a8.074 8.074 0 0 1 4.91-1.645h4.602c-.132 2.197-.028 4.357-.433 6.42-.72 3.657-4.004 6.172-7.74 6.27-.816.023-1.631 0-2.495 0v11.127c.233-.214.377-.355.526-.487a7.928 7.928 0 0 1 5.151-2.121c1.59-.04 3.182 0 4.861 0-.073 3.266.563 6.583-1.687 9.422a8.239 8.239 0 0 1-6.471 3.26c-.77.025-1.542 0-2.363 0v11.003a.628.628 0 0 0 .205-.085c1.81-1.778 3.995-2.532 6.51-2.464 1.238.037 2.479 0 3.829 0v.858c-.056 1.753.099 3.547-.22 5.252-.736 3.953-4.036 6.527-8.135 6.611-.704.015-1.407 0-2.175 0v12.702h16.837V72H0v-4.164h16.829V55.118h-2.138c-3.71-.062-6.752-2.178-7.911-5.557a7.832 7.832 0 0 1-.447-2.191c-.068-1.612-.023-3.233-.023-4.833.054-.048.087-.107.121-.107 1.919.028 3.849-.05 5.753.126 1.792.17 3.289 1.126 4.65 2.49V33.934h-2.182a8.293 8.293 0 0 1-8.356-8.347v-4.372c2.332.13 4.608-.281 6.836.354a8.44 8.44 0 0 1 3.697 2.285V12.733c-.59 0-1.173-.025-1.75 0-4.85.264-9.002-3.62-8.791-8.823.047-1.26 0-2.531 0-3.896 2.4.15 4.782-.352 7.075.453 3.238 1.125 5.033 3.511 5.652 7.033.304-1.91.956-3.48 2.175-4.782A8.105 8.105 0 0 1 27.176.037c1.494-.029 2.988 0 4.679 0-.133 2.191-.026 4.352-.43 6.411-.724 3.657-3.996 6.19-7.735 6.28-.813.019-1.628 0-2.495 0V23.84c.22-.2.366-.335.515-.467a7.94 7.94 0 0 1 5.219-2.13c1.57-.034 3.136 0 4.782 0-.067 3.308.563 6.676-1.764 9.529a8.236 8.236 0 0 1-6.327 3.159c-.79.03-1.587 0-2.433 0v11.05c.18-.143.323-.244.45-.363a7.824 7.824 0 0 1 4.985-2.183c1.657-.09 3.322-.017 4.971-.017.042.051.099.088.099.121-.08 2.124.09 4.296-.304 6.361-.647 3.424-3.745 5.908-7.239 6.159-.97.07-1.952 0-2.97 0l.01 12.727Z" fill="#dc848d"/></g><defs><clipPath id="a"><path fill="#fff" d="M0 0h72v72H0z"/></clipPath></defs></svg>