<svg width="72" height="72" fill="none" xmlns="http://www.w3.org/2000/svg"><path d="M60 32c0 16.569-13.431 30-30 30C13.431 62 0 48.569 0 32 0 15.431 13.431 2 30 2c16.569 0 30 13.431 30 30z" fill="#dc848d"/><path d="M32.27 52.457V48.66c5.258-.814 8.48-4.883 8.73-9.766 0-10.58-14.647-9.631-14.647-15.193 0-2.441 2.003-4.07 4.632-4.07 3.005 0 5.508 1.764 6.385 2.578.125.272.5.136.626-.135l2.002-4.07c.126-.136 0-.407-.125-.542-.75-.679-3.475-2.725-7.606-3.132v-3.786c0-.272-.25-.543-.501-.543h-2.512c-.25 0-.5.271-.5.543v3.933c-4.758.814-8.285 4.612-8.285 9.496 0 10.038 14.647 9.495 14.647 15.192 0 2.713-2.128 4.07-4.506 4.07-3.506 0-6.385-2.307-7.386-3.256-.126-.136-.501-.136-.626.136l-2.504 3.798c-.125.271-.125.542 0 .678.876.814 4.024 3.527 8.656 4.07v3.797c0 .272.25.543.5.543h2.52c.25 0 .5-.271.5-.543z" fill="#fff"/><circle cx="58" cy="56" r="14" fill="rgba(185, 9, 27, 1)"/><path d="M55.16 48.521a8 8 0 00.742 15.2" stroke="#fff" stroke-width="2"/><path fill-rule="evenodd" clip-rule="evenodd" d="M52.008 47.427l2.227 4.177c.124.233.464.227.574-.01l1.58-3.396a.48.48 0 00-.371-.672l-3.682-.553a.312.312 0 00-.328.454z" fill="#fff"/><path d="M60.84 63.479a8 8 0 00-.742-15.2" stroke="#fff" stroke-width="2"/><path fill-rule="evenodd" clip-rule="evenodd" d="M63.992 64.573l-2.227-4.177c-.124-.233-.464-.227-.574.01l-1.58 3.396a.48.48 0 00.371.672l3.682.553a.312.312 0 00.328-.454z" fill="#fff"/></svg>