<svg xmlns="http://www.w3.org/2000/svg" width="88" height="90" fill="none"><g clip-path="url(#clip0)"><path fill="#fff" d="M0 0h88v88H0z"/><path fill="#92C9EC" d="M78.243 18.404c-1.276.226-2.417.984-3.172 2.108a5.525 5.525 0 0 0-.86 3.89l2.996 19.04a6.35 6.35 0 0 1-.122 2.487 6.103 6.103 0 0 1-1.064 2.214l-6.93 9.074c-.234.319-.566.54-.937.622a1.515 1.515 0 0 1-1.092-.171 1.61 1.61 0 0 1-.493-.484 1.739 1.739 0 0 1-.26-.66 1.788 1.788 0 0 1 .023-.717 1.72 1.72 0 0 1 .3-.64l6.025-7.898a5.423 5.423 0 0 0 1.147-3.51 5.383 5.383 0 0 0-1.34-3.43 4.695 4.695 0 0 0-1.64-1.133 4.435 4.435 0 0 0-3.813.211 4.79 4.79 0 0 0-1.52 1.308L52.947 57.151c-3.906 5.114-5.765 11.674-5.173 18.25L47.865 88h22.96l-.091-12.129 14.641-19.21a12.801 12.801 0 0 0 2.24-4.702c.424-1.72.499-3.519.22-5.273l-3.97-23.995c-.218-1.365-.931-2.582-1.984-3.386a4.643 4.643 0 0 0-3.638-.901zM17.27 75.873L17.18 88h22.954l.091-12.597c.592-6.575-1.267-13.133-5.172-18.247l-12.54-16.394a4.791 4.791 0 0 0-1.521-1.308 4.434 4.434 0 0 0-3.813-.21 4.695 4.695 0 0 0-1.639 1.133 5.38 5.38 0 0 0-1.339 3.429 5.42 5.42 0 0 0 1.146 3.508l6.025 7.897c.137.187.235.403.288.634.053.231.06.472.02.706a1.74 1.74 0 0 1-.256.651c-.127.195-.292.36-.483.48-.333.194-.72.254-1.091.172a1.596 1.596 0 0 1-.937-.622l-6.929-9.072a6.101 6.101 0 0 1-1.063-2.214 6.346 6.346 0 0 1-.122-2.486l2.994-19.036a5.529 5.529 0 0 0-.853-3.905c-.756-1.13-1.901-1.89-3.182-2.116a4.647 4.647 0 0 0-3.648.913c-1.055.81-1.766 2.035-1.977 3.406L.164 46.703a13.31 13.31 0 0 0 .224 5.273 12.798 12.798 0 0 0 2.244 4.701L17.27 75.873z"/><path fill="#103654" d="M44 36.667c43.05-22.642 11.67-48.235 0-31.028C32.33-11.568.95 14.01 44 36.667z"/></g><defs><clipPath id="clip0"><path fill="#fff" d="M0 0h88v88H0z"/></clipPath></defs></svg>