<svg xmlns="http://www.w3.org/2000/svg" width="46" height="81" fill="none" viewBox="0 0 46 81"><path fill="#103654" fill-rule="evenodd" d="M18.3187 9.9582c1.9278-.42421 3.9451-.57386 6.0143-.33347 2.108.24391 4.0818.85667 5.8917 1.73687l6.5198-5.02446c-3.3442-2.26478-7.2516-3.79663-11.5325-4.29271-4.2185-.49019-8.3132.08013-12.0391 1.48L10.3543 0 6.94177 13.888l14.52313.0047-3.1462-3.9345zM28.2182 71.1041c-2.5016.9627-5.2589 1.3657-8.1023 1.0358-2.6336-.3052-5.048-1.2114-7.1525-2.5417l-5.92946 4.513c3.42426 2.722 7.60506 4.5732 12.26066 5.1129 4.8195.5597 9.4621-.3677 13.5133-2.3815l3.0366 3.7967 3.1886-12.9783-13.5722-.0048 2.7573 3.4479z" clip-rule="evenodd"/><path fill="#92C9EC" fill-rule="evenodd" d="M1.34201 33.8573L22.6151 48.3504l21.2741-14.4858-21.2741-14.493L1.34201 33.8573zM22.6152 51.9128L3.17141 38.6983.145264 40.759 22.6152 56.0364l22.7045-15.5057-3.0261-2.0628-19.6784 13.4449zm0 7.5445L3.17141 46.2428.145264 48.3035 22.6152 63.5808l22.7045-15.5056-3.0261-2.0628-19.6784 13.4449z" clip-rule="evenodd"/></svg>
