<svg width="160" height="160" fill="none" xmlns="http://www.w3.org/2000/svg">
  <g clip-path="url(#a)">
    <circle cx="80" cy="80" r="79.802" fill="#f8e6e8"/>
    <circle cx="79.5" cy="80.5" r="60.5" fill="#dc848d"/>
    <path d="M80.248 116.125c-21.406 0-33.065-3.627-33.15-4.363-.284-2.451-.624-7.891 1.629-11.107 2.833-4.264 9.647-7.494 15.583-9.166 5.936-1.672 7.778-5.37 7.353-7.083-.425-1.715-1.715-1.19-3.018-3.641a30.342 30.342 0 0 1-1.813-6.984s-2.678-.893-2.975-4.916c-.298-4.023 0-5.511 1.006-5.978a3.57 3.57 0 0 1 1.416-.425s-.283-1.53-.524-3.542c0 0-.836-7.296 0-8.84 1.374-2.55 2.202-.614 3.938-2.663 1.737-2.05 2.432-4.265 9.62-4.265 7.188 0 13.345 2.38 14.86 7.82.305 1.5.4 3.036.284 4.562 0 1.26-.666 6.928-.666 6.928.497.04.98.185 1.417.424 1.005.468 1.303 1.955 1.005 5.979-.297 4.023-2.975 4.916-2.975 4.916a30.345 30.345 0 0 1-1.87 6.97c-1.303 2.45-2.606 1.912-3.017 3.64-.41 1.729 1.53 5.426 7.352 7.084 5.823 1.657 12.75 4.916 15.584 9.166 2.167 3.23 1.827 8.67 1.544 11.121 0 .736-11.178 4.363-32.583 4.363Z" fill="rgba(185, 9, 27, 1)"/>
    <path fill-rule="evenodd" clip-rule="evenodd" d="M72.273 102.896c-.055.481-7.655 2.845-21.609 2.845-13.953 0-21.24-2.364-21.24-2.845-.184-1.597-.406-5.143 1.007-7.249 1.847-2.77 6.363-4.894 10.158-5.975 3.796-1.08 5.06-3.49 4.793-4.617-.268-1.126-1.117-.776-1.967-2.373a19.777 19.777 0 0 1-1.219-4.544s-1.745-.581-1.94-3.204c-.193-2.623 0-3.592.656-3.897.285-.156.6-.25.924-.277 0 0-.434-3.694-.434-4.516a10.798 10.798 0 0 1 .184-2.973c.989-3.546 4.987-5.098 9.688-5.098h.341c4.848.074 4.922 1.542 5.929 2.623 1.006 1.08 1.671.23 2.567 1.893.545 1.007 0 5.762 0 5.762a40.6 40.6 0 0 1-.342 2.31c.324.026.639.12.924.276.656.305.85 1.274.656 3.897-.194 2.623-1.94 3.204-1.94 3.204a19.784 19.784 0 0 1-1.182 4.553c-.85 1.598-1.69 1.256-1.967 2.373-.277 1.118.924 3.528 4.793 4.618 3.87 1.09 8.311 3.195 10.158 5.974 1.468 2.097 1.247 5.643 1.062 7.24ZM87.727 102.896c.055.481 7.655 2.845 21.609 2.845 13.953 0 21.239-2.364 21.239-2.845.185-1.597.407-5.143-1.006-7.249-1.847-2.77-6.363-4.894-10.158-5.975-3.796-1.08-5.061-3.49-4.793-4.617.268-1.126 1.117-.776 1.967-2.373.585-1.46.995-2.986 1.219-4.544 0 0 1.745-.581 1.939-3.204.194-2.623 0-3.592-.656-3.897a2.322 2.322 0 0 0-.923-.277s.434-3.694.434-4.516a10.79 10.79 0 0 0-.185-2.973c-.988-3.546-4.986-5.098-9.687-5.098h-.342c-4.848.074-4.922 1.542-5.928 2.623-1.007 1.08-1.672.23-2.567 1.893-.545 1.007 0 5.762 0 5.762.157 1.312.341 2.31.341 2.31a2.326 2.326 0 0 0-.923.276c-.656.305-.85 1.274-.656 3.897.194 2.623 1.939 3.204 1.939 3.204a19.79 19.79 0 0 0 1.183 4.553c.849 1.598 1.689 1.256 1.966 2.373.278 1.118-.923 3.528-4.792 4.618-3.87 1.09-8.311 3.195-10.158 5.974-1.469 2.097-1.247 5.643-1.062 7.24Z" fill="rgba(185, 9, 27, 1)"/>
    <path d="M79.27 43.167c7.21 0 13.36 2.38 14.86 7.82.313 1.5.408 3.035.284 4.561 0 1.205-.666 6.928-.666 6.928.497.04.98.184 1.417.425 1.02.467 1.317 1.955 1.02 5.978-.297 4.024-2.99 4.916-2.99 4.916a30.345 30.345 0 0 1-1.883 6.97c-1.304 2.451-2.593 1.927-3.004 3.641-.41 1.714 1.417 5.412 7.339 7.083 5.921 1.672 12.75 4.902 15.654 9.166 2.153 3.23 1.813 8.67 1.53 11.121-.085.737-11.192 4.363-32.584 4.363-21.391 0-33.065-3.626-33.15-4.363-.297-2.451-.637-7.891 1.53-11.121 2.834-4.25 9.761-7.508 15.584-9.166 5.822-1.657 7.763-5.355 7.352-7.083-.41-1.728-1.643-1.19-2.918-3.64a30.35 30.35 0 0 1-1.87-6.97s-2.678-.893-2.975-4.917c-.297-4.023 0-5.51 1.006-5.978.437-.24.92-.385 1.417-.425 0 0-.284-1.53-.525-3.542 0 0-.807-7.295 0-8.84 1.417-2.55 2.395-1.246 3.939-2.904 1.544-1.657 1.657-3.91 9.095-4.023h.538Zm-.014-2.834h-.567c-6.97.114-8.996 2.097-10.61 4.25a5.865 5.865 0 0 1-.51.652c-.128.142-.128.142-.496.255a5.809 5.809 0 0 0-3.868 3.23c-.836 1.544-.95 5.072-.354 10.483 0 .496.127.964.184 1.417-2.607 1.7-2.323 5.582-2.11 8.5a8.685 8.685 0 0 0 3.243 6.474 25.827 25.827 0 0 0 1.941 6.531 8.289 8.289 0 0 0 2.663 3.06c-.311.822-1.756 2.593-5.27 3.584-2.989.85-13.047 4.08-17.226 10.314-2.621 3.91-2.38 9.916-1.998 13.047.255 2.153 2.437 2.833 4.18 3.358a55.13 55.13 0 0 0 6.715 1.544 143.968 143.968 0 0 0 25.075 1.955c8.31.089 16.612-.565 24.805-1.955 10.243-1.87 10.427-3.485 10.597-4.902.383-3.202.623-9.137-1.983-13.047-4.165-6.262-14.238-9.52-17.227-10.342-3.513-.992-4.958-2.833-5.27-3.584a8.414 8.414 0 0 0 2.677-3.06 26.42 26.42 0 0 0 1.941-6.531 8.672 8.672 0 0 0 3.23-6.474c.213-2.918.51-6.871-2.195-8.5.184-1.828.425-4.25.425-5.001v-.822a15.06 15.06 0 0 0-.397-4.505c-1.743-6.304-8.16-9.916-17.595-9.916v-.014Z" fill="#dc848d"/>
  </g>
  <defs>
    <clipPath id="a">
      <path fill="#fff" d="M0 0h160v160H0z"/>
    </clipPath>
  </defs>
</svg>
