<svg
  xmlns="http://www.w3.org/2000/svg"
  width="101"
  height="92"
  fill="none"
  viewBox="0 0 101 92"
>
  <path
    fill="rgba(185, 9, 27, 1)"
    d="M74.2 0C59.4223 0 47.4009 11.227 47.4009 25.027c0 5.157 1.685 10.122 4.874 14.359.3118.413.3927.957.2158 1.443l-4.0774 11.217 12.627-4.459c.4187-.259.9434-.31 1.4061-.097 3.7196 1.701 7.6731 2.563 11.7526 2.563C88.9766 50.053 101 38.826 101 25.027 101 11.227 88.9776 0 74.2 0zM59.8321 28.688c-2.0387 0-3.6917-1.654-3.6917-3.694s1.653-3.694 3.6917-3.694 3.6916 1.654 3.6916 3.694-1.6529 3.694-3.6916 3.694zm14.3679 0c-2.0388 0-3.6917-1.654-3.6917-3.694S72.1612 21.3 74.2 21.3c2.0387 0 3.6916 1.654 3.6916 3.694s-1.6529 3.694-3.6916 3.694zm14.3689 0c-2.0387 0-3.6917-1.654-3.6917-3.694s1.653-3.694 3.6917-3.694 3.6916 1.654 3.6916 3.694-1.6529 3.694-3.6916 3.694z"
  />
  <path
    fill="#dc848d"
    fill-rule="evenodd"
    d="M46.2069 80.4631c-2.0502-3.0779-7.0055-5.4145-11.2201-6.6105-4.2147-1.1972-5.5666-3.8615-5.2674-5.1011.2991-1.2396 1.2235-.8543 2.1608-2.623.7985-1.5071 1.3413-5.028 1.3413-5.028s1.9219-.641 2.1362-3.5468c.2131-2.907 0-3.9757-.7266-4.3175-.7266-.3417-1.0257-.2993-1.0257-.2993s.4746-4.1348.4781-5.0009c.0036-1.097.1025-2.174-.2049-3.2911-1.1081-4.017-5.7007-5.7267-11.0317-5.6419-5.331.086-5.4134 1.7098-6.5204 2.907-1.1069 1.196-1.8453.2557-2.8298 2.0939-.5946 1.1112-.0212 6.369-.0212 6.369.179 1.4552.3792 2.564.3792 2.564s-.2991-.0424-1.0257.2993c-.7254.3418-.9397 1.4105-.7254 4.3175.2132 2.9058 2.135 3.5468 2.135 3.5468s.5429 3.5209 1.3425 5.028c.9362 1.7687 1.8618 1.3834 2.1609 2.623.2991 1.2396-1.054 3.9039-5.2686 5.1011-4.21462 1.196-9.16995 3.5326-11.22015 6.6105C-.296475 82.7903-.056245 86.7154.153368 88.49c.062412.5255 8.423362 3.1485 23.774532 3.1485 15.3512 0 23.3165-2.623 23.3789-3.1485.2096-1.7746.451-5.6997-1.0999-8.0269z"
    clip-rule="evenodd"
  />
  <path
    fill="#dc848d"
    d="M77.4509 66H44.9715l-9.9937 19H0v7h64.4592l12.9917-26z"
  />
  <path
    fill="#fff"
    d="M35.4775 86l6.9956-16h-5.9962l-5.4965 12H12.9918v4h22.4857z"
  />
</svg>
