<svg width="160" height="160" viewBox="0 0 160 160" fill="none" xmlns="http://www.w3.org/2000/svg">
<g clip-path="url(#clip0_2325_1792)">
<circle cx="80" cy="80" r="80" fill="rgba(185, 9, 27, 0.1)"/>
<g clip-path="url(#clip1_2325_1792)">
<path d="M52.3665 50.347C53.2049 51.5343 53.9149 52.7136 54.7974 53.7486C57.4368 56.8413 60.8584 58.3736 64.8978 58.522C65.9929 58.5621 67.1 58.4899 68.1911 58.3655C69.1859 58.2532 69.7153 57.5914 69.6351 56.7851C69.5388 55.8545 68.8329 55.2809 67.7659 55.4453C66.1212 55.698 64.5127 55.6379 62.9002 55.2408C58.3113 54.1176 55.744 50.9888 54.296 46.6566C56.3899 41.7709 59.9318 38.602 65.1906 37.7275C70.5417 36.837 74.9461 38.7263 78.3998 42.7897V72.742C75.632 73.4279 72.9123 73.5563 70.2007 72.6537C67.7378 71.8354 66.041 70.1868 65.0703 67.784C64.9459 67.4752 64.8931 67.1863 64.6451 66.8895C64.3136 66.4929 63.911 66.2678 63.5059 66.2156C62.3065 66.0592 61.6286 67.07 62.0578 68.3817C62.5392 69.8579 63.3214 71.1776 64.3683 72.3328C64.5889 72.5775 64.8015 72.8262 65.1104 73.1832C64.7454 73.3076 64.4806 73.4079 64.2119 73.4881C61.9254 74.17 60.0602 75.4496 58.6602 77.3911C57.9743 78.3457 58.0265 79.2282 58.7766 79.7738C59.5066 80.3032 60.4573 80.0746 61.0831 79.156C62.4349 77.1704 64.4927 76.4484 66.6949 76.0152C68.2793 75.7023 69.8638 75.6943 71.4683 76.0152C73.3817 76.3963 75.3231 76.304 77.2525 76.0633C77.6055 76.0192 77.9666 75.9951 78.3917 75.959V117.696C75.0022 121.716 70.6059 123.637 65.2548 122.759C59.7513 121.852 56.1091 118.539 54.1115 113.348C55.4432 110.075 57.7336 107.961 61.1152 107.111C62.9403 106.653 64.8015 106.525 66.6828 106.81C67.108 106.874 67.5493 106.894 67.9825 106.87C68.7607 106.826 69.2821 106.276 69.3263 105.522C69.3744 104.752 68.9572 104.082 68.1991 103.978C63.2331 103.292 58.4958 103.665 54.5968 107.299C53.7023 108.134 52.9803 109.152 52.1138 110.163C50.1122 109.806 48.251 108.944 46.5903 107.676C42.9641 104.912 41.1269 101.194 40.8822 96.6733C40.8461 95.9793 40.9264 95.2734 40.8903 94.5794C40.798 92.8064 40.0599 91.3022 38.8726 89.9985C36.9111 87.8485 35.6114 85.3815 35.1782 82.4734C34.5765 78.43 35.4951 74.7877 37.9861 71.5426C38.3311 71.0933 38.7202 70.6762 39.0892 70.243C40.4129 68.6986 41.0186 66.8975 40.9344 64.8839C40.7539 60.6319 42.202 57.0218 45.2024 54.0454C47.3003 51.9635 50.0881 50.5756 52.3665 50.351V50.347Z" fill="#dc848d"/>
<path d="M96.4225 103.545C96.4225 102.177 96.3984 100.777 96.4265 99.3808C96.4987 96.1758 94.1962 92.7422 90.5138 91.8436C89.6795 91.6391 88.801 91.5629 87.9386 91.5468C85.8688 91.5067 83.7989 91.5348 81.6369 91.5348V85.8989C82.0019 85.8628 82.387 85.8989 82.768 85.8989C88.083 85.8909 93.3979 85.8869 98.7129 85.9029C99.475 85.9029 100.269 85.923 100.999 86.1236C103.117 86.7052 104.377 88.1693 104.613 90.3274C104.778 91.8396 104.646 93.388 104.646 94.8802C101.745 96.9941 100.931 98.719 101.713 101.025C102.367 102.951 104.208 104.267 106.218 104.247C108.24 104.226 110.033 102.895 110.658 100.945C111.401 98.6347 110.578 96.9179 107.646 94.8481C107.646 93.5003 107.67 92.0683 107.642 90.6362C107.578 87.359 105.6 84.519 102.512 83.436C101.557 83.099 100.494 82.9306 99.475 82.9225C93.9916 82.8744 88.5122 82.8985 83.0288 82.8985C82.5996 82.8985 82.1664 82.8985 81.6369 82.8985V77.5595C82.038 77.5354 82.4592 77.5835 82.8764 77.5835C88.4921 77.5795 94.1079 77.6236 99.7237 77.5595C103.017 77.5234 105.484 75.963 106.908 72.9746C107.337 72.068 107.534 71.001 107.614 69.9862C107.73 68.5301 107.642 67.0539 107.642 65.5417C109.114 64.8116 110.374 63.869 110.671 62.2364C110.839 61.2897 110.823 60.2147 110.546 59.3001C109.965 57.3707 107.951 56.1272 105.965 56.2315C103.932 56.3358 102.211 57.7116 101.641 59.6892C100.983 61.9636 101.87 63.7245 104.75 65.6339C104.678 67.2424 104.75 68.9914 104.493 70.6881C104.172 72.8302 102.331 74.3504 100.161 74.4788C98.6607 74.5711 97.1565 74.5751 95.6523 74.5791C91.4083 74.5911 87.1604 74.5871 82.9165 74.5791C82.4913 74.5791 82.1102 74.6152 81.6369 74.5791V68.9312C82.0139 68.9071 82.3228 68.9432 82.6758 68.9432C84.5811 68.9352 86.4865 68.9673 88.3919 68.9312C92.3309 68.863 95.4397 66.384 96.266 62.6255C96.4225 61.9195 96.4064 61.1653 96.4225 60.4353C96.4465 59.268 96.4305 58.1007 96.4305 56.8853C97.9227 56.1432 99.1862 55.1605 99.4831 53.4918C99.6435 52.5732 99.6034 51.5302 99.3306 50.6438C98.7169 48.6622 96.7754 47.4909 94.6495 47.5912C92.6518 47.6834 90.935 49.1074 90.3895 51.1171C89.7838 53.3554 90.6823 55.1003 93.5223 56.9655C93.4541 58.5781 93.5303 60.327 93.2656 62.0238C92.9086 64.2901 90.923 65.8265 88.6446 65.8465C86.3421 65.8666 84.0356 65.8505 81.6369 65.8505V42.8819C83.9955 39.1314 89.872 36.7126 94.9142 37.7354C101.573 39.0872 105.227 43.4515 106.631 50.03C107.153 50.1423 107.734 50.2506 108.312 50.3991C114.132 51.8752 118.328 56.6928 118.974 62.6816C119.074 63.6042 119.01 64.5428 119.046 65.4735C119.122 67.4591 119.872 69.1518 121.22 70.6159C123.122 72.6777 124.349 75.0885 124.798 77.8804C125.452 81.9558 124.513 85.6342 122.022 88.9194C121.722 89.3165 121.389 89.6936 121.052 90.0666C119.688 91.5749 118.962 93.3439 119.086 95.3736C119.511 102.445 114.622 109.245 106.623 110.46C105.279 117.143 101.489 121.611 94.5612 122.767C89.3225 123.641 85.0144 121.672 81.5847 117.684V94.6194C81.9738 94.5954 82.3268 94.6194 82.6798 94.6194C84.5852 94.6154 86.4905 94.6114 88.3959 94.6194C91.0754 94.6315 93.0971 96.3162 93.3899 98.9837C93.5544 100.496 93.418 102.044 93.418 103.537C90.5259 105.61 89.7156 107.335 90.4858 109.686C91.1356 111.667 93.0409 112.959 95.199 112.875C97.1966 112.799 98.9536 111.379 99.4991 109.397C100.129 107.115 99.1942 105.261 96.4225 103.541V103.545Z" fill="rgba(185, 9, 27, 0.3)"/>
</g>
</g>
<defs>
<clipPath id="clip0_2325_1792">
<rect width="160" height="160" fill="white"/>
</clipPath>
<clipPath id="clip1_2325_1792">
<rect width="90" height="90" fill="white" transform="translate(35 35)"/>
</clipPath>
</defs>
</svg>
