<svg width="26" height="26" fill="none" xmlns="http://www.w3.org/2000/svg">
  <g clip-path="url(#a)" fill="#dc848d">
    <path d="M23.166 26c-1.062 0-1.902-.58-2.497-1.725l-.058-.112H5.395l-.058.11C4.732 25.42 3.893 26 2.845 26c-.217 0-.448-.025-.685-.073-1.158-.24-1.885-.98-2.099-2.143-.251-1.363.309-2.41 1.664-3.113l.112-.058V5.395l-.11-.058C.285 4.567-.257 3.443.113 2 .386.938 1.139.246 2.233.054 2.439.018 2.639 0 2.829 0c1.066 0 1.907.579 2.503 1.72l.058.112H20.61l.058-.11C21.27.58 22.113.001 23.18.001c.208 0 .427.022.652.064 1.084.205 1.955 1.09 2.12 2.155.214 1.388-.332 2.405-1.671 3.108l-.11.058v15.226l.11.058c1.36.705 1.917 1.758 1.656 3.13-.22 1.157-.979 1.916-2.136 2.136-.219.041-.434.063-.636.063Zm.07-4.398a1.631 1.631 0 0 0-1.632 1.657 1.642 1.642 0 0 0 1.66 1.643h.016c.9-.008 1.628-.759 1.622-1.674a1.648 1.648 0 0 0-1.65-1.627h-.017v.001Zm-20.487 0c-.905 0-1.645.73-1.65 1.628-.005.914.721 1.665 1.622 1.673h.016a1.64 1.64 0 0 0 1.66-1.642 1.632 1.632 0 0 0-1.632-1.658H2.75ZM5.494 3.126c-.28 1.312-1.053 2.086-2.363 2.365l-.163.035v14.948l.163.035c1.31.28 2.083 1.052 2.363 2.36l.035.164h14.956l.032-.167c.123-.64.382-1.148.789-1.556.411-.412.92-.67 1.557-.792l.167-.032V5.523l-.163-.035c-1.313-.284-2.085-1.056-2.361-2.362l-.035-.164H5.529l-.035.163v.001ZM2.76 1.096c-.909 0-1.654.73-1.66 1.627a1.66 1.66 0 0 0 .474 1.189c.307.31.724.482 1.173.485.924 0 1.646-.72 1.651-1.639a1.649 1.649 0 0 0-.475-1.18 1.623 1.623 0 0 0-1.155-.482H2.76Zm20.518 0c-.933 0-1.652.694-1.671 1.616-.02.92.685 1.66 1.603 1.684h.042a1.645 1.645 0 0 0 1.207-2.774 1.617 1.617 0 0 0-1.124-.524h-.058l.001-.001Z"/>
    <path d="M11.123 18.8v-1.068h1.2l.048-.137c.045-.127.072-1.624.08-4.454.001-.434.01-4.248-.042-4.52l-.032-.168H8.085v1.255H6.99v-2.36h12.024V9.71h-1.087V8.454h-4.352v9.26h1.301V18.8h-3.754Z"/>
  </g>
  <defs>
    <clipPath id="a">
      <path fill="#fff" d="M0 0h26v26H0z"/>
    </clipPath>
  </defs>
</svg>
