<svg width="60" height="60" fill="none" xmlns="http://www.w3.org/2000/svg"><path d="M27.826 45h19.13v5h-19.13v-5ZM59.83 15.22l-7.245 22.163c-.354 1.016-.748 1.784-2.746 1.784H23.333l.834 3.333-5.091 2.203L11.356 10H1.845C.633 10 0 9.902 0 8.788V6.731C0 5.58.676 5 1.845 5H13.11c1.72 0 2.574 1.205 2.863 2.468l1.11 4.199 40.086.008c.293 0 1.724.3 2.46 1.394.286.427.556 1.074.2 2.151Z" fill="#dc848d"/><path fill-rule="evenodd" clip-rule="evenodd" d="M23.75 55.833a7.083 7.083 0 1 0 0-14.166 7.083 7.083 0 0 0 0 14.166Zm0-3.541a3.542 3.542 0 1 0 0-7.084 3.542 3.542 0 0 0 0 7.084ZM50.417 55.833a7.083 7.083 0 1 0 0-14.166 7.083 7.083 0 0 0 0 14.166Zm0-3.541a3.542 3.542 0 1 0 0-7.084 3.542 3.542 0 0 0 0 7.084Z" fill="#dc848d"/></svg>