<svg width="160" height="160" viewBox="0 0 160 160" fill="none" xmlns="http://www.w3.org/2000/svg">
<g clip-path="url(#clip0_2956_8)">
<circle cx="80.0012" cy="80" r="79.802" fill="rgba(185, 9, 27, 0.1)"/>
<path d="M125.998 115H120.449L114.899 101.169H85.2165L79.6669 115H74.1172L97.0727 58.75H103.043L125.998 115ZM113.301 96.7841L100.016 63.8943L86.8142 96.7841H113.301Z" fill="rgba(185, 9, 27, 0.3)"/>
<path d="M116.172 115H109.698L103.223 98.8643H68.5938L62.1191 115H55.6445L82.4259 49.375H89.391L116.172 115ZM101.359 93.7481L85.8594 55.3767L70.4577 93.7481H101.359Z" fill="rgba(185, 9, 27, 0.4)"/>
<path d="M105.175 115H97.7752L90.3756 96.5592H50.7991L43.3996 115H36L66.6073 40H74.5674L105.175 115ZM88.2454 90.7121L70.5313 46.8591L52.9293 90.7121H88.2454Z" fill="rgba(185, 9, 27, 0.6)"/>
</g>
<defs>
<clipPath id="clip0_2956_8">
<rect width="160" height="160" fill="white"/>
</clipPath>
</defs>
</svg>
