<svg width="72" height="72" fill="none" xmlns="http://www.w3.org/2000/svg">
  <g clip-path="url(#a)">
    <path d="M36.565 47.072c2.717-5.215 1.172-10.283-1.826-13.295-2.95-2.968-8.162-4.65-13.593-1.677-.284-1.33-.65-2.604-.816-3.904-.734-5.687.248-11.045 3.274-15.964a23.53 23.53 0 0 1 1.8-2.506c.993-1.226 1.823-1.246 2.93-.14 3.218 3.211 6.43 6.429 9.648 9.644 1.159 1.159 2.32 2.32 3.482 3.479.163.163.338.315.54.506 1.153-1.161 2.27-2.298 3.395-3.423 1.032-1.032 2.365-1.105 3.302-.194.967.943.92 2.295-.132 3.361-1.12 1.134-2.253 2.253-3.567 3.564.248.149.507.245.687.422 4.266 4.253 8.525 8.514 12.783 12.772 1.243 1.243 1.184 2.064-.205 3.17-4.563 3.628-9.788 5.293-15.585 5.183-2.059-.04-4.095-.334-6.115-.993l-.002-.005ZM18.82 49.17c4.455 4.556 11.61 4.686 16.251-.025 1.705 4.323 3.395 8.604 5.114 12.957H13.59c1.744-4.314 3.474-8.586 5.229-12.932ZM26.943 66.65c6.702 0 13.404-.005 20.107.003 1.944 0 3.237 1.78 2.613 3.552-.38 1.083-1.384 1.786-2.596 1.792-2.484.008-4.967 0-7.453 0H6.849c-1.1 0-1.957-.43-2.494-1.398-.507-.917-.467-1.853.095-2.728.566-.878 1.407-1.232 2.45-1.23 6.68.015 13.36.006 20.037.006l.006.003Z" fill="#dc848d"/>
    <path d="M26.957 35.011c3.642.009 6.559 2.973 6.542 6.652-.017 3.583-3.049 6.57-6.624 6.523-3.617-.048-6.57-3.021-6.561-6.602.008-3.642 2.978-6.581 6.643-6.573Z" fill="#dc848d"/>
    <path d="M49.902 0c8.314.076 16.108 6.402 17.894 14.583.303 1.384.433 2.819.528 4.236.085 1.257-.81 2.242-2 2.394-1.023.132-2.165-.616-2.384-1.657-.144-.68-.133-1.395-.186-2.093-.473-6.05-5.504-11.624-11.47-12.676a20.893 20.893 0 0 0-2.714-.284c-1.48-.065-2.458-.965-2.436-2.326C47.154.883 48.166-.003 49.62 0h.282Z" fill="rgba(185, 9, 27, 1)"/>
    <path d="M60.19 18.625c.026 1.482-.9 2.537-2.162 2.596-1.246.06-2.256-.942-2.315-2.295-.16-3.58-2.694-6.123-6.26-6.28-1.421-.062-2.358-1.019-2.319-2.366.037-1.237 1.033-2.123 2.391-2.126 5.336-.009 10.095 4.323 10.573 9.625.028.326.073.65.093.846Z" fill="rgba(185, 9, 27, 1)"/>
  </g>
  <defs>
    <clipPath id="a">
      <path fill="#fff" d="M0 0h72v72H0z"/>
    </clipPath>
  </defs>
</svg>
