<svg xmlns="http://www.w3.org/2000/svg" width="58" height="41" fill="none"><mask id="a" width="58" height="40" x="0" y="0" maskUnits="userSpaceOnUse" style="mask-type:luminance"><path fill="#fff" d="M57.14 0H0v40h57.14V0Z"/></mask><g mask="url(#a)"><path fill="#141414" d="M4.86 39.92V31.6h1.77v6.86H10v1.45H4.86v.01Zm6.59 0V31.6h1.77v6.86h3.38v1.45h-5.14l-.01.01Zm10.49 0-.34-.87h-.05c-.24.32-.55.58-.9.77-.38.16-.8.23-1.21.21-.26.02-.53-.02-.77-.11-.25-.09-.48-.23-.67-.41-.18-.2-.33-.44-.42-.69a1.99 1.99 0 0 1-.11-.8c-.02-.29.03-.58.16-.84.12-.26.31-.49.55-.65a4.1 4.1 0 0 1 2.14-.53l1.1-.03v-.28c.02-.13 0-.27-.04-.4a.924.924 0 0 0-.21-.34c-.1-.09-.21-.16-.34-.21a.897.897 0 0 0-.4-.03c-.62.03-1.23.19-1.79.46L18.07 34c.75-.39 1.59-.59 2.44-.57.7-.05 1.39.15 1.96.56.24.21.42.47.54.77.12.29.17.61.14.93v4.24h-1.21v-.01Zm-.51-2.95-.67.02c-.39-.01-.78.08-1.13.27-.12.08-.22.2-.29.33-.06.13-.09.28-.08.43 0 .49.28.73.84.73.18 0 .35-.02.52-.08.17-.06.32-.15.45-.27a1.191 1.191 0 0 0 .36-.92v-.52.01Zm7.17 2.95-2-6.53h-.05c.07 1.33.1 2.21.1 2.66v3.87h-1.57V31.6h2.4l1.97 6.36h.03l2.09-6.36h2.4v8.32h-1.65v-4.58c0-.24.03-.89.08-1.94h-.05l-2.14 6.52h-1.62.01Zm12.56 0-.6-1.98h-3.04l-.6 1.98h-1.9l2.94-8.36h2.16l2.95 8.36h-1.91Zm-1.02-3.46c-.56-1.79-.87-2.81-.94-3.05-.07-.24-.12-.42-.15-.56-.13.48-.48 1.69-1.08 3.6h2.17v.01Z"/><mask id="b" width="57" height="24" x="0" y="1" maskUnits="userSpaceOnUse" style="mask-type:luminance"><path fill="#fff" d="M56.95 1.1H0v23.11h56.95V1.1Z"/></mask><g mask="url(#b)"><path fill="#0081FB" d="M12.21 16.35c0 1.33.35 2.35.8 2.97.6.81 1.49 1.15 2.39 1.15 1.17 0 2.24-.24 4.3-2.63 1.65-1.92 3.6-4.6 4.91-6.29l2.22-2.86c1.54-1.98 3.32-4.19 5.37-5.68 1.67-1.22 3.47-1.9 5.28-1.9 3.04 0 5.94 1.48 8.15 4.25 2.43 3.03 3.6 6.86 3.6 10.8 0 2.35-.55 4.07-1.49 5.43-.91 1.32-2.67 2.63-5.64 2.63v-3.75c2.54 0 3.18-1.96 3.18-4.2 0-3.2-.89-6.75-2.85-9.28-1.39-1.8-3.19-2.9-5.17-2.9-2.14 0-3.87 1.36-5.81 3.77-1.03 1.28-2.09 2.85-3.28 4.61l-1.31 1.94c-2.63 3.91-3.29 4.79-4.6 6.26-2.3 2.57-4.27 3.54-6.86 3.54-3.07 0-5.01-1.11-6.21-2.79-.98-1.37-1.46-3.16-1.46-5.21l4.48.13v.01Z"/><path fill="url(#c)" d="M11.26 5.62c2.06-2.66 5.02-4.51 8.42-4.51 1.97 0 3.93.49 5.97 1.89 2.24 1.53 4.62 4.05 7.6 8.21l1.07 1.49c2.57 3.6 4.04 5.45 4.9 6.32 1.1 1.12 1.87 1.45 2.88 1.45 2.54 0 3.18-1.96 3.18-4.2l3.95-.1c0 2.35-.55 4.07-1.49 5.43-.91 1.32-2.67 2.63-5.64 2.63-1.85 0-3.48-.34-5.29-1.77-1.39-1.1-3.02-3.05-4.27-4.81l-3.72-5.21c-1.87-2.62-3.58-4.57-4.57-5.45-1.07-.95-2.44-2.1-4.63-2.1-1.77 0-3.27 1.04-4.53 2.64l-3.82-1.9-.01-.01Z"/><path fill="url(#d)" d="M19.61 4.88c-1.77 0-3.27 1.04-4.53 2.64-1.78 2.25-2.87 5.61-2.87 8.83 0 1.33.35 2.35.8 2.97l-3.82 2.11c-.98-1.37-1.46-3.16-1.46-5.21 0-3.72 1.22-7.6 3.53-10.59 2.06-2.66 5.02-4.51 8.42-4.51l-.07 3.78v-.02Z"/></g></g><path fill="#141414" d="M52.57 39.93h-6.2v-1.4c1.8-1.3 2.9-2.3 3.5-2.8.6-.6.9-1.1.9-1.6 0-.3-.1-.6-.4-.8-.3-.2-.6-.3-.9-.3-.9 0-1.6.3-2.2 1l-1-1.2c.4-.4.9-.8 1.4-1 .5-.2 1.2-.3 1.8-.3.9 0 1.7.2 2.3.7.6.5.9 1.1.9 1.9 0 .7-.3 1.3-.8 2-.5.6-1.4 1.4-2.5 2.2h3.4v1.6h-.2Z"/><defs><linearGradient id="c" x1="16.74" x2="45.28" y1="11.81" y2="13.53" gradientUnits="userSpaceOnUse"><stop stop-color="#0064E1"/><stop offset=".4" stop-color="#0064E1"/><stop offset=".83" stop-color="#0073EE"/><stop offset="1" stop-color="#0082FB"/></linearGradient><linearGradient id="d" x1="13.71" x2="13.71" y1="17.93" y2="9.09" gradientUnits="userSpaceOnUse"><stop stop-color="#0082FB"/><stop offset="1" stop-color="#0064E0"/></linearGradient></defs></svg>