<svg width="143" height="40" fill="none" xmlns="http://www.w3.org/2000/svg">
  <g clip-path="url(#a)">
    <path d="m111.793 26.002.844-2.176c1.038-2.666 2.076-5.329 3.112-7.994.734-1.886 1.466-3.774 2.192-5.663.06-.16.173-.163.297-.163h1.782c.392 0 .783.003 1.175 0 .17 0 .249.045.249.236-.006 6.209-.009 12.415-.009 18.623 0 .182 0 .365.006.547.003.109-.027.158-.149.158-.683-.006-1.363-.006-2.046 0-.115 0-.161-.04-.164-.15 0-.22-.009-.44-.009-.661 0-3.87-.012-7.745 0-11.616.003-1.126.064-2.253.1-3.379v-.179l-.051-.015c-.043.097-.092.194-.131.294a11045.332 11045.332 0 0 0-6.154 15.536c-.049.124-.109.173-.249.17-.51-.01-1.023-.016-1.533 0-.204.006-.298-.061-.371-.246-.71-1.807-1.426-3.613-2.143-5.417-1.33-3.354-2.663-6.706-3.992-10.06a.894.894 0 0 0-.161-.274c-.003.055-.015.11-.012.167.033 1.327.094 2.653.097 3.983.012 3.816 0 7.63 0 11.446 0 .398 0 .398-.392.398-.586 0-1.175-.006-1.761.003-.17.003-.212-.049-.212-.213 0-2.034-.006-4.068-.009-6.1V10.189c-.009-.134.042-.188.188-.185 1.005.006 2.007.009 3.012 0 .191 0 .273.07.34.242 1.077 2.785 2.161 5.565 3.242 8.35l2.723 6.991c.049.128.116.25.192.413l-.003.003ZM61.387 29.561h-2.371v-.507c0-5.93-.006-11.862-.01-17.791 0-.346.007-.692-.005-1.038-.007-.161.039-.225.212-.225 2.122.006 4.244-.003 6.366.01 1.65.008 3.13.5 4.366 1.623 1.057.963 1.652 2.153 1.776 3.58.155 1.785-.325 3.355-1.615 4.63-1.01.999-2.24 1.584-3.661 1.709-.81.07-1.627.06-2.441.073a99.58 99.58 0 0 1-2.332.003c-.185 0-.258.06-.258.252.003.592-.009 1.184-.009 1.776v5.629c0 .088-.012.173-.021.276h.003Zm.021-13.78h.012v3.266c0 .234.03.261.258.277.058.003.113.006.17.006 1.206 0 2.41.003 3.616 0 .295 0 .595-.012.887-.052.625-.082 1.15-.376 1.636-.768.638-.513 1.063-1.169 1.239-1.955.282-1.26-.122-2.335-1.017-3.234-.334-.334-.705-.637-1.172-.774-.477-.143-.963-.246-1.47-.246-1.28.003-2.562 0-3.843 0-.313 0-.319 0-.319.31v3.173l.003-.003ZM82.6 21.452c.053-.899.04-1.76-.482-2.514-.595-.856-1.433-1.345-2.45-1.53-1.39-.252-2.644.073-3.74.956-.255.207-.459.483-.677.735-.097.116-.17.134-.295.037-.464-.359-.938-.702-1.408-1.054-.076-.055-.146-.115-.255-.2.23-.273.434-.553.673-.796 1.194-1.205 2.666-1.767 4.342-1.87.947-.057 1.88.012 2.793.27a5.256 5.256 0 0 1 2.356 1.376c.78.792 1.211 1.758 1.366 2.841.067.453.07.917.07 1.376.006 2.738 0 5.477 0 8.215 0 .085-.009.173-.015.267h-2.265v-2.006c-.076.1-.118.151-.155.203-.947 1.287-2.213 2.019-3.807 2.198-1.184.134-2.322-.03-3.379-.58-1.46-.756-2.323-1.952-2.468-3.6-.213-2.399 1.108-3.878 2.838-4.582 1.406-.574 2.873-.686 4.37-.477.889.125 1.754.344 2.592.741l-.003-.006Zm-3.536 1.133c-.358.024-.72.027-1.075.072-.759.1-1.451.35-2.013.908-1.041 1.035-1.108 3.042.586 3.91 1.06.544 2.159.529 3.243.11 1.041-.4 1.788-1.163 2.331-2.116a3.634 3.634 0 0 0 .471-1.788.27.27 0 0 0-.115-.2c-1.05-.648-2.21-.89-3.431-.896h.003ZM133.957 27.284h.298c2.708 0 5.419-.003 8.127-.006.274 0 .267 0 .264.28-.006.567-.009 1.132-.012 1.7v.294h-11.816c-.003-.067-.012-.137-.012-.21-.003-.667 0-1.335-.009-2 0-.155.073-.255.176-.358 1.673-1.682 3.355-3.352 5.006-5.052 1.048-1.081 2.107-2.156 3.027-3.352.498-.65.85-1.357.963-2.183.197-1.451-.589-2.848-1.959-3.373-1.156-.443-2.304-.419-3.385.228-.75.446-1.254 1.12-1.545 1.943-.1.28-.094.276-.364.167-.577-.234-1.157-.47-1.737-.698-.137-.055-.17-.128-.118-.259.677-1.745 1.858-3.005 3.646-3.612 1.582-.538 3.179-.492 4.709.194 1.615.723 2.662 1.955 3.087 3.686.167.683.143 1.375.043 2.064-.207 1.397-.841 2.614-1.737 3.674-.819.968-1.73 1.867-2.62 2.775-1.284 1.311-2.583 2.605-3.877 3.907-.048.052-.088.11-.152.191h-.003ZM99.275 27.277v2.277H88.367v-.233l-.01-13.353c0-1.918 0-3.84-.005-5.759 0-.149.03-.21.197-.207.662.01 1.327.01 1.988 0 .173 0 .231.052.228.225-.009.574 0 1.145 0 1.719v15.146c0 .17.076.18.207.18 2.595 0 5.191 0 7.784.002h.522l-.003.003Z" fill="#282828"/>
    <path d="M25.495 17.443a3.304 3.304 0 0 0-6.608 0v19.253a3.304 3.304 0 1 0 6.608 0V17.443Z" fill="#EDAD3C"/>
    <path d="M22.256 17.435a278.138 278.138 0 0 0-4.764 4.663c-1.913 1.918-3.898 3.763-5.765 5.724-2.552 2.686-3.239 3.646-3.971 3.443-1.175-.331-1.313-3.326-1.123-5.116.073-.692.48-4.517 3.586-7.227 3.144-2.743 7.87-3.313 12.04-1.487h-.003Z" fill="#479CAB"/>
    <path d="M22.202 17.435a278.511 278.511 0 0 1 4.764 4.663c1.912 1.918 3.898 3.763 5.764 5.724 2.553 2.686 3.24 3.646 3.972 3.443 1.174-.331 1.313-3.326 1.123-5.116-.074-.692-.48-4.517-3.587-7.227-3.144-2.743-7.87-3.313-12.039-1.487h.003Z" fill="#74B67B"/>
    <path d="M22.156 17.506c3.093-.065 5.627-.068 7.379-.06 2.998.014 5.998-.095 8.996-.008 4.101.117 5.387.345 5.805-.41.665-1.207-1.565-3.735-3.112-5.026-.596-.5-3.903-3.258-8.455-2.952-4.61.31-8.763 3.64-10.61 8.456h-.003Z" fill="#A365F0"/>
    <path d="M22.351 17.462a288.184 288.184 0 0 1 5.16-5.276c2.124-2.116 4.161-4.321 6.334-6.386 2.976-2.827 4.042-3.578 3.801-4.405C37.258.073 33.891-.127 31.89.06c-.774.073-5.063.472-8.055 3.917-3.03 3.486-3.594 8.781-1.48 13.488l-.004-.003Z" fill="#F092C9"/>
    <path d="M22.101 17.462a288.517 288.517 0 0 0-5.16-5.276C14.817 10.07 12.78 7.865 10.607 5.8c-2.976-2.827-4.042-3.578-3.8-4.405C7.193.073 10.56-.127 12.565.06c.773.073 5.062.472 8.054 3.917 3.03 3.486 3.594 8.781 1.481 13.488v-.003Z" fill="#EB8237"/>
    <path d="M22.3 17.506a285.214 285.214 0 0 0-7.379-.06c-2.997.014-5.998-.095-8.995-.008-4.102.117-5.388.345-5.805-.41-.665-1.207 1.565-3.735 3.111-5.026.597-.5 3.904-3.258 8.456-2.952 4.609.31 8.762 3.64 10.61 8.456h.002Z" fill="#5285ED"/>
  </g>
  <defs>
    <clipPath id="a">
      <path fill="#fff" d="M0 0h143v40H0z"/>
    </clipPath>
  </defs>
</svg>
