<svg width="127" height="40" fill="none" xmlns="http://www.w3.org/2000/svg">
  <path d="m28.505 11.929 1.447.032 3.912-3.912.197-1.644C30.905 3.677 26.861 2 22.391 2 14.303 2 7.497 7.49 5.491 14.92c.428-.296 1.348-.066 1.348-.066l7.792-1.282s.394-.657.591-.624c3.452-3.814 9.271-4.241 13.282-1.02Z" fill="#EA4335"/>
  <path d="M39.322 14.953a17.446 17.446 0 0 0-5.293-8.515l-5.523 5.49a9.681 9.681 0 0 1 3.616 7.562v.986a4.855 4.855 0 0 1 4.866 4.866 4.855 4.855 0 0 1-4.866 4.866h-9.698l-.986.986v5.852l.986.953h9.731c6.97-.033 12.624-5.687 12.657-12.657a12.731 12.731 0 0 0-5.49-10.389Z" fill="#4285F4"/>
  <path d="M12.656 37.999h9.731v-7.792h-9.73c-.691 0-1.382-.164-2.006-.427l-1.414.427-3.912 3.913-.329 1.315c2.203 1.676 4.899 2.597 7.66 2.564Z" fill="#34A853"/>
  <path d="M12.657 12.685C5.655 12.718 0 18.372 0 25.342c0 3.945 1.841 7.693 5.03 10.093l5.655-5.655a4.877 4.877 0 0 1-2.86-4.438 4.855 4.855 0 0 1 4.865-4.866 4.877 4.877 0 0 1 4.438 2.86l5.655-5.654c-2.367-3.025-6.016-4.964-10.126-4.997Z" fill="#FBBC05"/>
  <path d="M58.744 26h-2.556V13.994h8.496v2.25h-5.94v2.538h5.814v2.25h-5.814V26Zm15.36 0H66.47V13.994h2.556v9.756h5.076V26Zm12.985 0h-2.916l-.738-2.034h-5.148L77.531 26h-2.916l4.644-12.006h3.204L87.09 26Zm-4.356-4.284-1.872-5.166-1.872 5.166h3.744ZM98.943 26h-2.465l-5.724-7.83V26h-2.556V13.994h2.628l5.562 7.542v-7.542h2.556V26Zm6.04-3.384h-4.32v-1.944h4.32v1.944ZM112.054 26h-2.574v-9.756h-3.51v-2.25h9.576v2.25h-3.492V26Zm9.45.216c-1.98 0-3.522-.6-4.626-1.8l1.422-1.782c.84.876 1.902 1.314 3.186 1.314.684 0 1.224-.168 1.62-.504.408-.348.612-.774.612-1.278 0-.54-.192-.972-.576-1.296-.384-.324-.912-.486-1.584-.486-.996 0-1.836.324-2.52.972l-1.782-.468v-6.894h8.244v2.25h-5.688v2.934c.672-.672 1.554-1.008 2.646-1.008 1.068 0 1.974.354 2.718 1.062.756.708 1.134 1.65 1.134 2.826 0 1.272-.438 2.286-1.314 3.042-.876.744-2.04 1.116-3.492 1.116Z" fill="#000"/>
</svg>
