<svg width="72" height="72" fill="none" xmlns="http://www.w3.org/2000/svg">
  <path d="M60 32c0 16.569-13.431 30-30 30C13.431 62 0 48.569 0 32 0 15.431 13.431 2 30 2c16.569 0 30 13.431 30 30Z" fill="#dc848d"/>
  <path d="M32.27 53.445v-3.887c5.258-.832 8.48-4.996 8.73-9.993 0-10.827-14.647-9.855-14.647-15.546 0-2.498 2.003-4.164 4.632-4.164 3.005 0 5.508 1.804 6.385 2.637.125.278.5.139.626-.139l2.002-4.164c.126-.139 0-.416-.125-.555-.75-.694-3.475-2.788-7.606-3.204v-3.875c0-.277-.25-.555-.501-.555h-2.512c-.25 0-.5.278-.5.555v4.025c-4.758.833-8.285 4.72-8.285 9.717 0 10.27 14.647 9.716 14.647 15.545 0 2.776-2.128 4.164-4.506 4.164-3.506 0-6.385-2.36-7.386-3.33-.126-.14-.501-.14-.626.138L20.094 44.7c-.125.278-.125.555 0 .694.876.833 4.024 3.61 8.656 4.164v3.887c0 .277.25.555.5.555h2.52c.25 0 .5-.278.5-.555Z" fill="#fff"/>
  <circle cx="58" cy="56" r="14" fill="rgba(185, 9, 27, 1)"/>
  <path fill-rule="evenodd" clip-rule="evenodd" d="M60 54.59v9.978l-4 .022v-10h-3.247l5.206-7.09 5.201 7.09H60Z" fill="#fff"/>
</svg>
