<svg width="160" height="160" viewBox="0 0 160 160" fill="none" xmlns="http://www.w3.org/2000/svg">
<g clip-path="url(#clip0_2325_1825)">
<circle cx="80.0002" cy="80" r="79.802" fill="rgba(185, 9, 27, 0.1)"/>
<path fill-rule="evenodd" clip-rule="evenodd" d="M117.499 48.04C117.499 55.2416 100.71 61.08 79.9992 61.08C59.2886 61.08 42.501 55.2416 42.501 48.04C42.501 40.8385 59.2886 35 79.9992 35C100.71 35 117.499 40.8385 117.499 48.04Z" fill="rgba(185, 9, 27, 0.3)"/>
<path fill-rule="evenodd" clip-rule="evenodd" d="M80 67.8523C59.9459 67.8523 43.6175 62.3743 42.5987 55.4893H42.5V68.0334C42.5 75.2368 59.2894 81.0734 80 81.0734C100.711 81.0734 117.5 75.2368 117.5 68.0334V55.4893H117.401C116.382 62.3743 100.054 67.8523 80 67.8523Z" fill="rgba(185, 9, 27, 0.3)"/>
<path fill-rule="evenodd" clip-rule="evenodd" d="M80 87.9917C59.9459 87.9917 43.6175 82.5137 42.5987 75.6287H42.5V88.1728C42.5 95.3762 59.2894 101.213 80 101.213C100.711 101.213 117.5 95.3762 117.5 88.1728V75.6287H117.401C116.382 82.5137 100.054 87.9917 80 87.9917Z" fill="rgba(185, 9, 27, 0.3)"/>
<path fill-rule="evenodd" clip-rule="evenodd" d="M80 106.779C59.9459 106.779 43.6175 101.301 42.5987 94.4158H42.5V106.96C42.5 114.163 59.2894 120 80 120C100.711 120 117.5 114.163 117.5 106.96V100.625C117.308 101.92 116.875 99.9999 115.278 98.1249C110.107 103.168 96.2815 106.779 80 106.779Z" fill="rgba(185, 9, 27, 0.3)"/>
<circle cx="102.5" cy="102.5" r="8.5" fill="#DFEFFA"/>
<path d="M123.164 113.129L124.922 108.292C125.087 107.798 124.991 107.262 124.633 106.891L120.471 102.343L124.208 97.4515C124.524 97.0394 124.578 96.5033 124.372 96.0364L122.188 91.3646C121.969 90.8977 121.515 90.5953 120.993 90.5678L114.839 90.3068L114.029 84.2062C113.96 83.6978 113.616 83.2582 113.136 83.0934L108.286 81.3346C107.806 81.156 107.27 81.266 106.885 81.6095L102.352 85.7863L97.448 82.0354C97.0359 81.7194 96.5002 81.6644 96.0332 81.8842L91.3626 84.0688C90.8956 84.2887 90.5933 84.7421 90.5796 85.2504L90.3185 91.4196L84.2057 92.2304C83.6974 92.299 83.2716 92.6425 83.093 93.1234L81.3346 97.9736C81.156 98.4546 81.2659 98.9903 81.6094 99.3613L85.7854 103.909L82.0352 108.801C81.733 109.213 81.6643 109.763 81.8841 110.216L84.0683 114.887C84.2881 115.355 84.7414 115.657 85.2634 115.684L91.4176 115.945L92.228 122.06C92.2967 122.568 92.6401 122.994 93.1209 123.173L97.97 124.917C98.1212 124.972 98.286 125 98.4371 125C98.7805 125 99.1102 124.876 99.3712 124.643L103.904 120.466L108.809 124.217C109.207 124.533 109.756 124.588 110.223 124.368L114.894 122.183C115.347 121.977 115.663 121.51 115.677 121.002L115.938 114.846L122.051 114.022C122.559 113.967 122.985 113.61 123.164 113.129ZM106.789 110.958C105.635 111.494 104.399 111.768 103.135 111.768C99.7971 111.768 96.72 109.817 95.3051 106.795C94.3298 104.706 94.2199 102.357 95.0029 100.186C95.7997 98.0149 97.3794 96.2836 99.4674 95.3081C100.621 94.7585 101.858 94.4836 103.121 94.4836C106.459 94.4836 109.537 96.4485 110.951 99.4714C112.971 103.786 111.103 108.938 106.789 110.958Z" fill="#dc848d"/>
</g>
<defs>
<clipPath id="clip0_2325_1825">
<rect width="160" height="160" fill="white"/>
</clipPath>
</defs>
</svg>
