<svg width="130" height="130" fill="none" xmlns="http://www.w3.org/2000/svg"><g clip-path="url(#clip0)" stroke="#dc848d"><path d="M42.125 99.18h-.002a1.837 1.837 0 00-.97 1.656l.084 5.883c.01.683.41 1.325 1.019 1.627l.002.001 5.714 2.872.375.188-.12.402-1.833 6.117v.002c-.196.678-.013 1.389.482 1.853v-.001l.007.008 4.208 4.111s0 0 0 0a1.848 1.848 0 001.87.435h0l6.09-2.01.398-.131.199.369 3.035 5.629.001.002c.322.602.953.981 1.656.971l5.883-.085a1.863 1.863 0 001.627-1.019l.001-.001 2.871-5.715.188-.375.402.12 6.145 1.834h0c.65.194 1.362.015 1.827-.483h0l.007-.006 4.111-4.232h0l.007-.007c.481-.477.643-1.194.428-1.866v-.002l-2.009-6.061-.132-.399.37-.199 5.629-3.035.002-.001c.6-.32.98-.973.97-1.656l-.085-5.883a1.837 1.837 0 00-1.018-1.627h-.002l-5.714-2.872-.375-.188.12-.402 1.833-6.145h0a1.85 1.85 0 00-.489-1.856s0 0 0 0l-4.23-4.088h0l-.008-.007a1.797 1.797 0 00-1.84-.43h0l-6.09 2.01-.398.132-.2-.369-3.034-5.63-.001-.001c-.32-.6-.974-.981-1.656-.971l-5.883.085a1.838 1.838 0 00-1.627 1.018l-.001.002-2.871 5.715-.189.374-.401-.12-6.145-1.833h0a1.85 1.85 0 00-1.857.49l-.359-.349.359.348-4.089 4.209a1.85 1.85 0 00-.435 1.87h0l2.01 6.09.131.397-.369.2-5.629 3.035zm35.937 4.054c.089 6.158-4.844 11.236-11.003 11.325-6.136.088-11.213-4.845-11.302-11.003-.088-6.136 4.845-11.213 10.98-11.302 6.158-.089 11.236 4.843 11.325 10.98zM11.327 67.537l-.001.001c-.232.401-.225.9.034 1.303l2.375 3.7c.25.391.712.618 1.17.574h.002l4.76-.432.418-.038.11.405 1.25 4.605v.002c.132.464.494.807.94.895h0l.011.002 4.293.95s0 0 0 0c.47.102.942-.068 1.235-.42h0l3.072-3.678.27-.322.363.208 4.147 2.376.002.001c.401.232.9.225 1.303-.034l3.7-2.375c.391-.25.618-.712.574-1.17v-.002l-.432-4.76-.038-.418.404-.11 4.624-1.261h0c.445-.121.79-.48.88-.93h0l.001-.01.94-4.308h0l.002-.009a1.238 1.238 0 00-.422-1.227l-.002-.002L43.646 58l-.322-.269.209-.364 2.375-4.148.001-.001c.23-.399.217-.913-.034-1.303l-2.375-3.7a1.247 1.247 0 00-1.17-.574h-.002l-4.76.432-.418.038-.11-.404-1.26-4.624h-.001a1.256 1.256 0 00-.948-.896s0 0 0 0l-4.298-.925h0l-.01-.002a1.217 1.217 0 00-1.212.411h0l-3.073 3.68-.268.32-.364-.207-4.148-2.376-.001-.001a1.267 1.267 0 00-1.303.034l-3.7 2.375c-.404.258-.618.709-.574 1.17v.002l.432 4.76.038.418-.404.11-4.624 1.261h0c-.442.12-.793.479-.896.949l-.447-.098.447.098-.935 4.284c-.102.47.068.942.42 1.235h0l3.678 3.073.322.268-.208.364-2.376 4.148zm24.408-11.738c2.524 3.933 1.379 9.18-2.554 11.705-3.92 2.515-9.166 1.37-11.69-2.563-2.515-3.918-1.37-9.166 2.548-11.68 3.933-2.524 9.18-1.38 11.696 2.538zM58.175 30.352h-.002a2.793 2.793 0 00-1.51 2.496l.007 8.288a2.83 2.83 0 001.514 2.493l.002.001 7.994 4.154.372.193-.126.4-2.699 8.583v.002c-.31 1.02-.05 2.108.697 2.826h0l.007.008 5.849 5.871s0 0 0 0a2.81 2.81 0 002.831.7h0l8.616-2.715.4-.125.194.371 4.167 7.987v.002a2.793 2.793 0 002.496 1.51l8.288-.006a2.83 2.83 0 002.493-1.515l.001-.002 4.154-7.994.193-.372.4.126 8.62 2.7h.001c.982.308 2.07.052 2.791-.698h0l.006-.006 5.873-5.882h0l.006-.007c.747-.72 1.005-1.807.693-2.827l-.001-.002-2.713-8.578-.127-.4.372-.194 7.988-4.168h.002a2.83 2.83 0 001.509-2.496l-.006-8.288a2.794 2.794 0 00-1.514-2.493h-.002l-7.994-4.155-.372-.193.125-.4 2.7-8.62h0a2.81 2.81 0 00-.703-2.83h-.001l-5.881-5.839h0l-.008-.008a2.735 2.735 0 00-2.792-.693h0l-8.616 2.715-.399.126-.194-.372-4.167-7.987-.001-.002a2.83 2.83 0 00-2.496-1.51l-8.288.007c-1.067 0-2.018.59-2.493 1.514v.002l-4.154 7.994-.194.372-.4-.125-8.62-2.7h0a2.81 2.81 0 00-2.83.704l-.355-.354.354.354-5.84 5.848a2.81 2.81 0 00-.699 2.832h0l2.715 8.616.126.4-.372.194-7.987 4.167zm50.43 6.58c.007 8.565-6.947 15.53-15.51 15.537-8.532.007-15.497-6.947-15.504-15.51-.007-8.531 6.947-15.497 15.478-15.504 8.563-.007 15.529 6.946 15.536 15.478z"/></g><defs><clipPath id="clip0"><path fill="#fff" d="M0 0h130v130H0z"/></clipPath></defs></svg>