<svg width="160" height="160" viewBox="0 0 160 160" fill="none" xmlns="http://www.w3.org/2000/svg">
<g clip-path="url(#clip0_2325_1812)">
<circle cx="80.0002" cy="80" r="79.802" fill="rgba(185, 9, 27, 0.1)"/>
<g clip-path="url(#clip1_2325_1812)">
<path d="M81.3129 96.0149C76.1006 96.0149 70.8849 96.0641 65.6726 96.0009C59.283 95.9236 53.895 91.597 52.3275 85.4007C50.3311 77.5067 55.6875 69.4335 63.7325 68.2456C64.3125 68.1612 64.4777 67.9503 64.5725 67.3915C65.5777 61.4974 70.5229 57.1322 76.4837 56.837C82.2583 56.5523 87.5901 60.4606 89.119 66.1368C89.256 66.6394 89.4845 66.8397 89.966 66.9557C93.4842 67.7887 95.8566 69.9432 97.1324 73.3032C97.3152 73.7847 97.5155 73.9815 98.0427 74.0272C103.765 74.5298 108.274 79.605 108.081 85.2917C107.88 91.1998 103.188 95.8673 97.3081 96.0149C97.1605 96.0185 97.0164 96.0255 96.8688 96.0255C91.6847 96.0255 86.5005 96.0255 81.3164 96.0255V96.0149H81.3129Z" fill="#dc848d"/>
<path d="M114.692 60.4008C116.097 59.6029 117.567 58.7664 119.036 57.9335C126.909 70.5792 128.353 91.9554 114.822 108.443C100.25 126.195 77.2147 128.501 61.5112 120.895C62.4286 119.461 63.3529 118.017 64.2316 116.649C82.5641 123.039 98.366 119.489 111.247 104.506C121.422 90.5636 122.283 75.9004 114.692 60.4008Z" fill="#dc848d"/>
<path d="M95.9163 38.0088C95.0868 39.5201 94.2749 40.9998 93.449 42.504C77.0285 37.58 62.2388 40.571 50.5736 53.526C38.9295 66.4565 37.5061 81.4465 44.1804 97.5085C43.5267 97.8319 42.757 98.2185 41.9838 98.5981C41.2246 98.9706 40.4619 99.3397 39.7027 99.7087C33.1936 87.7342 32.09 67.4827 45.1962 51.5191C58.819 34.9264 80.2409 31.6894 95.9163 38.0088Z" fill="#dc848d"/>
<path d="M113.426 46.4054C113.374 50.644 109.901 54.0392 105.687 53.9689C101.519 53.9021 98.106 50.4191 98.1411 46.2683C98.1798 42.0015 101.656 38.6239 105.951 38.6836C110.137 38.7399 113.476 42.1913 113.423 46.4054H113.426Z" fill="rgba(185, 9, 27, 0.3)"/>
<path d="M44.6094 111.827C44.6762 107.592 48.1662 104.19 52.3592 104.274C56.5522 104.359 59.9263 107.821 59.8771 111.982C59.8279 116.27 56.3765 119.619 52.071 119.552C47.8921 119.489 44.5426 116.02 44.6094 111.824V111.827Z" fill="rgba(185, 9, 27, 0.3)"/>
</g>
</g>
<defs>
<clipPath id="clip0_2325_1812">
<rect width="160" height="160" fill="white"/>
</clipPath>
<clipPath id="clip1_2325_1812">
<rect width="90" height="90" fill="white" transform="translate(35 35)"/>
</clipPath>
</defs>
</svg>
