<svg width="26" height="26" fill="none" xmlns="http://www.w3.org/2000/svg">
  <path d="M20.802 26a.634.634 0 0 1-.362-.13l-2.447-1.674a333.938 333.938 0 0 1-2.4-1.651.493.493 0 0 0-.297-.095.79.79 0 0 0-.127.011c-.659.1-1.313.15-1.943.15-2.726 0-5.205-.944-7.366-2.81-1.97-1.699-3.196-3.82-3.643-6.305-.746-4.14.436-7.699 3.515-10.578C7.409 1.348 9.396.405 11.635.116A13.813 13.813 0 0 1 13.398 0c3.51 0 6.48 1.465 8.827 4.355C23.566 6.006 24.358 8 24.582 10.28c.024.237.017.478.01.71a10.38 10.38 0 0 0-.005.32c.003 3.023-1.048 5.659-3.121 7.835a.458.458 0 0 0-.141.35c.004 1.492.003 2.984.003 4.476v1.431c.009.242-.083.418-.273.526a.51.51 0 0 1-.253.07V26Zm-5.354-4.66c.198 0 .375.059.557.185 1.106.764 2.233 1.535 3.325 2.28l.79.542c.042.029.085.055.133.085v-1.42c.001-1.2.002-2.44-.006-3.66-.003-.34.105-.605.348-.86C23.14 15.826 24.05 12.67 23.3 9.11c-.984-4.664-5.177-8.049-9.967-8.049-.525 0-1.06.04-1.585.122-2.504.382-4.593 1.55-6.208 3.472-2.274 2.704-2.995 5.795-2.143 9.188a10.187 10.187 0 0 0 9.905 7.701c.64 0 1.287-.06 1.921-.18.08-.015.154-.022.225-.022v-.001Z" fill="#dc848d"/>
  <path d="M11.23 11.949H7.442c-.106 0-.24 0-.366-.023a.502.502 0 0 1-.435-.546.505.505 0 0 1 .46-.494c.076-.01.152-.01.218-.01h11.99c.07 0 .153 0 .236.016.26.046.416.217.433.48.02.277-.138.492-.399.548-.132.027-.268.03-.396.03H11.23v-.001ZM9.593 8.954c-.06 0-.128-.001-.195-.013-.288-.05-.492-.28-.48-.55.01-.294.237-.504.55-.51.144-.003.288-.003.432-.003h7.178c.046 0 .09 0 .136.005.27.026.47.223.483.48.014.271-.119.47-.361.541-.141.042-.289.048-.4.048l-4.212.002h-3.13ZM13.198 14.938h-1.894c-.604 0-1.209 0-1.812-.002-.33 0-.567-.214-.575-.517-.007-.29.223-.522.547-.553a.954.954 0 0 1 .078-.003H12.245c1.565 0 3.13 0 4.695.002.123 0 .269.006.4.047a.489.489 0 0 1 .354.55.496.496 0 0 1-.455.467c-.07.007-.139.01-.22.01h-3.821Z" fill="#dc848d"/>
</svg>
