<?xml version="1.0" encoding="iso-8859-1"?>
<!-- Uploaded to: SVG Repo, www.svgrepo.com, Generator: SVG Repo Mixer Tools -->
<svg fill="#000000" height="800px" width="800px" version="1.1" id="Layer_1" xmlns="http://www.w3.org/2000/svg" xmlns:xlink="http://www.w3.org/1999/xlink" 
	 viewBox="0 0 512 512" xml:space="preserve">
<g>
	<g>
		<path d="M477.867,102.4c-18.825,0-34.133,15.309-34.133,34.133c0,6.315,1.835,12.151,4.838,17.229l-90.01,90.01
			c-5.077-3.004-10.914-4.838-17.229-4.838c-6.289,0-12.117,1.826-17.186,4.813l-38.827-38.827
			c2.987-5.069,4.813-10.897,4.813-17.186c0-18.825-15.309-34.133-34.133-34.133c-18.825,0-34.133,15.309-34.133,34.133
			c0,4.028,0.828,7.834,2.116,11.418L56.32,366.814c-5.982-5.171-13.679-8.414-22.187-8.414V59.733c0-14.114,11.486-25.6,25.6-25.6
			h392.533c14.114,0,25.6,11.486,25.6,25.6V76.8c0,4.71,3.823,8.533,8.533,8.533s8.533-3.823,8.533-8.533V59.733
			c0-23.526-19.14-42.667-42.667-42.667H59.733c-23.526,0-42.667,19.14-42.667,42.667v303.42C6.912,369.075,0,379.955,0,392.533
			c0,18.825,15.309,34.133,34.133,34.133c18.825,0,34.133-15.309,34.133-34.133c0-4.028-0.828-7.834-2.116-11.418l167.663-167.663
			c5.982,5.171,13.679,8.414,22.187,8.414c6.332,0,12.186-1.843,17.271-4.855l38.784,38.784c-3.012,5.086-4.855,10.94-4.855,17.271
			c0,18.825,15.309,34.133,34.133,34.133c18.825,0,34.133-15.309,34.133-34.133c0-6.315-1.835-12.151-4.838-17.229l90.01-90.01
			c5.077,3.004,10.914,4.838,17.229,4.838v281.6c0,14.114-11.486,25.6-25.6,25.6h-25.6v-230.4c0-4.71-3.823-8.533-8.533-8.533
			s-8.533,3.823-8.533,8.533v230.4h-51.2V332.8c0-4.71-3.823-8.533-8.533-8.533s-8.533,3.823-8.533,8.533v145.067h-51.2V264.533
			c0-4.71-3.823-8.533-8.533-8.533s-8.533,3.823-8.533,8.533v213.333h-51.2V264.533c0-4.71-3.823-8.533-8.533-8.533
			c-4.71,0-8.533,3.823-8.533,8.533v213.333h-51.2V332.8c0-4.71-3.823-8.533-8.533-8.533c-4.71,0-8.533,3.823-8.533,8.533v145.067
			h-51.2v-34.133c0-4.71-3.823-8.533-8.533-8.533s-8.533,3.823-8.533,8.533v34.133h-8.533c-14.114,0-25.6-11.486-25.6-25.6
			c0-4.71-3.823-8.533-8.533-8.533c-4.71,0-8.533,3.823-8.533,8.533c0,23.526,19.14,42.667,42.667,42.667h392.533
			c23.526,0,42.667-19.14,42.667-42.667V165.914c10.155-5.922,17.067-16.802,17.067-29.38C512,117.709,496.691,102.4,477.867,102.4z
			 M34.133,409.6c-9.412,0-17.067-7.654-17.067-17.067c0-9.412,7.654-17.067,17.067-17.067c9.412,0,17.067,7.654,17.067,17.067
			C51.2,401.946,43.546,409.6,34.133,409.6z M256,204.8c-9.412,0-17.067-7.654-17.067-17.067c0-9.412,7.654-17.067,17.067-17.067
			c9.412,0,17.067,7.654,17.067,17.067C273.067,197.146,265.412,204.8,256,204.8z M341.333,290.133
			c-9.412,0-17.067-7.654-17.067-17.067c0-9.412,7.654-17.067,17.067-17.067c9.412,0,17.067,7.654,17.067,17.067
			C358.4,282.479,350.746,290.133,341.333,290.133z M477.867,153.6c-4.651,0-8.875-1.886-11.955-4.915
			c-0.034-0.034-0.043-0.085-0.077-0.12c-0.034-0.034-0.085-0.043-0.12-0.077c-3.029-3.081-4.915-7.305-4.915-11.955
			c0-9.412,7.654-17.067,17.067-17.067s17.067,7.654,17.067,17.067S487.279,153.6,477.867,153.6z"/>
	</g>
</g>
</svg>