<svg width="72" height="72" viewBox="0 0 72 72" fill="none" xmlns="http://www.w3.org/2000/svg">
<path fill-rule="evenodd" clip-rule="evenodd" d="M28.5315 13.1034L43.1934 13.1034C44.0092 13.1117 44.4963 12.1822 44.0179 11.5305L37.1424 2.20208C36.5613 1.4137 35.3719 1.42142 34.7683 2.21594L27.7854 11.5407C27.2966 12.184 27.7311 13.0948 28.5315 13.1034Z" fill="#dc848d"/>
<path fill-rule="evenodd" clip-rule="evenodd" d="M18.1034 36.3111L18.1034 21.6492C18.1117 20.8335 17.1822 20.3463 16.5305 20.8248L7.20208 27.7002C6.4137 28.2814 6.42142 29.4708 7.21594 30.0744L16.5407 37.0572C17.184 37.546 18.0948 37.1116 18.1034 36.3111Z" fill="#dc848d"/>
<rect x="32" y="13" width="8" height="30" fill="#dc848d"/>
<path d="M36 45.5C36 39 30 29.5 18 29.5" stroke="white" stroke-width="15"/>
<path d="M36 45.5C36 39 30 29.5 18 29.5" stroke="#dc848d" stroke-width="8"/>
<path fill-rule="evenodd" clip-rule="evenodd" d="M53.8966 36.3111L53.8966 21.6492C53.8883 20.8335 54.8178 20.3463 55.4695 20.8248L64.7979 27.7002C65.5863 28.2814 65.5786 29.4708 64.7841 30.0744L55.4593 37.0572C54.816 37.546 53.9052 37.1116 53.8966 36.3111Z" fill="#dc848d"/>
<path d="M36 45.5C36 39 42 29.5 54 29.5" stroke="white" stroke-width="15"/>
<path d="M36 45.5C36 39 42 29.5 54 29.5" stroke="#dc848d" stroke-width="8"/>
<circle cx="36" cy="57" r="10" stroke="#dc848d" stroke-width="8"/>
</svg>