<svg width="472" height="233" viewBox="0 0 472 233" fill="none" xmlns="http://www.w3.org/2000/svg">
<g clip-path="url(#clip0_81_1927)">
<path d="M153.336 163.169L153.258 163.106L146.157 157.484L126.262 150.329L121.513 152.163L120.919 152.392L120.837 151.761L120.483 149.022L110.827 154.339L110.576 154.477L110.33 154.33L101.54 149.092L101.277 148.935L101.297 148.629L101.546 144.918L96.6759 144.634L96.205 144.606V144.135V140.158C95.9147 140.415 95.5448 140.661 95.0748 140.878C93.5129 141.598 90.8618 141.99 86.3507 141.481C86.3507 141.481 86.3506 141.481 86.3506 141.481L86.4066 140.985C75.215 139.725 85.96 127.123 88.1979 125.543C89.4582 124.653 92.1389 124.464 94.4805 124.299C96.2967 124.171 97.9089 124.057 98.4963 123.642C99.8409 122.692 104.317 126.172 104.317 126.172L104.623 125.778L104.723 125.855L104.773 125.969L106.901 130.757L108.295 130.952V123.958V123.592L108.644 123.482L117.258 120.756C117.296 119.162 117.449 117.572 117.714 116L117.715 115.995C117.791 115.566 118.035 115.136 118.341 114.732C118.654 114.321 119.064 113.894 119.527 113.47C120.455 112.62 121.638 111.738 122.792 110.945C123.95 110.15 125.091 109.436 125.943 108.921C126.369 108.663 126.723 108.455 126.971 108.311C127.094 108.239 127.192 108.183 127.259 108.145L127.335 108.101L127.355 108.09L127.36 108.087L127.361 108.086L127.362 108.086C127.362 108.086 127.362 108.086 127.607 108.521L127.362 108.086L127.439 108.042L127.526 108.028L140.229 105.941L138.04 102.347L133.773 101.442L133.179 101.316L133.417 100.757L134.759 97.6043L134.895 97.2844L135.242 97.3007L148.674 97.9326L149.201 97.9574L149.148 98.4824L148.745 102.464L153.731 103.717L151.769 97.3621L144.521 83.5457L141.859 86.4856L141.697 86.6643L141.456 86.649L136.532 86.3354L135.984 86.3005L136.07 85.7585L136.899 80.5071C136.691 80.4406 136.411 80.3516 136.074 80.2471C135.316 80.0119 134.273 79.6985 133.133 79.3853C130.828 78.7519 128.207 78.1429 126.714 78.1429C125.975 78.1429 125.767 78.3138 125.702 78.4039C125.617 78.5208 125.583 78.7397 125.639 79.1962C125.654 79.3137 125.676 79.4517 125.7 79.6015C125.753 79.9367 125.816 80.3308 125.827 80.6856C125.843 81.2366 125.752 81.8529 125.303 82.3787C125.099 82.6191 125.006 83.0218 125.064 83.605C125.12 84.1757 125.313 84.8269 125.557 85.4578C125.799 86.0841 126.084 86.6665 126.309 87.0942C126.421 87.3074 126.518 87.4807 126.586 87.6001C126.62 87.6597 126.647 87.7058 126.666 87.7366L126.686 87.771L126.691 87.7792L126.692 87.7809L126.692 87.7811L153.336 163.169ZM153.336 163.169L153.433 163.196L177.332 169.924L171.527 177.208L171.44 177.317L171.422 177.455L170.156 187.246M153.336 163.169L170.156 187.246M95.8396 147.118C95.7473 146.825 95.5535 146.581 95.3275 146.379C95.0995 146.174 94.8131 145.99 94.4914 145.821C93.8484 145.484 93.0037 145.179 92.046 144.902C90.1264 144.346 87.6672 143.88 85.2543 143.505C82.8377 143.129 80.451 142.842 78.6697 142.65C77.7787 142.554 77.0384 142.481 76.5206 142.432C76.2617 142.408 76.0583 142.389 75.9195 142.377L75.899 142.375L59.9113 125.188L58.7168 123.904L59.0546 125.625L60.3832 132.393C60.2541 132.206 60.1175 132.008 59.9743 131.801C58.8969 130.245 57.4413 128.156 55.9291 126.027C54.4175 123.899 52.847 121.728 51.5404 120.008C50.8874 119.149 50.2971 118.398 49.8113 117.82C49.3414 117.261 48.9286 116.814 48.6405 116.612C48.6408 116.612 48.6407 116.612 48.6404 116.612C48.637 116.609 48.5975 116.573 48.5501 116.447C48.5006 116.315 48.4581 116.126 48.4296 115.872C48.3729 115.367 48.3804 114.684 48.4422 113.869C48.5654 112.243 48.8971 110.178 49.2883 108.135C49.6789 106.096 50.1258 104.095 50.4754 102.602C50.6501 101.856 50.8004 101.238 50.9069 100.806C50.9232 100.74 50.9385 100.679 50.9526 100.622C50.9581 100.623 50.9637 100.624 50.9693 100.626C51.2798 100.702 51.7033 100.795 52.1455 100.857C52.5811 100.918 53.0658 100.955 53.4874 100.902C53.8759 100.854 54.3969 100.706 54.626 100.221C54.6866 100.092 54.6843 99.9698 54.6811 99.9135C54.6771 99.8445 54.6644 99.7777 54.6508 99.7205C54.6234 99.605 54.578 99.4712 54.5232 99.3286C54.4123 99.0403 54.2405 98.659 54.0214 98.2049C53.5815 97.2939 52.9317 96.0512 52.1436 94.5945C50.5665 91.6793 48.4233 87.8839 46.2681 84.1215C44.1125 80.3584 41.9431 76.6251 40.3127 73.8328C39.4975 72.4367 38.8169 71.2756 38.3402 70.4636C38.1018 70.0575 37.9144 69.7388 37.7865 69.5215L37.6405 69.2734L37.603 69.2098L37.5935 69.1937L37.5911 69.1896L37.5905 69.1886C37.5904 69.1883 37.5903 69.1882 37.1596 69.4421L37.5903 69.1882L37.3998 68.8651L37.0363 68.9576L2.50712 77.7433L13.2706 70.1646L13.7374 69.8358L13.35 69.4164L8.02524 63.6527L21.6734 58.269L21.9257 58.1695L21.9798 57.9037L22.4288 55.6991L22.5619 55.0458L21.8975 55.101L15.0848 55.6673L16.4483 52.0641L23.6459 53.2584L24.1947 53.3495L24.2269 52.7941L24.6443 45.6063L28.7491 44.7352L28.787 44.7272L28.8233 44.7134L39.391 40.6889L57.894 48.4408L61.3974 52.7549L61.5692 52.9665L61.8401 52.9367L76.013 51.3784L86.6271 56.9727L95.1294 61.6975L95.2039 61.7389L95.2879 61.7533L95.3723 61.2604C95.2879 61.7533 95.288 61.7533 95.2881 61.7533L95.2887 61.7534L95.2911 61.7538L95.3002 61.7554L95.3361 61.7615L95.4754 61.785C95.5973 61.8056 95.776 61.8355 96.0034 61.8732C96.4584 61.9484 97.1085 62.0545 97.89 62.1778C99.4526 62.4244 101.542 62.7403 103.647 63.0168C105.749 63.2929 107.877 63.5312 109.512 63.6208C110.327 63.6655 111.039 63.6744 111.571 63.6281C111.834 63.6052 112.079 63.5668 112.28 63.5001C112.444 63.4455 112.746 63.3185 112.858 63.0024C112.952 62.7369 113.29 62.0897 113.78 61.2191C114.26 60.3675 114.859 59.3474 115.446 58.3639C116.032 57.3809 116.605 56.437 117.031 55.7387C117.065 55.6833 117.098 55.6296 117.13 55.5774L119.962 66.1154L120.126 66.7266L120.683 66.4253L126.072 63.5083L127.362 65.7759L104.101 77.5124L103.826 77.6511V77.9588V84.575V84.8688L104.083 85.0117L114.59 90.8658L115.023 97.5238L115.064 98.1468L115.663 97.9711L121.034 96.3961L121.426 96.2812L121.392 95.8745L120.973 90.8777L126.464 88.4999L126.991 88.2717L126.692 87.7812L95.3628 147.268M95.8396 147.118L95.3628 147.268M95.8396 147.118C95.8396 147.118 95.8395 147.117 95.8395 147.117L95.3628 147.268M95.8396 147.118C95.9034 147.32 96.0929 147.604 96.4553 147.965C96.8082 148.316 97.2853 148.699 97.8594 149.104C99.0069 149.913 100.497 150.775 102.044 151.595C105.135 153.233 108.404 154.674 109.499 155.148L110.05 155.386L109.716 155.885C108.075 158.338 105.581 163.116 106.459 168.443C107.329 173.723 111.55 179.735 123.756 184.6L124.071 184.726V185.064V225.772M95.3628 147.268C96.1215 149.67 105.871 154.104 108.835 155.404C108.852 155.378 108.868 155.353 108.885 155.329L109.301 155.607L109.102 156.066C109.077 156.055 109.051 156.043 109.023 156.031C105.619 161.37 99.6417 175.528 123.571 185.064V226.047M124.071 225.772L123.84 225.625L123.571 226.047M124.071 225.772L132.669 231.244M124.071 225.772V226.047H123.571M123.571 226.047L132.532 231.75L132.669 231.244M170.156 187.246C170.048 187.211 169.929 187.174 169.799 187.136C169.232 186.968 168.463 186.772 167.672 186.668C166.893 186.565 166.036 186.544 165.323 186.769C164.96 186.885 164.615 187.069 164.342 187.357C164.064 187.648 163.883 188.021 163.812 188.47C163.797 188.568 163.742 188.729 163.619 188.959C163.5 189.183 163.331 189.448 163.113 189.749C162.678 190.351 162.068 191.071 161.33 191.867C159.855 193.456 157.895 195.313 155.861 197.077C153.827 198.841 151.729 200.5 149.98 201.697C149.104 202.295 148.327 202.771 147.695 203.084C147.378 203.241 147.109 203.353 146.888 203.42C146.66 203.49 146.522 203.5 146.454 203.492C145.582 203.39 144.635 203.871 143.785 204.485C142.908 205.119 142.016 205.983 141.223 206.84C140.428 207.7 139.72 208.568 139.211 209.219C138.956 209.546 138.751 209.819 138.609 210.01C138.538 210.106 138.483 210.182 138.445 210.234L138.402 210.294L138.391 210.31L138.388 210.314L138.387 210.315L138.387 210.315C138.387 210.315 138.387 210.315 138.794 210.605M170.156 187.246L138.794 210.605M138.794 210.605L138.387 210.315L138.335 210.388L138.312 210.474L132.669 231.244M138.794 210.605L133.111 231.526L132.669 231.244M59.5453 125.529L60.0359 125.432L60.1911 126.223L59.5453 125.529ZM59.5453 125.529L59.1792 125.869L59.7279 126.459L59.5453 125.529ZM61.3389 134.665L61.0957 133.427L60.625 133.625C61.0763 134.281 61.3389 134.665 61.3389 134.665ZM50.5915 100.007C50.5915 100.007 50.547 100.181 50.4695 100.492L51.0744 100.137C50.7814 100.064 50.5915 100.007 50.5915 100.007Z" fill="#abbbe3" stroke="#fff"/>
<path d="M96.7074 137.813V138.288C96.7287 138.131 96.7287 137.971 96.7074 137.813V137.813Z" fill="#fff"/>
<path d="M149.537 71.4994C149.202 71.1281 149.202 71.1282 149.202 71.1282L149.202 71.1285L149.201 71.1294L149.197 71.1329L149.181 71.1469L149.121 71.2012L148.893 71.4075C148.697 71.5854 148.417 71.8399 148.081 72.1468C147.408 72.7605 146.511 73.5842 145.614 74.423C144.718 75.2609 143.817 76.1174 143.14 76.7956C142.802 77.1338 142.513 77.4335 142.307 77.6671C142.26 77.7211 142.215 77.7735 142.173 77.8235C142.173 77.8232 142.172 77.823 142.172 77.8227C141.899 77.6653 141.499 77.41 141.008 77.0824C140.028 76.4295 138.718 75.5124 137.403 74.5774C136.09 73.6431 134.776 72.6938 133.79 71.9779C133.538 71.7948 133.308 71.6269 133.104 71.4785C136.114 70.9012 137.968 69.9741 138.952 68.5291C140.056 66.9076 139.953 64.7872 139.507 62.2708C138.999 59.3992 136.32 58.4013 134.05 58.0815C132.889 57.9179 131.764 57.9184 130.934 57.9586C130.517 57.9787 130.172 58.009 129.93 58.0344C129.809 58.0472 129.713 58.0587 129.647 58.0671C129.645 58.0674 129.643 58.0676 129.641 58.0679L123.553 56.5944L131.847 49.906C131.888 49.8981 131.94 49.8886 132.001 49.8779C132.176 49.8473 132.425 49.8074 132.72 49.7704C133.313 49.6959 134.075 49.6357 134.786 49.6819C135.521 49.7298 136.092 49.8858 136.403 50.1511C136.543 50.2708 136.63 50.4124 136.663 50.5971C136.698 50.7917 136.679 51.0726 136.532 51.4701C136.343 51.9801 136.281 52.4484 136.364 52.8709C136.45 53.303 136.679 53.6399 136.983 53.8922C137.56 54.3696 138.42 54.5517 139.183 54.6411C139.684 54.6999 140.228 54.7246 140.687 54.7454C140.923 54.7562 141.137 54.7659 141.31 54.7787C141.445 54.7887 141.552 54.8001 141.634 54.812C141.641 54.8857 141.657 54.9529 141.675 55.0096C141.722 55.1628 141.804 55.3117 141.893 55.4473C142.073 55.7206 142.342 56.0286 142.654 56.3464C143.282 56.987 144.153 57.7396 145.024 58.4517C145.898 59.1663 146.785 59.8501 147.453 60.3545C147.759 60.586 148.02 60.78 148.212 60.9224L146.641 63.6834L146.465 63.9934L146.7 64.2611L152.835 71.2292L149.572 71.0007L149.36 70.9858L149.202 71.1281L149.537 71.4994ZM141.837 54.8579C141.837 54.858 141.835 54.857 141.831 54.8549C141.835 54.8568 141.837 54.8578 141.837 54.8579ZM142.452 77.9673C142.453 77.9677 142.451 77.9672 142.445 77.9651C142.449 77.9662 142.451 77.9671 142.452 77.9673Z" fill="#abbbe3" stroke="#fff"/>
<path d="M87.9816 47.0803L88.1056 46.5959L87.9718 46.5617L87.8395 46.6009L84.9506 47.4574L89.1056 41.481C89.2411 41.5037 89.4172 41.5341 89.6256 41.5718C90.1384 41.6645 90.8447 41.801 91.6195 41.9763C93.1895 42.3315 94.9701 42.8309 96.0179 43.4205C96.1617 43.5014 96.2276 43.5615 96.256 43.593C96.2524 43.5986 96.248 43.605 96.2427 43.6125C96.1826 43.6958 96.0629 43.8069 95.8689 43.947C95.6804 44.0833 95.4584 44.2215 95.2173 44.3715L95.2087 44.3768C94.977 44.5208 94.7272 44.6761 94.5078 44.8346C94.2912 44.9911 94.065 45.1779 93.9084 45.3947C93.7454 45.6205 93.6164 45.943 93.7425 46.306C93.8558 46.6324 94.1362 46.8652 94.4522 47.0432C95.7147 47.7543 97.2612 47.6561 98.4579 47.5802L98.4768 47.579L98.4983 47.5776C99.1201 47.5382 99.6384 47.5053 100.058 47.5494C100.483 47.5942 100.681 47.7065 100.78 47.8465C101.286 48.5619 102.199 49.2842 103.079 49.6887C103.52 49.8912 103.996 50.0348 104.439 50.0308C104.899 50.0267 105.368 49.8574 105.652 49.3948C105.812 49.1346 105.97 48.8205 106.12 48.5223C106.143 48.4779 106.165 48.4338 106.187 48.3904C106.363 48.0411 106.532 47.7199 106.706 47.4657C106.889 47.198 107.028 47.0837 107.112 47.0502C107.142 47.0386 107.161 47.0379 107.183 47.0429C107.211 47.0491 107.273 47.0713 107.368 47.1514C107.367 47.1511 107.367 47.151 107.367 47.151C107.367 47.1511 107.389 47.1727 107.422 47.2421C107.456 47.3146 107.492 47.4177 107.525 47.556C107.592 47.8334 107.637 48.2038 107.663 48.648C107.714 49.5338 107.68 50.6428 107.611 51.7391C107.541 52.8319 107.437 53.8974 107.35 54.6907C107.309 55.0639 107.272 55.3762 107.245 55.6021L91.835 56.9522L88.4025 50.8338C88.4292 50.8128 88.4571 50.7908 88.4861 50.7678C88.7407 50.5663 89.0814 50.2917 89.4232 50.0011C89.763 49.7123 90.1128 49.4001 90.3811 49.1248C90.5141 48.9883 90.6381 48.8498 90.732 48.7203C90.7789 48.6557 90.8261 48.5828 90.8633 48.5053C90.8971 48.4349 90.9428 48.3202 90.9428 48.1826C90.9428 47.9087 90.7729 47.7219 90.6772 47.633C90.5658 47.5296 90.4283 47.443 90.2972 47.3717C90.031 47.2269 89.6934 47.0934 89.3782 46.9825C89.0582 46.8699 88.7406 46.7735 88.5045 46.7056C88.386 46.6715 88.2871 46.6443 88.2175 46.6255C88.1827 46.6161 88.1551 46.6088 88.1361 46.6038L88.114 46.5981L88.108 46.5965L88.1063 46.5961L88.1058 46.596L88.1057 46.5959C88.1056 46.5959 88.1056 46.5959 87.9816 47.0803ZM96.2715 43.5642C96.2716 43.5642 96.2713 43.5652 96.2704 43.5673C96.2709 43.5653 96.2714 43.5643 96.2715 43.5642Z" fill="#abbbe3" stroke="#fff"/>
<path d="M122.473 73.9716L120.133 73.2032L122.636 71.223L124.823 73.4214L122.473 73.9716Z" fill="#abbbe3" stroke="#fff"/>
<path d="M115.818 47.0565L118.123 47.7041L116.416 50.7738L116.05 51.4325L116.799 51.5139L116.862 51.5207L112.992 52.4578L112.527 50.0632L114.424 49.9407L114.747 49.9198L114.86 49.6169L115.818 47.0565Z" fill="#abbbe3" stroke="#fff"/>
<path d="M122.307 48.0938L124.873 48.423L121.607 49.6544L122.307 48.0938Z" fill="#abbbe3" stroke="#fff"/>
<path d="M113.652 40.7249L102.962 42.7495L100.215 39.1418L106.599 37.0356L112.267 37.9224L113.652 40.7249Z" fill="#abbbe3" stroke="#fff"/>
<path d="M134.574 45.3157L134.714 45.5191L134.96 45.5318L140.211 45.8042L139.636 46.8548L132.748 45.9755L128.49 41.9278L127.868 39.7372L131.325 40.5882L134.574 45.3157Z" fill="#abbbe3" stroke="#fff"/>
<path d="M171.466 26.9484C171.853 27.3538 172.131 27.7074 172.316 27.965L159.944 33.968H153.119H151.961L152.755 34.8109L154.132 36.2713L143.193 43.2297L136.38 41.2319L151.382 31.2616L151.889 30.9245L151.459 30.4926L151.459 30.4925L151.458 30.4917L151.455 30.4886L151.443 30.4757L151.392 30.4242C151.347 30.3787 151.282 30.3117 151.199 30.226C151.034 30.0545 150.799 29.8083 150.524 29.5109C149.972 28.915 149.261 28.1176 148.615 27.3041C147.961 26.4814 147.4 25.6758 147.123 25.0574C146.981 24.7393 146.945 24.5387 146.955 24.4375C146.956 24.4225 146.958 24.4131 146.96 24.4077C146.966 24.4038 146.979 24.3974 147.001 24.3903L147.002 24.3902C157.138 21.2202 163.553 22.2946 167.408 24.0944C169.34 24.9966 170.646 26.089 171.466 26.9484ZM146.962 24.4019C146.962 24.4019 146.962 24.4024 146.961 24.4033L146.962 24.4019ZM146.956 24.4103C146.955 24.4112 146.954 24.4116 146.954 24.4115C146.954 24.4115 146.955 24.4111 146.956 24.4103Z" fill="#abbbe3" stroke="#fff"/>
<path d="M143.682 33.145L135.584 35.2281L136.349 29.7148C136.367 29.7012 136.386 29.6866 136.407 29.671C136.55 29.5637 136.756 29.4097 137.01 29.2238C137.518 28.8517 138.212 28.3531 138.961 27.8453C139.712 27.3367 140.511 26.8232 141.228 26.4192C141.965 26.0043 142.556 25.7409 142.91 25.6789C142.912 25.6785 142.914 25.6783 142.915 25.6782C142.915 25.6782 142.915 25.6782 142.915 25.6782C142.922 25.6815 142.952 25.699 142.999 25.76C143.099 25.8898 143.207 26.128 143.306 26.4906C143.501 27.2049 143.611 28.2144 143.667 29.2702C143.722 30.3177 143.722 31.3782 143.708 32.1792C143.701 32.5782 143.69 32.9115 143.682 33.145Z" fill="#abbbe3" stroke="#fff"/>
<path d="M157.172 45.7576L156.774 38.7375L163.653 38.4432L163.785 38.4376L163.896 38.3677L177.634 29.7895L186.871 30.5643L187.028 30.5775L187.165 30.4979L186.913 30.066L187.165 30.4979L187.165 30.4977L187.166 30.4971L187.171 30.4944L187.19 30.4834L187.266 30.4396C187.333 30.401 187.432 30.3443 187.561 30.2721C187.817 30.1276 188.188 29.9211 188.647 29.6742C189.565 29.18 190.829 28.525 192.217 27.8805C193.606 27.2352 195.111 26.6044 196.51 26.1554C197.924 25.7019 199.176 25.4523 200.082 25.5234C200.992 25.5948 202.266 26.0421 203.702 26.7358C205.125 27.4227 206.658 28.3261 208.072 29.2624C209.486 30.199 210.769 31.1609 211.694 31.9609C212.157 32.3621 212.52 32.7135 212.763 32.9942C212.885 33.1352 212.967 33.2473 213.015 33.3302C213.039 33.3703 213.049 33.3947 213.054 33.4055C213.068 33.8185 213.371 34.0736 213.612 34.2121C213.874 34.3618 214.211 34.4663 214.565 34.5442C215.28 34.702 216.21 34.7827 217.112 34.823C217.774 34.8525 218.434 34.8608 219.006 34.8594L212.6 39.1067L212.428 39.2206L212.386 39.4224L210.392 49.0924L210.391 49.0938C210.354 49.1485 210.301 49.2286 210.234 49.331C210.1 49.5358 209.91 49.8301 209.685 50.1894C209.237 50.9071 208.65 51.8882 208.097 52.9364C207.546 53.9808 207.019 55.1097 206.702 56.1195C206.544 56.6242 206.432 57.1164 206.402 57.5641C206.388 57.7656 206.39 57.9682 206.416 58.1645C206.073 57.9392 205.656 57.6383 205.211 57.3005C204.505 56.7647 203.762 56.1638 203.193 55.6955C202.91 55.4616 202.67 55.2615 202.502 55.1199C202.418 55.0491 202.351 54.993 202.306 54.9546L202.255 54.9108L202.241 54.8997L202.238 54.8969L202.237 54.8962L202.237 54.8961L201.913 55.2763L202.237 54.8961L201.488 54.2563L201.414 55.2387L201.176 58.3912L201.159 58.6258L201.328 58.789L204.962 62.2872L203.326 62.7676L199.268 60.0606L198.762 59.723L198.529 60.285L196.961 64.0646L196.708 64.6731L197.362 64.7526L201.777 65.2889L182.478 72.2934L182.35 72.3399L182.263 72.445L172.921 83.7578C172.87 83.7236 172.813 83.6859 172.752 83.6449C172.41 83.415 171.926 83.081 171.359 82.6658C170.222 81.8341 168.759 80.6829 167.439 79.396C166.11 78.1007 164.965 76.7055 164.417 75.3897C164.145 74.7372 164.031 74.1294 164.092 73.5762C164.153 73.0322 164.387 72.5067 164.872 72.0111L164.874 72.0094C165.236 71.6367 166.191 70.6071 167.05 69.6773C167.481 69.2109 167.89 68.7676 168.19 68.4408L168.55 68.0498L168.65 67.9418L168.676 67.9135L168.682 67.9062L168.684 67.9044L168.684 67.9039L168.684 67.9038L168.316 67.5655L168.685 67.9038L168.84 67.7342L168.813 67.5057L166.572 48.9163L166.533 48.5922L166.221 48.4976L157.172 45.7576Z" fill="#abbbe3" stroke="#fff"/>
<mask id="path-13-inside-1_81_1927" fill="white">
<path d="M217.48 117.107C217.48 116.632 219.83 110.491 219.83 110.491H229.399L229.232 105.645L225.37 103.637L229.734 102.924L238.129 98.7884L239.317 96.1871H243.356L243.189 91.4619L245.035 90.1625L246.883 94.8876H251.92C251.92 94.8876 258.467 94.5336 258.809 93.6998C259.151 92.866 265.162 86.7368 265.162 86.7368C265.162 86.7368 263.482 78.5836 258.272 79.1751C253.062 79.7667 254.234 82.6008 254.234 82.6008C254.234 82.6008 257.084 87.326 254.402 90.3977C251.72 93.4694 250.205 92.4075 250.205 92.4075C250.205 92.4075 246.342 89.6897 246.342 87.2096C246.342 84.7294 244.496 85.1998 244.496 85.1998C244.496 85.1998 241.978 88.6254 241.474 88.6254C240.97 88.6254 237.611 88.7442 238.45 84.2543C239.289 79.7643 248.359 77.2841 250.205 70.9032C252.05 64.5222 259.101 63.1063 263.133 63.6955C267.164 64.2846 284.454 68.423 283.782 70.314C283.11 72.205 280.594 73.0294 280.594 73.0294C280.594 73.0294 274.044 71.0219 273.206 71.604C272.367 72.186 277.907 76.5643 277.907 76.5643L297.886 67.5868L307.792 67.468L309.807 64.1587H316.354L310.983 59.3148L315.684 55.1788L319.21 58.0153L325.253 54.4685L337.172 60.1415L325.6 51.4134L329.798 50.7007L330.805 45.2653L340.379 41.3621L342.729 34.392L349.445 37.2261L352.97 36.0383L358.51 38.9936L356.329 46.7904C356.329 46.7904 367.072 42.892 376.981 43.9539C386.889 45.0158 388.061 46.6716 388.061 46.6716L398.806 40.7634L442.123 41.001L440.612 38.1645H470.329L471.84 43.9753C471.84 43.9753 464.951 44.2129 464.454 45.2748C463.957 46.3367 466.466 46.9377 465.628 48.584C464.789 50.2304 461.589 50.829 461.589 50.829C461.589 50.829 469.144 54.1383 471.158 55.2002C473.173 56.2621 467.298 58.1555 465.953 60.1629C464.608 62.1703 464.283 63.1111 464.955 64.4058C465.628 65.7005 464.787 62.8688 462.104 64.0494C459.422 65.2301 460.427 69.1309 460.596 74.3288C460.765 79.5267 458.398 86.4992 458.398 86.4992L451.01 76.9302L453.697 62.396C453.697 62.396 442.952 60.859 443.287 64.5222C443.622 68.1854 443.624 70.668 443.624 70.668C443.624 70.668 432.711 68.423 430.865 71.1431C429.019 73.8632 420.288 81.7788 423.142 83.5511C425.995 85.3233 433.549 84.0262 434.725 86.7416C435.901 89.4569 434.725 104.937 432.711 105.174C430.696 105.412 425.166 110.493 425.166 110.493C423.486 109.902 430.033 115.456 429.026 117.817C428.019 120.179 426.339 121.243 425.501 118.768C424.662 116.292 421.462 110.852 419.799 111.206L411.404 112.978L415.77 115.815L415.435 118.768L417.775 122.542L415.597 131.874C415.597 131.874 406.529 137.901 399.141 136.958C391.752 136.015 398.806 141.564 398.806 141.564C398.806 141.564 404.507 142.99 404.011 146.289C403.514 149.589 399.813 150.663 396.96 149.955C394.107 149.247 390.244 145.344 390.244 147.104C390.244 148.865 390.244 152.658 392.928 154.431C395.613 156.203 399.982 160.693 397.295 160.458C394.608 160.222 387.726 154.918 387.892 153.853C388.058 152.789 386.046 149.245 386.718 148.299C387.391 147.354 375.636 138.611 373.788 137.312C371.939 136.012 358.859 144.163 358.859 144.163C358.859 144.163 359.866 148.299 357.852 149.717C355.837 151.136 351.136 151.618 351.302 150.071C351.469 148.525 342.909 137.428 342.909 137.428L333.663 132.703L324.094 132.349L309.653 127.505C309.653 127.505 303.951 126.792 307.472 130.102C310.992 133.411 312.677 134.725 312.677 134.725L318.048 133.423L324.26 136.259C324.26 136.259 314.689 146.301 303.946 147.012L286.82 130.686C286.82 130.686 284.806 128.676 283.461 130.924C282.117 133.171 303.105 151.129 303.105 151.129L313.012 149.356C313.012 149.356 308.477 160.227 293.871 167.905L295.213 179.249L287.155 184.803L286.148 188.702L281.112 191.301L280.104 195.437C280.104 195.437 272.547 200.634 271.552 200.988C270.557 201.342 260.807 202.288 260.807 202.288C260.807 202.288 254.761 191.063 254.932 187.991C255.103 184.92 249.231 179.84 249.231 179.84C249.231 179.84 251.245 177.123 252.252 176.885C253.26 176.648 245.874 157.272 245.874 157.272L237.794 154.918L221.676 156.452L206.566 145.227C206.566 145.227 206.901 136.601 208.581 135.421C210.261 134.24 216.136 128.332 217.815 127.976C219.495 127.619 223.517 122.07 223.517 122.07C223.517 122.07 228.888 119.706 231.071 119.825C233.254 119.943 246.183 119.706 246.183 119.706L248.197 122.778L261.629 127.03L264.147 124.077L284.126 125.614L285.806 120.06L275.565 119.347C275.565 119.347 271.029 117.102 271.367 115.803C271.704 114.503 275.9 113.32 276.907 113.204C277.914 113.087 293.025 113.204 293.025 113.204L290.008 108.83L287.158 104.813L281.114 105.526L283.799 108.006L280.271 108.355L279.266 105.994H276.415C276.415 105.994 272.217 110.13 272.217 110.838C272.217 111.546 273.728 112.738 273.728 112.738L271.882 113.688L269.195 113.572L268.692 111.672C268.692 111.672 263.147 115.454 265.497 116.869C267.846 118.285 264.993 118.406 264.993 118.406C264.993 118.406 263.147 119.119 261.802 113.679C260.458 108.239 253.576 107.536 253.576 107.536C253.576 107.536 249.212 107.182 249.715 109.308C250.219 111.434 258.607 114.389 258.607 114.389L256.258 116.634L253.74 114.734C253.74 114.734 245.681 110.598 245.187 109.417C244.693 108.236 240.315 110.968 239.305 110.731C238.296 110.493 233.934 113.213 234.1 113.802C234.266 114.392 231.249 118.292 231.249 118.292L224.873 120.06L223.531 118.288L219.492 119L217.48 117.107Z"/>
</mask>
<path d="M217.48 117.107C217.48 116.632 219.83 110.491 219.83 110.491H229.399L229.232 105.645L225.37 103.637L229.734 102.924L238.129 98.7884L239.317 96.1871H243.356L243.189 91.4619L245.035 90.1625L246.883 94.8876H251.92C251.92 94.8876 258.467 94.5336 258.809 93.6998C259.151 92.866 265.162 86.7368 265.162 86.7368C265.162 86.7368 263.482 78.5836 258.272 79.1751C253.062 79.7667 254.234 82.6008 254.234 82.6008C254.234 82.6008 257.084 87.326 254.402 90.3977C251.72 93.4694 250.205 92.4075 250.205 92.4075C250.205 92.4075 246.342 89.6897 246.342 87.2096C246.342 84.7294 244.496 85.1998 244.496 85.1998C244.496 85.1998 241.978 88.6254 241.474 88.6254C240.97 88.6254 237.611 88.7442 238.45 84.2543C239.289 79.7643 248.359 77.2841 250.205 70.9032C252.05 64.5222 259.101 63.1063 263.133 63.6955C267.164 64.2846 284.454 68.423 283.782 70.314C283.11 72.205 280.594 73.0294 280.594 73.0294C280.594 73.0294 274.044 71.0219 273.206 71.604C272.367 72.186 277.907 76.5643 277.907 76.5643L297.886 67.5868L307.792 67.468L309.807 64.1587H316.354L310.983 59.3148L315.684 55.1788L319.21 58.0153L325.253 54.4685L337.172 60.1415L325.6 51.4134L329.798 50.7007L330.805 45.2653L340.379 41.3621L342.729 34.392L349.445 37.2261L352.97 36.0383L358.51 38.9936L356.329 46.7904C356.329 46.7904 367.072 42.892 376.981 43.9539C386.889 45.0158 388.061 46.6716 388.061 46.6716L398.806 40.7634L442.123 41.001L440.612 38.1645H470.329L471.84 43.9753C471.84 43.9753 464.951 44.2129 464.454 45.2748C463.957 46.3367 466.466 46.9377 465.628 48.584C464.789 50.2304 461.589 50.829 461.589 50.829C461.589 50.829 469.144 54.1383 471.158 55.2002C473.173 56.2621 467.298 58.1555 465.953 60.1629C464.608 62.1703 464.283 63.1111 464.955 64.4058C465.628 65.7005 464.787 62.8688 462.104 64.0494C459.422 65.2301 460.427 69.1309 460.596 74.3288C460.765 79.5267 458.398 86.4992 458.398 86.4992L451.01 76.9302L453.697 62.396C453.697 62.396 442.952 60.859 443.287 64.5222C443.622 68.1854 443.624 70.668 443.624 70.668C443.624 70.668 432.711 68.423 430.865 71.1431C429.019 73.8632 420.288 81.7788 423.142 83.5511C425.995 85.3233 433.549 84.0262 434.725 86.7416C435.901 89.4569 434.725 104.937 432.711 105.174C430.696 105.412 425.166 110.493 425.166 110.493C423.486 109.902 430.033 115.456 429.026 117.817C428.019 120.179 426.339 121.243 425.501 118.768C424.662 116.292 421.462 110.852 419.799 111.206L411.404 112.978L415.77 115.815L415.435 118.768L417.775 122.542L415.597 131.874C415.597 131.874 406.529 137.901 399.141 136.958C391.752 136.015 398.806 141.564 398.806 141.564C398.806 141.564 404.507 142.99 404.011 146.289C403.514 149.589 399.813 150.663 396.96 149.955C394.107 149.247 390.244 145.344 390.244 147.104C390.244 148.865 390.244 152.658 392.928 154.431C395.613 156.203 399.982 160.693 397.295 160.458C394.608 160.222 387.726 154.918 387.892 153.853C388.058 152.789 386.046 149.245 386.718 148.299C387.391 147.354 375.636 138.611 373.788 137.312C371.939 136.012 358.859 144.163 358.859 144.163C358.859 144.163 359.866 148.299 357.852 149.717C355.837 151.136 351.136 151.618 351.302 150.071C351.469 148.525 342.909 137.428 342.909 137.428L333.663 132.703L324.094 132.349L309.653 127.505C309.653 127.505 303.951 126.792 307.472 130.102C310.992 133.411 312.677 134.725 312.677 134.725L318.048 133.423L324.26 136.259C324.26 136.259 314.689 146.301 303.946 147.012L286.82 130.686C286.82 130.686 284.806 128.676 283.461 130.924C282.117 133.171 303.105 151.129 303.105 151.129L313.012 149.356C313.012 149.356 308.477 160.227 293.871 167.905L295.213 179.249L287.155 184.803L286.148 188.702L281.112 191.301L280.104 195.437C280.104 195.437 272.547 200.634 271.552 200.988C270.557 201.342 260.807 202.288 260.807 202.288C260.807 202.288 254.761 191.063 254.932 187.991C255.103 184.92 249.231 179.84 249.231 179.84C249.231 179.84 251.245 177.123 252.252 176.885C253.26 176.648 245.874 157.272 245.874 157.272L237.794 154.918L221.676 156.452L206.566 145.227C206.566 145.227 206.901 136.601 208.581 135.421C210.261 134.24 216.136 128.332 217.815 127.976C219.495 127.619 223.517 122.07 223.517 122.07C223.517 122.07 228.888 119.706 231.071 119.825C233.254 119.943 246.183 119.706 246.183 119.706L248.197 122.778L261.629 127.03L264.147 124.077L284.126 125.614L285.806 120.06L275.565 119.347C275.565 119.347 271.029 117.102 271.367 115.803C271.704 114.503 275.9 113.32 276.907 113.204C277.914 113.087 293.025 113.204 293.025 113.204L290.008 108.83L287.158 104.813L281.114 105.526L283.799 108.006L280.271 108.355L279.266 105.994H276.415C276.415 105.994 272.217 110.13 272.217 110.838C272.217 111.546 273.728 112.738 273.728 112.738L271.882 113.688L269.195 113.572L268.692 111.672C268.692 111.672 263.147 115.454 265.497 116.869C267.846 118.285 264.993 118.406 264.993 118.406C264.993 118.406 263.147 119.119 261.802 113.679C260.458 108.239 253.576 107.536 253.576 107.536C253.576 107.536 249.212 107.182 249.715 109.308C250.219 111.434 258.607 114.389 258.607 114.389L256.258 116.634L253.74 114.734C253.74 114.734 245.681 110.598 245.187 109.417C244.693 108.236 240.315 110.968 239.305 110.731C238.296 110.493 233.934 113.213 234.1 113.802C234.266 114.392 231.249 118.292 231.249 118.292L224.873 120.06L223.531 118.288L219.492 119L217.48 117.107Z" fill="#abbbe3" stroke="#fff" stroke-width="2" mask="url(#path-13-inside-1_81_1927)"/>
<path d="M226.106 97.1777L226.582 97.331L226.598 97.2819L226.603 97.2306L226.938 94.0805L226.97 93.7816L226.721 93.6133L224.301 91.9784L222.814 90.4666L226.167 88.8697L227.967 89.2568L227.328 90.661L227.242 90.8495L227.315 91.0434L227.876 92.5401L227.922 92.6647L228.025 92.7497L228.344 92.3647L228.025 92.7497L228.025 92.7498L228.026 92.7502L228.028 92.7519L228.036 92.7586L228.067 92.7849L228.188 92.8854C228.293 92.9721 228.442 93.0965 228.623 93.2471C228.984 93.5482 229.469 93.9536 229.965 94.3711C230.461 94.7888 230.965 95.2176 231.367 95.5657C231.568 95.7399 231.741 95.8924 231.874 96.0125C231.94 96.0726 231.994 96.1231 232.036 96.1632C232.057 96.1832 232.074 96.1996 232.086 96.2126L232.101 96.228L232.105 96.2325L232.107 96.2338L232.107 96.2341C232.107 96.2344 232.107 96.234 232.107 96.2342C232.107 96.2339 232.11 96.2374 232.116 96.246C232.122 96.2544 232.13 96.2658 232.14 96.2807C232.16 96.3108 232.184 96.35 232.212 96.3988C232.269 96.4967 232.336 96.6217 232.41 96.7672C232.558 97.0576 232.726 97.4128 232.886 97.7603C233.032 98.0776 233.169 98.3851 233.275 98.6256C233.023 98.7227 232.684 98.8519 232.286 99C231.404 99.328 230.236 99.747 229.084 100.114C227.925 100.483 226.81 100.791 226.024 100.907C225.758 100.947 225.559 100.959 225.422 100.955C225.533 100.601 225.762 99.8847 225.991 99.1715C226.141 98.704 226.288 98.2438 226.399 97.9005L226.532 97.487L226.569 97.3717L226.579 97.3413L226.581 97.3336L226.582 97.3316L226.582 97.3311L226.582 97.331L226.106 97.1777ZM225.232 100.929C225.232 100.929 225.233 100.93 225.235 100.931C225.233 100.93 225.232 100.929 225.232 100.929Z" fill="#abbbe3" stroke="#fff"/>
<path d="M219.759 97.625C219.335 97.5942 219.089 97.5078 218.963 97.4199C218.954 97.3357 218.942 97.223 218.931 97.0904C218.906 96.7886 218.882 96.3908 218.889 95.9953C218.896 95.5909 218.934 95.227 219.012 94.9746C219.055 94.8349 219.093 94.779 219.112 94.7592C219.699 94.7072 220.34 94.4648 220.805 94.2566C221.048 94.1481 221.257 94.0425 221.406 93.9638C221.443 93.9443 221.477 93.9263 221.506 93.9104L222.67 94.019L223.379 97.1332C223.302 97.1528 223.216 97.1739 223.124 97.1961C222.689 97.3012 222.103 97.4283 221.492 97.5191C220.877 97.6106 220.261 97.6616 219.759 97.625ZM219.124 94.7498C219.124 94.7503 219.121 94.7525 219.116 94.7549C219.121 94.7504 219.123 94.7492 219.124 94.7498Z" fill="#abbbe3" stroke="#fff"/>
<path d="M302.387 188.956C302.314 189.005 302.245 189.051 302.18 189.095L301.402 181.157C301.611 181.073 301.904 180.955 302.255 180.812C302.98 180.515 303.956 180.11 304.953 179.675C305.949 179.24 306.974 178.772 307.796 178.352C308.206 178.142 308.574 177.94 308.865 177.756C308.979 177.684 309.094 177.607 309.199 177.527C309.204 177.54 309.208 177.553 309.213 177.567C309.368 178.032 309.509 178.787 309.577 179.649C309.644 180.509 309.636 181.443 309.506 182.265C309.374 183.105 309.128 183.749 308.786 184.11C307.931 185.012 306.126 186.363 304.496 187.51C303.689 188.079 302.937 188.588 302.387 188.956Z" fill="#abbbe3" stroke="#fff"/>
<path d="M409.901 188.252C409.909 188.119 409.916 188.001 409.922 187.9C410.112 187.878 410.361 187.848 410.656 187.807C411.37 187.71 412.361 187.556 413.466 187.327C415.658 186.872 418.368 186.109 420.243 184.871C421.092 184.311 422.855 183.48 425.125 182.564C427.383 181.654 430.105 180.674 432.849 179.811C435.595 178.948 438.351 178.206 440.679 177.768C441.843 177.549 442.89 177.407 443.769 177.363C444.454 177.329 445.011 177.355 445.434 177.436V180.202V180.522L445.724 180.656L452.217 183.649L452.64 183.844L452.865 183.435L456.337 177.103C456.373 177.141 456.41 177.181 456.45 177.223C456.822 177.616 457.353 178.183 457.989 178.876C459.263 180.261 460.958 182.145 462.645 184.147C464.333 186.15 466.006 188.261 467.239 190.099C467.857 191.019 468.356 191.86 468.693 192.578C469.039 193.313 469.18 193.852 469.16 194.193C469.11 195.034 468.619 196.483 467.776 198.289C466.943 200.071 465.8 202.136 464.508 204.18C463.216 206.224 461.781 208.238 460.368 209.922C458.947 211.616 457.577 212.941 456.417 213.643C454.171 215.003 451.351 214.456 448.977 213.467C447.806 212.979 446.781 212.399 446.049 211.94C445.683 211.711 445.391 211.512 445.192 211.372C445.15 211.343 445.113 211.316 445.079 211.292L444.865 203.661L444.836 202.631L444.045 203.292L440.803 205.999L434.859 200.32L434.644 200.115L434.362 200.206L434.514 200.682C434.362 200.206 434.361 200.206 434.361 200.206L434.361 200.206L434.359 200.207L434.35 200.21L434.313 200.221L434.169 200.267C434.041 200.307 433.853 200.365 433.611 200.44C433.126 200.589 432.423 200.801 431.555 201.054C429.817 201.559 427.418 202.227 424.769 202.875C419.563 204.147 413.474 205.322 409.528 205.086C409.51 204.994 409.491 204.871 409.474 204.713C409.422 204.237 409.392 203.546 409.382 202.699C409.362 201.01 409.417 198.757 409.501 196.499C409.585 194.242 409.697 191.987 409.787 190.295C409.833 189.45 409.873 188.745 409.901 188.252Z" fill="#abbbe3" stroke="#fff"/>
<path d="M385.622 158.199L396.516 163.556C396.53 163.587 396.546 163.623 396.563 163.663C396.639 163.838 396.745 164.087 396.867 164.385C397.113 164.983 397.423 165.775 397.683 166.558C397.947 167.351 398.147 168.097 398.194 168.618C398.208 168.768 398.206 168.876 398.199 168.949C398.162 168.932 398.115 168.908 398.055 168.875C397.889 168.782 397.676 168.644 397.418 168.463C396.904 168.1 396.245 167.585 395.487 166.963C393.975 165.722 392.1 164.079 390.269 162.437C388.569 160.912 386.911 159.391 385.622 158.199Z" fill="#abbbe3" stroke="#fff"/>
<path d="M414.42 156.161C414.991 155.903 415.471 155.688 415.81 155.537L417.39 162.07C417.274 162.173 417.115 162.312 416.922 162.476C416.494 162.841 415.902 163.325 415.243 163.808C414.582 164.292 413.864 164.768 413.182 165.121C412.486 165.481 411.889 165.681 411.453 165.681C411.058 165.681 410.469 165.427 409.742 164.931C409.04 164.451 408.293 163.802 407.602 163.141C406.914 162.482 406.292 161.822 405.843 161.325C405.625 161.084 405.447 160.882 405.323 160.739C405.534 160.58 405.864 160.371 406.298 160.122C407.299 159.549 408.748 158.822 410.243 158.104C411.735 157.387 413.264 156.685 414.42 156.161Z" fill="#abbbe3" stroke="#fff"/>
<path d="M444.164 162.974L444.535 165.313L444.592 165.676L444.956 165.73L445.028 165.235C444.956 165.73 444.956 165.73 444.956 165.73L444.956 165.73L444.957 165.73L444.961 165.731L444.974 165.732L445.019 165.738C445.058 165.744 445.115 165.751 445.188 165.759C445.334 165.775 445.544 165.796 445.807 165.814C446.333 165.851 447.071 165.88 447.928 165.845C449.631 165.775 451.843 165.453 453.77 164.416L453.77 164.416C454.099 164.239 454.567 164.196 455.202 164.336C455.833 164.475 456.571 164.781 457.384 165.224C459.009 166.108 460.847 167.486 462.588 168.945C464.324 170.401 465.944 171.923 467.131 173.082C467.134 173.084 467.136 173.086 467.139 173.089L460.683 170.137L460.457 170.034L460.238 170.152L456.693 172.06L448.881 167.175L448.751 167.094L448.598 167.099L444.325 167.249L444.284 167.211C444.162 167.099 443.988 166.938 443.779 166.743C443.361 166.353 442.804 165.829 442.247 165.29C441.69 164.751 441.138 164.202 440.727 163.761C440.659 163.688 440.596 163.619 440.538 163.554L444.164 162.974Z" fill="#abbbe3" stroke="#fff"/>
<path d="M443.408 107.065L445.448 108.188L446.074 116.548L433.773 122.071L432.453 120.335C432.548 120.213 432.671 120.056 432.818 119.875C433.194 119.412 433.723 118.788 434.341 118.14C434.96 117.491 435.661 116.827 436.377 116.279C437.1 115.727 437.809 115.318 438.446 115.145C439.138 114.957 439.893 114.843 440.641 114.747C440.838 114.722 441.037 114.698 441.234 114.674C441.768 114.61 442.289 114.547 442.741 114.466C443.337 114.359 443.947 114.201 444.337 113.871C444.552 113.69 444.714 113.445 444.759 113.134C444.801 112.835 444.727 112.534 444.589 112.244C444.175 111.369 443.848 109.859 443.624 108.516C443.533 107.974 443.461 107.471 443.408 107.065Z" fill="#abbbe3" stroke="#fff"/>
<path d="M114.99 94.9066C114.99 96.0161 113.62 96.9164 111.93 96.9164C110.241 96.9164 108.868 96.0161 108.868 94.9066C108.868 93.7972 110.239 92.8969 111.93 92.8969C113.622 92.8969 114.99 93.7948 114.99 94.9066Z" fill="rgba(185, 9, 27, 1"/>
<path d="M111.93 98.7053C108.826 98.7053 106.3 96.9996 106.3 94.9043C106.3 92.809 108.826 91.1033 111.93 91.1033C115.035 91.1033 117.561 92.8066 117.561 94.9043C117.561 97.002 115.033 98.7053 111.93 98.7053ZM111.93 91.6996C109.153 91.6996 106.892 93.1392 106.892 94.9067C106.892 96.6741 109.153 98.1114 111.93 98.1114C114.708 98.1114 116.967 96.686 116.967 94.9067C116.967 93.1273 114.708 91.6996 111.93 91.6996Z" fill="rgba(185, 9, 27, 1"/>
<path d="M65.2302 122.146C65.2302 123.258 63.8594 124.156 62.1704 124.156C60.4813 124.156 59.1082 123.258 59.1082 122.146C59.1082 121.034 60.4789 120.136 62.1704 120.136C63.8618 120.136 65.2302 121.036 65.2302 122.146Z" fill="rgba(185, 9, 27, 1"/>
<path d="M62.1775 125.935C59.0726 125.935 56.5472 124.232 56.5472 122.134C56.5472 120.036 59.0726 118.333 62.1775 118.333C65.2825 118.333 67.8054 120.036 67.8054 122.134C67.8054 124.232 65.2801 125.935 62.1775 125.935ZM62.1775 118.929C59.398 118.929 57.1388 120.369 57.1388 122.136C57.1388 123.904 59.398 125.341 62.1775 125.341C64.957 125.341 67.2139 123.916 67.2139 122.136C67.2139 120.357 64.9546 118.939 62.1775 118.939V118.929Z" fill="rgba(185, 9, 27, 1"/>
<path d="M84.202 139.889C84.202 140.999 82.8313 141.899 81.1398 141.899C79.4484 141.899 78.0776 140.999 78.0776 139.889C78.0776 138.78 79.4484 137.877 81.1398 137.877C82.8313 137.877 84.202 138.78 84.202 139.889Z" fill="rgba(185, 9, 27, 1"/>
<path d="M81.147 143.688C78.042 143.688 75.5167 141.982 75.5167 139.887C75.5167 137.792 78.042 136.086 81.147 136.086C84.2519 136.086 86.7772 137.789 86.7772 139.887C86.7772 141.985 84.2353 143.688 81.147 143.688ZM81.147 136.682C78.3699 136.682 76.1083 138.108 76.1083 139.889C76.1083 141.671 78.3699 143.094 81.147 143.094C83.9241 143.094 86.1833 141.669 86.1833 139.889C86.1833 138.11 83.917 136.682 81.147 136.682V136.682Z" fill="rgba(185, 9, 27, 1"/>
<path d="M118.92 157.453C118.92 158.562 117.549 159.462 115.86 159.462C114.171 159.462 112.795 158.562 112.795 157.453C112.795 156.343 114.166 155.443 115.86 155.443C117.554 155.443 118.92 156.343 118.92 157.453Z" fill="rgba(185, 9, 27, 1"/>
<path d="M115.848 161.251C112.743 161.251 110.215 159.546 110.215 157.45C110.215 155.355 112.743 153.649 115.848 153.649C118.953 153.649 121.476 155.353 121.476 157.45C121.476 159.548 118.95 161.251 115.848 161.251ZM115.848 154.248C113.068 154.248 110.809 155.673 110.809 157.453C110.809 159.232 113.068 160.66 115.848 160.66C118.627 160.66 120.884 159.22 120.884 157.453C120.884 155.685 118.623 154.248 115.848 154.248V154.248Z" fill="rgba(185, 9, 27, 1"/>
<path d="M164.945 180.598C164.945 181.708 163.575 182.611 161.883 182.611C160.192 182.611 158.823 181.708 158.823 180.598C158.823 179.489 160.194 178.589 161.883 178.589C163.572 178.589 164.945 179.489 164.945 180.598Z" fill="rgba(185, 9, 27, 1"/>
<path d="M161.883 184.397C158.778 184.397 156.255 182.694 156.255 180.596C156.255 178.498 158.778 176.795 161.883 176.795C164.988 176.795 167.513 178.501 167.513 180.596C167.513 182.691 164.988 184.397 161.883 184.397ZM161.883 177.394C159.106 177.394 156.847 178.819 156.847 180.598C156.847 182.378 159.106 183.805 161.883 183.805C164.66 183.805 166.922 182.366 166.922 180.598C166.922 178.831 164.663 177.394 161.883 177.394Z" fill="rgba(185, 9, 27, 1"/>
<path d="M272.253 193.767C272.253 194.876 270.882 195.779 269.193 195.779C267.504 195.779 266.131 194.876 266.131 193.767C266.131 192.657 267.502 191.757 269.193 191.757C270.885 191.757 272.253 192.657 272.253 193.767Z" fill="rgba(185, 9, 27, 1"/>
<path d="M269.193 197.565C266.088 197.565 263.56 195.862 263.56 193.764C263.56 191.666 266.088 189.963 269.193 189.963C272.298 189.963 274.823 191.666 274.823 193.764C274.823 195.862 272.296 197.565 269.193 197.565ZM269.193 190.562C266.414 190.562 264.154 191.999 264.154 193.767C264.154 195.534 266.414 196.974 269.193 196.974C271.973 196.974 274.229 195.534 274.229 193.767C274.229 191.999 271.97 190.552 269.193 190.552V190.562Z" fill="rgba(185, 9, 27, 1"/>
<path d="M280.938 134.487C280.938 135.599 279.567 136.497 277.876 136.497C276.184 136.497 274.823 135.589 274.823 134.487C274.823 133.385 276.187 132.468 277.883 132.468C279.579 132.468 280.938 133.368 280.938 134.487Z" fill="rgba(185, 9, 27, 1"/>
<path d="M277.883 138.288C274.778 138.288 272.253 136.582 272.253 134.487C272.253 132.392 274.778 130.686 277.883 130.686C280.988 130.686 283.513 132.389 283.513 134.487C283.513 136.585 280.988 138.288 277.883 138.288ZM277.883 131.285C275.106 131.285 272.847 132.71 272.847 134.49C272.847 136.269 275.106 137.697 277.883 137.697C280.66 137.697 282.922 136.248 282.922 134.487C282.922 132.727 280.66 131.273 277.883 131.273V131.285Z" fill="rgba(185, 9, 27, 1"/>
<path d="M238.982 105.267C238.982 106.376 237.611 107.277 235.92 107.277C234.228 107.277 232.858 106.376 232.858 105.267C232.858 104.157 234.228 103.255 235.92 103.255C237.611 103.255 238.982 104.143 238.982 105.267Z" fill="rgba(185, 9, 27, 1"/>
<path d="M235.92 109.054C232.815 109.054 230.29 107.348 230.29 105.253C230.29 103.157 232.815 101.452 235.92 101.452C239.025 101.452 241.55 103.155 241.55 105.253C241.55 107.35 239.025 109.054 235.92 109.054ZM235.92 102.048C233.143 102.048 230.884 103.487 230.884 105.255C230.884 107.022 233.143 108.46 235.92 108.46C238.697 108.46 240.959 107.034 240.959 105.255C240.959 103.476 238.697 102.048 235.92 102.048Z" fill="rgba(185, 9, 27, 1"/>
<path d="M354.923 138.497C356.614 138.497 357.985 137.597 357.985 136.487C357.985 135.377 356.614 134.478 354.923 134.478C353.232 134.478 351.861 135.377 351.861 136.487C351.861 137.597 353.232 138.497 354.923 138.497Z" fill="rgba(185, 9, 27, 1"/>
<path d="M354.923 140.286C351.815 140.286 349.292 138.583 349.292 136.485C349.292 134.387 351.815 132.684 354.923 132.684C358.03 132.684 360.551 134.39 360.551 136.485C360.551 138.58 358.028 140.286 354.923 140.286ZM354.923 133.283C352.143 133.283 349.884 134.72 349.884 136.487C349.884 138.255 352.143 139.692 354.923 139.692C357.702 139.692 359.959 138.255 359.959 136.487C359.959 134.72 357.7 133.283 354.923 133.283Z" fill="rgba(185, 9, 27, 1"/>
<path d="M421.008 101.466C421.008 102.575 419.638 103.476 417.946 103.476C416.255 103.476 414.884 102.575 414.884 101.466C414.884 100.356 416.255 99.4561 417.946 99.4561C419.638 99.4561 421.008 100.347 421.008 101.466Z" fill="rgba(185, 9, 27, 1"/>
<path d="M417.946 105.267C414.841 105.267 412.316 103.561 412.316 101.466C412.316 99.3705 414.841 97.6648 417.946 97.6648C421.051 97.6648 423.576 99.3681 423.576 101.466C423.576 103.564 421.051 105.267 417.946 105.267ZM417.946 98.2611C415.169 98.2611 412.907 99.7007 412.907 101.468C412.907 103.236 415.169 104.673 417.946 104.673C420.723 104.673 422.982 103.248 422.982 101.468C422.982 99.6888 420.723 98.2492 417.946 98.2492V98.2611Z" fill="rgba(185, 9, 27, 1"/>
<path d="M440.968 116.437C442.66 116.437 444.031 115.537 444.031 114.427C444.031 113.317 442.66 112.417 440.968 112.417C439.277 112.417 437.906 113.317 437.906 114.427C437.906 115.537 439.277 116.437 440.968 116.437Z" fill="rgba(185, 9, 27, 1"/>
<path d="M440.971 118.226C437.866 118.226 435.338 116.523 435.338 114.425C435.338 112.327 437.866 110.624 440.971 110.624C444.076 110.624 446.599 112.33 446.599 114.425C446.599 116.52 444.073 118.226 440.971 118.226ZM440.971 111.223C438.191 111.223 435.932 112.66 435.932 114.427C435.932 116.195 438.191 117.634 440.971 117.634C443.75 117.634 446.007 116.195 446.007 114.427C446.007 112.66 443.746 111.223 440.971 111.223Z" fill="rgba(185, 9, 27, 1"/>
<path d="M463.238 197.565C463.238 198.675 461.867 199.575 460.178 199.575C458.489 199.575 457.116 198.675 457.116 197.565C457.116 196.456 458.486 195.555 460.178 195.555C461.869 195.555 463.238 196.453 463.238 197.565Z" fill="rgba(185, 9, 27, 1"/>
<path d="M460.178 201.364C457.073 201.364 454.548 199.66 454.548 197.563C454.548 195.465 457.073 193.762 460.178 193.762C463.283 193.762 465.808 195.465 465.808 197.563C465.808 199.66 463.28 201.364 460.178 201.364ZM460.178 194.36C457.401 194.36 455.139 195.786 455.139 197.565C455.139 199.344 457.401 200.767 460.178 200.767C462.955 200.767 465.214 199.33 465.214 197.563C465.214 195.795 462.955 194.353 460.178 194.353V194.36Z" fill="rgba(185, 9, 27, 1"/>
<path d="M336.633 70.554C336.633 71.6634 335.262 72.5638 333.573 72.5638C331.884 72.5638 330.511 71.6634 330.511 70.554C330.511 69.4446 331.881 68.5442 333.573 68.5442C335.264 68.5442 336.633 69.4422 336.633 70.554Z" fill="rgba(185, 9, 27, 1"/>
<path d="M333.573 74.3527C330.468 74.3527 327.943 72.6469 327.943 70.5516C327.943 68.4563 330.468 66.7506 333.573 66.7506C336.678 66.7506 339.203 68.4539 339.203 70.5516C339.203 72.6493 336.675 74.3527 333.573 74.3527ZM333.573 67.3469C330.796 67.3469 328.534 68.7865 328.534 70.554C328.534 72.3215 330.796 73.7587 333.573 73.7587C336.35 73.7587 338.609 72.3215 338.609 70.554C338.609 68.7865 336.35 67.3469 333.573 67.3469Z" fill="rgba(185, 9, 27, 1"/>
<path d="M144.101 204.105C144.101 205.217 142.731 206.117 141.042 206.117C139.352 206.117 137.979 205.217 137.979 204.105C137.979 202.993 139.35 202.095 141.042 202.095C142.733 202.095 144.101 202.996 144.101 204.105Z" fill="rgba(185, 9, 27, 1"/>
<path d="M141.032 207.894C137.927 207.894 135.399 206.191 135.399 204.093C135.399 201.996 137.927 200.292 141.032 200.292C144.137 200.292 146.66 201.996 146.66 204.093C146.66 206.191 144.135 207.894 141.032 207.894ZM141.032 200.891C138.253 200.891 135.993 202.328 135.993 204.096C135.993 205.863 138.253 207.303 141.032 207.303C143.812 207.303 146.068 205.866 146.068 204.096C146.068 202.326 143.807 200.901 141.032 200.901V200.891Z" fill="rgba(185, 9, 27, 1"/>
<path d="M115.848 157.452C115.848 157.452 115.99 156.842 116.323 155.744" stroke="#fff" stroke-width="0.5" stroke-miterlimit="10"/>
<path d="M117.399 152.411C123.512 135.069 149.708 80.1919 231.138 102.497" stroke="#fff" stroke-width="0.5" stroke-miterlimit="10" stroke-dasharray="3.51 3.51"/>
<path d="M232.841 102.972C233.406 103.13 233.976 103.295 234.549 103.466" stroke="#fff" stroke-width="0.5" stroke-miterlimit="10"/>
<path d="M81.147 139.889C81.147 139.889 196.506 81.9237 269.198 193.766" stroke="#fff" stroke-width="0.5" stroke-miterlimit="10" stroke-dasharray="3.56 3.56"/>
<path d="M141.032 204.105C137.97 43.2199 354.923 77.2462 354.923 136.487" stroke="#fff" stroke-width="0.5" stroke-miterlimit="10" stroke-dasharray="3.56 3.56"/>
<path d="M111.93 94.9066C111.93 -45.0185 417.946 -17.1665 417.946 99.4465" stroke="#fff" stroke-width="0.5" stroke-miterlimit="10" stroke-dasharray="3.56 3.56"/>
<path d="M460.178 197.565C460.178 -20.7228 334.575 -36.9104 334.575 68.5442" stroke="#fff" stroke-width="0.5" stroke-miterlimit="10" stroke-dasharray="3.56 3.56"/>
<path d="M277.883 132.468C277.883 1.67947 440.971 5.42109 440.971 114.427" stroke="#fff" stroke-width="0.5" stroke-miterlimit="10" stroke-dasharray="3.56 3.56"/>
<path d="M62.5481 122.074C62.5481 25.1745 161.883 21.8772 161.883 180.598" stroke="#fff" stroke-width="0.5" stroke-miterlimit="10" stroke-dasharray="3.56 3.56"/>
</g>
<defs>
<clipPath id="clip0_81_1927">
<rect width="471.84" height="232.031" fill="white"/>
</clipPath>
</defs>
</svg>
