<svg width="72" height="72" fill="none" xmlns="http://www.w3.org/2000/svg"><path fill-rule="evenodd" clip-rule="evenodd" d="m63.488 49.744-4.115-4.115-4.998 4.997-2.058-2.057 4.998-4.998-4.115-4.115-2.999 2.998-2.057-2.057 2.998-2.999-4.115-4.115-4.998 4.998-2.058-2.058 4.998-4.998-4.115-4.115-2.999 2.998-2.057-2.057 2.998-2.999-4.115-4.115-4.998 4.998-2.057-2.058 4.998-4.998-4.116-4.115-2.998 2.999-2.058-2.058 2.999-2.999-4.116-4.115-4.998 4.998-2.057-2.058 4.998-4.997L14.105.36.11 14.355 56.696 70.94 70.69 56.946 65.546 51.8l-2.999 3-2.058-2.059 3-2.998Z" fill="#92C9EC"/><path d="m67.521 16.167 1.06-1.06-1.06-1.061-9.206-9.207-1.061-1.06-1.06 1.06L7.112 53.92l-1.061 1.06 1.06 1.062 9.207 9.206 1.06 1.06 1.061-1.06 49.081-49.08Z" fill="#103654" stroke="#fff" stroke-width="3"/><path d="M66.69 13.463 16.789 63.364 6.034 66.326l2.961-10.754L58.897 5.671a5.51 5.51 0 0 1 7.793 7.792Z" stroke="#103654" stroke-width="2"/></svg>