<svg width="72" height="72" fill="none" xmlns="http://www.w3.org/2000/svg"><path fill-rule="evenodd" clip-rule="evenodd" d="M66 10.432c0 5.761-13.432 10.432-30 10.432C19.43 20.864 6 16.194 6 10.432 6.001 4.671 19.431 0 35.999 0c16.569 0 30 4.67 30 10.432z" fill="#92C9EC"/><path fill-rule="evenodd" clip-rule="evenodd" d="M36 26.282c-16.043 0-29.106-4.382-29.921-9.89H6v10.035c0 5.763 13.431 10.432 30 10.432 16.568 0 30-4.67 30-10.432V16.392h-.079c-.815 5.508-13.878 9.89-29.921 9.89z" fill="#92C9EC"/><path fill-rule="evenodd" clip-rule="evenodd" d="M36 42.393c-16.043 0-29.106-4.382-29.921-9.89H6v10.035C6 48.301 19.431 52.97 36 52.97c16.568 0 30-4.669 30-10.432V32.503h-.079c-.815 5.508-13.878 9.89-29.921 9.89z" fill="#92C9EC"/><path fill-rule="evenodd" clip-rule="evenodd" d="M36 57.423c-16.043 0-29.106-4.383-29.921-9.89H6v10.035C6 63.33 19.431 68 36 68c16.568 0 30-4.67 30-10.432v-5.069c-.153 1.037-.5-.5-1.778-2-4.136 4.035-15.197 6.924-28.222 6.924z" fill="#92C9EC"/><circle cx="54.5" cy="54.5" r="8.426" fill="#fff"/><path d="M70.53 62.503l1.407-3.87c.132-.395.056-.824-.23-1.12l-3.33-3.639 2.99-3.913a1.11 1.11 0 00.131-1.132l-1.747-3.737a1.112 1.112 0 00-.957-.638l-4.923-.209-.648-4.88a1.092 1.092 0 00-.715-.89l-3.879-1.407a1.104 1.104 0 00-1.12.22l-3.627 3.341-3.924-3a1.083 1.083 0 00-1.131-.122l-3.737 1.748a1.078 1.078 0 00-.626.945l-.21 4.936-4.89.648c-.406.055-.747.33-.89.715l-1.406 3.88a1.08 1.08 0 00.22 1.11l3.34 3.639-3 3.913a1.11 1.11 0 00-.12 1.132l1.747 3.737c.175.374.538.615.956.638l4.923.208.648 4.892c.055.406.33.747.715.89l3.879 1.396a1.116 1.116 0 001.121-.22l3.627-3.341 3.923 3a1.08 1.08 0 001.132.121l3.736-1.747c.363-.165.616-.539.627-.946l.208-4.924 4.89-.66c.407-.044.748-.33.89-.714zm-13.099-1.737a6.911 6.911 0 01-2.923.649 6.942 6.942 0 01-6.264-3.98 6.895 6.895 0 01-.242-5.286 6.89 6.89 0 013.572-3.903 6.762 6.762 0 012.923-.66 6.952 6.952 0 016.264 3.991c1.616 3.451.121 7.573-3.33 9.19z" fill="#103654"/></svg>