<svg xmlns="http://www.w3.org/2000/svg" width="116" height="64" fill="none" viewBox="0 0 116 64"><path fill="#B6DAF2" fill-rule="evenodd" d="M116 35.2878L95.1003 62.1644c-.7758.9977-1.9555 1.6497-3.26 1.8016-1.3044.1519-2.6176-.2097-3.6288-.9992L71 49.5285l6.0867-6.8925 13.3132 10.3947L108.309 30 116 35.2878z" clip-rule="evenodd"/><path fill="#92C9EC" fill-rule="evenodd" d="M101 24.3096L73.1338 61.4627c-1.0344 1.3791-2.6074 2.2803-4.3466 2.4903-1.7393.21-3.4902-.2899-4.8386-1.3812L41 43.9953l8.1155-9.5279 17.751 14.3692L90.7452 17 101 24.3096z" clip-rule="evenodd"/><path fill="#103654" fill-rule="evenodd" d="M81 9.487L43.3806 57.7068c-1.3964 1.79-3.52 2.9597-5.8679 3.2322-2.348.2726-4.7118-.3761-6.5321-1.7927L0 35.0363l10.956-12.3658 23.9638 18.6492L67.156 0 81 9.487z" clip-rule="evenodd"/></svg>
