<svg width="72" height="72" fill="none" xmlns="http://www.w3.org/2000/svg"><path d="M63 16.714c0-.71-.576-1.285-1.286-1.285H46.39a17.879 17.879 0 01-12.96 11.134v6.866a1.286 1.286 0 002.571 0 9 9 0 0118 0v4.9a7.714 7.714 0 11-7.714 0v-4.9a1.286 1.286 0 00-2.572 0 9 9 0 01-18 0v-6.866a17.878 17.878 0 01-12.96-11.134h-2.468c-.71 0-1.285.575-1.286 1.285v38.572h54V16.714z" fill="#dc848d"/><path d="M50.143 50.143a5.143 5.143 0 100-10.286 5.143 5.143 0 000 10.286z" fill="rgba(185, 9, 27, 1)"/><path d="M29.572 19.286c3.119-.001 6.069-1.42 8.016-3.857H21.555a10.266 10.266 0 008.017 3.857z" fill="#dc848d"/><path d="M23.143 5.143a2.571 2.571 0 100-5.143 2.571 2.571 0 000 5.143z" fill="rgba(185, 9, 27, 1)"/><path d="M27.198 24.225a1.286 1.286 0 011.088 1.27v7.934a6.429 6.429 0 0012.857 0 3.857 3.857 0 017.714 0v3.973a7.178 7.178 0 012.572 0v-3.973a6.429 6.429 0 00-12.857 0 3.857 3.857 0 01-7.715 0v-7.933c0-.634.462-1.173 1.088-1.271A15.532 15.532 0 0045 9V3.857a2.575 2.575 0 00-2.571-2.571H40.96c.116.419.177.85.183 1.285a5.08 5.08 0 01-.183 1.286h.183a1.285 1.285 0 011.286 1.286V9a12.756 12.756 0 01-1.356 5.711 12.83 12.83 0 01-23.059-.114A12.757 12.757 0 0116.714 9V5.143A1.285 1.285 0 0118 3.857h.183A5.08 5.08 0 0118 2.571a5.08 5.08 0 01.183-1.285h-1.469a2.574 2.574 0 00-2.571 2.571V9a15.532 15.532 0 0013.055 15.225z" fill="rgba(185, 9, 27, 1)"/><path d="M63.657 57.857H8.343l-7 9h69.314l-7-9zm-53.371 6.429H9a1.286 1.286 0 010-2.572h1.286a1.286 1.286 0 010 2.572zm46.286 0H15.429a1.286 1.286 0 110-2.572H56.57a1.286 1.286 0 010 2.572zm6.428 0h-1.286a1.286 1.286 0 010-2.572H63a1.286 1.286 0 010 2.572zM0 69.429v1.285C0 71.424.576 72 1.286 72h69.428c.71 0 1.285-.576 1.286-1.286V69.43H0z" fill="#dc848d"/><path d="M36 5.143A2.571 2.571 0 1036 0a2.571 2.571 0 000 5.143z" fill="rgba(185, 9, 27, 1)"/></svg>