<svg width="72" height="72" fill="none" xmlns="http://www.w3.org/2000/svg"><path d="M54 1.2H18a2.4 2.4 0 00-2.4 2.4v21.6a2.4 2.4 0 002.4 2.4h36a2.4 2.4 0 002.4-2.4V3.6A2.4 2.4 0 0054 1.2z" fill="#dc848d"/><path d="M15.6 18h40.8v7.2a2.4 2.4 0 01-2.4 2.4H18a2.4 2.4 0 01-2.4-2.4V18z" fill="rgba(185, 9, 27, 1)"/><path d="M14.4 34.8h-12A1.2 1.2 0 001.2 36v7.2a1.2 1.2 0 001.2 1.2h12a1.2 1.2 0 001.2-1.2V36a1.2 1.2 0 00-1.2-1.2z" fill="#fff"/><path d="M12 49.2H4.8L6 44.4h4.8l1.2 4.8z" fill="#fff"/><path d="M11.4 46.8h-6l.6-2.4h4.8l.6 2.4z" fill="#dc848d"/><path d="M69.6 33.6h-12a1.2 1.2 0 00-1.2 1.2V42a1.2 1.2 0 001.2 1.2h12a1.2 1.2 0 001.2-1.2v-7.2a1.2 1.2 0 00-1.2-1.2zM67.2 48H60l1.2-4.8H66l1.2 4.8z" fill="#fff"/><path d="M66.6 45.6h-6l.6-2.4H66l.6 2.4z" fill="#dc848d"/><path d="M14.4 56.4h-12a1.2 1.2 0 00-1.2 1.2v7.2A1.2 1.2 0 002.4 66h12a1.2 1.2 0 001.2-1.2v-7.2a1.2 1.2 0 00-1.2-1.2zM12 70.8H4.8L6 66h4.8l1.2 4.8z" fill="#fff"/><path d="M11.4 68.4h-6L6 66h4.8l.6 2.4z" fill="#dc848d"/><path d="M69.6 56.4h-12a1.2 1.2 0 00-1.2 1.2v7.2a1.2 1.2 0 001.2 1.2h12a1.2 1.2 0 001.2-1.2v-7.2a1.2 1.2 0 00-1.2-1.2zM67.2 70.8H60l1.2-4.8H66l1.2 4.8z" fill="#fff"/><path d="M66.6 68.4h-6l.6-2.4H66l.6 2.4z" fill="#dc848d"/><path d="M14.4 55.2h-12A2.403 2.403 0 000 57.6v7.2a2.403 2.403 0 002.4 2.4h3.263l-.6 2.4H3.6V72h9.6v-2.4h-1.463l-.6-2.4H14.4a2.403 2.403 0 002.4-2.4v-7.2a2.403 2.403 0 00-2.4-2.4zM9.263 69.6H7.537l.6-2.4h.526l.6 2.4zm5.137-4.8h-12v-7.2h12l.002 7.2H14.4zm0-31.2h-12A2.403 2.403 0 000 36v7.2a2.403 2.403 0 002.4 2.4h3.263l-.6 2.4H3.6v2.4h9.6V48h-1.463l-.6-2.4H14.4a2.403 2.403 0 002.4-2.4V36a2.403 2.403 0 00-2.4-2.4zM9.263 48H7.537l.6-2.4h.526l.6 2.4zm5.137-4.8h-12V36h12l.002 7.2H14.4zm55.2 12h-12a2.403 2.403 0 00-2.4 2.4v7.2a2.403 2.403 0 002.4 2.4h3.263l-.6 2.4H58.8V72h9.6v-2.4h-1.463l-.6-2.4H69.6a2.403 2.403 0 002.4-2.4V63h-2.4v1.8h-12v-7.2h12v3.15H72V57.6a2.403 2.403 0 00-2.4-2.4zm-5.737 12l.6 2.4h-1.726l.6-2.4h.526zM69.6 32.4h-12a2.403 2.403 0 00-2.4 2.4V42a2.403 2.403 0 002.4 2.4h3.263l-.6 2.4H58.8v2.4h9.6v-2.4h-1.463l-.6-2.4H69.6A2.403 2.403 0 0072 42v-7.2a2.403 2.403 0 00-2.4-2.4zm-5.137 14.4h-1.726l.6-2.4h.526l.6 2.4zM69.6 42h-12v-7.2h12l.002 7.2H69.6zm-12-16.8V3.6A3.604 3.604 0 0054 0H18a3.604 3.604 0 00-3.6 3.6v2.1h2.4V3.6A1.201 1.201 0 0118 2.4h36a1.201 1.201 0 011.2 1.2v13.2H16.8V8.4h-2.4v16.8a3.605 3.605 0 003.6 3.6h36a3.605 3.605 0 003.6-3.6zm-2.4 0a1.201 1.201 0 01-1.2 1.2H18a1.201 1.201 0 01-1.2-1.2v-6h38.4v6zm-30-1.2h-2.4v-2.4h2.4V24zm4.8 0h-2.4v-2.4H30V24zm4.8 0h-2.4v-2.4h2.4V24zm4.8 0h-2.4v-2.4h2.4V24zm4.8 0H42v-2.4h2.4V24zm4.8 0h-2.4v-2.4h2.4V24zM26.4 40.8h-7.2v-2.4h6v-7.2h2.4v8.4a1.2 1.2 0 01-1.2 1.2zm4.8-9.6h2.4v30a1.2 1.2 0 01-1.2 1.2H19.2V60h12V31.2zm15.6 7.2h6v2.4h-7.2a1.2 1.2 0 01-1.2-1.2v-8.4h2.4v7.2zm-6 21.6h12v2.4H39.6a1.2 1.2 0 01-1.2-1.2v-30h2.4V60zM21.6 7.2h-2.4V4.8h2.4v2.4zm-2.4 2.4h2.4v4.8h-2.4V9.6z" fill="#dc848d"/><path fill="#fff" d="M22.091 21.273h3.273v3.273h-3.273zM22.091 3.273h3.273v6.545h-3.273zM22.091 11.455h3.273v3.273h-3.273zM27 21.273h3.273v3.273H27zM31.909 21.273h3.273v3.273h-3.273zM36.818 21.273h3.273v3.273h-3.273zM41.727 21.273H45v3.273h-3.273zM46.636 21.273h3.273v3.273h-3.273z"/></svg>