<svg width="72" height="72" xmlns="http://www.w3.org/2000/svg"><g fill="none" fill-rule="evenodd"><path d="M0 0h72v72H0z"/><path d="M23.777 38.642c.204 5.835 5.1 10.4 10.934 10.197 5.835-.204 10.4-5.1 10.197-10.935-.204-5.835-5.1-10.4-10.935-10.196-5.835.203-10.4 5.099-10.196 10.934zM27.15 46.405l-5.819 6.241" stroke="#dc848d"/><path d="M39.628 41.526c1.572 0 2.847-1.456 2.847-3.253 0-1.796-1.275-3.253-2.847-3.253s-2.846 1.457-2.846 3.253c0 1.797 1.274 3.253 2.846 3.253z" stroke="#dc848d" fill="#FFF" fill-rule="nonzero"/><path fill="#FFF" fill-rule="nonzero" d="M40.848 34.207h-5.692v9.759h5.692z"/><path d="M65.11 1H6.828C3.615 1 1 3.611 1 6.821v43.658c0 3.21 2.615 5.82 5.828 5.82H65.11c3.213 0 5.828-2.61 5.828-5.82V6.82C70.938 3.611 68.323 1 65.11 1z" stroke="#dc848d"/><path d="M22.713 55.846a3.253 3.253 0 00-4.758-4.437l-7.765 8.326a3.253 3.253 0 104.758 4.437l7.765-8.326z" stroke="#dc848d" fill="#FFF" fill-rule="nonzero"/><path stroke="#dc848d" stroke-linecap="square" d="M1.397 10.691H70.54"/><path d="M62.399 15.503H9.539a2.846 2.846 0 100 5.692h52.86a2.846 2.846 0 100-5.692zM52.234 5.665a1.626 1.626 0 103.251-.113 1.626 1.626 0 00-3.25.113zM57.114 5.665a1.626 1.626 0 103.25-.113 1.626 1.626 0 00-3.25.113zM61.993 5.8a1.626 1.626 0 103.251-.113 1.626 1.626 0 00-3.25.114z" stroke="#dc848d"/></g></svg>