<svg width="72" height="72" xmlns="http://www.w3.org/2000/svg"><g fill="none" fill-rule="evenodd"><path d="M0 0h72v72H0z"/><g transform="translate(1 1)" stroke="#dc848d"><path d="M64.167 0H5.833A5.84 5.84 0 000 5.833v43.75a5.84 5.84 0 005.833 5.834h58.334A5.84 5.84 0 0070 49.583V5.833A5.84 5.84 0 0064.167 0zM3.009 6.614c0-1.93 1.57-3.5 3.5-3.5h56.946c1.93 0 3.5 1.57 3.5 3.5v40.833H3.009V6.614zM37.917 58.333h-5.834v5.834h-9.916c-1.93 0-3.5 1.57-3.5 3.5v1.166c0 .645.521 1.167 1.166 1.167h30.334c.645 0 1.166-.522 1.166-1.167v-1.166c0-1.93-1.57-3.5-3.5-3.5h-9.916v-5.834z"/><rect x="18.472" y="8.75" width="32.083" height="32.083" rx="2"/><rect x="21.389" y="11.667" width="26.25" height="26.25" rx="1"/><path d="M42.73 26.25c2.316 0 4.081 1.632 4.675 2.448.593-.816 2.359-2.448 4.673-2.448 2.894 0 5.787 2.003 5.787 6.009 0 5.341-4.006 7.79-10.46 12.463-6.455-4.673-10.46-7.122-10.46-12.463 0-4.006 2.893-6.009 5.786-6.009z" fill="#FFF"/><path stroke-linecap="round" stroke-linejoin="round" d="M21.389 24.306h6.32l2.916-7.778 2.917 15.07 4.375-11.667 1.944 4.375h7.778"/></g></g></svg>