<svg width="836" height="140" fill="none" xmlns="http://www.w3.org/2000/svg"><g style="mix-blend-mode:color-dodge" clip-path="url(#clip0)"><path d="M836 65.916h-35.705l-5.517-36.406h.179l-11.551 84.326a.234.234 0 01-.084.131.225.225 0 01-.148.048.226.226 0 01-.111-.056.221.221 0 01-.067-.105l-10.712-47.867.25.215h-12.015l.286-.215-4.981 19.573a.324.324 0 01-.393.215.322.322 0 01-.232-.269l-2.463-19.554.339.304h-11.444a.357.357 0 01-.339-.286l-5.588-25.626h.75l-9.301 98.706a.523.523 0 01-.518.519.519.519 0 01-.518-.519L718.102 1.163h1.16l-6.802 64.932a.643.643 0 01-.625.573h-78.837a.64.64 0 01-.642-.573l-5.499-36.424h1.339l-11.64 84.219a.715.715 0 01-.803.609.698.698 0 01-.589-.556l-10.712-47.866.714.573h-11.925l.696-.555-4.999 19.573a.748.748 0 01-.892.537.765.765 0 01-.554-.627l-2.463-19.573.749.663h-11.425a.75.75 0 01-.75-.591l-5.481-25.661 1.518-.09-9.391 98.706a.842.842 0 01-.892.734.8.8 0 01-.732-.77L550.609 1.109h1.785l-6.82 64.932a.928.928 0 01-.892.824h-78.855a.965.965 0 01-.928-.806l-5.481-36.423h1.892l-11.64 84.307a.98.98 0 01-1.945 0l-10.712-47.866 1 .806h-11.926l.982-.77-4.999 19.573a1.034 1.034 0 01-2.017-.126l-2.464-19.573 1.036.914h-11.426a1.014 1.014 0 01-1.017-.824l-5.481-25.643 2.089-.126-9.462 98.688a1.047 1.047 0 01-.738.895 1.026 1.026 0 01-.405.036 1.003 1.003 0 01-.928-.967L383.366 1.073h1.946l-6.838 64.932a.948.948 0 01-.946.86h-78.855a.909.909 0 01-.892-.788l-5.534-36.46h1.785l-11.712 84.291a.855.855 0 01-1.695 0l-10.712-47.885.803.663h-11.854l.804-.627-5.017 19.573a.819.819 0 01-1.607-.108l-2.446-19.554.822.698h-11.48a.806.806 0 01-.785-.645l-5.463-25.59h1.571l-9.48 98.67a.729.729 0 01-.839.573.755.755 0 01-.678-.698L216.391 1.019h1.375l-6.874 64.933a.66.66 0 01-.66.59h-78.837a.624.624 0 01-.625-.537l-5.356-36.423h1.196l-11.8 84.29a.573.573 0 01-.643.483.554.554 0 01-.464-.447l-10.712-47.867.536.412h-11.89l.518-.412-5.017 19.573a.555.555 0 01-.642.376.517.517 0 01-.393-.448L83.675 65.97l.5.447H72.749a.498.498 0 01-.482-.376L66.911 40.38h.893l-9.587 98.67a.302.302 0 01-.107.217.302.302 0 01-.232.069.32.32 0 01-.303-.304L49.736.984h.25l-6.89 64.932H0h43.025L49.737.966a.143.143 0 01.143-.144.143.143 0 01.143.144l8.123 137.887h-.643l9.32-98.706a.449.449 0 01.446-.448.446.446 0 01.446.448l5.48 25.661-.464-.376h11.426a.517.517 0 01.5.43l2.481 19.555h-1.035l4.945-19.644a.555.555 0 01.536-.394h11.961a.552.552 0 01.535.43l10.712 47.866h-1.125l11.658-84.272a.585.585 0 01.228-.406.59.59 0 01.45-.114.606.606 0 01.518.52l5.481 36.423-.607-.537h78.837l-.661.591 6.82-64.968a.71.71 0 01.253-.474.704.704 0 01.515-.153.697.697 0 01.607.663l8.015 137.887h-1.499l9.408-98.688a.804.804 0 01.857-.716.825.825 0 01.714.627l5.481 25.643-.804-.627h11.444a.822.822 0 01.803.716l2.446 19.573-1.607-.107 4.999-19.573a.843.843 0 01.804-.627h11.925a.836.836 0 01.821.663l10.712 47.866h-1.678l11.64-84.218a.874.874 0 01.999-.77.89.89 0 01.768.752l5.481 36.424-.911-.77h78.855l-.946.841L383.312.876A.98.98 0 01384.384 0a.998.998 0 01.874.931l8.016 137.887h-2.071l9.426-98.688a1.067 1.067 0 01.371-.722 1.047 1.047 0 011.379.024c.17.151.288.351.339.573l5.356 25.661-1.018-.842h11.426a1.033 1.033 0 011.035.914l2.446 19.555-2.035-.126 5.017-19.555a1.036 1.036 0 01.999-.77h11.926a1.037 1.037 0 011 .788l10.711 47.885h-1.946l11.712-84.308a.939.939 0 01.364-.632.923.923 0 01.707-.174.962.962 0 01.821.806l5.445 36.423-.928-.806h78.854l-.91.824L550.609.894a.875.875 0 011.035-.788.857.857 0 01.786.824l7.891 137.976h-1.625l9.48-98.687a.803.803 0 01.839-.698.785.785 0 01.696.608l5.445 25.661-.732-.608h11.426a.749.749 0 01.75.662l2.428 19.555h-1.446l5.016-19.555a.713.713 0 01.714-.555h11.89a.748.748 0 01.714.573l10.712 47.884h-1.393l11.711-84.29a.68.68 0 011.109-.408c.123.104.204.25.23.408l5.445 36.424-.642-.555h78.837l-.607.555L718.102.912a.592.592 0 01.642-.52.606.606 0 01.536.556l7.873 137.976h-1.036l9.587-98.687a.377.377 0 01.265-.326c.047-.015.097-.02.146-.015a.374.374 0 01.339.305l5.445 25.661-.357-.286h11.444a.322.322 0 01.321.304l2.428 19.555h-.607l5.034-19.555a.287.287 0 01.268-.215h11.926a.25.25 0 01.267.215l10.712 47.884h-.393l11.783-84.29a.104.104 0 01.037-.064.106.106 0 01.07-.025.125.125 0 010 .09l5.356 36.423 35.812.018z" fill="#3386ca"/></g><defs><clipPath id="clip0"><path fill="#fff" d="M0 0h836v140H0z"/></clipPath></defs></svg>