<svg width="72" height="72" fill="none" xmlns="http://www.w3.org/2000/svg"><path d="M63.837 10.414a4.5 4.5 0 11-9 0 4.5 4.5 0 019 0z" fill="#fff"/><path d="M17.163 61.587a4.5 4.5 0 11-9 0 4.5 4.5 0 019 0z" fill="rgba(185, 9, 27, 1)"/><path d="M56.367 31.59a20.725 20.725 0 00-2.857-6.895L56.204 22l-6.22-6.215-2.692 2.692a20.724 20.724 0 00-6.895-2.857v-3.807h-8.793v3.807a20.721 20.721 0 00-6.896 2.857l-2.692-2.692L15.796 22l2.694 2.695a20.725 20.725 0 00-2.858 6.896h-3.817l-.005 8.792h3.822a20.704 20.704 0 002.858 6.897l-2.705 2.704 6.216 6.22 2.707-2.707a20.7 20.7 0 006.896 2.858v3.833h8.793v-3.833a20.71 20.71 0 006.896-2.858L50 56.204l6.215-6.22-2.705-2.704a20.704 20.704 0 002.858-6.897h3.822v-8.792h-3.822zM36 46.214c-5.641 0-10.213-4.572-10.213-10.213 0-5.64 4.572-10.213 10.213-10.213 5.64 0 10.213 4.572 10.213 10.213 0 5.64-4.572 10.213-10.213 10.213z" fill="#dc848d"/><path d="M17.156 61.594a4.5 4.5 0 11-9 0 4.5 4.5 0 019 0z" fill="#fff"/><path d="M12.663 55.68a5.87 5.87 0 00-2.836.724A33.248 33.248 0 012.813 36C2.813 17.7 17.7 2.812 36 2.812c2.225 0 4.448.222 6.61.659a1.406 1.406 0 00.556-2.757A36.268 36.268 0 0036 0c-9.616 0-18.656 3.745-25.456 10.544C3.744 17.344 0 26.384 0 36a36.066 36.066 0 007.747 22.31 5.865 5.865 0 00-.99 3.277c0 1.577.615 3.06 1.73 4.175a5.866 5.866 0 004.176 1.73c1.578 0 3.061-.614 4.177-1.73a5.866 5.866 0 001.73-4.176c0-1.577-.614-3.06-1.73-4.176a5.867 5.867 0 00-4.177-1.73zm2.188 8.094a3.072 3.072 0 01-2.188.906 3.073 3.073 0 01-2.187-.906 3.073 3.073 0 01-.906-2.187c0-.827.322-1.604.906-2.188a3.072 3.072 0 012.187-.906c.827 0 1.603.322 2.188.906.584.584.906 1.36.906 2.188 0 .826-.322 1.602-.906 2.187zM64.252 13.688a5.916 5.916 0 00-.739-7.451 5.87 5.87 0 00-4.176-1.73 5.87 5.87 0 00-4.177 1.73 5.868 5.868 0 00-1.73 4.177c0 1.577.615 3.06 1.73 4.176a5.867 5.867 0 004.177 1.73 5.87 5.87 0 002.836-.724A33.25 33.25 0 0169.188 36C69.188 54.3 54.3 69.188 36 69.188c-2.203 0-4.405-.217-6.546-.646a1.407 1.407 0 00-.552 2.758c2.322.464 4.71.7 7.098.7 9.616 0 18.657-3.745 25.456-10.544C68.256 54.656 72 45.616 72 36c0-8.09-2.747-15.983-7.748-22.312zM57.149 12.6a3.073 3.073 0 01-.906-2.188c0-.826.322-1.602.906-2.187a3.072 3.072 0 012.188-.906c.826 0 1.603.322 2.188.906a3.098 3.098 0 010 4.375 3.076 3.076 0 01-2.188.906 3.073 3.073 0 01-2.188-.906z" fill="rgba(185, 9, 27, 1)"/><path d="M30.197 60.188c0 .776.63 1.406 1.406 1.406h8.793c.777 0 1.406-.63 1.406-1.407v-2.726a22.02 22.02 0 005.278-2.187l1.925 1.925a1.407 1.407 0 001.99 0l6.214-6.22c.549-.55.549-1.44 0-1.989l-1.923-1.922a22.022 22.022 0 002.188-5.278h2.716c.776 0 1.406-.63 1.406-1.407v-8.792c0-.777-.63-1.407-1.406-1.407h-2.717a22.025 22.025 0 00-2.187-5.277l1.913-1.912a1.408 1.408 0 000-1.99l-6.22-6.215a1.406 1.406 0 00-1.99 0L47.08 16.7a22.024 22.024 0 00-5.278-2.186v-2.701c0-.777-.63-1.407-1.406-1.407h-8.793c-.776 0-1.406.63-1.406 1.406v2.702a22.008 22.008 0 00-5.277 2.187l-1.91-1.91a1.407 1.407 0 00-1.989 0l-6.22 6.215a1.404 1.404 0 000 1.989l1.912 1.912a22.018 22.018 0 00-2.187 5.277h-2.71c-.777 0-1.407.63-1.407 1.406l-.005 8.793a1.404 1.404 0 001.406 1.407h2.716a22.022 22.022 0 002.188 5.278L14.79 48.99a1.406 1.406 0 000 1.989l6.215 6.22a1.406 1.406 0 001.989 0l1.924-1.925c1.662.957 3.43 1.69 5.278 2.187v2.727zm-4.726-7.872a1.407 1.407 0 00-1.758.187L22 54.215l-4.227-4.23 1.71-1.711c.469-.469.547-1.2.187-1.757a19.25 19.25 0 01-2.664-6.429 1.407 1.407 0 00-1.375-1.11h-2.415l.003-5.981h2.412c.664 0 1.236-.463 1.375-1.11a19.251 19.251 0 012.664-6.429 1.406 1.406 0 00-.187-1.757l-1.7-1.7 4.231-4.227 1.698 1.698c.469.469 1.2.546 1.758.187a19.242 19.242 0 016.428-2.664 1.407 1.407 0 001.11-1.375V13.22h5.98v2.4c0 .664.464 1.237 1.112 1.376a19.254 19.254 0 016.428 2.663c.556.36 1.288.283 1.757-.186l1.698-1.698L54.215 22l-1.699 1.7a1.406 1.406 0 00-.187 1.757 19.262 19.262 0 012.664 6.428c.139.648.712 1.11 1.375 1.11h2.416v5.981h-2.416c-.663 0-1.235.463-1.375 1.111a19.245 19.245 0 01-2.664 6.428c-.36.557-.281 1.29.187 1.758l1.71 1.71L50 54.215l-1.712-1.71a1.406 1.406 0 00-1.758-.188A19.262 19.262 0 0140.1 54.98c-.648.14-1.111.712-1.111 1.375v2.426h-5.98v-2.426c0-.663-.464-1.235-1.111-1.375a19.25 19.25 0 01-6.428-2.664z" fill="#dc848d"/><path d="M47.62 36c0-6.407-5.213-11.62-11.62-11.62-6.407 0-11.62 5.213-11.62 11.62 0 6.407 5.213 11.62 11.62 11.62 6.407 0 11.62-5.213 11.62-11.62zm-20.427 0c0-4.857 3.95-8.808 8.807-8.808 4.856 0 8.807 3.952 8.807 8.808s-3.95 8.807-8.807 8.807-8.807-3.95-8.807-8.807z" fill="#dc848d"/><path d="M23.113 66.707c-.37 0-.733.15-.994.412a1.417 1.417 0 00-.412.994c0 .371.15.733.412.994.261.261.624.412.994.412s.733-.15.994-.412c.262-.261.412-.624.412-.994s-.15-.733-.412-.995a1.418 1.418 0 00-.994-.411z" fill="rgba(185, 9, 27, 1)"/></svg>