<svg width="72" height="72" fill="none" xmlns="http://www.w3.org/2000/svg"><path fill-rule="evenodd" clip-rule="evenodd" d="M64.415 57.988c-2.592-3.86-8.856-6.789-14.184-8.289-5.329-1.5-7.038-4.841-6.66-6.395.379-1.555 1.547-1.072 2.732-3.29C47.313 38.126 48 33.71 48 33.71s2.43-.803 2.7-4.447c.27-3.645 0-4.985-.918-5.413-.919-.429-1.297-.375-1.297-.375s.6-5.185.605-6.27c.004-1.376.13-2.727-.26-4.127-1.4-5.037-7.206-7.18-13.946-7.074-6.74.108-6.843 2.144-8.243 3.645-1.4 1.5-2.333.32-3.577 2.625-.752 1.393-.027 7.986-.027 7.986.226 1.824.48 3.215.48 3.215s-.379-.054-1.297.375c-.917.428-1.188 1.768-.917 5.413C21.57 32.907 24 33.71 24 33.71s.686 4.415 1.697 6.305c1.183 2.217 2.354 1.734 2.732 3.288.378 1.555-1.333 4.895-6.661 6.396-5.328 1.5-11.593 4.43-14.185 8.289-1.959 2.918-1.655 7.84-1.39 10.064C6.273 68.712 16.843 72 36.25 72c19.407 0 29.477-3.289 29.556-3.948.265-2.225.57-7.146-1.39-10.064z" fill="#dc848d"/><path d="M21 4h2V0h-2v4zM11 2V0a2 2 0 00-2 2h2zM9 12v2h4v-2H9zM21 0H11v4h10V0zm-8 12V2H9v10h4zM13 43v-2H9v2h4zm-2 10H9a2 2 0 002 2v-2zm10 2h2v-4h-2v4zM9 43v10h4V43H9zm12 8H11v4h10v-4zM51 4h-2V0h2v4zm10-2V0a2 2 0 012 2h-2zm2 10v2h-4v-2h4zM51 0h10v4H51V0zm8 12V2h4v10h-4zM59 43v-2h4v2h-4zm2 10h2a2 2 0 01-2 2v-2zm-10 2h-2v-4h2v4zm12-12v10h-4V43h4zm-12 8h10v4H51v-4z" fill="rgba(185, 9, 27, 1)"/><path d="M22.607 21.558c2.521.602 9.98.85 13.393.85 3.414 0 10.872-.248 13.393-.85-2.068 4.287-5.447 13.048-12.647 9.726a1.786 1.786 0 00-1.492 0c-7.2 3.322-10.579-5.439-12.647-9.726z" fill="#fff"/><path d="M31.491 28.448c-1.753-.058-2.373-2.142-2.373-3.142.92 0 5.195.959 4.875 1.714-.321.755-1.283 1.469-2.502 1.428zM40.51 28.448c1.752-.058 2.373-2.142 2.373-3.142-.92 0-5.196.959-4.875 1.714.32.755 1.283 1.469 2.501 1.428z" fill="#dc848d"/></svg>