<svg width="72" height="72" fill="none" xmlns="http://www.w3.org/2000/svg"><path d="M58.12 51c-9.062 0-13.997-1.59-14.033-1.913-.12-1.075-.264-3.46.69-4.87 1.199-1.87 4.083-3.287 6.596-4.02 2.512-.733 3.292-2.355 3.112-3.107-.18-.751-.725-.521-1.277-1.596a13.692 13.692 0 01-.768-3.063s-1.133-.391-1.26-2.155c-.125-1.765 0-2.417.427-2.622.185-.105.39-.168.6-.186 0 0-.12-.671-.223-1.554 0 0-.353-3.199 0-3.876.582-1.118.932-.27 1.667-1.168.736-.899 1.03-1.87 4.072-1.87 3.043 0 5.65 1.044 6.291 3.43.129.657.17 1.33.12 2 0 .553-.282 3.038-.282 3.038.21.018.415.081.6.186.425.205.552.857.425 2.622-.125 1.764-1.259 2.155-1.259 2.155a13.69 13.69 0 01-.791 3.057c-.552 1.074-1.104.838-1.278 1.596-.174.758.648 2.38 3.113 3.106 2.464.727 5.397 2.156 6.596 4.02.918 1.416.774 3.802.654 4.877 0 .323-4.732 1.913-13.793 1.913z" fill="#dc848d"/><path d="M23.226 53.853l.043.658.622.22.122.043C25.547 55.319 30.278 57 42.665 57c12.724 0 18.037-1.773 19.444-2.27l.622-.219.043-.658c.02-.307.054-.62.09-.965l.026-.243c.045-.431.09-.9.105-1.386.03-.976-.057-2.057-.515-3.168-.927-2.25-3.227-4.293-8.084-6.077-.29-.106-.675-.227-1.082-.355-.24-.075-.486-.153-.724-.231-.685-.224-1.402-.482-2.053-.798-1.371-.663-2.037-1.372-2.06-2.156.034-.033.1-.089.24-.188l.097-.069c.33-.23.903-.628 1.27-1.307.34-.631.649-1.7.864-2.555.127-.508.241-1.02.317-1.411.283-.172.598-.419.891-.776.514-.625.908-1.52 1.02-2.773.005-.068.012-.14.02-.217.06-.645.143-1.529-.027-2.271-.104-.451-.316-.936-.741-1.318a2.262 2.262 0 00-.516-.347c.533-3.148.393-5.893-.947-7.918C49.454 15.04 46.652 14 42.665 14c-2.061 0-4.438.357-5.862 2.334-.236.329-.383.447-.448.49a.482.482 0 01-.201.07 2.55 2.55 0 00-.78.257c-.347.187-.647.471-.938.866-.406.55-.567 1.287-.639 1.947-.075.694-.067 1.471-.022 2.227a35.48 35.48 0 00.34 3.038 2.27 2.27 0 00-.543.36c-.425.382-.637.867-.74 1.318-.171.742-.088 1.626-.027 2.271l.02.217c.11 1.253.505 2.148 1.019 2.773.284.346.588.59.865.76.052.377.131.88.23 1.404.164.863.419 1.983.777 2.647.333.616.787 1.002 1.058 1.232l.099.085c.226.198.196.21.188.214 0 0 0 0 0 0 0 .843-.615 1.537-1.85 2.169-.855.438-1.755.727-2.57.988-.367.117-.717.23-1.037.347-4.857 1.784-7.157 3.827-8.084 6.077-.458 1.111-.545 2.192-.515 3.168.015.486.06.955.105 1.386l.026.243c.036.344.07.658.09.965z" fill="rgba(185, 9, 27, 1)" stroke="#fff" stroke-width="2"/><path fill-rule="evenodd" clip-rule="evenodd" d="M46.236 51.463c-2.051-3.078-7.01-5.414-11.227-6.61-4.217-1.198-5.57-3.862-5.27-5.102.299-1.24 1.223-.854 2.161-2.622.8-1.508 1.343-5.029 1.343-5.029s1.923-.64 2.137-3.546c.213-2.907 0-3.976-.727-4.318-.727-.341-1.026-.3-1.026-.3s.475-4.134.478-5c.004-1.097.103-2.174-.205-3.291-1.109-4.017-5.704-5.727-11.039-5.642-5.334.086-5.416 1.71-6.524 2.907-1.108 1.196-1.847.256-2.832 2.094-.595 1.111-.02 6.369-.02 6.369.178 1.455.379 2.564.379 2.564s-.3-.043-1.027.3c-.726.341-.94 1.41-.726 4.317.214 2.905 2.137 3.546 2.137 3.546s.543 3.521 1.343 5.029c.937 1.768 1.863 1.383 2.162 2.623.3 1.24-1.054 3.903-5.272 5.1-4.217 1.197-9.175 3.533-11.227 6.611-1.55 2.327-1.31 6.252-1.1 8.027.062.526 8.428 3.148 23.79 3.148 15.36 0 23.33-2.622 23.393-3.148.21-1.775.451-5.7-1.1-8.027z" fill="#dc848d"/></svg>