<svg width="72" height="72" fill="none" xmlns="http://www.w3.org/2000/svg"><g clip-path="url(#clip0)"><path fill="rgba(185, 9, 27, 1)" d="M50.4 44.467h2.4v7.2h-2.4zM55.2 42.067h2.4v12h-2.4zM60 33.667h2.4v28.8H60zM64.8 39.667h2.4v16.8h-2.4zM69.6 44.467H72v7.2h-2.4z"/><path d="M31.2 69.667H6.228c-1.411 0-2.515-1.207-2.355-2.61.796-6.981 2.498-18.592 2.706-23.508.024-.572-.186-1.119-.548-1.563C2.689 37.886 0 32.684 0 25.866c0-7.2 3-23.4 24.6-23.4 17.28 0 21.6 15.6 21.6 23.4l4.488 9.974a2.4 2.4 0 01-1.04 3.091L45 41.467v12.201a3.6 3.6 0 01-3.977 3.58l-7.423-.781v10.8a2.4 2.4 0 01-2.4 2.4z" fill="#dc848d"/></g><defs><clipPath id="clip0"><path fill="#fff" d="M0 0h72v72H0z"/></clipPath></defs></svg>