<svg width="72" height="72" fill="none" xmlns="http://www.w3.org/2000/svg"><path fill-rule="evenodd" clip-rule="evenodd" d="M72 69V27.304a3 3 0 00-1.254-2.44l-33-23.615a3 3 0 00-3.492 0l-33 23.615A3 3 0 000 27.304V69a3 3 0 003 3h9V38a2 2 0 012-2h44a2 2 0 012 2v34h9a3 3 0 003-3z" fill="#dc848d"/><path fill-rule="evenodd" clip-rule="evenodd" d="M22 57a1 1 0 00-1 1v13a1 1 0 001 1h13a1 1 0 001-1V58a1 1 0 00-1-1h-5v3a1 1 0 01-1 1h-1a1 1 0 01-1-1v-3h-5zM39 57a1 1 0 00-1 1v13a1 1 0 001 1h13a1 1 0 001-1V58a1 1 0 00-1-1h-5v3a1 1 0 01-1 1h-1a1 1 0 01-1-1v-3h-5zM31 40a1 1 0 00-1 1v13a1 1 0 001 1h13a1 1 0 001-1V41a1 1 0 00-1-1h-5v3a1 1 0 01-1 1h-1a1 1 0 01-1-1v-3h-5z" fill="#dc848d"/><rect x="28" y="22" width="16" height="3" rx="1.5" fill="#fff"/></svg>