<svg width="398" height="259" fill="none" xmlns="http://www.w3.org/2000/svg"><path d="M115.826 132.174c-.654 3.082-2.08 2.101-2.697 1.242-.204 1.27-.613 1.845-1.122 1.845-.58 0-1.313-1.531-1.686-2.439-.276.691-.661 1.146-1.112.931-.581-.276-1.065-1.614-1.038-2.395-.161.422-.392.668-.721.539-.472-.187-.621-1.005-.924-2.061-.192.571-.43.917-.687.866-.485-.097-.69-.966-.714-1.366-.068-1.118-.081-3.686.404-5.012.485-1.326 1.799-4.643 3.148-5.912.306-1.27.834-3.535 1.288-4.669.452-1.423 5.194.593 7.508 1.779-.889 1.333-2.529 4.406-1.976 6.026.692 2.026 1.195 6.545.329 10.626z" fill="#103654"/><path d="M113.028 133.265c.546.879 2.105 2.174 2.798-1.091.866-4.081.363-8.6-.329-10.626-.553-1.62 1.087-4.693 1.976-6.026-2.314-1.186-7.056-3.202-7.508-1.779-.454 1.134-.982 3.399-1.288 4.669-1.349 1.269-2.663 4.586-3.148 5.912-.485 1.326-.472 3.894-.404 5.012.024.4.229 1.269.714 1.366.607.121 1.105-1.972 1.145-3.993m3.202 5.771c.298.785 1.159 2.781 1.821 2.781.828 0 1.392-1.521 1.238-5.082m-2.52-1.009c.128.295.308-.238 0 2.041-.185 1.363-.755 2.905-1.516 2.542-.619-.294-1.129-1.796-1.026-2.542m-1.718-1.583c.346 1.155.482 2.07.985 2.269 1.119.441 1.112-3.477 1.041-3.882M158.395 126.669c.145 4.342-1.592 13.895-5.499 16.066" stroke="#176293"/><path d="M183.802 249.013l-4.451-11.653 8.739-2.912c1.16 2.67 3.658 8.48 4.37 10.357-1.942 5.179-6.582 4.963-8.658 4.208z" fill="#103654" stroke="#176293"/><path d="M215.176 123.168l-.023-.006-.024-.005-1.407-.252-.341-.061-.177.298-1.001 1.686-1.35.946-.761.533.863.341 7.206 2.852h0l.004.002c.411.158.72.435.989.748a8.48 8.48 0 01.376.477c.114.151.243.318.378.451.352.345.686.829 1.093 1.821.43 1.048.853 2.432 1.492 4.535h0l.001.004 20.634 66.181.105.339.356.012 4.527.146.697.023-.202-.668-20.598-67.828h0v-.001l-.007-.02c-.59-1.944-1.09-3.593-1.637-4.926-.581-1.417-1.29-2.675-2.401-3.763-1.111-1.089-2.383-1.771-3.812-2.323-1.344-.52-3.003-.986-4.959-1.536l-.021-.006z" fill="#0F3856" stroke="#176293"/><path d="M352.176 156.263L230.765 145.39l17.862 58.764 88.017 1.812 15.532-49.703z" fill="#0F3856" stroke="#176293"/><path d="M240.784 145.39l17.862 58.764M253.132 147.209l17.482 57.515M253.346 147.913l17.268 56.811M267.409 148.648l17.147 56.412M280.561 149.882l17.048 56.084M293.75 150.971l16.717 54.995M307.157 152.136l16.362 53.83M321.524 153.533l15.56 51.191M334.718 154.61l8.869 29.18" stroke="#176293"/><path d="M265.012 204.224h-.5v5.802h42.683c6.431 0 11.645 5.214 11.645 11.645 0 6.432-5.214 11.645-11.645 11.645h-56.694v5.803h56.694c9.636 0 17.447-7.812 17.447-17.448s-7.811-17.447-17.447-17.447h-42.183z" fill="#0F3856" stroke="#176293"/><path d="M299.604 249.301a4.93 4.93 0 109.858 0 4.93 4.93 0 00-9.858 0zm4.928 3.929a3.929 3.929 0 11.001-7.857 3.929 3.929 0 01-.001 7.857zm-10.182-3.929c0-5.623 4.559-10.182 10.182-10.182 5.624 0 10.183 4.559 10.183 10.182 0 3.912-2.206 7.309-5.443 9.015h-4.74c-.513 0-1.008-.012-1.499-.023-.933-.022-1.849-.044-2.834.016-3.468-1.629-5.849-4.946-5.849-9.008zM255.469 249.301a4.928 4.928 0 109.857.001 4.928 4.928 0 00-9.857-.001zm4.928 3.929a3.929 3.929 0 11.001-7.857 3.929 3.929 0 01-.001 7.857zm-10.182-3.929c0-5.623 4.559-10.182 10.182-10.182 5.624 0 10.182 4.559 10.182 10.182 0 3.912-2.205 7.309-5.442 9.015h-4.74c-.513 0-1.008-.012-1.499-.023-.933-.022-1.849-.044-2.834.016-3.468-1.629-5.849-4.946-5.849-9.008z" stroke="#176293"/><path d="M106.025 113.049l1.737-7.788 15.574 3.954-1.977 7.368-15.334-3.534zM87.755 232.968c-.623-1.629 4.453-6.589 7.069-8.865 8.469 0 8.041 4.433 6.768 6.649-1.557 2.715-5.355 8.098-8.086 7.907-3.415-.24-4.972-3.654-5.75-5.691z" fill="#103654" stroke="#176293"/><path d="M97.605 257.805L78.69 236.286c1.039-.241 2.11-.1 2.515 0-.596-1.139-.752-3.654 1.366-5.349 1.884-1.507 5.18-1.742 6.781-1.224l8.795 6.707c1.13-.188 2.59-.047 2.684 1.883.094 1.931 1.272 12.197 1.319 13.61 1.742 0 8.288-.66 9.135 3.72.777.161.909 1.796.878 2.593l-14.557-.421z" fill="#103654"/><path d="M111.284 255.633c.777.161.909 1.796.878 2.593l-14.557-.421-18.916-21.519c1.039-.241 2.11-.1 2.515 0m30.08 19.347c-.777-.161-8.761-.067-12.656 0l-17.424-19.347m30.08 19.347c-.847-4.38-7.393-3.72-9.135-3.72-.047-1.413-1.225-11.679-1.319-13.61-.094-1.93-1.554-2.071-2.684-1.883l-8.795-6.707c-1.601-.518-4.897-.283-6.781 1.224-2.118 1.695-1.962 4.21-1.366 5.349M99.13 246.533c.919.298 2.95.868 3.722.758M99.13 243.845c.919.299 2.95.869 3.722.759M99.13 241.158c.919.298 2.95.868 3.722.758" stroke="#176293"/><path d="M183.771 256.044c-5.308-3.86-2.62-7.996-1.241-9.719l8.401-5.352c5.777-.689 12.277 1.63 15.034 1.63 7.057-.882 11.211 1.608 12.406 2.964 1.158.275 1.126 1.815.965 2.55l-32.44 10.094h-3.246c-.079-.58.121-1.577.121-2.167z" fill="#103654"/><path d="M183.771 256.044c-5.308-3.86-2.62-7.996-1.241-9.719l8.401-5.352c5.777-.689 12.277 1.63 15.034 1.63 7.057-.882 11.211 1.608 12.406 2.964m-34.6 10.477c11.051-3.608 33.442-10.753 34.6-10.477m-34.6 10.477c0 .59-.2 1.587-.121 2.167h3.246l32.44-10.094c.161-.735.193-2.275-.965-2.55M195.964 240.92c-.282.393-.829 1.441-.753 2.496M198.507 241.438c-.283.393-.829 1.441-.753 2.496M201.05 242.168c-.283.393-.829 1.441-.754 2.496" stroke="#176293"/><path d="M139.291 200.627l-35.62 31.16c-1.537.103-6.492-4.896-7.81-6.338-1.459-1.598-1.941-2.674-1.582-3.401 6.224-12.592 30.495-33.872 35.333-44.062 4.837-10.19 1.543-33.349 1.132-39.627-.33-5.023 2.473-11.14 3.916-13.571l14.177 10.3 2.901 44.987c-.926 10.305-8.684 17.995-12.447 20.552z" fill="#103654" stroke="#176293"/><path d="M141.336 155.643c-15.433-16.632-7.313-31.115-3.181-36.749v-4.824l26.989 4.824v6.171c2.113 4.754 25.209 107.659 24.832 108.288-.378.629-8.176 3.522-13.081 4.276-4.356-4.853-31.476-73.455-35.231-81.517a1.732 1.732 0 00-.328-.469zM203.999 112.862l-5.849-5.318c-4.852-1.095-5.631 2.84-5.414 4.945l9.4 7.286c0 .289.261.796.441 1.855.369 2.169.614 3.847 1.637 3.888.819.033 1.023-.505 1.023-.778-.37-.865-.701-2.748-.256-3.355.443-.604.859-.257 1.163-.004l.005.004c.952.082 2.938.993 2.57 2.139-.368 1.146-2.09 1.953-1.313 2.935.622.786 2.169.028 2.865-.45 1.476-.682 4.539-3.26 2.815-5.211-1.286-1.455-2.991-3.036-4.573-4.296-1.512-1.203-3.084-2.34-4.514-3.64z" fill="#103654" stroke="#176293"/><path d="M191.255 113.615l-23.199-17.64c-3.279-5.047-.815-19.545.827-26.163l4.261 9.449 26.871 26.353-8.76 8.001zM134.13 20.157c-.101 7.547 7.377 13.558 11.129 15.62 5.172-5.735 15.514-17.743 15.514-19.886 1.438-1.378 4.424-4.539 4.676-8.06.251-3.522-1.887-6.415-7.673-6.793-5.786-.377-8.678 3.019-11.32 5.409-4.276.126-12.2 4.276-12.326 13.71z" fill="#103654" stroke="#176293"/><path d="M159.789 50.092c14.716 5.786 8.394 51.809 4.052 68.598l-23.373-4.008c-2.516-10.44-7.188-32.588-6.383-37.317-3.097 2.338-5.886 4.526-6.251 5.555-.645 1.816-4.758 17.592-6.735 25.254-3.271-.697-10.116-2.209-11.329-2.681 1.617-7.007 3.152-19.871 3.717-25.427.175-3.514 1.507-6.623 2.635-7.906 4.611-5.246 14.405-16.382 16.689-18.958 1.759-1.985 3.857-3.325 7.18-4.062 1.051-1.417 3.104-4.456 3.166-5.327 5.081 1.057 15.52 3.792 16.632 6.28z" fill="#103654"/><path d="M134.085 77.365c-.805 4.73 3.867 26.877 6.383 37.317l23.373 4.008c4.342-16.789 10.664-62.812-4.052-68.598-1.112-2.487-11.551-5.222-16.632-6.279-.062.871-2.115 3.91-3.166 5.327m7.849-.683c-8.428 0-12.174 1.524-15.029 4.745a12363.762 12363.762 0 00-16.689 18.958c-1.128 1.283-2.46 4.392-2.635 7.906-.565 5.556-2.1 18.42-3.717 25.427 1.213.472 8.058 1.984 11.329 2.681 1.977-7.662 6.09-23.438 6.735-25.254.805-2.269 13.395-10.174 15.078-12.883" stroke="#176293"/><path d="M157.538 37.537v4.566c-1.241 1.59-4.509 4.114-7.654 1.48-3.146-2.634-4.293-4.26-4.473-4.745V35.65c.761-1.492 2.342-5.059 2.587-7.385-1.684-.613-3.303-1.203-3.303-3.09 0-1.438 1.211-2.88 3.762-2.472v-6.888c1.64-.21 5.564-1.794 8.148-6.44.933 1.089 4.324 7.668 6.947 9.84 2.624 2.171 5.746 4.026 1.991 5.519-.664.045-1.755.624-.814 2.578 1.176 2.443 1.719 4.298 1.447 6.47-.199 1.596-3.21 5.76-8.638 3.755z" fill="#103654"/><path d="M157.538 37.537v4.566c-1.241 1.59-4.509 4.114-7.654 1.48-3.146-2.634-4.293-4.26-4.473-4.745V35.65c.761-1.492 2.342-5.059 2.587-7.385-1.684-.613-3.303-1.203-3.303-3.09 0-1.438 1.211-2.88 3.762-2.472v-6.888c1.64-.21 5.564-1.794 8.148-6.44.933 1.089 4.324 7.668 6.947 9.84 2.624 2.171 5.746 4.026 1.991 5.519-.664.045-1.755.624-.814 2.578 1.176 2.443 1.719 4.298 1.447 6.47-.271 2.171-5.745 9.093-15.426-1.222" stroke="#176293"/><path d="M143.001 43.658v-5.364l16.17 4.664v9.64l-16.17-8.94z" fill="#103654" stroke="#176293"/><ellipse cx="158.624" cy="19.441" rx="1.09" ry="1.312" fill="#176293"/><path d="M157.536 14.962c-1.584.86-2.851 3.077-2.851 5.113M155.907 28.941c1.674 1.9 3.574 3.755 6.514 3.122" stroke="#176293"/><circle cx="206.931" cy="122.458" r="2.238" fill="#0F3856" stroke="#176293"/><ellipse cx="31.229" cy="256.756" rx=".562" ry="1.478" transform="rotate(-30.561 31.229 256.756)" fill="#176293"/><ellipse cx="32.887" cy="255.835" rx=".943" ry="2.332" transform="rotate(12.337 32.887 255.835)" fill="#176293"/><ellipse cx="33.682" cy="257.09" rx=".835" ry="1.641" transform="rotate(52.577 33.682 257.09)" fill="#176293"/><ellipse cx="62.976" cy="256.758" rx=".562" ry="1.478" transform="rotate(-30.561 62.976 256.758)" fill="#176293"/><ellipse cx="64.212" cy="256.018" rx=".943" ry="2.332" transform="rotate(.683 64.212 256.018)" fill="#176293"/><ellipse cx="65.245" cy="257.087" rx=".835" ry="1.641" transform="rotate(40.924 65.245 257.087)" fill="#176293"/><ellipse cx="370.616" cy="257.098" rx=".562" ry="1.478" transform="rotate(-42.291 370.616 257.098)" fill="#176293"/><ellipse cx="372.027" cy="256.031" rx=".943" ry="2.332" transform="rotate(.683 372.027 256.031)" fill="#176293"/><ellipse cx="373.539" cy="257.098" rx=".835" ry="1.641" transform="rotate(51.703 373.539 257.098)" fill="#176293"/><path stroke="#176293" d="M.972 258.27h396.252"/></svg>