<?xml version="1.0" encoding="iso-8859-1"?>
<!-- Uploaded to: SVG Repo, www.svgrepo.com, Generator: SVG Repo Mixer Tools -->
<!DOCTYPE svg PUBLIC "-//W3C//DTD SVG 1.1//EN" "http://www.w3.org/Graphics/SVG/1.1/DTD/svg11.dtd">
<svg fill="#000000" version="1.1" id="Capa_1" xmlns="http://www.w3.org/2000/svg" xmlns:xlink="http://www.w3.org/1999/xlink" 
	 width="800px" height="800px" viewBox="0 0 411.813 411.814"
	 xml:space="preserve">
<g>
	<g>
		<path d="M403.126,214.4l-42.517-75.443c-5.263-9.337-17.775-16.65-28.487-16.65h-27.32c-11.538,0-20.927,9.386-20.927,20.925
			v71.185c0,11.539,9.389,20.928,20.927,20.928h57.944c2.415,0,4.372-1.957,4.372-4.371c0-2.416-1.957-4.371-4.372-4.371h-57.944
			c-6.718,0-12.184-5.467-12.184-12.186v-71.185c0-6.716,5.466-12.183,12.184-12.183h27.32c7.583,0,17.145,5.587,20.871,12.2
			l42.516,75.441c4.1,7.279,7.562,20.484,7.562,28.836v56.289c0,6.719-5.466,12.184-12.185,12.184h-18.014
			c-2.414,0-4.371,1.957-4.371,4.371c0,2.416,1.957,4.371,4.371,4.371h18.014c11.539,0,20.928-9.387,20.928-20.926v-56.289
			C411.814,237.599,407.997,223.048,403.126,214.4z"/>
		<path d="M322.629,285.31c-6.492,0-12.831,1.785-18.334,5.172c-2.057,1.264-2.698,3.955-1.434,6.012
			c1.268,2.055,3.962,2.697,6.013,1.434c4.124-2.535,8.88-3.875,13.755-3.875c14.513,0,26.321,11.807,26.321,26.316
			c0,14.512-11.809,26.316-26.321,26.316c-14.512,0-26.317-11.805-26.317-26.316c0-2.414-1.957-4.371-4.372-4.371h-19.04
			c-2.415,0-4.371,1.957-4.371,4.371c0,2.416,1.956,4.373,4.371,4.373h14.972c2.162,17.271,16.91,30.688,34.758,30.688
			c19.334,0,35.064-15.727,35.064-35.061C357.693,301.039,341.963,285.31,322.629,285.31z"/>
		<path d="M245.176,105.963c-13.391,0-13.777-14.796-13.777-16.484V77.579c0-11.688-9.509-21.194-21.194-21.194H21.194
			C9.509,56.384,0,65.891,0,77.579v91.51c0,2.415,1.955,4.372,4.371,4.372h89.195c2.415,0,4.372-1.957,4.372-4.372v-32.605
			l69.756,52.319c0.451,0.336,0.72,0.717,0.724,1.018c0,0.297-0.262,0.682-0.705,1.025l-69.775,54.073v-34.488
			c0-2.414-1.957-4.371-4.372-4.371H4.371c-2.417,0-4.371,1.957-4.371,4.371v93.523c0,11.885,6.779,21.193,15.431,21.193h78.703
			c2.158,17.047,16.723,30.283,34.347,30.283c19.108,0,34.653-15.547,34.653-34.654s-15.547-34.65-34.653-34.65
			c-6.416,0-12.681,1.766-18.121,5.109c-2.056,1.264-2.698,3.957-1.434,6.012c1.264,2.059,3.958,2.703,6.013,1.436
			c4.06-2.494,8.743-3.814,13.541-3.814c14.289,0,25.91,11.621,25.91,25.908s-11.621,25.91-25.91,25.91
			c-14.288,0-25.91-11.625-25.91-25.91c0-2.414-1.957-4.371-4.372-4.371H15.431c-3.156,0-6.688-5.326-6.688-12.451V214.8h80.452
			v31.619c0,3.676,1.52,6.527,4.172,7.828c0.946,0.465,1.958,0.691,3.002,0.691c1.885-0.002,3.869-0.744,5.737-2.191l70.964-54.993
			c2.622-2.034,4.114-4.952,4.092-8.007c-0.028-3.055-1.565-5.948-4.222-7.94l-70.817-53.115c-2.927-2.194-6.124-2.696-8.771-1.375
			c-2.642,1.322-4.158,4.181-4.158,7.842v29.556H8.743V77.579c0-6.867,5.585-12.452,12.452-12.452h189.01
			c6.867,0,12.452,5.585,12.452,12.452v11.901c0,12.149,7.047,25.227,22.52,25.227c3.656,0,7.729,5.113,7.729,12.452v176.795
			c0,6.867-5.585,12.451-12.451,12.451h-55.694c-2.414,0-4.371,1.957-4.371,4.371c0,2.416,1.957,4.371,4.371,4.371h55.694
			c11.688,0,21.194-9.508,21.194-21.193V127.158C261.647,115.47,254.258,105.963,245.176,105.963z"/>
	</g>
</g>
</svg>