<?xml version="1.0" ?>

<!DOCTYPE svg  PUBLIC '-//W3C//DTD SVG 1.1//EN'  'http://www.w3.org/Graphics/SVG/1.1/DTD/svg11.dtd'>

<!-- Uploaded to: SVG Repo, www.svgrepo.com, Generator: SVG Repo Mixer Tools -->
<svg fill="#000000" width="800px" height="800px" viewBox="0 0 48 48" style="fill-rule:evenodd;clip-rule:evenodd;stroke-linejoin:round;stroke-miterlimit:1.41421;" version="1.1" xml:space="preserve" xmlns="http://www.w3.org/2000/svg" xmlns:serif="http://www.serif.com/" xmlns:xlink="http://www.w3.org/1999/xlink">

<g id="audio_player_wave_visualization">

<path d="M6.624,36.352L6.624,32.628C6.982,32.256 7.35,31.906 7.735,31.583L7.735,36.352L6.624,36.352ZM8.714,36.352L8.714,30.853C9.067,30.619 9.433,30.406 9.822,30.217L9.824,36.352L8.714,36.352ZM10.806,36.352L10.804,29.809C11.157,29.683 11.527,29.577 11.912,29.489L11.914,36.352L10.806,36.352ZM12.895,36.352L12.893,29.313C13.248,29.264 13.619,29.23 14.004,29.21L14.006,36.352L12.895,36.352ZM14.987,36.352L14.985,29.196C15.342,29.2 15.711,29.217 16.095,29.247L16.097,36.352L14.987,36.352ZM17.077,36.352L17.077,29.345C17.434,29.389 17.804,29.442 18.185,29.504L18.185,36.352L17.077,36.352ZM19.166,36.352L19.164,29.709C19.528,29.796 19.896,29.9 20.275,30.013L20.277,36.352L19.166,36.352ZM21.256,36.352L21.254,30.328C21.618,30.451 21.99,30.579 22.367,30.715L22.367,36.352L21.256,36.352ZM23.349,36.352L23.349,31.073C23.712,31.206 24.082,31.341 24.457,31.479L24.459,36.352L23.349,36.352ZM25.439,36.352L25.437,31.832C25.803,31.962 26.172,32.092 26.548,32.215L26.55,36.352L25.439,36.352ZM27.527,36.352L27.527,32.537C27.893,32.652 28.266,32.76 28.636,32.864L28.638,36.352L27.527,36.352ZM29.619,36.352L29.616,33.124C29.983,33.213 30.355,33.296 30.726,33.373L30.728,36.352L29.619,36.352ZM31.711,36.352L31.709,33.547C32.078,33.607 32.447,33.654 32.819,33.692L32.821,36.352L31.711,36.352ZM33.8,36.352L33.798,33.764C34.168,33.781 34.538,33.789 34.909,33.781L34.911,36.352L33.8,36.352ZM35.892,36.352L35.89,33.735C36.255,33.705 36.628,33.66 36.999,33.602L37.001,36.352L35.892,36.352ZM37.98,36.352L37.98,33.413C38.35,33.33 38.718,33.229 39.088,33.112L39.09,36.352L37.98,36.352ZM40.071,36.352L40.069,32.76C40.442,32.611 40.811,32.445 41.18,32.262L41.182,36.352L40.071,36.352ZM31.709,32.234L31.706,24.053L32.817,24.053L32.819,32.287C32.462,32.281 32.094,32.264 31.709,32.234ZM33.8,32.271L33.798,24.053L34.909,24.053L34.911,32.168C34.556,32.217 34.185,32.252 33.8,32.271ZM29.616,31.977L29.616,24.053L30.726,24.053L30.728,32.137C30.37,32.094 30,32.041 29.616,31.977ZM35.892,31.992L35.89,24.053L36.999,24.053L37.001,31.674C36.647,31.799 36.277,31.904 35.892,31.992ZM27.527,31.469L27.527,24.053L28.636,24.053L28.638,31.773C28.276,31.686 27.908,31.583 27.527,31.469ZM37.98,31.264L37.98,24.053L39.088,24.053L39.088,30.63C38.735,30.864 38.371,31.075 37.98,31.264ZM25.437,30.767L25.437,24.053L26.548,24.053L26.55,31.153C26.184,31.03 25.814,30.9 25.437,30.767ZM23.347,30.004L23.345,24.053L24.454,24.053L24.454,30.408C24.092,30.277 23.722,30.139 23.347,30.004ZM40.069,29.898L40.069,24.053L41.178,24.053L41.18,28.853C40.823,29.223 40.454,29.575 40.069,29.898ZM21.256,29.264L21.254,24.053L22.364,24.053L22.367,29.649C22.001,29.519 21.63,29.391 21.256,29.264ZM6.624,29.221L6.622,24.053L7.733,24.053L7.735,28.721C7.362,28.87 6.992,29.034 6.624,29.221ZM19.166,28.617L19.164,24.053L20.275,24.053L20.277,28.947C19.909,28.832 19.539,28.721 19.166,28.617ZM8.714,28.373L8.712,24.053L9.822,24.053L9.824,28.068C9.454,28.153 9.087,28.253 8.714,28.373ZM17.077,28.11L17.077,24.053L18.185,24.053L18.185,28.357C17.822,28.268 17.449,28.183 17.077,28.11ZM14.985,27.789L14.983,24.053L16.093,24.053L16.095,27.932C15.726,27.876 15.357,27.825 14.985,27.789ZM10.806,27.879L10.804,24.053L11.912,24.053L11.914,27.749C11.546,27.776 11.176,27.821 10.806,27.879ZM12.895,27.698L12.893,24.053L14.004,24.053L14.006,27.717C13.635,27.698 13.266,27.694 12.895,27.698Z" id="Group_35"/>

<path d="M6.913,13.083C6.913,12.577 7.327,12.164 7.833,12.164C8.339,12.164 8.75,12.577 8.75,13.083C8.75,13.588 8.339,14 7.833,14C7.327,14 6.913,13.588 6.913,13.083ZM9.514,13.083C9.514,12.577 9.924,12.164 10.431,12.164C10.938,12.164 11.35,12.577 11.35,13.083C11.35,13.588 10.938,14 10.431,14C9.924,14 9.514,13.588 9.514,13.083ZM12.113,13.083C12.113,12.577 12.525,12.164 13.03,12.164C13.535,12.164 13.949,12.577 13.949,13.083C13.949,13.588 13.535,14 13.03,14C12.525,14 12.113,13.588 12.113,13.083Z"/>

<path d="M3.552,35.198L3.552,12.269C3.552,10.599 4.907,9.244 6.578,9.244L41.227,9.244C42.895,9.244 44.255,10.597 44.255,12.269L44.255,35.198C44.255,36.869 42.897,38.224 41.227,38.224L6.578,38.224C4.907,38.224 3.552,36.869 3.552,35.198ZM42.34,35.198L42.34,24.797L5.466,24.797L5.466,35.198C5.466,35.812 5.965,36.31 6.578,36.31L41.227,36.31C41.839,36.31 42.34,35.812 42.34,35.198ZM42.34,23.733L42.34,12.269C42.34,11.659 41.841,11.159 41.227,11.159L6.578,11.159C5.965,11.159 5.466,11.657 5.466,12.269L5.466,23.733L42.34,23.733Z"/>

<path d="M8.207,18.939C8.207,18.647 8.445,18.407 8.739,18.407L39.531,18.407C39.822,18.407 40.063,18.647 40.063,18.939C40.063,19.232 39.822,19.471 39.531,19.471L8.739,19.471C8.445,19.471 8.207,19.232 8.207,18.939Z"/>

<path d="M18.593,16.657C19.779,16.657 20.746,17.624 20.746,18.81C20.746,19.996 19.779,20.963 18.593,20.963C17.407,20.963 16.44,19.996 16.44,18.81C16.44,17.624 17.407,16.657 18.593,16.657Z"/>

</g>

</svg>