<svg width="156" height="45" fill="none" xmlns="http://www.w3.org/2000/svg"><g clip-path="url(#clip0)"><path d="M26.843 42.597c7.455-1.319 13.612-2.41 13.683-2.425l.128-.027-7.038-8.382c-3.87-4.61-7.038-8.4-7.038-8.422 0-.042 7.268-20.08 7.308-20.15.014-.025 4.96 8.525 11.989 20.723L57.932 44.84l.091.16-22.367-.003-22.367-.003 13.554-2.397zm85.776-2.027c-3.405-.219-5.385-2.16-5.91-5.794-.14-.966-.14-.991-.154-7.266l-.014-6.073h3.013l.012 5.874c.011 5.294.018 5.915.068 6.287.205 1.512.614 2.528 1.309 3.258.557.584 1.208.926 2.11 1.107.425.086 1.636.086 2.024 0a4.47 4.47 0 002.293-1.246c.737-.738 1.282-1.784 1.546-2.967l.089-.399.01-5.924.01-5.924h3.076v18.625h-3.045v-1.477c0-1.004-.011-1.474-.034-1.466-.019.006-.097.126-.174.266a6.193 6.193 0 01-2.356 2.362c-1.149.633-2.3.858-3.873.757zm34.558-.015a7.975 7.975 0 01-3.502-1.145c-2.18-1.35-3.47-3.576-3.848-6.64-.13-1.059-.146-2.483-.037-3.383.244-2.013 1.033-3.988 2.158-5.399.288-.361.942-1.016 1.303-1.305a8.122 8.122 0 013.327-1.59c.705-.154 1.948-.226 2.697-.157 1.883.175 3.609 1.063 4.782 2.46 1.192 1.42 1.847 3.403 1.931 5.845.013.383.016 1.054.007 1.492l-.017.795-6.595.009-6.595.008v.294c0 .898.218 1.92.594 2.789.325.75.884 1.568 1.342 1.964a5.892 5.892 0 003.343 1.415c.466.044 1.654-.002 2.185-.084 1.515-.233 2.955-.828 4.118-1.7.137-.104.268-.2.291-.214.034-.022.042.247.042 1.375l-.001 1.402-.312.193a10.906 10.906 0 01-4.419 1.534c-.477.058-2.225.084-2.794.042zm5.739-11.824c0-1.502-.632-3.172-1.527-4.031-.639-.614-1.411-.988-2.329-1.13-.434-.068-1.349-.042-1.807.05a4.726 4.726 0 00-2.467 1.313 6.746 6.746 0 00-1.632 2.616c-.124.362-.27.956-.315 1.286l-.022.158h10.099v-.262zM63.457 40.087c.008-.023 2.247-5.914 4.977-13.09l4.963-13.05h3.188l.133.34c.404 1.038 9.935 25.813 9.935 25.826 0 .008-.764.015-1.697.015H83.26l-1.374-3.662-1.373-3.662H69.452l-.049.124c-.026.069-.613 1.716-1.304 3.662l-1.256 3.537h-1.7c-1.345.001-1.697-.008-1.686-.04zM79.503 30.01c0-.006-.924-2.515-2.054-5.576-2.114-5.727-2.232-6.072-2.399-6.99-.078-.432-.118-.444-.164-.05-.033.28-.177.91-.289 1.259-.055.173-1.006 2.789-2.115 5.813a895.873 895.873 0 00-2.015 5.526c0 .015 2.033.028 4.518.028s4.518-.005 4.518-.01zm8.176 9.641v-.477l5.51-7.584 5.51-7.585-4.989-.017-4.989-.016-.008-1.268-.01-1.267h14.433v.856l-5.511 7.626c-3.031 4.194-5.511 7.633-5.511 7.642 0 .008 2.45.015 5.445.015h5.444v2.552H87.679v-.477zm40.435.455c-.012-.012-.022-4.218-.022-9.346v-9.323h3.012v1.922c0 1.057.013 1.922.029 1.922.015 0 .089-.173.163-.384a6.631 6.631 0 011.682-2.595 4.356 4.356 0 012.379-1.185c.259-.041.477-.05.993-.036.649.017.988.064 1.382.194l.124.04V24.446l-.355-.179c-.629-.315-1.249-.44-1.995-.4-.485.025-.803.087-1.191.233a3.77 3.77 0 00-1.898 1.552 9.026 9.026 0 00-1.26 3.626c-.024.222-.039 2.028-.045 5.59l-.008 5.26h-1.484c-.816 0-1.494-.01-1.506-.022zM0 40.041c0-.012 3.316-5.776 7.37-12.81l7.369-12.787 8.588-7.217C28.051 3.258 31.928.007 31.944 0c.015-.006-.047.15-.139.348L22.48 20.376l-9.16 19.67-6.66.008C2.997 40.058 0 40.052 0 40.04z" fill="#0089D6"/></g><defs><clipPath id="clip0"><path fill="#fff" d="M0 0h156v45H0z"/></clipPath></defs></svg>