<?xml version="1.0" encoding="utf-8"?>
<!-- Uploaded to: SVG Repo, www.svgrepo.com, Generator: SVG Repo Mixer Tools -->
<svg width="800px" height="800px" viewBox="0 -62.16 407.338 407.338" xmlns="http://www.w3.org/2000/svg"><defs><style>.a{fill:#ffffff;}.b{fill:#211715;}.c{fill:#d9d9d9;}.d{fill:#3f88c9;}</style></defs><path class="a" d="M390,240.753a.2.2,0,0,1-.388,0c-.761-3.208-2.34-8.5-4.753-10.775a19.406,19.406,0,0,0-9.736-4.376.2.2,0,0,1,.011-.4c4.3-.621,7.856-1.91,10.554-5.277,2.472-3.086,3.29-6.281,3.684-10.009a.2.2,0,0,1,.392-.031c.776,3.351,2.629,8.187,4.262,10.261,2.45,3.112,5.678,4.065,10.762,5.034a.2.2,0,0,1-.017.4,16.94,16.94,0,0,0-10.524,4.783C391.747,232.636,390.537,238.553,390,240.753Z"/><path class="a" d="M17.425,33.4a.2.2,0,0,1-.389,0c-.76-3.208-2.339-8.5-4.752-10.775a19.409,19.409,0,0,0-9.737-4.376.2.2,0,0,1,.011-.4c4.3-.621,7.857-1.91,10.554-5.277C15.585,9.484,16.4,6.29,16.8,2.562a.2.2,0,0,1,.393-.031c.776,3.351,2.629,8.186,4.262,10.261,2.45,3.112,5.678,4.065,10.762,5.034a.2.2,0,0,1-.017.4,16.937,16.937,0,0,0-10.524,4.783C19.175,25.281,17.965,31.2,17.425,33.4Z"/><path class="b" d="M388.3,239.056l-.113.137,1.7-.7h-.164l1.7.7-.111-.138.617,1.059c-.92-3.829-2.132-7.971-4.671-11.063a14.636,14.636,0,0,0-4.889-3.619,26.407,26.407,0,0,0-3.178-1.31q-.852-.288-1.726-.5c-.271-.066-1.288-.211-1.278-.2l1.188,2.073,0-.177-1.188,2.073c-.02.014.9-.084,1.112-.126.491-.1.98-.2,1.464-.332a20.4,20.4,0,0,0,2.97-1.046,14.984,14.984,0,0,0,5.021-3.53c3.225-3.49,4.5-7.813,5.016-12.435l-.328,1.211.1-.16-2.073,1.189.172-.014-1.7-.7.12.143-.617-1.059c.968,4.064,2.484,8.637,5.3,11.819,2.909,3.293,7.265,4.355,11.4,5.152l-1.059-.617.151.119-.7-1.7-.008.177,1.189-2.072-.161.1,1.211-.328c-4.681.463-9.658,2.369-12.775,6.072-2.542,3.021-3.4,7.121-4.311,10.863-.73,3,3.9,4.28,4.629,1.276a31.532,31.532,0,0,1,2.475-7.751c1.327-2.434,4.352-4.282,7.081-5.089,1.778-.526,4.769-.225,5.376-2.436A2.664,2.664,0,0,0,406,223.109a11.755,11.755,0,0,0-3.151-.779c-2.744-.639-5.534-1.617-7.136-3.931a20.076,20.076,0,0,1-2.105-4.256q-.478-1.249-.879-2.527a23.4,23.4,0,0,0-.771-2.655,2.592,2.592,0,0,0-2.485-1.6c-1.761.065-2.356,1.475-2.546,2.972a19.216,19.216,0,0,1-1.182,4.89,11.682,11.682,0,0,1-7.2,6.774,21.569,21.569,0,0,1-2.517.638c-1.108.217-2.185.26-2.932,1.228a2.546,2.546,0,0,0,.425,3.515,6.96,6.96,0,0,0,2.859.922,18.139,18.139,0,0,1,5.586,2.431,8.709,8.709,0,0,1,3.012,3.661,29.622,29.622,0,0,1,1.9,5.354,5.931,5.931,0,0,0,1.093,2.775,2.564,2.564,0,0,0,3.727-.067,2.47,2.47,0,0,0,0-3.394A2.417,2.417,0,0,0,388.3,239.056Z"/><path class="b" d="M15.727,31.7l-.112.138,1.7-.7h-.165l1.7.7-.112-.138.618,1.059c-.92-3.83-2.132-7.971-4.671-11.063a14.636,14.636,0,0,0-4.889-3.619,26.407,26.407,0,0,0-3.178-1.31q-.852-.288-1.726-.5c-.271-.066-1.288-.211-1.279-.2L4.8,18.135l0-.177L3.614,20.031c-.02.014.9-.085,1.112-.126.491-.1.98-.205,1.464-.332a20.4,20.4,0,0,0,2.97-1.046A14.987,14.987,0,0,0,14.181,15c3.225-3.489,4.505-7.812,5.015-12.434l-.327,1.211.1-.16L16.9,4.8l.172-.014-1.7-.7.12.143-.618-1.059c.969,4.064,2.485,8.637,5.3,11.819,2.909,3.293,7.265,4.355,11.4,5.152l-1.059-.617.151.119-.7-1.7-.007.177,1.189-2.072-.161.1,1.211-.328c-4.682.463-9.658,2.369-12.775,6.072-2.543,3.02-3.4,7.121-4.311,10.862-.73,3,3.9,4.281,4.629,1.277a31.5,31.5,0,0,1,2.475-7.751C23.541,23.851,26.566,22,29.3,21.2c1.777-.526,4.769-.225,5.376-2.436a2.665,2.665,0,0,0-1.247-3.006,11.765,11.765,0,0,0-3.151-.779c-2.744-.639-5.535-1.617-7.136-3.931a20.127,20.127,0,0,1-2.106-4.256q-.477-1.25-.878-2.527a23.606,23.606,0,0,0-.771-2.655A2.592,2.592,0,0,0,16.9,0c-1.762.065-2.356,1.475-2.546,2.972a19.216,19.216,0,0,1-1.182,4.89,11.685,11.685,0,0,1-7.2,6.774,21.62,21.62,0,0,1-2.517.638c-1.108.216-2.185.259-2.932,1.228a2.545,2.545,0,0,0,.425,3.515,6.96,6.96,0,0,0,2.859.922,18.16,18.16,0,0,1,5.586,2.431A8.709,8.709,0,0,1,12.4,27.033a29.7,29.7,0,0,1,1.9,5.354A5.931,5.931,0,0,0,15.4,35.162a2.564,2.564,0,0,0,3.727-.067,2.472,2.472,0,0,0,0-3.395A2.42,2.42,0,0,0,15.727,31.7Z"/><path class="a" d="M53.733,30.26a16.615,16.615,0,0,1,9.058-2.666c54.12.008,217.291.04,273.992.047a16.684,16.684,0,0,1,16.69,16.68c.02,33.649.073,112.875.094,157.811h-.34c-4.66.27-283.16.53-306.66.53H46.5c-.109-43.929-.333-121.654-.4-158.338A16.685,16.685,0,0,1,53.733,30.26Z"/><path class="a" d="M163.264,280.551l-12.236,0c-2.6,0-2.841-6.91-2.049-8.624s2.359-2.815,5.073-3.331c9.4-1.789,11.727-6.864,12.508-15.858.334-3.855.68-6.247.87-10.088.123-2.484.338-5.257.709-9.033,20.811-.02,42.445-.049,63.293-.08.374,3.817.592,6.611.715,9.113.19,3.841.536,6.233.871,10.088.78,8.994,3.108,14.069,12.508,15.858,2.714.516,4.28,1.617,5.073,3.331s.911,8.643-1.756,8.643C244.857,280.568,189.019,280.555,163.264,280.551Z"/><path class="c" d="M55.722,231.8a16.622,16.622,0,0,0,7.434,1.774c53.443.206,219.066-.128,273.757-.223a16.682,16.682,0,0,0,16.665-16.694c0-4.26,0-9.148-.011-14.529h-.34c-4.66.27-283.16.53-306.66.53H46.5c.011,5.284.022,10.079.031,14.255A16.7,16.7,0,0,0,55.722,231.8Z"/><path class="a" d="M171.248,280.552l-20.22,0c-2.6,0-2.841-6.91-2.049-8.624s2.359-2.815,5.073-3.331a18.5,18.5,0,0,0,6.226-2.211c21.153,0,58.527,0,79.026,0a18.365,18.365,0,0,0,6.222,2.214c2.714.516,4.28,1.617,5.073,3.331s.911,8.643-1.756,8.643Z"/><path class="b" d="M229.14,234.671c.554,5.858.906,11.73,1.436,17.59.381,4.21.891,8.757,3.392,12.317,2.6,3.7,6.615,5.42,10.92,6.33a7.187,7.187,0,0,1,2.667.95,3.116,3.116,0,0,1,.778.9c.152.21.231.738.053.059.043.164.1.324.135.489.046.2.08.395.11.593-.073-.478,0,.036.007.156.029.462.059.922.056,1.386a8.63,8.63,0,0,1-.282,2.4c-.057.246-.069.608-.253.615l.157-.181-.12.132.224-.158q-.342.2.124-.042c.288-.2.3-.029-.084-.046-.456-.021-.918,0-1.374,0H242.1l-16.5,0-44.16-.01-18.994,0c-3.634,0-7.285-.1-10.918,0-.376.01-.567-.157-.193.046.292.159.281.007.367.251-.065-.184-.216-.365-.3-.547.173.391-.046-.2-.071-.294a7.861,7.861,0,0,1-.338-2.166c-.019-.421-.022-.843,0-1.264.01-.233.028-.464.048-.695.053-.613-.09.325.031-.17.044-.181.323-.827.107-.427a2.42,2.42,0,0,1,.739-.931,7.494,7.494,0,0,1,3.128-1.113,20.586,20.586,0,0,0,6.321-2.308A14.87,14.87,0,0,0,168,259.055a47.4,47.4,0,0,0,1.043-7.254c.268-2.893.6-5.778.763-8.68q.232-4.233.631-8.45a2.417,2.417,0,0,0-2.4-2.4,2.452,2.452,0,0,0-2.4,2.4c-.568,6.016-.929,12.046-1.477,18.065a29.088,29.088,0,0,1-1.126,6.236,9.585,9.585,0,0,1-2.371,4.091,6.908,6.908,0,0,1-1.722,1.324,12.273,12.273,0,0,1-2.883,1.248c-2.6.8-5.286.968-7.43,2.828-2.983,2.59-3.027,7.62-1.7,11.082.744,1.939,2.08,3.327,4.248,3.4.523.018,1.049,0,1.572,0h5.391l17.408,0,45.62.01,18.423,0c3.049,0,6.126.123,9.172,0,4.48-.178,5-5.834,4.64-9.261a7.551,7.551,0,0,0-2.682-5.423c-2.2-1.77-4.917-1.9-7.5-2.745a10.592,10.592,0,0,1-4.475-2.65,10.007,10.007,0,0,1-2.28-4.175,31.983,31.983,0,0,1-1.087-6.453c-.268-2.97-.622-5.932-.791-8.911-.165-2.9-.371-5.788-.645-8.679a2.465,2.465,0,0,0-2.4-2.4,2.418,2.418,0,0,0-2.4,2.4Z"/><path class="b" d="M171.789,268.78h56.1c3.088,0,3.093-4.8,0-4.8H171.789c-3.089,0-3.094,4.8,0,4.8Z"/><path class="b" d="M43.7,44.324q.045,24.315.113,48.632.077,29.614.156,59.23.071,26.29.136,52.58l.024,10.035c.01,4.581.619,8.926,3.294,12.789A19.26,19.26,0,0,0,58.966,235.5c3.089.683,6.32.489,9.466.5q19.216.055,38.433.047,25,.006,50.006-.018Q184.434,236,212,235.963q26.895-.036,53.79-.082,23.073-.039,46.146-.081l17.975-.032c2.68,0,5.4.124,8.077-.049a19.247,19.247,0,0,0,12.831-6,19.5,19.5,0,0,0,5.163-13.32c.011-3.224,0-6.448,0-9.672q-.006-11.794-.013-23.589L355.924,126q-.016-27.656-.035-55.311-.006-10.861-.013-21.722c0-3.86.179-7.734-1.248-11.4a19.2,19.2,0,0,0-9.4-10.351c-6.048-2.911-13.4-1.972-19.948-1.973l-19.718,0-48.387-.008-55.062-.01-55.217-.01L98.047,25.2l-20.066,0H69.363c-2.737,0-5.556-.183-8.282.085A19.321,19.321,0,0,0,43.7,44.324c-.034,3.089,4.766,3.092,4.8,0A14.5,14.5,0,0,1,54,32.99c3.177-2.472,6.772-3,10.667-3l16.557,0,43.577.008,52.267.009,55.129.01,51.393.009,41.821.007h8.168c3.621,0,7.048.014,10.3,1.882a14.44,14.44,0,0,1,7.052,10.288c.473,3.082.145,6.433.147,9.548q.014,24.251.03,48.5l.036,57.51q.015,24.939.03,49.877c0,3.279.144,6.6-.017,9.871a14.308,14.308,0,0,1-5.8,10.676c-5.23,3.814-12.326,2.767-18.451,2.778l-40.246.072q-25.137.044-50.273.083-27.159.041-54.317.072-26.219.03-52.438.041-22.092.009-44.185-.012-8.506-.011-17.013-.033c-2.824-.008-5.838.26-8.592-.42a14.472,14.472,0,0,1-9.591-7.861c-1.624-3.437-1.323-7.2-1.332-10.895q-.011-5.085-.024-10.171-.03-12.352-.063-24.7-.075-28.787-.153-57.572-.072-27.319-.138-54.638Q48.515,54.63,48.5,44.324C48.489,41.235,43.689,41.23,43.7,44.324Z"/><path class="b" d="M46.5,205.062q6.811,0,13.621-.007,12.694-.009,25.388-.021,17.007-.015,34.013-.033,19.954-.02,39.908-.043,21.267-.025,42.534-.053,21.17-.029,42.34-.061,19.592-.03,39.183-.067,16.533-.031,33.067-.072,12.029-.032,24.058-.077c3.965-.016,7.933-.006,11.9-.078.354-.006.707-.018,1.06-.018,3.089,0,3.094-4.8,0-4.8-2.941,0-5.884.062-8.825.077q-10.689.054-21.378.077-15.561.043-31.122.074-19.056.037-38.114.068-20.925.035-41.85.063-21.379.029-42.758.055l-40.7.046-35.688.035q-13.9.013-27.8.024-8.364.006-16.728.01H46.5c-3.088,0-3.093,4.8,0,4.8Z"/><path class="b" d="M206.484,218.264a6.2,6.2,0,0,1-6.576,6.28c-4.433,0-6.719-3.029-6.719-6.283a6.373,6.373,0,0,1,6.461-6.462A6.725,6.725,0,0,1,206.484,218.264Z"/><path class="a" d="M111.939,126.176c.019,8.814.063,29.061.063,31.923,8.138-.015,17.924-.035,28.729-.058,0-3.964,0-34.192,0-35.911h-28.8C111.932,122.382,111.935,123.9,111.939,126.176Z"/><path class="a" d="M160.078,109.445c0-3.09-.006-5.08-.006-5.315h28.8v53.805l-28.74.064C160.132,154.468,160.093,122.356,160.078,109.445Z"/><path class="a" d="M208.207,91.975c0-3.464,0-5.633,0-5.845H237v71.694l-28.73.067C208.272,153.349,208.224,108.293,208.207,91.975Z"/><path class="d" d="M256.341,79.925c0-6.948-.009-11.518-.009-11.8h28.8v89.587c-8.168.017-17.951.039-28.73.064C256.4,152.537,256.36,103.054,256.341,79.925Z"/><path class="b" d="M114.4,158.11c0-10.468-.04-20.936-.061-31.4q-.006-2.288-.009-4.576l-2.4,2.4h28.8l-2.4-2.4v35.92c0,3.088,4.8,3.093,4.8,0V122.13a2.435,2.435,0,0,0-2.4-2.4h-28.8a2.434,2.434,0,0,0-2.4,2.4c0,10.069.042,20.137.061,30.206q.006,2.887.009,5.774c0,3.088,4.8,3.093,4.8,0Z"/><path class="b" d="M162.532,158.01q0-9.867-.02-19.733l-.033-27.473q0-3.338-.007-6.674l-2.4,2.4h28.8l-2.4-2.4v53.82c0,3.088,4.8,3.093,4.8,0V104.13a2.435,2.435,0,0,0-2.4-2.4h-28.8a2.435,2.435,0,0,0-2.4,2.4q0,8.763.02,17.527.017,14.045.032,28.088,0,4.132.008,8.265c0,3.088,4.8,3.093,4.8,0Z"/><path class="b" d="M210.672,157.9q0-13.2-.024-26.4-.018-18.306-.038-36.613,0-4.379-.008-8.757l-2.4,2.4H237l-2.4-2.4v71.7c0,3.088,4.8,3.093,4.8,0V86.13a2.435,2.435,0,0,0-2.4-2.4H208.2a2.435,2.435,0,0,0-2.4,2.4q0,11.685.024,23.37.018,18.729.037,37.46.006,5.469.009,10.94c0,3.088,4.8,3.093,4.8,0Z"/><path class="b" d="M258.8,157.79q0-16.507-.024-33.014-.018-22.912-.038-45.824,0-5.412-.008-10.822l-2.4,2.4h28.8l-2.4-2.4v89.59c0,3.088,4.8,3.093,4.8,0V68.13a2.435,2.435,0,0,0-2.4-2.4h-28.8a2.435,2.435,0,0,0-2.4,2.4q0,14.52.024,29.041.018,23.467.037,46.935.006,6.841.009,13.684c0,3.088,4.8,3.093,4.8,0Z"/><path class="b" d="M308.731,155.276q-4.578,0-9.155.012-8.244.015-16.488.033-11,.023-21.988.048l-26,.059-28.193.065-28.676.065-27.442.061q-12.192.027-24.385.051-9.928.021-19.858.037-6.746.012-13.49.018H90.931c-3.089,0-3.094,4.8,0,4.8q5.838,0,11.676-.012l18.463-.033q11.706-.022,23.411-.048l26.882-.059,28.532-.065,28.469-.066,26.69-.061,23.094-.051,18.017-.037q5.551-.011,11.1-.017h1.464c3.089,0,3.094-4.8,0-4.8Z"/></svg>