<?xml version="1.0" encoding="iso-8859-1"?>
<!-- Uploaded to: SVG Repo, www.svgrepo.com, Generator: SVG Repo Mixer Tools -->
<!DOCTYPE svg PUBLIC "-//W3C//DTD SVG 1.1//EN" "http://www.w3.org/Graphics/SVG/1.1/DTD/svg11.dtd">
<svg fill="#000000" version="1.1" id="Capa_1" xmlns="http://www.w3.org/2000/svg" xmlns:xlink="http://www.w3.org/1999/xlink" 
	 width="800px" height="800px" viewBox="0 0 355.484 355.484"
	 xml:space="preserve">
<g>
	<g>
		<g>
			<path d="M177.754,132.652c-35.005,0-63.489,28.462-63.489,63.474c0,35.008,28.484,63.488,63.489,63.488
				c34.996,0,63.477-28.48,63.477-63.488C241.231,161.108,212.75,132.652,177.754,132.652z"/>
		</g>
		<g>
			<path d="M240.384,76.63l-29.388-29.388h-65.843L119.691,76.63H0v231.611h355.484V76.63H240.384z M68.5,123.645H35.209v-13.718
				H68.5V123.645z M177.754,274.482c-43.208,0-78.363-35.158-78.363-78.356c0-43.202,35.155-78.36,78.363-78.36
				c43.187,0,78.351,35.158,78.351,78.36C256.105,239.33,220.941,274.482,177.754,274.482z"/>
		</g>
	</g>
</g>
</svg>