<svg xmlns="http://www.w3.org/2000/svg" width="109" height="90" fill="none"><path fill="#edc1c6" d="M39.993 87.993V43.436L.025 21.756v44.662l39.968 21.575z"/><path fill="#f4dadc" d="M39.987 43.441L79.963 21.68 39.993 0 0 21.76l39.987 21.681z"/><path fill="#fff" d="M21.295 33.3L61.27 11.54l-6.422-3.475-39.993 21.76 6.44 3.476z"/><path fill="#dc848d" d="M39.993 87.993V43.436l39.969-21.68v44.662L39.993 87.993z"/><ellipse cx="83.65" cy="65.322" fill="#fff" rx="25.35" ry="25.678"/><path fill="rgba(185, 9, 27, 1)" d="M101.313 74.254l1.549-4.319c.146-.441.061-.92-.254-1.25l-3.669-4.061 3.294-4.367c.278-.368.327-.847.145-1.264l-1.925-4.17a1.225 1.225 0 0 0-1.053-.712l-5.425-.233-.714-5.447a1.216 1.216 0 0 0-.787-.993l-4.274-1.57a1.204 1.204 0 0 0-1.235.245l-3.996 3.729-4.322-3.35a1.18 1.18 0 0 0-1.247-.134l-4.117 1.95a1.204 1.204 0 0 0-.69 1.055l-.23 5.508-5.388.724a1.223 1.223 0 0 0-.98.797l-1.55 4.33c-.158.43-.061.909.241 1.24l3.681 4.06-3.305 4.367a1.252 1.252 0 0 0-.133 1.264l1.925 4.17c.193.418.593.688 1.053.712l5.424.233.715 5.46c.06.453.363.833.787.993l4.274 1.558a1.216 1.216 0 0 0 1.235-.246l3.995-3.729 4.323 3.35c.351.281.835.33 1.247.134l4.117-1.95c.4-.184.678-.602.69-1.055l.23-5.496 5.388-.736c.448-.05.823-.368.981-.797zM86.88 72.315a7.532 7.532 0 0 1-3.22.724c-2.943 0-5.655-1.742-6.902-4.44a7.786 7.786 0 0 1-.266-5.901c.702-1.938 2.094-3.484 3.935-4.355a7.37 7.37 0 0 1 3.22-.736c2.942 0 5.655 1.754 6.902 4.453 1.78 3.852.133 8.452-3.669 10.255z"/><path fill="#fff" d="M21.293 52.116V33.304l-6.438-3.498v18.916l6.438 3.394z"/></svg>
