<svg width="72" height="72" fill="none" xmlns="http://www.w3.org/2000/svg"><path fill-rule="evenodd" clip-rule="evenodd" d="M36 69c19.882 0 36-14.775 36-33S55.882 3 36 3 0 17.775 0 36c0 6.12 1.817 11.85 4.983 16.762L.763 70.305l17.472-5.596C23.477 67.44 29.54 69 36 69z" fill="#dc848d"/><path d="M28 29.875a2 2 0 01.643-1.469l4.743-4.381a4.001 4.001 0 001.165-1.962L35.826 17a3.7 3.7 0 013.649 3.087l.258 1.543a9.247 9.247 0 01-.019 3.172L38.956 29H50a4 4 0 014 4v2.179a4 4 0 01-.323 1.576l-4.638 10.82A4 4 0 0145.362 50H30a2 2 0 01-2-2V29.875zM22 29h4v21h-4z" fill="#fff"/></svg>