<svg width="87" height="87" fill="none" xmlns="http://www.w3.org/2000/svg"><path fill-rule="evenodd" clip-rule="evenodd" d="M43.325 54.185L23.88 40.97l-3.026 2.06 22.47 15.278 22.704-15.505-3.026-2.063-19.678 13.445z" fill="#e6a8af"/><path fill-rule="evenodd" clip-rule="evenodd" d="M43.325 61.73L23.88 48.514l-3.026 2.06 22.47 15.278 22.704-15.506-3.026-2.063L43.325 61.73z" fill="#f4dadc"/><path fill-rule="evenodd" clip-rule="evenodd" d="M43.325 50.622L22.05 36.13l21.274-14.486 21.274 14.493-21.275 14.486z" fill="#dc848d"/><path fill-rule="evenodd" clip-rule="evenodd" d="M41.855 7.643v8h4v-8h3l-5-7-5 7h3zM79.855 41.643h-8v4h8v3l7-5-7-5v3zM7.855 45.643h8v-4h-8v-3l-7 5 7 5v-3zM45.855 79.643v-8h-4v8h-3l5 7 5-7h-3z" fill="rgba(185, 9, 27, 1)"/></svg>