<svg width="160" height="160" fill="none" xmlns="http://www.w3.org/2000/svg">
  <g clip-path="url(#a)">
    <circle cx="80" cy="80" r="79.802" fill="#f8e6e8"/>
    <circle cx="79.5" cy="80.5" r="60.5" fill="#dc848d"/>
    <path fill-rule="evenodd" clip-rule="evenodd" d="M90.15 64.122c.102-.314.276-.599.509-.83l9.646-9.533-13.33-1.963a1.996 1.996 0 0 1-.892-.368 2.033 2.033 0 0 1-.622-.747L79.5 38.433l-5.961 12.248a2.033 2.033 0 0 1-.622.747c-.264.194-.57.32-.893.368l-13.33 1.964 9.647 9.532a2.07 2.07 0 0 1 .578 1.804l-2.278 13.462 11.924-6.356a1.99 1.99 0 0 1 1.87 0l11.924 6.356-2.278-13.462a2.07 2.07 0 0 1 .07-.974ZM118.047 73.07c.057-.18.156-.343.289-.475l5.493-5.448-7.59-1.121a1.133 1.133 0 0 1-.509-.21 1.17 1.17 0 0 1-.354-.428l-3.394-6.998-3.394 6.998c-.082.17-.204.316-.354.427-.15.111-.325.184-.508.21l-7.59 1.123 5.492 5.447a1.176 1.176 0 0 1 .33 1.03l-1.297 7.693 6.789-3.632a1.13 1.13 0 0 1 1.065 0l6.789 3.632-1.297-7.692a1.18 1.18 0 0 1 .04-.557ZM53.846 73.07a1.17 1.17 0 0 1 .29-.475l5.492-5.448-7.59-1.121a1.134 1.134 0 0 1-.508-.21 1.16 1.16 0 0 1-.354-.428l-3.394-6.998-3.394 6.998a1.16 1.16 0 0 1-.354.427c-.15.111-.325.184-.509.21l-7.59 1.123 5.493 5.447a1.17 1.17 0 0 1 .33 1.03l-1.298 7.693 6.79-3.632a1.13 1.13 0 0 1 1.065 0l6.789 3.632-1.297-7.692a1.188 1.188 0 0 1 .04-.557ZM129.27 95.158a.745.745 0 0 1 .186-.3l3.544-3.45-4.897-.71a.742.742 0 0 1-.556-.404l-2.19-4.433-2.19 4.433a.736.736 0 0 1-.556.404l-4.897.71 3.544 3.45a.745.745 0 0 1 .212.653l-.837 4.872 4.38-2.3a.74.74 0 0 1 .688 0l4.38 2.3-.837-4.872a.74.74 0 0 1 .026-.353ZM37.556 95.158a.74.74 0 0 1 .186-.3l3.544-3.45-4.897-.71a.74.74 0 0 1-.556-.404l-2.19-4.433-2.19 4.433a.737.737 0 0 1-.556.404l-4.897.71 3.544 3.45a.739.739 0 0 1 .212.653l-.837 4.872 4.38-2.3a.74.74 0 0 1 .687 0l4.38 2.3-.836-4.872a.74.74 0 0 1 .026-.353Z" fill="rgba(185, 9, 27, 1)"/>
    <path d="M48.164 102.76c6.984-9.244 18.532-15.285 31.596-15.285 13.065 0 24.613 6.04 31.597 15.285" stroke="rgba(185, 9, 27, 1)" stroke-width="2"/>
  </g>
  <defs>
    <clipPath id="a">
      <path fill="#fff" d="M0 0h160v160H0z"/>
    </clipPath>
  </defs>
</svg>
