<svg xmlns="http://www.w3.org/2000/svg" width="512" height="512" viewBox="0 0 512 512" version="1.1"><path d="" stroke="none" fill="#080404" fill-rule="evenodd"/><path d="M 382.717 8.047 C 362.639 10.141, 336.634 16.809, 314.066 25.649 C 300.616 30.918, 274.918 43.143, 263.735 49.592 L 255.970 54.071 249.235 50.153 C 219.856 33.065, 182.212 18.418, 150.500 11.736 C 136.133 8.708, 134.529 8.576, 112.500 8.597 C 90.731 8.618, 88.965 8.763, 79.500 11.305 C 51.670 18.777, 31.257 34.824, 19.467 58.500 C 16.383 64.695, 12.817 73.869, 11.305 79.500 C 8.763 88.965, 8.618 90.731, 8.597 112.500 C 8.576 134.542, 8.707 136.125, 11.741 150.500 C 15.168 166.738, 20.912 185.687, 27.183 201.446 C 31.993 213.535, 40.630 232, 41.475 232 C 42.584 232, 55 224.589, 55 223.927 C 55 223.571, 53.148 219.279, 50.884 214.390 C 10.576 127.335, 16.989 57.473, 67.500 33.372 C 96.644 19.466, 142.286 22.337, 190.812 41.129 C 202.055 45.483, 227.410 57.292, 234.750 61.593 L 239.071 64.126 229.286 70.664 C 162.545 115.257, 98.672 181.986, 58.104 249.500 C 33.184 290.972, 17.680 329.865, 10.384 369.205 C 8.196 381.001, 7.427 408.873, 8.975 420.273 C 12.295 444.728, 21.798 464.158, 37.710 479.025 C 48.993 489.568, 63.823 497.159, 81.135 501.254 C 89.384 503.205, 93.181 503.465, 113 503.435 C 134.352 503.402, 136.266 503.239, 150.500 500.241 C 173.946 495.302, 197.648 487.212, 221.809 475.901 L 232.194 471.040 228.450 464.270 C 226.391 460.546, 224.571 457.336, 224.405 457.136 C 224.240 456.935, 217.444 459.737, 209.302 463.361 C 184.374 474.458, 162.337 481.549, 140 485.663 C 125.487 488.336, 97.372 488.108, 85.783 485.223 C 54.139 477.346, 34.482 458.025, 26.761 427.209 C 23.799 415.388, 23.604 386.589, 26.384 371.508 C 44.497 273.251, 131.410 156.681, 241.488 83.008 C 248.891 78.054, 255.421 74, 256 74 C 257.441 74, 282.260 90.645, 294.500 99.822 C 337.919 132.372, 377.121 171.429, 409.642 214.538 C 418.747 226.607, 436.529 252.610, 437.618 255.447 C 438.726 258.333, 413.059 294.675, 392.707 319.036 C 374.334 341.028, 342.036 373.891, 326.700 386.198 C 322.983 389.181, 322.911 389.195, 323.430 386.874 C 323.721 385.568, 324.927 377.587, 326.109 369.139 C 327.891 356.400, 328.028 353.635, 326.911 352.945 C 324.874 351.686, 312.959 350.626, 312.078 351.625 C 311.176 352.648, 303.998 402.806, 303.999 408.076 C 304 410.520, 304.733 412.340, 306.314 413.826 C 308.583 415.957, 309.212 416, 338.314 416 L 368 416 368 408 L 368 400 352.300 400 L 336.601 400 342.550 394.853 C 353.960 384.981, 394.649 343.410, 404.597 331.462 C 417.282 316.225, 430.912 298.187, 440.411 284.066 C 449.050 271.225, 447.289 270.627, 456.821 289.643 C 486.355 348.559, 495.293 400.767, 482.188 437.801 C 478.131 449.266, 473.638 456.312, 464.478 465.575 C 457.887 472.240, 454.766 474.519, 446.978 478.353 C 433.184 485.145, 424.594 487.102, 405.804 487.733 C 396.239 488.055, 386.387 487.792, 380.582 487.061 C 313.125 478.571, 228.119 430.325, 157.413 360.401 C 138.915 342.107, 123.237 324.754, 124.751 324.250 C 125.371 324.043, 132.544 324.818, 140.690 325.972 C 148.835 327.126, 156.391 328.167, 157.481 328.285 C 159.226 328.475, 159.597 327.551, 160.602 320.500 C 161.229 316.100, 161.652 312.389, 161.541 312.253 C 161.204 311.840, 105.876 304, 103.303 304 C 101.987 304, 99.805 305.105, 98.455 306.455 L 96 308.909 96 338.455 L 96 368 104 368 L 112 368 112 352.300 L 112 336.601 117.147 342.550 C 126.376 353.217, 166.217 392.302, 178 402.248 C 237.927 452.829, 301.116 487.297, 356 499.342 C 374.748 503.456, 382.608 504.356, 400 504.379 C 418.908 504.405, 428.706 502.863, 443.709 497.501 C 485.986 482.390, 508.694 440.904, 504.136 387.105 C 500.913 349.072, 485.900 304.941, 461.670 262.272 L 458.133 256.044 467.994 236.772 C 494.131 185.689, 505.186 144.872, 503.684 105.005 C 502.556 75.077, 495.024 54.902, 478.308 37.032 C 460.659 18.165, 436.117 8.340, 404.500 7.483 C 397.350 7.289, 387.548 7.543, 382.717 8.047 M 386 24.609 C 362.369 27.438, 339.506 33.526, 314.500 43.650 C 302.298 48.590, 272.980 62.888, 273.035 63.872 C 273.054 64.217, 277.441 67.413, 282.785 70.974 C 328.435 101.393, 377.630 146.958, 413.870 192.386 C 424.010 205.097, 441.053 228.585, 445.044 235.350 C 446.228 237.357, 447.550 239, 447.981 239 C 448.412 239, 452.628 231.238, 457.351 221.750 C 473.473 189.364, 482.747 161.623, 486.554 134.394 C 488.751 118.682, 488.078 96.184, 485.046 84 C 477.523 53.765, 456.031 33.221, 424.781 26.395 C 417.757 24.861, 393.306 23.735, 386 24.609 M 233 161.689 C 197.162 168.026, 160.652 191.324, 130.976 226.795 C 123.632 235.573, 112.989 250.411, 113.009 251.844 C 113.019 252.555, 125.795 260.033, 126.855 259.948 C 127.210 259.920, 130.195 256.026, 133.489 251.295 C 145.673 233.798, 164.684 214.473, 181.500 202.494 C 239.759 160.991, 303.898 169.904, 358.529 227.095 C 366.408 235.344, 379.350 251.398, 382.722 257.106 C 383.662 258.698, 384.838 260, 385.335 260 C 386.034 260, 397.013 253.818, 398.871 252.378 C 400.583 251.052, 383.066 228.212, 369.673 214.306 C 341.494 185.049, 310.270 167.085, 278.074 161.605 C 266.310 159.602, 244.573 159.643, 233 161.689 M 234 193.961 C 215.995 197.817, 200.034 205.408, 184.500 217.504 C 169.151 229.457, 152 249.646, 152 255.763 C 152 260.368, 159.097 270.137, 171.477 282.574 C 196.760 307.975, 224.093 320.022, 256.360 319.987 C 282.401 319.959, 304.795 311.920, 327.703 294.377 C 342.248 283.238, 360 262.144, 360 256 C 360 252.129, 353.255 242.422, 343.290 231.951 C 323.996 211.676, 302.232 199.092, 277.500 193.912 C 265.571 191.413, 245.794 191.435, 234 193.961 M 245.906 208.993 C 222.267 211.902, 202.428 222.363, 182.250 242.559 C 175.004 249.811, 171 254.572, 171 255.936 C 171 259.399, 191.950 279.707, 202.842 286.804 C 245.018 314.281, 291.702 307.888, 329.750 269.426 C 336.952 262.145, 341 257.292, 341 255.938 C 341 252.408, 318.028 230.472, 307.623 224.068 C 287.932 211.947, 265.811 206.544, 245.906 208.993 M 244.500 217.346 C 233.127 221.112, 224.509 228.601, 219.582 238.997 C 216.748 244.977, 216.500 246.345, 216.500 256 C 216.500 265.655, 216.748 267.023, 219.582 273.003 C 223.530 281.333, 230.667 288.470, 238.997 292.418 C 244.977 295.252, 246.345 295.500, 256 295.500 C 265.655 295.500, 267.023 295.252, 273.003 292.418 C 276.668 290.681, 281.651 287.191, 284.421 284.421 C 287.191 281.651, 290.681 276.668, 292.418 273.003 C 295.253 267.021, 295.500 265.658, 295.500 255.979 C 295.500 246.167, 295.285 245.020, 292.305 238.968 C 288.251 230.733, 281.297 223.764, 273.112 219.735 C 267.573 217.008, 265.468 216.542, 257.602 216.300 C 251.982 216.128, 246.970 216.528, 244.500 217.346 M 244.420 235.885 C 231.991 243.468, 229.327 260.013, 238.761 271.034 C 242.687 275.621, 246.747 278.004, 252.500 279.098 C 261.079 280.730, 271.487 275.830, 275.814 268.122 L 278.128 264 272.930 264 C 265.810 264, 260.696 262.288, 256.122 258.372 C 251.050 254.031, 248.753 249.008, 248.063 240.753 L 247.500 234.006 244.420 235.885 M 264.965 237.592 C 262.886 243.059, 268.962 249.106, 274.440 247.023 C 276.989 246.054, 277.020 245.940, 275.533 243.064 C 274.126 240.342, 268.228 235, 266.631 235 C 266.257 235, 265.507 236.167, 264.965 237.592" stroke="none" fill="#040404" fill-rule="evenodd"/></svg>