<svg xmlns="http://www.w3.org/2000/svg" width="512" height="512" viewBox="0 0 512 512" version="1.1"><path d="" stroke="none" fill="#080404" fill-rule="evenodd"/><path d="M 144.241 46.990 C 137.944 50.838, 137.008 53.783, 137.004 69.750 L 137 84 166.962 84 C 201.151 84, 203.695 84.459, 212.502 92.211 C 216.617 95.833, 218.702 99.416, 229.058 120.659 L 240.905 144.964 345.203 145.232 L 449.500 145.500 455.214 148.306 C 462.224 151.748, 468.250 158.380, 470.967 165.640 C 472.948 170.937, 473 173.089, 473 250.538 L 473 330 487.250 329.996 C 503.219 329.992, 506.172 329.053, 510.001 322.759 L 511.984 319.500 512.322 387.500 C 512.508 424.900, 512.572 379.370, 512.465 286.323 C 512.276 122.589, 512.209 117.043, 510.385 113.928 C 509.348 112.157, 507.230 109.762, 505.677 108.605 C 502.863 106.506, 502.560 106.499, 403.177 106 L 303.500 105.500 297.995 102.793 C 288.516 98.133, 285.596 94.153, 272.991 68.721 L 261.483 45.500 204.491 45.249 C 149.103 45.005, 147.408 45.054, 144.241 46.990 M 77.500 114.407 C 73.820 116.048, 70.485 119.571, 69.067 123.315 C 68.480 124.863, 68 131.951, 68 139.065 L 68 152 96.290 152 C 126.865 152, 132.367 152.682, 139.832 157.394 C 146.092 161.346, 148.630 165.248, 160.841 189.697 L 172.480 213 273.191 213 C 340.382 213, 375.547 213.353, 378.846 214.060 C 389.072 216.254, 399.489 225.180, 403.078 234.826 C 404.183 237.794, 404.504 253.937, 404.751 318.843 L 405.057 399.186 419.359 398.843 C 433.339 398.508, 433.745 398.435, 437.436 395.618 C 444.393 390.309, 444 397.152, 444 281.232 C 444 201.029, 443.718 176.118, 442.800 175.200 C 441.882 174.282, 417.542 174, 339.338 174 C 238.518 174, 236.997 173.971, 231.567 171.939 C 221.166 168.048, 218.135 164.170, 204.634 137.483 L 192.500 113.500 136.500 113.285 C 91.538 113.112, 79.909 113.333, 77.500 114.407 M 7.367 183.913 C 0.457 188.137, 1 176.132, 1 324.588 L 1 458.730 3.088 461.385 C 7.819 467.399, -5.301 467, 187.700 466.996 C 362.355 466.993, 364.540 466.968, 367.759 465.005 C 369.552 463.912, 371.912 461.552, 373.005 459.759 C 374.955 456.561, 374.993 454.506, 374.996 349.773 L 375 243.045 271.250 242.773 C 153.629 242.464, 162.624 243.124, 152.790 234.081 C 148.319 229.970, 146.240 226.466, 136.092 205.943 L 124.500 182.500 67.500 182.249 C 12.857 182.009, 10.370 182.077, 7.367 183.913 M 261.299 395.960 C 256.052 399.159, 254.508 403.180, 254.504 413.657 C 254.500 422.398, 254.640 422.989, 257.590 426.657 C 265.991 437.105, 281.561 432.776, 283.562 419.437 C 284.646 412.204, 283.510 403.525, 281.020 400.028 C 276.697 393.957, 267.645 392.090, 261.299 395.960 M 308.834 397.812 L 304.500 401.852 304.205 412.176 C 303.850 424.638, 305.310 427.922, 312.648 431.169 C 319.853 434.355, 328.137 431.445, 331.394 424.583 C 333.463 420.223, 333.590 406.035, 331.595 402.200 C 328.797 396.824, 325.406 394.657, 319.070 394.199 C 313.320 393.783, 313.055 393.877, 308.834 397.812" stroke="none" fill="#040404" fill-rule="evenodd"/></svg>