<svg xmlns="http://www.w3.org/2000/svg" width="512" height="512" viewBox="0 0 512 512" version="1.1"><path d="" stroke="none" fill="#080404" fill-rule="evenodd"/><path d="M 200.218 49.649 C 198.413 50.547, 195.938 52.680, 194.718 54.390 L 192.500 57.500 192.500 112 C 192.500 164.939, 192.557 166.577, 194.500 169.182 C 195.600 170.658, 198.136 172.795, 200.136 173.932 C 203.443 175.813, 205.414 176, 221.886 176 L 240 176 240 208 L 240 240 149.901 240 C 50.255 240, 55.518 239.662, 50.730 246.373 C 48.517 249.476, 48.498 249.833, 48.220 292.691 L 47.939 335.882 28.720 336.191 C 10.704 336.481, 9.304 336.640, 6.373 338.730 C -0.203 343.421, -0.081 342.176, 0.225 401.205 C 0.491 452.712, 0.567 454.590, 2.500 457.182 C 3.600 458.658, 6.157 460.807, 8.182 461.958 C 11.808 464.020, 12.655 464.047, 65.182 463.775 L 118.500 463.500 121.712 461.090 C 128.134 456.271, 128 457.575, 128 399.985 C 128 349.042, 127.950 347.684, 125.932 344.136 C 121.780 336.834, 120.782 336.537, 99.250 336.191 L 80 335.881 80 303.941 L 80 272 160 272 L 240 272 240 303.941 L 240 335.881 220.750 336.191 C 202.703 336.481, 201.305 336.639, 198.373 338.730 C 191.797 343.421, 191.919 342.176, 192.225 401.205 C 192.491 452.712, 192.567 454.590, 194.500 457.182 C 195.600 458.658, 198.157 460.807, 200.182 461.958 C 203.808 464.020, 204.655 464.047, 257.182 463.775 L 310.500 463.500 313.712 461.090 C 320.134 456.271, 320 457.575, 320 399.985 C 320 349.042, 319.950 347.684, 317.932 344.136 C 313.780 336.834, 312.782 336.537, 291.250 336.191 L 272 335.881 272 303.941 L 272 272 352 272 L 432 272 432 303.941 L 432 335.881 412.750 336.191 C 394.703 336.481, 393.305 336.639, 390.373 338.730 C 383.797 343.421, 383.919 342.176, 384.225 401.205 C 384.491 452.712, 384.567 454.590, 386.500 457.182 C 387.600 458.658, 390.157 460.807, 392.182 461.958 C 395.808 464.020, 396.654 464.047, 449.207 463.775 L 502.550 463.500 505.525 461.179 C 507.161 459.902, 509.512 457.078, 510.750 454.902 L 513 450.946 513 398.414 C 513 369.521, 512.638 346.106, 512.194 346.380 C 511.751 346.654, 510.602 345.443, 509.641 343.689 C 505.929 336.915, 504.587 336.534, 483.250 336.191 L 464 335.881 464 293.827 C 464 253.152, 463.932 251.653, 461.932 248.136 C 460.795 246.136, 458.658 243.600, 457.182 242.500 C 454.552 240.539, 452.725 240.495, 363.250 240.235 L 272 239.969 272 208.044 L 272 176.119 291.250 175.809 C 309.798 175.511, 310.617 175.412, 313.712 173.090 C 320.134 168.271, 320 169.575, 320 111.985 C 320 61.042, 319.950 59.684, 317.932 56.136 C 316.795 54.136, 314.658 51.600, 313.182 50.500 C 310.588 48.566, 308.741 48.492, 257 48.259 C 209.227 48.044, 203.149 48.193, 200.218 49.649 M 0.466 400 C 0.466 429.425, 0.593 441.462, 0.749 426.750 C 0.905 412.038, 0.905 387.962, 0.749 373.250 C 0.593 358.538, 0.466 370.575, 0.466 400" stroke="none" fill="#040404" fill-rule="evenodd"/></svg>