<svg xmlns="http://www.w3.org/2000/svg" width="512" height="512" viewBox="0 0 512 512" version="1.1"><path d="" stroke="none" fill="#080404" fill-rule="evenodd"/><path d="M 243.500 1.404 C 241.300 2.103, 237.046 3.927, 234.046 5.457 L 228.592 8.240 223.354 13.605 L 218.116 18.970 215.096 25.298 L 212.076 31.627 210.976 38.719 L 209.875 45.812 210.815 50.982 L 211.755 56.152 170.097 83.935 L 128.440 111.718 124.339 108.109 C 115.729 100.531, 102.437 94.048, 90.186 91.452 L 83.500 90.035 75.708 90.017 L 67.916 90 60.210 91.592 C 50.624 93.572, 42.416 96.980, 34 102.476 L 27.500 106.721 21.627 112.727 C 11.375 123.212, 5.598 133.432, 2.023 147.410 L 0 155.320 0 165.500 L 0 175.680 2.016 183.590 L 4.032 191.500 7.372 198.500 C 9.209 202.350, 12.883 208.369, 15.536 211.876 L 20.359 218.252 26.752 223.525 C 34.500 229.916, 43.082 234.607, 52.476 237.585 L 59.500 239.812 59.500 256 L 59.500 272.188 52.476 274.415 C 43.082 277.393, 34.500 282.084, 26.752 288.475 L 20.359 293.748 15.536 300.124 C 12.883 303.631, 9.209 309.650, 7.372 313.500 L 4.032 320.500 2.016 328.410 L 0 336.320 0 346.500 L -0 356.680 2.023 364.590 C 5.598 378.568, 11.375 388.788, 21.627 399.273 L 27.500 405.279 34 409.524 C 42.624 415.155, 50.790 418.491, 61.034 420.567 L 69.464 422.275 79.482 421.696 L 89.500 421.116 96.500 418.944 C 107.381 415.568, 121.401 407.695, 126.350 402.182 L 128.200 400.122 169.977 427.985 L 211.755 455.848 210.815 461.018 L 209.875 466.188 210.980 473.307 L 212.084 480.426 215.275 486.906 L 218.465 493.387 223.661 498.709 L 228.856 504.030 236.678 507.765 L 244.500 511.500 256 511.500 L 267.500 511.500 275.322 507.765 L 283.144 504.030 288.514 498.530 L 293.884 493.030 296.904 486.702 L 299.924 480.373 301.024 473.285 L 302.124 466.196 300.977 459.848 C 300.346 456.357, 298.923 451.385, 297.814 448.801 L 295.797 444.101 310.649 426.706 C 318.817 417.139, 342.288 389.744, 362.807 365.829 L 400.115 322.347 404.882 324.628 C 407.504 325.883, 413.216 327.912, 417.575 329.137 L 425.500 331.364 436.500 331.354 L 447.500 331.344 454.500 329.546 C 483.320 322.143, 505.477 298.918, 511.040 270.279 L 512.249 264.059 511.783 252.279 L 511.318 240.500 508.601 232.500 L 505.884 224.500 501.912 217.774 L 497.940 211.049 492.290 204.947 C 482.020 193.854, 468.442 185.783, 454.230 182.324 L 447.500 180.685 436.500 180.661 L 425.500 180.636 417.575 182.863 C 413.216 184.088, 407.504 186.117, 404.882 187.372 L 400.115 189.653 362.807 146.171 C 342.288 122.256, 318.817 94.861, 310.649 85.294 L 295.797 67.899 297.814 63.199 C 298.923 60.615, 300.346 55.643, 300.977 52.152 L 302.124 45.804 301.055 38.914 L 299.986 32.025 297.642 26.762 C 296.353 23.868, 293.482 19.215, 291.262 16.422 L 287.226 11.344 281.809 7.749 L 276.392 4.153 270.228 2.077 L 264.063 -0 255.782 0.067 L 247.500 0.134 243.500 1.404 M 251.352 31.092 L 248.203 32.005 245.151 35.481 L 242.099 38.957 241.430 42.522 L 240.761 46.086 242.458 50.530 L 244.156 54.975 247.328 57.237 L 250.500 59.500 256 59.500 L 261.500 59.500 264.672 57.237 L 267.844 54.975 269.542 50.530 L 271.239 46.086 270.570 42.522 L 269.901 38.957 266.868 35.503 L 263.835 32.049 260.168 31.030 C 255.954 29.860, 255.599 29.862, 251.352 31.092 M 187.150 109.569 L 145.803 137.139 146.438 139.319 C 147.207 141.958, 150.006 153.690, 150.553 156.566 L 150.946 158.632 181.223 161.879 C 197.875 163.664, 212.236 165.336, 213.137 165.594 L 214.773 166.063 217.302 161.747 C 218.693 159.373, 222.090 155.319, 224.850 152.737 L 229.869 148.043 235.434 145.313 L 241 142.583 241 115.500 L 241 88.417 235.250 85.480 C 232.088 83.864, 229.274 82.420, 228.999 82.271 C 228.723 82.121, 209.891 94.406, 187.150 109.569 M 271.004 115.167 L 271.007 142.500 277.422 145.817 L 283.836 149.133 288.816 154.399 L 293.797 159.665 296.522 165.043 L 299.246 170.420 300.908 178.863 L 302.570 187.305 337.790 201.031 L 373.011 214.756 374.867 212.208 L 376.724 209.659 324.799 149.080 C 296.240 115.761, 272.452 88.350, 271.937 88.167 L 271 87.833 271.004 115.167 M 61.762 122.878 C 54.258 125.360, 46.936 130.130, 41.969 135.772 L 37.970 140.316 34.996 146.408 L 32.022 152.500 31.077 159.316 L 30.132 166.131 31.110 172.316 L 32.088 178.500 34.996 184.759 L 37.903 191.017 43.127 196.541 L 48.351 202.064 55.425 205.511 L 62.500 208.958 68.684 209.913 L 74.869 210.868 81.684 209.923 L 88.500 208.978 94.500 206.049 C 97.800 204.438, 102.485 201.421, 104.912 199.344 L 109.323 195.568 113.043 189.813 L 116.762 184.058 118.523 177.551 L 120.285 171.045 119.753 162.522 L 119.221 153.998 115.748 146.684 L 112.274 139.369 106.952 134.048 L 101.631 128.726 94.219 125.206 L 86.807 121.686 77.154 121.333 L 67.500 120.981 61.762 122.878 M 248.984 172.824 L 245.500 174.648 243.250 179.036 C 240.643 184.121, 240.459 186.770, 242.394 191.400 L 243.788 194.736 247.490 197.560 L 251.193 200.385 256 200.385 L 260.807 200.385 264.510 197.560 L 268.212 194.736 269.606 191.400 C 271.541 186.770, 271.357 184.121, 268.750 179.036 L 266.500 174.648 263.016 172.824 L 259.531 171 256 171 L 252.469 171 248.984 172.824 M 145.533 193.704 C 144.557 196.342, 143.092 199.567, 142.277 200.870 L 140.796 203.241 142.648 204.980 C 143.667 205.937, 164.576 224.534, 189.114 246.307 L 233.727 285.894 241.074 283.339 L 248.421 280.784 257.961 281.174 L 267.500 281.563 274.360 284.780 L 281.220 287.998 286.085 292.072 L 290.951 296.145 326.226 282.417 L 361.500 268.689 361.500 256 L 361.500 243.311 326.340 229.627 L 291.180 215.944 284.840 220.742 C 281.353 223.381, 276.025 226.656, 273 228.020 L 267.500 230.500 256 230.500 L 244.500 230.500 236.678 226.765 L 228.856 223.030 223.486 217.530 L 218.116 212.030 215.058 205.622 C 213.376 202.098, 212 198.572, 212 197.788 L 212 196.362 182.250 193.138 C 165.887 191.365, 151.332 189.688, 149.903 189.412 L 147.307 188.908 145.533 193.704 M 424.949 212.826 L 418.398 214.536 413.297 217.809 C 403.378 224.175, 396.932 232.727, 393.610 243.932 L 392 249.363 392 256.092 L 392 262.822 393.884 268.875 C 394.920 272.204, 396.929 276.910, 398.348 279.331 L 400.928 283.734 406.464 288.793 L 412 293.853 417.250 296.403 L 422.500 298.952 429.749 300.179 L 436.997 301.407 443.647 300.268 L 450.296 299.129 456.558 296.046 L 462.819 292.964 468.244 287.538 L 473.670 282.113 476.815 275.723 L 479.961 269.334 480.905 262.667 L 481.849 256 480.909 249.360 L 479.968 242.720 476.987 236.473 L 474.006 230.226 468.710 224.863 L 463.414 219.500 458.382 216.783 C 455.615 215.289, 450.702 213.376, 447.465 212.533 L 441.580 211 436.540 211.058 L 431.500 211.115 424.949 212.826 M 113 231.117 L 106.500 235.043 99 237.423 L 91.500 239.803 91.500 255.996 L 91.500 272.188 98.662 274.459 C 119.490 281.062, 137.799 298.193, 145.454 318.241 L 147.265 322.981 150.882 322.463 C 156.708 321.629, 208.094 316, 209.881 316 L 211.511 316 212.572 312.607 L 213.634 309.215 167.379 268.107 C 141.939 245.498, 120.759 227.043, 120.312 227.096 C 119.866 227.148, 116.575 228.958, 113 231.117 M 337.535 310.984 L 302.571 324.689 300.909 333.135 L 299.246 341.580 296.522 346.957 L 293.797 352.335 288.816 357.601 L 283.836 362.867 277.422 366.183 L 271.007 369.500 271.004 396.833 L 271 424.167 271.937 423.833 C 272.452 423.650, 296.254 396.222, 324.830 362.883 L 376.787 302.266 374.644 299.773 L 372.500 297.279 337.535 310.984 M 68 302.143 L 62.500 303.051 56.241 305.977 L 49.983 308.903 44.459 314.127 L 38.936 319.351 35.489 326.425 L 32.042 333.500 31.087 339.684 L 30.132 345.869 31.077 352.684 L 32.022 359.500 34.951 365.500 C 36.562 368.800, 39.579 373.485, 41.656 375.912 L 45.432 380.323 51.187 384.043 L 56.942 387.762 63.449 389.523 L 69.955 391.285 78.478 390.753 L 87.002 390.221 94.316 386.748 L 101.631 383.274 106.952 377.952 L 112.274 372.631 115.764 365.281 L 119.255 357.930 119.755 349.160 L 120.255 340.390 118.549 334.445 C 115.354 323.314, 109.250 315.074, 99.547 308.792 L 93.594 304.938 88.547 303.553 C 85.771 302.792, 81.250 301.959, 78.500 301.702 L 73.500 301.235 68 302.143 M 251.352 312.092 L 248.203 313.005 245.151 316.481 L 242.099 319.957 241.430 323.522 L 240.761 327.086 242.458 331.530 L 244.156 335.975 247.328 338.237 L 250.500 340.500 256 340.500 L 261.500 340.500 264.672 338.237 L 267.844 335.975 269.542 331.530 L 271.239 327.086 270.570 323.522 L 269.901 319.957 266.868 316.503 L 263.835 313.049 260.168 312.030 C 255.954 310.860, 255.599 310.862, 251.352 312.092 M 182.223 349.824 L 150.946 353.367 150.553 355.434 C 150.006 358.310, 147.207 370.042, 146.438 372.683 L 145.802 374.865 187.157 402.433 L 228.512 430.001 234.748 426.751 L 240.984 423.500 240.992 396.458 L 241 369.417 235.434 366.687 L 229.869 363.957 224.850 359.263 C 222.090 356.681, 218.702 352.641, 217.321 350.284 C 215.940 347.928, 214.515 346.063, 214.155 346.141 C 213.795 346.218, 199.425 347.876, 182.223 349.824 M 248.984 453.824 L 245.500 455.648 243.250 460.036 C 240.643 465.121, 240.459 467.770, 242.394 472.400 L 243.788 475.736 247.490 478.560 L 251.193 481.385 256 481.385 L 260.807 481.385 264.510 478.560 L 268.212 475.736 269.606 472.400 C 271.541 467.770, 271.357 465.121, 268.750 460.036 L 266.500 455.648 263.016 453.824 L 259.531 452 256 452 L 252.469 452 248.984 453.824" stroke="none" fill="#040404" fill-rule="evenodd"/></svg>