<svg xmlns="http://www.w3.org/2000/svg" width="72" height="72" viewBox="0 0 72 72" fill="none">
<g clip-path="url(#clip0)">
<rect x="1.5" y="7.86963" width="50" height="37" rx="2.5" stroke="#db838d" stroke-width="3" fill="#ffffff"/>
<path d="M16.3818 21.5125C10.9212 27.2034 0.385455 38.6828 0 39.0731L0 42.39C0 44.5991 1.79086 46.39 4 46.39H49C51.2091 46.39 53 44.5991 53 42.39V40.0487L40.4727 26.8782L30.3545 37.1219L16.3818 21.5125Z" fill="#db838d"/>
<circle cx="31.8673" cy="18.237" r="4.86735" fill="#b8001c"/>
<rect x="17.5" y="25.2393" width="56" height="43" rx="5.5" fill="#db838d" stroke="white" stroke-width="3"/>
<path d="M53.2794 44.1198L42.4455 38.7028C41.1157 38.0379 39.551 39.0049 39.551 40.4917V51.3257C39.551 52.8124 41.1157 53.7794 42.4455 53.1145L53.2794 47.6975C54.7535 46.9605 54.7535 44.8569 53.2794 44.1198Z" fill="#b8001c"/>
</g>
<defs fill="#ffffff">
<clipPath id="clip0" fill="#ffffff">
<rect width="72" height="72" fill="white"/>
</clipPath>
</defs>
</svg>