<svg width="122" height="50" viewBox="0 0 122 50" fill="none" xmlns="http://www.w3.org/2000/svg">
<path d="M77.0559 34.4057H73.6682L64.7431 20.6727C64.5173 20.3253 64.3305 19.9648 64.1829 19.5913H64.1047C64.1742 19.9909 64.2089 20.8465 64.2089 22.1581V34.4057H61.2122V15.7216H64.8213L73.4467 29.1288C73.8115 29.6847 74.0461 30.0669 74.1503 30.2754H74.2024C74.1156 29.7803 74.0721 28.942 74.0721 27.7607V15.7216H77.0559V34.4057Z" fill="#464646"/>
<path d="M92.0396 34.4057H81.6943V15.7216H84.7953V31.7868H92.0396V34.4057Z" fill="#464646"/>
<path d="M105.121 18.3535H99.753V34.4057H96.652V18.3535H91.2969V15.7216H105.121V18.3535Z" fill="#464646"/>
<path d="M121.994 34.4057H117.955L111.453 25.8584C111.21 25.537 111.062 25.3199 111.01 25.207H110.958V34.4057H107.857V15.7216H110.958V24.5034H111.01C111.115 24.3123 111.262 24.0995 111.453 23.8649L117.72 15.7216H121.434L114.098 24.6858L121.994 34.4057Z" fill="#464646"/>
<g clip-path="url(#clip0)">
<path d="M25.3198 -0.000976562C12.6293 -0.000975657 13.4218 5.50239 13.4218 5.50239L13.4359 11.2038H25.5462V12.9157H8.62578C8.62578 12.9157 0.505127 11.9947 0.505127 24.7995C0.505126 37.6044 7.59301 37.1503 7.59301 37.1503H11.8231V31.2083C11.8231 31.2083 11.5951 24.1205 18.7978 24.1205C26.0005 24.1205 30.809 24.1205 30.809 24.1205C30.809 24.1205 37.5574 24.2296 37.5574 17.5985C37.5574 10.9674 37.5574 6.63419 37.5574 6.63419C37.5574 6.63419 38.5819 -0.000976562 25.3198 -0.000976562ZM18.6422 3.83299C19.8471 3.83299 20.8209 4.80682 20.8209 6.0117C20.8209 7.21658 19.8471 8.19041 18.6422 8.19041C17.4373 8.19041 16.4635 7.21658 16.4635 6.0117C16.4635 4.80682 17.4373 3.83299 18.6422 3.83299Z" fill="url(#paint0_linear)"/>
<path d="M25.6802 49.7285C38.3707 49.7285 37.5783 44.2251 37.5783 44.2251L37.5641 38.5237H25.4539V36.8118H42.3742C42.3742 36.8118 50.4949 37.7328 50.4949 24.9279C50.4949 12.1231 43.407 12.5772 43.407 12.5772H39.1769V18.5191C39.1769 18.5191 39.4049 25.607 32.2022 25.607C24.9995 25.607 20.191 25.607 20.191 25.607C20.191 25.607 13.4427 25.4979 13.4427 32.129C13.4427 38.7601 13.4427 43.0933 13.4427 43.0933C13.4427 43.0933 12.4181 49.7285 25.6802 49.7285ZM32.3578 45.8945C31.153 45.8945 30.1791 44.9207 30.1791 43.7158C30.1791 42.5109 31.153 41.5371 32.3578 41.5371C33.5627 41.5371 34.5365 42.5109 34.5365 43.7158C34.5366 44.9207 33.5627 45.8945 32.3578 45.8945Z" fill="url(#paint1_linear)"/>
</g>
<defs>
<linearGradient id="paint0_linear" x1="5.30924" y1="4.34582" x2="30.0277" y2="29.147" gradientUnits="userSpaceOnUse">
<stop stop-color="#387EB8"/>
<stop offset="1" stop-color="#366994"/>
</linearGradient>
<linearGradient id="paint1_linear" x1="20.515" y1="20.1232" x2="47.0627" y2="45.5573" gradientUnits="userSpaceOnUse">
<stop stop-color="#FFE052"/>
<stop offset="1" stop-color="#FFC331"/>
</linearGradient>
<clipPath id="clip0">
<rect width="49.9897" height="49.7294" fill="white" transform="translate(0.505127 -0.000976562)"/>
</clipPath>
</defs>
</svg>
