<svg width="61" height="77" fill="none" xmlns="http://www.w3.org/2000/svg"><path d="M29.13 76.32c-6.453 0-12.173-1.063-17.16-3.19-4.987-2.2-8.91-5.06-11.77-8.58L8.34 54.1c2.493 2.567 5.573 4.62 9.24 6.16 3.667 1.467 7.333 2.2 11 2.2 4.4 0 7.81-.843 10.23-2.53 2.42-1.76 3.63-4.033 3.63-6.82 0-2.933-1.173-5.06-3.52-6.38-2.347-1.393-6.087-2.09-11.22-2.09-4.62 0-7.663.073-9.13.22V30.78c.88.073 3.923.11 9.13.11 9.02 0 13.53-2.603 13.53-7.81 0-2.787-1.283-4.913-3.85-6.38-2.493-1.54-5.757-2.31-9.79-2.31-7.113 0-13.31 2.53-18.59 7.59l-7.81-9.79C8.083 4.417 17.433.53 29.24.53c8.58 0 15.327 1.797 20.24 5.39 4.987 3.593 7.48 8.433 7.48 14.52 0 4.4-1.577 8.103-4.73 11.11-3.153 2.933-6.93 4.803-11.33 5.61 4.327.44 8.25 2.237 11.77 5.39 3.593 3.08 5.39 7.15 5.39 12.21 0 6.38-2.64 11.587-7.92 15.62-5.28 3.96-12.283 5.94-21.01 5.94z" fill="#dc848d" fill-opacity=".5"/></svg>