<svg width="130" height="130" viewBox="0 0 130 130" fill="none" xmlns="http://www.w3.org/2000/svg">
<path d="M17.7273 101.568L65.9269 68.0682M65.9269 68.0682L17.7273 17.0568M65.9269 68.0682L81.7424 14.7727M65.9269 68.0682L113.75 73.7784M65.9269 68.0682L92.6626 113.75" stroke="#dc848d"/>
<circle cx="67.2159" cy="67.2159" r="25.3523" fill="white" stroke="#dc848d"/>
<path d="M48.0329 64.0456C48.4853 61.3082 49.5183 58.6994 51.0626 56.3943C52.6068 54.0892 54.6265 52.1413 56.9859 50.6815C59.3454 49.2217 61.9899 48.2838 64.7419 47.9308C67.4939 47.5777 70.2895 47.8177 72.941 48.6347" stroke="#dc848d"/>
<path d="M85.5564 73.6708C84.3926 76.9774 82.3566 79.9078 79.6638 82.152C76.971 84.3962 73.7216 85.8707 70.2594 86.4194C66.7973 86.9681 63.2512 86.5706 59.9964 85.269C56.7416 83.9674 53.8993 81.8101 51.7702 79.0255" stroke="#dc848d"/>
<path d="M86.4589 63.3357C86.8924 65.6352 86.9071 67.994 86.5026 70.2987" stroke="#dc848d"/>
<path d="M84.3459 56.9295C85.001 58.0804 85.5369 59.2952 85.9452 60.555" stroke="#dc848d"/>
<path d="M95.5227 14.0341C95.5227 21.5088 89.4633 27.5682 81.9886 27.5682C74.5139 27.5682 68.4545 21.5088 68.4545 14.0341C68.4545 6.55942 74.5139 0.5 81.9886 0.5C89.4633 0.5 95.5227 6.55942 95.5227 14.0341Z" fill="white" stroke="#dc848d"/>
<path d="M129.5 73.125C129.5 80.5997 123.441 86.6591 115.966 86.6591C108.491 86.6591 102.432 80.5997 102.432 73.125C102.432 65.6504 108.491 59.5909 115.966 59.5909C123.441 59.5909 129.5 65.6504 129.5 73.125Z" fill="white" stroke="#dc848d"/>
<path d="M108.818 114.489C108.818 122.779 102.097 129.5 93.8068 129.5C85.5163 129.5 78.7955 122.779 78.7955 114.489C78.7955 106.198 85.5163 99.4773 93.8068 99.4773C102.097 99.4773 108.818 106.198 108.818 114.489Z" fill="white" stroke="#dc848d"/>
<path d="M34.9545 101.932C34.9545 111.446 27.2416 119.159 17.7273 119.159C8.21291 119.159 0.5 111.446 0.5 101.932C0.5 92.4174 8.21291 84.7045 17.7273 84.7045C27.2416 84.7045 34.9545 92.4174 34.9545 101.932Z" fill="white" stroke="#dc848d"/>
<circle cx="18.4659" cy="18.4659" r="16.4886" fill="white" stroke="#dc848d"/>
</svg>
