<?xml version="1.0" encoding="utf-8"?>
<!-- Generator: Adobe Illustrator 27.5.0, SVG Export Plug-In . SVG Version: 6.00 Build 0)  -->
<svg version="1.1" xmlns="http://www.w3.org/2000/svg" xmlns:xlink="http://www.w3.org/1999/xlink" x="0px" y="0px"
	 viewBox="0 0 3710 3710" style="enable-background:new 0 0 3710 3710;" xml:space="preserve">
<g id="Background">
	<g>
		<g>
			<rect style="fill:#FFFFFF;" width="3710" height="3710"/>
		</g>
	</g>
</g>
<g id="Illustration">
	<g>
		<path style="fill:#F4F7FA;" d="M1899.768,497.092c-736.547-21.449-1374.552,505.6-1470.944,1197.154
			c-105.39,756.121,474.664,1436.447,1188.397,1545.411c887.764,135.534,1748.843-648.544,1671.528-1499.151
			C3230.498,1099.649,2648.482,518.896,1899.768,497.092z"/>
		<g>
			<g>
				<g>
					<g>
						<g>
							<defs>
								<path id="SVGID_1_" d="M1335.295,2851.966c-20.809,49.352-59.596,117.88-100.903,196.82h880.183
									c-134.446-248.568-310.315-504.594-173.28-989.853c64.308-227.724,263.094-640.504,122.541-876.233
									c-160.129-268.563-377.205-111.153-468.85-323.756c-143.239-332.295-472.409-530.223-763.736-312.59
									c-287.528,214.795-187.323,832.98,322.055,1451.37C1468.484,2482.756,1443.954,2594.268,1335.295,2851.966z"/>
							</defs>
							
								<linearGradient id="SVGID_00000139995405931209156200000009488047382970332829_" gradientUnits="userSpaceOnUse" x1="1588.53" y1="587.4097" x2="1238.9055" y2="3051.0579">
								<stop  offset="0" style="stop-color:#FFC444"/>
								<stop  offset="0.9964" style="stop-color:#F36F56"/>
							</linearGradient>
							
								<use xlink:href="#SVGID_1_"  style="overflow:visible;fill:url(#SVGID_00000139995405931209156200000009488047382970332829_);"/>
							<clipPath id="SVGID_00000129165260219283397240000007660149877798890625_">
								<use xlink:href="#SVGID_1_"  style="overflow:visible;"/>
							</clipPath>
							<g style="clip-path:url(#SVGID_00000129165260219283397240000007660149877798890625_);">
								<g>
									<path style="fill:#FCFDFE;" d="M1689.436,2997.788c-10.168-114.123-25.544-221.246-41.824-334.661l-5.421-37.813
										c-11.204-54.129-20.782-107.805-30.044-159.713c-20.914-117.209-40.669-227.922-77.702-343.13
										c-1.383-6.843-2.39-13.536-3.452-20.627c-3.8-25.319-7.732-51.499-26.065-74.419l-0.489-0.992
										c-149.688-616.024-428.956-1211.489-830.047-1769.845l4.147-2.978c401.352,558.721,680.852,1154.604,830.73,1771.071
										c18.893,23.894,23.075,51.783,26.77,76.406c1.057,7.027,2.051,13.664,3.341,20.103
										c37.062,115.255,56.847,226.132,77.793,343.517c9.255,51.874,18.828,105.514,30.047,159.73l5.444,37.969
										c16.291,113.483,31.676,220.673,41.857,334.934L1689.436,2997.788z"/>
									<path style="fill:#FCFDFE;" d="M1603.432,2444.762c-48.307-294.586,56.689-668.026,153.274-929.432
										c104.598-283.089,222.132-499.415,223.308-501.565l4.482,2.445c-1.173,2.15-118.558,218.203-223.027,500.957
										c-96.36,260.809-201.122,633.301-152.999,926.771L1603.432,2444.762z"/>
									<path style="fill:#FCFDFE;" d="M1219.159,1189.726c-68.68-309.743-69.028-650.717-69.142-762.763
										c-0.023-21.431-0.038-35.59-0.517-38.273l5.025-0.902c0.539,3.001,0.57,14.177,0.597,39.172
										c0.114,111.909,0.462,452.462,69.022,761.661L1219.159,1189.726z"/>
									<path style="fill:#FCFDFE;" d="M1404.288,1674.118c-144.725-254.464-731.771-413.662-737.683-415.241l1.316-4.932
										c5.932,1.582,595.035,161.351,740.805,417.652L1404.288,1674.118z"/>
								</g>
							</g>
						</g>
					</g>
					<g>
						<g>
							<defs>
								<path id="SVGID_00000064330461862214928660000012586489946038589613_" d="M1184.013,1869.457
									c4.741,404.379,199.782,271.133,379.63,311.042c207.565,300.32,227.119,578.954-82.788,819.583l-345.315-51.677
									c-128.126-5.946-278.468-45.106-269.985-215.713c9.594-192.955,55.225-315.507-162.566-410.266
									c-217.788-94.76-311.346-267.667-223.152-464.341c92.81-206.969-124.881-485.954,34.212-624.626
									C791.259,991.831,1179.075,1448.376,1184.013,1869.457z"/>
							</defs>
							
								<linearGradient id="SVGID_00000029028581873760314890000012593859342314310563_" gradientUnits="userSpaceOnUse" x1="612.3396" y1="1498.6178" x2="1922.3632" y2="3655.2539">
								<stop  offset="0.0036" style="stop-color:#E38DDD"/>
								<stop  offset="1" style="stop-color:#9571F6"/>
							</linearGradient>
							
								<use xlink:href="#SVGID_00000064330461862214928660000012586489946038589613_"  style="overflow:visible;fill:url(#SVGID_00000029028581873760314890000012593859342314310563_);"/>
							<clipPath id="SVGID_00000016765552510967415890000017049320040123519402_">
								<use xlink:href="#SVGID_00000064330461862214928660000012586489946038589613_"  style="overflow:visible;"/>
							</clipPath>
							<g style="clip-path:url(#SVGID_00000016765552510967415890000017049320040123519402_);">
								<g>
									<path style="fill:#FCFDFE;" d="M1269.743,2593.122c-144.171-157.726-269.082-332.995-371.265-520.943
										c-103.06-189.57-181.618-389.519-233.482-594.299c-29.74-117.423-50.735-237.058-62.399-355.58l5.196-0.509
										c11.643,118.258,32.59,237.633,62.267,354.808c51.756,204.355,130.152,403.897,233.009,593.084
										c101.979,187.576,226.646,362.502,370.529,519.914L1269.743,2593.122z"/>
									<path style="fill:#FCFDFE;" d="M898.072,2815.223l-2.37-4.656c64.135-32.671,139.789-58.149,224.862-75.726
										c40.538-8.377,80.808-13.905,119.692-16.431l0.341,5.214c-38.644,2.508-78.674,8.003-118.973,16.335
										C1037.002,2757.439,961.791,2782.762,898.072,2815.223z"/>
									<path style="fill:#FCFDFE;" d="M965.701,2187.558c-178.314-172.489-557.888-156.726-561.692-156.522l-0.245-5.22
										c3.846-0.167,385.628-16.081,565.57,157.989L965.701,2187.558z"/>
									<path style="fill:#FCFDFE;" d="M745.825,1737.387c-53.373-275.178,152.865-593.176,154.953-596.354l4.364,2.867
										c-2.077,3.164-207.153,319.419-154.188,592.494L745.825,1737.387z"/>
								</g>
							</g>
						</g>
					</g>
				</g>
			</g>
		</g>
		<g>
			<g>
				
					<linearGradient id="SVGID_00000150065246592233014190000000843441528955323539_" gradientUnits="userSpaceOnUse" x1="2347.2598" y1="2844.4758" x2="2349.0986" y2="2964.0081" gradientTransform="matrix(-1 0 0 1 4283.5015 0)">
					<stop  offset="0" style="stop-color:#444B8C"/>
					<stop  offset="0.9964" style="stop-color:#26264F"/>
				</linearGradient>
				<path style="fill:url(#SVGID_00000150065246592233014190000000843441528955323539_);" d="M2905.996,3029.228l-1213.248-83.784
					c-1.459-0.138-2.928-0.142-4.388-0.014l-722.536,32.733c-17.284,1.571-16.498,46.827,3.12,49.297l1135.288,152.016
					c4.647,0.574,9.348,0.56,13.992-0.04l785.538-110.379C2914.245,3067.232,2918.075,3030.112,2905.996,3029.228z"/>
				
					<linearGradient id="SVGID_00000119804760856508214400000003617134713802797734_" gradientUnits="userSpaceOnUse" x1="2326.5066" y1="3081.6846" x2="2517.4011" y2="2503.6982" gradientTransform="matrix(-1 0 0 1 4283.5015 0)">
					<stop  offset="0" style="stop-color:#444B8C"/>
					<stop  offset="0.9964" style="stop-color:#26264F"/>
				</linearGradient>
				<path style="fill:url(#SVGID_00000119804760856508214400000003617134713802797734_);" d="M2903.6,3027.892l-1210.853-114.263
					c-1.459-0.138-2.928-0.142-4.388-0.014l-719.029,63.127c-13.203,1.159-13.54,20.34-0.387,21.963l1135.288,140.099
					c4.647,0.573,9.348,0.56,13.992-0.04l785.538-101.521C2909.326,3036.524,2909.186,3028.42,2903.6,3027.892z"/>
				
					<linearGradient id="SVGID_00000065041603023624043010000000521100102597837208_" gradientUnits="userSpaceOnUse" x1="1480.2793" y1="3026.3821" x2="3254.543" y2="3026.3821" gradientTransform="matrix(-1 0 0 1 4283.5015 0)">
					<stop  offset="0" style="stop-color:#FF9085"/>
					<stop  offset="1" style="stop-color:#FB6FBB"/>
				</linearGradient>
				<path style="fill:url(#SVGID_00000065041603023624043010000000521100102597837208_);" d="M2092.227,3125.121
					c1.679,0,3.376-0.109,5.042-0.324l704.063-90.991c2.566-0.332,2.501-4.068-0.074-4.311l-1081.172-101.816
					c-0.242-0.023-0.485-0.034-0.724-0.034c-0.223,0-0.445,0.01-0.667,0.029l-687.3,60.341c-3.19,0.28-3.271,4.914-0.094,5.306
					l1056.109,131.504C2089.001,3125.021,2090.622,3125.121,2092.227,3125.121z"/>
				
					<linearGradient id="SVGID_00000056405496069939714030000013299832659820726426_" gradientUnits="userSpaceOnUse" x1="2208.0559" y1="2796.8413" x2="2236.927" y2="2796.8413" gradientTransform="matrix(-0.9927 0.1207 0.1207 0.9927 4375.7886 34.9268)">
					<stop  offset="0" style="stop-color:#FF9085"/>
					<stop  offset="1" style="stop-color:#FB6FBB"/>
				</linearGradient>
				<path style="fill:url(#SVGID_00000056405496069939714030000013299832659820726426_);" d="M2492.77,3081.348
					c0.255,2.1,6.878,3.022,14.792,2.06c7.915-0.962,14.123-3.444,13.868-5.544c-0.256-2.1-6.878-3.022-14.793-2.06
					C2498.724,3076.766,2492.515,3079.248,2492.77,3081.348z"/>
				<g>
					
						<linearGradient id="SVGID_00000059275875977882732020000007060759247449491879_" gradientUnits="userSpaceOnUse" x1="2307.4124" y1="3138.0864" x2="2309.3765" y2="3188.7583" gradientTransform="matrix(-1 0 0 1 4283.5015 0)">
						<stop  offset="0" style="stop-color:#444B8C"/>
						<stop  offset="0.9964" style="stop-color:#26264F"/>
					</linearGradient>
					<path style="fill:url(#SVGID_00000059275875977882732020000007060759247449491879_);" d="M1920.224,3146.17l108.98,14.317
						c7.962,1.046,14.481-2.846,14.481-8.703l0,0c0-5.857-6.519-11.367-14.481-12.298l-108.98-12.731
						c-6.733-0.787-12.142,2.888-12.142,8.201l0,0C1908.083,3140.269,1913.491,3145.286,1920.224,3146.17z"/>
					
						<linearGradient id="SVGID_00000067937525086560198470000008045051729093080500_" gradientUnits="userSpaceOnUse" x1="2436.7925" y1="3133.0715" x2="2438.7563" y2="3183.7432" gradientTransform="matrix(-1 0 0 1 4283.5015 0)">
						<stop  offset="0" style="stop-color:#444B8C"/>
						<stop  offset="0.9964" style="stop-color:#26264F"/>
					</linearGradient>
					<path style="fill:url(#SVGID_00000067937525086560198470000008045051729093080500_);" d="M1801.183,3130.532l89.746,11.79
						c6.506,0.855,11.828-2.735,11.828-8.026l0,0c0-5.291-5.322-10.202-11.828-10.962l-89.746-10.484
						c-5.588-0.653-10.08,2.748-10.08,7.59l0,0C1791.104,3125.282,1795.596,3129.798,1801.183,3130.532z"/>
					
						<linearGradient id="SVGID_00000049210796467430884730000009678893000625599891_" gradientUnits="userSpaceOnUse" x1="2598.7676" y1="3126.7937" x2="2600.7317" y2="3177.4661" gradientTransform="matrix(-1 0 0 1 4283.5015 0)">
						<stop  offset="0" style="stop-color:#444B8C"/>
						<stop  offset="0.9964" style="stop-color:#26264F"/>
					</linearGradient>
					<path style="fill:url(#SVGID_00000049210796467430884730000009678893000625599891_);" d="M1650.77,3110.771l68.278,8.97
						c4.901,0.644,8.906-2.55,8.906-7.138l0,0c0-4.589-4.005-8.776-8.906-9.349l-68.278-7.976c-4.292-0.501-7.747,2.538-7.747,6.786
						l0,0C1643.023,3106.311,1646.477,3110.208,1650.77,3110.771z"/>
				</g>
				<path style="opacity:0.6;fill:#FFFFFF;" d="M1524.405,2984.124c105.51,18.785,175.584,57.034,326.996,60.096
					c131.161,2.653,132.133-27.571,284.574-37.118c199.711-12.508,251.766,36,456.026,31.816
					c53.263-1.091,122.98-5.899,205.466-21.041l106.133,10.015c5.586,0.528,5.726,8.631,0.161,9.351l-785.538,101.521
					c-4.644,0.6-9.345,0.614-13.992,0.04l-960.929-118.583C1308.186,2965.244,1434.439,2968.106,1524.405,2984.124z"/>
			</g>
			<g>
				<path style="fill:#FFFFFF;" d="M1774.494,3039.647c-56.224,0-139.872-9.729-139.872-36.533
					c0-26.804,83.647-36.533,139.872-36.533c56.223,0,139.87,9.729,139.87,36.533
					C1914.364,3029.918,1830.717,3039.647,1774.494,3039.647z M1774.494,2977.253c-84.826,0-129.2,16.836-129.2,25.861
					c0,9.025,44.374,25.861,129.2,25.861c84.825,0,129.198-16.836,129.198-25.861
					C1903.693,2994.089,1859.319,2977.253,1774.494,2977.253z"/>
				<ellipse style="opacity:0.6;fill:#FFFFFF;" cx="1774.494" cy="3003.114" rx="61.152" ry="14.18"/>
				<defs>
					
						<filter id="Adobe_OpacityMaskFilter" filterUnits="userSpaceOnUse" x="1010.146" y="1507.922" width="1627.698" height="1517.879">
						<feColorMatrix  type="matrix" values="1 0 0 0 0  0 1 0 0 0  0 0 1 0 0  0 0 0 1 0"/>
					</filter>
				</defs>
				
					<mask maskUnits="userSpaceOnUse" x="1010.146" y="1507.922" width="1627.698" height="1517.879" id="SVGID_00000128449080417900178340000005606797303668109192_">
					<g style="filter:url(#Adobe_OpacityMaskFilter);">
						
							<linearGradient id="SVGID_00000181054527799728478470000003825307142061810589_" gradientUnits="userSpaceOnUse" x1="1873.094" y1="2934.7686" x2="1822.1427" y2="1728.918">
							<stop  offset="0" style="stop-color:#FFFFFF"/>
							<stop  offset="1" style="stop-color:#000000"/>
						</linearGradient>
						<path style="fill:url(#SVGID_00000181054527799728478470000003825307142061810589_);" d="M2637.844,1751.5L1914.289,2934.54
							l-6.61,10.793l-8.775,14.362l-15.386,25.155l-11.173,18.251c0,12.168-41.126,22.054-92.81,22.669
							c-1.667,0.03-3.335,0.03-5.032,0.03c-54.054,0-97.84-10.15-97.84-22.699l-10.237-18.574l-20.505-37.177l-6.99-12.694
							l-8.775-15.912l-43.056-78.126l-74.177-134.521l-83.568-151.601l-8.335-15.152l-92.343-167.543l-58.704-106.471L1010.146,1794
							c60.138-46.069,200.479-145.811,405.052-214.431c30.391-10.209,62.185-19.715,95.384-28.256
							c7.664-1.99,15.415-3.919,23.254-5.791c5.879-1.404,11.787-2.779,17.726-4.095c4.679-1.083,9.418-2.107,14.156-3.13
							c0.029,0,0.029,0,0.059,0c70.755-15.151,147.098-25.652,228.559-29.103c9.798-0.438,19.685-0.761,29.658-0.965
							c155.551-3.276,294.108,20.006,411.898,54.112c3.977,1.111,7.927,2.281,11.817,3.452c1.14,0.35,2.281,0.673,3.394,1.023
							c12.547,3.773,24.862,7.694,36.912,11.7c32.965,10.94,64.057,22.61,93.19,34.603
							C2504.114,1663.691,2592.126,1720.086,2637.844,1751.5z"/>
					</g>
				</mask>
				<path style="opacity:0.56;mask:url(#SVGID_00000128449080417900178340000005606797303668109192_);fill:#FFFFFF;" d="
					M2637.844,1751.5L1914.289,2934.54l-6.61,10.793l-8.775,14.362l-15.386,25.155l-11.173,18.251
					c0,12.168-41.126,22.054-92.81,22.669c-1.667,0.03-3.335,0.03-5.032,0.03c-54.054,0-97.84-10.15-97.84-22.699l-10.237-18.574
					l-20.505-37.177l-6.99-12.694l-8.775-15.912l-43.056-78.126l-74.177-134.521l-83.568-151.601l-8.335-15.152l-92.343-167.543
					l-58.704-106.471L1010.146,1794c60.138-46.069,200.479-145.811,405.052-214.431c30.391-10.209,62.185-19.715,95.384-28.256
					c7.664-1.99,15.415-3.919,23.254-5.791c5.879-1.404,11.787-2.779,17.726-4.095c4.679-1.083,9.418-2.107,14.156-3.13
					c0.029,0,0.029,0,0.059,0c70.755-15.151,147.098-25.652,228.559-29.103c9.798-0.438,19.685-0.761,29.658-0.965
					c155.551-3.276,294.108,20.006,411.898,54.112c3.977,1.111,7.927,2.281,11.817,3.452c1.14,0.35,2.281,0.673,3.394,1.023
					c12.547,3.773,24.862,7.694,36.912,11.7c32.965,10.94,64.057,22.61,93.19,34.603
					C2504.114,1663.691,2592.126,1720.086,2637.844,1751.5z"/>
			</g>
		</g>
		<g>
			<g>
				<g>
					<path style="fill:#97A6B7;" d="M3087.228,1327.312l-71.136-13.229c3.92-47.894,1.092-95.106-7.759-140.623l66.672-23.581
						c18.221-6.445,27.875-26.883,21.601-45.695l-16.736-50.18c-6.312-18.927-26.293-29.194-44.668-22.887l-65.705,22.554
						c-20.365-43.915-46.793-85.025-78.513-122.07l45.167-52.256c12.959-14.994,11.305-38.238-3.715-51.978l-40.16-36.736
						c-15.183-13.888-38.176-12.987-51.336,2.071l-45.132,51.641c-40.137-28.744-84.89-52.446-133.532-69.784l12.927-68.859
						c3.814-20.315-9.662-40.683-30.163-45.507l-54.868-12.916c-20.765-4.887-40.776,7.786-44.631,28.325l-13.07,69.615
						c-52.483-5.395-104.479-3.132-154.683,6.051l-25.127-69.872c-7.384-20.533-30.15-32.23-50.895-26.078l-55.483,16.455
						c-20.982,6.223-31.89,28.088-24.316,48.786l26.189,71.575c-47.455,21.753-91.564,50.179-130.834,84.428l-61.881-52.169
						c-17.544-14.792-43.815-13.762-58.652,2.366l-39.589,43.034c-14.936,16.237-12.599,41.384,5.193,56.099l64.198,53.095
						c-28.452,42.019-51.077,88.539-66.541,138.718l-85.963-15.986c-23.135-4.301-45.238,9.696-49.291,31.281l-10.776,57.402
						c-4.052,21.583,11.519,42.378,34.7,46.432l88.423,15.464c-1.953,51.474,3.807,101.907,16.402,150.09l-86.161,29.574
						c-21.971,7.541-33.286,30.224-25.226,50.61l21.366,54.032c8.007,20.249,32.183,30.379,53.949,22.68l87.331-30.887
						c24.48,43.125,54.938,82.698,90.44,117.539l-59.864,68.498c-14.595,16.698-12.342,40.938,5.004,54.075l45.872,34.742
						c17.151,12.989,42.674,10.003,57.031-6.606l59.553-68.899c41.521,24.031,86.709,42.818,134.773,55.399l-16.189,86.232
						c-3.855,20.538,10.242,39.365,31.421,42.044l55.964,7.082c20.911,2.645,40.9-11.684,44.714-31.998l16.013-85.296
						c48.794,0.795,96.409-4.908,141.875-16.287l28.586,78.123c6.829,18.665,27.989,27.532,47.221,19.852l50.87-20.312
						c19.025-7.596,29.014-28.74,22.348-47.275l-27.585-76.709c41.696-21.914,80.255-49.083,114.651-80.681l60.616,50.133
						c14.879,12.306,37.281,9.685,50.053-5.798l33.863-41.053c12.696-15.389,11.096-37.857-3.59-50.239l-58.466-49.288
						c25.518-38.233,46.221-80.147,61.128-125.055l73.197,12.802c18.868,3.3,37.068-9.746,40.707-29.131l9.679-51.55
						C3118.327,1349.358,3106.058,1330.814,3087.228,1327.312z M2431.839,1643.586c-211.891-31.696-357.323-228.066-317.99-437.582
						s246.509-342.018,455.972-297.395c202.345,43.107,331.449,236.529,294.502,433.328
						C2827.378,1538.736,2636.529,1674.205,2431.839,1643.586z"/>
					<polygon style="fill:#97A6B7;" points="2371.68,665.649 2321.359,654.394 2295.369,696.525 					"/>
					<polygon style="fill:#97A6B7;" points="2869.975,780.895 2928.27,792.441 2920.182,835.522 					"/>
					<polygon style="fill:#97A6B7;" points="3053.538,1030.493 3111.313,1043.775 3090.638,1073.645 					"/>
					<polygon style="fill:#97A6B7;" points="3092.145,1328.866 3150.07,1344.563 3125.502,1369.482 					"/>
					<polygon style="fill:#97A6B7;" points="2918.597,1713.951 2974.121,1732.812 2989.85,1687.549 					"/>
					<polygon style="fill:#97A6B7;" points="2660.826,1883.13 2710.309,1902.063 2721.488,1864.986 					"/>
					<polygon style="fill:#97A6B7;" points="2387.62,1925.858 2343.158,1909.073 2393.785,1857.706 					"/>
					<polygon style="fill:#97A6B7;" points="2147.74,1829.595 2096.257,1808.479 2146.99,1766.172 					"/>
					<polygon style="fill:#97A6B7;" points="2026.876,813.667 2082.437,825.906 2052.664,862.505 					"/>
					<polygon style="fill:#97A6B7;" points="1833.381,1231.168 1883.191,1248.354 1886.985,1205.672 					"/>
					<polygon style="fill:#97A6B7;" points="1885.812,1558.63 1934.349,1576.18 1944.655,1543.761 					"/>
				</g>
				<path style="fill:#D8DEE8;" d="M3143.814,1342.716l-71.725-13.339c3.951-48.285,1.098-95.881-7.826-141.77l67.224-23.771
					c18.372-6.497,28.105-27.102,21.78-46.068l-16.877-50.589c-6.365-19.082-26.511-29.433-45.037-23.075l-66.25,22.735
					c-20.535-44.273-47.183-85.717-79.166-123.067l45.539-52.679c13.067-15.116,11.398-38.55-3.747-52.402l-40.493-37.036
					c-15.309-14.001-38.493-13.094-51.762,2.087l-45.504,52.061c-40.47-28.979-85.594-52.876-134.64-70.357l13.033-69.421
					c3.845-20.48-9.743-41.014-30.414-45.879l-55.324-13.023c-20.936-4.927-41.114,7.849-45,28.554l-13.176,70.183
					c-52.918-5.441-105.345-3.16-155.964,6.097l-25.337-70.442c-7.445-20.7-30.4-32.495-51.317-26.292l-55.942,16.588
					c-21.155,6.273-32.152,28.316-24.516,49.183l26.408,72.159c-47.848,21.93-92.321,50.586-131.917,85.113l-62.395-52.596
					c-17.69-14.912-44.179-13.875-59.138,2.384l-39.915,43.384c-15.059,16.369-12.703,41.721,5.237,56.557l64.731,53.529
					c-28.688,42.36-51.5,89.259-67.09,139.847l-86.675-16.118c-23.327-4.338-45.613,9.774-49.698,31.534l-10.865,57.869
					c-4.084,21.76,11.615,42.725,34.989,46.813l89.156,15.592c-1.968,51.893,3.841,102.738,16.542,151.314l-86.875,29.813
					c-22.152,7.602-33.561,30.47-25.433,51.022l21.544,54.474c8.074,20.415,32.45,30.628,54.397,22.867l88.053-31.137
					c24.684,43.477,55.395,83.374,91.192,118.5l-60.359,69.055c-14.715,16.835-12.444,41.272,5.048,54.517l46.252,35.025
					c17.294,13.096,43.027,10.087,57.503-6.658l60.044-69.46c41.865,24.228,87.428,43.171,135.892,55.854l-16.321,86.935
					c-3.886,20.705,10.328,39.686,31.682,42.388l56.428,7.141c21.084,2.668,41.24-11.779,45.084-32.258l16.143-85.99
					c49.197,0.803,97.207-4.946,143.05-16.417l28.824,78.761c6.887,18.817,28.222,27.756,47.613,20.016l51.291-20.477
					c19.183-7.659,29.253-28.975,22.532-47.66l-27.816-77.335c42.042-22.092,80.919-49.482,115.6-81.336l61.119,50.542
					c15.004,12.407,37.59,9.766,50.467-5.843l34.143-41.386c12.801-15.514,11.188-38.166-3.621-50.649l-58.951-49.692
					c25.728-38.544,46.602-80.798,61.631-126.072l73.805,12.908c19.024,3.327,37.375-9.825,41.044-29.367l9.756-51.97
					C3175.173,1364.942,3162.802,1346.247,3143.814,1342.716z M2483.005,1661.552c-213.646-31.96-360.289-229.935-320.635-441.159
					c39.655-211.222,248.543-344.799,459.742-299.806c204.023,43.463,334.202,238.464,296.953,436.868
					C2881.818,1555.858,2689.392,1692.425,2483.005,1661.552z"/>
			</g>
		</g>
		<g>
			<g>
				<g>
					<path style="fill:#97A6B7;" d="M2892.58,2547.995l-37.926-7.053c2.09-25.534,0.582-50.705-4.137-74.972l35.546-12.572
						c9.714-3.436,14.862-14.332,11.516-24.362l-8.923-26.753c-3.365-10.091-14.018-15.564-23.814-12.202l-35.031,12.024
						c-10.857-23.413-24.947-45.33-41.859-65.081l24.081-27.86c6.909-7.994,6.027-20.386-1.981-27.711l-21.411-19.586
						c-8.094-7.404-20.353-6.924-27.369,1.104l-24.062,27.532c-21.398-15.324-45.259-27.961-71.191-37.205l6.892-36.712
						c2.033-10.831-5.151-21.689-16.082-24.262l-29.252-6.886c-11.071-2.606-21.74,4.151-23.795,15.101l-6.968,37.115
						c-27.981-2.876-55.702-1.67-82.469,3.226l-13.396-37.252c-3.937-10.947-16.074-17.183-27.134-13.903l-29.581,8.773
						c-11.186,3.318-17.002,14.975-12.964,26.01l13.962,38.16c-25.3,11.598-48.817,26.753-69.753,45.012l-32.991-27.813
						c-9.354-7.886-23.36-7.337-31.27,1.261l-21.106,22.943c-7.963,8.657-6.717,22.064,2.769,29.909l34.227,28.307
						c-15.169,22.402-27.231,47.204-35.476,73.956l-45.831-8.522c-12.334-2.293-24.118,5.169-26.279,16.677l-5.745,30.603
						c-2.16,11.507,6.141,22.594,18.5,24.755l47.142,8.245c-1.042,27.443,2.03,54.331,8.745,80.019l-45.936,15.767
						c-11.714,4.02-17.746,16.114-13.449,26.982l11.391,28.807c4.269,10.796,17.158,16.196,28.762,12.092l46.56-16.467
						c13.051,22.992,29.29,44.09,48.217,62.666l-31.916,36.519c-7.781,8.903-6.58,21.826,2.668,28.83l24.456,18.522
						c9.144,6.925,22.751,5.333,30.405-3.522l31.75-36.733c22.136,12.812,46.229,22.828,71.854,29.535l-8.631,45.974
						c-2.056,10.95,5.461,20.987,16.752,22.416l29.837,3.775c11.148,1.41,21.806-6.229,23.839-17.059l8.537-45.475
						c26.014,0.424,51.4-2.617,75.64-8.683l15.24,41.651c3.641,9.951,14.922,14.678,25.175,10.584l27.121-10.829
						c10.143-4.05,15.469-15.323,11.915-25.204l-14.707-40.897c22.23-11.683,42.788-26.168,61.125-43.015l32.317,26.728
						c7.933,6.561,19.876,5.164,26.686-3.091l18.054-21.887c6.769-8.204,5.916-20.183-1.914-26.784l-31.171-26.278
						c13.604-20.384,24.643-42.729,32.59-66.672l39.025,6.825c10.059,1.759,19.763-5.196,21.703-15.531l5.16-27.483
						C2909.16,2559.748,2902.619,2549.862,2892.58,2547.995z M2543.164,2716.614c-112.968-16.899-190.504-121.592-169.534-233.294
						c20.971-111.702,131.424-182.345,243.099-158.554c107.879,22.982,176.71,126.104,157.011,231.026
						C2754.043,2660.714,2652.293,2732.938,2543.164,2716.614z"/>
					<polygon style="fill:#97A6B7;" points="2511.091,2195.234 2484.263,2189.233 2470.406,2211.695 					"/>
					<polygon style="fill:#97A6B7;" points="2776.753,2256.676 2807.833,2262.832 2803.521,2285.8 					"/>
					<polygon style="fill:#97A6B7;" points="2874.618,2389.748 2905.421,2396.829 2894.398,2412.754 					"/>
					<polygon style="fill:#97A6B7;" points="2895.201,2548.823 2926.084,2557.192 2912.986,2570.477 					"/>
					<polygon style="fill:#97A6B7;" points="2802.676,2754.128 2832.278,2764.184 2840.664,2740.052 					"/>
					<polygon style="fill:#97A6B7;" points="2665.247,2844.325 2691.628,2854.419 2697.589,2834.652 					"/>
					<polygon style="fill:#97A6B7;" points="2519.589,2867.105 2495.885,2858.156 2522.876,2830.77 					"/>
					<polygon style="fill:#97A6B7;" points="2391.698,2815.783 2364.251,2804.525 2391.299,2781.969 					"/>
					<polygon style="fill:#97A6B7;" points="2327.261,2274.148 2356.883,2280.673 2341.01,2300.186 					"/>
					<polygon style="fill:#97A6B7;" points="2224.101,2496.736 2250.656,2505.899 2252.679,2483.143 					"/>
					<polygon style="fill:#97A6B7;" points="2252.054,2671.32 2277.931,2680.677 2283.426,2663.393 					"/>
				</g>
				<path style="fill:#D8DEE8;" d="M2922.749,2556.207l-38.24-7.111c2.107-25.742,0.586-51.118-4.173-75.583l35.84-12.673
					c9.795-3.464,14.984-14.449,11.612-24.561l-8.998-26.971c-3.393-10.173-14.134-15.692-24.011-12.302l-35.321,12.121
					c-10.948-23.604-25.155-45.7-42.207-65.612l24.279-28.086c6.967-8.059,6.077-20.553-1.997-27.938l-21.589-19.745
					c-8.162-7.465-20.522-6.981-27.597,1.113l-24.26,27.756c-21.576-15.45-45.634-28.19-71.782-37.51l6.948-37.011
					c2.05-10.919-5.194-21.866-16.215-24.46l-29.496-6.943c-11.162-2.627-21.92,4.184-23.992,15.223l-7.025,37.417
					c-28.213-2.901-56.164-1.684-83.151,3.25l-13.508-37.556c-3.969-11.036-16.208-17.324-27.36-14.018l-29.825,8.844
					c-11.279,3.345-17.142,15.096-13.071,26.221l14.079,38.471c-25.51,11.692-49.22,26.969-70.33,45.377l-33.265-28.041
					c-9.431-7.95-23.554-7.398-31.529,1.271l-21.281,23.13c-8.029,8.727-6.772,22.243,2.792,30.153l34.511,28.538
					c-15.295,22.584-27.457,47.588-35.769,74.559l-46.21-8.593c-12.437-2.313-24.318,5.211-26.496,16.812l-5.792,30.852
					c-2.178,11.601,6.193,22.778,18.654,24.958l47.533,8.313c-1.049,27.667,2.048,54.774,8.819,80.672l-46.316,15.895
					c-11.811,4.053-17.893,16.245-13.56,27.202l11.486,29.042c4.305,10.884,17.301,16.329,29.001,12.191l46.945-16.601
					c13.16,23.18,29.533,44.45,48.618,63.177l-32.18,36.816c-7.845,8.975-6.634,22.004,2.692,29.065l24.659,18.673
					c9.22,6.982,22.94,5.378,30.657-3.55l32.012-37.032c22.32,12.917,46.612,23.016,72.45,29.778l-8.702,46.349
					c-2.072,11.039,5.506,21.159,16.891,22.599l30.084,3.807c11.241,1.422,21.987-6.28,24.036-17.198l8.607-45.845
					c26.229,0.428,51.825-2.637,76.266-8.752l15.367,41.991c3.672,10.032,15.047,14.798,25.385,10.671l27.345-10.917
					c10.227-4.083,15.596-15.448,12.013-25.409l-14.83-41.23c22.415-11.778,43.142-26.381,61.631-43.364l32.585,26.946
					c7.999,6.615,20.041,5.207,26.906-3.115l18.203-22.065c6.824-8.271,5.964-20.348-1.93-27.003l-31.43-26.493
					c13.717-20.549,24.846-43.077,32.858-67.214l39.349,6.882c10.143,1.774,19.926-5.238,21.882-15.657l5.202-27.707
					C2939.467,2568.057,2932.872,2558.09,2922.749,2556.207z M2570.443,2726.192c-113.904-17.039-192.086-122.588-170.945-235.2
					c21.142-112.611,132.509-183.827,245.108-159.839c108.773,23.172,178.177,127.135,158.319,232.913
					C2783.067,2669.842,2680.477,2742.652,2570.443,2726.192z"/>
			</g>
		</g>
		<g>
			<ellipse style="fill:#D8DEE8;" cx="2493.054" cy="1540.748" rx="175.341" ry="246.407"/>
			<path style="fill:#FFFFFF;" d="M1957.153,943.666h-330.015c-338.384,0-612.7,274.315-612.7,612.7v0.005
				c0,180.565,146.377,326.941,326.942,326.941h901.533c180.566,0,326.943-146.377,326.943-326.943v-0.001
				C2569.855,1217.983,2295.539,943.666,1957.153,943.666z"/>
			<path style="fill:#FFFFFF;" d="M1899.198,2553.284h-214.104c-219.534,0-397.501-177.968-397.501-397.502v-0.003
				c0-117.145,94.965-212.11,212.11-212.11h584.888c117.145,0,212.111,94.966,212.111,212.111v0.001
				C2296.701,2375.316,2118.733,2553.284,1899.198,2553.284z"/>
			<g>
				
					<linearGradient id="SVGID_00000148654177573103715810000016634003171056606082_" gradientUnits="userSpaceOnUse" x1="1474.6335" y1="1546.4063" x2="2393.4888" y2="1546.4063">
					<stop  offset="0" style="stop-color:#444B8C"/>
					<stop  offset="0.9964" style="stop-color:#26264F"/>
				</linearGradient>
				<path style="fill:url(#SVGID_00000148654177573103715810000016634003171056606082_);" d="M2256.707,1751.156h-627.313
					c-85.013,0-154.76-65.163-154.76-145.545v-123.261c0-80.382,69.747-143.32,154.76-140.608l627.313,20.012
					c75.924,2.422,136.782,64.917,136.782,139.613v114.542C2393.489,1690.603,2332.63,1751.156,2256.707,1751.156z"/>
				<g>
					<g>
						<path style="fill:#FFFFFF;" d="M1830.383,1537.438c0,53.682-45.698,96.622-102.528,95.904
							c-57.342-0.724-104.206-45.546-104.206-100.106c0-54.561,46.865-97.478,104.206-95.871
							C1784.685,1438.958,1830.383,1483.756,1830.383,1537.438z"/>
						<path style="fill:#FFFFFF;" d="M2254.317,1546.055c0,51.88-42.676,93.398-95.734,92.728
							c-53.519-0.676-97.248-43.95-97.248-96.65s43.729-94.196,97.248-92.697
							C2211.641,1450.923,2254.317,1494.176,2254.317,1546.055z"/>
					</g>
				</g>
			</g>
			<path style="opacity:0.3;fill:#FFFFFF;" d="M2019.796,1797.373c-93.296-109.618-51.838-197.285-173.809-345.833
				c-167.823-204.397-363.602-181.268-408.446-319.897c-12.426-38.414-13.853-91.139,19.476-164.023
				c-255.614,73.731-442.578,309.394-442.578,588.747v0.005c0,180.565,146.376,326.941,326.94,326.941h785.674
				C2079.994,1857.659,2045.603,1827.695,2019.796,1797.373z"/>
			<ellipse style="fill:#D8DEE8;" cx="1102.609" cy="1539.033" rx="175.341" ry="246.406"/>
			<ellipse style="fill:#BFC8D6;" cx="963.903" cy="1539.034" rx="76.674" ry="107.75"/>
			<path style="opacity:0.4;fill:#D8DEE8;" d="M1951.926,2334.451c-29.373-137.951-354.292-134.623-363.127-224.792
				c-6.812-69.511,179.737-138.33,203.179-146.979c20.048-7.396,39.947-13.655,59.648-19.011h-351.924
				c-117.144,0-212.11,94.965-212.11,212.11v0.003c0,219.534,177.966,397.502,397.501,397.502h214.105
				c20.572,0,40.777-1.563,60.507-4.577c-18.632-23.094-30.78-48.353-33.718-75.923
				C1919.474,2411.674,1963.308,2387.907,1951.926,2334.451z"/>
			<ellipse style="fill:#D8DEE8;" cx="1797.422" cy="1955.48" rx="338.141" ry="40.94"/>
		</g>
		<g>
			
				<linearGradient id="SVGID_00000175319449480787958460000016744231989164876980_" gradientUnits="userSpaceOnUse" x1="1951.6071" y1="2052.6919" x2="3043.0676" y2="2052.6919">
				<stop  offset="0" style="stop-color:#40447E"/>
				<stop  offset="0.9964" style="stop-color:#3C3B6B"/>
			</linearGradient>
			<path style="fill:url(#SVGID_00000175319449480787958460000016744231989164876980_);" d="M2925.748,1921.643
				c-57.734-22.14-120.863-10.992-171.729,24.297c-18.585-92.911-77.639-171.546-165.576-205.269
				c-144.091-55.258-311.155,30.992-373.148,192.644c-15.975,41.656-23.392,84.251-23.168,125.485
				c-7.427-4.656-15.371-8.651-23.805-11.886c-78.726-30.191-170.003,16.933-203.873,105.253
				c-33.87,88.32,1.332,187.614,81.218,214.583c42.667,14.405,110.177,14.674,110.177,14.674s656.671-48.9,676.926-48.732
				c80.891,0.674,160.616-54.661,194.463-142.921C3069.555,2079.413,3024.119,1959.367,2925.748,1921.643z"/>
			
				<linearGradient id="SVGID_00000079456280906726478740000008774801162851901363_" gradientUnits="userSpaceOnUse" x1="2745.989" y1="1912.9579" x2="2273.0166" y2="2446.9583">
				<stop  offset="0" style="stop-color:#AA80F9"/>
				<stop  offset="0.9964" style="stop-color:#6165D7"/>
			</linearGradient>
			<path style="fill:url(#SVGID_00000079456280906726478740000008774801162851901363_);" d="M2945.274,1921.721
				c-57.734-22.14-120.863-10.991-171.729,24.297c-18.586-92.911-77.639-171.546-165.576-205.269
				c-144.091-55.258-311.155,30.992-373.148,192.644c-15.975,41.656-23.393,84.251-23.168,125.485
				c-7.427-4.656-15.371-8.651-23.805-11.886c-78.726-30.191-170.003,16.933-203.873,105.253
				c-33.87,88.321,2.492,184.393,81.218,214.584c16.66,6.389,110.177,14.674,110.177,14.674s656.671-48.9,676.926-48.732
				c80.891,0.673,160.617-54.662,194.463-142.921C3089.081,2079.491,3043.644,1959.446,2945.274,1921.721z"/>
		</g>
		<g>
			<path style="fill:#FFFFFF;" d="M1390.49,2066.063c-25.133,20.598-28.808,57.669-8.211,82.802l169.731,207.099l91.012-74.591
				l-169.731-207.099C1452.694,2049.142,1415.623,2045.465,1390.49,2066.063z"/>
			<path style="fill:#FFFFFF;" d="M1922.518,2261.959c-3.672-32.287-32.822-55.483-65.108-51.812l-266.052,30.257l13.297,116.919
				l266.051-30.257C1902.993,2323.395,1926.19,2294.246,1922.518,2261.959z"/>
			
				<linearGradient id="SVGID_00000132080593676675767770000001293764839888083348_" gradientUnits="userSpaceOnUse" x1="1661.1995" y1="2221.4016" x2="1470.5222" y2="2462.2568">
				<stop  offset="0" style="stop-color:#444B8C"/>
				<stop  offset="0.9964" style="stop-color:#26264F"/>
			</linearGradient>
			
				<circle style="fill:url(#SVGID_00000132080593676675767770000001293764839888083348_);" cx="1591.359" cy="2309.622" r="85.374"/>
		</g>
		
			<linearGradient id="SVGID_00000137112800061967395490000005453167824420400540_" gradientUnits="userSpaceOnUse" x1="6817.7153" y1="-599.1339" x2="6614.9565" y2="-343.0176" gradientTransform="matrix(0.2225 0.7493 -0.9777 0.2903 -65.4696 -2642.407)">
			<stop  offset="0" style="stop-color:#444B8C"/>
			<stop  offset="0.9964" style="stop-color:#26264F"/>
		</linearGradient>
		<path style="fill:url(#SVGID_00000137112800061967395490000005453167824420400540_);" d="M1868.209,2221.047l43.944,107.856
			c6.531,16.03,31.3,20.804,50.199,9.424c27.692-16.675,57.958-45.124,45.739-86.268c-15.46-52.059-61.452-67.052-99.295-70.093
			C1883.116,2179.903,1860.411,2201.909,1868.209,2221.047z"/>
	</g>
</g>
</svg>
