<svg xmlns="http://www.w3.org/2000/svg" width="265.3" height="247.1" viewBox="0 0 265.3 247.1"><g data-name="Слой 2"><g data-name="Layer 1"><g fill="none" stroke="#e9ecef" stroke-miterlimit="10" data-name="&lt;Группа&gt;"><path d="M172.5 70.2h92.3v97.9h-92.3zM172.5 148.6h92.3M172.5 129h92.3M264.8 109.4h-92.3M172.5 89.8h92.3M241.7 70.2v97.9M218.6 70.2v97.9M195.6 70.2v97.9" data-name="&lt;Контур&gt;"/></g><ellipse cx="151.9" cy="213.7" fill="#dfb0b0" data-name="&lt;Контур&gt;" opacity=".3" rx="85.4" ry="33.4" style="isolation:isolate"/><g data-name="&lt;Группа&gt;"><path fill="#b8001c" d="M227.8 172.1c-16.9-6.9-37.2-16.2-37.2-16.2l-35.9.6h-.4l-35.7-.6s-20.5 9.3-37.4 16.2-14.1 13-14.1 13-1 12.1 24.9 27.2c24.8 14.5 59.6 14.7 62.5 14.7s37.6-.2 62.5-14.7c25.9-15.1 26.4-25.9 26.4-25.9s1.3-7.4-15.6-14.3z" data-name="&lt;Контур&gt;"/><path fill="#fdbcc5" d="M178.3 146.1c-3.2-7.1-4.2-29-4.2-29l-19.05 2.1h-20.7s0 19.8-3.2 26.9-12.3 9.7-12.3 9.7 4.5 33.1 36 33.1c35 0 36-33.1 36-33.1s-9.25-2.5-12.55-9.7z" data-name="&lt;Контур&gt;"/><path fill="#DA828D" d="M134.2 127.3s9.6 17.2 23.7 20.9 20.4-2.1 20.4-2.1-1.8-4.1-2.9-12.3a169 169 0 0 1-1.1-18.6l-40 4.1v8z" data-name="&lt;Контур&gt;"/><path fill="#b8001c" d="M119.3 101.4s3.5 10.4 9.5 10.4 47.8 0 51.5-1.5 4.3-12.1 4.3-12.1z" data-name="&lt;Контур&gt;"/><path fill="#fdbcc5" d="M122.6 100.1s11.2 33.1 30 33.1 30-32 30-32 6.4.3 8.2-9.2 1-20.3-2.8-16.8c-3.5 3.3-2.8 6.5-2.8 6.5l-3-37.6-52.7-4.5-8 41.5s-2.2-9.9-5.8-3.9 1.9 27.5 4.8 26.2c2.7-1.4 2.1-3.3 2.1-3.3z" data-name="&lt;Контур&gt;"/><path fill="#b8001c" d="M122.8 80.6a19.68 19.68 0 0 1 14.7-14.3c12.5-3 23.8-11 26.8-15.6a30.1 30.1 0 0 0 3.9-8.2s.9 5 9.3 12.5 7.2 25.6 7.2 25.6l1.5.8s.1-4.3 1.9-5.7 2.4-.6 2.4-.6 6.8-51-36.5-51.3c-46.1-.3-39.2 56.3-39.2 56.3s-.4-4.1 3.7-3.7c2.1.2 3.1 4.6 3.1 4.6z" data-name="&lt;Контур&gt;"/><path fill="#DA828D" d="M117.4 94.7s-2.4-11-1.1-13.9 4.1 1.8 4.1 1.8-2.3-3.7-3.1 1 .1 11.1.1 11.1zM188.5 94.7s2.4-11 1.1-13.9-4.1 1.8-4.1 1.8 2.3-3.7 3.1 1-.1 11.1-.1 11.1z" data-name="&lt;Контур&gt;"/><ellipse cx="152.4" cy="14.7" fill="#b8001c" data-name="&lt;Контур&gt;" rx="24.6" ry="14.7"/><path fill="#b8001c" d="M131.5 22.6a5.67 5.67 0 0 1 1.9 3.9c0 2.3-2.4 4.9-2.4 4.9l45.2-.8s-4.5-2.4-4.5-4.9 2.9-4.4 2.9-4.4z" data-name="&lt;Контур&gt;"/></g><g fill="#ec8266" data-name="&lt;Группа&gt;"><path d="M191.8 119.1h-1.4v-6.9a.65.65 0 0 1 .6-.6h.2a.65.65 0 0 1 .6.6v6.9zM213.9 119.1h-1.4v-6.9a.65.65 0 0 1 .6-.6h.2a.65.65 0 0 1 .6.6v6.9zM208.7 119.1h-1.4v-4.8a.65.65 0 0 1 .6-.6h.2a.65.65 0 0 1 .6.6v4.8zM235.6 119.1h-1.4v-4.8a.65.65 0 0 1 .6-.6h.2a.65.65 0 0 1 .6.6v4.8zM246.5 119.1h-1.4v-4.8a.65.65 0 0 1 .6-.6h.2a.65.65 0 0 1 .6.6v4.8zM197.7 119.1h-1.4v-10.2a.65.65 0 0 1 .6-.6h.2a.65.65 0 0 1 .6.6v10.2zM202.9 119.1h-1.4V99.5a.65.65 0 0 1 .6-.6h.2a.65.65 0 0 1 .6.6v19.6zM230.3 119.1h-1.4V95.5a.65.65 0 0 1 .6-.6h.2a.65.65 0 0 1 .6.6v23.6zM224.7 119.1h-1.4v-15a.65.65 0 0 1 .6-.6h.2a.65.65 0 0 1 .6.6v15zM219.3 119.1h-1.4v-12.2a.65.65 0 0 1 .6-.6h.2a.65.65 0 0 1 .6.6v12.2zM241.1 119.1h-1.4v-10.2a.65.65 0 0 1 .6-.6h.2a.65.65 0 0 1 .6.6v10.2z" data-name="&lt;Контур&gt;"/></g><g fill="#f8afa1" data-name="&lt;Группа&gt;"><path d="M191.8 119.1h-1.4v6.9a.65.65 0 0 0 .6.6h.2a.65.65 0 0 0 .6-.6v-6.9zM213.9 119.1h-1.4v6.9a.65.65 0 0 0 .6.6h.2a.65.65 0 0 0 .6-.6v-6.9zM208.7 119.1h-1.4v4.8a.65.65 0 0 0 .6.6h.2a.65.65 0 0 0 .6-.6v-4.8zM235.6 119.1h-1.4v4.8a.65.65 0 0 0 .6.6h.2a.65.65 0 0 0 .6-.6v-4.8zM246.5 119.1h-1.4v4.8a.65.65 0 0 0 .6.6h.2a.65.65 0 0 0 .6-.6v-4.8zM197.7 119.1h-1.4v10.2a.65.65 0 0 0 .6.6h.2a.65.65 0 0 0 .6-.6v-10.2zM202.9 119.1h-1.4v19.6a.65.65 0 0 0 .6.6h.2a.65.65 0 0 0 .6-.6v-19.6zM230.3 119.1h-1.4v23.6a.65.65 0 0 0 .6.6h.2a.65.65 0 0 0 .6-.6v-23.6zM224.7 119.1h-1.4v15a.65.65 0 0 0 .6.6h.2a.65.65 0 0 0 .6-.6v-15zM219.3 119.1h-1.4v12.2a.65.65 0 0 0 .6.6h.2a.65.65 0 0 0 .6-.6v-12.2zM241.1 119.1h-1.4v10.2a.65.65 0 0 0 .6.6h.2a.65.65 0 0 0 .6-.6v-10.2z" data-name="&lt;Контур&gt;"/></g><circle cx="257.8" cy="77.7" r="1.7" fill="#ec8266" data-name="&lt;Контур&gt;"/><g data-name="&lt;Группа&gt;"><g data-name="&lt;Группа&gt;"><path fill="#dfb0b0" d="M92.4 233h-30a3.33 3.33 0 0 1-3.3-3.3v-56.3a3.33 3.33 0 0 1 3.3-3.3h30a3.33 3.33 0 0 1 3.3 3.3v56.3a3.27 3.27 0 0 1-3.3 3.3z" data-name="&lt;Контур&gt;"/><path fill="#b8001c" d="M92.4 230.1h-30a3.33 3.33 0 0 1-3.3-3.3v-56.3a3.33 3.33 0 0 1 3.3-3.3h30a3.33 3.33 0 0 1 3.3 3.3v56.3a3.33 3.33 0 0 1-3.3 3.3z" data-name="&lt;Контур&gt;"/><path fill="#dfb0b0" d="M61 170.9h32.7v53.8H61z" data-name="&lt;Контур&gt;"/><path fill="#1f4d6c" d="M79.05 228.3h-3.5a.68.68 0 0 1-.7-.7v-.9a.68.68 0 0 1 .7-.7h3.5a.68.68 0 0 1 .7.7v.9a.68.68 0 0 1-.7.7zM79.2 169.4h-4.7a.32.32 0 0 1-.3-.3v-.1a.32.32 0 0 1 .3-.3h4.7a.32.32 0 0 1 .3.3v.1a.32.32 0 0 1-.3.3z" data-name="&lt;Контур&gt;"/><path fill="#fdbcc5" d="M80.05 232h-5.8a.54.54 0 0 1-.5-.5v-.1a.54.54 0 0 1 .5-.5h5.8a.54.54 0 0 1 .5.5v.1c-.15.3-.35.5-.5.5z" data-name="&lt;Контур&gt;"/></g><path fill="#fff" d="M69.9 190.1h15a1.11 1.11 0 0 1 1.1 1.1v10.5a1.11 1.11 0 0 1-1.1 1.1h-2.4v2.6l-3.2-2.6h-9.5a1.11 1.11 0 0 1-1.1-1.1v-10.5a1.28 1.28 0 0 1 1.2-1.1z" data-name="&lt;Контур&gt;"/></g><g data-name="&lt;Группа&gt;"><path fill="#fff" stroke="#e9ecef" stroke-miterlimit="10" d="M7.2 69.7h88.4a6.7 6.7 0 0 1 6.7 6.7v61.8a6.7 6.7 0 0 1-6.7 6.7h-14v15.6l-18.55-15.6H7.2a6.7 6.7 0 0 1-6.7-6.7V76.5a6.72 6.72 0 0 1 6.7-6.8z" data-name="&lt;Контур&gt;"/><path fill="#fdbcc5" d="M90.7 105.5h-77a1 1 0 0 1-1-1v-.3a1 1 0 0 1 1-1h77a1 1 0 0 1 1 1v.3a1 1 0 0 1-1 1zM77.2 112.5H13.7a1 1 0 0 1-1-1v-.3a1 1 0 0 1 1-1h63.5a1 1 0 0 1 1 1v.3a1 1 0 0 1-1 1zM77.2 119.3H13.7a1 1 0 0 1-1-1v-.3a1 1 0 0 1 1-1h63.5a1 1 0 0 1 1 1v.3a1.08 1.08 0 0 1-1 1z" data-name="&lt;Контур&gt;"/><g fill="#fdbcc5" data-name="&lt;Группа&gt;"><path d="M19.7 88.6a2.9 2.9 0 0 0 2.7-3.2 2.66 2.66 0 0 0-2.6-2.9 2.77 2.77 0 0 0-2.75 2.7c.05 2.2 1.25 3.4 2.65 3.4zM19.8 89.2c-5.7-.2-6.1 4.2-6.1 4.2s1.7 1 5.7 1.1a19.49 19.49 0 0 0 6.5-.8s-.4-4.3-6.1-4.5z" data-name="&lt;Контур&gt;"/></g><path fill="#fdbcc5" d="M32.6 85.2l.8 1.6 1.7.2a.35.35 0 0 1 .2.6l-1.2 1.2.3 1.7c0 .3-.2.5-.5.4l-1.5-.8-1.5.8c-.2.1-.5-.1-.5-.4l.3-1.7-1.2-1.2c-.2-.2-.1-.5.2-.6l1.7-.2.8-1.6c-.1-.3.3-.3.4 0zM40.1 85.2l.8 1.6 1.7.2a.35.35 0 0 1 .2.6l-1.2 1.2.3 1.7c0 .3-.2.5-.5.4l-1.6-.9-1.5.8c-.2.1-.5-.1-.5-.4l.3-1.7-1.3-1.1c-.2-.2-.1-.5.2-.6l1.7-.2.8-1.6a.31.31 0 0 1 .6 0zM47.3 85.2l.8 1.6 1.7.2a.35.35 0 0 1 .2.6l-1.2 1.2.3 1.7c0 .3-.2.5-.5.4l-1.5-.8-1.5.8c-.2.1-.5-.1-.5-.4l.3-1.7-1.2-1.2c-.2-.2-.1-.5.2-.6l1.7-.2.8-1.6c-.1-.3.2-.3.4 0z" data-name="&lt;Контур&gt;"/><path fill="#fdbcc5" d="M54.2 85.2l.8 1.6 1.7.2a.35.35 0 0 1 .2.6l-1.2 1.2.3 1.7c0 .3-.2.5-.5.4l-1.45-.8-1.5.8c-.2.1-.5-.1-.5-.4l.3-1.7-1.2-1.2c-.2-.2-.1-.5.2-.6l1.7-.2.8-1.6c-.15-.3.25-.3.35 0z" data-name="&lt;Контур&gt;" opacity=".37" style="isolation:isolate"/></g><path fill="#dfb0b0" d="M77.7 193.61l.8 1.6 1.7.2a.35.35 0 0 1 .2.6l-1.2 1.2.3 1.7c0 .3-.2.5-.5.4l-1.6-.9-1.5.8c-.2.1-.5-.1-.5-.4l.3-1.7-1.3-1.1c-.2-.2-.1-.5.2-.6l1.7-.2.8-1.6a.31.31 0 0 1 .6 0z" data-name="&lt;Контур&gt;"/></g></g></svg>