<svg xmlns="http://www.w3.org/2000/svg" width="259.39" height="239.48" viewBox="0 0 259.39 239.48"><defs><clipPath id="a"><path fill="none" d="M84.54 116.61l45.3 26.8 43-25.4-2.3-35.7-64.9-18.4-21.1 52.7z"/></clipPath></defs><g data-name="Слой 2"><g data-name="Layer 1"><path fill="#f3f5f8" d="M61.24 174.61l66.8-38.8 70.7 38.4-68.9 41-68.6-40.6z" data-name="&lt;Контур&gt;"/><g fill="none" stroke="#dfe4ea" stroke-miterlimit="10" data-name="&lt;Группа&gt;"><path d="M11.94 172.61l117.8-65.9 117.7 66.3-117.7 65.9-117.8-66.3zM100.24 222.41l117.7-65.9M70.84 205.81l117.7-65.9M41.44 189.21l117.7-65.8M100.24 123.21l117.7 66.3M70.84 139.61l117.7 66.3M41.44 156.11l117.7 66.3" data-name="&lt;Контур&gt;"/></g><g fill="#b8001c" data-name="&lt;Группа&gt;" opacity=".7"><path d="M61.24 102.81v63.1l68.5 39.6c.1 0 .1 0 .1-.1v-62z" data-name="&lt;Контур&gt;"/><path d="M198.34 102.81v63.3l-67.9 39.3a.45.45 0 0 1-.7-.4v-61.5z" data-name="&lt;Контур&gt;"/><path d="M129.84 143.41L110 156.31a7 7 0 0 1-7.4.2l-63.1-37.6a2.35 2.35 0 0 1 .1-4.1l21.6-12z" data-name="&lt;Контур&gt;" opacity=".7" style="isolation:isolate"/><path d="M129.84 143.41L110 156.31a7 7 0 0 1-7.4.2l-63.1-37.6a2.35 2.35 0 0 1 .1-4.1l21.6-12z" data-name="&lt;Контур&gt;"/><path d="M129.84 143.41l19.8 12.9a7 7 0 0 0 7.4.2l63.1-37.6a2.35 2.35 0 0 0-.1-4.1l-21.6-12z" data-name="&lt;Контур&gt;" opacity=".7" style="isolation:isolate"/><path d="M61.24 102.81L41.44 90a2.34 2.34 0 0 1 .1-4l62.2-36.6a5.86 5.86 0 0 1 6.8.5L128 64zM129.84 143.41l19.8 12.9a7 7 0 0 0 7.4.2l63.1-37.6a2.35 2.35 0 0 0-.1-4.1l-21.6-12zM198.74 102.41l17.4-12.9a2.48 2.48 0 0 0-.3-4.2l-63.6-36.4a4.37 4.37 0 0 0-5 .4L128.94 64zM61.24 102.81l66.8-38.8 1.8 79.4-68.6-40.6zM198.34 102.81l-69.9-38.8 1.4 78.7 68.5-39.9z" data-name="&lt;Контур&gt;"/></g><circle cx="254.14" cy="73.51" r="1.7" fill="#78bce8" data-name="&lt;Контур&gt;"/><g data-name="&lt;Группа&gt;"><path fill="none" stroke="#2c5e7f" stroke-miterlimit="10" d="M61.24 102.81v63.1l68.5 39.6c.1 0 .1 0 .1-.1v-62z" data-name="&lt;Контур&gt;"/><path fill="none" stroke="#2c5e7f" stroke-miterlimit="10" d="M198.34 102.81v63.3l-67.9 39.3a.45.45 0 0 1-.7-.4v-61.5z" data-name="&lt;Контур&gt;"/><path fill="#b8001c" d="M129.84 143.41L110 156.31a7 7 0 0 1-7.4.2l-63.1-37.6a2.35 2.35 0 0 1 .1-4.1l21.6-12z" data-name="&lt;Контур&gt;" opacity=".7" style="isolation:isolate"/><path fill="none" stroke="#2c5e7f" stroke-miterlimit="10" d="M129.84 143.41L110 156.31a7 7 0 0 1-7.4.2l-63.1-37.6a2.35 2.35 0 0 1 .1-4.1l21.6-12z" data-name="&lt;Контур&gt;"/><path fill="#b8001c" d="M129.84 143.41l19.8 12.9a7 7 0 0 0 7.4.2l63.1-37.6a2.35 2.35 0 0 0-.1-4.1l-21.6-12z" data-name="&lt;Контур&gt;" opacity=".7" style="isolation:isolate"/><path fill="none" stroke="#2c5e7f" stroke-miterlimit="10" d="M61.24 102.81L41.44 90a2.34 2.34 0 0 1 .1-4l62.2-36.6a5.86 5.86 0 0 1 6.8.5L128 64zM129.84 143.41l19.8 12.9a7 7 0 0 0 7.4.2l63.1-37.6a2.35 2.35 0 0 0-.1-4.1l-21.6-12zM198.74 102.41l17.4-12.9a2.48 2.48 0 0 0-.3-4.2l-63.6-36.4a4.37 4.37 0 0 0-5 .4L128.94 64zM61.24 102.81l66.8-38.8 1.8 79.4-68.6-40.6z" data-name="&lt;Контур&gt;"/></g><path fill="#f3f5f8" d="M137.24 45.21L131.94 30l4.4 1.4a40.15 40.15 0 0 1 33.3-24.5l.9 10.4a29.56 29.56 0 0 0-24.2 17.2l4.6 1.4zM120.14 45.21l5.3-15.3-4.4 1.4a40.15 40.15 0 0 0-33.3-24.5l-.9 10.4A29.56 29.56 0 0 1 111 34.41l-4.6 1.4z" data-name="&lt;Контур&gt;"/><g clip-path="url(#a)" data-name="&lt;Группа&gt;"><path fill="#103654" d="M146 135.11c2.8-2.5 11.1-.7 11.1-.7l2.7-6.3s-6.9-5-7.2-8.2v-1.7c.6-3.7 7.3-8 7.3-8l-2.6-6.4s-8.6 1.4-11-.7l-.8-.8c-2.2-2.4-.5-11-.5-11l-6.3-2.7s-4.7 7.1-8.5 7.1c-.2 0-.3 0-.3.1h-.5c.1-.2 0-.3-.4-.3-3.8-.2-8.4-7.3-8.4-7.3l-6.4 2.6s1.4 8.7-.8 11c-.2.2-.2.4.1.4l-.6.6c0-.2-.2-.2-.4 0-2.4 2.2-11 .5-11 .5l-2.7 6.3s7.1 4.7 7.1 8.5c0 .4.1.5.3.4v.6c-.2-.1-.3-.1-.3.2-.2 3.2-7.4 8.2-7.4 8.2l2.5 6.4s8.3-1.6 11.1 1c.2.2.4.2.4.1l.3.3c-.1.1-.1.2.1.5 2.6 2.8.7 11.1.7 11.1l6.3 2.7s5.1-7.1 8.3-7.2c.2 0 .3-.1.3-.2h1.2c3.2.6 7.9 7.4 7.9 7.4L144 147s-1.5-7.6.7-10.7a15.38 15.38 0 0 0 1.3-1.19zm-21.3-5.1a12 12 0 1 1 15.7-6.3 11.93 11.93 0 0 1-15.66 6.29z" data-name="&lt;Составной контур&gt;"/></g><g fill="#78bce8" data-name="&lt;Группа&gt;"><path d="M198.24 1.11L183 0a2.4 2.4 0 0 0-2.6 2.3l-1.1 15.2a2.4 2.4 0 0 0 2.3 2.6l15.2 1.1a2.4 2.4 0 0 0 2.6-2.3l1.1-15.2a2.53 2.53 0 0 0-2.26-2.59zm-9.6 12.8l-.5-1.5-3.6-.3-.7 1.5-1.6-.1 3.7-7.6 1.7.1 2.5 8.1zm5.4.6a2.65 2.65 0 0 1-1.8-1.1l-.1.8-1.2-.1.6-7.8 1.2.1-.2 3a2.36 2.36 0 0 1 1.9-.8c1.5.1 2.4 1.3 2.3 3.2s-1.2 2.8-2.74 2.7z" data-name="&lt;Составной контур&gt;"/><path d="M194 9.61a2 2 0 0 0-1.5.7l-.2 2.2a2 2 0 0 0 1.4.9c1 .1 1.7-.7 1.8-1.8s-.5-2-1.5-2zM185.04 10.91l2.8.2-1.1-3.8-1.7 3.6z" data-name="&lt;Контур&gt;"/></g><path fill="#b8001c" d="M75.64 20.31l-13.3.5a3.31 3.31 0 0 1-3.5-3.3l-.5-13.2a3.31 3.31 0 0 1 3.3-3.5l13.3-.5a3.31 3.31 0 0 1 3.5 3.3l.5 13.2a3.44 3.44 0 0 1-3.3 3.5z" data-name="&lt;Контур&gt;"/><g fill="#fff" data-name="&lt;Группа&gt;"><path d="M68.64 12.41A2.48 2.48 0 0 0 71 9.81l-.1-3.1a2.48 2.48 0 0 0-2.6-2.4 2.48 2.48 0 0 0-2.4 2.6L66 10a2.54 2.54 0 0 0 2.64 2.41z" data-name="&lt;Контур&gt;"/><path d="M72.14 9.81v-1h-.5v1a3.05 3.05 0 0 1-6.1.3v-1.2H65v1.2a3.55 3.55 0 0 0 3.1 3.4l.1 3.4-1.5.1a1 1 0 0 0-.9 1l5.7-.2a1 1 0 0 0-1-.9l-1.4.1v-3.6a3.65 3.65 0 0 0 3.04-3.6z" data-name="&lt;Контур&gt;"/></g><path fill="#78bce8" d="M19.14 68L6 70.11a3.41 3.41 0 0 1-3.9-2.8L0 54.21a3.41 3.41 0 0 1 2.8-3.9l13.1-2.1a3.41 3.41 0 0 1 3.9 2.8l2.1 13.1A3.27 3.27 0 0 1 19.14 68z" data-name="&lt;Контур&gt;"/><path fill="#b8001c" d="M240.24 68l13.1 2.1a3.41 3.41 0 0 0 3.9-2.8l2.1-13.1a3.41 3.41 0 0 0-2.8-3.9l-13.1-2.1a3.41 3.41 0 0 0-3.9 2.8l-2.1 13.1a3.41 3.41 0 0 0 2.8 3.9z" data-name="&lt;Контур&gt;"/><path fill="#f3f5f8" d="M61.44 63.91l-7.2-14.4-2.1 4.1A40.75 40.75 0 0 0 27.54 52l1.3 10.5a29.3 29.3 0 0 1 18.5.5l-2.2 4.2zM198.74 63.91l7.2-14.4 2.1 4.1a40.75 40.75 0 0 1 24.6-1.6l-1.3 10.5a29.3 29.3 0 0 0-18.5.5l2.2 4.3z" data-name="&lt;Контур&gt;"/><g data-name="&lt;Группа&gt;"><g data-name="&lt;Группа&gt;"><path fill="#fff" d="M4.74 56.11l7.5-1.2.4 2.2-.3.1a2.89 2.89 0 0 0-.8-1.3 2.53 2.53 0 0 0-1.6-.1l-.8.1 1 6.5c.1.5.2.8.4.9a2.81 2.81 0 0 0 1.1.1v.2l-3.9.6V64a1.91 1.91 0 0 0 1-.4 1.91 1.91 0 0 0 0-1.1l-1-6.4-.6.1a2 2 0 0 0-1.4.6 2.45 2.45 0 0 0-.4 1.5l-.3.1z" data-name="&lt;Контур&gt;"/></g><g data-name="&lt;Группа&gt;"><path fill="#fff" d="M11.44 57.81l5-.8.3 1.5h-.2a5.76 5.76 0 0 0-.5-.9 2.81 2.81 0 0 0-1.1-.1l-.5.1.7 4.3c.1.3.1.5.3.6a.82.82 0 0 0 .7 0v.2l-2.6.4v-.2a1.54 1.54 0 0 0 .7-.3.82.82 0 0 0 0-.7l-.7-4.2-.4.3a1.88 1.88 0 0 0-1 .4c-.2.2-.2.5-.3 1h-.2z" data-name="&lt;Контур&gt;"/></g></g><g fill="#fff" data-name="&lt;Группа&gt;"><path d="M254.74 62.81l-13.4-2.1.8-5.3 13.4 2.1zM242 60.31l12.3 1.9.7-4.3L242.64 56z" data-name="&lt;Составной контур&gt;"/><path d="M247.64 65.31h-.1l.2-1h.1a2 2 0 0 0 2.3-1.7l.9-5.9a2 2 0 0 0-1.7-2.3l.2-1a3.13 3.13 0 0 1 2.6 3.5l-.9 5.9a3.37 3.37 0 0 1-3.6 2.5z" data-name="&lt;Контур&gt;"/><path d="M253 66.11h-.1a3.13 3.13 0 0 1-2.6-3.5l.9-5.9a3.13 3.13 0 0 1 3.5-2.6l-.2 1a2 2 0 0 0-2.3 1.7l-.9 5.9A2 2 0 0 0 253 65h.1z" data-name="&lt;Контур&gt;"/></g></g></g></svg>