<svg xmlns="http://www.w3.org/2000/svg" width="45" height="55" viewBox="0 0 45 55"><g fill="none" fill-rule="evenodd"><path stroke="#610f1f" stroke-width="2" d="M8.566 6.118s5.698-1.184 13.36-1.184c7.66 0 14.439 1.184 14.439 1.184L33.48 24.264c-.963 5.494-5.712 9.499-11.262 9.499-5.662 0-10.472-4.166-11.308-9.795L8.566 6.118z" fill="#db838d"/><path stroke="#610f1f" stroke-width="2" d="M9.057 9.673S1.79 7.4 1.101 13.622c-.688 6.22 10.878 13.724 10.878 13.724" fill="#db838d"/><path fill="#b8001c" d="M31.184 45.45H13.558l-6.382 6.185h30.358z" opacity=".595"/><path stroke="#610f1f" stroke-width="2" d="M35.893 9.673s7.269-2.272 7.957 3.949c.688 6.22-11.316 13.871-11.316 13.871M18.242 33.121v5.13c0 3.16-1.471 6.137-3.976 8.046l-1.49 1.136c-.304.232-.14.72.241.72h18.9c.393 0 .549-.507.228-.73l-1.756-1.22a10.115 10.115 0 0 1-4.338-8.31v-4.846" fill="#db838d"/><path fill="#b8001c" d="M37.534 51.41H7.178V55h30.356zM29.384 20.135c0 4-3.227 7.244-7.208 7.244-3.98 0-7.206-3.244-7.206-7.244 0-4.001 3.226-7.245 7.206-7.245 3.98 0 7.208 3.244 7.208 7.245"/><path fill="#FFF" d="M23.062 23.349h-1.178v-4.803c-.257.179-.527.29-.81.334l-.101-1a1.42 1.42 0 0 0 .331-.14 2.18 2.18 0 0 0 .355-.245c.113-.095.215-.196.304-.305a1.24 1.24 0 0 0 .197-.32h.902v6.479z"/><path fill="#b8001c" d="M26.54 12h-8.41v-1.207h8.41zM18.937 9.967l6.78-9.96h2.324l-6.655 9.96h-2.45zm3.84 0l6.78-9.96h2.324l-6.654 9.96h-2.45z"/><path fill="#b8001c" d="M25.338 9.967h-2.45L16.235.007h2.324l6.78 9.96zm-3.84 0h-2.45L12.393.007h2.324l6.78 9.96z" opacity=".591"/></g></svg>