<svg xmlns="http://www.w3.org/2000/svg" width="73" height="73" viewBox="0 0 73 73"><g fill="none" fill-rule="evenodd"><path fill="#db838d" d="M36.287 52.584L14.832 37.968l21.455-14.61L57.74 37.976z" opacity=".531"/><path fill="#db838d" d="M36.287 57.563L14.832 42.947l21.455-14.61L57.74 42.954z" opacity=".3"/><path fill="#db838d" d="M36.287 46.61L14.832 31.993l21.455-14.61L57.74 32z"/><path fill="#b8001c" d="M36.548.314l-4.22 6.03 2.198-.004.113 6.337 3.595-.013-.114-6.33 2.24-.004zM34.526 66.974l-2.199-.004L36.55 73l3.81-6.015-2.239-.005.114-6.33-3.595-.012zM0 36.452l6.03 4.22-.004-2.198 6.336-.113-.012-3.595-6.33.114-.004-2.24zM66.666 34.88l-6.33-.114-.012 3.594 6.337.114-.005 2.198 6.03-4.22-6.015-3.811z"/></g></svg>