<svg width="72" height="72" fill="none" xmlns="http://www.w3.org/2000/svg">
  <path d="M62 36.022C61.983 50.282 50.207 62.029 35.96 62 21.7 61.97 9.96 50.184 10 35.94 10.04 21.706 21.78 9.997 36.006 10 50.264 10.003 62.017 21.77 62 36.022Zm-35.924 6.444-.227-.302 1.375-1.125c1.277-1.042 2.603-2.031 3.826-3.136 1.907-1.726 2.879-3.901 2.784-6.502-.124-3.372-2.966-6.125-6.351-6.168-3.437-.043-6.357 2.65-6.55 6.039-.08 1.435.737 2.483 2.005 2.569 1.234.083 2.169-.826 2.29-2.227.08-.915.53-1.582 1.386-1.922 1.614-.638 3.15.734 2.894 2.567-.193 1.386-1.082 2.31-2.094 3.141-1.237 1.016-2.537 1.962-3.725 3.032-1.706 1.534-2.67 3.473-2.759 5.794-.063 1.649.812 2.544 2.466 2.547 2.654.002 5.31 0 7.964 0 1.508 0 2.497-.878 2.48-2.181-.017-1.28-.99-2.123-2.462-2.123h-5.302v-.003Zm20.7-8.671h-4.313c0-2.083.003-4.114 0-6.148-.002-1.447-.891-2.431-2.174-2.417-1.254.012-2.129.984-2.132 2.388a1892.71 1892.71 0 0 0 0 8.116c0 1.568.866 2.416 2.46 2.42 1.818.002 3.638 0 5.456 0h.7c0 2.2-.01 4.283.002 6.366.009 1.286.92 2.235 2.123 2.25 1.228.017 2.154-.944 2.177-2.27.009-.455 0-.91 0-1.364 0-5.17-.005-10.342.003-15.512 0-.973-.345-1.732-1.234-2.172-1.438-.705-3.049.322-3.069 1.973-.026 2.103-.006 4.21-.006 6.37h.006Z" fill="#dc848d"/>
  <path fill-rule="evenodd" clip-rule="evenodd" d="M32.35 4.206a32.366 32.366 0 0 1 7.637.04 2 2 0 0 0 .493-3.97A36.338 36.338 0 0 0 31.9.231a2 2 0 1 0 .45 3.975ZM25.247 5.85a2 2 0 0 0-1.344-3.767 35.79 35.79 0 0 0-3.787 1.601 2 2 0 1 0 1.768 3.589 31.792 31.792 0 0 1 3.363-1.423Zm23.92-3.367a2 2 0 0 0-1.464 3.723 31.928 31.928 0 0 1 6.99 3.817 2 2 0 1 0 2.34-3.244 35.928 35.928 0 0 0-7.866-4.296Zm14.427 10.394a2 2 0 1 0-3.065 2.57 32.04 32.04 0 0 1 4.322 6.692 2 2 0 0 0 3.605-1.735 36.032 36.032 0 0 0-4.862-7.527Zm7.707 16.027a2 2 0 1 0-3.923.784 32 32 0 0 1 .537 3.956 2 2 0 0 0 3.99-.29 35.994 35.994 0 0 0-.604-4.45ZM8.944 12.067c.118-.002.243-.004.378-.004v.003a5.1 5.1 0 0 0-.068.142.45.45 0 0 1-.053.097c-.07.086-.143.171-.215.256-.094.111-.188.222-.28.335C1.246 22.073-1.701 32.449.965 44.06 5.573 64.139 25.798 76.106 45.677 70.7c13.872-3.771 24.428-15.815 26.3-30.004.163-1.252-.628-2.346-1.81-2.498-1.151-.146-2.179.678-2.379 1.89l-.106.66c-.12.75-.24 1.5-.412 2.237-1.644 7.088-5.314 12.944-10.953 17.514-6.882 5.578-14.79 8.016-23.622 7.127-6.64-.666-12.516-3.265-17.512-7.692C8.306 53.836 4.596 46.166 4.286 36.969c-.244-7.25 2.052-13.75 6.275-19.604.331-.46.687-.9 1.083-1.39.196-.243.402-.498.62-.773 0 .164-.002.292-.003.398-.002.166-.004.278.003.39.073 1.164.968 2.022 2.105 2.022 1.138 0 2.078-.86 2.098-2.02.033-2.036.033-4.072 0-6.108a2.039 2.039 0 0 0-2.03-2.02c-2.038-.03-4.076-.034-6.114 0-1.157.02-2.021.97-2.015 2.104.005 1.133.872 2.034 2.032 2.095.193.01.387.007.604.004Z" fill="rgba(185, 9, 27, 1)"/>
</svg>
