<svg width="450" height="149" fill="none" xmlns="http://www.w3.org/2000/svg"><path d="M355 83a31.649 31.649 0 0 0-17.778 5.477 32.392 32.392 0 0 0-11.786 14.586 32.967 32.967 0 0 0-1.821 18.777 32.655 32.655 0 0 0 8.758 16.641 31.859 31.859 0 0 0 16.384 8.895 31.542 31.542 0 0 0 18.489-1.85 32.11 32.11 0 0 0 14.361-11.97A32.865 32.865 0 0 0 387 115.5c0-8.62-3.371-16.886-9.373-22.981C371.626 86.424 363.487 83 355 83ZM87.017 83a31.65 31.65 0 0 0-17.783 5.469 32.395 32.395 0 0 0-11.793 14.582 32.97 32.97 0 0 0-1.828 18.779 32.663 32.663 0 0 0 8.753 16.645 31.847 31.847 0 0 0 16.385 8.899 31.54 31.54 0 0 0 18.49-1.846 32.118 32.118 0 0 0 14.365-11.97A32.862 32.862 0 0 0 119 115.5c0-8.617-3.369-16.88-9.366-22.975-5.998-6.094-14.133-9.52-22.617-9.525Z" fill="#103654"/><path d="m449.594 81.212-9.052-38.522a7.695 7.695 0 0 0-2.141-3.471 7.72 7.72 0 0 0-3.616-1.894l-37.077-6.248a52.868 52.868 0 0 1-9.069-2.492L321.804 2.628A28.39 28.39 0 0 0 312.665 1L207.973 3.163a26.58 26.58 0 0 0-9.017 2.094l-74.899 35.148a40.579 40.579 0 0 1-8.948 2.77L25.436 57.641a12.61 12.61 0 0 0-7.319 4.672L1.764 86.543A12.352 12.352 0 0 0 .186 95.04l5.966 25.37a6.248 6.248 0 0 0 2.152 3.243 6.272 6.272 0 0 0 3.657 1.343h31.354a3.784 3.784 0 0 0 3.852-2.91 3.766 3.766 0 0 0-.002-1.728 29.935 29.935 0 0 1-.33-5.07 39.904 39.904 0 0 1 12.01-27.705 40.067 40.067 0 0 1 28.006-11.406 40.066 40.066 0 0 1 28.005 11.406 39.903 39.903 0 0 1 12.011 27.705 29.873 29.873 0 0 1-.33 5.07 3.784 3.784 0 0 0 2.165 4.318 3.8 3.8 0 0 0 1.702.32h180.943a3.786 3.786 0 0 0 3.082-1.362 3.77 3.77 0 0 0 .768-3.276 29.873 29.873 0 0 1-.33-5.07 39.903 39.903 0 0 1 12.011-27.705 40.065 40.065 0 0 1 28.005-11.406 40.07 40.07 0 0 1 28.006 11.406 39.906 39.906 0 0 1 12.01 27.705 29.873 29.873 0 0 1-.33 5.07 3.012 3.012 0 0 0 3.781 3.756l39.643-7.65a8.326 8.326 0 0 0 5.879-5.468l5.566-20.577c.692-3.025.746-6.16.156-9.207Z" fill="#103654"/><path d="M354.524 133.551h.499v-.079c4.237-.143 8.269-1.924 11.276-4.992 3.125-3.187 4.892-7.506 4.92-12.016v-.003c0-3.379-.979-6.682-2.815-9.493a16.801 16.801 0 0 0-7.502-6.297 16.373 16.373 0 0 0-9.665-.97 16.61 16.61 0 0 0-8.56 4.685 17.22 17.22 0 0 0-4.566 8.754 17.452 17.452 0 0 0 .957 9.87 17.024 17.024 0 0 0 6.161 7.667 16.45 16.45 0 0 0 9.295 2.874Zm-17.402-43.807a30.814 30.814 0 0 1 17.401-5.402c8.301 0 16.265 3.373 22.141 9.382 5.875 6.009 9.18 14.162 9.185 22.667a32.61 32.61 0 0 1-5.274 17.823c-3.442 5.276-8.334 9.387-14.056 11.815a30.653 30.653 0 0 1-18.095 1.831c-6.075-1.234-11.658-4.285-16.042-8.768-4.383-4.483-7.37-10.197-8.581-16.42a32.769 32.769 0 0 1 1.781-18.535c2.372-5.862 6.388-10.87 11.54-14.393ZM86.612 84.342c8.3 0 16.263 3.374 22.135 9.383 5.873 6.01 9.174 14.162 9.174 22.665v.001a32.61 32.61 0 0 1-5.275 17.825c-3.442 5.276-8.335 9.387-14.059 11.815a30.65 30.65 0 0 1-18.097 1.828c-6.075-1.236-11.658-4.288-16.041-8.773-4.383-4.485-7.369-10.201-8.578-16.425a32.768 32.768 0 0 1 1.788-18.536c2.374-5.861 6.394-10.868 11.548-14.389a30.813 30.813 0 0 1 17.405-5.394Zm.001 49.209h.5v-.079c4.236-.143 8.268-1.924 11.276-4.992 3.125-3.187 4.892-7.506 4.92-12.016v-.003c0-3.379-.979-6.682-2.815-9.493a16.803 16.803 0 0 0-7.503-6.297 16.371 16.371 0 0 0-9.665-.97 16.607 16.607 0 0 0-8.559 4.685 17.214 17.214 0 0 0-4.566 8.754 17.449 17.449 0 0 0 .957 9.87 17.014 17.014 0 0 0 6.16 7.667 16.45 16.45 0 0 0 9.295 2.874Z" fill="#103654" stroke="#046097"/><mask id="a" fill="#fff"><path d="m449.595 81.381-9.053-38.629a7.764 7.764 0 0 0-5.757-5.397l-37.076-6.247a56.109 56.109 0 0 1-9.07-2.5l-66.835-26.03a28.32 28.32 0 0 0-9.139-1.63L207.974 3.03a26.536 26.536 0 0 0-9.018 2.117l-74.899 35.297a40.497 40.497 0 0 1-8.948 2.777L25.435 57.746a12.571 12.571 0 0 0-7.318 4.668L1.764 86.709a12.467 12.467 0 0 0-1.578 8.538L6.15 120.67a6.282 6.282 0 0 0 5.81 4.616h31.354a3.788 3.788 0 0 0 3.852-2.918 3.787 3.787 0 0 0-.003-1.733 30.49 30.49 0 0 1-.33-5.102 40.065 40.065 0 0 1 12.011-27.78 40.008 40.008 0 0 1 56.01 0 40.065 40.065 0 0 1 12.012 27.78 30.459 30.459 0 0 1-.33 5.102 3.805 3.805 0 0 0 2.165 4.329 3.802 3.802 0 0 0 1.702.322h180.943a3.794 3.794 0 0 0 3.083-1.366 3.783 3.783 0 0 0 .767-3.285 30.459 30.459 0 0 1-.33-5.102 40.065 40.065 0 0 1 12.011-27.78 40.011 40.011 0 0 1 28.005-11.439 40.012 40.012 0 0 1 28.006 11.438 40.064 40.064 0 0 1 12.01 27.781 30.564 30.564 0 0 1-.329 5.102 3.007 3.007 0 0 0 .754 3.022 2.998 2.998 0 0 0 3.026.726l39.643-7.67a8.32 8.32 0 0 0 3.641-1.978 8.321 8.321 0 0 0 2.238-3.488l5.567-20.634c.691-3.033.744-6.177.156-9.232ZM25.158 98.405l-2.532 10.742a4.166 4.166 0 0 1-3.885 3.071h-7.058a4.036 4.036 0 0 1-3.797-3.089l-1.856-8.815a2.727 2.727 0 0 1 2.48-3.367l14.22-1.319a2.114 2.114 0 0 1 2.51 1.673c.071.369.043.75-.082 1.104Zm20.671-31.323-10.145 9.076a14.095 14.095 0 0 1-5.445 2.759l-18.556 3.87c-1.734.364-2.289-.52-1.318-1.961l8.36-12.373a6.94 6.94 0 0 1 4.924-2.725l21.33-.66c1.804-.051 2.15.834.85 1.996v.018Zm186.874-16.764-89.518 3.592a1.45 1.45 0 0 1-1.106-.412 1.457 1.457 0 0 1-.437-1.097l.173-8.278a2.773 2.773 0 0 1 1.457-2.239l59.725-28.13a17.635 17.635 0 0 1 5.202-1.197l37.909-.764-13.405 38.525Zm84.506-3.366-64.164 2.55 5.202-37.952 54.54-1.075c1.874.062 3.731.39 5.514.971l4.041 1.58-5.133 33.926Zm27.556-20.235-2.983 14.647a6.385 6.385 0 0 1-5.688 4.824l-12.469.503 4.804-31.323 12.867 4.998a5.831 5.831 0 0 1 3.469 6.334v.017Zm93.523 40.07-14.74 2.499a2.742 2.742 0 0 1-3.015-1.476 2.74 2.74 0 0 1-.28-1.162c0-5.813 1.283-17.944 12.971-21.45a3.118 3.118 0 0 1 3.306 1.252c.239.345.406.733.492 1.144l3.659 15.618a2.95 2.95 0 0 1-.416 2.31 2.928 2.928 0 0 1-1.977 1.265Z"/></mask><path d="m449.595 81.381-9.053-38.629a7.764 7.764 0 0 0-5.757-5.397l-37.076-6.247a56.109 56.109 0 0 1-9.07-2.5l-66.835-26.03a28.32 28.32 0 0 0-9.139-1.63L207.974 3.03a26.536 26.536 0 0 0-9.018 2.117l-74.899 35.297a40.497 40.497 0 0 1-8.948 2.777L25.435 57.746a12.571 12.571 0 0 0-7.318 4.668L1.764 86.709a12.467 12.467 0 0 0-1.578 8.538L6.15 120.67a6.282 6.282 0 0 0 5.81 4.616h31.354a3.788 3.788 0 0 0 3.852-2.918 3.787 3.787 0 0 0-.003-1.733 30.49 30.49 0 0 1-.33-5.102 40.065 40.065 0 0 1 12.011-27.78 40.008 40.008 0 0 1 56.01 0 40.065 40.065 0 0 1 12.012 27.78 30.459 30.459 0 0 1-.33 5.102 3.805 3.805 0 0 0 2.165 4.329 3.802 3.802 0 0 0 1.702.322h180.943a3.794 3.794 0 0 0 3.083-1.366 3.783 3.783 0 0 0 .767-3.285 30.459 30.459 0 0 1-.33-5.102 40.065 40.065 0 0 1 12.011-27.78 40.011 40.011 0 0 1 28.005-11.439 40.012 40.012 0 0 1 28.006 11.438 40.064 40.064 0 0 1 12.01 27.781 30.564 30.564 0 0 1-.329 5.102 3.007 3.007 0 0 0 .754 3.022 2.998 2.998 0 0 0 3.026.726l39.643-7.67a8.32 8.32 0 0 0 3.641-1.978 8.321 8.321 0 0 0 2.238-3.488l5.567-20.634c.691-3.033.744-6.177.156-9.232ZM25.158 98.405l-2.532 10.742a4.166 4.166 0 0 1-3.885 3.071h-7.058a4.036 4.036 0 0 1-3.797-3.089l-1.856-8.815a2.727 2.727 0 0 1 2.48-3.367l14.22-1.319a2.114 2.114 0 0 1 2.51 1.673c.071.369.043.75-.082 1.104Zm20.671-31.323-10.145 9.076a14.095 14.095 0 0 1-5.445 2.759l-18.556 3.87c-1.734.364-2.289-.52-1.318-1.961l8.36-12.373a6.94 6.94 0 0 1 4.924-2.725l21.33-.66c1.804-.051 2.15.834.85 1.996v.018Zm186.874-16.764-89.518 3.592a1.45 1.45 0 0 1-1.106-.412 1.457 1.457 0 0 1-.437-1.097l.173-8.278a2.773 2.773 0 0 1 1.457-2.239l59.725-28.13a17.635 17.635 0 0 1 5.202-1.197l37.909-.764-13.405 38.525Zm84.506-3.366-64.164 2.55 5.202-37.952 54.54-1.075c1.874.062 3.731.39 5.514.971l4.041 1.58-5.133 33.926Zm27.556-20.235-2.983 14.647a6.385 6.385 0 0 1-5.688 4.824l-12.469.503 4.804-31.323 12.867 4.998a5.831 5.831 0 0 1 3.469 6.334v.017Zm93.523 40.07-14.74 2.499a2.742 2.742 0 0 1-3.015-1.476 2.74 2.74 0 0 1-.28-1.162c0-5.813 1.283-17.944 12.971-21.45a3.118 3.118 0 0 1 3.306 1.252c.239.345.406.733.492 1.144l3.659 15.618a2.95 2.95 0 0 1-.416 2.31 2.928 2.928 0 0 1-1.977 1.265Z" fill="#103654" stroke="#055B8F" stroke-width="2" mask="url(#a)"/><path d="m22.204 59.418 11.842 5.18m-11.842-5.18 5.921 9.622m-5.921-9.622-7.401 8.141m7.401-8.141 19.983-3.7m-8.14 8.88-5.922 4.442m5.921-4.441L44.408 74.96M34.046 64.6l8.142-8.882M34.046 64.6H48.85m-20.724 4.44-13.322-1.48m13.322 1.48-5.921 13.323m5.921-13.322 16.283 5.92m-16.283-5.92 1.48 16.282M14.803 67.56l7.401 14.803m-7.401-14.803-5.181 8.882m12.582 5.92-12.582-5.92m12.582 5.92-2.22 8.882m2.22-8.881-18.503 2.96m18.503-2.96 7.401 2.96M9.622 76.441 3.7 85.322m16.283 5.921L3.7 85.323m16.283 5.92-2.22 8.882m2.22-8.882H.74m19.244 0 9.621-5.92m-25.904 0-2.96 5.92m17.022 8.882L.74 91.243m17.023 8.882-1.48 13.322m1.48-13.322-13.322 8.141m13.322-8.141 10.362 2.961M.74 91.243l3.7 17.023m11.843 5.181L4.44 108.266m11.842 5.181 17.763 1.481m-17.763-1.481-8.142 9.622m8.142-9.622 19.983 11.102m-19.983-11.102 2.22 11.102m-2.22-11.102 11.842-10.361m-23.684 5.18 3.7 14.803m19.984-19.983 1.48-17.764m-1.48 17.764 10.362-8.882m-10.362 8.882h8.882m-8.882 0 5.921 11.842m-4.44-29.606 8.88 8.882m-8.88-8.882L44.407 74.96M29.605 85.322l14.803 1.48m-5.921 7.402 10.362 7.401m-10.362-7.401-1.48 8.882m1.48-8.882 5.92-7.401m4.442 14.802-11.842 1.481m11.842-1.481 4.44 10.362m-4.44-10.362-5.921 7.402m5.92-7.402-4.44-14.802m4.44 14.802 10.363-14.802m-10.362 14.802h17.763m-29.605 1.481 5.92 5.921m-5.92-5.921-2.96 11.842m0 0 8.88-5.921m-8.88 5.921 10.36 1.48m-10.36-1.48 2.22 9.621m6.66-15.542 1.48 7.401m-1.48-7.401 10.362 2.96m-8.881 4.441-8.142 8.141m8.142-8.141 8.881-4.441m-8.881 4.441.74 8.141m-.74-8.141 11.842 8.141m-19.983 0h8.881m-8.882 0H18.503m34.786-12.582 13.323-10.362M53.29 111.967l11.842-1.48m-11.843 1.48 11.843 7.533m-11.843-7.533 2.961 12.582M44.408 74.96v11.843m0-11.843 10.362-1.48m-10.362 1.48 4.44-10.361m-4.44 22.204L54.77 73.48M44.408 86.803H59.21M54.77 73.48 48.849 64.6m5.92 8.881 13.323-5.92M54.77 73.48l7.401-13.322M54.77 73.48l4.44 13.323M42.188 55.717 48.85 64.6m-6.661-8.882 11.842-1.48m-5.181 10.362 13.322-4.441m-13.322 4.44 5.18-10.361m8.142 5.92-8.141-5.92m8.141 5.92 10.362-4.44m-10.362 4.44 6.661-8.88m-6.66 8.88 5.92 7.402M54.03 54.237l14.802-2.96m0 0 3.7 4.44m-3.7-4.44 25.905-3.701m-22.204 8.141L87.335 64.6m-14.802-8.882-4.44 11.842m4.44-11.842 11.842-4.44m2.96 13.322-19.243 2.96m19.243-2.96-2.96-13.323m2.96 13.323 7.402-17.023m-7.401 17.023 13.322-5.921m-13.323 5.92L74.013 77.922m13.322-13.322L97.697 76.44m-29.605-8.882-8.881 19.244m8.881-19.244 5.921 10.362m10.362-26.645 10.362-3.7m0 0 5.921 11.102m-5.921-11.102 23.684-3.701m-17.763 14.803 13.322 8.881m-13.322-8.881 17.763-14.803m-17.763 14.803-2.96 17.763M59.21 86.803l14.802-8.882M59.21 86.803l14.803 7.4m-14.803-7.4 7.402 14.802m7.401-23.684 11.842 7.401m-11.842-7.401 23.684-1.48m-23.684 1.48v16.283M97.697 76.44l-11.842 8.881m11.842-8.881 16.283-8.882m-16.283 8.882v19.243m0-19.243h16.283m-28.125 8.881-11.842 8.882m11.842-8.882 11.842 10.362M85.855 85.322l4.441 17.764m-16.283-8.882 16.283 8.882m-16.283-8.882-7.401 7.401m7.401-7.401 8.882 11.842m7.401-2.96-7.401 2.96m7.401-2.96 7.401-7.402m-7.4 7.402-5.922 13.322m-1.48-10.362 1.48 10.362m-1.48-10.362L65.132 119.5m17.763-13.454-17.763 4.441m17.763-4.441-16.283-4.441m17.763 14.803L69.5 129.5m14.875-13.092L65.132 119.5m19.243-3.092 8.882 5.921m-8.882-5.921 13.322-7.401M69.5 129.5l-4.368-10m4.368 10-13.25-4.951M69.5 129.5l-7.329 6.891M69.5 129.5l23.757-7.171M69.5 129.5l11.915 7.632M65.132 119.5v-9.013m0 9.013-8.882 5.049m8.882-14.062 1.48-8.882m31.085-5.92L113.98 76.44M97.697 95.684l11.842 5.921m-11.842-5.92v13.322m0-13.323 25.165-5.92M113.98 76.44l14.063-.74m-14.063.74v-8.882m0 8.882 8.882 13.322m5.181-14.062 8.141-17.023M128.043 75.7l-14.063-8.142m14.063 8.142-3.701-19.984m3.701 19.984-5.181 14.062m5.181-14.062 15.543 6.66m-15.543-6.66 12.582-6.661m-4.441-10.362 4.441 10.362m-4.441-10.362-11.842-2.96m11.842 2.96 23.684 6.66m-23.684-6.66-1.48-10.362m1.48 10.362 11.102-16.283m-6.661 26.645 2.961 13.322m-2.961-13.322L161.349 79.4M140.625 69.04l19.243-3.701m-16.282 17.023 17.763-2.96m-17.763 2.96-20.724 7.401m20.724-7.401 17.763 16.283m-17.763-16.283v19.243m17.763-22.204-1.481-14.062m1.481 14.062v19.244m0-19.244 17.763 2.96M159.868 65.34l5.921-18.503m-5.921 18.503 19.244 17.023m-19.244-17.023-12.582-22.944m12.582 22.944 25.165-.74m-19.244-17.764L185.033 64.6m-19.244-17.764-10.361-19.983m10.361 19.984-18.503-4.441m18.503 4.44 17.764-17.763m-17.764 17.764 14.803 1.48m4.441 16.283 19.243-8.882M185.033 64.6l18.503 6.66m-18.503-6.66-5.921 17.763m5.921-17.763-4.441-16.283m23.684 7.401 19.244-19.243m-19.244 19.243L223.52 64.6m-19.244-8.882-.74 15.543m.74-15.543-5.921-20.724m5.921 20.724-23.684-7.401m42.928-11.842 15.543-8.882m-15.543 8.882v28.125m0-28.125-25.165-1.48m25.165 1.48L210.197 17.23m13.323 19.244 11.842 11.102m3.701-19.984-3.701 19.984m3.701-19.984L210.197 17.23m28.866 10.362 2.96-25.164m-2.96 25.164L225 8.35m14.063 19.243 13.322-8.141m-13.322 8.141 13.322 7.401m-17.023 12.583L223.52 64.599m11.842-17.023 23.684 3.7m-23.684-3.7 11.102 16.282m-11.102-16.282 17.023-12.583M223.52 64.6l4.441 17.763m-4.441-17.763-19.984 6.66m19.984-6.66 22.944-.74m-18.503 18.503-13.323 8.881m13.323-8.881L203.536 71.26m24.425 11.102 16.282-1.48m-16.282 1.48 8.881 17.763m-8.881-17.763 18.503-18.503m-31.826 27.384 4.441 14.803m-4.441-14.803L203.536 71.26m11.102 19.983-14.802-5.92m14.802 5.92-11.842 10.362m11.842-10.362 22.204 8.882m-17.763 5.921-3.701 7.401m3.701-7.401-16.283-4.441m16.283 4.441 17.763-5.921m-17.763 5.921 14.062 18.503m-17.763-11.102-12.582-11.842m12.582 11.842 17.763 11.102m-17.763-11.102v11.102m0-11.102-15.542 11.102m37.006-24.424h14.803m-14.803 0 10.362 13.322m-10.362-13.322 7.401-19.243m-7.401 19.243-3.701 24.424m18.504-24.424 13.322-19.243m-13.322 19.243-4.441 13.322m4.441-13.322-7.402-19.243m7.402 19.243 14.802-1.48m-1.48-17.763 1.48-11.843m-1.48 11.843h-20.724m20.724 0 23.684-4.441m-23.684 4.44 14.803 7.402m-14.803-7.401 1.48 17.763m0-29.605 22.204-10.362M266.447 69.04l-19.983-5.182m19.983 5.182-7.401-17.764m7.401 17.764-22.204 11.842m22.204-11.843 22.204 7.402m0-17.763-29.605-7.402m29.605 7.402 20.724 5.92m-20.724-5.92 23.685-7.402m-23.685 7.402 7.402-23.685m-7.402 23.685-5.921-16.283m5.921 16.283V76.44m-29.605-25.165 23.684-8.881m-23.684 8.881-12.582 12.582m12.582-12.582 6.661-23.684m-6.661 23.684-6.661-16.283m30.345 7.402-17.023-14.803m17.023 14.803 13.323-7.402m-13.323 7.402 4.441-19.244m-21.464 4.441-13.322-8.141m13.322 8.141-13.322 7.401m13.322-7.4 8.142-14.803m-8.142 14.802 21.464-4.44m-34.786-3.701L242.023 2.428m10.362 17.023v15.542m0-15.542 9.622-17.023m-9.622 17.023 21.464-6.662M242.023 2.428 225 8.348m17.023-5.92h19.984m-19.984 0-39.227 2.22M225 8.348l-14.803 8.882M225 8.35l-31.086 5.92M225 8.35l-22.204-3.701m7.401 12.582-16.283-2.96m16.283 2.96-11.842 17.763m-4.441-20.723-10.361 14.802m10.361-14.802-22.203 4.44m22.203-4.44 4.441 20.723m-4.441-20.723 8.882-9.622m-8.882 9.622-6.661-2.96m-3.7 17.762-11.842-10.361m11.842 10.361-28.125-2.22m28.125 2.22 14.802 5.921m-14.802-5.92-2.961 19.243m-8.881-29.606-16.283 8.142m16.283-8.142 15.542-7.4m-31.825 15.542-8.142 15.543m8.142-15.543-18.504 8.141m10.362 7.402-12.582 5.92m12.582-5.92-10.362-7.402m-2.22 13.323-10.362 7.401m10.362-7.401 2.22-13.323m-2.22 13.323-16.283-4.441m5.921 11.842L113.98 67.56m10.362-11.842-5.921-11.842m-4.441 23.684 4.441-23.684m0 0 18.503-8.882m-14.062 54.77-13.323 11.842m13.323-11.842 5.921 16.283m-5.921-16.283 20.724 11.842m-34.047 0-11.842 7.402m11.842-7.402 4.441 7.402m-4.441-7.402 19.244 4.441M107.5 116l6.48-6.993M107.5 116l9.441 7.809M107.5 116l-14.243 6.329M107.5 116l-9.803-6.993m16.283 0 2.961 14.802m-2.961-14.802H97.697m16.283 0 14.803-2.961m-11.842 17.763 11.842-17.763m-11.842 17.763-23.684-1.48m23.684 1.48-17.763 11.842m17.763-11.842-6.661 14.063m6.661-14.063 11.102.74m.74-18.503 16.283 7.401m-16.283-7.401-.74 18.503m.74-18.503 14.803-4.441m0 0 17.763-2.96m-17.763 2.96 1.48 11.842m38.487-10.361-4.441-20.724m4.441 20.724-10.362 5.18m10.362-5.18-22.204-4.441m22.204 4.441v13.322m0-13.322 10.361 16.282m-10.361-16.282 19.243-1.481m-19.243 1.481 16.283-17.764m-20.724-2.96-17.763 16.283m17.763-16.283 24.424-11.102m-24.424 11.102 20.724 2.96m-38.487 13.323-16.283 14.802m16.283-14.802 11.842 9.621m-11.842-9.621-1.481 20.723m-14.802-5.921-4.441 11.102m4.441-11.102-17.023 11.102m17.023-11.102 6.661 11.102m-6.661-11.102 14.802 5.921m-31.825 5.181h12.582m0 0h11.102m8.141-5.181 13.323-11.102m-13.323 11.102 8.142 5.181m-8.142-5.181-8.141 5.181m21.464-16.283 10.362 8.142m-10.362-8.142-5.181 16.283m15.543-8.141v8.141m0-8.141-15.543 8.141m25.904-5.181-10.361 5.181m10.361-5.181 8.882-17.763m-8.882 17.763 5.922 5.181m-16.283 0H168.01m15.543 0h16.283m-31.826 0h-16.283m48.109-39.227 2.96 16.283m-2.96-16.283 3.7-14.062m-.74 30.345-2.96 22.944m0 0h15.542m0 0h17.763m0 0h28.866m-28.866 0 14.063-11.102m0 0 19.243-14.802m-19.243 14.802 14.803 11.102m-17.764-43.667 2.221-17.024m-48.109-28.865-17.763 13.323m81.415-45.888 11.842 10.361M262.007 2.428h26.644m-14.802 10.361 14.802-10.361m-14.802 10.361 13.322 10.362m1.48 53.29 20.724-11.842M288.651 76.44l23.685 5.92m-23.685-5.92-8.881 11.842m8.881-11.842 5.921 25.164m14.803-37.006 2.961-13.323M309.375 64.6l20.724 10.361M309.375 64.6l2.961 17.763m-2.961-17.763 23.684-8.882m-20.723-4.44 20.723 4.44m-20.723-4.44-16.283-16.284m16.283 16.283 7.401-16.283m13.322 20.724-2.96 19.243m2.96-19.243-13.322-20.724m13.322 20.724 14.803-14.803m-14.803 14.803 1.48-17.763m-1.48 17.763 25.165-4.44m-25.165 4.44 22.204 10.362m-25.164 8.882 25.164-8.882m-25.164 8.882-17.763 7.4m17.763-7.4 25.164 5.92m-25.164-5.92-4.441 11.842m-13.322-4.441-17.764 19.243m17.764-19.243 7.401 16.283m-23.684-63.652-8.882-11.842m8.882 11.842 7.401-17.763m-7.401 17.763h23.684m-32.566-11.842 1.48-20.723m-1.48 20.723 16.283-5.92M288.651 2.427h28.865m-28.865 0 14.803 14.802m14.062-14.802 7.402 12.582m-7.402-12.582 22.204 7.4m-22.204-7.4L303.454 17.23m21.464-2.22-21.464 2.22m21.464-2.22 9.621 11.102m-9.621-11.102-5.181 19.983M303.454 17.23l16.283 17.763m0 0 14.802-8.881m-14.802 8.881 14.802 2.96m13.323 2.961 10.362 10.362m-10.362-10.362 17.763-11.842m-7.401 22.204 17.763-14.802m-17.763 14.802 7.401-22.204m-7.401 22.204-2.961 14.803m2.961-14.803 14.802 2.96m2.961-17.762-10.362-7.402m10.362 7.402 14.802.74m-14.802-.74-2.961 17.763m2.961-17.763 6.661-8.882m-17.023 1.48h-14.803m14.803 0L354.523 15.75m11.102 13.322 17.023-1.48m-31.826 1.48-16.283 8.882m16.283-8.882 3.701-13.322m-3.701 13.322-16.283-2.96m0 11.842V26.112m0 0 5.181-16.283m-5.181 16.283 19.984-10.362m.74 50.329 17.763-11.842m-17.763 11.842L373.026 72m-17.763-5.921v14.803m-60.691 20.723L279.77 88.283m14.802 13.322-13.322 1.481m13.322-1.481-8.881 14.803m8.881-14.803 2.961 17.763m-2.961-17.763 17.764 14.803m-17.764-14.803 25.165-2.96M279.77 88.283l-13.323 10.362m13.323-10.362 1.48 14.803m-19.243 21.463 19.243-21.463m-19.243 21.463 4.44-25.904m-4.44 25.904h18.503m-18.503 0 23.684-8.141m-4.441-13.322-14.803-4.441m14.803 4.441 4.441 13.322m-5.181 8.141 5.181-8.141m-5.181 8.141h11.102m-5.921-8.141 5.921 8.141m-5.921-8.141 11.842 2.96m-5.921 5.181 5.921-5.181m-5.921 5.181h12.582m-6.661-5.181 6.661 5.181m8.142-8.141-8.142 8.141m8.142-8.141 7.401-17.763m-7.401 17.763 17.763 1.48m-17.763-1.48 11.842 8.141m-19.984 0h19.984m-4.441-25.904 5.921-11.842m-5.921 11.842 17.763 2.96m-17.763-2.96 10.362 19.243m9.621-108.06 14.803 5.922m0 0 28.125 11.842m-9.622 26.645 17.763-17.023m-17.763 17.023V72m0-17.763 14.803 10.362m-14.803-10.362 23.685 1.48m-5.922-18.503 19.244 5.18m-19.244-5.18 5.922 18.503m-5.922-18.503-8.141-9.622m8.141 9.622 4.441-5.181M373.026 72l-17.763 8.882M373.026 72l4.441 16.283M373.026 72l14.803-7.401M373.026 72l14.803 10.362m-32.566-1.48 7.401 17.763m-7.401-17.763 22.204 7.4m-22.204-7.4-29.605 5.92m29.605-5.92L337.5 101.605m25.164-2.96 14.803-10.362m-14.803 10.362-25.164 2.96m25.164-2.96h28.125m-28.125 0-5.921 19.243m5.921-19.243 23.685 4.441m-23.685-4.441 11.102 8.881m3.701-19.243 10.362-5.921m-10.362 5.92 13.322 10.363m-2.96-16.283V64.599m0 17.763 14.803-13.322m-14.803 13.322 13.322 10.362m-13.322-10.362 2.96 16.283m-2.96-34.046 8.882-8.882m-8.882 8.882 14.803 4.44m-5.921-13.322 13.322-13.322m-13.322 13.322 22.204 10.362m-22.204-10.362 5.921 13.323m7.401-26.645 8.882 23.684m-8.882-23.684 2.22-7.402m-2.22 7.402L395.23 32.033m14.803 10.362 25.164-5.181m-25.164 5.18 14.803 4.442m-5.921 19.243-16.283 2.96m16.283-2.96 5.921-19.243m-5.921 19.243L410.033 79.4m8.882-13.322 6.661 13.322m-6.661-13.322 17.763-2.96m-34.046 5.92 7.401 10.362m-7.401-10.361-1.481 23.684m8.882-13.323-8.882 13.323m8.882-13.323h15.543m-15.543 0 8.882 14.803m-17.764-1.48 17.764 1.48m-17.764-1.48 2.961 14.802m-2.961-14.802-5.921 30.345m5.921-30.345-10.362 5.92m28.126-4.44h10.361m-10.361 0-14.803 13.322m14.803-13.322 6.661-14.803m3.7 14.803-8.881 17.763m8.881-17.763-3.7-14.803m3.7 14.803 19.984-5.921m-19.984 5.92 5.921 11.843m-5.921-11.842 8.882-13.322m-17.763 31.085-16.283-4.441m16.283 4.441 14.802-5.921m-14.802 5.921 19.983 4.441m-19.983-4.441-1.48 8.142m-14.803-12.583 14.803 12.583m-14.803-12.583-8.882 15.543m30.346-43.668 11.102-16.283m-11.102 16.283 12.582 1.48m11.102 7.402-11.102-7.401m11.102 7.4-14.063 17.764m14.063-17.763-1.48-11.842m1.48 11.842-8.882 28.125m-2.22-35.526 9.622-4.441m-9.622 4.44-1.48-17.763m11.102 13.323-11.102-13.323m11.102 13.323-3.701-20.724m-7.401 7.401-11.842-16.282m11.842 16.282 7.401-7.4m-7.401 7.4-.37-12.582m-1.111 55.51 5.181 10.362m-57.73-88.816 12.582 4.44m0 0 17.023 2.961m0 0 22.944 2.22m0 0-10.361 9.623m10.361-9.622 1.111 13.322m-1.111-13.322 5.181 5.92m3.701 12.583-7.771-5.18m7.771 5.18-3.701-12.582m-4.07 7.401 4.07-7.401m0 73.273-21.463 3.701m0 0-23.685 2.96m0 0-4.441-24.424m4.441 24.424-8.881-19.983m8.881 19.983-10.362 1.48m5.921-25.904-4.44 4.441m-60.691-16.283 11.842 14.802m0 0 19.243 16.283M337.5 101.605l2.961 20.724m-2.961-20.724-7.401 16.283m26.644 0 17.023-10.362m-17.023 10.362L364.5 135.5m-7.757-17.612 16.283 4.441m-16.283-4.441L345 134.5m11.743-16.612-16.282 4.441m33.305-14.803-.74 14.803m.74-14.803 12.583-4.44m-12.583 4.44 11.102 17.023m-11.842-2.22 11.842 2.22m-11.842-2.22L364.5 135.5m8.526-13.171.74 19.983m11.102-17.763 1.481-21.463m-1.481 21.463-11.102 17.763M364.5 135.5l-19.5-1m19.5 1-24.78 9.033m24.78-9.033-7.757 12.734M364.5 135.5l9.266 6.812M345 134.5l-4.539-12.171M345 134.5l-5.28 10.033m.741-22.204-10.362-4.441m10.362 4.441-.741 22.204m.741-22.204-12.583 11.102m2.221-15.543-2.221 15.543m2.221-15.543-5.921 6.661m15.542 19.984-11.842-11.102m11.842 11.102 17.023 3.701m-28.865-14.803-3.7-8.882m32.565 23.685 17.023-5.922M202.796 4.648l-15.543 6.661M8.141 123.07l10.362 1.48m26.645 0H56.25m0 0 5.921 11.842m0 0 19.244.741m-19.244-.741 14.803 10.362m16.283-24.424-11.843 14.803m11.843-14.803 4.44-13.322m-4.44 13.322 5.92 13.322m-17.763 1.481 17.764-1.481m-17.763 1.481-4.441 9.621m22.204-11.102-22.204 11.102m22.204-11.102-2.96 11.102m2.96-11.102 11.102 2.221m-33.306 8.881h19.243m0 0 14.063-8.881" stroke="#046097" stroke-width=".2"/><circle cx="100.658" cy="58.678" r="1.48" fill="#055B8F"/><circle cx="87.335" cy="64.599" r="1.48" fill="#055B8F"/><circle cx="72.533" cy="55.717" r="1.48" fill="#055B8F"/><circle cx="68.092" cy="67.559" r="1.48" fill="#055B8F"/><circle cx="62.171" cy="60.158" r="1.48" fill="#055B8F"/><circle cx="48.849" cy="64.599" r="1.48" fill="#055B8F"/><circle cx="34.046" cy="64.599" r="1.48" fill="#055B8F"/><circle cx="28.125" cy="69.04" r="1.48" fill="#055B8F"/><circle cx="22.204" cy="82.362" r="1.48" fill="#055B8F"/><circle cx="29.605" cy="85.322" r="1.48" fill="#055B8F"/><circle cx="44.408" cy="86.803" r="1.48" fill="#055B8F"/><circle cx="38.487" cy="94.204" r="1.48" fill="#055B8F"/><circle cx="28.125" cy="103.086" r="1.48" fill="#055B8F"/><circle cx="17.763" cy="100.125" r="1.48" fill="#055B8F"/><circle cx="16.283" cy="113.447" r="1.48" fill="#055B8F"/><circle cx="34.046" cy="114.928" r="1.48" fill="#055B8F"/><circle cx="37.007" cy="103.086" r="1.48" fill="#055B8F"/><circle cx="42.928" cy="109.007" r="1.48" fill="#055B8F"/><circle cx="48.849" cy="101.605" r="1.48" fill="#055B8F"/><circle cx="53.289" cy="111.967" r="1.48" fill="#055B8F"/><circle cx="44.408" cy="116.408" r="1.48" fill="#055B8F"/><circle cx="54.77" cy="73.48" r="1.48" fill="#055B8F"/><circle cx="44.408" cy="74.96" r="1.48" fill="#055B8F"/><circle cx="19.243" cy="91.243" r="1.48" fill="#055B8F"/><circle cx="74.013" cy="77.921" r="1.48" fill="#055B8F"/><circle cx="97.697" cy="76.441" r="1.48" fill="#055B8F"/><circle cx="113.98" cy="67.559" r="1.48" fill="#055B8F"/><circle cx="118.421" cy="43.875" r="1.48" fill="#055B8F"/><circle cx="171.711" cy="120.849" r="1.48" fill="#055B8F"/><circle cx="109.539" cy="101.605" r="1.48" fill="#055B8F"/><circle cx="97.697" cy="95.684" r="1.48" fill="#055B8F"/><circle cx="82.895" cy="106.046" r="1.48" fill="#055B8F"/><circle cx="84.375" cy="51.276" r="1.48" fill="#055B8F"/><circle cx="124.342" cy="55.717" r="1.48" fill="#055B8F"/><circle cx="134.704" cy="48.316" r="1.48" fill="#055B8F"/><circle cx="136.184" cy="58.678" r="1.48" fill="#055B8F"/><circle cx="140.625" cy="69.04" r="1.48" fill="#055B8F"/><circle cx="128.783" cy="74.96" r="1.48" fill="#055B8F"/><circle cx="122.862" cy="89.763" r="1.48" fill="#055B8F"/><circle cx="143.586" cy="82.362" r="1.48" fill="#055B8F"/><circle cx="161.349" cy="79.401" r="1.48" fill="#055B8F"/><circle cx="161.349" cy="98.645" r="1.48" fill="#055B8F"/><circle cx="179.112" cy="82.362" r="1.48" fill="#055B8F"/><circle cx="185.033" cy="64.599" r="1.48" fill="#055B8F"/><circle cx="159.868" cy="64.599" r="1.48" fill="#055B8F"/><circle cx="165.789" cy="46.836" r="1.48" fill="#055B8F"/><circle cx="146.546" cy="42.395" r="1.48" fill="#055B8F"/><circle cx="183.553" cy="29.072" r="1.48" fill="#055B8F"/><circle cx="193.914" cy="14.27" r="1.48" fill="#055B8F"/><circle cx="210.197" cy="17.23" r="1.48" fill="#055B8F"/><circle cx="198.355" cy="34.993" r="1.48" fill="#055B8F"/><circle cx="204.276" cy="55.717" r="1.48" fill="#055B8F"/><circle cx="223.52" cy="36.474" r="1.48" fill="#055B8F"/><circle cx="238.322" cy="27.592" r="1.48" fill="#055B8F"/><circle cx="235.362" cy="46.836" r="1.48" fill="#055B8F"/><circle cx="251.645" cy="20.191" r="1.48" fill="#055B8F"/><circle cx="273.849" cy="12.789" r="1.48" fill="#055B8F"/><circle cx="264.967" cy="27.592" r="1.48" fill="#055B8F"/><circle cx="251.645" cy="34.993" r="1.48" fill="#055B8F"/><circle cx="259.046" cy="51.276" r="1.48" fill="#055B8F"/><circle cx="282.73" cy="42.395" r="1.48" fill="#055B8F"/><circle cx="288.651" cy="58.678" r="1.48" fill="#055B8F"/><circle cx="266.447" cy="69.04" r="1.48" fill="#055B8F"/><circle cx="288.651" cy="76.441" r="1.48" fill="#055B8F"/><circle cx="264.967" cy="80.882" r="1.48" fill="#055B8F"/><circle cx="279.77" cy="88.283" r="1.48" fill="#055B8F"/><circle cx="266.447" cy="98.645" r="1.48" fill="#055B8F"/><circle cx="281.25" cy="103.086" r="1.48" fill="#055B8F"/><circle cx="285.691" cy="116.408" r="1.48" fill="#055B8F"/><circle cx="294.572" cy="101.605" r="1.48" fill="#055B8F"/><circle cx="297.533" cy="119.368" r="1.48" fill="#055B8F"/><circle cx="312.336" cy="82.362" r="1.48" fill="#055B8F"/><circle cx="309.375" cy="64.599" r="1.48" fill="#055B8F"/><circle cx="312.336" cy="51.276" r="1.48" fill="#055B8F"/><circle cx="296.053" cy="34.993" r="1.48" fill="#055B8F"/><circle cx="287.171" cy="23.151" r="1.48" fill="#055B8F"/><circle cx="303.454" cy="17.23" r="1.48" fill="#055B8F"/><circle cx="319.737" cy="34.993" r="1.48" fill="#055B8F"/><circle cx="333.059" cy="55.717" r="1.48" fill="#055B8F"/><circle cx="334.54" cy="37.954" r="1.48" fill="#055B8F"/><circle cx="334.54" cy="26.112" r="1.48" fill="#055B8F"/><circle cx="350.822" cy="29.072" r="1.48" fill="#055B8F"/><circle cx="347.862" cy="40.914" r="1.48" fill="#055B8F"/><circle cx="358.224" cy="51.276" r="1.48" fill="#055B8F"/><circle cx="365.625" cy="29.072" r="1.48" fill="#055B8F"/><circle cx="375.987" cy="36.474" r="1.48" fill="#055B8F"/><circle cx="373.026" cy="54.237" r="1.48" fill="#055B8F"/><circle cx="355.263" cy="66.079" r="1.48" fill="#055B8F"/><circle cx="355.263" cy="80.882" r="1.48" fill="#055B8F"/><circle cx="373.026" cy="72" r="1.48" fill="#055B8F"/><circle cx="387.829" cy="64.599" r="1.48" fill="#055B8F"/><circle cx="396.711" cy="55.717" r="1.48" fill="#055B8F"/><circle cx="390.79" cy="37.954" r="1.48" fill="#055B8F"/><circle cx="387.829" cy="82.362" r="1.48" fill="#055B8F"/><circle cx="377.467" cy="88.283" r="1.48" fill="#055B8F"/><circle cx="362.665" cy="98.645" r="1.48" fill="#055B8F"/><circle cx="337.5" cy="101.605" r="1.48" fill="#055B8F"/><circle cx="330.099" cy="117.888" r="1.48" fill="#055B8F"/><circle cx="340.461" cy="122.329" r="1.48" fill="#055B8F"/><circle cx="356.743" cy="117.888" r="1.48" fill="#055B8F"/><circle cx="373.026" cy="122.329" r="1.48" fill="#055B8F"/><circle cx="364.48" cy="135.48" r="1.48" fill="#055B8F"/><circle cx="345.48" cy="134.48" r="1.48" fill="#055B8F"/><circle cx="374.48" cy="107.48" r="1.48" fill="#055B8F"/><circle cx="386.349" cy="103.086" r="1.48" fill="#055B8F"/><circle cx="390.79" cy="98.645" r="1.48" fill="#055B8F"/><circle cx="401.151" cy="92.724" r="1.48" fill="#055B8F"/><circle cx="402.632" cy="69.04" r="1.48" fill="#055B8F"/><circle cx="418.915" cy="66.079" r="1.48" fill="#055B8F"/><circle cx="410.033" cy="42.395" r="1.48" fill="#055B8F"/><circle cx="424.836" cy="46.836" r="1.48" fill="#055B8F"/><circle cx="436.678" cy="63.118" r="1.48" fill="#055B8F"/><circle cx="436.678" cy="51.276" r="1.48" fill="#055B8F"/><circle cx="438.158" cy="80.882" r="1.48" fill="#055B8F"/><circle cx="426.316" cy="79.401" r="1.48" fill="#055B8F"/><circle cx="410.033" cy="79.401" r="1.48" fill="#055B8F"/><circle cx="418.915" cy="94.204" r="1.48" fill="#055B8F"/><circle cx="429.276" cy="94.204" r="1.48" fill="#055B8F"/><circle cx="435.197" cy="106.046" r="1.48" fill="#055B8F"/><circle cx="420.395" cy="111.967" r="1.48" fill="#055B8F"/><circle cx="404.112" cy="107.526" r="1.48" fill="#055B8F"/><circle cx="330.099" cy="74.96" r="1.48" fill="#055B8F"/><circle cx="325.658" cy="86.803" r="1.48" fill="#055B8F"/><circle cx="319.737" cy="98.645" r="1.48" fill="#055B8F"/><circle cx="312.336" cy="116.408" r="1.48" fill="#055B8F"/><circle cx="225" cy="8.349" r="1.48" fill="#055B8F"/><circle cx="223.52" cy="64.599" r="1.48" fill="#055B8F"/><circle cx="202.796" cy="72" r="1.48" fill="#055B8F"/><circle cx="199.836" cy="85.322" r="1.48" fill="#055B8F"/><circle cx="202.796" cy="101.605" r="1.48" fill="#055B8F"/><circle cx="193.914" cy="119.368" r="1.48" fill="#055B8F"/><circle cx="183.553" cy="116.408" r="1.48" fill="#055B8F"/><circle cx="219.079" cy="106.046" r="1.48" fill="#055B8F"/><circle cx="214.638" cy="91.243" r="1.48" fill="#055B8F"/><circle cx="215.48" cy="114.48" r="1.48" fill="#055B8F"/><circle cx="236.842" cy="100.125" r="1.48" fill="#055B8F"/><circle cx="227.961" cy="82.362" r="1.48" fill="#055B8F"/><circle cx="247.204" cy="64.599" r="1.48" fill="#055B8F"/><circle cx="244.243" cy="80.882" r="1.48" fill="#055B8F"/><circle cx="251.645" cy="100.125" r="1.48" fill="#055B8F"/><circle cx="247.204" cy="113.447" r="1.48" fill="#055B8F"/><circle cx="180.592" cy="48.316" r="1.48" fill="#055B8F"/><circle cx="183.553" cy="103.086" r="1.48" fill="#055B8F"/><circle cx="145.066" cy="113.447" r="1.48" fill="#055B8F"/><circle cx="128.783" cy="106.046" r="1.48" fill="#055B8F"/><circle cx="97.697" cy="109.007" r="1.48" fill="#055B8F"/><circle cx="107.48" cy="115.48" r="1.48" fill="#055B8F"/><circle cx="116.941" cy="123.809" r="1.48" fill="#055B8F"/><circle cx="159.868" cy="119.368" r="1.48" fill="#055B8F"/><circle cx="173.191" cy="107.526" r="1.48" fill="#055B8F"/><circle cx="143.586" cy="101.605" r="1.48" fill="#055B8F"/><circle cx="90.296" cy="103.086" r="1.48" fill="#055B8F"/><circle cx="85.855" cy="85.322" r="1.48" fill="#055B8F"/><circle cx="74.013" cy="94.204" r="1.48" fill="#055B8F"/><circle cx="66.612" cy="101.605" r="1.48" fill="#055B8F"/><circle cx="65.132" cy="110.487" r="1.48" fill="#055B8F"/><circle cx="69.48" cy="129.48" r="1.48" fill="#055B8F"/><circle cx="84.375" cy="116.408" r="1.48" fill="#055B8F"/><circle cx="65.48" cy="119.48" r="1.48" fill="#055B8F"/><circle cx="56.25" cy="123.809" r="1.48" fill="#055B8F"/><circle cx="81.415" cy="137.132" r="1.48" fill="#055B8F"/><circle cx="93.257" cy="122.329" r="1.48" fill="#055B8F"/><circle cx="99.178" cy="135.651" r="1.48" fill="#055B8F"/><circle cx="113.98" cy="76.441" r="1.48" fill="#055B8F"/></svg>