<svg width="20" height="20" viewBox="0 0 20 20" fill="none" xmlns="http://www.w3.org/2000/svg">
<path d="M8.33203 15C8.33203 11.6016 10.8789 8.80078 14.1641 8.39062V8.33203C14.3789 8.01953 14.9961 7.5 14.9961 6.66406C14.9961 5.82813 14.1641 4.99609 14.1641 4.58203C14.168 1.25 12.4688 0 10 0C7.63672 0 5.83203 1.25 5.83203 4.58203C5.83203 5 5 5.83203 5 6.66406C5 7.49609 5.59375 8.04688 5.83203 8.33203C5.83203 8.33203 5.83203 9.16406 6.25 10.4141C6.25 10.832 7.08203 11.2461 7.5 11.6641C7.5 12.082 7.5 12.4961 7.08203 13.332L2.5 14.168C0.832031 14.582 0 17.5 0 20H10.6016C9.21484 18.7773 8.33203 16.9922 8.33203 15ZM15 10C12.2383 10 10 12.2383 10 15C10 17.7617 12.2383 20 15 20C17.7617 20 20 17.7617 20 15C20 12.2383 17.7617 10 15 10ZM18.332 15.832H15.832V18.332H14.1641V15.832H11.6641V14.1641H14.1641V11.6641H15.832V14.1641H18.332V15.832Z" fill="#B22320"/>
</svg>
