<svg width="23" height="20" viewBox="0 0 23 20" fill="none" xmlns="http://www.w3.org/2000/svg">
<path d="M3.42857 8.57143C4.68929 8.57143 5.71429 7.29018 5.71429 5.71429C5.71429 4.13839 4.68929 2.85714 3.42857 2.85714C2.16786 2.85714 1.14286 4.13839 1.14286 5.71429C1.14286 7.29018 2.16786 8.57143 3.42857 8.57143ZM19.4286 8.57143C20.6893 8.57143 21.7143 7.29018 21.7143 5.71429C21.7143 4.13839 20.6893 2.85714 19.4286 2.85714C18.1679 2.85714 17.1429 4.13839 17.1429 5.71429C17.1429 7.29018 18.1679 8.57143 19.4286 8.57143ZM20.5714 10H18.2857C17.6571 10 17.0893 10.317 16.675 10.8304C18.1143 11.817 19.1357 13.5982 19.3571 15.7143H21.7143C22.3464 15.7143 22.8571 15.0759 22.8571 14.2857V12.8571C22.8571 11.2812 21.8321 10 20.5714 10ZM11.4286 10C13.6393 10 15.4286 7.76339 15.4286 5C15.4286 2.23661 13.6393 0 11.4286 0C9.21786 0 7.42857 2.23661 7.42857 5C7.42857 7.76339 9.21786 10 11.4286 10ZM14.1714 11.4286H13.875C13.1321 11.875 12.3071 12.1429 11.4286 12.1429C10.55 12.1429 9.72857 11.875 8.98214 11.4286H8.68571C6.41429 11.4286 4.57143 13.7321 4.57143 16.5714V17.8571C4.57143 19.0402 5.33929 20 6.28571 20H16.5714C17.5179 20 18.2857 19.0402 18.2857 17.8571V16.5714C18.2857 13.7321 16.4429 11.4286 14.1714 11.4286ZM6.18214 10.8304C5.76786 10.317 5.2 10 4.57143 10H2.28571C1.025 10 0 11.2812 0 12.8571V14.2857C0 15.0759 0.510714 15.7143 1.14286 15.7143H3.49643C3.72143 13.5982 4.74286 11.817 6.18214 10.8304Z" fill="#B22320"/>
</svg>
