<svg width="160" height="160" fill="none" xmlns="http://www.w3.org/2000/svg">
  <g clip-path="url(#a)">
    <circle cx="80" cy="80" r="79.802" fill="#f8e6e8"/>
    <path d="m23 130 8.155-24.343c-7.048-10.372-9.598-22.655-7.175-34.565 2.423-11.91 9.653-22.637 20.346-30.185C55.02 33.357 68.45 29.5 82.116 30.052c13.668.551 26.644 5.474 36.516 13.852 9.872 8.379 15.968 19.643 17.155 31.699 1.187 12.056-2.616 24.082-10.703 33.844-8.086 9.761-19.905 16.593-33.26 19.226-13.353 2.632-27.334.886-39.341-4.915L23 130Z" fill="#dc848d"/>
    <path d="M79.5 49.906c-15.792 0-28.594 12.802-28.594 28.594 0 15.792 12.802 28.594 28.594 28.594 15.792 0 28.594-12.802 28.594-28.594 0-15.792-12.802-28.594-28.594-28.594Zm17.523 46.117a24.694 24.694 0 0 1-41.872-13.95 24.693 24.693 0 1 1 41.872 13.95Z" fill="rgba(185, 9, 27, 1)"/>
    <path d="M67.11 71.828h4.765v4.766h-4.766v-4.766Zm20.015 0h4.766v4.766h-4.766v-4.766ZM89.304 84.6a9.96 9.96 0 0 1-9.292 6.29h-1.024a9.96 9.96 0 0 1-9.292-6.29l-.153-.381h-4.106l.72 1.797a13.82 13.82 0 0 0 12.83 8.687h1.025a13.82 13.82 0 0 0 12.832-8.688l.718-1.796h-4.106l-.152.381Z" fill="rgba(185, 9, 27, 1)"/>
  </g>
  <defs>
    <clipPath id="a">
      <path fill="#fff" d="M0 0h160v160H0z"/>
    </clipPath>
  </defs>
</svg>
