<svg width="73" height="72" fill="none" xmlns="http://www.w3.org/2000/svg"><g clip-path="url(#a)"><rect x=".5" y="11" width="15" height="15" rx="2" fill="#dc848d"/><rect x="19.5" y="11" width="15" height="15" rx="2" fill="rgba(185, 9, 27, 1)"/><rect x="38.5" y="11" width="15" height="15" rx="2" fill="#dc848d"/><rect x="57.5" y="11" width="15" height="15" rx="2" fill="#dc848d"/><rect x=".5" y="29" width="15" height="15" rx="2" fill="#dc848d"/><rect x="19.5" y="29" width="15" height="15" rx="2" fill="#dc848d"/><rect x="38.5" y="29" width="15" height="15" rx="2" fill="rgba(185, 9, 27, 1)"/><rect x="57.5" y="29" width="15" height="15" rx="2" fill="rgba(185, 9, 27, 1)"/><rect x=".5" y="47" width="15" height="15" rx="2" fill="rgba(185, 9, 27, 1)"/><rect x="19.5" y="47" width="15" height="15" rx="2" fill="#dc848d"/><rect x="38.5" y="47" width="15" height="15" rx="2" fill="#dc848d"/><rect x="57.5" y="47" width="15" height="15" rx="2" fill="#dc848d"/></g><defs><clipPath id="a"><path fill="#fff" transform="translate(.5)" d="M0 0h72v72H0z"/></clipPath></defs></svg>