<svg width="160" height="160" fill="none" xmlns="http://www.w3.org/2000/svg">
  <g clip-path="url(#a)">
    <circle cx="80" cy="80" r="80" fill="#f8e6e8"/>
    <path d="M41.99 72.983a5.43 5.43 0 0 0-5.43 5.43v43.44a5.429 5.429 0 1 0 10.86 0v-43.44a5.43 5.43 0 0 0-5.43-5.43ZM69.14 18.68a5.43 5.43 0 0 0-5.43 5.43v97.742a5.429 5.429 0 0 0 9.27 3.84 5.429 5.429 0 0 0 1.59-3.84V24.111a5.43 5.43 0 0 0-5.43-5.43Zm54.301 76.022a5.43 5.43 0 0 0-5.43 5.43v21.72a5.43 5.43 0 1 0 10.86 0v-21.72a5.428 5.428 0 0 0-5.43-5.43Zm-27.15-43.441a5.43 5.43 0 0 0-5.43 5.43v65.161a5.429 5.429 0 1 0 10.859 0v-65.16a5.431 5.431 0 0 0-5.43-5.431Z" fill="rgba(185, 9, 27, 1)" opacity=".2"/>
    <path d="m103.778 86.485 23.777-23.778m-54.04 6.485 17.293 17.293M32.445 97.293l28.1-28.1M134.04 62.707a6.485 6.485 0 1 0 0-12.97 6.485 6.485 0 0 0 0 12.97ZM97.293 99.454a6.485 6.485 0 1 0 0-12.97 6.485 6.485 0 0 0 0 12.97ZM67.03 69.192a6.485 6.485 0 1 0 0-12.97 6.485 6.485 0 0 0 0 12.97ZM25.96 110.263a6.485 6.485 0 1 0 0-12.97 6.485 6.485 0 0 0 0 12.97Z" stroke="rgba(185, 9, 27, 1)" stroke-width="4.724" stroke-linecap="round" stroke-linejoin="round"/>
  </g>
  <defs>
    <clipPath id="a">
      <path fill="#fff" d="M0 0h160v160H0z"/>
    </clipPath>
  </defs>
</svg>
