<svg width="72" height="72" fill="none" xmlns="http://www.w3.org/2000/svg"><g clip-path="url(#clip0)"><path d="M43.606 62.962v2.126a3.288 3.288 0 01-2.83 3.266l-.536 1.899C39.934 71.24 39.016 72 37.945 72H32.82c-1.07 0-2.065-.76-2.294-1.747l-.536-1.899a3.288 3.288 0 01-2.83-3.266v-2.126c0-1.064.841-2.05 2.065-2.05h12.392c1.147.075 1.989.986 1.989 2.05zM54.008 34.48c0 4.709-1.912 9.417-5.201 12.76-1.912 1.974-3.136 4.404-3.519 7.063-.382 2.278-2.37 4.025-4.742 4.025h-10.25c-2.371 0-4.36-1.671-4.742-4.026-.383-2.658-1.683-5.164-3.519-7.063-3.29-3.418-5.125-7.823-5.201-12.531-.077-10.178 8.184-18.532 18.358-18.608h.153c10.25.076 18.663 8.279 18.663 18.38z" fill="#dc848d"/><path d="M33.509 8.962V1.974C33.509.911 34.35 0 35.498 0c1.147 0 1.988.911 1.988 1.974v6.988c0 1.139-.841 1.975-1.988 1.975a1.968 1.968 0 01-1.99-1.975zM9.95 32.354c1.147 0 1.988.912 1.988 1.975 0 1.063-.918 1.899-1.912 1.975H2.989C1.84 36.304 1 35.468 1 34.329c0-1.14.918-1.975 1.989-1.975h6.96zM60.97 32.354h7.036c1.224 0 2.066.836 1.99 1.975 0 1.14-.919 1.975-1.99 1.975H60.97c-1.147 0-1.989-.836-1.989-1.975 0-1.14.918-1.975 1.99-1.975zM11.02 55.747l4.972-4.937c.842-.76 2.066-.76 2.754 0 .841.76.841 1.975 0 2.81l-4.972 4.937c-.382.38-.841.607-1.377.607-.535 0-.994-.227-1.377-.607-.841-.76-.841-1.975 0-2.81zM52.173 14.962l4.972-4.937c.764-.835 1.988-.76 2.83 0 .841.76.841 1.975 0 2.81l-4.972 4.937c-.383.38-.842.608-1.377.608s-.994-.228-1.453-.608c-.842-.76-.842-1.975 0-2.81zM10.944 10.025c.765-.835 1.989-.835 2.83 0l4.972 4.937c1.17 1.17.487 2.36 0 2.81-.383.38-.841.608-1.377.608-.535 0-.994-.228-1.377-.608l-5.048-4.937c-.842-.76-.842-1.975 0-2.81zM52.173 50.81c.765-.836 1.988-.836 2.83 0l4.895 4.937c.842.76.842 1.974 0 2.81-.382.38-.841.607-1.377.607-.535 0-.994-.227-1.376-.607l-4.972-4.937c-.842-.76-.765-1.975 0-2.81z" fill="rgba(185, 9, 27, 1)"/></g><defs><clipPath id="clip0"><path fill="#fff" d="M0 0h72v72H0z"/></clipPath></defs></svg>