<svg width="61" height="77" fill="none" xmlns="http://www.w3.org/2000/svg"><path d="M57.39 75H2.17V62.79C17.863 51.13 28.24 42.843 33.3 37.93c5.133-4.987 7.7-9.643 7.7-13.97 0-3.007-1.173-5.353-3.52-7.04-2.347-1.687-5.133-2.53-8.36-2.53-7.7 0-14.263 2.823-19.69 8.47L.52 12.52c3.447-3.96 7.663-6.93 12.65-8.91C18.23 1.557 23.437.53 28.79.53c8.067 0 14.74 2.127 20.02 6.38 5.353 4.253 8.03 9.937 8.03 17.05 0 6.013-2.383 11.917-7.15 17.71-4.693 5.72-12.1 12.247-22.22 19.58h29.92V75z" fill="#b11e21" fill-opacity="1"/></svg>