<svg width="973" height="516" fill="none" xmlns="http://www.w3.org/2000/svg">
  <path d="M11.805.615v515.299M49.805.615v515.299M87.805.615v515.299M125.805.615v515.299M163.805.615v515.299M201.805.615v515.299M239.805.615v515.299M277.805.615v515.299M315.805.615v515.299M353.805.615v515.299M391.805.615v515.299M429.805.615v515.299M467.805.615v515.299M505.805.615v515.299M543.805.615v515.299M581.805.615v515.299M619.805.615v515.299M657.805.615v515.299M695.805.615v515.299M733.805.615v515.299M771.805.615v515.299M809.805.615v515.299M847.805.615v515.299M885.805.615v515.299M923.805.615v515.299M961.805.615v515.299M.805 504.929h972M.805 466.981h972M.805 429.033h972M.805 391.084h972M.805 353.136h972M.805 315.188l972-.001M.805 277.239h972M.805 239.291h972M.805 201.342h972M.805 163.394h972M.805 125.445h972M.805 87.497h972M.805 49.549h972M.805 11.6h972" stroke="#0F4465" stroke-miterlimit="10"/>
  <path d="M628.853 302.035c0 9.291-7.515 16.822-16.786 16.822-9.27 0-16.786-7.531-16.786-16.822 0-9.29 7.516-16.822 16.786-16.822 9.271 0 16.786 7.532 16.786 16.822Zm-28.279 0c0 6.362 5.146 11.518 11.493 11.518 6.348 0 11.494-5.156 11.494-11.518 0-6.361-5.146-11.518-11.494-11.518-6.347 0-11.493 5.157-11.493 11.518Z" fill="#FFE2B3"/>
  <path d="M612.067 318.857c3.32 0 6.566-.986 9.326-2.835a16.809 16.809 0 0 0 6.182-7.549 16.84 16.84 0 0 0-3.638-18.333 16.78 16.78 0 0 0-8.595-4.603 16.753 16.753 0 0 0-9.698.957 16.79 16.79 0 0 0-7.534 6.196 16.848 16.848 0 0 0-2.829 9.345h5.293c0-2.278.674-4.505 1.937-6.399a11.502 11.502 0 0 1 5.158-4.242 11.478 11.478 0 0 1 12.525 2.497 11.526 11.526 0 0 1 3.146 5.897c.443 2.235.216 4.55-.654 6.655a11.508 11.508 0 0 1-4.233 5.169 11.475 11.475 0 0 1-6.386 1.941v5.304Z" fill="#FFCE7E"/>
  <path d="M612.067 318.857c4.452 0 8.722-1.772 11.87-4.927a16.838 16.838 0 0 0 4.916-11.895c0-4.461-1.768-8.74-4.916-11.895a16.772 16.772 0 0 0-11.87-4.927v5.304c3.048 0 5.972 1.214 8.127 3.374a11.529 11.529 0 0 1 3.367 8.144 11.53 11.53 0 0 1-3.367 8.145 11.48 11.48 0 0 1-8.127 3.373v5.304Z" fill="#FFC058"/>
  <path d="m608.711 379.417 34.243 6.728 7.386 28.261" stroke="#fff"/>
  <path opacity=".2" fill-rule="evenodd" clip-rule="evenodd" d="M484.228 236.921c25.001-11.386 58.597-12.043 80.21 4.939 21.574 16.953 15.229 50.704 23.817 76.803 8.647 26.275 30.962 49.127 26.615 76.451-4.573 28.746-21.888 60.917-49.764 69.053-28.398 8.289-51.312-31.722-80.878-30.922-31.158.843-53.921 43.147-84.114 35.387-29.538-7.592-51.36-40.546-54.344-70.972-2.9-29.567 19.125-55.97 39.807-77.246 14.984-15.415 41.84-9.737 58.245-23.622 18.826-15.933 17.975-49.656 40.406-59.871Z" fill="#fff"/>
  <path d="m305.898 314.147 24.172-22.878 29.543-18.84 40.957 26.242 8.728-37.681" stroke="#FF9C00"/>
  <path d="m305.227 293.961 24.171 15.476 29.543-18.841 20.143 7.402 30.214-18.841" stroke="#fff"/>
  <ellipse cx="401.911" cy="297.325" rx="4.029" ry="4.037" fill="#FF9C00"/>
  <ellipse opacity=".3" cx="401.91" cy="297.325" rx="6.714" ry="6.729" fill="#FF9C00"/>
  <path d="m599.312 392.201 30.886 7.402h36.257" stroke="#FF9C00"/>
  <path d="M386.94 376.835c9.487 12.067 38.942 10.766 38.942 10.766s8.616 19.291 19.472 25.569c14.081 8.143 41.628 0 41.628 0l10.072 18.841s17.457 41.718 24.843 31.625c4.431-6.056 0-20.859 0-20.859s33.03 2.735 46.328-6.729c8.425-5.996 10.743-18.168 10.743-18.168s25.695 4.037 31.557-39.027c3.664-26.915-21.486-47.101-21.486-47.101s4.196-10.181 2.015-16.149c-3.032-8.295-19.472-11.439-19.472-11.439s-4.028-19.332-23.5-26.243c-13.863-4.92-36.928 7.402-36.928 7.402s-2.348-10.112-12.086-14.13c-9.737-4.019-25.514 8.747-25.514 8.747s-13.573-7.557-22.829-6.729c-11.378 1.018-24.843 15.476-24.843 15.476s-24.54 2.843-34.242 13.458c-10.74 11.75-9.4 39.7-9.4 39.7s-12.758 12.785 4.7 34.99Z" fill="#51A9E1"/>
  <path d="m426.084 289.251-44.314 52.484m44.314-52.484 21.486 42.391m-21.486-42.391 47-9.421m-47 9.421-10.072 41.045m10.072-41.045 79.9 29.606M381.77 341.735l44.314 45.756m-44.314-45.756 34.242-11.439m-34.242 11.439 66.95 26.242m-22.636 19.514 22.636-19.514m-22.636 19.514 27.528 4.037m52.372-72.671-58.414 12.785m58.414-12.785-32.9-39.027m32.9 39.027 5.371-32.971m-5.371 32.971v59.214m0-59.214 28.2 59.214m-28.2-59.214 38.943 26.243m-38.943-26.243 34.914-17.495m-34.914 17.495-57.264 49.12m57.264-49.12-45.657 54.503m-12.757-41.718-31.558-1.346m31.558 1.346 1.15 36.335m24.364-88.147 38.271 6.056m0 0 29.543 15.476m-29.543-15.476h33.572m0 0 26.185 18.168m-26.185-18.168-4.029 15.476m30.214 2.692 18.8 27.588m-18.8-27.588L544.927 345.1m26.185-41.046-30.214-2.692m49.014 30.28-55.728 46.429m55.728-46.429L544.927 345.1m-10.743 32.971 72.514-22.205-16.786 30.952m-55.728-8.747 44.314 39.7m-44.314-39.7-37.6 52.484m37.6-52.484h-28.2m28.2 0 10.743-32.971m-10.743 32.971 55.728 8.747m0 0 12.757 16.149m-12.757-16.149-11.414 30.953m0 0-81.914 12.784m81.914-12.784-57.071 24.896-24.843-12.112m0 0 9.4-52.484m0 0-45.657-4.711m45.657 4.711-18.8 34.989m57.743-67.96-4.029-43.738m-92.178 66.615-32.708-37.681m32.708 37.681 11.607 5.383m-11.607-5.383 4.892 23.551m6.715-18.168-6.715 18.168m6.715-18.168 26.857 39.7m-33.572-21.532 8.729 25.57m-8.729-25.57 33.572 21.532" stroke="#fff"/>
  <ellipse cx="426.083" cy="290.596" rx="4.029" ry="4.037" fill="#fff"/>
  <ellipse opacity=".3" cx="426.085" cy="290.596" rx="6.714" ry="6.729" fill="#fff"/>
  <ellipse cx="473.083" cy="279.83" rx="4.029" ry="4.037" fill="#fff"/>
  <ellipse opacity=".3" cx="473.085" cy="279.83" rx="6.714" ry="6.729" fill="#fff"/>
  <ellipse cx="510.685" cy="286.559" rx="4.029" ry="4.037" fill="#fff"/>
  <ellipse opacity=".3" cx="510.683" cy="286.559" rx="6.714" ry="6.729" fill="#fff"/>
  <ellipse cx="545.599" cy="286.559" rx="4.029" ry="4.037" fill="#fff"/>
  <ellipse opacity=".3" cx="545.597" cy="286.559" rx="6.714" ry="6.729" fill="#fff"/>
  <ellipse cx="505.318" cy="318.857" rx="4.029" ry="4.037" fill="#fff"/>
  <ellipse opacity=".3" cx="505.316" cy="318.857" rx="6.714" ry="6.729" fill="#fff"/>
  <ellipse cx="448.915" cy="332.315" rx="4.029" ry="4.037" fill="#fff"/>
  <ellipse opacity=".3" cx="448.914" cy="332.315" rx="6.714" ry="6.729" fill="#fff"/>
  <ellipse cx="448.915" cy="368.65" rx="4.029" ry="4.037" fill="#fff"/>
  <ellipse opacity=".3" cx="448.914" cy="368.65" rx="6.714" ry="6.729" fill="#fff"/>
  <ellipse cx="452.943" cy="391.528" rx="4.029" ry="4.037" fill="#fff"/>
  <ellipse opacity=".3" cx="452.941" cy="391.528" rx="6.714" ry="6.729" fill="#fff"/>
  <ellipse cx="534.857" cy="378.071" rx="4.029" ry="4.037" fill="#fff"/>
  <ellipse opacity=".3" cx="534.855" cy="378.071" rx="6.714" ry="6.729" fill="#fff"/>
  <ellipse cx="415.345" cy="329.623" rx="4.029" ry="4.037" fill="#fff"/>
  <ellipse opacity=".3" cx="415.343" cy="329.623" rx="6.714" ry="6.729" fill="#fff"/>
  <ellipse cx="589.915" cy="387.491" rx="4.029" ry="4.037" fill="#fff"/>
  <ellipse opacity=".3" cx="589.914" cy="387.491" rx="6.714" ry="6.729" fill="#fff"/>
  <ellipse cx="497.255" cy="429.209" rx="4.029" ry="4.037" fill="#fff"/>
  <ellipse opacity=".3" cx="497.257" cy="429.209" rx="6.714" ry="6.729" fill="#fff"/>
  <ellipse cx="579.173" cy="418.443" rx="4.029" ry="4.037" fill="#fff"/>
  <ellipse opacity=".3" cx="579.171" cy="418.443" rx="6.714" ry="6.729" fill="#fff"/>
  <ellipse cx="545.599" cy="343.081" rx="4.029" ry="4.037" fill="#fff"/>
  <ellipse opacity=".3" cx="545.597" cy="343.081" rx="6.714" ry="6.729" fill="#fff"/>
  <path opacity=".1" fill-rule="evenodd" clip-rule="evenodd" d="M574.486 481.464c-12.032 7.834-29.343 10.808-41.836 3.744-12.47-7.052-11.822-24.96-18.295-37.748-6.517-12.875-19.83-22.912-19.714-37.346.123-15.187 6.562-33.139 20.334-39.523 14.029-6.502 28.99 12.338 44.206 9.606 16.036-2.879 24.502-26.485 40.71-24.85 15.856 1.598 29.702 16.885 33.616 32.345 3.803 15.024-5.52 30.37-14.549 42.967-6.542 9.126-20.863 8.304-28.259 16.753-8.486 9.695-5.418 27.023-16.213 34.052Z" fill="#fff"/>
  <path stroke="#87C2E5" stroke-width="2" d="M393.512 414.765v23.865"/>
  <path stroke="#FF9C00" stroke-width="2" d="M398.883 405.972v32.657"/>
  <path stroke="#fff" stroke-opacity=".2" stroke-width="2" d="M398.883 405.972v32.657"/>
  <path stroke="#87C2E5" stroke-width="2" d="M404.254 410.997v27.633"/>
  <path stroke="#FF9C00" stroke-width="2" d="M409.625 417.277v21.353"/>
  <path stroke="#fff" stroke-opacity=".2" stroke-width="2" d="M409.625 417.277v21.353"/>
  <path stroke="#87C2E5" stroke-width="2" d="M414.996 407.229v31.401"/>
  <path stroke="#FF9C00" stroke-width="2" d="M420.367 400.948v37.682"/>
  <path stroke="#fff" stroke-opacity=".2" stroke-width="2" d="M420.367 400.948v37.682"/>
  <path stroke="#87C2E5" stroke-width="4" d="M561.027 237.484v23.864M569.086 228.691v32.657M577.141 233.716v27.633"/>
  <path stroke="#51A9E1" stroke-width="4" d="M561.027 247.532v13.458M569.086 239.458v21.532M577.141 243.495v17.495"/>
  <ellipse cx="408.626" cy="260.99" rx="4.029" ry="4.037" fill="#FF9C00"/>
  <ellipse opacity=".3" cx="408.625" cy="260.99" rx="6.714" ry="6.729" fill="#FF9C00"/>
  <ellipse cx="667.794" cy="399.602" rx="4.029" ry="4.037" fill="#FF9C00"/>
  <ellipse opacity=".3" cx="667.796" cy="399.603" rx="6.714" ry="6.729" fill="#FF9C00"/>
  <ellipse cx="630.201" cy="399.602" rx="4.029" ry="4.037" fill="#FF9C00"/>
  <ellipse opacity=".3" cx="630.199" cy="399.603" rx="6.714" ry="6.729" fill="#FF9C00"/>
  <ellipse cx="358.943" cy="273.101" rx="4.029" ry="4.037" fill="#FF9C00"/>
  <ellipse opacity=".3" cx="358.941" cy="273.102" rx="6.714" ry="6.729" fill="#FF9C00"/>
  <ellipse cx="329.4" cy="291.942" rx="4.029" ry="4.037" fill="#FF9C00"/>
  <ellipse opacity=".3" cx="329.398" cy="291.942" rx="6.714" ry="6.729" fill="#FF9C00"/>
  <ellipse cx="479.796" cy="239.458" rx="13.429" ry="13.458" fill="#FFE2B3"/>
  <path d="M479.796 252.915c2.656 0 5.252-.789 7.461-2.268a13.458 13.458 0 0 0 4.946-6.039 13.49 13.49 0 0 0 .764-7.776 13.466 13.466 0 0 0-3.675-6.89 13.423 13.423 0 0 0-6.876-3.683 13.401 13.401 0 0 0-7.759.765 13.441 13.441 0 0 0-6.027 4.957 13.483 13.483 0 0 0-2.263 7.477h13.429v13.457Z" fill="#FFCE7E"/>
  <path d="M479.796 252.915a13.42 13.42 0 0 0 9.496-3.941 13.474 13.474 0 0 0 0-19.032 13.417 13.417 0 0 0-9.496-3.942v26.915Z" fill="#FFC058"/>
  <ellipse cx="306.572" cy="294.633" rx="4.029" ry="4.037" fill="#fff"/>
  <ellipse opacity=".3" cx="306.57" cy="294.634" rx="6.714" ry="6.729" fill="#fff"/>
  <ellipse cx="329.4" cy="309.437" rx="4.029" ry="4.037" fill="#fff"/>
  <ellipse opacity=".3" cx="329.398" cy="309.437" rx="6.714" ry="6.729" fill="#fff"/>
  <path d="M645.826 342.588c0 7.433-6.012 13.458-13.428 13.458-7.417 0-13.429-6.025-13.429-13.458 0-7.432 6.012-13.457 13.429-13.457 7.416 0 13.428 6.025 13.428 13.457Zm-22.623 0c0 5.089 4.116 9.215 9.195 9.215 5.078 0 9.194-4.126 9.194-9.215 0-5.089-4.116-9.214-9.194-9.214-5.079 0-9.195 4.125-9.195 9.214Z" fill="#CBE6F6"/>
  <path d="M632.398 356.046c2.655 0 5.252-.79 7.46-2.268a13.454 13.454 0 0 0 4.946-6.04 13.488 13.488 0 0 0 .764-7.775 13.465 13.465 0 0 0-3.675-6.891 13.419 13.419 0 0 0-6.876-3.683 13.397 13.397 0 0 0-7.758.766 13.43 13.43 0 0 0-6.027 4.957 13.474 13.474 0 0 0-2.263 7.476h4.234a9.21 9.21 0 0 1 5.676-8.513 9.175 9.175 0 0 1 10.02 1.998 9.218 9.218 0 0 1 1.993 10.041 9.213 9.213 0 0 1-3.386 4.136 9.185 9.185 0 0 1-5.108 1.553v4.243Z" fill="#A6D4F0"/>
  <path d="M632.398 356.046c3.561 0 6.977-1.418 9.495-3.942a13.474 13.474 0 0 0 0-19.032 13.412 13.412 0 0 0-9.495-3.941v4.243a9.18 9.18 0 0 1 6.501 2.699 9.22 9.22 0 0 1 2.693 6.515 9.222 9.222 0 0 1-2.693 6.516 9.184 9.184 0 0 1-6.501 2.699v4.243Z" fill="#8DC8EB"/>
  <ellipse cx="632.396" cy="342.588" rx="4.029" ry="4.037" fill="#84BFE2"/>
  <ellipse cx="358.943" cy="290.596" rx="4.029" ry="4.037" fill="#fff"/>
  <ellipse opacity=".3" cx="358.941" cy="290.596" rx="6.714" ry="6.729" fill="#fff"/>
  <ellipse cx="640.943" cy="386.145" rx="4.029" ry="4.037" fill="#fff"/>
  <ellipse opacity=".3" cx="640.941" cy="386.145" rx="6.714" ry="6.729" fill="#fff"/>
  <ellipse cx="650.341" cy="413.06" rx="4.029" ry="4.037" fill="#fff"/>
  <ellipse opacity=".3" cx="650.339" cy="413.06" rx="6.714" ry="6.729" fill="#fff"/>
  <ellipse cx="377.74" cy="297.325" rx="4.029" ry="4.037" fill="#fff"/>
  <ellipse opacity=".3" cx="377.742" cy="297.325" rx="6.714" ry="6.729" fill="#fff"/>
  <ellipse cx="408.626" cy="279.83" rx="4.029" ry="4.037" fill="#fff"/>
  <ellipse opacity=".3" cx="408.625" cy="279.83" rx="6.714" ry="6.729" fill="#fff"/>
  <ellipse cx="305.228" cy="312.129" rx="4.029" ry="4.037" fill="#FF9C00"/>
  <ellipse opacity=".3" cx="305.226" cy="312.128" rx="6.714" ry="6.729" fill="#FF9C00"/>
  <ellipse cx="380.427" cy="394.22" rx="4.029" ry="4.037" fill="#FF9C00"/>
  <ellipse cx="352.224" cy="404.986" rx="4.029" ry="4.037" fill="#84BFE2"/>
  <path d="M365.654 404.986c0 7.432-6.012 13.457-13.428 13.457-7.417 0-13.429-6.025-13.429-13.457 0-7.433 6.012-13.458 13.429-13.458 7.416 0 13.428 6.025 13.428 13.458Zm-22.623 0c0 5.089 4.117 9.214 9.195 9.214s9.194-4.125 9.194-9.214-4.116-9.215-9.194-9.215c-5.078 0-9.195 4.126-9.195 9.215Z" fill="#CBE6F6"/>
  <path d="M352.226 418.443c2.656 0 5.252-.789 7.46-2.268a13.474 13.474 0 0 0 2.035-20.705 13.419 13.419 0 0 0-6.876-3.683 13.398 13.398 0 0 0-7.758.766 13.433 13.433 0 0 0-6.027 4.956 13.475 13.475 0 0 0-2.263 7.477h4.234c0-1.823.539-3.604 1.549-5.119a9.198 9.198 0 0 1 4.127-3.394 9.175 9.175 0 0 1 10.02 1.997 9.226 9.226 0 0 1-1.393 14.177 9.177 9.177 0 0 1-5.108 1.553v4.243Z" fill="#A6D4F0"/>
  <path d="M352.226 418.443c3.561 0 6.977-1.417 9.495-3.941a13.47 13.47 0 0 0 3.933-9.516 13.47 13.47 0 0 0-3.933-9.516 13.413 13.413 0 0 0-9.495-3.942v4.243c2.438 0 4.777.971 6.501 2.699a9.222 9.222 0 0 1 2.693 6.516 9.224 9.224 0 0 1-2.693 6.516 9.183 9.183 0 0 1-6.501 2.698v4.243Z" fill="#8DC8EB"/>
</svg>
