<svg xmlns="http://www.w3.org/2000/svg" width="43" height="54" viewBox="0 0 43 54"><g fill="none" fill-rule="evenodd"><path fill="#92C9EC" d="M38.94 43.75c-3.773 1.662-9.972 2.75-16.997 2.75S8.719 45.412 4.945 43.75C2.538 44.81 1.11 46.102 1.11 47.5c0 3.59 9.327 6.5 20.833 6.5 11.506 0 20.833-2.91 20.833-6.5 0-1.398-1.428-2.69-3.835-3.75" opacity=".285"/><path stroke="#103654" stroke-width="2" d="M40.238 36.437c-1.74-2.612-5.949-4.595-9.528-5.61-3.579-1.016-4.727-3.277-4.473-4.329.254-1.052 1.04-.725 1.835-2.226.678-1.279 1.14-4.267 1.14-4.267s1.631-.544 1.813-3.01c.181-2.467 0-3.374-.617-3.664-.617-.29-.87-.254-.87-.254s.402-3.509.405-4.244c.003-.93.087-1.845-.174-2.793-.94-3.409-4.84-4.86-9.368-4.788-4.527.073-4.597 1.451-5.537 2.467-.94 1.015-1.567.217-2.403 1.777-.505.943-.018 5.405-.018 5.405.152 1.235.322 2.176.322 2.176s-.254-.036-.87.254c-.617.29-.799 1.197-.617 3.664.181 2.466 1.813 3.01 1.813 3.01s.461 2.988 1.14 4.267c.795 1.501 1.581 1.174 1.835 2.226s-.895 3.313-4.474 4.33c-3.579 1.014-7.787 2.997-9.528 5.61-1.316 1.974-1.112 5.305-.934 6.811.053.446 7.153 2.672 20.19 2.672 13.035 0 19.8-2.226 19.852-2.672.178-1.506.383-4.837-.934-6.812z"/><path fill="#92C9EC" d="M31.738 23.999l.645-.386a1.79 1.79 0 0 1 2.61.95l.246.71a1.791 1.791 0 0 0 1.407 1.18l.742.12a1.79 1.79 0 0 1 1.389 2.405l-.268.703a1.793 1.793 0 0 0 .319 1.809l.492.568a1.79 1.79 0 0 1-.482 2.735l-.657.366a1.791 1.791 0 0 0-.918 1.59l.01.752a1.79 1.79 0 0 1-2.126 1.785l-.738-.142a1.79 1.79 0 0 0-1.726.629l-.475.583a1.79 1.79 0 0 1-2.777 0l-.474-.583a1.791 1.791 0 0 0-1.726-.63l-.738.143a1.79 1.79 0 0 1-2.128-1.785l.01-.751a1.79 1.79 0 0 0-.917-1.591l-.656-.366a1.79 1.79 0 0 1-.483-2.735l.492-.568a1.79 1.79 0 0 0 .319-1.81l-.268-.702a1.79 1.79 0 0 1 1.389-2.405l.742-.12a1.79 1.79 0 0 0 1.407-1.18l.246-.71a1.791 1.791 0 0 1 2.61-.95l.645.386a1.79 1.79 0 0 0 1.837 0"/><path fill="#FFF" d="M36.712 31.863a5.892 5.892 0 1 1-11.784 0 5.892 5.892 0 0 1 11.784 0"/><path fill="#92C9EC" d="M33.148 40.919l-.593.729a2.238 2.238 0 0 1-3.47 0l-.594-.73a2.217 2.217 0 0 0-1.127-.723v6.215l3.634-2.788 3.72 2.873v-6.393a2.238 2.238 0 0 0-1.57.817"/></g></svg>