<svg width="72" height="72" fill="none" xmlns="http://www.w3.org/2000/svg"><path fill-rule="evenodd" clip-rule="evenodd" d="M64.415 51.988c-2.592-3.86-8.856-6.789-14.184-8.289-5.329-1.5-7.038-4.841-6.66-6.395.379-1.555 1.547-1.072 2.732-3.29C47.313 32.126 48 27.71 48 27.71s2.43-.803 2.7-4.447c.27-3.645 0-4.985-.918-5.413-.919-.429-1.297-.375-1.297-.375s.6-5.185.605-6.27c.004-1.376.13-2.727-.26-4.127-1.4-5.037-7.206-7.18-13.946-7.074-6.74.108-6.843 2.144-8.243 3.645-1.4 1.5-2.333.32-3.577 2.625-.752 1.393-.027 7.986-.027 7.986a63.8 63.8 0 00.48 3.215s-.379-.054-1.297.375c-.917.428-1.188 1.768-.917 5.413C21.57 26.907 24 27.71 24 27.71s.686 4.415 1.697 6.305c1.183 2.217 2.354 1.734 2.732 3.288.378 1.555-1.333 4.895-6.661 6.396-5.328 1.5-11.593 4.43-14.185 8.289-1.959 2.918-1.655 7.84-1.39 10.064C6.273 62.712 16.843 66 36.25 66c19.407 0 29.477-3.289 29.556-3.948.265-2.225.57-7.146-1.39-10.064z" fill="#dc848d"/><path d="M54.152 44.99c.821-1.409 2.875-1.409 3.696 0l12.014 20.604 1.849 3.17c.821 1.408-.206 3.17-1.849 3.17H42.138c-1.643 0-2.67-1.762-1.849-3.17L54.152 44.99z" fill="rgba(185, 9, 27, 1)"/><path fill="#fff" d="M55 50.933h2v13h-2zM57.5 67.433a1.5 1.5 0 11-3 0 1.5 1.5 0 013 0z"/></svg>