<svg width="57" height="57" viewBox="0 0 57 57" fill="none" xmlns="http://www.w3.org/2000/svg">
<path d="M25.0103 36.9822C27.7741 36.9822 30.0147 34.7417 30.0147 31.9778C30.0147 29.2139 27.7741 26.9734 25.0103 26.9734C22.2465 26.9734 20.006 29.2139 20.006 31.9778C20.006 34.7417 22.2465 36.9822 25.0103 36.9822Z" fill="rgba(185, 9, 27, 1)"/>
<path d="M41.4546 7.77286L49.2273 0V7.77289L57 7.77286L49.2273 15.5457H44.6932L26.6032 33.5693L23.4189 30.385L41.4546 12.307V7.77286Z" fill="rgba(185, 9, 27, 1)"/>
<path d="M42.3869 22.0331C44.1072 25.0283 45.0283 28.4321 45.0283 31.9785C45.0283 37.3256 42.9465 42.3527 39.1664 46.1335C35.3843 49.9144 30.3579 51.9975 25.0109 51.9969C19.6633 51.9969 14.6363 49.9144 10.8549 46.1335C3.05104 38.3276 3.05104 25.6281 10.8555 17.8222C14.6369 14.042 19.6633 11.9608 25.0109 11.9602C28.5572 11.9608 31.9604 12.8819 34.9555 14.6016L38.597 10.962C34.5856 8.35743 29.9071 6.95508 25.0116 6.95508C18.3283 6.95508 12.0447 9.55834 7.31826 14.2829C-2.43845 24.0405 -2.43975 39.9152 7.31632 49.6708C12.0428 54.3974 18.3264 57 25.0109 57C31.6942 57 37.9791 54.3974 42.7043 49.6708C47.4294 44.9462 50.0326 38.6625 50.032 31.9792C50.0326 27.0829 48.6303 22.4056 46.0265 18.3935L42.3869 22.0331Z" fill="#dc848d"/>
<path d="M35.1512 29.269C36.0813 32.7726 35.1842 36.6662 32.4417 39.4094C30.4564 41.394 27.8182 42.4868 25.011 42.4868C22.2031 42.4868 19.5649 41.3934 17.579 39.4094C13.4814 35.3118 13.4821 28.6446 17.579 24.5463C19.5649 22.5617 22.2044 21.4683 25.011 21.4683C25.9424 21.4683 26.8499 21.5991 27.7263 21.8323L31.623 17.9355C29.5813 16.9717 27.335 16.4639 25.011 16.4639C20.8675 16.4639 16.9714 18.078 14.0404 21.0084C11.1108 23.9388 9.49597 27.8343 9.49597 31.9791C9.49597 36.1221 11.1095 40.0189 14.0398 42.9492C16.9714 45.879 20.8675 47.4938 25.011 47.4938C29.1545 47.4938 33.0506 45.8796 35.9802 42.9486C40.7255 38.2046 41.7463 31.1261 39.0472 25.3748L35.1512 29.269Z" fill="#dc848d"/>
</svg>
