<svg width="72" height="72" fill="none" xmlns="http://www.w3.org/2000/svg"><path fill-rule="evenodd" clip-rule="evenodd" d="M0 4.8A4.8 4.8 0 014.8 0h62.4A4.8 4.8 0 0172 4.8v62.4a4.8 4.8 0 01-4.8 4.8H4.8A4.8 4.8 0 010 67.2V4.8zm2.4 4.8v57.6a2.4 2.4 0 002.4 2.4h62.4a2.4 2.4 0 002.4-2.4V9.6H2.4z" fill="#dc848d"/><rect x="6" y="2.4" width="4.8" height="4.8" rx="2" fill="#fff"/><rect x="13.2" y="2.4" width="4.8" height="4.8" rx="2" fill="#fff"/><rect x="20.4" y="2.4" width="4.8" height="4.8" rx="2" fill="#fff"/><path d="M11 52.105l18.369-18.447 16.207 11.74L62 25.104" stroke="rgba(185, 9, 27, 1)" stroke-width="2"/><path d="M15.74 52.475a4.37 4.37 0 11-8.74 0 4.37 4.37 0 018.74 0z" fill="#fff" stroke="rgba(185, 9, 27, 1)" stroke-width="2"/><circle cx="29.627" cy="35.109" r="4.37" fill="#fff" stroke="rgba(185, 9, 27, 1)" stroke-width="2"/><circle cx="45.736" cy="44.475" r="4.37" fill="#fff" stroke="rgba(185, 9, 27, 1)" stroke-width="2"/><circle cx="61.63" cy="25.37" r="4.37" fill="#fff" stroke="rgba(185, 9, 27, 1)" stroke-width="2"/></svg>