<svg xmlns="http://www.w3.org/2000/svg" fill="#b8001c" width="800px" height="800px" viewBox="-3 -3 30 30" id="Main"><g id="deeditor_bgCarrier" stroke-width="0">
    <rect id="dee_c_e" x="-3" y="-3" width="30" height="30" rx="0" fill="#ffd0d6" strokewidth="0"/>
  </g><title/><path d="M22,3a1,1,0,0,0-1-1H3A1,1,0,0,0,3,4V17a1,1,0,0,0,0,2H9.59l-1.3,1.29a1,1,0,0,0,0,1.42,1,1,0,0,0,1.42,0L12,19.41l2.29,2.3a1,1,0,0,0,1.42,0,1,1,0,0,0,0-1.42L14.41,19H21a1,1,0,0,0,0-2V4A1,1,0,0,0,22,3ZM19,17H5V4H19Z" fill="#b8001c"/><path d="M7,12h4a1,1,0,0,0,1-1V7a1,1,0,0,0-1-1H7A1,1,0,0,0,6,7v4A1,1,0,0,0,7,12ZM8,8h2v2H8Z" fill="#b8001c"/><path d="M14,8h3a1,1,0,0,0,0-2H14a1,1,0,0,0,0,2Z" fill="#b8001c"/><path d="M14,12h3a1,1,0,0,0,0-2H14a1,1,0,0,0,0,2Z" fill="#b8001c"/><path d="M7,16H17a1,1,0,0,0,0-2H7a1,1,0,0,0,0,2Z" fill="#b8001c"/></svg>