<svg width="72" height="73" viewBox="0 0 72 73" fill="none" xmlns="http://www.w3.org/2000/svg">
<path d="M52.8953 0.998795C42.3607 0.998795 33.791 8.99714 33.791 18.8285C33.791 22.5025 34.9922 26.0397 37.2655 29.0582C37.4878 29.3524 37.5455 29.74 37.4194 30.0862L34.5127 38.0774L43.5141 34.9007C43.8126 34.7162 44.1867 34.6799 44.5165 34.8316C47.1681 36.0435 49.9865 36.6576 52.8946 36.6576C63.4291 36.6576 72.0002 28.6592 72.0002 18.8285C72.0002 8.99714 63.4298 0.998795 52.8953 0.998795ZM42.6528 21.4367C41.1995 21.4367 40.0211 20.2584 40.0211 18.805C40.0211 17.3517 41.1995 16.1733 42.6528 16.1733C44.1061 16.1733 45.2845 17.3517 45.2845 18.805C45.2845 20.2584 44.1061 21.4367 42.6528 21.4367ZM52.8953 21.4367C51.4419 21.4367 50.2636 20.2584 50.2636 18.805C50.2636 17.3517 51.4419 16.1733 52.8953 16.1733C54.3486 16.1733 55.527 17.3517 55.527 18.805C55.527 20.2584 54.3486 21.4367 52.8953 21.4367ZM63.1385 21.4367C61.6851 21.4367 60.5068 20.2584 60.5068 18.805C60.5068 17.3517 61.6851 16.1733 63.1385 16.1733C64.5918 16.1733 65.7701 17.3517 65.7701 18.805C65.7701 20.2584 64.5918 21.4367 63.1385 21.4367Z" fill="rgba(185, 9, 27, 1)"/>
<path fill-rule="evenodd" clip-rule="evenodd" d="M32.9396 64.7795C31.4781 62.5868 27.9456 60.9221 24.9411 60.0701C21.9366 59.2171 20.9729 57.3191 21.1861 56.436C21.3993 55.5528 22.0583 55.8273 22.7265 54.5673C23.2957 53.4936 23.6827 50.9852 23.6827 50.9852C23.6827 50.9852 25.0527 50.5286 25.2055 48.4584C25.3574 46.3874 25.2055 45.626 24.6875 45.3826C24.1696 45.1391 23.9564 45.1693 23.9564 45.1693C23.9564 45.1693 24.2947 42.2236 24.2972 41.6066C24.2997 40.825 24.3702 40.0578 24.1511 39.2619C23.3612 36.4002 20.0872 35.1821 16.2869 35.2425C12.4866 35.3038 12.4278 36.4606 11.6387 37.3135C10.8496 38.1656 10.3232 37.4957 9.62145 38.8053C9.19751 39.5969 9.60634 43.3426 9.60634 43.3426C9.73394 44.3794 9.87665 45.1693 9.87665 45.1693C9.87665 45.1693 9.66342 45.1391 9.14546 45.3826C8.62835 45.626 8.47556 46.3874 8.62835 48.4584C8.78029 50.5286 10.1503 50.9852 10.1503 50.9852C10.1503 50.9852 10.5373 53.4936 11.1073 54.5673C11.7747 55.8273 12.4345 55.5528 12.6478 56.436C12.861 57.3191 11.8964 59.2171 8.89194 60.0701C5.88745 60.9221 2.35493 62.5868 0.893403 64.7795C-0.211349 66.4375 -0.0400956 69.2338 0.109331 70.498C0.153824 70.8724 6.11411 72.7411 17.0575 72.7411C28.001 72.7411 33.6792 70.8724 33.7237 70.498C33.8731 69.2338 34.0452 66.4375 32.9396 64.7795Z" fill="#dc848d"/>
<path d="M55.2126 54.4759H31.4496L25.6082 68.0118H0V72.9988H45.9511L55.2126 54.4759Z" fill="#dc848d"/>
<path d="M25.2912 68.7242L31.4431 54.4631L26.0036 57.3255L22.0853 65.8745H9.26172V68.7242H25.2912Z" fill="white"/>
</svg>
