<svg xmlns="http://www.w3.org/2000/svg" width="68" height="68" viewBox="0 0 68 68"><title>icon-custom-software</title><path fill="#dc848d" fill-rule="evenodd" d="M62.33 0H5.67A5.67 5.67 0 0 0 0 5.67v42.5a5.67 5.67 0 0 0 5.67 5.66h56.66A5.67 5.67 0 0 0 68 48.17V5.67A5.67 5.67 0 0 0 62.33 0zM2.27 5.67a3.4 3.4 0 0 1 3.4-3.4h56.66a3.4 3.4 0 0 1 3.4 3.4v39.66H2.27z"/><path fill="#dc848d" d="M36.83 56.67h-5.66v5.66h-9.64a3.41 3.41 0 0 0-3.4 3.4v1.14A1.14 1.14 0 0 0 19.27 68h29.46a1.14 1.14 0 0 0 1.14-1.13v-1.14a3.41 3.41 0 0 0-3.4-3.4h-9.64z"/><path fill="rgba(185, 9, 27, 1)" d="M51.59 31.87l-1.84-1 .62-2a.74.74 0 0 0-.19-.77l-1.34-1.34a.74.74 0 0 0-.77-.19l-2 .62-1-1.84a.76.76 0 0 0-.68-.41h-1.9a.78.78 0 0 0-.68.41l-1 1.84-2-.62a.72.72 0 0 0-.76.19L36.7 28.1a.74.74 0 0 0-.19.77l.62 2-1.84 1a.76.76 0 0 0-.41.68v1.9a.78.78 0 0 0 .41.68l1.84 1-.62 2a.73.73 0 0 0 .19.77l1.35 1.35a.72.72 0 0 0 .76.19l2-.62 1 1.84a.78.78 0 0 0 .68.41h1.9a.76.76 0 0 0 .68-.41l1-1.84 2 .62a.74.74 0 0 0 .77-.19l1.34-1.35a.73.73 0 0 0 .19-.77l-.62-2 1.84-1a.78.78 0 0 0 .41-.68v-1.9a.76.76 0 0 0-.41-.68zM43.5 37a3.45 3.45 0 1 1 3.5-3.5 3.46 3.46 0 0 1-3.5 3.5zM39 23.49l1-2.66a.75.75 0 0 0-.16-.76l-2.28-2.5 2-2.68a.78.78 0 0 0 .09-.78l-1.2-2.56a.77.77 0 0 0-.66-.44L34.43 11 34 7.62a.74.74 0 0 0-.51-.62l-2.66-1a.75.75 0 0 0-.77.15l-2.48 2.34-2.69-2.06a.76.76 0 0 0-.78-.08l-2.56 1.2a.74.74 0 0 0-.43.64L21 11.58l-3.38.42a.77.77 0 0 0-.61.49l-1 2.66a.75.75 0 0 0 .15.77l2.29 2.49-2.06 2.68a.76.76 0 0 0-.08.78l1.2 2.56a.77.77 0 0 0 .65.44l3.38.14.46 3.38a.77.77 0 0 0 .49.61l2.66.95a.85.85 0 0 0 .26.05.74.74 0 0 0 .51-.2l2.49-2.29 2.69 2.06a.74.74 0 0 0 .77.08l2.57-1.2a.75.75 0 0 0 .43-.64l.13-3.38 3.38-.43a.75.75 0 0 0 .62-.51zm-9-1.19a4.74 4.74 0 1 1-4-8.59 4.68 4.68 0 0 1 2-.45 4.75 4.75 0 0 1 2 9z"/></svg>
