<svg xmlns="http://www.w3.org/2000/svg" width="382" height="426" fill="none" viewBox="0 0 382 426"><g clip-path="url(#clip0)"><path fill="#da828d" d="M25.5452 265.574L195.045 363.65 382 255.087l-169.5-98.076L25.5452 265.574z"/><path fill="#d44556" d="M52.5238 251.624l144.0882 83.348V190.368L52.5238 107.02v144.604z"/><path fill="#b8001c" d="M382 227.855L196.612 334.972V190.368L382 83.251v144.604z"/><path fill="#fff" d="M180.311 313.075l1.688.972V267.02l-1.688-.972v47.027zM149.044 295.017l1.689.973v-47.027l-1.689-.984v47.038zM144.574 292.429l1.688.984v-47.039l-1.688-.972v47.027zM175.428 310.256l2.526 1.458v-47.027l-2.526-1.47v47.039zM157.547 299.927l2.539 1.47V254.37l-2.539-1.47v47.027zM152.555 297.035l3.595 2.09v-47.027l-3.595-2.09v47.027zM171.783 308.141l.887.523v-47.027l-.887-.523v47.027zM167.313 305.565l.887.51v-47.027l-.887-.51v47.027zM162.843 302.989l.887.51v-47.027l-.887-.522v47.039z"/><path stroke="#fff" stroke-miterlimit="10" stroke-width="2" d="M344.356 161.726l25.448-14.703v-33.94l-25.448 14.692v33.951zM311.644 180.61l25.461-14.692v-33.951l-25.461 14.703v33.94z" fill="#000000"/><path fill="#fff" d="M215.792 303.268l85.916-49.615v-2.138l-85.916 49.615v2.138zM215.792 295.285l85.916-49.627v-2.127l-85.916 49.615v2.139zM266.142 258.222l35.566-20.548v-2.127l-35.566 20.537v2.138z"/><path fill="#da828d" d="M124.458 148.76l72.093 41.608L381.866 83.3482 309.762 41.741 124.458 148.76z"/><path fill="#d44556" d="M52.5238 107.019l72.0922 41.608L309.932 41.6072 237.827 0 52.5238 107.019z"/><path fill="#b8001c" d="M89.2928 426l11.8312-6.842V233.797l-11.8312 6.83V426z"/><path fill="#f0bdc2" d="M.182198 374.72L89.2928 426V240.627L.182198 189.347V374.72z"/><path fill="#d44556" d="M.18219 189.347l89.11061 51.45 11.8312-7-89.0985-51.45-11.84331 7z"/><path fill="#d44556" d="M56.01 323.841l1.5548.899v-43.284l-1.5548-.899v43.284zM27.2336 307.218l1.5549.899v-43.284l-1.5549-.899v43.284zM23.1279 304.836l1.5548.899v-43.272l-1.5548-.899v43.272zM51.5157 321.241l2.3322 1.348v-43.284l-2.3322-1.348v43.284zM35.0685 311.738l2.3323 1.349v-43.272l-2.3323-1.349v43.272zM30.4648 309.077l3.3161 1.92v-43.284l-3.3161-1.908v43.272zM48.163 319.296l.8138.474v-43.272l-.8138-.474v43.272zM44.0451 316.927l.826.474v-43.285l-.826-.473v43.284zM39.9395 314.558l.8139.461v-43.272l-.8139-.474v43.285z"/><path fill="#b8001c" d="M64.2093 290.91l1.2997.742V275.49l-12.1227-6.999v1.725l10.823 6.246v14.448zM16.6658 263.436l1.2876.753v-14.436l10.823 6.246v-1.726l-12.1106-6.999v16.162zM53.3863 333.635l12.1227 7.012v-16.174l-1.2997-.741v14.436l-10.823-6.258v1.725zM16.6658 312.431l12.1106 6.999v-1.725l-10.823-6.259V297.01l-1.2876-.741v16.162z"/><path fill="#d44556" d="M-.012123 373.991L89.2928 425.563v-29.249L-.012123 344.742v29.249z"/><path fill="#fff" d="M40.3748 386.963c-1.773-4.168-1.2987-8.361 1.0594-9.365 2.3581-1.003 5.707 1.562 7.48 5.73 1.773 4.169 1.2987 8.362-1.0594 9.365-2.3581 1.004-5.707-1.561-7.48-5.73z"/></g><defs fill="#000000"><clipPath id="clip0" fill="#000000"><path fill="#fff" d="M0 0h382v426H0z" transform="matrix(-1 0 0 1 382 0)"/></clipPath></defs></svg>