<svg xmlns="http://www.w3.org/2000/svg" width="53" height="59" fill="none" viewBox="0 0 53 59"><path fill="#92C9EC" fill-rule="evenodd" d="M52.2836 8.91697c0 4.92453-11.6718 8.91693-26.0694 8.91693-14.3977 0-26.068204-3.9924-26.068204-8.91693C.145996 3.99243 11.8165 0 26.2142 0c14.3976 0 26.0694 3.99243 26.0694 8.91697z" clip-rule="evenodd"/><path fill="#92C9EC" fill-rule="evenodd" d="M26.2147 22.465c-13.9413 0-25.292566-3.7459-26.000852-8.454H.145264v8.5779c0 4.9258 11.671736 8.917 26.069436 8.917s26.0694-3.9912 26.0694-8.917V14.011h-.0686c-.7083 4.7081-12.0595 8.454-26.0008 8.454z" clip-rule="evenodd"/><path fill="#92C9EC" fill-rule="evenodd" d="M26.2147 36.2366c-13.9413 0-25.292566-3.7459-26.000852-8.454H.145264v8.5779c0 4.9258 11.671736 8.917 26.069436 8.917s26.0694-3.9912 26.0694-8.917v-8.5779h-.0686c-.7083 4.7081-12.0595 8.454-26.0008 8.454z" clip-rule="evenodd"/><path fill="#92C9EC" fill-rule="evenodd" d="M26.2147 49.0837c-13.9413 0-25.292566-3.746-26.000852-8.4541H.145264v8.5779c0 4.9258 11.671736 8.917 26.069436 8.917s26.0694-3.9912 26.0694-8.917v-8.5779h-.0686c-.7083 4.7081-12.0595 8.4541-26.0008 8.4541z" clip-rule="evenodd"/></svg>
