<svg xmlns="http://www.w3.org/2000/svg" width="63" height="63" fill="none" viewBox="0 0 63 63"><path fill="#92C9EC" fill-rule="evenodd" d="M53.7947 40.8048l2.2506-6.1907c.211-.6331.088-1.319-.3692-1.7939l-5.3278-5.8214 4.7828-6.2609c.4043-.5275.4746-1.2136.2109-1.8113l-2.7958-5.9799c-.2812-.5977-.8615-.9847-1.5297-1.0199l-7.8773-.3341-1.0374-7.80876c-.0879-.65071-.5275-1.2134-1.1429-1.42444L34.752.108307c-.6154-.22864-1.3012-.087806-1.7936.35187L27.156 5.80649l-6.2773-4.80123c-.5274-.404464-1.2132-.474881-1.811-.193428L13.0893 3.60811c-.5977.28146-.9846.86175-1.0022 1.51246l-.3341 7.89653-7.82447 1.0378c-.65058.0878-1.19565.5275-1.42424 1.143L.253574 21.4062c-.228592.6157-.087895 1.3014.351687 1.7763l5.345279 5.8214-4.8002 6.2609c-.38689.5275-.474784 1.2312-.193392 1.8115L3.75263 43.056c.28139.5979.86156.9847 1.52974 1.0199l7.87743.3343 1.0373 7.8261c.0879.6508.5275 1.1958 1.143 1.4247l6.2068 2.2334c.1935.0704.4045.1056.5979.1056.4396 0 .8615-.1582 1.1956-.4573l5.8025-5.3465 6.2772 4.8014c.5099.4045 1.2133.4747 1.8112.1932l4.7517-2.2225-11.2582-11.3766-.0264-.0281c-.2251-.2392-.498-.4259-.7995-.5481-.0962-.039-.1946-.0712-.2946-.0965-.479.0535-.9658.081-1.459.081-2.8139 0-5.4189-.894-7.5466-2.4134-1.5291-1.0634-2.8099-2.4548-3.7467-4.0784-1.1118-1.9269-1.6988-4.111-1.7056-6.3331-.0008-.0583-.0011-.1167-.0011-.1751 0-.0466.0002-.0932.0007-.1397-.0108-.9348.0973-1.8675.3219-2.7755l.016-.0649.019-.0641c.0014-.0048.0028-.0097.0043-.0147 1.0725-4.447 4.4311-8.0027 8.7626-9.3536.0566-.0189.1074-.0348.1507-.0483 1.2808-.4004 2.5785-.5706 3.8532-.5386 7.1206.0689 12.8716 5.8626 12.8716 12.9994 0 .9597-.104 1.895-.3013 2.7955.1372.3116.3334.5929.5774.8282l.0278.0269.0272.0275c1.4898 1.5129 2.9776 3.0098 4.471 4.5124l.0002.0002c1 1.0061 2.0026 2.0148 3.01 3.0325.924.934 1.8476 1.8728 2.7692 2.8114l.6437-.0868c.6505-.0703 1.1956-.5275 1.4242-1.143zm-5.7827 1.7308c-.395-.4009-.7905-.8016-1.1865-1.2019-.9965-1.0067-1.995-2.0114-2.9935-3.016l-.0028-.0027c-1.3996-1.4082-2.7991-2.8163-4.193-4.2301-1.3792 2.5992-3.6145 4.6746-6.33 5.8504l10.9021 11.0186c.0017-.0239.0028-.0478.0035-.0718l.3341-7.879 3.4661-.4675z" clip-rule="evenodd"/><path fill="#103654" d="M60.8581 55.5865c-2.1477-2.1844-4.2953-4.3624-6.4429-6.5339l-.741-.7512c-2.2807-2.3182-4.5551-4.6495-6.8487-6.9677-2.4934-2.519-4.9997-5.0251-7.4867-7.5506-.6143-.5924-1.0857-1.3182-1.3783-2.1218-.2926-.8036-.3985-1.6637-.3097-2.5148 0-.2331.015-.464.0451-.6928.0351-.6853.0092-1.3722-.0773-2.0528-.7603-5.7504-6.823-9.7135-12.3059-7.9974-.6894.2137-.7345.3691-.2256.8807 1.25 1.2692 2.5063 2.5363 3.7691 3.8012.3242.287.5847.6395.7645 1.0344.1798.3948.2749.8233.2791 1.2575.0043.4343-.0824.8646-.2544 1.2629-.1721.3984-.4256.7559-.7441 1.0493-.4832.4987-.9664.9843-1.4496 1.483-1.4948 1.5282-3.2988 1.5217-4.7935 0a342.681737 342.681737 0 0 0-3.5307-3.5616c-.4381-.4339-.5734-.3951-.7474.1942-.1733.7007-.2513 1.4217-.2319 2.1435-.0341 1.7747.4163 3.5248 1.3023 5.0603.886 1.5355 2.1736 2.7977 3.7231 3.6494 1.5928.8788 3.3978 1.2937 5.2123 1.198h.4252c.757-.0352 1.5125.0941 2.2152.3791.7027.285 1.336.7189 1.8567 1.2721l4.568 4.6107 10.9207 11.0409 6.4429 6.5145c.3864.4148.8526.7463 1.3704.9743.5178.228 1.0764.3477 1.6417.352.5653.0042 1.1255-.1071 1.6467-.3274.5211-.2202.9922-.5446 1.3847-.9536.4073-.3988.7311-.8756.9522-1.4022.2211-.5266.335-1.0924.335-1.664 0-.5715-.1139-1.1373-.335-1.6639-.2211-.5267-.5449-1.0035-.9522-1.4023z"/></svg>
