<svg xmlns="http://www.w3.org/2000/svg" width="63" height="65" fill="none" viewBox="0 0 63 65"><path fill="#da828d" fill-rule="evenodd" d="M52.2834 9.15025c0 4.92455-11.6718 8.91695-26.0695 8.91695-14.3976 0-26.068148-3.9924-26.068148-8.91695C.145752 4.22571 11.8163.233276 26.2139.233276c14.3977 0 26.0695 3.992434 26.0695 8.916974z" clip-rule="evenodd"/><path fill="#da828d" fill-rule="evenodd" d="M26.2144 22.6982c-13.9412 0-25.29251-3.746-26.000796-8.4541H.14502v8.5779c0 4.9258 11.67178 8.917 26.06938 8.917 14.3977 0 26.0695-3.9912 26.0695-8.917v-8.5779h-.0686c-.7083 4.7081-12.0596 8.4541-26.0009 8.4541z" clip-rule="evenodd"/><path fill="#da828d" fill-rule="evenodd" d="M26.2144 36.4699c-13.9412 0-25.29251-3.7459-26.000796-8.454H.14502v8.5779c0 4.9258 11.67178 8.9169 26.06938 8.9169 14.3977 0 26.0695-3.9911 26.0695-8.9169v-8.5779h-.0686c-.7083 4.7081-12.0596 8.454-26.0009 8.454z" clip-rule="evenodd"/><path fill="#da828d" fill-rule="evenodd" d="M26.2144 49.3168c-13.9412 0-25.29251-3.7459-26.000796-8.454H.14502v8.5779c0 4.9258 11.67178 8.917 26.06938 8.917 14.3977 0 26.0695-3.9912 26.0695-8.917v-8.5779h-.0686c-.7083 4.7081-12.0596 8.454-26.0009 8.454z" clip-rule="evenodd"/><circle cx="43.6453" cy="48.5" r="15.5" fill="#b9091b"/><path fill="#fff" d="M43.1453 54l-.6179.7863c.2097.1647.4764.2389.741.2061.2646-.0328.5051-.17.6681-.381L43.1453 54zm-7.6179-4.7137l7 5.5 1.2357-1.5726-7-5.5-1.2357 1.5726zm8.4091 5.3251l8.5-11-1.5825-1.2228-8.5 11 1.5825 1.2228z"/></svg>