<svg xmlns="http://www.w3.org/2000/svg" width="71" height="71" fill="none" viewBox="0 0 71 71"><path fill="#da828d" d="M67.4223 49.5275l-3.3537-1.7461 1.1364-3.6169c.1525-.485.0277-1.0254-.3465-1.3996l-2.4527-2.4527c-.3742-.3742-.9147-.499-1.3997-.3464l-3.6169 1.1362-1.7461-3.3536c-.2356-.4573-.7067-.7484-1.2333-.7484h-3.4784c-.5127 0-.9977.2911-1.2333.7484L47.952 41.102l-3.6169-1.1362c-.485-.1526-1.0255-.0278-1.3858.3464l-2.4667 2.4527c-.3741.3742-.4989.9146-.3464 1.3996l1.1363 3.6169-3.3536 1.7461c-.4573.2356-.7483.7067-.7483 1.2333v3.4784c0 .5127.291.9977.7483 1.2333l3.3536 1.7461-1.1363 3.603c-.1525.4989-.0277 1.0393.3464 1.3996l2.4667 2.4666c.3603.3742.9008.499 1.3858.3464l3.6169-1.1362 1.7461 3.3536c.2356.4573.7206.7484 1.2333.7484h3.4784c.5266 0 .9977-.2911 1.2333-.7484l1.7461-3.3536 3.6169 1.1362c.485.1526 1.0255.0278 1.3997-.3464l2.4527-2.4666c.3742-.3603.499-.9007.3465-1.3996l-1.1364-3.603 3.3537-1.7461c.4572-.2356.7483-.7206.7483-1.2333v-3.4784c0-.5266-.2911-.9977-.7483-1.2333zm-14.7448 9.2707c-3.4783 0-6.3053-2.8268-6.3053-6.3051 0-3.4645 2.827-6.2913 6.3053-6.2913 3.4645 0 6.2915 2.8268 6.2915 6.2913 0 3.4783-2.827 6.3051-6.2915 6.3051zM44.3237 34.0609l1.7684-4.8641c.1657-.4975.0691-1.0364-.2901-1.4095l-4.1861-4.574 3.7578-4.9192c.3177-.4145.373-.9536.1658-1.4232l-2.1967-4.6985c-.221-.4696-.6769-.7737-1.2019-.8014l-6.1893-.2624-.8152-6.1355c-.069-.51128-.4144-.95339-.8979-1.11921L29.3616 2.0851c-.4835-.17965-1.0224-.06899-1.4092.27647l-4.5591 4.20067-4.9321-3.77239c-.4145-.3178-.9533-.37312-1.423-.15198l-4.6973 2.19708c-.4696.22114-.7736.67708-.7874 1.18836l-.2625 6.20449-6.14784.8154c-.51117.069-.93944.4144-1.11905.898l-1.76842 4.878c-.1796.4837-.06906 1.0225.27633 1.3956l4.19986 4.574-3.77159 4.9193c-.30398.4144-.37304.9673-.15194 1.4233l2.1966 4.6983c.2211.4698.67695.7737 1.20194.8014l6.18941.2626.815 6.1491c.0691.5113.4145.9396.8981 1.1194l4.8768 1.7548c.152.0553.3178.083.4697.083.3454 0 .677-.1243.9395-.3593l4.5591-4.2008 4.9321 3.7725c.4006.3178.9532.373 1.423.1518l4.6972-2.197c.4559-.2073.7737-.6771.7875-1.1884l.2625-6.1906 6.1479-.8293c.5111-.0551.9394-.4144 1.119-.898zm-16.468-2.1834c-1.1605.5391-2.4039.8154-3.6749.8154-3.3572 0-6.4518-1.9623-7.8748-5.0023-.9809-2.1004-1.0914-4.4635-.3039-6.6467.8013-2.1832 2.39-3.9244 4.49-4.9054 1.1604-.5528 2.4039-.8293 3.6749-.8293 3.3571 0 6.4518 1.9761 7.8748 5.0163 2.0309 4.3388.1519 9.5207-4.1861 11.552z"/></svg>