<svg xmlns="http://www.w3.org/2000/svg" width="63" height="65" fill="none" viewBox="0 0 63 65"><path fill="#92C9EC" fill-rule="evenodd" d="M52.2833 9.15025c0 4.92455-11.6718 8.91695-26.0694 8.91695-14.3977 0-26.068209-3.9924-26.068209-8.91695C.145691 4.22571 11.8162.233276 26.2139.233276c14.3976 0 26.0694 3.992434 26.0694 8.916974z" clip-rule="evenodd"/><path fill="#92C9EC" fill-rule="evenodd" d="M26.2144 22.6982c-13.9413 0-25.292571-3.746-26.000857-8.4541H.144958v8.5779c0 4.9258 11.671742 8.917 26.069442 8.917 14.3977 0 26.0694-3.9912 26.0694-8.917v-8.5779h-.0686c-.7083 4.7081-12.0595 8.4541-26.0008 8.4541z" clip-rule="evenodd"/><path fill="#92C9EC" fill-rule="evenodd" d="M26.2144 36.4699c-13.9413 0-25.292571-3.7459-26.000857-8.454H.144958v8.5779c0 4.9258 11.671742 8.9169 26.069442 8.9169 14.3977 0 26.0694-3.9911 26.0694-8.9169v-8.5779h-.0686c-.7083 4.7081-12.0595 8.454-26.0008 8.454z" clip-rule="evenodd"/><path fill="#92C9EC" fill-rule="evenodd" d="M26.2144 49.3168c-13.9413 0-25.292571-3.7459-26.000857-8.454H.144958v8.5779c0 4.9258 11.671742 8.917 26.069442 8.917 14.3977 0 26.0694-3.9912 26.0694-8.917v-8.5779h-.0686c-.7083 4.7081-12.0595 8.454-26.0008 8.454z" clip-rule="evenodd"/><circle cx="43.6453" cy="48.5" r="15.5" fill="#103654"/><path stroke="#fff" stroke-width="2" d="M49.1393 41c2.4244 1.6963 4.006 4.4852 4.006 7.6384 0 5.1704-4.2532 9.3616-9.5 9.3616s-9.5-4.1912-9.5-9.3616c0-2.832 1.2759-5.37 3.2924-7.0867"/><path fill="#fff" fill-rule="evenodd" d="M35.2445 40.1492l3.6675 3.7433c.2043.2086.5628.0966.6066-.1894l.6208-4.1006c.0524-.3466-.2505-.6457-.6043-.5974l-4.0839.5598c-.2865.0391-.4071.3795-.2067.5843z" clip-rule="evenodd"/></svg>
