<svg xmlns="http://www.w3.org/2000/svg" width="67" height="67" fill="none" viewBox="0 0 67 67"><circle cx="33.5" cy="33.5" r="33.5" fill="#da828d"/><path fill="#b9091b" d="M11.7962 33.0319c.5999 0 1.162-.1539 1.6672-.4047l8.3172 5.0542c0 .0399-.0113.0779-.0113.1197 0 2.0996 1.7013 3.8077 3.7943 3.8077.9273 0 1.7675-.3496 2.4261-.9063l12.3518 10.5397c-.0776.304-.1325.6194-.1325.9482 0 2.0995 1.7013 3.8096 3.7943 3.8096 2.0931 0 3.7963-1.7082 3.7963-3.8096 0-.171-.0284-.3345-.0493-.4979l8.3324-12.9547c.0416 0 .0814.0114.123.0114 2.0911 0 3.7943-1.7081 3.7943-3.8096s-1.7013-3.8097-3.7943-3.8097c-.2668 0-.5242.0285-.7759.0798l-4.5891-8.0088c.2517-.5092.405-1.0716.405-1.6777 0-2.0996-1.7013-3.8097-3.7925-3.8097-1.0389 0-1.9813.4218-2.6664 1.104l-7.1155-2.8007c.0038-.0703.0208-.1368.0208-.2072 0-2.0995-1.7013-3.8096-3.7943-3.8096s-3.7943 1.7082-3.7943 3.8096v.0038l-5.8249.8228c-.6737-1.0641-1.8527-1.7766-3.1982-1.7766-2.0911 0-3.7924 1.7082-3.7924 3.8097 0 .5985.1514 1.159.3974 1.6644l-5.03 5.1891c-.2763-.0646-.564-.1083-.8611-.1083C9.70318 25.4145 8 27.1227 8 29.2242c.00189 2.0995 1.70318 3.8077 3.7962 3.8077zm3.1622-1.7158c.2517-.38.4334-.8094.5356-1.2673l8.1223-1.3035c.4352 1.0147 1.3039 1.7861 2.3655 2.1186l-.634 3.1466c-1.2717.0741-2.3712.7657-3.0032 1.7917l-7.3862-4.4861zm18.9394-11.6987c.1817 0 .3558-.0285.5318-.0532l2.3182 6.6312c-.4182.3174-.7626.7183-1.02 1.18l-4.9203-.9348c-.1457-.6765-.475-1.2788-.9273-1.7709l3.289-5.1283c.2385.0494.4788.076.7286.076zM45.4775 41.949c-1.0484 0-1.9018-.857-1.9018-1.9077 0-1.0508.8534-1.9077 1.9018-1.9077 1.0503 0 1.9038.8569 1.9038 1.9077 0 1.0507-.8535 1.9077-1.9038 1.9077zm-3.6334-2.9395l-11.9298-1.159 7.1117-5.4038c.5829.3648 1.2622.5852 1.9984.5852.4523 0 .8837-.0931 1.2868-.2394l2.4791 4.5678c-.4485.4503-.7702 1.0203-.9462 1.6492zm-13.9509-8.0411c1.3474-.2888 2.4166-1.3034 2.8178-2.6126l4.5191.8589v.0076c0 .6688.1873 1.2863.4882 1.8335l-6.7389 5.1207c-.3709-.7847-.9973-1.4155-1.7751-1.7936l.6889-3.4145zm13.0331-1.7461c0 1.0526-.8535 1.9095-1.9038 1.9095-1.0484 0-1.9-.8569-1.9-1.9095 0-1.0527.8516-1.9077 1.9-1.9077 1.0503-.0019 1.9038.855 1.9038 1.9077zm-11.9223-1.978c0 1.0526-.8535 1.9096-1.9019 1.9096s-1.9019-.857-1.9019-1.9096c0-1.0527.8535-1.9077 1.9019-1.9077s1.9019.857 1.9019 1.9077zm-3.4404 12.4645c-1.0484 0-1.9019-.857-1.9019-1.9077 0-1.0526.8535-1.9096 1.9019-1.9096s1.9.857 1.9 1.9096-.8535 1.9077-1.9 1.9077zm4.2258.038l12.0055 1.1666c.3066 1.3035 1.2812 2.3352 2.5396 2.738l-1.1033 4.8072c-.7588.1577-1.4325.5491-1.9529 1.0888l-11.4889-9.8006zm14.2121 14.355c-1.0484 0-1.9019-.8569-1.9019-1.9095 0-1.0546.8535-1.9115 1.9019-1.9115 1.0503 0 1.9037.8569 1.9037 1.9115 0 1.0507-.8534 1.9095-1.9037 1.9095zm2.8083-4.4518c-.4447-.496-1.0143-.8665-1.6634-1.0717l1.1033-4.8072c1.7258-.3572 3.0259-1.8943 3.0259-3.7279 0-.2223-.0302-.4351-.0643-.646l3.8359-2.3466c.299.4503.6946.8265 1.1506 1.1134l-7.388 11.486zm11.2959-14.7085c0 1.0526-.8535 1.9096-1.9019 1.9096-1.0503 0-1.9038-.857-1.9038-1.9096 0-1.0527.8535-1.9096 1.9038-1.9096 1.0484 0 1.9019.8569 1.9019 1.9096zm-5.6962 0c0 .0874.0208.1691.0265.2546l-4.0214 2.4587c-.6964-.8607-1.7467-1.4232-2.9352-1.4232-.3671 0-.7172.0703-1.054.1672l-2.5491-4.6931c.5809-.6689.9424-1.5315.9424-2.4853 0-.6157-.1609-1.1895-.422-1.7063l3.1319-2.7228c.5659.3363 1.2188.5434 1.9228.5434.7626 0 1.4704-.2318 2.0684-.6232l4.2163 7.359c-.8062.7011-1.3266 1.7214-1.3266 2.871zm-4.9581-15.3241c1.0484 0 1.8999.8569 1.8999 1.9096 0 1.0526-.8515 1.9095-1.8999 1.9095-1.0503 0-1.9038-.8569-1.9038-1.9095 0-1.0527.8553-1.9096 1.9038-1.9096zm-3.6316.8645c-.0965.3344-.1647.6803-.1647 1.0451 0 .703.2025 1.3528.5356 1.919l-3.0317 2.6335c-.6093-.418-1.3455-.665-2.1384-.665-.1798 0-.352.0285-.5242.0532l-2.3201-6.6331c.3633-.2774.6756-.6119.9216-1.0014l6.7219 2.6487zm-9.922-6.5837c1.0484 0 1.9019.8569 1.9019 1.9095 0 1.0527-.8535 1.9096-1.9019 1.9096s-1.9019-.8569-1.9019-1.9096c0-1.0526.8535-1.9095 1.9019-1.9095zm-3.2928 3.7621c.2233.3971.511.7467.8554 1.0394l-3.1717 4.9459c-.3747-.1255-.7684-.2091-1.1847-.2091-.4296 0-.8364.0874-1.2225.2204l-1.8584-2.6087c.5261-.6537.8573-1.4764.8573-2.3808 0-.0665-.017-.1292-.0189-.1957l5.7435-.8114zm-9.5227-.9025c1.0484 0 1.9019.8569 1.9019 1.9096 0 1.0526-.8535 1.9095-1.9019 1.9095s-1.9-.8569-1.9-1.9095c0-1.0527.8516-1.9096 1.9-1.9096zm-2.1649 5.0295c.615.4332 1.3587.6897 2.1649.6897.5053 0 .986-.1045 1.425-.2831l1.7902 2.51c-.5279.5871-.8686 1.3338-.9518 2.1642l-7.9312 1.2711c-.1949-.6498-.5469-1.2274-1.0257-1.6815l4.5286-4.6704zm-7.1212 5.5254c1.0484 0 1.9019.8569 1.9019 1.9096 0 1.0526-.8535 1.9076-1.9019 1.9076s-1.90189-.8569-1.90189-1.9076c0-1.0508.85159-1.9096 1.90189-1.9096z"/></svg>