<svg xmlns="http://www.w3.org/2000/svg" width="64" height="61" fill="none" viewBox="0 0 64 61"><rect width="58" height="42" x="3.14526" y="5" fill="#da828d" rx="2"/><path stroke="#da828d" stroke-linejoin="round" stroke-width="2" d="M1 1h62v5H1V1z" fill="#da828d"/><path stroke="#da828d" stroke-width="2" d="M18.1453 46h-.5744l-.2894.4961-7 12L9.40423 60h5.31537l.2894-.4961 7-12L22.8863 46h-4.741zM46.1453 46h.5743l.2894.4961 7 12L54.8863 60H49.5709l-.2894-.4961-7-12L41.4042 46h4.7411z" fill="#da828d"/><path stroke="#b9091b" stroke-width="2" d="M15.6453 29.5l13.5-10 7.5 5.5 11.5-12" fill="#da828d"/><path stroke="#b9091b" stroke-width="2" d="M48.2978 18.0506l.4697-5.6815-5.6223.9433" fill="#da828d"/><path fill="#b9091b" d="M18.1453 32h4v8h-4zM26.1453 26h4v14h-4zM34.1453 29h4v11h-4zM42.1453 23h4v17h-4z"/><path fill="#fff" d="M13 47h39v2H13z"/></svg>