<svg xmlns="http://www.w3.org/2000/svg" width="68" height="52" viewBox="0 0 68 52"><title>icon-roadmap</title><rect width="68" height="52" fill="#dc848d" rx="4"/><path fill="#fff" d="M54 33a6 6 0 1 0 6 6 6 6 0 0 0-6-6zm0 9a3 3 0 1 1 3-3 3 3 0 0 1-3 3z"/><path fill="rgba(185, 9, 27, 1)" d="M54 18a6 6 0 1 0-6-6 5.92 5.92 0 0 0 1.09 3.45l-3.21 3.64a8.55 8.55 0 0 1-9 2.51 11.45 11.45 0 0 0-11.73 2.95L23 26.73v-2.44a1.51 1.51 0 1 0-3 0v6.17a1.53 1.53 0 0 0 0 .3v.25l.06.11a.25.25 0 0 1 0 .07 1.56 1.56 0 0 0 .42.43l.11.06a.6.6 0 0 0 .11.06h.28a1.53 1.53 0 0 0 .3 0h6a1.55 1.55 0 0 0 0-3.09h-2.4l2.14-2.18A8.48 8.48 0 0 1 36 24.55a11.54 11.54 0 0 0 12.14-3.39l3.3-3.74A6 6 0 0 0 54 18z"/><circle cx="54" cy="12" r="3" fill="#fff"/><circle cx="54" cy="39" r="6" fill="rgba(185, 9, 27, 1)"/><path fill="rgba(185, 9, 27, 1)" d="M19.81 40.5a6 6 0 1 1 0-3h18.93l-2-1.94a1.47 1.47 0 0 1 0-2.12 1.56 1.56 0 0 1 2.18 0l4.62 4.5a1.85 1.85 0 0 1 .25.32v.08a1.3 1.3 0 0 1 .13.36 2.48 2.48 0 0 1 0 .38.38.38 0 0 0 0 .1 1.64 1.64 0 0 1-.1.38 1.38 1.38 0 0 1-.2.33l-.07.08a.1.1 0 0 1 0 .05l-4.62 4.5a1.58 1.58 0 0 1-1.09.44 1.56 1.56 0 0 1-1.09-.44 1.47 1.47 0 0 1 0-2.12l2-1.94z"/><circle cx="54" cy="39" r="3" fill="#fff"/><circle cx="14" cy="39" r="3" fill="#fff"/><path fill="rgba(185, 9, 27, 1)" d="M19.81 12.5a6 6 0 1 1 0-3h18.93l-2-1.94a1.47 1.47 0 0 1 0-2.12 1.56 1.56 0 0 1 2.18 0l4.62 4.5a1.85 1.85 0 0 1 .25.32v.08a1.3 1.3 0 0 1 .13.36 2.48 2.48 0 0 1 0 .38.38.38 0 0 0 0 .1 1.64 1.64 0 0 1-.1.38.78.78 0 0 1-.11.2 1 1 0 0 1-.09.13l-.07.08-4.62 4.5a1.58 1.58 0 0 1-1.09.44 1.56 1.56 0 0 1-1.09-.44 1.47 1.47 0 0 1 0-2.12l2-1.94z"/><circle cx="14" cy="11" r="3" fill="#fff"/></svg>
