<?xml version="1.0" encoding="iso-8859-1"?>
<!-- Uploaded to: SVG Repo, www.svgrepo.com, Generator: SVG Repo Mixer Tools -->
<!DOCTYPE svg PUBLIC "-//W3C//DTD SVG 1.1//EN" "http://www.w3.org/Graphics/SVG/1.1/DTD/svg11.dtd">
<svg fill="#000000" version="1.1" id="Capa_1" xmlns="http://www.w3.org/2000/svg" xmlns:xlink="http://www.w3.org/1999/xlink" 
	 width="800px" height="800px" viewBox="0 0 412.332 412.331"
	 xml:space="preserve">
<g>
	<g>
		<path d="M390.948,349.573h-23.033V145.388c13.442-6.108,22.818-19.652,22.818-35.353V10.266C390.733,4.597,386.134,0,380.466,0
			H31.861c-5.67,0-10.266,4.597-10.266,10.266v99.769c0,15.7,9.375,29.243,22.816,35.352v204.187H21.384
			c-5.668,0-10.266,4.596-10.266,10.266v42.226c0,5.67,4.598,10.266,10.266,10.266h369.562c5.668,0,10.266-4.596,10.266-10.266
			V359.84C401.213,354.169,396.616,349.573,390.948,349.573z M333.629,20.532h36.572v89.503c0,10.083-8.201,18.286-18.287,18.286
			c-10.084,0-18.285-8.203-18.285-18.286V20.532z M275.329,20.532h36.572v89.503c0,10.083-8.201,18.286-18.287,18.286
			c-10.084,0-18.285-8.203-18.285-18.286V20.532z M217.028,20.532h36.571v89.503c0,10.083-8.2,18.286-18.284,18.286
			c-10.087,0-18.287-8.203-18.287-18.286V20.532z M158.729,20.532h36.57v89.503c0,10.083-8.201,18.286-18.285,18.286
			c-10.086,0-18.285-8.203-18.285-18.286V20.532L158.729,20.532z M100.429,20.532h36.57v89.503c0,10.083-8.199,18.286-18.285,18.286
			s-18.285-8.203-18.285-18.286V20.532z M42.127,20.532h36.57v89.503c0,10.083-8.199,18.286-18.285,18.286
			c-10.084,0-18.285-8.203-18.285-18.286V20.532z M64.943,148.584c9.769-1.142,18.439-5.917,24.617-12.942
			c7.123,8.096,17.549,13.211,29.152,13.211s22.029-5.115,29.152-13.211c7.117,8.096,17.545,13.211,29.148,13.211
			s22.029-5.115,29.152-13.211c7.117,8.096,17.543,13.211,29.148,13.211c11.604,0,22.028-5.115,29.151-13.211
			c7.117,8.096,17.543,13.211,29.146,13.211c11.604,0,22.03-5.115,29.153-13.211c6.178,7.025,14.849,11.801,24.615,12.942v200.989
			H64.943V148.584z M380.682,391.798H31.65v-21.692h23.027h302.971h23.032L380.682,391.798L380.682,391.798z"/>
		<path d="M317.69,178.632H94.64c-5.67,0-10.266,4.596-10.266,10.266v100.946c0,5.67,4.596,10.266,10.266,10.266h223.051
			c5.67,0,10.266-4.596,10.266-10.266V188.897C327.956,183.227,323.36,178.632,317.69,178.632z M104.904,199.163h33.293v80.415
			h-33.293V199.163z M307.424,279.578H158.729v-80.415h148.695L307.424,279.578L307.424,279.578z"/>
	</g>
</g>
</svg>