<svg width="24" height="24" viewBox="0 0 24 24" fill="none" xmlns="http://www.w3.org/2000/svg">
<path d="M20 11C19.7554 9.24035 18.939 7.60993 17.6766 6.35986C16.4143 5.10979 14.776 4.30941 13.014 4.082C11.4405 3.87724 9.84148 4.13945 8.41577 4.83604C6.99006 5.53263 5.80051 6.63287 4.995 8M4 13C4.23134 14.6651 4.97504 16.217 6.12797 17.4404C7.2809 18.6639 8.78594 19.4983 10.4344 19.828C12.0829 20.1577 13.793 19.9663 15.3279 19.2804C16.8627 18.5945 18.146 17.448 19 16" stroke="#B01921" stroke-width="2" stroke-linecap="round" stroke-linejoin="round"/>
<path d="M18 16C18 16.2652 18.1054 16.5196 18.2929 16.7071C18.4804 16.8946 18.7348 17 19 17C19.2652 17 19.5196 16.8946 19.7071 16.7071C19.8946 16.5196 20 16.2652 20 16C20 15.7348 19.8946 15.4804 19.7071 15.2929C19.5196 15.1054 19.2652 15 19 15C18.7348 15 18.4804 15.1054 18.2929 15.2929C18.1054 15.4804 18 15.7348 18 16ZM4 8C4 8.26522 4.10536 8.51957 4.29289 8.70711C4.48043 8.89464 4.73478 9 5 9C5.26522 9 5.51957 8.89464 5.70711 8.70711C5.89464 8.51957 6 8.26522 6 8C6 7.73478 5.89464 7.48043 5.70711 7.29289C5.51957 7.10536 5.26522 7 5 7C4.73478 7 4.48043 7.10536 4.29289 7.29289C4.10536 7.48043 4 7.73478 4 8ZM9 12C9 12.7956 9.31607 13.5587 9.87868 14.1213C10.4413 14.6839 11.2044 15 12 15C12.7956 15 13.5587 14.6839 14.1213 14.1213C14.6839 13.5587 15 12.7956 15 12C15 11.2044 14.6839 10.4413 14.1213 9.87868C13.5587 9.31607 12.7956 9 12 9C11.2044 9 10.4413 9.31607 9.87868 9.87868C9.31607 10.4413 9 11.2044 9 12Z" stroke="#B01921" stroke-width="2" stroke-linecap="round" stroke-linejoin="round"/>
</svg>
