<svg xmlns="http://www.w3.org/2000/svg" width="87" height="90" fill="none"><path fill="rgba(185, 9, 27, 1)" d="M66.29 40.842l2-5.564c.187-.57.078-1.186-.329-1.612l-4.733-5.232 4.25-5.627c.358-.474.42-1.09.187-1.628l-2.485-5.374a1.58 1.58 0 0 0-1.359-.917l-6.999-.3L55.9 7.57c-.078-.585-.468-1.09-1.015-1.28L49.37 4.267a1.556 1.556 0 0 0-1.594.316l-5.155 4.805-5.578-4.315a1.525 1.525 0 0 0-1.609-.174l-5.311 2.513a1.55 1.55 0 0 0-.891 1.36l-.297 7.096-6.952.933a1.578 1.578 0 0 0-1.265 1.027l-2 5.58a1.567 1.567 0 0 0 .312 1.596l4.75 5.232-4.265 5.627c-.344.474-.422 1.106-.172 1.628l2.484 5.374c.25.537.765.885 1.359.916l6.999.3.922 7.034a1.59 1.59 0 0 0 1.015 1.28l5.515 2.008a1.57 1.57 0 0 0 1.594-.316l5.155-4.805 5.578 4.315a1.522 1.522 0 0 0 1.609.174l5.312-2.513a1.56 1.56 0 0 0 .89-1.36l.297-7.08 6.952-.95c.578-.062 1.063-.473 1.266-1.026z"/><ellipse cx="43.5" cy="29.333" fill="#fff" rx="13.206" ry="13.358"/><path fill="rgba(185, 9, 27, 1)" d="M43.5 25.667c.667 0 1.208.547 1.208 1.222h2.417a3.659 3.659 0 0 0-2.417-3.442V22h-2.416v1.447a3.659 3.659 0 0 0-2.417 3.442c0 .325.127.635.354.864l4.403 4.454A1.214 1.214 0 0 1 43.5 33a1.216 1.216 0 0 1-1.208-1.222h-2.417a3.659 3.659 0 0 0 2.417 3.442v1.447h2.416V35.22a3.659 3.659 0 0 0 2.417-3.442c0-.325-.127-.636-.354-.864l-4.403-4.454a1.214 1.214 0 0 1 1.132-.793z"/><path fill="#dc848d" fill-rule="evenodd" d="M79.75 0H7.25C3.252 0 0 3.29 0 7.333v55c0 4.044 3.252 7.334 7.25 7.334h72.5c3.998 0 7.25-3.29 7.25-7.334v-55C87 3.29 83.748 0 79.75 0zM2.9 7.333c0-2.426 1.952-4.4 4.35-4.4h72.5c2.398 0 4.35 1.974 4.35 4.4v51.334H2.9V7.333z" clip-rule="evenodd"/><path fill="#dc848d" d="M47.125 73.333h-7.25v7.334H27.55c-2.398 0-4.35 1.974-4.35 4.4v1.466c0 .811.648 1.467 1.45 1.467h37.7c.802 0 1.45-.656 1.45-1.467v-1.466c0-2.426-1.952-4.4-4.35-4.4H47.125v-7.334z"/></svg>