<svg width="176" height="176" fill="none" xmlns="http://www.w3.org/2000/svg"><path d="M165.879 53.942a84.998 84.998 0 00-151.314-8.746A85 85 0 10173 88h-16.183M88 156.817V173M88 3v16.183M20.183 88H4" stroke="#dc848d" stroke-width="3"/><path d="M126.5 88c0 21.263-17.237 38.5-38.5 38.5S49.5 109.263 49.5 88 66.737 49.5 88 49.5s38.5 17.237 38.5 38.5zM173.596 27.073l-7.287 27.196-27.196-7.288" stroke="#dc848d" stroke-width="3"/><path d="M88 64.704V90.51l12.142 12.142M39.23 136.598l-11.44 11.441M39.23 39.215L27.79 27.774M148.054 148.039l-11.441-11.441" stroke="#dc848d" stroke-width="3"/></svg>