<svg width="20" height="20" viewBox="0 0 20 20" fill="none" xmlns="http://www.w3.org/2000/svg">
<mask id="mask0_6_49" style="mask-type:luminance" maskUnits="userSpaceOnUse" x="0" y="2" width="20" height="16">
<path d="M18.3333 4.58334C18.3333 4.25182 18.2016 3.93388 17.9672 3.69946C17.7328 3.46504 17.4148 3.33334 17.0833 3.33334H2.91663C2.58511 3.33334 2.26716 3.46504 2.03274 3.69946C1.79832 3.93388 1.66663 4.25182 1.66663 4.58334V8.33334H18.3333V4.58334Z" fill="white" stroke="white" stroke-width="1.66667" stroke-linecap="round" stroke-linejoin="round"/>
<path d="M1.71338 16.2625L6.78671 11.1375L9.52838 13.7625L12.8792 10.8333L14.7459 12.6533" stroke="white" stroke-width="1.66667" stroke-linecap="round" stroke-linejoin="round"/>
<path d="M18.3333 7.5V15.4167C18.3333 15.7482 18.2016 16.0661 17.9672 16.3005C17.7328 16.535 17.4149 16.6667 17.0833 16.6667H5" stroke="white" stroke-width="1.66667" stroke-linecap="round" stroke-linejoin="round"/>
<path d="M7.96332 5.83334H15.4633M4.62915 5.83334H5.46248" stroke="black" stroke-width="1.66667" stroke-linecap="round" stroke-linejoin="round"/>
<path d="M1.66663 7.5V11.25" stroke="white" stroke-width="1.66667" stroke-linecap="round" stroke-linejoin="round"/>
</mask>
<g mask="url(#mask0_6_49)">
<path d="M0 0H20V20H0V0Z" fill="#B01921"/>
</g>
</svg>
