<svg width="20" height="20" viewBox="0 0 20 20" fill="none" xmlns="http://www.w3.org/2000/svg">
<path d="M2.5 3.125C2.5 2.95924 2.56585 2.80027 2.68306 2.68306C2.80027 2.56585 2.95924 2.5 3.125 2.5C3.29076 2.5 3.44973 2.56585 3.56694 2.68306C3.68415 2.80027 3.75 2.95924 3.75 3.125V16.25H16.875C17.0408 16.25 17.1997 16.3158 17.3169 16.4331C17.4342 16.5503 17.5 16.7092 17.5 16.875C17.5 17.0408 17.4342 17.1997 17.3169 17.3169C17.1997 17.4342 17.0408 17.5 16.875 17.5H3.125C2.95924 17.5 2.80027 17.4342 2.68306 17.3169C2.56585 17.1997 2.5 17.0408 2.5 16.875V3.125ZM16.25 5.625C16.25 5.50893 16.2177 5.39515 16.1567 5.29642C16.0956 5.19768 16.0083 5.11789 15.9045 5.06598C15.8007 5.01408 15.6845 4.9921 15.5689 5.00253C15.4533 5.01295 15.3429 5.05536 15.25 5.125L10.5833 8.625L7.4 6.75333C7.31028 6.70051 7.20878 6.67093 7.10473 6.66729C7.00067 6.66365 6.89736 6.68607 6.80417 6.7325L4.58333 7.8425V15.4167H16.25V5.625Z" fill="#B01921"/>
</svg>
