<?xml version="1.0" ?>
<!-- Uploaded to: SVG Repo, www.svgrepo.com, Generator: SVG Repo Mixer Tools -->
<svg fill="#000000" width="800px" height="800px" viewBox="0 0 64 64" xmlns="http://www.w3.org/2000/svg">
<g data-name="29 online shop 2" id="_29_online_shop_2">
<path d="M58.5,3.5H5.5a2,2,0,0,0-2,2v53a2,2,0,0,0,2,2h53a2,2,0,0,0,2-2V5.5A2,2,0,0,0,58.5,3.5Zm0,2v7.167H5.5V5.5Zm-53,53V14.667h53l0,43.833Z"/>
<path d="M15.5,7.046a2.037,2.037,0,1,0,2,2.037,2.018,2.018,0,0,0-2-2.037Z"/>
<path d="M9.5,7.046a2.037,2.037,0,1,0,2,2.037,2.018,2.018,0,0,0-2-2.037Z"/>
<path d="M21.5,7.046a2.037,2.037,0,1,0,2,2.037,2.018,2.018,0,0,0-2-2.037Z"/>
<path d="M43.171,27.1a9.81,9.81,0,0,0-3.411-2.479,8.143,8.143,0,0,0-2.786-.608,4.212,4.212,0,0,0-2.92.614,4.271,4.271,0,0,0-.755.787,3.053,3.053,0,0,1-.354.4,1.3,1.3,0,0,1-1.877.012,3.078,3.078,0,0,1-.367-.415,4.246,4.246,0,0,0-.741-.776,4.214,4.214,0,0,0-2.928-.625,8.149,8.149,0,0,0-2.788.606,9.809,9.809,0,0,0-3.415,2.482l-2.57,2.84a1,1,0,0,0,0,1.342l3.66,4.05a1,1,0,0,0,.741.329h0a1,1,0,0,0,.74-.328L25,33.576v11.43a1,1,0,0,0,1,1H38a1,1,0,0,0,1-1V33.576l1.6,1.762a1,1,0,0,0,.74.328h0a1,1,0,0,0,.741-.329l3.66-4.05a1,1,0,0,0,0-1.342Zm-1.833,6.073-2.6-2.863a1,1,0,0,0-1.74.672v13.02H27V30.986a1,1,0,0,0-1.74-.672l-2.6,2.863-2.313-2.561,1.963-2.168a7.78,7.78,0,0,1,2.708-1.981,6.146,6.146,0,0,1,2.114-.452,2.658,2.658,0,0,1,1.6.206,2.689,2.689,0,0,1,.405.444,5.022,5.022,0,0,0,.628.686,3.293,3.293,0,0,0,4.482-.012,5.015,5.015,0,0,0,.614-.674,2.708,2.708,0,0,1,.418-.455,2.721,2.721,0,0,1,1.592-.2,6.139,6.139,0,0,1,2.112.454,7.78,7.78,0,0,1,2.7,1.978l1.963,2.169Z"/>
<path d="M55.4,9.083l.813-.827a1,1,0,0,0-1.428-1.4l-.786.8-.786-.8a1,1,0,0,0-1.428,1.4l.813.827-.813.828a1,1,0,0,0,1.428,1.4l.786-.8.786.8a1,1,0,0,0,1.428-1.4Z"/>
<path d="M44.5,10.083h4a1,1,0,0,0,0-2h-4a1,1,0,0,0,0,2Z"/>
<path d="M10.519,33.9l5.13-4.387a1,1,0,0,0-1.3-1.52l-6,5.13a1,1,0,0,0-.018,1.505l6,5.37a1,1,0,0,0,1.334-1.49Z"/>
<path d="M49.649,27.99a1,1,0,0,0-1.3,1.52l5.13,4.387-5.148,4.608a1,1,0,1,0,1.334,1.49l6-5.37a1,1,0,0,0-.018-1.505Z"/>
</g>
</svg>