<svg width="500" height="373" viewBox="0 0 500 373" fill="none" xmlns="http://www.w3.org/2000/svg">
<g clip-path="url(#clip0_163_365)">
<path d="M500 327.598H0V327.848H500V327.598Z" fill="#EBEBEB"/>
<path d="M449.9 343.688H416.78V343.938H449.9V343.688Z" fill="#EBEBEB"/>
<path d="M331.22 346.407H322.53V346.657H331.22V346.407Z" fill="#EBEBEB"/>
<path d="M415.78 334.407H396.59V334.657H415.78V334.407Z" fill="#EBEBEB"/>
<path d="M95.65 336.087H52.46V336.337H95.65V336.087Z" fill="#EBEBEB"/>
<path d="M110.89 336.087H104.56V336.337H110.89V336.087Z" fill="#EBEBEB"/>
<path d="M225.15 340.308H131.47V340.558H225.15V340.308Z" fill="#EBEBEB"/>
<path d="M237.01 282.997H43.91C40.76 282.997 38.2 280.437 38.2 277.287V5.85746C38.2 2.70746 40.76 0.147461 43.91 0.147461H237.01C240.16 0.147461 242.72 2.70746 242.72 5.85746V277.287C242.72 280.437 240.16 282.997 237.01 282.997ZM43.91 0.397461C40.9 0.397461 38.45 2.84746 38.45 5.85746V277.287C38.45 280.297 40.9 282.747 43.91 282.747H237.01C240.02 282.747 242.47 280.297 242.47 277.287V5.85746C242.47 2.84746 240.02 0.397461 237.01 0.397461H43.91Z" fill="#EBEBEB"/>
<path d="M453.31 282.997H260.21C257.06 282.997 254.5 280.437 254.5 277.287V5.85746C254.5 2.70746 257.06 0.147461 260.21 0.147461H453.31C456.46 0.147461 459.02 2.70746 459.02 5.85746V277.287C459.02 280.437 456.46 282.997 453.31 282.997ZM260.21 0.397461C257.2 0.397461 254.75 2.84746 254.75 5.85746V277.287C254.75 280.297 257.2 282.747 260.21 282.747H453.31C456.32 282.747 458.77 280.297 458.77 277.287V5.85746C458.77 2.84746 456.32 0.397461 453.31 0.397461H260.21Z" fill="#EBEBEB"/>
<path d="M445.42 62.3677H203.14V295.908H445.42V62.3677Z" fill="#E0E0E0"/>
<path d="M445.42 66.6079H207.03V291.828H445.42V66.6079Z" fill="#F5F5F5"/>
<path d="M208.79 237.288V169.548H215.82V160.598L231.66 153.188V144.038H234.3V169.548H236.94V237.288H240.46V202.098H248.38V183.628H251.02V237.288H257.17V217.058H261.57V211.778H271.25V193.298H276.53V180.988H282.69V162.508H285.33V180.988H291.49V193.298H296.76V211.778H306.44V217.058H310.84V237.288H316.12V211.778H325.8V155.468H328.44V149.308H349.55V155.468H353.95V195.938H371.55V200.338H377.7V202.978H371.55V218.818H390.02V166.028H393.54V155.468H402.34V114.998H404.98V155.468H411.14V166.028H445.42V291.838H207.03V237.288H208.79Z" fill="#E6E6E6"/>
<path d="M427.1 168.788H424.61V171.278H427.1V168.788Z" fill="#F0F0F0"/>
<path d="M427.1 172.967H424.61V175.457H427.1V172.967Z" fill="#F0F0F0"/>
<path d="M427.1 189.678H424.61V192.168H427.1V189.678Z" fill="#F0F0F0"/>
<path d="M427.1 193.857H424.61V196.347H427.1V193.857Z" fill="#F0F0F0"/>
<path d="M427.1 198.038H424.61V200.528H427.1V198.038Z" fill="#F0F0F0"/>
<path d="M427.1 210.578H424.61V213.068H427.1V210.578Z" fill="#F0F0F0"/>
<path d="M427.1 214.757H424.61V217.247H427.1V214.757Z" fill="#F0F0F0"/>
<path d="M423.14 185.498H420.65V187.988H423.14V185.498Z" fill="#F0F0F0"/>
<path d="M423.14 189.678H420.65V192.168H423.14V189.678Z" fill="#F0F0F0"/>
<path d="M423.14 193.857H420.65V196.347H423.14V193.857Z" fill="#F0F0F0"/>
<path d="M423.14 198.038H420.65V200.528H423.14V198.038Z" fill="#F0F0F0"/>
<path d="M423.14 202.217H420.65V204.707H423.14V202.217Z" fill="#F0F0F0"/>
<path d="M423.14 210.578H420.65V213.068H423.14V210.578Z" fill="#F0F0F0"/>
<path d="M423.14 214.757H420.65V217.247H423.14V214.757Z" fill="#F0F0F0"/>
<path d="M419.18 168.788H416.69V171.278H419.18V168.788Z" fill="#F0F0F0"/>
<path d="M419.18 172.967H416.69V175.457H419.18V172.967Z" fill="#F0F0F0"/>
<path d="M419.18 177.147H416.69V179.637H419.18V177.147Z" fill="#F0F0F0"/>
<path d="M419.18 181.328H416.69V183.818H419.18V181.328Z" fill="#F0F0F0"/>
<path d="M419.18 185.498H416.69V187.988H419.18V185.498Z" fill="#F0F0F0"/>
<path d="M419.18 189.678H416.69V192.168H419.18V189.678Z" fill="#F0F0F0"/>
<path d="M419.18 193.857H416.69V196.347H419.18V193.857Z" fill="#F0F0F0"/>
<path d="M419.18 198.038H416.69V200.528H419.18V198.038Z" fill="#F0F0F0"/>
<path d="M419.18 202.217H416.69V204.707H419.18V202.217Z" fill="#F0F0F0"/>
<path d="M419.18 206.397H416.69V208.887H419.18V206.397Z" fill="#F0F0F0"/>
<path d="M419.18 214.757H416.69V217.247H419.18V214.757Z" fill="#F0F0F0"/>
<path d="M415.22 168.788H412.73V171.278H415.22V168.788Z" fill="#F0F0F0"/>
<path d="M415.22 172.967H412.73V175.457H415.22V172.967Z" fill="#F0F0F0"/>
<path d="M415.22 177.147H412.73V179.637H415.22V177.147Z" fill="#F0F0F0"/>
<path d="M415.22 181.328H412.73V183.818H415.22V181.328Z" fill="#F0F0F0"/>
<path d="M415.22 185.498H412.73V187.988H415.22V185.498Z" fill="#F0F0F0"/>
<path d="M415.22 189.678H412.73V192.168H415.22V189.678Z" fill="#F0F0F0"/>
<path d="M415.22 193.857H412.73V196.347H415.22V193.857Z" fill="#F0F0F0"/>
<path d="M415.22 231.467H412.73V233.957H415.22V231.467Z" fill="#F0F0F0"/>
<path d="M411.26 168.788H408.77V171.278H411.26V168.788Z" fill="#F0F0F0"/>
<path d="M411.26 172.967H408.77V175.457H411.26V172.967Z" fill="#F0F0F0"/>
<path d="M411.26 177.147H408.77V179.637H411.26V177.147Z" fill="#F0F0F0"/>
<path d="M411.26 181.328H408.77V183.818H411.26V181.328Z" fill="#F0F0F0"/>
<path d="M411.26 185.498H408.77V187.988H411.26V185.498Z" fill="#F0F0F0"/>
<path d="M411.26 189.678H408.77V192.168H411.26V189.678Z" fill="#F0F0F0"/>
<path d="M411.26 193.857H408.77V196.347H411.26V193.857Z" fill="#F0F0F0"/>
<path d="M411.26 198.038H408.77V200.528H411.26V198.038Z" fill="#F0F0F0"/>
<path d="M411.26 223.118H408.77V225.608H411.26V223.118Z" fill="#F0F0F0"/>
<path d="M411.26 227.288H408.77V229.778H411.26V227.288Z" fill="#F0F0F0"/>
<path d="M411.26 231.467H408.77V233.957H411.26V231.467Z" fill="#F0F0F0"/>
<path d="M411.26 235.647H408.77V238.137H411.26V235.647Z" fill="#F0F0F0"/>
<path d="M411.26 252.368H408.77V254.858H411.26V252.368Z" fill="#F0F0F0"/>
<path d="M407.3 168.788H404.81V171.278H407.3V168.788Z" fill="#F0F0F0"/>
<path d="M407.3 172.967H404.81V175.457H407.3V172.967Z" fill="#F0F0F0"/>
<path d="M407.3 177.147H404.81V179.637H407.3V177.147Z" fill="#F0F0F0"/>
<path d="M407.3 181.328H404.81V183.818H407.3V181.328Z" fill="#F0F0F0"/>
<path d="M407.3 185.498H404.81V187.988H407.3V185.498Z" fill="#F0F0F0"/>
<path d="M407.3 189.678H404.81V192.168H407.3V189.678Z" fill="#F0F0F0"/>
<path d="M407.3 193.857H404.81V196.347H407.3V193.857Z" fill="#F0F0F0"/>
<path d="M407.3 198.038H404.81V200.528H407.3V198.038Z" fill="#F0F0F0"/>
<path d="M407.3 202.217H404.81V204.707H407.3V202.217Z" fill="#F0F0F0"/>
<path d="M407.3 206.397H404.81V208.887H407.3V206.397Z" fill="#F0F0F0"/>
<path d="M407.3 218.938H404.81V221.428H407.3V218.938Z" fill="#F0F0F0"/>
<path d="M407.3 223.118H404.81V225.608H407.3V223.118Z" fill="#F0F0F0"/>
<path d="M407.3 227.288H404.81V229.778H407.3V227.288Z" fill="#F0F0F0"/>
<path d="M407.3 231.467H404.81V233.957H407.3V231.467Z" fill="#F0F0F0"/>
<path d="M407.3 235.647H404.81V238.137H407.3V235.647Z" fill="#F0F0F0"/>
<path d="M407.3 252.368H404.81V254.858H407.3V252.368Z" fill="#F0F0F0"/>
<path d="M403.34 168.788H400.85V171.278H403.34V168.788Z" fill="#F0F0F0"/>
<path d="M403.34 172.967H400.85V175.457H403.34V172.967Z" fill="#F0F0F0"/>
<path d="M403.34 177.147H400.85V179.637H403.34V177.147Z" fill="#F0F0F0"/>
<path d="M403.34 181.328H400.85V183.818H403.34V181.328Z" fill="#F0F0F0"/>
<path d="M403.34 185.498H400.85V187.988H403.34V185.498Z" fill="#F0F0F0"/>
<path d="M403.34 189.678H400.85V192.168H403.34V189.678Z" fill="#F0F0F0"/>
<path d="M403.34 193.857H400.85V196.347H403.34V193.857Z" fill="#F0F0F0"/>
<path d="M403.34 198.038H400.85V200.528H403.34V198.038Z" fill="#F0F0F0"/>
<path d="M403.34 202.217H400.85V204.707H403.34V202.217Z" fill="#F0F0F0"/>
<path d="M403.34 206.397H400.85V208.887H403.34V206.397Z" fill="#F0F0F0"/>
<path d="M403.34 210.578H400.85V213.068H403.34V210.578Z" fill="#F0F0F0"/>
<path d="M403.34 214.757H400.85V217.247H403.34V214.757Z" fill="#F0F0F0"/>
<path d="M403.34 218.938H400.85V221.428H403.34V218.938Z" fill="#F0F0F0"/>
<path d="M403.34 223.118H400.85V225.608H403.34V223.118Z" fill="#F0F0F0"/>
<path d="M403.34 227.288H400.85V229.778H403.34V227.288Z" fill="#F0F0F0"/>
<path d="M403.34 231.467H400.85V233.957H403.34V231.467Z" fill="#F0F0F0"/>
<path d="M403.34 235.647H400.85V238.137H403.34V235.647Z" fill="#F0F0F0"/>
<path d="M403.34 239.828H400.85V242.318H403.34V239.828Z" fill="#F0F0F0"/>
<path d="M399.38 168.788H396.89V171.278H399.38V168.788Z" fill="#F0F0F0"/>
<path d="M399.38 172.967H396.89V175.457H399.38V172.967Z" fill="#F0F0F0"/>
<path d="M399.38 177.147H396.89V179.637H399.38V177.147Z" fill="#F0F0F0"/>
<path d="M399.38 181.328H396.89V183.818H399.38V181.328Z" fill="#F0F0F0"/>
<path d="M399.38 185.498H396.89V187.988H399.38V185.498Z" fill="#F0F0F0"/>
<path d="M399.38 189.678H396.89V192.168H399.38V189.678Z" fill="#F0F0F0"/>
<path d="M399.38 193.857H396.89V196.347H399.38V193.857Z" fill="#F0F0F0"/>
<path d="M399.38 198.038H396.89V200.528H399.38V198.038Z" fill="#F0F0F0"/>
<path d="M399.38 202.217H396.89V204.707H399.38V202.217Z" fill="#F0F0F0"/>
<path d="M399.38 206.397H396.89V208.887H399.38V206.397Z" fill="#F0F0F0"/>
<path d="M399.38 218.938H396.89V221.428H399.38V218.938Z" fill="#F0F0F0"/>
<path d="M399.38 223.118H396.89V225.608H399.38V223.118Z" fill="#F0F0F0"/>
<path d="M399.38 227.288H396.89V229.778H399.38V227.288Z" fill="#F0F0F0"/>
<path d="M399.38 231.467H396.89V233.957H399.38V231.467Z" fill="#F0F0F0"/>
<path d="M395.43 168.788H392.94V171.278H395.43V168.788Z" fill="#F0F0F0"/>
<path d="M395.43 172.967H392.94V175.457H395.43V172.967Z" fill="#F0F0F0"/>
<path d="M395.43 177.147H392.94V179.637H395.43V177.147Z" fill="#F0F0F0"/>
<path d="M395.43 181.328H392.94V183.818H395.43V181.328Z" fill="#F0F0F0"/>
<path d="M395.43 185.498H392.94V187.988H395.43V185.498Z" fill="#F0F0F0"/>
<path d="M395.43 189.678H392.94V192.168H395.43V189.678Z" fill="#F0F0F0"/>
<path d="M395.43 193.857H392.94V196.347H395.43V193.857Z" fill="#F0F0F0"/>
<path d="M395.43 198.038H392.94V200.528H395.43V198.038Z" fill="#F0F0F0"/>
<path d="M395.43 202.217H392.94V204.707H395.43V202.217Z" fill="#F0F0F0"/>
<path d="M395.43 206.397H392.94V208.887H395.43V206.397Z" fill="#F0F0F0"/>
<path d="M395.43 218.938H392.94V221.428H395.43V218.938Z" fill="#F0F0F0"/>
<path d="M395.43 223.118H392.94V225.608H395.43V223.118Z" fill="#F0F0F0"/>
<path d="M395.43 227.288H392.94V229.778H395.43V227.288Z" fill="#F0F0F0"/>
<path d="M350.85 157.938H348.36V160.428H350.85V157.938Z" fill="#F0F0F0"/>
<path d="M350.85 162.118H348.36V164.608H350.85V162.118Z" fill="#F0F0F0"/>
<path d="M350.85 166.297H348.36V168.787H350.85V166.297Z" fill="#F0F0F0"/>
<path d="M350.85 170.467H348.36V172.957H350.85V170.467Z" fill="#F0F0F0"/>
<path d="M350.85 174.647H348.36V177.137H350.85V174.647Z" fill="#F0F0F0"/>
<path d="M350.85 178.828H348.36V181.318H350.85V178.828Z" fill="#F0F0F0"/>
<path d="M350.85 183.007H348.36V185.497H350.85V183.007Z" fill="#F0F0F0"/>
<path d="M350.85 187.188H348.36V189.678H350.85V187.188Z" fill="#F0F0F0"/>
<path d="M350.85 199.728H348.36V202.218H350.85V199.728Z" fill="#F0F0F0"/>
<path d="M350.85 203.908H348.36V206.398H350.85V203.908Z" fill="#F0F0F0"/>
<path d="M346.89 157.938H344.4V160.428H346.89V157.938Z" fill="#F0F0F0"/>
<path d="M346.89 162.118H344.4V164.608H346.89V162.118Z" fill="#F0F0F0"/>
<path d="M346.89 166.297H344.4V168.787H346.89V166.297Z" fill="#F0F0F0"/>
<path d="M346.89 170.467H344.4V172.957H346.89V170.467Z" fill="#F0F0F0"/>
<path d="M346.89 174.647H344.4V177.137H346.89V174.647Z" fill="#F0F0F0"/>
<path d="M346.89 178.828H344.4V181.318H346.89V178.828Z" fill="#F0F0F0"/>
<path d="M346.89 183.007H344.4V185.497H346.89V183.007Z" fill="#F0F0F0"/>
<path d="M346.89 187.188H344.4V189.678H346.89V187.188Z" fill="#F0F0F0"/>
<path d="M346.89 203.908H344.4V206.398H346.89V203.908Z" fill="#F0F0F0"/>
<path d="M342.93 157.938H340.44V160.428H342.93V157.938Z" fill="#F0F0F0"/>
<path d="M342.93 162.118H340.44V164.608H342.93V162.118Z" fill="#F0F0F0"/>
<path d="M342.93 166.297H340.44V168.787H342.93V166.297Z" fill="#F0F0F0"/>
<path d="M342.93 170.467H340.44V172.957H342.93V170.467Z" fill="#F0F0F0"/>
<path d="M342.93 174.647H340.44V177.137H342.93V174.647Z" fill="#F0F0F0"/>
<path d="M342.93 178.828H340.44V181.318H342.93V178.828Z" fill="#F0F0F0"/>
<path d="M342.93 183.007H340.44V185.497H342.93V183.007Z" fill="#F0F0F0"/>
<path d="M342.93 187.188H340.44V189.678H342.93V187.188Z" fill="#F0F0F0"/>
<path d="M338.97 157.938H336.48V160.428H338.97V157.938Z" fill="#F0F0F0"/>
<path d="M338.97 162.118H336.48V164.608H338.97V162.118Z" fill="#F0F0F0"/>
<path d="M338.97 166.297H336.48V168.787H338.97V166.297Z" fill="#F0F0F0"/>
<path d="M338.97 170.467H336.48V172.957H338.97V170.467Z" fill="#F0F0F0"/>
<path d="M338.97 174.647H336.48V177.137H338.97V174.647Z" fill="#F0F0F0"/>
<path d="M338.97 178.828H336.48V181.318H338.97V178.828Z" fill="#F0F0F0"/>
<path d="M338.97 187.188H336.48V189.678H338.97V187.188Z" fill="#F0F0F0"/>
<path d="M338.97 191.368H336.48V193.858H338.97V191.368Z" fill="#F0F0F0"/>
<path d="M338.97 203.908H336.48V206.398H338.97V203.908Z" fill="#F0F0F0"/>
<path d="M338.97 208.087H336.48V210.577H338.97V208.087Z" fill="#F0F0F0"/>
<path d="M338.97 212.257H336.48V214.747H338.97V212.257Z" fill="#F0F0F0"/>
<path d="M338.97 216.438H336.48V218.928H338.97V216.438Z" fill="#F0F0F0"/>
<path d="M338.97 220.618H336.48V223.108H338.97V220.618Z" fill="#F0F0F0"/>
<path d="M338.97 224.797H336.48V227.287H338.97V224.797Z" fill="#F0F0F0"/>
<path d="M338.97 228.978H336.48V231.468H338.97V228.978Z" fill="#F0F0F0"/>
<path d="M335.01 157.938H332.52V160.428H335.01V157.938Z" fill="#F0F0F0"/>
<path d="M335.01 162.118H332.52V164.608H335.01V162.118Z" fill="#F0F0F0"/>
<path d="M335.01 166.297H332.52V168.787H335.01V166.297Z" fill="#F0F0F0"/>
<path d="M335.01 170.467H332.52V172.957H335.01V170.467Z" fill="#F0F0F0"/>
<path d="M335.01 174.647H332.52V177.137H335.01V174.647Z" fill="#F0F0F0"/>
<path d="M335.01 178.828H332.52V181.318H335.01V178.828Z" fill="#F0F0F0"/>
<path d="M335.01 191.368H332.52V193.858H335.01V191.368Z" fill="#F0F0F0"/>
<path d="M335.01 195.547H332.52V198.037H335.01V195.547Z" fill="#F0F0F0"/>
<path d="M335.01 199.728H332.52V202.218H335.01V199.728Z" fill="#F0F0F0"/>
<path d="M335.01 203.908H332.52V206.398H335.01V203.908Z" fill="#F0F0F0"/>
<path d="M335.01 208.087H332.52V210.577H335.01V208.087Z" fill="#F0F0F0"/>
<path d="M335.01 212.257H332.52V214.747H335.01V212.257Z" fill="#F0F0F0"/>
<path d="M335.01 216.438H332.52V218.928H335.01V216.438Z" fill="#F0F0F0"/>
<path d="M335.01 220.618H332.52V223.108H335.01V220.618Z" fill="#F0F0F0"/>
<path d="M335.01 224.797H332.52V227.287H335.01V224.797Z" fill="#F0F0F0"/>
<path d="M335.01 228.978H332.52V231.468H335.01V228.978Z" fill="#F0F0F0"/>
<path d="M335.01 233.158H332.52V235.648H335.01V233.158Z" fill="#F0F0F0"/>
<path d="M335.01 241.518H332.52V244.008H335.01V241.518Z" fill="#F0F0F0"/>
<path d="M331.05 157.938H328.56V160.428H331.05V157.938Z" fill="#F0F0F0"/>
<path d="M331.05 162.118H328.56V164.608H331.05V162.118Z" fill="#F0F0F0"/>
<path d="M331.05 166.297H328.56V168.787H331.05V166.297Z" fill="#F0F0F0"/>
<path d="M331.05 170.467H328.56V172.957H331.05V170.467Z" fill="#F0F0F0"/>
<path d="M331.05 174.647H328.56V177.137H331.05V174.647Z" fill="#F0F0F0"/>
<path d="M331.05 178.828H328.56V181.318H331.05V178.828Z" fill="#F0F0F0"/>
<path d="M331.05 191.368H328.56V193.858H331.05V191.368Z" fill="#F0F0F0"/>
<path d="M331.05 195.547H328.56V198.037H331.05V195.547Z" fill="#F0F0F0"/>
<path d="M331.05 199.728H328.56V202.218H331.05V199.728Z" fill="#F0F0F0"/>
<path d="M331.05 203.908H328.56V206.398H331.05V203.908Z" fill="#F0F0F0"/>
<path d="M331.05 216.438H328.56V218.928H331.05V216.438Z" fill="#F0F0F0"/>
<path d="M331.05 220.618H328.56V223.108H331.05V220.618Z" fill="#F0F0F0"/>
<path d="M331.05 224.797H328.56V227.287H331.05V224.797Z" fill="#F0F0F0"/>
<path d="M331.05 228.978H328.56V231.468H331.05V228.978Z" fill="#F0F0F0"/>
<path d="M331.05 233.158H328.56V235.648H331.05V233.158Z" fill="#F0F0F0"/>
<path d="M331.05 241.518H328.56V244.008H331.05V241.518Z" fill="#F0F0F0"/>
<path d="M331.05 245.697H328.56V248.187H331.05V245.697Z" fill="#F0F0F0"/>
<path d="M295.13 196.788H292.64V199.278H295.13V196.788Z" fill="#F0F0F0"/>
<path d="M295.13 200.967H292.64V203.457H295.13V200.967Z" fill="#F0F0F0"/>
<path d="M295.13 205.147H292.64V207.637H295.13V205.147Z" fill="#F0F0F0"/>
<path d="M295.13 209.328H292.64V211.818H295.13V209.328Z" fill="#F0F0F0"/>
<path d="M295.13 213.507H292.64V215.997H295.13V213.507Z" fill="#F0F0F0"/>
<path d="M295.13 217.688H292.64V220.178H295.13V217.688Z" fill="#F0F0F0"/>
<path d="M295.13 221.868H292.64V224.358H295.13V221.868Z" fill="#F0F0F0"/>
<path d="M295.13 234.408H292.64V236.898H295.13V234.408Z" fill="#F0F0F0"/>
<path d="M295.13 238.578H292.64V241.068H295.13V238.578Z" fill="#F0F0F0"/>
<path d="M295.13 242.757H292.64V245.247H295.13V242.757Z" fill="#F0F0F0"/>
<path d="M291.17 196.788H288.68V199.278H291.17V196.788Z" fill="#F0F0F0"/>
<path d="M291.17 200.967H288.68V203.457H291.17V200.967Z" fill="#F0F0F0"/>
<path d="M291.17 205.147H288.68V207.637H291.17V205.147Z" fill="#F0F0F0"/>
<path d="M291.17 209.328H288.68V211.818H291.17V209.328Z" fill="#F0F0F0"/>
<path d="M291.17 213.507H288.68V215.997H291.17V213.507Z" fill="#F0F0F0"/>
<path d="M291.17 217.688H288.68V220.178H291.17V217.688Z" fill="#F0F0F0"/>
<path d="M291.17 221.868H288.68V224.358H291.17V221.868Z" fill="#F0F0F0"/>
<path d="M287.21 196.788H284.72V199.278H287.21V196.788Z" fill="#F0F0F0"/>
<path d="M287.21 200.967H284.72V203.457H287.21V200.967Z" fill="#F0F0F0"/>
<path d="M287.21 205.147H284.72V207.637H287.21V205.147Z" fill="#F0F0F0"/>
<path d="M287.21 209.328H284.72V211.818H287.21V209.328Z" fill="#F0F0F0"/>
<path d="M287.21 213.507H284.72V215.997H287.21V213.507Z" fill="#F0F0F0"/>
<path d="M287.21 217.688H284.72V220.178H287.21V217.688Z" fill="#F0F0F0"/>
<path d="M287.21 221.868H284.72V224.358H287.21V221.868Z" fill="#F0F0F0"/>
<path d="M283.25 196.788H280.76V199.278H283.25V196.788Z" fill="#F0F0F0"/>
<path d="M283.25 200.967H280.76V203.457H283.25V200.967Z" fill="#F0F0F0"/>
<path d="M283.25 205.147H280.76V207.637H283.25V205.147Z" fill="#F0F0F0"/>
<path d="M283.25 209.328H280.76V211.818H283.25V209.328Z" fill="#F0F0F0"/>
<path d="M283.25 213.507H280.76V215.997H283.25V213.507Z" fill="#F0F0F0"/>
<path d="M283.25 217.688H280.76V220.178H283.25V217.688Z" fill="#F0F0F0"/>
<path d="M283.25 221.868H280.76V224.358H283.25V221.868Z" fill="#F0F0F0"/>
<path d="M283.25 226.047H280.76V228.537H283.25V226.047Z" fill="#F0F0F0"/>
<path d="M283.25 230.228H280.76V232.718H283.25V230.228Z" fill="#F0F0F0"/>
<path d="M283.25 234.408H280.76V236.898H283.25V234.408Z" fill="#F0F0F0"/>
<path d="M283.25 238.578H280.76V241.068H283.25V238.578Z" fill="#F0F0F0"/>
<path d="M279.29 196.788H276.8V199.278H279.29V196.788Z" fill="#F0F0F0"/>
<path d="M279.29 200.967H276.8V203.457H279.29V200.967Z" fill="#F0F0F0"/>
<path d="M279.29 205.147H276.8V207.637H279.29V205.147Z" fill="#F0F0F0"/>
<path d="M279.29 209.328H276.8V211.818H279.29V209.328Z" fill="#F0F0F0"/>
<path d="M279.29 213.507H276.8V215.997H279.29V213.507Z" fill="#F0F0F0"/>
<path d="M279.29 217.688H276.8V220.178H279.29V217.688Z" fill="#F0F0F0"/>
<path d="M279.29 221.868H276.8V224.358H279.29V221.868Z" fill="#F0F0F0"/>
<path d="M279.29 226.047H276.8V228.537H279.29V226.047Z" fill="#F0F0F0"/>
<path d="M279.29 230.228H276.8V232.718H279.29V230.228Z" fill="#F0F0F0"/>
<path d="M279.29 234.408H276.8V236.898H279.29V234.408Z" fill="#F0F0F0"/>
<path d="M279.29 238.578H276.8V241.068H279.29V238.578Z" fill="#F0F0F0"/>
<path d="M279.29 242.757H276.8V245.247H279.29V242.757Z" fill="#F0F0F0"/>
<path d="M279.29 255.297H276.8V257.787H279.29V255.297Z" fill="#F0F0F0"/>
<path d="M279.29 259.478H276.8V261.968H279.29V259.478Z" fill="#F0F0F0"/>
<path d="M275.33 196.788H272.84V199.278H275.33V196.788Z" fill="#F0F0F0"/>
<path d="M275.33 200.967H272.84V203.457H275.33V200.967Z" fill="#F0F0F0"/>
<path d="M275.33 205.147H272.84V207.637H275.33V205.147Z" fill="#F0F0F0"/>
<path d="M275.33 217.688H272.84V220.178H275.33V217.688Z" fill="#F0F0F0"/>
<path d="M275.33 221.868H272.84V224.358H275.33V221.868Z" fill="#F0F0F0"/>
<path d="M275.33 226.047H272.84V228.537H275.33V226.047Z" fill="#F0F0F0"/>
<path d="M275.33 230.228H272.84V232.718H275.33V230.228Z" fill="#F0F0F0"/>
<path d="M275.33 234.408H272.84V236.898H275.33V234.408Z" fill="#F0F0F0"/>
<path d="M275.33 238.578H272.84V241.068H275.33V238.578Z" fill="#F0F0F0"/>
<path d="M275.33 242.757H272.84V245.247H275.33V242.757Z" fill="#F0F0F0"/>
<path d="M275.33 255.297H272.84V257.787H275.33V255.297Z" fill="#F0F0F0"/>
<path d="M275.33 259.478H272.84V261.968H275.33V259.478Z" fill="#F0F0F0"/>
<path d="M275.33 263.658H272.84V266.148H275.33V263.658Z" fill="#F0F0F0"/>
<path d="M233.84 171.717H231.35V174.207H233.84V171.717Z" fill="#F0F0F0"/>
<path d="M233.84 175.897H231.35V178.387H233.84V175.897Z" fill="#F0F0F0"/>
<path d="M233.84 180.078H231.35V182.568H233.84V180.078Z" fill="#F0F0F0"/>
<path d="M233.84 184.257H231.35V186.747H233.84V184.257Z" fill="#F0F0F0"/>
<path d="M233.84 188.438H231.35V190.928H233.84V188.438Z" fill="#F0F0F0"/>
<path d="M233.84 192.618H231.35V195.108H233.84V192.618Z" fill="#F0F0F0"/>
<path d="M233.84 196.788H231.35V199.278H233.84V196.788Z" fill="#F0F0F0"/>
<path d="M233.84 200.967H231.35V203.457H233.84V200.967Z" fill="#F0F0F0"/>
<path d="M233.84 205.147H231.35V207.637H233.84V205.147Z" fill="#F0F0F0"/>
<path d="M233.84 209.328H231.35V211.818H233.84V209.328Z" fill="#F0F0F0"/>
<path d="M233.84 213.507H231.35V215.997H233.84V213.507Z" fill="#F0F0F0"/>
<path d="M233.84 217.688H231.35V220.178H233.84V217.688Z" fill="#F0F0F0"/>
<path d="M233.84 221.868H231.35V224.358H233.84V221.868Z" fill="#F0F0F0"/>
<path d="M233.84 226.047H231.35V228.537H233.84V226.047Z" fill="#F0F0F0"/>
<path d="M233.84 230.228H231.35V232.718H233.84V230.228Z" fill="#F0F0F0"/>
<path d="M233.84 234.408H231.35V236.898H233.84V234.408Z" fill="#F0F0F0"/>
<path d="M233.84 238.578H231.35V241.068H233.84V238.578Z" fill="#F0F0F0"/>
<path d="M233.84 242.757H231.35V245.247H233.84V242.757Z" fill="#F0F0F0"/>
<path d="M233.84 246.938H231.35V249.428H233.84V246.938Z" fill="#F0F0F0"/>
<path d="M233.84 251.118H231.35V253.608H233.84V251.118Z" fill="#F0F0F0"/>
<path d="M233.84 255.297H231.35V257.787H233.84V255.297Z" fill="#F0F0F0"/>
<path d="M233.84 259.478H231.35V261.968H233.84V259.478Z" fill="#F0F0F0"/>
<path d="M233.84 263.658H231.35V266.148H233.84V263.658Z" fill="#F0F0F0"/>
<path d="M229.88 171.717H227.39V174.207H229.88V171.717Z" fill="#F0F0F0"/>
<path d="M229.88 175.897H227.39V178.387H229.88V175.897Z" fill="#F0F0F0"/>
<path d="M229.88 180.078H227.39V182.568H229.88V180.078Z" fill="#F0F0F0"/>
<path d="M229.88 184.257H227.39V186.747H229.88V184.257Z" fill="#F0F0F0"/>
<path d="M229.88 188.438H227.39V190.928H229.88V188.438Z" fill="#F0F0F0"/>
<path d="M229.88 192.618H227.39V195.108H229.88V192.618Z" fill="#F0F0F0"/>
<path d="M229.88 196.788H227.39V199.278H229.88V196.788Z" fill="#F0F0F0"/>
<path d="M229.88 200.967H227.39V203.457H229.88V200.967Z" fill="#F0F0F0"/>
<path d="M229.88 205.147H227.39V207.637H229.88V205.147Z" fill="#F0F0F0"/>
<path d="M229.88 209.328H227.39V211.818H229.88V209.328Z" fill="#F0F0F0"/>
<path d="M229.88 213.507H227.39V215.997H229.88V213.507Z" fill="#F0F0F0"/>
<path d="M229.88 217.688H227.39V220.178H229.88V217.688Z" fill="#F0F0F0"/>
<path d="M229.88 221.868H227.39V224.358H229.88V221.868Z" fill="#F0F0F0"/>
<path d="M229.88 226.047H227.39V228.537H229.88V226.047Z" fill="#F0F0F0"/>
<path d="M229.88 230.228H227.39V232.718H229.88V230.228Z" fill="#F0F0F0"/>
<path d="M229.88 234.408H227.39V236.898H229.88V234.408Z" fill="#F0F0F0"/>
<path d="M229.88 238.578H227.39V241.068H229.88V238.578Z" fill="#F0F0F0"/>
<path d="M229.88 242.757H227.39V245.247H229.88V242.757Z" fill="#F0F0F0"/>
<path d="M229.88 246.938H227.39V249.428H229.88V246.938Z" fill="#F0F0F0"/>
<path d="M225.92 171.717H223.43V174.207H225.92V171.717Z" fill="#F0F0F0"/>
<path d="M225.92 175.897H223.43V178.387H225.92V175.897Z" fill="#F0F0F0"/>
<path d="M225.92 180.078H223.43V182.568H225.92V180.078Z" fill="#F0F0F0"/>
<path d="M225.92 184.257H223.43V186.747H225.92V184.257Z" fill="#F0F0F0"/>
<path d="M225.92 188.438H223.43V190.928H225.92V188.438Z" fill="#F0F0F0"/>
<path d="M225.92 192.618H223.43V195.108H225.92V192.618Z" fill="#F0F0F0"/>
<path d="M225.92 196.788H223.43V199.278H225.92V196.788Z" fill="#F0F0F0"/>
<path d="M225.92 200.967H223.43V203.457H225.92V200.967Z" fill="#F0F0F0"/>
<path d="M225.92 205.147H223.43V207.637H225.92V205.147Z" fill="#F0F0F0"/>
<path d="M225.92 209.328H223.43V211.818H225.92V209.328Z" fill="#F0F0F0"/>
<path d="M225.92 213.507H223.43V215.997H225.92V213.507Z" fill="#F0F0F0"/>
<path d="M225.92 217.688H223.43V220.178H225.92V217.688Z" fill="#F0F0F0"/>
<path d="M225.92 221.868H223.43V224.358H225.92V221.868Z" fill="#F0F0F0"/>
<path d="M225.92 226.047H223.43V228.537H225.92V226.047Z" fill="#F0F0F0"/>
<path d="M225.92 230.228H223.43V232.718H225.92V230.228Z" fill="#F0F0F0"/>
<path d="M225.92 234.408H223.43V236.898H225.92V234.408Z" fill="#F0F0F0"/>
<path d="M225.92 238.578H223.43V241.068H225.92V238.578Z" fill="#F0F0F0"/>
<path d="M225.92 242.757H223.43V245.247H225.92V242.757Z" fill="#F0F0F0"/>
<path d="M225.92 246.938H223.43V249.428H225.92V246.938Z" fill="#F0F0F0"/>
<path d="M221.96 171.717H219.47V174.207H221.96V171.717Z" fill="#F0F0F0"/>
<path d="M221.96 175.897H219.47V178.387H221.96V175.897Z" fill="#F0F0F0"/>
<path d="M221.96 180.078H219.47V182.568H221.96V180.078Z" fill="#F0F0F0"/>
<path d="M221.96 184.257H219.47V186.747H221.96V184.257Z" fill="#F0F0F0"/>
<path d="M221.96 188.438H219.47V190.928H221.96V188.438Z" fill="#F0F0F0"/>
<path d="M221.96 192.618H219.47V195.108H221.96V192.618Z" fill="#F0F0F0"/>
<path d="M221.96 196.788H219.47V199.278H221.96V196.788Z" fill="#F0F0F0"/>
<path d="M221.96 200.967H219.47V203.457H221.96V200.967Z" fill="#F0F0F0"/>
<path d="M221.96 205.147H219.47V207.637H221.96V205.147Z" fill="#F0F0F0"/>
<path d="M221.96 209.328H219.47V211.818H221.96V209.328Z" fill="#F0F0F0"/>
<path d="M221.96 213.507H219.47V215.997H221.96V213.507Z" fill="#F0F0F0"/>
<path d="M221.96 217.688H219.47V220.178H221.96V217.688Z" fill="#F0F0F0"/>
<path d="M221.96 221.868H219.47V224.358H221.96V221.868Z" fill="#F0F0F0"/>
<path d="M221.96 226.047H219.47V228.537H221.96V226.047Z" fill="#F0F0F0"/>
<path d="M221.96 230.228H219.47V232.718H221.96V230.228Z" fill="#F0F0F0"/>
<path d="M218 171.717H215.51V174.207H218V171.717Z" fill="#F0F0F0"/>
<path d="M218 175.897H215.51V178.387H218V175.897Z" fill="#F0F0F0"/>
<path d="M218 180.078H215.51V182.568H218V180.078Z" fill="#F0F0F0"/>
<path d="M218 184.257H215.51V186.747H218V184.257Z" fill="#F0F0F0"/>
<path d="M218 188.438H215.51V190.928H218V188.438Z" fill="#F0F0F0"/>
<path d="M218 192.618H215.51V195.108H218V192.618Z" fill="#F0F0F0"/>
<path d="M218 196.788H215.51V199.278H218V196.788Z" fill="#F0F0F0"/>
<path d="M218 200.967H215.51V203.457H218V200.967Z" fill="#F0F0F0"/>
<path d="M218 205.147H215.51V207.637H218V205.147Z" fill="#F0F0F0"/>
<path d="M218 209.328H215.51V211.818H218V209.328Z" fill="#F0F0F0"/>
<path d="M218 213.507H215.51V215.997H218V213.507Z" fill="#F0F0F0"/>
<path d="M218 217.688H215.51V220.178H218V217.688Z" fill="#F0F0F0"/>
<path d="M218 221.868H215.51V224.358H218V221.868Z" fill="#F0F0F0"/>
<path d="M214.04 171.717H211.55V174.207H214.04V171.717Z" fill="#F0F0F0"/>
<path d="M214.04 175.897H211.55V178.387H214.04V175.897Z" fill="#F0F0F0"/>
<path d="M214.04 180.078H211.55V182.568H214.04V180.078Z" fill="#F0F0F0"/>
<path d="M214.04 184.257H211.55V186.747H214.04V184.257Z" fill="#F0F0F0"/>
<path d="M214.04 188.438H211.55V190.928H214.04V188.438Z" fill="#F0F0F0"/>
<path d="M214.04 192.618H211.55V195.108H214.04V192.618Z" fill="#F0F0F0"/>
<path d="M214.04 196.788H211.55V199.278H214.04V196.788Z" fill="#F0F0F0"/>
<path d="M214.04 200.967H211.55V203.457H214.04V200.967Z" fill="#F0F0F0"/>
<path d="M214.04 205.147H211.55V207.637H214.04V205.147Z" fill="#F0F0F0"/>
<path d="M214.04 209.328H211.55V211.818H214.04V209.328Z" fill="#F0F0F0"/>
<path d="M214.04 213.507H211.55V215.997H214.04V213.507Z" fill="#F0F0F0"/>
<path d="M214.04 217.688H211.55V220.178H214.04V217.688Z" fill="#F0F0F0"/>
<path d="M445.13 170.467H442.64V172.957H445.13V170.467Z" fill="#F0F0F0"/>
<path d="M445.13 174.647H442.64V177.137H445.13V174.647Z" fill="#F0F0F0"/>
<path d="M445.13 178.828H442.64V181.318H445.13V178.828Z" fill="#F0F0F0"/>
<path d="M445.13 183.007H442.64V185.497H445.13V183.007Z" fill="#F0F0F0"/>
<path d="M445.13 187.188H442.64V189.678H445.13V187.188Z" fill="#F0F0F0"/>
<path d="M445.13 191.368H442.64V193.858H445.13V191.368Z" fill="#F0F0F0"/>
<path d="M445.13 195.547H442.64V198.037H445.13V195.547Z" fill="#F0F0F0"/>
<path d="M445.13 199.728H442.64V202.218H445.13V199.728Z" fill="#F0F0F0"/>
<path d="M445.13 203.908H442.64V206.398H445.13V203.908Z" fill="#F0F0F0"/>
<path d="M445.13 208.087H442.64V210.577H445.13V208.087Z" fill="#F0F0F0"/>
<path d="M445.13 212.257H442.64V214.747H445.13V212.257Z" fill="#F0F0F0"/>
<path d="M445.13 216.438H442.64V218.928H445.13V216.438Z" fill="#F0F0F0"/>
<path d="M445.13 220.618H442.64V223.108H445.13V220.618Z" fill="#F0F0F0"/>
<path d="M445.13 224.797H442.64V227.287H445.13V224.797Z" fill="#F0F0F0"/>
<path d="M445.13 228.978H442.64V231.468H445.13V228.978Z" fill="#F0F0F0"/>
<path d="M445.13 233.158H442.64V235.648H445.13V233.158Z" fill="#F0F0F0"/>
<path d="M445.13 237.337H442.64V239.827H445.13V237.337Z" fill="#F0F0F0"/>
<path d="M445.13 245.697H442.64V248.187H445.13V245.697Z" fill="#F0F0F0"/>
<path d="M445.13 249.877H442.64V252.367H445.13V249.877Z" fill="#F0F0F0"/>
<path d="M445.13 254.047H442.64V256.537H445.13V254.047Z" fill="#F0F0F0"/>
<path d="M445.13 258.228H442.64V260.718H445.13V258.228Z" fill="#F0F0F0"/>
<path d="M445.13 262.408H442.64V264.898H445.13V262.408Z" fill="#F0F0F0"/>
<path d="M441.17 170.467H438.68V172.957H441.17V170.467Z" fill="#F0F0F0"/>
<path d="M441.17 174.647H438.68V177.137H441.17V174.647Z" fill="#F0F0F0"/>
<path d="M441.17 178.828H438.68V181.318H441.17V178.828Z" fill="#F0F0F0"/>
<path d="M441.17 183.007H438.68V185.497H441.17V183.007Z" fill="#F0F0F0"/>
<path d="M441.17 187.188H438.68V189.678H441.17V187.188Z" fill="#F0F0F0"/>
<path d="M441.17 191.368H438.68V193.858H441.17V191.368Z" fill="#F0F0F0"/>
<path d="M441.17 195.547H438.68V198.037H441.17V195.547Z" fill="#F0F0F0"/>
<path d="M441.17 199.728H438.68V202.218H441.17V199.728Z" fill="#F0F0F0"/>
<path d="M441.17 203.908H438.68V206.398H441.17V203.908Z" fill="#F0F0F0"/>
<path d="M441.17 208.087H438.68V210.577H441.17V208.087Z" fill="#F0F0F0"/>
<path d="M441.17 212.257H438.68V214.747H441.17V212.257Z" fill="#F0F0F0"/>
<path d="M441.17 216.438H438.68V218.928H441.17V216.438Z" fill="#F0F0F0"/>
<path d="M441.17 220.618H438.68V223.108H441.17V220.618Z" fill="#F0F0F0"/>
<path d="M441.17 224.797H438.68V227.287H441.17V224.797Z" fill="#F0F0F0"/>
<path d="M441.17 228.978H438.68V231.468H441.17V228.978Z" fill="#F0F0F0"/>
<path d="M441.17 233.158H438.68V235.648H441.17V233.158Z" fill="#F0F0F0"/>
<path d="M441.17 258.228H438.68V260.718H441.17V258.228Z" fill="#F0F0F0"/>
<path d="M441.17 262.408H438.68V264.898H441.17V262.408Z" fill="#F0F0F0"/>
<path d="M437.22 170.467H434.73V172.957H437.22V170.467Z" fill="#F0F0F0"/>
<path d="M437.22 174.647H434.73V177.137H437.22V174.647Z" fill="#F0F0F0"/>
<path d="M437.22 178.828H434.73V181.318H437.22V178.828Z" fill="#F0F0F0"/>
<path d="M437.22 183.007H434.73V185.497H437.22V183.007Z" fill="#F0F0F0"/>
<path d="M437.22 187.188H434.73V189.678H437.22V187.188Z" fill="#F0F0F0"/>
<path d="M437.22 191.368H434.73V193.858H437.22V191.368Z" fill="#F0F0F0"/>
<path d="M437.22 195.547H434.73V198.037H437.22V195.547Z" fill="#F0F0F0"/>
<path d="M437.22 199.728H434.73V202.218H437.22V199.728Z" fill="#F0F0F0"/>
<path d="M437.22 203.908H434.73V206.398H437.22V203.908Z" fill="#F0F0F0"/>
<path d="M437.22 208.087H434.73V210.577H437.22V208.087Z" fill="#F0F0F0"/>
<path d="M437.22 212.257H434.73V214.747H437.22V212.257Z" fill="#F0F0F0"/>
<path d="M437.22 216.438H434.73V218.928H437.22V216.438Z" fill="#F0F0F0"/>
<path d="M437.22 220.618H434.73V223.108H437.22V220.618Z" fill="#F0F0F0"/>
<path d="M437.22 224.797H434.73V227.287H437.22V224.797Z" fill="#F0F0F0"/>
<path d="M437.22 228.978H434.73V231.468H437.22V228.978Z" fill="#F0F0F0"/>
<path d="M437.22 233.158H434.73V235.648H437.22V233.158Z" fill="#F0F0F0"/>
<path d="M437.22 241.518H434.73V244.008H437.22V241.518Z" fill="#F0F0F0"/>
<path d="M437.22 245.697H434.73V248.187H437.22V245.697Z" fill="#F0F0F0"/>
<path d="M437.22 249.877H434.73V252.367H437.22V249.877Z" fill="#F0F0F0"/>
<path d="M437.22 254.047H434.73V256.537H437.22V254.047Z" fill="#F0F0F0"/>
<path d="M437.22 262.408H434.73V264.898H437.22V262.408Z" fill="#F0F0F0"/>
<path d="M368.15 199.728H365.66V202.218H368.15V199.728Z" fill="#F0F0F0"/>
<path d="M368.15 203.908H365.66V206.398H368.15V203.908Z" fill="#F0F0F0"/>
<path d="M368.15 208.087H365.66V210.577H368.15V208.087Z" fill="#F0F0F0"/>
<path d="M368.15 212.257H365.66V214.747H368.15V212.257Z" fill="#F0F0F0"/>
<path d="M368.15 216.438H365.66V218.928H368.15V216.438Z" fill="#F0F0F0"/>
<path d="M368.15 220.618H365.66V223.108H368.15V220.618Z" fill="#F0F0F0"/>
<path d="M368.15 224.797H365.66V227.287H368.15V224.797Z" fill="#F0F0F0"/>
<path d="M368.15 228.978H365.66V231.468H368.15V228.978Z" fill="#F0F0F0"/>
<path d="M368.15 233.158H365.66V235.648H368.15V233.158Z" fill="#F0F0F0"/>
<path d="M368.15 237.337H365.66V239.827H368.15V237.337Z" fill="#F0F0F0"/>
<path d="M368.15 241.518H365.66V244.008H368.15V241.518Z" fill="#F0F0F0"/>
<path d="M368.15 245.697H365.66V248.187H368.15V245.697Z" fill="#F0F0F0"/>
<path d="M368.15 249.877H365.66V252.367H368.15V249.877Z" fill="#F0F0F0"/>
<path d="M368.15 258.228H365.66V260.718H368.15V258.228Z" fill="#F0F0F0"/>
<path d="M368.15 262.408H365.66V264.898H368.15V262.408Z" fill="#F0F0F0"/>
<path d="M368.15 266.587H365.66V269.077H368.15V266.587Z" fill="#F0F0F0"/>
<path d="M368.15 270.768H365.66V273.258H368.15V270.768Z" fill="#F0F0F0"/>
<path d="M368.15 279.127H365.66V281.617H368.15V279.127Z" fill="#F0F0F0"/>
<path d="M368.15 283.308H365.66V285.798H368.15V283.308Z" fill="#F0F0F0"/>
<path d="M368.15 287.487H365.66V289.977H368.15V287.487Z" fill="#F0F0F0"/>
<path d="M364.19 199.728H361.7V202.218H364.19V199.728Z" fill="#F0F0F0"/>
<path d="M364.19 203.908H361.7V206.398H364.19V203.908Z" fill="#F0F0F0"/>
<path d="M364.19 208.087H361.7V210.577H364.19V208.087Z" fill="#F0F0F0"/>
<path d="M364.19 212.257H361.7V214.747H364.19V212.257Z" fill="#F0F0F0"/>
<path d="M364.19 216.438H361.7V218.928H364.19V216.438Z" fill="#F0F0F0"/>
<path d="M364.19 220.618H361.7V223.108H364.19V220.618Z" fill="#F0F0F0"/>
<path d="M364.19 224.797H361.7V227.287H364.19V224.797Z" fill="#F0F0F0"/>
<path d="M364.19 228.978H361.7V231.468H364.19V228.978Z" fill="#F0F0F0"/>
<path d="M364.19 233.158H361.7V235.648H364.19V233.158Z" fill="#F0F0F0"/>
<path d="M364.19 237.337H361.7V239.827H364.19V237.337Z" fill="#F0F0F0"/>
<path d="M364.19 241.518H361.7V244.008H364.19V241.518Z" fill="#F0F0F0"/>
<path d="M364.19 245.697H361.7V248.187H364.19V245.697Z" fill="#F0F0F0"/>
<path d="M364.19 249.877H361.7V252.367H364.19V249.877Z" fill="#F0F0F0"/>
<path d="M364.19 262.408H361.7V264.898H364.19V262.408Z" fill="#F0F0F0"/>
<path d="M364.19 266.587H361.7V269.077H364.19V266.587Z" fill="#F0F0F0"/>
<path d="M364.19 274.947H361.7V277.437H364.19V274.947Z" fill="#F0F0F0"/>
<path d="M364.19 279.127H361.7V281.617H364.19V279.127Z" fill="#F0F0F0"/>
<path d="M364.19 283.308H361.7V285.798H364.19V283.308Z" fill="#F0F0F0"/>
<path d="M364.19 287.487H361.7V289.977H364.19V287.487Z" fill="#F0F0F0"/>
<path d="M360.23 199.728H357.74V202.218H360.23V199.728Z" fill="#F0F0F0"/>
<path d="M360.23 203.908H357.74V206.398H360.23V203.908Z" fill="#F0F0F0"/>
<path d="M360.23 208.087H357.74V210.577H360.23V208.087Z" fill="#F0F0F0"/>
<path d="M360.23 212.257H357.74V214.747H360.23V212.257Z" fill="#F0F0F0"/>
<path d="M360.23 216.438H357.74V218.928H360.23V216.438Z" fill="#F0F0F0"/>
<path d="M360.23 220.618H357.74V223.108H360.23V220.618Z" fill="#F0F0F0"/>
<path d="M360.23 224.797H357.74V227.287H360.23V224.797Z" fill="#F0F0F0"/>
<path d="M360.23 228.978H357.74V231.468H360.23V228.978Z" fill="#F0F0F0"/>
<path d="M360.23 233.158H357.74V235.648H360.23V233.158Z" fill="#F0F0F0"/>
<path d="M360.23 237.337H357.74V239.827H360.23V237.337Z" fill="#F0F0F0"/>
<path d="M360.23 241.518H357.74V244.008H360.23V241.518Z" fill="#F0F0F0"/>
<path d="M360.23 245.697H357.74V248.187H360.23V245.697Z" fill="#F0F0F0"/>
<path d="M360.23 249.877H357.74V252.367H360.23V249.877Z" fill="#F0F0F0"/>
<path d="M360.23 254.047H357.74V256.537H360.23V254.047Z" fill="#F0F0F0"/>
<path d="M360.23 262.408H357.74V264.898H360.23V262.408Z" fill="#F0F0F0"/>
<path d="M360.23 270.768H357.74V273.258H360.23V270.768Z" fill="#F0F0F0"/>
<path d="M360.23 274.947H357.74V277.437H360.23V274.947Z" fill="#F0F0F0"/>
<path d="M360.23 279.127H357.74V281.617H360.23V279.127Z" fill="#F0F0F0"/>
<path d="M360.23 283.308H357.74V285.798H360.23V283.308Z" fill="#F0F0F0"/>
<path d="M360.23 287.487H357.74V289.977H360.23V287.487Z" fill="#F0F0F0"/>
<path d="M384.28 223.558H381.79V226.048H384.28V223.558Z" fill="#F0F0F0"/>
<path d="M384.28 227.728H381.79V230.218H384.28V227.728Z" fill="#F0F0F0"/>
<path d="M384.28 231.908H381.79V234.398H384.28V231.908Z" fill="#F0F0F0"/>
<path d="M384.28 236.087H381.79V238.577H384.28V236.087Z" fill="#F0F0F0"/>
<path d="M384.28 240.268H381.79V242.758H384.28V240.268Z" fill="#F0F0F0"/>
<path d="M384.28 244.447H381.79V246.937H384.28V244.447Z" fill="#F0F0F0"/>
<path d="M384.28 256.987H381.79V259.477H384.28V256.987Z" fill="#F0F0F0"/>
<path d="M384.28 261.167H381.79V263.658H384.28V261.167Z" fill="#F0F0F0"/>
<path d="M384.28 265.337H381.79V267.827H384.28V265.337Z" fill="#F0F0F0"/>
<path d="M384.28 269.518H381.79V272.008H384.28V269.518Z" fill="#F0F0F0"/>
<path d="M384.28 273.697H381.79V276.187H384.28V273.697Z" fill="#F0F0F0"/>
<path d="M384.28 277.877H381.79V280.367H384.28V277.877Z" fill="#F0F0F0"/>
<path d="M384.28 282.058H381.79V284.548H384.28V282.058Z" fill="#F0F0F0"/>
<path d="M380.32 223.558H377.83V226.048H380.32V223.558Z" fill="#F0F0F0"/>
<path d="M380.32 227.728H377.83V230.218H380.32V227.728Z" fill="#F0F0F0"/>
<path d="M380.32 231.908H377.83V234.398H380.32V231.908Z" fill="#F0F0F0"/>
<path d="M380.32 236.087H377.83V238.577H380.32V236.087Z" fill="#F0F0F0"/>
<path d="M380.32 240.268H377.83V242.758H380.32V240.268Z" fill="#F0F0F0"/>
<path d="M380.32 244.447H377.83V246.937H380.32V244.447Z" fill="#F0F0F0"/>
<path d="M380.32 256.987H377.83V259.477H380.32V256.987Z" fill="#F0F0F0"/>
<path d="M380.32 261.167H377.83V263.658H380.32V261.167Z" fill="#F0F0F0"/>
<path d="M380.32 265.337H377.83V267.827H380.32V265.337Z" fill="#F0F0F0"/>
<path d="M380.32 269.518H377.83V272.008H380.32V269.518Z" fill="#F0F0F0"/>
<path d="M380.32 273.697H377.83V276.187H380.32V273.697Z" fill="#F0F0F0"/>
<path d="M380.32 277.877H377.83V280.367H380.32V277.877Z" fill="#F0F0F0"/>
<path d="M380.32 286.237H377.83V288.727H380.32V286.237Z" fill="#F0F0F0"/>
<path d="M248.79 205.147H246.3V207.637H248.79V205.147Z" fill="#F0F0F0"/>
<path d="M248.79 209.328H246.3V211.818H248.79V209.328Z" fill="#F0F0F0"/>
<path d="M248.79 213.507H246.3V215.997H248.79V213.507Z" fill="#F0F0F0"/>
<path d="M248.79 217.688H246.3V220.178H248.79V217.688Z" fill="#F0F0F0"/>
<path d="M248.79 221.868H246.3V224.358H248.79V221.868Z" fill="#F0F0F0"/>
<path d="M248.79 226.047H246.3V228.537H248.79V226.047Z" fill="#F0F0F0"/>
<path d="M248.79 230.228H246.3V232.718H248.79V230.228Z" fill="#F0F0F0"/>
<path d="M248.79 234.408H246.3V236.898H248.79V234.408Z" fill="#F0F0F0"/>
<path d="M248.79 238.578H246.3V241.068H248.79V238.578Z" fill="#F0F0F0"/>
<path d="M248.79 242.757H246.3V245.247H248.79V242.757Z" fill="#F0F0F0"/>
<path d="M248.79 246.938H246.3V249.428H248.79V246.938Z" fill="#F0F0F0"/>
<path d="M248.79 255.297H246.3V257.787H248.79V255.297Z" fill="#F0F0F0"/>
<path d="M248.79 259.478H246.3V261.968H248.79V259.478Z" fill="#F0F0F0"/>
<path d="M248.79 263.658H246.3V266.148H248.79V263.658Z" fill="#F0F0F0"/>
<path d="M248.79 267.837H246.3V270.327H248.79V267.837Z" fill="#F0F0F0"/>
<path d="M248.79 272.018H246.3V274.508H248.79V272.018Z" fill="#F0F0F0"/>
<path d="M248.79 276.197H246.3V278.687H248.79V276.197Z" fill="#F0F0F0"/>
<path d="M248.79 280.368H246.3V282.858H248.79V280.368Z" fill="#F0F0F0"/>
<path d="M248.79 284.547H246.3V287.037H248.79V284.547Z" fill="#F0F0F0"/>
<path d="M244.84 205.147H242.35V207.637H244.84V205.147Z" fill="#F0F0F0"/>
<path d="M244.84 209.328H242.35V211.818H244.84V209.328Z" fill="#F0F0F0"/>
<path d="M244.84 213.507H242.35V215.997H244.84V213.507Z" fill="#F0F0F0"/>
<path d="M244.84 217.688H242.35V220.178H244.84V217.688Z" fill="#F0F0F0"/>
<path d="M244.84 221.868H242.35V224.358H244.84V221.868Z" fill="#F0F0F0"/>
<path d="M244.84 226.047H242.35V228.537H244.84V226.047Z" fill="#F0F0F0"/>
<path d="M244.84 230.228H242.35V232.718H244.84V230.228Z" fill="#F0F0F0"/>
<path d="M244.84 234.408H242.35V236.898H244.84V234.408Z" fill="#F0F0F0"/>
<path d="M244.84 238.578H242.35V241.068H244.84V238.578Z" fill="#F0F0F0"/>
<path d="M244.84 242.757H242.35V245.247H244.84V242.757Z" fill="#F0F0F0"/>
<path d="M244.84 246.938H242.35V249.428H244.84V246.938Z" fill="#F0F0F0"/>
<path d="M244.84 251.118H242.35V253.608H244.84V251.118Z" fill="#F0F0F0"/>
<path d="M244.84 255.297H242.35V257.787H244.84V255.297Z" fill="#F0F0F0"/>
<path d="M244.84 259.478H242.35V261.968H244.84V259.478Z" fill="#F0F0F0"/>
<path d="M244.84 263.658H242.35V266.148H244.84V263.658Z" fill="#F0F0F0"/>
<path d="M244.84 267.837H242.35V270.327H244.84V267.837Z" fill="#F0F0F0"/>
<path d="M244.84 272.018H242.35V274.508H244.84V272.018Z" fill="#F0F0F0"/>
<path d="M244.84 276.197H242.35V278.687H244.84V276.197Z" fill="#F0F0F0"/>
<path d="M244.84 280.368H242.35V282.858H244.84V280.368Z" fill="#F0F0F0"/>
<path d="M244.84 284.547H242.35V287.037H244.84V284.547Z" fill="#F0F0F0"/>
<path d="M268.3 221.428H265.81V223.918H268.3V221.428Z" fill="#F0F0F0"/>
<path d="M268.3 225.607H265.81V228.097H268.3V225.607Z" fill="#F0F0F0"/>
<path d="M268.3 229.788H265.81V232.278H268.3V229.788Z" fill="#F0F0F0"/>
<path d="M268.3 233.967H265.81V236.457H268.3V233.967Z" fill="#F0F0F0"/>
<path d="M268.3 238.138H265.81V240.628H268.3V238.138Z" fill="#F0F0F0"/>
<path d="M268.3 242.317H265.81V244.807H268.3V242.317Z" fill="#F0F0F0"/>
<path d="M268.3 246.498H265.81V248.988H268.3V246.498Z" fill="#F0F0F0"/>
<path d="M268.3 250.678H265.81V253.168H268.3V250.678Z" fill="#F0F0F0"/>
<path d="M268.3 254.857H265.81V257.347H268.3V254.857Z" fill="#F0F0F0"/>
<path d="M268.3 259.038H265.81V261.528H268.3V259.038Z" fill="#F0F0F0"/>
<path d="M264.34 221.428H261.85V223.918H264.34V221.428Z" fill="#F0F0F0"/>
<path d="M264.34 225.607H261.85V228.097H264.34V225.607Z" fill="#F0F0F0"/>
<path d="M264.34 229.788H261.85V232.278H264.34V229.788Z" fill="#F0F0F0"/>
<path d="M264.34 233.967H261.85V236.457H264.34V233.967Z" fill="#F0F0F0"/>
<path d="M264.34 238.138H261.85V240.628H264.34V238.138Z" fill="#F0F0F0"/>
<path d="M264.34 242.317H261.85V244.807H264.34V242.317Z" fill="#F0F0F0"/>
<path d="M264.34 246.498H261.85V248.988H264.34V246.498Z" fill="#F0F0F0"/>
<path d="M264.34 250.678H261.85V253.168H264.34V250.678Z" fill="#F0F0F0"/>
<path d="M264.34 254.857H261.85V257.347H264.34V254.857Z" fill="#F0F0F0"/>
<path d="M287.89 62.8379H283.71V295.918H287.89V62.8379Z" fill="#E0E0E0"/>
<path d="M366.6 62.8379H362.42V295.918H366.6V62.8379Z" fill="#E0E0E0"/>
<path d="M445.3 62.8379H441.12V295.918H445.3V62.8379Z" fill="#E0E0E0"/>
<path d="M147.82 273.237H173.6C176.03 273.237 178.01 275.207 178.01 277.647V327.477H143.42V277.647C143.42 275.217 145.39 273.237 147.83 273.237H147.82Z" fill="#F0F0F0"/>
<path d="M178.01 280.567H143.42V284.457H178.01V280.567Z" fill="#E6E6E6"/>
<path d="M163.09 320.907H171.71C173.02 320.907 174.08 321.967 174.08 323.277V327.477H160.72V323.277C160.72 321.967 161.78 320.907 163.09 320.907Z" fill="#E0E0E0"/>
<path d="M174.12 327.477H164.53C163.68 327.477 162.99 326.787 162.99 325.937C162.99 325.087 163.68 324.397 164.53 324.397H174.12C174.97 324.397 175.66 325.087 175.66 325.937C175.66 326.787 174.97 327.477 174.12 327.477Z" fill="#E6E6E6"/>
<path d="M327.709 51.8918C340.368 48.9041 348.207 36.2204 345.22 23.5618C342.232 10.9033 329.548 3.06359 316.89 6.05127C304.231 9.03895 296.391 21.7227 299.379 34.3812C302.367 47.0397 315.05 54.8794 327.709 51.8918Z" fill="#E0E0E0"/>
<path d="M325.511 48.7159C336.431 46.9435 343.846 36.6547 342.073 25.7354C340.301 14.816 330.012 7.40103 319.093 9.17349C308.173 10.946 300.758 21.2347 302.531 32.154C304.303 43.0734 314.592 50.4884 325.511 48.7159Z" fill="#F0F0F0"/>
<path d="M323.24 15.2275V29.2275L332.52 23.9775" fill="#F0F0F0"/>
<path d="M323.24 15.2275V29.2275L332.52 23.9775" stroke="#E0E0E0" stroke-width="2" stroke-linecap="round" stroke-linejoin="round"/>
<path d="M96.93 258.838C95.13 255.878 92.17 258.448 92.17 258.448C92.59 252.768 87.37 248.888 87.37 248.888C87.37 248.888 93.44 248.888 94.29 243.098C95.14 237.308 92.17 239.998 89.39 239.958C86.61 239.918 83.7 248.038 87.37 252.608C91.04 257.178 90.05 264.978 81.59 272.478C79.52 274.308 78.12 276.748 77.17 279.378C77.81 272.488 78.17 262.778 76.14 256.298C72.7 245.288 79.26 242.328 81.16 236.818C83.07 231.318 76.14 226.658 76.14 226.658C76.14 226.658 82.65 223.698 79.47 220.308C76.29 216.918 69.73 217.378 69.73 221.808C69.73 226.238 74.18 227.928 74.18 227.928C74.18 227.928 79.26 233.218 79.26 235.978C79.26 238.738 74.18 244.658 74.18 244.658C74.18 244.658 76.51 239.588 71.85 239.368C67.19 239.148 65.71 245.288 67.62 248.048C69.53 250.798 72.7 248.468 72.7 248.468C72.7 248.468 73.07 254.398 74.16 257.998C74.64 259.578 74.41 265.788 74.01 272.248C73.07 269.918 71.74 267.778 69.89 266.128C61.42 258.628 60.44 250.828 64.11 246.258C67.78 241.688 64.87 233.568 62.09 233.608C59.31 233.648 56.34 230.948 57.19 236.748C58.04 242.548 64.11 242.538 64.11 242.538C64.11 242.538 58.88 246.428 59.31 252.098C59.31 252.098 56.35 249.518 54.55 252.488C51.34 257.778 58.78 261.058 60.04 258.458C60.04 258.458 75.83 269.638 72.02 285.728L72.91 287.038C72.8 288.338 72.72 289.118 72.72 289.118L73.96 288.588L75.37 290.658C75.3 294.678 75.73 297.648 75.73 297.648L79.51 292.078C75.7 275.988 91.49 264.808 91.49 264.808C92.74 267.408 100.19 264.128 96.98 258.838H96.93Z" fill="#E0E0E0"/>
<path opacity="0.2" d="M96.93 258.838C95.13 255.878 92.17 258.448 92.17 258.448C92.59 252.768 87.37 248.888 87.37 248.888C87.37 248.888 93.44 248.888 94.29 243.098C95.14 237.308 92.17 239.998 89.39 239.958C86.61 239.918 83.7 248.038 87.37 252.608C91.04 257.178 90.05 264.978 81.59 272.478C79.52 274.308 78.12 276.748 77.17 279.378C77.81 272.488 78.17 262.778 76.14 256.298C72.7 245.288 79.26 242.328 81.16 236.818C83.07 231.318 76.14 226.658 76.14 226.658C76.14 226.658 82.65 223.698 79.47 220.308C76.29 216.918 69.73 217.378 69.73 221.808C69.73 226.238 74.18 227.928 74.18 227.928C74.18 227.928 79.26 233.218 79.26 235.978C79.26 238.738 74.18 244.658 74.18 244.658C74.18 244.658 76.51 239.588 71.85 239.368C67.19 239.148 65.71 245.288 67.62 248.048C69.53 250.798 72.7 248.468 72.7 248.468C72.7 248.468 73.07 254.398 74.16 257.998C74.64 259.578 74.41 265.788 74.01 272.248C73.07 269.918 71.74 267.778 69.89 266.128C61.42 258.628 60.44 250.828 64.11 246.258C67.78 241.688 64.87 233.568 62.09 233.608C59.31 233.648 56.34 230.948 57.19 236.748C58.04 242.548 64.11 242.538 64.11 242.538C64.11 242.538 58.88 246.428 59.31 252.098C59.31 252.098 56.35 249.518 54.55 252.488C51.34 257.778 58.78 261.058 60.04 258.458C60.04 258.458 75.83 269.638 72.02 285.728L72.91 287.038C72.8 288.338 72.72 289.118 72.72 289.118L73.96 288.588L75.37 290.658C75.3 294.678 75.73 297.648 75.73 297.648L79.51 292.078C75.7 275.988 91.49 264.808 91.49 264.808C92.74 267.408 100.19 264.128 96.98 258.838H96.93Z" fill="#E0E0E0"/>
<path d="M93.84 327.478H57.67L53.76 287.868H97.74L93.84 327.478Z" fill="#E6E6E6"/>
<path d="M99.67 283.498H51.83V292.238H99.67V283.498Z" fill="#F0F0F0"/>
<path d="M250 372.758C357.082 372.758 443.89 367.69 443.89 361.438C443.89 355.186 357.082 350.118 250 350.118C142.917 350.118 56.11 355.186 56.11 361.438C56.11 367.69 142.917 372.758 250 372.758Z" fill="#F5F5F5"/>
<path d="M410.45 329.908C410.6 328.888 414.1 304.738 407.09 296.398C405.54 294.548 403.58 293.588 401.27 293.528C387.12 293.198 385.18 304.568 385.16 304.678L386.83 304.938C386.89 304.528 388.57 294.908 401.23 295.218C403.06 295.258 404.56 296.008 405.8 297.488C412.33 305.248 408.82 329.418 408.78 329.658L410.45 329.908Z" fill="#9E0000"/>
<path d="M411.3 328.808L412.99 328.758C412.99 328.538 412.43 306.508 423.28 301.958C433.92 297.498 438.7 306.668 438.9 307.058L440.41 306.298C440.35 306.188 434.74 295.318 422.63 300.398C410.71 305.398 411.27 327.858 411.3 328.808Z" fill="#9E0000"/>
<path d="M411.25 330.537C411.25 330.187 411.35 295.347 418.14 285.157C424.66 275.377 435.18 279.977 435.63 280.177L436.33 278.637C436.21 278.577 424.07 273.227 416.74 284.217C409.67 294.827 409.56 329.077 409.56 330.537H411.25Z" fill="#9E0000"/>
<path d="M399.24 294.378C399.24 294.378 405.42 296.658 403.58 302.038C401.74 307.418 382.2 316.268 382.2 316.268C382.2 316.268 374.02 308.768 381.53 296.568C389.05 284.368 399.07 290.538 399.23 294.378H399.24Z" fill="#407BFF"/>
<path d="M418.45 283.328C418.45 283.328 414.06 282.858 414.42 280.188C414.78 277.518 431.47 270.638 441.33 281.758C441.33 281.758 435.02 292.598 425.9 292.738C416.78 292.878 418.46 283.328 418.46 283.328H418.45Z" fill="#407BFF"/>
<path d="M422.96 301.177C422.96 301.177 419.93 298.738 423.2 297.538C426.47 296.348 442.5 296.688 442.67 312.568C442.67 312.568 424 315.668 421.69 309.618C419.38 303.568 422.97 301.177 422.97 301.177H422.96Z" fill="#407BFF"/>
<path d="M399.24 294.378C399.24 294.378 405.42 296.658 403.58 302.038C401.74 307.418 382.2 316.268 382.2 316.268C382.2 316.268 374.02 308.768 381.53 296.568C389.05 284.368 399.07 290.538 399.23 294.378H399.24Z" fill="#9E0000"/>
<path d="M418.45 283.328C418.45 283.328 414.06 282.858 414.42 280.188C414.78 277.518 431.47 270.638 441.33 281.758C441.33 281.758 435.02 292.598 425.9 292.738C416.78 292.878 418.46 283.328 418.46 283.328H418.45Z" fill="#9E0000"/>
<path d="M422.96 301.177C422.96 301.177 419.93 298.738 423.2 297.538C426.47 296.348 442.5 296.688 442.67 312.568C442.67 312.568 424 315.668 421.69 309.618C419.38 303.568 422.97 301.177 422.97 301.177H422.96Z" fill="#9E0000"/>
<path d="M395.92 362.268H424.9L428.02 330.538H392.8L395.92 362.268Z" fill="#407BFF"/>
<path d="M395.92 362.268H424.9L428.02 330.538H392.8L395.92 362.268Z" fill="#CE5151"/>
<path d="M391.25 334.048H429.57V327.048H391.25V334.048Z" fill="#9E0000"/>
<path opacity="0.2" d="M390.86 334.048H429.18V327.048H390.86V334.048Z" fill="white"/>
<path d="M363.12 339.528L334.31 336.698V296.208H322.89V336.688L293.96 339.528C291.09 339.808 288.9 342.228 288.9 345.108V349.438H368.18V345.108C368.18 342.218 365.99 339.808 363.12 339.528Z" fill="#263238"/>
<path opacity="0.2" d="M363.12 339.528L334.31 336.698V296.208H322.89V336.688L293.96 339.528C291.09 339.808 288.9 342.228 288.9 345.108V349.438H368.18V345.108C368.18 342.218 365.99 339.808 363.12 339.528Z" fill="white"/>
<path d="M291.95 362.268C296.076 362.268 299.42 358.923 299.42 354.798C299.42 350.672 296.076 347.328 291.95 347.328C287.824 347.328 284.48 350.672 284.48 354.798C284.48 358.923 287.824 362.268 291.95 362.268Z" fill="#263238"/>
<path d="M365.14 362.268C369.266 362.268 372.61 358.923 372.61 354.798C372.61 350.672 369.266 347.328 365.14 347.328C361.014 347.328 357.67 350.672 357.67 354.798C357.67 358.923 361.014 362.268 365.14 362.268Z" fill="#263238"/>
<path d="M320.93 268.838H336.28V300.768C336.28 303.048 334.43 304.898 332.15 304.898H325.06C322.78 304.898 320.93 303.048 320.93 300.768V268.838Z" fill="#263238"/>
<path opacity="0.3" d="M320.93 268.838H336.28V300.768C336.28 303.048 334.43 304.898 332.15 304.898H325.06C322.78 304.898 320.93 303.048 320.93 300.768V268.838Z" fill="white"/>
<path d="M355.9 205.548C355.9 205.548 358.08 259.548 343.04 268.838H360.2C360.2 268.838 373.5 250.438 369.74 205.548H355.89H355.9Z" fill="#263238"/>
<path opacity="0.3" d="M355.9 205.548C355.9 205.548 358.08 259.548 343.04 268.838H360.2C360.2 268.838 373.5 250.438 369.74 205.548H355.89H355.9Z" fill="white"/>
<path d="M366.05 272.978H289.13V266.288C289.13 263.528 291.37 261.288 294.13 261.288H361.05C363.81 261.288 366.05 263.528 366.05 266.288V272.978Z" fill="#263238"/>
<path d="M287.93 272.978H367.24C368.35 272.978 369.25 272.078 369.25 270.968V269.148C369.25 268.037 368.35 267.138 367.24 267.138H287.93C286.82 267.138 285.92 268.037 285.92 269.148V270.968C285.92 272.078 286.82 272.978 287.93 272.978Z" fill="#263238"/>
<path opacity="0.6" d="M287.93 272.978H367.24C368.35 272.978 369.25 272.078 369.25 270.968V269.148C369.25 268.037 368.35 267.138 367.24 267.138H287.93C286.82 267.138 285.92 268.037 285.92 269.148V270.968C285.92 272.078 286.82 272.978 287.93 272.978Z" fill="white"/>
<path d="M373.96 176.598H346.46C338.408 176.598 331.88 183.125 331.88 191.178V201.938C331.88 209.99 338.408 216.518 346.46 216.518H373.96C382.012 216.518 388.54 209.99 388.54 201.938V191.178C388.54 183.125 382.012 176.598 373.96 176.598Z" fill="#263238"/>
<path d="M263.05 132.477L257.56 118.007C257.56 118.007 259.91 115.827 258.3 113.617C256.69 111.407 246.56 105.187 244.71 106.287C242.86 107.377 238.77 111.497 240.98 113.787C243.2 116.077 253.01 119.887 253.01 119.887L257.86 138.877L263.04 132.477H263.05Z" fill="#E4897B"/>
<path d="M301.38 159.988C301.38 159.988 276.41 154.858 273.7 153.628C270.99 152.398 260.94 122.968 260.94 122.968L253.24 126.568C253.24 126.568 259.44 156.108 265.78 163.138C272.12 170.158 299.17 176.108 299.17 176.108L301.38 159.998V159.988Z" fill="#407BFF"/>
<path d="M299.17 176.088C299.17 176.088 299.01 176.058 298.71 175.978C297.34 175.668 293.08 174.668 288.01 173.178C279.78 170.788 269.4 167.128 265.78 163.118C259.45 156.088 253.24 126.548 253.24 126.548L260.94 122.948C260.94 122.948 270.99 152.388 273.71 153.608C276.42 154.828 301.38 159.958 301.38 159.958L299.17 176.068V176.088Z" fill="#9E0000"/>
<path d="M261.07 122.388L262.66 125.458L252.76 128.868L253.14 125.118L261.07 122.388Z" fill="#CE5151"/>
<path opacity="0.2" d="M299.36 175.688C297.97 175.488 293.64 174.818 288.47 173.728C291.42 168.638 300.06 166.018 300.06 166.018L299.36 175.688Z" fill="black"/>
<path d="M336.58 139.608C336.58 139.608 338.05 153.438 332.92 156.838C327.8 160.238 302.59 156.258 299.73 150.688C296.87 145.128 307.63 130.018 307.63 130.018L336.57 139.608H336.58Z" fill="#263238"/>
<path d="M234.59 321.587L241.17 323.177L244.5 314.097L247.52 305.837L240.03 302.647L237.15 312.667L234.59 321.587Z" fill="#E4897B"/>
<path opacity="0.2" d="M237.15 312.667L244.5 314.097L247.52 305.837L240.03 302.647L237.15 312.667Z" fill="black"/>
<path d="M237.81 307.877L246.93 311.267C246.93 311.267 271.26 250.437 276.26 250.227C281.26 250.017 332.17 273.417 344.93 260.437C357.69 247.467 339.24 216.197 339.24 216.197C339.24 216.197 308.55 211.817 306.24 218.747C305.79 220.087 305.3 222.717 304.94 224.967C304.59 227.087 304.35 228.867 304.35 228.867C304.35 228.867 304.34 228.867 304.33 228.867C303.38 228.627 272.57 220.677 260.43 228.867C248.1 237.207 237.81 307.877 237.81 307.877Z" fill="#FC6060"/>
<path d="M237.81 307.877L246.93 311.267C246.93 311.267 271.26 250.437 276.26 250.227C281.26 250.017 332.17 273.417 344.93 260.437C357.69 247.467 339.24 216.197 339.24 216.197C339.24 216.197 308.55 211.817 306.24 218.747C305.79 220.087 305.3 222.717 304.94 224.967C304.59 227.087 304.35 228.867 304.35 228.867C304.35 228.867 304.34 228.867 304.33 228.867C303.38 228.627 272.57 220.677 260.43 228.867C248.1 237.207 237.81 307.877 237.81 307.877Z" fill="#CE5151"/>
<path d="M290.27 347.537L296.82 345.857L295.56 336.457L294.39 327.837L286.29 328.567L288.39 338.607L290.27 347.537Z" fill="#E4897B"/>
<path opacity="0.2" d="M288.44 338.817L295.6 336.637L294.41 327.927L286.3 328.607L288.44 338.817Z" fill="black"/>
<path d="M250.7 307.887L237.41 303.377L236.85 308.817L246.92 312.377L250.7 307.887Z" fill="#9E0000"/>
<path d="M322.89 263.557C322.89 263.557 320.81 263.607 288.62 262.107C288.62 262.107 293.43 302.357 296.06 332.477L286.43 334.117C286.43 334.117 263.43 269.607 263.68 259.357C263.93 249.107 275.68 246.107 275.68 246.107C275.68 246.107 298.61 259.357 322.89 263.557Z" fill="#FC6060"/>
<path opacity="0.6" d="M322.89 263.557C322.89 263.557 320.81 263.607 288.62 262.107C288.62 262.107 293.43 302.357 296.06 332.477L286.43 334.117C286.43 334.117 263.43 269.607 263.68 259.357C263.93 249.107 275.68 246.107 275.68 246.107C275.68 246.107 298.61 259.357 322.89 263.557Z" fill="#FC6060"/>
<path d="M322.89 263.557C322.89 263.557 320.81 263.607 288.62 262.107C288.62 262.107 293.43 302.357 296.06 332.477L286.43 334.117C286.43 334.117 263.43 269.607 263.68 259.357C263.93 249.107 275.68 246.107 275.68 246.107C275.68 246.107 298.61 259.357 322.89 263.557Z" fill="#CE5151"/>
<path d="M297.46 329.558L284.23 331.058L286.79 336.248L297.5 334.878L297.46 329.558Z" fill="#9E0000"/>
<path opacity="0.1" d="M304.35 228.867L322.3 232.607C322.3 232.607 312.38 227.127 304.94 224.967C304.59 227.087 304.35 228.867 304.35 228.867Z" fill="black"/>
<path d="M338.5 211.417L339.24 216.197L306.24 218.737L305.36 213.097L338.5 211.417Z" fill="#263238"/>
<path opacity="0.2" d="M338.5 211.417L339.24 216.197L306.24 218.737L305.36 213.097L338.5 211.417Z" fill="black"/>
<path d="M328.093 219.421L329.724 219.253L328.87 210.947L327.239 211.115L328.093 219.421Z" fill="#407BFF"/>
<path d="M313.438 218.586L320.663 218.122L320.311 212.643L313.086 213.108L313.438 218.586Z" fill="white"/>
<path d="M307.844 220.284L309.476 220.116L308.622 211.81L306.99 211.978L307.844 220.284Z" fill="#407BFF"/>
<path d="M328.093 219.421L329.724 219.253L328.87 210.947L327.239 211.115L328.093 219.421Z" fill="#9E0000"/>
<path d="M307.844 220.284L309.476 220.116L308.622 211.81L306.99 211.978L307.844 220.284Z" fill="#9E0000"/>
<path d="M300.78 159.527C300.78 159.527 309.2 162.167 319.79 161.627C330.38 161.087 343.04 166.227 343.04 166.227L338.49 211.417L305.36 213.087C305.36 213.087 294.23 175.347 300.78 159.527Z" fill="#CE5151"/>
<path d="M306.11 134.007C306.11 134.007 307.97 112.057 326.32 120.037C349.35 130.047 331.04 156.777 319.79 151.287C308.54 145.797 306.11 134.007 306.11 134.007Z" fill="#263238"/>
<path opacity="0.2" d="M311.25 162.858L311.78 175.258L315.89 169.428C315.89 169.428 314.42 183.148 315.28 190.608C315.28 190.608 316.07 177.218 317.93 169.428L322.3 175.258L328.57 162.938C328.57 162.938 318.42 159.288 311.24 162.858H311.25Z" fill="black"/>
<path d="M316.93 165.158L326.42 162.478C320.57 158.458 323.52 149.458 323.52 149.458L314.12 152.758C314.62 154.318 314.94 155.638 315.13 156.778C316.11 162.638 313.46 163.108 313.46 163.108L316.93 165.158Z" fill="#E4897B"/>
<path opacity="0.2" d="M314.12 152.767C314.62 154.327 314.94 155.647 315.13 156.787C319.63 154.987 323.52 149.467 323.52 149.467L314.12 152.767Z" fill="black"/>
<path d="M320.26 124.648C311.94 122.808 308.27 126.668 305.76 135.108C302.63 145.658 303.32 153.798 314.23 153.808C329.05 153.828 334.08 127.698 320.26 124.638V124.648Z" fill="#E4897B"/>
<path d="M311.24 135.838C311.24 135.838 309.61 137.758 308.05 138.758C308.05 138.758 308.51 140.048 310.04 140.188L311.24 135.848V135.838Z" fill="#DE5753"/>
<path d="M316.49 136.278C316.32 136.958 316.55 137.598 317.01 137.708C317.46 137.818 317.97 137.358 318.13 136.678C318.3 135.998 318.07 135.358 317.61 135.248C317.16 135.138 316.65 135.598 316.49 136.278Z" fill="#263238"/>
<path d="M317.79 135.328L316.45 134.388C316.45 134.388 316.88 135.818 317.79 135.328Z" fill="#263238"/>
<path d="M308.07 134.057C307.9 134.737 308.13 135.377 308.59 135.487C309.04 135.597 309.55 135.137 309.71 134.457C309.88 133.777 309.65 133.137 309.19 133.027C308.74 132.917 308.23 133.377 308.07 134.057Z" fill="#263238"/>
<path d="M309.37 133.107L308.03 132.167C308.03 132.167 308.46 133.597 309.37 133.107Z" fill="#263238"/>
<path d="M317.84 130.548C317.84 130.548 320.25 130.758 321.17 132.608" stroke="#263238" stroke-width="0.72" stroke-linecap="round" stroke-linejoin="round"/>
<path d="M311.87 128.857C311.87 128.857 310.52 127.987 308.4 128.807" stroke="#263238" stroke-width="0.72" stroke-linecap="round" stroke-linejoin="round"/>
<path d="M326.25 140.688C326.25 140.688 323.87 132.988 325.63 127.838C325.63 127.838 310.63 117.448 306.11 134.008C306.11 134.008 307.79 118.788 322.17 121.618C336.53 124.448 331.86 145.368 323.09 149.968C323.09 149.968 327.71 145.488 326.25 140.678V140.688Z" fill="#263238"/>
<path d="M324.5 142.138C324.85 140.808 326.74 138.848 329.17 139.668C331.69 140.518 331.74 146.088 325.05 145.938C324.09 145.918 323.77 144.898 324.5 142.128V142.138Z" fill="#E4897B"/>
<path d="M308.55 143.338C308.84 144.438 308.98 146.428 308.98 146.428C309.16 146.448 309.35 146.468 309.53 146.478C312.01 146.688 313.24 145.968 313.84 145.098C314.17 144.628 314.3 144.098 314.36 143.668C314.43 143.168 314.36 142.798 314.36 142.798C312.98 143.478 310.64 143.458 309.4 143.388C308.88 143.368 308.55 143.328 308.55 143.328V143.338Z" fill="#263238"/>
<path d="M309.4 143.398L309.55 144.308C311.89 144.498 313.57 144.328 314.36 143.678C314.43 143.178 314.36 142.808 314.36 142.808C312.98 143.488 310.64 143.468 309.4 143.398Z" fill="white"/>
<path d="M309.53 146.478C312.01 146.688 313.24 145.968 313.84 145.098C312.99 145.058 311.96 145.098 311.03 145.408C310.32 145.638 309.85 146.048 309.53 146.468V146.478Z" fill="#DE5753"/>
<path d="M320.29 125.308C320.29 125.308 320.61 139.748 329.27 141.478C337.93 143.208 328.46 122.928 328.46 122.928C328.46 122.928 315.56 114.508 306.97 120.438C298.37 126.378 306.1 134.008 306.1 134.008C306.1 134.008 307.92 123.288 320.28 125.308H320.29Z" fill="#263238"/>
<path d="M320.59 124.358C320.59 124.358 317.5 133.488 323.6 138.278" stroke="#263238" stroke-width="0.5" stroke-linecap="round" stroke-linejoin="round"/>
<path d="M331.8 144.447C330.7 147.387 327.87 149.037 325.48 148.137C323.09 147.237 322.05 144.137 323.15 141.197C324.25 138.257 327.08 136.607 329.47 137.507C331.86 138.407 332.9 141.507 331.8 144.447Z" fill="#9E0000"/>
<path opacity="0.4" d="M331.8 144.447C330.7 147.387 327.87 149.037 325.48 148.137C323.09 147.237 322.05 144.137 323.15 141.197C324.25 138.257 327.08 136.607 329.47 137.507C331.86 138.407 332.9 141.507 331.8 144.447Z" fill="#9E0000"/>
<path d="M329.04 139.637C329.04 139.637 332.63 123.567 324.58 119.357C324.58 119.357 326.26 119.587 327.3 119.887C328.34 120.187 334.77 126.707 331.52 141.147L329.04 139.637Z" fill="#9E0000"/>
<path opacity="0.2" d="M329.04 139.637C329.04 139.637 332.63 123.567 324.58 119.357C324.58 119.357 326.26 119.587 327.3 119.887C328.34 120.187 334.77 126.707 331.52 141.147L329.04 139.637Z" fill="#9E0000"/>
<path d="M313.95 148.837C313.75 148.807 313.55 148.777 313.35 148.747L313.51 147.757C320.76 148.937 326.15 145.107 326.2 145.067L326.79 145.877C326.56 146.037 321.32 149.807 313.95 148.837Z" fill="#9E0000"/>
<g opacity="0.2">
<path d="M313.95 148.837C313.75 148.807 313.55 148.777 313.35 148.747L313.51 147.757C320.76 148.937 326.15 145.107 326.2 145.067L326.79 145.877C326.56 146.037 321.32 149.807 313.95 148.837Z" fill="#9E0000"/>
</g>
<path d="M331.46 144.048C330.73 145.988 328.86 147.078 327.28 146.488C325.7 145.898 325.01 143.838 325.74 141.898C326.47 139.958 328.34 138.868 329.92 139.458C331.5 140.048 332.19 142.108 331.46 144.048Z" fill="#9E0000"/>
<path d="M313.06 149.157L312.26 149.047C311.66 148.967 311.24 148.427 311.32 147.827C311.4 147.227 311.94 146.807 312.54 146.887L313.34 146.997C313.94 147.077 314.36 147.617 314.28 148.217C314.2 148.817 313.66 149.237 313.06 149.157Z" fill="#9E0000"/>
<path opacity="0.4" d="M313.06 149.157L312.26 149.047C311.66 148.967 311.24 148.427 311.32 147.827C311.4 147.227 311.94 146.807 312.54 146.887L313.34 146.997C313.94 147.077 314.36 147.617 314.28 148.217C314.2 148.817 313.66 149.237 313.06 149.157Z" fill="#9E0000"/>
<path d="M323.87 159.047L317.93 164.877L320.31 172.027L328.57 162.927L323.87 159.047Z" fill="#9E0000"/>
<path d="M315.28 160.268L316.24 164.758L313.17 171.108L311.25 162.858L315.28 160.268Z" fill="#9E0000"/>
<path d="M322.6 164.107L326.05 151.477C326.05 151.477 324.38 148.327 324.74 147.677C325.1 147.017 326.9 138.537 328.18 137.617C329.46 136.697 334.72 138.267 335.26 139.127C335.8 139.987 330.22 151.477 330.22 151.477L328.19 165.157L322.61 164.107H322.6Z" fill="#E4897B"/>
<path d="M343.04 166.227C352.53 175.947 333.5 197.967 322.6 197.027C311.7 196.087 322.87 156.167 322.87 156.167L329.85 157.317C329.85 157.317 327.4 174.597 328.17 175.947C328.94 177.307 339.84 162.957 343.03 166.227H343.04Z" fill="#407BFF"/>
<path d="M343.04 166.227C352.53 175.947 333.5 197.967 322.6 197.027C311.7 196.087 322.87 156.167 322.87 156.167L329.85 157.317C329.85 157.317 327.4 174.597 328.17 175.947C328.94 177.307 339.84 162.957 343.03 166.227H343.04Z" fill="#9E0000"/>
<path d="M322.3 154.888L321.27 158.188L331 159.048V156.168L322.3 154.888Z" fill="#CE5151"/>
<path opacity="0.6" d="M307.55 180.998H303.61C303.174 180.998 302.82 181.351 302.82 181.788V189.228C302.82 189.664 303.174 190.018 303.61 190.018H307.55C307.986 190.018 308.34 189.664 308.34 189.228V181.788C308.34 181.351 307.986 180.998 307.55 180.998Z" fill="white"/>
<path opacity="0.2" d="M307.63 181.587H303.15V187.717H307.63V181.587Z" fill="black"/>
<path d="M305.99 178.817H305V182.427H305.99V178.817Z" fill="#263238"/>
<path d="M223.71 334.368C224.71 333.908 225.79 333.638 226.88 333.558C226.88 333.558 230.68 331.318 234.44 322.638L238.67 322.618C240.14 322.638 241.43 323.568 241.92 324.948C241.99 325.138 242.03 325.338 242.04 325.538C242 326.558 241.89 327.578 241.71 328.588C241.33 331.758 239.24 338.548 239.24 338.548L238.52 338.368L239.82 332.048C240.25 329.898 238 331.978 236.95 334.138C235.9 336.298 234.3 338.478 229.62 337.408C224.17 336.138 221.98 335.348 223.68 334.368H223.71Z" fill="#9E0000"/>
<path d="M235.21 320.357C235.21 320.357 229.92 331.417 226.88 333.557C226.88 333.557 230.96 335.987 235.21 330.577C240.7 323.577 242.05 325.527 242.05 325.527C242.05 325.527 241.82 323.127 241.39 321.957C240.56 319.697 235.21 320.357 235.21 320.357Z" fill="#E4897B"/>
<path d="M281.93 360.718C282.79 360.038 283.77 359.518 284.82 359.178C284.82 359.178 287.98 356.108 289.58 346.778L293.69 345.748C295.12 345.418 296.6 346.008 297.4 347.238C297.51 347.408 297.6 347.588 297.66 347.778C297.86 348.778 298 349.798 298.07 350.818C298.45 353.988 298.03 361.078 298.03 361.078H297.29L297.06 354.628C296.97 352.438 295.27 354.988 294.77 357.338C294.27 359.688 293.22 362.188 288.43 362.258C282.84 362.308 280.52 362.068 281.94 360.718H281.93Z" fill="#9E0000"/>
<path d="M289.78 344.387C289.78 344.387 287.27 356.387 284.82 359.177C284.82 359.177 289.36 360.577 292.2 354.307C295.88 346.197 297.65 347.787 297.65 347.787C297.65 347.787 296.86 345.517 296.16 344.477C294.82 342.477 289.78 344.387 289.78 344.387Z" fill="#E4897B"/>
<path d="M382.76 102.337H347.85C345.05 102.337 342.78 104.607 342.78 107.407V122.337C342.78 125.137 345.05 127.407 347.85 127.407H382.76C385.56 127.407 387.83 125.137 387.83 122.337V107.407C387.83 104.607 385.56 102.337 382.76 102.337Z" fill="#9E0000"/>
<path d="M354.85 124.558L344.33 138.858L361.3 125.518L354.85 124.558Z" fill="#9E0000"/>
<path d="M355.24 114.877C355.24 115.687 354.58 116.357 353.76 116.357C352.94 116.357 352.28 115.697 352.28 114.877C352.28 114.057 352.94 113.397 353.76 113.397C354.58 113.397 355.24 114.057 355.24 114.877Z" fill="white"/>
<path d="M362.93 114.877C362.93 115.687 362.27 116.357 361.45 116.357C360.63 116.357 359.97 115.697 359.97 114.877C359.97 114.057 360.63 113.397 361.45 113.397C362.27 113.397 362.93 114.057 362.93 114.877Z" fill="white"/>
<path d="M370.62 114.877C370.62 115.687 369.96 116.357 369.14 116.357C368.32 116.357 367.66 115.697 367.66 114.877C367.66 114.057 368.32 113.397 369.14 113.397C369.96 113.397 370.62 114.057 370.62 114.877Z" fill="white"/>
<path d="M378.31 114.877C378.31 115.687 377.65 116.357 376.83 116.357C376.01 116.357 375.35 115.697 375.35 114.877C375.35 114.057 376.01 113.397 376.83 113.397C377.65 113.397 378.31 114.057 378.31 114.877Z" fill="white"/>
<path d="M179.81 194.237H141.85V202.017H179.81V194.237Z" fill="white"/>
<path opacity="0.1" d="M179.81 194.237H141.85V202.017H179.81V194.237Z" fill="black"/>
<path opacity="0.1" d="M157.84 194.237H141.85V202.017H157.84V194.237Z" fill="black"/>
<path opacity="0.1" d="M141.85 195.357H175.64L141.85 196.317V195.357Z" fill="black"/>
<path opacity="0.1" d="M179.81 196.708L150.52 197.438H179.81V196.708Z" fill="black"/>
<path opacity="0.1" d="M143.4 198.887L157.84 198.287L179.07 198.887L157.84 199.217L143.4 198.887Z" fill="black"/>
<path opacity="0.1" d="M141.85 200.537H166.87L141.85 201.127V200.537Z" fill="black"/>
<path opacity="0.1" d="M179.75 201.127L163.05 201.437H179.81L179.75 201.127Z" fill="black"/>
<path d="M174.53 186.447H136.57V194.227H174.53V186.447Z" fill="white"/>
<path opacity="0.1" d="M174.53 186.447H136.57V194.227H174.53V186.447Z" fill="black"/>
<path opacity="0.1" d="M152.56 186.447H136.57V194.227H152.56V186.447Z" fill="black"/>
<path opacity="0.1" d="M136.57 187.577H170.36L136.57 188.527V187.577Z" fill="black"/>
<path opacity="0.1" d="M174.53 188.927L145.24 189.647H174.53V188.927Z" fill="black"/>
<path opacity="0.1" d="M138.11 191.097L152.55 190.507L173.78 191.097L152.55 191.427L138.11 191.097Z" fill="black"/>
<path opacity="0.1" d="M136.57 192.747H161.59L136.57 193.337V192.747Z" fill="black"/>
<path opacity="0.1" d="M174.47 193.337L157.76 193.647H174.53L174.47 193.337Z" fill="black"/>
<path d="M178.86 178.667H140.9V186.447H178.86V178.667Z" fill="white"/>
<path opacity="0.1" d="M178.86 178.667H140.9V186.447H178.86V178.667Z" fill="black"/>
<path opacity="0.1" d="M156.89 178.667H140.9V186.447H156.89V178.667Z" fill="black"/>
<path opacity="0.1" d="M140.9 179.788H174.69L140.9 180.748V179.788Z" fill="black"/>
<path opacity="0.1" d="M178.86 181.138L149.57 181.868H178.86V181.138Z" fill="black"/>
<path opacity="0.1" d="M142.45 183.317L156.89 182.717L178.12 183.317L156.89 183.647L142.45 183.317Z" fill="black"/>
<path opacity="0.1" d="M140.9 184.967H165.92L140.9 185.557V184.967Z" fill="black"/>
<path opacity="0.1" d="M178.81 185.558L162.1 185.868H178.86L178.81 185.558Z" fill="black"/>
<path d="M204.15 201.857L205.13 198.127H245.68L264.36 199.997L265.07 201.857H204.15Z" fill="#263238"/>
<path opacity="0.4" d="M245.68 198.127V201.857H204.15L205.13 198.127H245.68Z" fill="black"/>
<path d="M237.54 180.278C237.72 182.248 236.28 183.848 234.32 183.848H172.2C170.23 183.848 168.49 182.248 168.31 180.278L164.62 140.508C164.58 140.098 164.61 139.708 164.7 139.348C165.05 137.948 166.28 136.938 167.84 136.938H229.96C231.93 136.938 233.67 138.538 233.85 140.508L237.54 180.278Z" fill="#263238"/>
<path opacity="0.4" d="M234.1 183.848H172.2C170.23 183.848 168.49 182.248 168.31 180.278L164.62 140.508C164.58 140.098 164.61 139.708 164.7 139.348H226.6C228.56 139.348 230.3 140.948 230.49 142.918L234.18 182.688C234.22 183.098 234.18 183.488 234.1 183.848Z" fill="black"/>
<path d="M191.42 159.447H204.27L200.85 196.247L221.17 199.297V201.857H178.37V199.297L187.14 196.247L191.42 159.447Z" fill="#263238"/>
<path opacity="0.1" d="M204.27 159.447L194.75 201.277L187.14 201.047L191.42 159.447H204.27Z" fill="white"/>
<path d="M204.21 362.268H198.09L187.08 209.018H195.21L204.21 362.268Z" fill="#263238"/>
<path opacity="0.4" d="M204.22 362.268H198.09L187.62 216.628L187.08 209.268H195.21L195.65 216.628L204.22 362.268Z" fill="white"/>
<path opacity="0.2" d="M195.65 216.268H187.62L187.08 209.268H195.21L195.65 216.268Z" fill="black"/>
<path d="M249.17 362.268H243.05L242.05 209.018H250.17L249.17 362.268Z" fill="#263238"/>
<path opacity="0.5" d="M250.18 209.268L250.02 233.988L249.18 362.268H243.05L242.21 233.988L242.05 209.268H250.18Z" fill="white"/>
<path opacity="0.2" d="M250.18 209.268L250.02 234.268H242.21L242.05 209.268H250.18Z" fill="black"/>
<path d="M314.21 362.268H308.09L297.08 209.018H305.21L314.21 362.268Z" fill="#263238"/>
<path opacity="0.5" d="M314.22 362.268H308.09L297.62 216.628L297.08 209.268H305.21L305.65 216.628L314.22 362.268Z" fill="white"/>
<path opacity="0.2" d="M305.65 216.268H297.62L297.08 209.268H305.21L305.65 216.268Z" fill="black"/>
<path d="M134.13 362.268H128.01L137.01 209.018H145.14L134.13 362.268Z" fill="#263238"/>
<path opacity="0.5" d="M145.14 209.268L144.6 216.628L134.13 362.268H128.01L136.57 216.628L137.01 209.268H145.14Z" fill="white"/>
<path opacity="0.2" d="M137.01 209.268H145.14L144.6 216.268H136.57L137.01 209.268Z" fill="black"/>
<path d="M130.57 205.178H311.65V210.688C311.65 211.878 310.68 212.848 309.49 212.848H132.73C131.54 212.848 130.57 211.878 130.57 210.688V205.178Z" fill="#407BFF"/>
<path d="M130.57 205.178H311.65V210.688C311.65 211.878 310.68 212.848 309.49 212.848H132.73C131.54 212.848 130.57 211.878 130.57 210.688V205.178Z" fill="#CE5151"/>
<path opacity="0.2" d="M311.65 205.178H130.57V209.018H311.65V205.178Z" fill="black"/>
<path d="M315.45 206.188H126.77C125.58 206.188 124.61 205.218 124.61 204.028C124.61 202.838 125.58 201.868 126.77 201.868H315.45C316.64 201.868 317.61 202.838 317.61 204.028C317.61 205.218 316.64 206.188 315.45 206.188Z" fill="#407BFF"/>
<path d="M315.45 206.188H126.77C125.58 206.188 124.61 205.218 124.61 204.028C124.61 202.838 125.58 201.868 126.77 201.868H315.45C316.64 201.868 317.61 202.838 317.61 204.028C317.61 205.218 316.64 206.188 315.45 206.188Z" fill="#CE5151"/>
<path d="M270.81 195.197L273.13 191.717C273.59 191.027 274.37 190.607 275.21 190.607H278.15C278.4 190.607 278.64 190.647 278.87 190.717L289.36 193.897C289.96 194.077 290.46 194.477 290.78 195.007L292.28 197.537L270.8 195.197H270.81Z" fill="#407BFF"/>
<path d="M292.29 197.537L277.02 195.877L270.81 195.197L273.13 191.717C273.59 191.027 274.37 190.607 275.21 190.607H278.15C278.4 190.607 278.64 190.647 278.88 190.717L279.11 190.787L289.36 193.897C289.96 194.077 290.47 194.467 290.79 195.007L292.29 197.537Z" fill="#CE5151"/>
<path opacity="0.2" d="M292.29 197.538L277.02 195.878L279.11 190.788L289.36 193.898C289.96 194.078 290.47 194.468 290.79 195.008L292.29 197.538Z" fill="black"/>
<path d="M299.55 201.527V201.857H267.13L268.33 197.167C268.8 195.407 270.4 194.177 272.22 194.177H286.6C287.08 194.177 287.55 194.257 288 194.427L289.8 195.097L296.94 197.757C298.51 198.347 299.55 199.847 299.55 201.527Z" fill="#CE5151"/>
<path opacity="0.2" d="M299.55 201.527V201.857H286.24L286.95 196.787C287.14 195.447 288.53 194.627 289.8 195.097L296.94 197.757C298.51 198.347 299.55 199.847 299.55 201.527Z" fill="black"/>
<path d="M288.31 198.407L292.54 185.697C292.72 185.147 293.35 184.897 293.87 185.157C294.26 185.357 294.46 185.807 294.35 186.237L290.78 199.807C290.78 199.807 288.41 200.767 288.31 198.407Z" fill="#263238"/>
<path opacity="0.2" d="M270.81 200.808H268.93L269.29 198.958H271.17L270.81 200.808Z" fill="black"/>
<path opacity="0.2" d="M273.61 200.727H271.73L272.09 198.887H273.97L273.61 200.727Z" fill="black"/>
</g>
<defs>
<clipPath id="clip0_163_365">
<rect width="500" height="372.61" fill="white" transform="translate(0 0.147461)"/>
</clipPath>
</defs>
</svg>
