<svg width="20" height="20" viewBox="0 0 20 20" fill="none" xmlns="http://www.w3.org/2000/svg">
<g clip-path="url(#clip0_8_107)">
<path d="M9.99996 2.5C10.2041 2.50003 10.4011 2.57496 10.5536 2.7106C10.7061 2.84623 10.8036 3.03312 10.8275 3.23583L10.8333 3.33333V4.16667H12.0833C13.7231 4.16708 15.297 4.81193 16.4657 5.96215C17.6345 7.11237 18.3043 8.67583 18.3309 10.3154C18.3574 11.955 17.7386 13.5393 16.6078 14.7268C15.4769 15.9143 13.9247 16.6098 12.2858 16.6633L12.0833 16.6667H7.91662C6.27683 16.6662 4.70289 16.0214 3.53418 14.8712C2.36546 13.721 1.6956 12.1575 1.66903 10.5179C1.64247 8.87836 2.26132 7.29402 3.39215 6.10653C4.52299 4.91905 6.07521 4.22355 7.71412 4.17L7.91662 4.16667H9.16662V3.33333C9.16662 3.11232 9.25442 2.90036 9.4107 2.74408C9.56698 2.5878 9.77894 2.5 9.99996 2.5ZM12.9166 8.33333C12.6956 8.33333 12.4836 8.42113 12.3274 8.57741C12.1711 8.73369 12.0833 8.94565 12.0833 9.16667V9.58333H11.6666C11.4456 9.58333 11.2336 9.67113 11.0774 9.82741C10.9211 9.98369 10.8333 10.1957 10.8333 10.4167C10.8333 10.6377 10.9211 10.8496 11.0774 11.0059C11.2336 11.1622 11.4456 11.25 11.6666 11.25H12.0833V11.6667C12.0833 11.8877 12.1711 12.0996 12.3274 12.2559C12.4836 12.4122 12.6956 12.5 12.9166 12.5C13.1376 12.5 13.3496 12.4122 13.5059 12.2559C13.6622 12.0996 13.75 11.8877 13.75 11.6667V11.25H14.1666C14.3876 11.25 14.5996 11.1622 14.7559 11.0059C14.9122 10.8496 15 10.6377 15 10.4167C15 10.1957 14.9122 9.98369 14.7559 9.82741C14.5996 9.67113 14.3876 9.58333 14.1666 9.58333H13.75V9.16667C13.75 8.94565 13.6622 8.73369 13.5059 8.57741C13.3496 8.42113 13.1376 8.33333 12.9166 8.33333ZM7.08329 8.33333C6.53076 8.33333 6.00085 8.55283 5.61015 8.94353C5.21945 9.33423 4.99996 9.86413 4.99996 10.4167C4.99996 10.9692 5.21945 11.4991 5.61015 11.8898C6.00085 12.2805 6.53076 12.5 7.08329 12.5C7.63582 12.5 8.16573 12.2805 8.55643 11.8898C8.94713 11.4991 9.16662 10.9692 9.16662 10.4167C9.16662 9.86413 8.94713 9.33423 8.55643 8.94353C8.16573 8.55283 7.63582 8.33333 7.08329 8.33333ZM7.08329 10C7.1938 10 7.29978 10.0439 7.37792 10.122C7.45606 10.2002 7.49996 10.3062 7.49996 10.4167C7.49996 10.5272 7.45606 10.6332 7.37792 10.7113C7.29978 10.7894 7.1938 10.8333 7.08329 10.8333C6.97278 10.8333 6.8668 10.7894 6.78866 10.7113C6.71052 10.6332 6.66662 10.5272 6.66662 10.4167C6.66662 10.3062 6.71052 10.2002 6.78866 10.122C6.8668 10.0439 6.97278 10 7.08329 10Z" fill="#B01921"/>
</g>
<defs>
<clipPath id="clip0_8_107">
<rect width="20" height="20" fill="white"/>
</clipPath>
</defs>
</svg>
