<svg width="72" height="72" fill="none" xmlns="http://www.w3.org/2000/svg"><path d="M22.287 13.852C25.203 9.155 30.389 6.207 36 6.207c5.57 0 10.741 2.92 13.667 7.571.05-.05.093-.104.144-.154a8.653 8.653 0 012.62-1.742l1.409-3.297-3.961-3.962-3.491 2.272-.668-.41a18.523 18.523 0 00-5.375-2.23l-.765-.184L38.717 0h-5.436l-.861 4.071-.764.183a18.543 18.543 0 00-5.375 2.23l-.668.41-3.49-2.272-3.967 3.966 1.393 3.32a8.782 8.782 0 012.738 1.944z" fill="rgba(185, 9, 27, 1)"/><path d="M36.889 68.771c-.191.426-.45.821-.782 1.154l-.933.932.929.819c.236.209.54.324.855.324h.23a1.296 1.296 0 00.83-2.29l-1.13-.939zM33.367 65.793a1.4 1.4 0 00-.984.408L30.2 68.383a1.393 1.393 0 001.969 1.969l2.182-2.183a1.393 1.393 0 00-.984-2.376zM13.036 27.714l.619.358v3.932l-2.823.705 6.547 3.82-.047 2.295-.1.352 3.871-.862v-.92c0-1.669.674-3.197 1.778-4.326l-4.26-1.064-.004-3.929.62-.359a6.23 6.23 0 003.108-5.371v-2.17c0-3.493-2.699-6.417-6.016-6.516a6.13 6.13 0 00-4.514 1.748 6.158 6.158 0 00-1.884 4.455v2.483a6.224 6.224 0 003.105 5.369zM0 28.552v22.69l5.328 1.777L9.833 35 0 28.552z" fill="#dc848d"/><path d="M50.897 29.468a8.716 8.716 0 01-3.725-7.123v-2.483c0-1.368.322-2.68.913-3.865C45.735 11.541 41.064 8.69 36 8.69c-5.112 0-9.804 2.89-12.136 7.407a9.15 9.15 0 01.963 4.078v2.17a8.717 8.717 0 01-3.725 7.124v.595l4.967 1.243 4.965-1.243v-.596a8.716 8.716 0 01-3.724-7.123v-2.483c0-2.37.937-4.585 2.64-6.236a8.631 8.631 0 016.317-2.45c4.644.141 8.423 4.177 8.423 9v2.17a8.717 8.717 0 01-3.726 7.123v.595l4.967 1.243 4.966-1.243v-.596z" fill="rgba(185, 9, 27, 1)"/><path d="M14.896 37.954l-2.83-1.651-4.377 17.503 2.443.814h.104l4.66-16.311v-.355zM26.407 33.78a3.721 3.721 0 00-2.82 3.614v.367l.71-.157a15.33 15.33 0 017.955.362l5.62 1.796c.622.024 1.241.092 1.841.264l7.633 2.18h.761l.307-.16v-4.652a3.721 3.721 0 00-2.82-3.614l-7.11-1.776-.005-3.929.62-.359a6.23 6.23 0 003.108-5.371v-2.17c0-3.493-2.699-6.417-6.016-6.516a6.138 6.138 0 00-4.513 1.748 6.158 6.158 0 00-1.885 4.455v2.483a6.224 6.224 0 003.105 5.369l.62.358v3.932l-7.111 1.776zM49.655 19.862v2.483a6.224 6.224 0 003.105 5.369l.62.358v3.932l-4.261 1.064a6.18 6.18 0 011.778 4.326v3.344l13.651-7.185-6.202-1.55-.005-3.928.62-.359a6.23 6.23 0 003.108-5.371v-2.17c0-3.493-2.699-6.417-6.016-6.516-1.684-.066-3.297.57-4.513 1.748a6.158 6.158 0 00-1.885 4.455zM38.724 49.06a2.56 2.56 0 00-2.977-.286l-4.623 2.772a4.145 4.145 0 01-2.137.592 4.164 4.164 0 01-4.16-4.159v-.245c0-1.585.88-3.01 2.3-3.72l6.2-3.1-1.83-.584a12.79 12.79 0 00-6.66-.302l-8.38 1.864-3.343 11.7 3.814 2.288c.109-.147.217-.295.347-.425l2.182-2.182a3.89 3.89 0 012.738-1.135 3.87 3.87 0 013.86 3.738A3.865 3.865 0 0129.78 59.6a3.865 3.865 0 013.725 3.724 3.862 3.862 0 013.333 2.17l2.77 2.309c.365.304.829.473 1.305.473a1.296 1.296 0 00.83-2.29l-6.538-5.446 1.59-1.908 6.744 5.618c.232.195.526.302.828.302h.27a1.296 1.296 0 00.83-2.29l-6.538-5.447 1.591-1.908 6.732 5.61c.238.2.544.31.854.31h.214a1.336 1.336 0 00.895-2.327l-10.49-9.44z" fill="#dc848d"/><path d="M48.72 44.69l-1.888-.048-7.8-2.228a5.402 5.402 0 00-3.87.36l-6.924 3.461c-.572.287-.928.86-.928 1.499v.245a1.678 1.678 0 002.535 1.44l4.625-2.774a4.988 4.988 0 015.916.57l10.487 9.44c.075.066.145.134.213.207L72 46.405V32.437L48.72 44.69zM27.31 59.737a1.393 1.393 0 00-2.376-.985l-2.182 2.182a1.393 1.393 0 001.969 1.969l2.182-2.182c.26-.26.408-.618.408-.984zM31.035 63.46a1.393 1.393 0 00-2.376-.984l-2.182 2.183a1.393 1.393 0 001.969 1.969l2.181-2.183c.26-.26.408-.618.408-.984zM23.586 56.012a1.393 1.393 0 00-2.376-.984l-2.182 2.182a1.393 1.393 0 001.969 1.969l2.182-2.182c.26-.26.407-.618.407-.985z" fill="#dc848d"/></svg>