<svg width="20" height="20" viewBox="0 0 20 20" fill="none" xmlns="http://www.w3.org/2000/svg">
<g clip-path="url(#clip0_6_24)">
<path fill-rule="evenodd" clip-rule="evenodd" d="M5.66136 3.65193C6.91822 2.38591 8.65763 1.66666 10.8392 1.66666C13.0217 1.66666 14.7593 2.38682 16.0171 3.65193C17.0776 4.71888 17.7418 6.11977 18.0813 7.66377C18.1317 7.67294 18.1822 7.68487 18.2317 7.69863C19.029 7.91147 19.5427 8.53898 19.7932 9.21236C20.0436 9.88757 20.0675 10.6848 19.8601 11.4591C19.5693 12.5444 18.7913 13.615 17.6565 13.904C16.4162 16.8865 13.6704 19.0975 10.8392 19.0975C8.00718 19.0975 5.26137 16.8847 4.02195 13.9031C2.88895 13.6123 2.11282 12.5426 1.822 11.4591C1.61467 10.6848 1.63852 9.88757 1.88897 9.21144C2.13943 8.53898 2.65318 7.91147 3.45041 7.69771C3.49903 7.68487 3.54765 7.67386 3.59719 7.66469C3.93663 6.11977 4.60084 4.7198 5.66136 3.65193Z" fill="#B01921"/>
</g>
<defs>
<clipPath id="clip0_6_24">
<rect width="20" height="20" fill="white"/>
</clipPath>
</defs>
</svg>
