<svg width="49" height="62" viewBox="0 0 49 62" fill="none" xmlns="http://www.w3.org/2000/svg">
<path fill-rule="evenodd" clip-rule="evenodd" d="M46.0234 41.3576C43.9814 38.2876 39.0457 35.9569 34.8478 34.7639C30.6499 33.5698 29.3034 30.9123 29.6013 29.6758C29.8993 28.4394 30.82 28.8237 31.7536 27.0595C32.5489 25.5562 33.0896 22.0443 33.0896 22.0443C33.0896 22.0443 35.0038 21.4049 35.2173 18.5065C35.4296 15.6069 35.2173 14.5409 34.4936 14.2C33.7699 13.8592 33.472 13.9015 33.472 13.9015C33.472 13.9015 33.9447 9.77719 33.9482 8.91331C33.9517 7.81906 34.0502 6.74479 33.7441 5.63056C32.6404 1.6238 28.066 -0.0816313 22.7562 0.00299378C17.4463 0.0887942 17.3642 1.70842 16.2617 2.90258C15.1591 4.09555 14.4237 3.15763 13.4431 4.99117C12.8508 6.09952 13.422 11.3439 13.422 11.3439C13.6003 12.7955 13.7997 13.9015 13.7997 13.9015C13.7997 13.9015 13.5018 13.8592 12.7781 14.2C12.0556 14.5409 11.8421 15.6069 12.0556 18.5065C12.2679 21.4049 14.1821 22.0443 14.1821 22.0443C14.1821 22.0443 14.7228 25.5562 15.5192 27.0595C16.4517 28.8237 17.3736 28.4394 17.6715 29.6758C17.9695 30.9123 16.6218 33.5698 12.4239 34.7639C8.22599 35.9569 3.29033 38.2876 1.24827 41.3576C-0.295298 43.6789 -0.0560218 47.594 0.152758 49.3641C0.214923 49.8883 8.54268 52.5046 23.8329 52.5046C39.1231 52.5046 47.0568 49.8883 47.1189 49.3641C47.3277 47.594 47.5682 43.6789 46.0234 41.3576Z" fill="#dc848d"/>
<path fill-rule="evenodd" clip-rule="evenodd" d="M36.2997 26.7382L37.0563 26.2845C38.1999 25.6004 39.6813 26.1411 40.1176 27.4011L40.4061 28.2356C40.6595 28.9678 41.294 29.5002 42.0564 29.6236L42.9267 29.7635C44.2416 29.9762 45.0298 31.3444 44.5559 32.5902L44.2416 33.4165C43.9671 34.1393 44.1102 34.9562 44.6157 35.5427L45.1928 36.2103C46.0643 37.2187 45.7898 38.7749 44.6275 39.4249L43.8569 39.855C43.1824 40.2323 42.7684 40.9505 42.7801 41.725L42.793 42.6077C42.813 43.9417 41.6049 44.9572 40.2982 44.7057L39.4326 44.5388C38.6725 44.3931 37.8949 44.6775 37.4081 45.2781L36.851 45.9633C36.0112 46.9976 34.4336 46.9976 33.5938 45.9633L33.0378 45.2781C32.5499 44.6775 31.7722 44.3931 31.0134 44.5388L30.1477 44.7057C28.8399 44.9572 27.6318 43.9417 27.6518 42.6077L27.6647 41.725C27.6764 40.9505 27.2635 40.2323 26.5879 39.855L25.8185 39.4249C24.6549 38.7749 24.3817 37.2187 25.252 36.2103L25.829 35.5427C26.3346 34.9562 26.4788 34.1393 26.2032 33.4165L25.8889 32.5902C25.415 31.3444 26.2032 29.9762 27.5181 29.7635L28.3884 29.6236C29.1519 29.5002 29.7853 28.9678 30.0387 28.2356L30.3272 27.4011C30.7647 26.1411 32.2461 25.6004 33.3885 26.2845L34.1451 26.7382C34.8089 27.1354 35.6359 27.1354 36.2997 26.7382Z" fill="rgba(185, 9, 27, 1)"/>
<path fill-rule="evenodd" clip-rule="evenodd" d="M37.7074 46.6248L37.0119 47.4816C35.961 48.7745 33.9904 48.7745 32.9407 47.4816L32.2451 46.6248C31.8991 46.1993 31.4323 45.9184 30.9232 45.7739V53.0786L35.1856 49.8018L39.5477 53.1785V45.6646C38.8381 45.7174 38.1696 46.0571 37.7074 46.6248Z" fill="rgba(185, 9, 27, 1)"/>
<ellipse cx="35.192" cy="36.2674" rx="6.47009" ry="6.48346" fill="white"/>
</svg>
