<svg width="26" height="26" fill="none" xmlns="http://www.w3.org/2000/svg">
  <g clip-path="url(#a)">
    <path d="M23.585 23.587a.642.642 0 0 1-.124-.012c-.266-.052-.446-.284-.447-.578a325.46 325.46 0 0 1-.001-1.768v-1.277l-.123-.055c-.973-.431-1.437-1.107-1.422-2.065.016-.914.476-1.559 1.408-1.972l.122-.054V8.399l-2.408.855-.007.138-.005.088c-.004.069-.01.141-.01.216 0 .415-.002.83-.004 1.245-.004 1.055-.008 2.148.012 3.222.011.603-.214 1.032-.728 1.39-.6.419-1.281.662-1.806.825-1.044.325-2.159.536-3.413.644a19.22 19.22 0 0 1-2.752.039c-1.738-.104-3.231-.402-4.561-.912-.565-.215-.989-.448-1.335-.732-.378-.31-.552-.678-.548-1.159.009-1.078.007-2.173.006-3.233l-.001-1.283v-.469l-.25-.097a6.687 6.687 0 0 0-.247-.094l-.677-.241C2.997 8.389 1.728 7.937.459 7.489c-.186-.066-.302-.15-.376-.272a.544.544 0 0 1-.055-.466.612.612 0 0 1 .378-.368c.267-.1.542-.196.81-.289l.348-.121L3.84 5.17c2.888-1.016 5.872-2.067 8.805-3.106.124-.043.24-.065.357-.065.117 0 .246.023.38.07 3.039 1.075 6.08 2.147 9.12 3.218l2.95 1.04c.068.024.148.053.217.087.222.107.331.275.332.511.001.246-.105.415-.318.503-.252.106-.516.2-.772.29a34.53 34.53 0 0 0-.351.124l-.185.07-.219.082V15.8l.122.054c1.015.456 1.476 1.183 1.408 2.222-.024.38-.211 1.315-1.412 1.813l-.127.052v1.198c0 .611.002 1.242-.002 1.862-.002.338-.237.584-.56.584Zm-.009-6.69a.97.97 0 0 0-.979.968c-.002.264.104.523.292.712a.967.967 0 0 0 .688.291c.53-.002.979-.45.984-.977a.972.972 0 0 0-.985-.992h-.002l.002-.002Zm-16.99-2.421.095.06c.041.027.083.055.124.084.103.072.21.146.333.2l.12.053c.344.152.7.31 1.067.425 1.187.374 2.478.584 3.952.643.257.01.515.015.766.015 1.337 0 2.637-.148 3.865-.44.627-.15 1.363-.355 2.052-.743a2.99 2.99 0 0 0 .276-.183c.034-.023.064-.046.094-.067l.09-.062v-4.77l-.27.086-.119.038c-.072.023-.132.041-.192.063l-1.185.42c-1.414.501-2.875 1.02-4.31 1.534a.973.973 0 0 1-.336.062c-.111 0-.225-.021-.347-.065-1.468-.528-2.962-1.057-4.406-1.57l-1.09-.387c-.065-.023-.132-.042-.205-.064l-.109-.032-.266-.08v4.779Zm6.422-11.282a.97.97 0 0 0-.323.059c-2.215.785-4.431 1.567-6.649 2.35l-1.756.62-2.006.71 10.733 3.814L23.7 6.945l-.52-.2-.104-.04c-.057-.023-.1-.04-.143-.055l-1.945-.687c-2.557-.903-5.114-1.805-7.67-2.712a.907.907 0 0 0-.31-.056v-.001Z" fill="#dc848d"/>
  </g>
  <defs>
    <clipPath id="a">
      <path fill="#fff" d="M0 0h26v26H0z"/>
    </clipPath>
  </defs>
</svg>
