<svg width="75" height="72" viewBox="0 0 75 72" fill="none" xmlns="http://www.w3.org/2000/svg">
<path d="M40 44.3376C41.2818 41.6592 41.9991 38.6628 41.9991 35.5C41.9991 32.3372 41.2818 29.3408 40 26.6624C43.1579 20.9061 49.3048 17 56.3704 17C66.6593 17 75 25.2828 75 35.5C75 45.7173 66.6593 54 56.3704 54C49.3048 54 43.1579 50.0939 40 44.3376Z" fill="#dc848d"/>
<path d="M59.3441 47C60.8191 47 62.0613 46.6761 62.6048 46.5141C62.8203 46.4499 63.0429 46.2727 62.9929 46.0282L62.3718 42.9507C62.3474 42.803 62.2391 42.6533 62.0613 42.7078C61.5955 42.7888 60.6639 43.0317 59.577 43.0317C56.8597 43.0317 54.4475 40.9107 53.5159 38.2381H58.9486C59.1039 38.2381 59.2592 38.1571 59.2592 37.9952L59.577 36.3639C59.577 36.2019 59.4217 36.0399 59.2664 36.0399H52.9003C52.8227 35.392 52.8227 34.4314 52.9003 33.8645H59.7111C59.8663 33.8645 60.0216 33.7835 60.0216 33.6215L60.3533 31.9906C60.3533 31.8287 60.1981 31.6667 60.0428 31.6667H53.4144C54.346 28.9942 56.4715 27.7254 59.3441 27.7254C60.198 27.7254 61.052 27.8874 61.4402 27.9683C61.5955 27.9683 61.7508 27.8874 61.7508 27.7254L62.5271 24.6479C62.5271 24.4859 62.4495 24.324 62.2942 24.324C61.7508 24.243 60.5862 24 59.3441 24C54.3754 24 50.5176 26.9695 49.1978 31.6667H47.3105C47.1553 31.6667 47 31.8287 47 31.9906V33.5405C47 33.7025 47.1553 33.8645 47.3105 33.8645H48.708C48.6303 34.5124 48.6303 35.554 48.708 36.0399H47.3105C47.1553 36.0399 47 36.2019 47 36.3639V37.9142C47 38.0762 47.1553 38.2381 47.3105 38.2381H49.0616C50.3038 43.0973 54.2201 47 59.3441 47Z" fill="white"/>
<path d="M21.5 55.5C32.5457 55.5 41.5 46.5457 41.5 35.5C41.5 24.4543 32.5457 15.5 21.5 15.5C10.4543 15.5 1.5 24.4543 1.5 35.5C1.5 46.5457 10.4543 55.5 21.5 55.5Z" fill="#dc848d" stroke="white" stroke-width="3"/>
<path d="M23.0118 48.6593V46.2745C26.0163 45.7634 27.8569 43.2082 28 40.142C28 33.4985 19.6304 34.0947 19.6304 30.6026C19.6304 29.0694 20.775 28.0473 22.2772 28.0473C23.994 28.0473 25.4247 29.1546 25.9255 29.6656C25.997 29.836 26.2116 29.7508 26.2832 29.5805L27.4277 27.0253C27.4993 26.9401 27.4277 26.7697 27.3562 26.6846C26.927 26.2587 25.3702 24.9738 23.0095 24.7182V22.3407C23.0095 22.1704 22.8665 22 22.7234 22H21.2882C21.1451 22 21.002 22.1704 21.002 22.3407V24.8108C18.2837 25.3218 16.2683 27.7067 16.2683 30.7729C16.2683 37.0757 24.6379 36.735 24.6379 40.3123C24.6379 42.0158 23.4218 42.8675 22.0626 42.8675C20.0596 42.8675 18.4143 41.4196 17.842 40.8234C17.7705 40.7382 17.5559 40.7382 17.4844 40.9085L16.0537 43.2934C15.9821 43.4638 15.9821 43.6341 16.0537 43.7193C16.5544 44.2303 18.3532 45.9338 21 46.2745V48.6593C21 48.8297 21.1431 49 21.2861 49H22.7257C22.8687 49 23.0118 48.8297 23.0118 48.6593Z" fill="white"/>
</svg>
