<svg xmlns="http://www.w3.org/2000/svg" width="76" height="53" fill="none" viewBox="0 0 76 53"><rect width="70" height="48" fill="#da828d" rx="3"/><path stroke="#b9091b" stroke-linejoin="round" stroke-width="2" d="M33 27v13h19m-19-5.2l5.5-2.6 4.5 2.6 5.5-5.2 2.25 2.6M33 7v7.2M63 19H33v-4.8m0 0l5-1.92 5.5 1.92L48 7.48l5 6.72 5-4.32 5 4.32" fill="#da828d"/><path stroke="#b9091b" stroke-width="2" d="M28 40h-6M20 40H6M6 35h6" fill="#da828d"/><circle cx="17.5" cy="18.5" r="12.5" fill="#da828d"/><path stroke="#b9091b" stroke-width="2" d="M15 35h13" fill="#da828d"/><path fill="#fff" d="M26.3388 27.3388c-1.7481 1.7482-3.9754 2.9387-6.4002 3.421-2.4247.4823-4.9381.2348-7.2221-.7113-2.2841-.9461-4.23635-2.5483-5.60987-4.6039C5.73311 23.389 5 20.9723 5 18.5h12.5l8.8388 8.8388z"/><circle cx="17.5" cy="18.5" r="11.5" stroke="#b9091b" stroke-width="2" fill="#da828d"/><path stroke="#b9091b" stroke-width="2" d="M6 18h10.7179L25 27" fill="#da828d"/><circle cx="58.927" cy="34.997" r="8.23019" fill="#fff" stroke="#b9091b" stroke-width="2"/><path stroke="#b9091b" stroke-width="2" d="M63.785 41.3125l10.6876 10.6876" fill="#da828d"/></svg>