<svg width="72" height="72" fill="none" xmlns="http://www.w3.org/2000/svg"><g clip-path="url(#a)"><path d="M35.96 71.994c-9.133 0-18.271.014-27.401 0-4.714 0-8.562-3.831-8.559-8.433.003-4.602 3.865-8.434 8.646-8.434 13.207-.01 26.419-.01 39.633 0 5.06 0 10.12-.014 15.179 0a8.587 8.587 0 0 1 8.497 7.63c.455 4.116-2.485 8.099-6.704 9.027a10.58 10.58 0 0 1-2.229.202c-9.036.015-18.057.018-27.063.008Zm-23.173-8.433a2.103 2.103 0 1 0-2.109 2.086 2.128 2.128 0 0 0 2.109-2.095v.009Zm8.432-.014a2.103 2.103 0 1 0-2.085 2.12 2.128 2.128 0 0 0 2.085-2.129v.009Zm8.433 0a2.103 2.103 0 1 0-2.089 2.117 2.13 2.13 0 0 0 2.091-2.123l-.002.006Zm8.432.02a2.104 2.104 0 1 0-2.108 2.08 2.128 2.128 0 0 0 2.111-2.086l-.003.005Zm8.433.014a2.102 2.102 0 1 0-2.108 2.066 2.127 2.127 0 0 0 2.11-2.072l-.002.006Zm6.324 2.066a2.102 2.102 0 1 0-2.077-2.126 2.128 2.128 0 0 0 2.077 2.126Zm8.433 0a2.103 2.103 0 1 0-2.08-2.126 2.128 2.128 0 0 0 2.08 2.126ZM65.656 43.014v-5.847l2.072-1.94v-6.73l-7.241-7.25H45.373l-7.258 7.275v6.657l2.072 1.903v6a3.831 3.831 0 0 1-.394-.282c-1.709-1.703-3.454-3.373-5.093-5.141a3.228 3.228 0 0 1-.79-1.92c-.09-2.643-.084-5.294 0-7.94a3.061 3.061 0 0 1 .765-1.86 305.69 305.69 0 0 1 8.098-8.1c.47-.449 1.253-.637 1.925-.795.562-.126 1.158-.025 1.785-.025V4.225H36.285c-1.433 0-2.392-.843-2.406-2.086C33.865.897 34.832.003 36.305 0h33.233c1.481 0 2.445.843 2.431 2.134-.014 1.29-.967 2.088-2.403 2.091H59.359v12.73c.124.037.253.055.383.053 1.92-.326 3.255.545 4.523 1.914 2.18 2.353 4.556 4.523 6.746 6.862.539.618.86 1.397.913 2.215.11 2.598.065 5.201.02 7.801 0 .506-.144 1.147-.472 1.485-1.884 1.937-3.848 3.809-5.816 5.729Z" fill="#92C9EC"/><path d="M61.395 50.874H44.409V36.324c0-1.6.843-2.444 2.414-2.444h12.368c1.332 0 2.232.872 2.235 2.182.014 4.827 0 9.65 0 14.477 0 .099-.017.189-.031.335ZM27.544 50.877h-16.83c0-.24-.033-.464-.033-.689V36.343c0-1.642.815-2.457 2.46-2.457h12.01c1.558 0 2.4.843 2.4 2.375.007 4.847-.007 9.707-.007 14.616Z" fill="#103654"/></g><defs><clipPath id="a"><path fill="#fff" d="M0 0h72v72H0z"/></clipPath></defs></svg>