<svg width="85" height="70" viewBox="0 0 85 70" fill="none" xmlns="http://www.w3.org/2000/svg">
<path d="M28.23 43.4265L58.2477 65.9734M28.23 43.4265L50.8849 28.2072M28.23 43.4265L31.6283 25.3889M28.23 43.4265L5.00879 29.3346M28.23 43.4265L61.0796 46.2448M58.2477 65.9734L61.0796 46.2448M58.2477 65.9734L79.7699 37.7897M61.0796 46.2448L50.8849 28.2072M61.0796 46.2448L79.7699 37.7897M50.8849 28.2072L41.8229 6.7876M50.8849 28.2072L31.6283 25.3889M50.8849 28.2072L64.4778 16.3701M31.6283 25.3889L21.4336 10.7333M31.6283 25.3889L5.00879 29.3346M31.6283 25.3889L41.8229 6.7876M5.00879 29.3346L21.4336 10.7333M21.4336 10.7333L41.8229 6.7876M41.8229 6.7876L64.4778 16.3701M64.4778 16.3701L79.7699 37.7897" stroke="#103654" stroke-width="3"/>
<circle cx="57.9558" cy="64.1858" r="5" fill="#92C9EC"/>
<circle cx="60.292" cy="44.7168" r="5" fill="#92C9EC"/>
<circle cx="29.1416" cy="43.1593" r="5" fill="#92C9EC"/>
<circle cx="51.7256" cy="27.5841" r="5" fill="#92C9EC"/>
<circle cx="32.2566" cy="24.469" r="5" fill="#92C9EC"/>
<circle cx="21.354" cy="8.8938" r="5" fill="#92C9EC"/>
<circle cx="5" cy="27.5841" r="5" fill="#92C9EC"/>
<circle cx="42.3806" cy="5" r="5" fill="#92C9EC"/>
<circle cx="64.9646" cy="15.9027" r="5" fill="#92C9EC"/>
<circle cx="79.761" cy="38.4867" r="5" fill="#92C9EC"/>
</svg>
