<svg width="72" height="72" fill="none" xmlns="http://www.w3.org/2000/svg"><path d="M18.059 71.321c-10.948 0-16.91-1.855-16.954-2.231-.145-1.254-.32-4.036.833-5.68 1.449-2.182 4.934-3.834 7.97-4.689 3.036-.855 3.978-2.746 3.76-3.622-.217-.877-.876-.609-1.543-1.862a15.522 15.522 0 01-.927-3.572s-1.37-.457-1.522-2.515c-.152-2.057 0-2.818.514-3.057.224-.122.471-.196.725-.218 0 0-.145-.782-.268-1.81 0 0-.428-3.732 0-4.522.703-1.304 1.126-.314 2.014-1.362.888-1.048 1.244-2.181 4.92-2.181s6.825 1.217 7.6 4c.156.767.205 1.552.145 2.333 0 .644-.34 3.543-.34 3.543.254.02.5.095.724.217.514.239.667 1 .514 3.057-.152 2.058-1.521 2.515-1.521 2.515a15.519 15.519 0 01-.956 3.564c-.667 1.254-1.334.978-1.544 1.862-.21.884.783 2.775 3.76 3.623 2.979.848 6.522 2.514 7.97 4.688 1.11 1.652.935 4.434.79 5.688 0 .376-5.716 2.231-16.664 2.231z" stroke="#dc848d"/><path d="M55.213 53.477H31.45L25.608 67.5H8.5v4h37.451l9.262-18.023z" fill="#fff" stroke="#dc848d"/><mask id="a" maskUnits="userSpaceOnUse" x="33" y="0" width="39" height="38" fill="#000"><path fill="#fff" d="M33 0h39v38H33z"/><path fill-rule="evenodd" clip-rule="evenodd" d="M52.5 36C62.717 36 71 28.165 71 18.5S62.717 1 52.5 1 34 8.835 34 18.5c0 3.684 1.203 7.102 3.259 9.922l-2.077 7.417 7.973-2.233A19.224 19.224 0 0052.5 36z"/></mask><path d="M37.259 28.422l.963.27.13-.467-.285-.392-.808.589zm-2.077 7.417l-.963-.27-.48 1.712 1.713-.48-.27-.962zm7.973-2.233l.485-.874-.36-.2-.395.111.27.963zM70 18.5C70 27.561 62.218 35 52.5 35v2C63.217 37 72 28.769 72 18.5h-2zM52.5 2C62.218 2 70 9.439 70 18.5h2C72 8.231 63.217 0 52.5 0v2zM35 18.5C35 9.439 42.782 2 52.5 2V0C41.783 0 33 8.231 33 18.5h2zm3.067 9.333C36.13 25.175 35 21.962 35 18.5h-2c0 3.907 1.277 7.53 3.45 10.511l1.617-1.178zm-1.771.32l-2.077 7.416 1.926.54 2.077-7.417-1.926-.54zm-.844 8.649l7.973-2.233-.54-1.926-7.973 2.233.54 1.926zM52.5 35c-3.237 0-6.264-.828-8.86-2.268l-.97 1.749A20.224 20.224 0 0052.5 37v-2z" fill="#dc848d" mask="url(#a)"/><path d="M59.5 18.5a3 3 0 106 0 3 3 0 00-6 0zM49.5 18.5a3 3 0 106 0 3 3 0 00-6 0zM39.5 18.5a3 3 0 106 0 3 3 0 00-6 0z" stroke="#dc848d"/></svg>