<svg width="26" height="26" fill="none" xmlns="http://www.w3.org/2000/svg">
  <g clip-path="url(#a)">
    <path d="M5.68 25.893a1.088 1.088 0 0 1-.693-.255c-.401-.322-.545-.75-.427-1.27.477-2.115 1.043-4.614 1.623-7.114a.677.677 0 0 0-.241-.748c-1.52-1.32-3.06-2.673-4.55-3.98l-.93-.815C.035 11.337-.1 10.895.063 10.4c.162-.496.517-.775 1.067-.826.487-.048.975-.093 1.463-.136l.773-.07c1.683-.153 3.425-.31 5.139-.46a.542.542 0 0 0 .485-.367c.979-2.305 1.99-4.67 2.884-6.757.232-.542.643-.817 1.221-.817h.013c.482.033.837.31 1.056.826.392.927.787 1.854 1.183 2.78l.702 1.636c.328.767.668 1.56.995 2.341a.534.534 0 0 0 .492.362c1.562.136 3.226.284 5.397.48.63.057 1.31.119 2.001.191.528.056.877.335 1.033.827.156.491.03.93-.385 1.295-.736.65-1.475 1.3-2.216 1.946l-.674.591-.57.506c-.674.592-1.371 1.205-2.065 1.8a.585.585 0 0 0-.212.639 5980.534 5980.534 0 0 1 1.622 7.114c.136.593-.006 1.033-.435 1.35a1.155 1.155 0 0 1-.688.242 1.434 1.434 0 0 1-.723-.227c-.65-.39-1.3-.778-1.948-1.165-1.401-.838-2.85-1.704-4.27-2.56a.714.714 0 0 0-.379-.122.688.688 0 0 0-.362.115c-1.811 1.093-3.658 2.195-5.443 3.26l-.775.463a1.493 1.493 0 0 1-.764.237Zm7.146-23.169-.181.422-.336.77-.592 1.387c-.553 1.294-1.126 2.632-1.683 3.95-.221.522-.568.798-1.056.846-1.201.114-2.423.224-3.606.33a720.5 720.5 0 0 0-1.585.143l-1.33.122-.592.054-.156.097-.038.061.043.27.065.052c.042.035.086.069.126.103l1.606 1.408c1.171 1.029 2.345 2.057 3.522 3.084.413.36.554.787.438 1.304-.234 1.033-.469 2.069-.706 3.106L6.38 21.93 6.048 23.4l-.163.724.304.225.103-.058.16-.091 1.559-.93c1.391-.826 2.83-1.689 4.235-2.542a1.342 1.342 0 0 1 1.53 0c1.01.615 2.042 1.23 3.041 1.826l1.186.708 1.817 1.086.31-.207c0-.026-.007-.047-.01-.067-.006-.042-.01-.074-.017-.103l-.118-.517-1.428-6.294c-.122-.536.011-.952.42-1.308 1.082-.946 2.163-1.894 3.244-2.843l1.007-.885c.246-.216.492-.431.746-.657l.363-.319-.092-.357-.086-.02c-.05-.014-.101-.024-.152-.03l-1.653-.15c-1.692-.157-3.44-.318-5.165-.465-.604-.052-.978-.326-1.216-.889-.64-1.517-1.298-3.055-1.934-4.545-.233-.541-.464-1.082-.695-1.622a6.013 6.013 0 0 0-.094-.206l-.062-.135-.362-.006Z" fill="#dc848d"/>
  </g>
  <defs>
    <clipPath id="a">
      <path fill="#fff" d="M0 0h26v26H0z"/>
    </clipPath>
  </defs>
</svg>
