<svg width="72" height="72" viewBox="0 0 72 72" fill="none" xmlns="http://www.w3.org/2000/svg">
<g clip-path="url(#clip0)">
<path d="M0 49.9018L6.41548 62.8695C6.41548 62.8695 16.3136 55.929 23.4623 57.9381C30.611 59.9472 41.0591 65.7918 47.2912 62.8695C53.5234 59.9472 65.0713 54.1026 69.6538 48.8059C74.2363 43.5093 71.1202 42.596 68.554 43.6919C65.9878 44.7878 65.6212 45.3357 65.6212 45.3357C65.6212 45.3357 67.8208 41.3175 64.7047 41.6828C62.4226 42.2175 60.2516 43.1446 58.2892 44.4225C58.2892 44.4225 59.389 41.5002 55.9063 42.4134C52.789 43.4601 49.781 44.8058 46.9246 46.4316C46.9246 46.4316 53.7067 47.3448 54.6232 50.815C55.5397 54.2852 49.1242 56.6596 42.7088 56.1117C36.2933 55.5638 30.0611 51.3629 30.7943 50.2671C31.5275 49.1712 36.11 53.5547 41.0591 53.92C46.0081 54.2852 52.057 53.372 52.4236 50.9977C52.7902 48.6233 48.2077 49.5365 44.1752 47.8927C39.4435 45.5431 34.8532 42.9207 30.4277 40.039C27.3116 38.2126 21.8126 36.9341 17.78 39.1258C12.2811 42.2307 10.8147 44.6051 7.33198 46.6142C4.99041 47.924 2.53679 49.0242 0 49.9018H0ZM42.8921 10.0854C42.7088 10.268 42.7088 10.0854 42.7088 10.0854C37.0265 2.23171 25.8452 4.60608 26.0285 16.8432C26.2118 29.0804 42.7088 37.482 42.7088 37.482C42.7221 37.3418 42.7875 37.2115 42.8921 37.1167C42.9114 37.2552 42.9758 37.3835 43.0754 37.482C43.0754 37.482 59.389 29.0804 59.7556 16.8432C59.7556 4.60608 48.7576 2.41435 42.8921 10.0854Z" fill="#dc848d"/>
</g>
<defs>
<clipPath id="clip0">
<rect width="72" height="58.1538" fill="white" transform="translate(0 5.53845)"/>
</clipPath>
</defs>
</svg>
