<svg width="26" height="26" fill="none" xmlns="http://www.w3.org/2000/svg">
  <path d="M24.993 4.386a2.756 2.756 0 0 1-.839 1.966c-3.51 3.51-7.02 7.023-10.536 10.53a1.032 1.032 0 0 1-.436.25 664.28 664.28 0 0 1-4.854 1.353c-.597.165-.976-.212-.813-.808.445-1.62.894-3.239 1.354-4.855a1.09 1.09 0 0 1 .265-.453c3.5-3.51 7.002-7.02 10.513-10.519 1.147-1.143 2.778-1.128 3.923.014.298.297.601.592.868.917.386.466.542 1.025.554 1.605h.001Zm-5.91-.184-8.658 8.658 2.714 2.714 8.659-8.659-2.715-2.712Zm.819-.975 2.846 2.847c.234-.245.488-.486.715-.752.424-.496.454-1.292.037-1.792a7.686 7.686 0 0 0-1.022-1.022c-.454-.371-1.006-.427-1.509-.14-.39.223-.711.566-1.066.859h-.001ZM8.92 17.08l3.025-.839-2.188-2.188c-.27.972-.547 1.98-.837 3.027Z" fill="#dc848d"/>
  <path d="M12.375 24.873c-2.756 0-5.512-.017-8.268.007-1.565.013-2.674-1.025-2.976-2.146a3.319 3.319 0 0 1-.125-.85C.998 16.699 1 11.514 1 6.33a2.99 2.99 0 0 1 2.988-2.993c1.749 0 3.498-.002 5.247.001.386 0 .652.25.657.586.005.338-.283.6-.668.6-1.71 0-3.42-.002-5.13.002-.766.002-1.372.31-1.701 1.018a2.2 2.2 0 0 0-.19.901 5567.98 5567.98 0 0 0-.006 15.32c0 .95.49 1.618 1.343 1.849.185.05.384.07.577.071 5.505.004 11.01.004 16.515.002.93 0 1.614-.498 1.845-1.352.054-.2.07-.416.071-.624.006-1.687.002-3.372.004-5.06 0-.387.235-.649.578-.654a.578.578 0 0 1 .6.558c.011.367.005.734.005 1.101-.002 1.476.01 2.952-.012 4.427-.022 1.433-1.322 2.76-2.75 2.774-2.607.027-5.215.014-7.823.017h-.774Z" fill="#dc848d"/>
</svg>
