<svg xmlns="http://www.w3.org/2000/svg" width="73" height="72" viewBox="0 0 73 72" fill="none">
<path fill-rule="evenodd" clip-rule="evenodd" d="M54 50.6003V56H43V50.9787C31.9124 40.8729 10.0849 41.377 9.09995 41.3997L9.08959 41.3999L9.05931 41.4012C8.97206 41.4092 8.88572 41.4093 8.80076 41.4021H1.80012C0.806452 41.4021 0 40.5974 0 39.602V25.2011C0 24.2056 0.806452 23.4009 1.80012 23.4009H8.92284C8.95529 23.4001 8.98802 23.4001 9.02102 23.4011C9.04407 23.4013 9.06702 23.402 9.08986 23.4031L9.12953 23.4038C10.4734 23.4286 32.0267 23.8254 43 13.823V9H54V14.2027C54.0024 14.2683 54.0036 14.3342 54.0036 14.4003V50.4027C54.0036 50.4688 54.0024 50.5347 54 50.6003ZM3.60023 27.0012H7.20044L7.20046 37.8019H3.60023V27.0012ZM15.2643 64.5597L22.4329 65.2368C22.9777 65.2883 23.5173 65.0879 23.8962 64.6952C24.2771 64.299 24.4552 63.7535 24.3854 63.2099L22.0595 45.4055C21.4779 45.301 20.8632 45.1957 20.2226 45.092C18.5508 44.7912 16.5666 44.5481 14.8372 44.3727L14.8359 44.3629C13.6217 44.2328 12.3868 44.1258 11.1646 44.0536L13.6485 63.0022C13.7579 63.8352 14.4292 64.4808 15.2643 64.5597ZM51 12H46V53H51V12Z" fill="#db838d"/>
<path d="M70.2046 34.2015C71.1982 34.2015 72.0047 33.3969 72.0047 32.4014C72.0047 31.406 71.1982 30.6013 70.2046 30.6013H59.4039C58.4102 30.6013 57.6038 31.406 57.6038 32.4014C57.6038 33.3969 58.4102 34.2015 59.4039 34.2015H70.2046Z" fill="#b8001c"/>
<path d="M64.8042 27.0011H59.4039C58.4102 27.0011 57.6038 26.1964 57.6038 25.2009C57.6038 24.2055 58.4102 23.4008 59.4039 23.4008H64.8042C66.7897 23.4008 68.4044 21.7861 68.4044 19.8006C68.4044 18.8051 69.2109 18.0005 70.2046 18.0005C71.1982 18.0005 72.0047 18.8051 72.0047 19.8006C72.0047 23.7717 68.7753 27.0011 64.8042 27.0011Z" fill="#b8001c"/>
<path d="M68.4044 45.0022C68.4044 45.9977 69.2109 46.8023 70.2046 46.8023C71.1982 46.8023 72.0047 45.9977 72.0047 45.0022C72.0047 41.0312 68.7753 37.8018 64.8042 37.8018H59.4039C58.4102 37.8018 57.6038 38.6064 57.6038 39.6019C57.6038 40.5973 58.4102 41.402 59.4039 41.402H64.8042C66.7897 41.402 68.4044 43.0167 68.4044 45.0022Z" fill="#b8001c"/>
</svg>