<svg width="142" height="27" fill="none" xmlns="http://www.w3.org/2000/svg">
  <path d="M99.348 5.625c-2.184 0-3.744.75-4.51 2.17l-.41.765V5.995H90.87v15.628h3.742v-9.297c0-2.221 1.199-3.496 3.292-3.496 1.995 0 3.138 1.24 3.138 3.403v9.39h3.742V11.56c0-3.715-2.033-5.936-5.436-5.936Zm-18.14 0c-4.414 0-7.157 2.768-7.157 7.227v2.194c0 4.285 2.767 6.949 7.218 6.949 2.977 0 5.064-1.099 6.377-3.354l-2.32-1.34c-.97 1.302-2.52 2.107-4.056 2.107-2.254 0-3.6-1.4-3.6-3.744v-.621h10.448v-2.594c0-4.152-2.713-6.824-6.91-6.824Zm3.506 6.89H77.67v-.374c0-2.575 1.256-3.993 3.539-3.993 2.196 0 3.506 1.4 3.506 3.744v.623Zm57.212-9.092V.433h-12.935v2.99h4.535v15.212h-4.535v2.988h12.935v-2.988h-4.536V3.423h4.536ZM43.833 0c-5.779 0-9.37 3.622-9.37 9.451v3.153c0 5.83 3.59 9.451 9.37 9.451 5.781 0 9.37-3.62 9.37-9.451V9.451C53.203 3.622 49.611 0 43.834 0Zm5.505 12.82c0 3.87-2.006 6.093-5.505 6.093-3.498 0-5.506-2.222-5.506-6.093V9.236c0-3.871 2.006-6.093 5.505-6.093 3.498 0 5.504 2.222 5.504 6.093l.002 3.584ZM64.95 5.633c-1.963 0-3.664.816-4.548 2.186l-.404.623V5.995h-3.556V27h3.74v-7.607l.402.598c.842 1.253 2.486 2.004 4.396 2.004 3.226 0 6.48-2.121 6.48-6.856v-2.661c0-3.41-2.006-6.853-6.511-6.853l.001.008Zm2.77 9.327c0 2.518-1.461 4.083-3.812 4.083-2.191 0-3.722-1.652-3.722-4.021v-2.348c0-2.405 1.543-4.083 3.753-4.083 2.334 0 3.784 1.565 3.784 4.083l-.003 2.286ZM115.123.44l-7.552 21.183h3.796l1.445-4.542h8.679l.015.044 1.429 4.498h3.8L119.177.433l-4.054.008ZM113.746 14.1l3.405-10.724 3.372 10.711-6.777.013Zm-89.001-3.05a6.768 6.768 0 0 0-.577-5.525 6.75 6.75 0 0 0-7.283-3.262A6.781 6.781 0 0 0 13.942.336a6.75 6.75 0 0 0-6.636 1.41A6.827 6.827 0 0 0 5.39 4.705 6.677 6.677 0 0 0 2.803 5.85 6.72 6.72 0 0 0 .917 7.967a6.832 6.832 0 0 0 .831 7.984 6.763 6.763 0 0 0 .572 5.524 6.755 6.755 0 0 0 7.288 3.263 6.697 6.697 0 0 0 2.28 1.678c.869.39 1.812.59 2.764.584a6.778 6.778 0 0 0 6.457-4.732 6.682 6.682 0 0 0 2.586-1.146 6.725 6.725 0 0 0 1.886-2.116 6.842 6.842 0 0 0-.836-7.957ZM14.652 25.233a4.99 4.99 0 0 1-3.218-1.171l.159-.09 5.345-3.104a.89.89 0 0 0 .44-.766v-7.579l2.26 1.315a.079.079 0 0 1 .042.058v6.28c-.006 2.79-2.254 5.051-5.028 5.057ZM3.844 20.592a5.054 5.054 0 0 1-.598-3.39l.159.095 5.35 3.103a.858.858 0 0 0 .874 0l6.536-3.79v2.625a.09.09 0 0 1-.037.069l-5.414 3.14a5.018 5.018 0 0 1-6.87-1.852ZM2.436 8.882a5.024 5.024 0 0 1 2.647-2.219v6.387a.866.866 0 0 0 .434.761l6.504 3.774-2.26 1.314a.083.083 0 0 1-.08 0l-5.403-3.135c-2.401-1.399-3.225-4.488-1.842-6.908v.027Zm18.567 4.338-6.526-3.81 2.255-1.31a.084.084 0 0 1 .08 0l5.403 3.14c.826.48 1.5 1.186 1.942 2.036a5.08 5.08 0 0 1-.448 5.398 5.03 5.03 0 0 1-2.25 1.684V13.97a.892.892 0 0 0-.456-.75Zm2.25-3.4-.16-.096-5.34-3.13a.864.864 0 0 0-.878 0l-6.531 3.79V7.76a.075.075 0 0 1 .031-.07l5.404-3.135a5.011 5.011 0 0 1 5.392.235 5.056 5.056 0 0 1 1.765 2.2c.368.887.478 1.86.316 2.808v.022ZM9.11 14.47l-2.26-1.31a.091.091 0 0 1-.042-.063V6.834a5.082 5.082 0 0 1 .788-2.713 5.042 5.042 0 0 1 2.11-1.865 5.008 5.008 0 0 1 5.353.692l-.159.09-5.345 3.104a.892.892 0 0 0-.44.766l-.005 7.563Zm1.228-2.661 2.911-1.687 2.916 1.687v3.374l-2.905 1.688-2.916-1.688-.006-3.374Z" fill="#000"/>
</svg>
