<svg width="20" height="20" viewBox="0 0 20 20" fill="none" xmlns="http://www.w3.org/2000/svg">
<g clip-path="url(#clip0_6_42)">
<mask id="mask0_6_42" style="mask-type:luminance" maskUnits="userSpaceOnUse" x="0" y="0" width="20" height="20">
<path d="M0 0H20V20H0V0Z" fill="white"/>
</mask>
<g mask="url(#mask0_6_42)">
<path fill-rule="evenodd" clip-rule="evenodd" d="M20 0H0V20H20V0ZM3.75 2.5C3.41848 2.5 3.10054 2.6317 2.86612 2.86612C2.6317 3.10054 2.5 3.41848 2.5 3.75V16.25C2.5 16.5815 2.6317 16.8995 2.86612 17.1339C3.10054 17.3683 3.41848 17.5 3.75 17.5H16.25C16.5815 17.5 16.8995 17.3683 17.1339 17.1339C17.3683 16.8995 17.5 16.5815 17.5 16.25V3.75C17.5 3.41848 17.3683 3.10054 17.1339 2.86612C16.8995 2.6317 16.5815 2.5 16.25 2.5H3.75ZM4.44083 4.18C4.5475 4.17125 4.65542 4.16667 4.76417 4.16667C6.90875 4.16667 8.64708 5.89 8.64708 8.01542V8.51792L9.48208 9.75958C9.74667 10.1529 9.46208 10.68 8.985 10.68H8.64708V11.2717C8.64692 11.3107 8.63906 11.3494 8.62396 11.3854C8.60886 11.4215 8.58681 11.4542 8.55906 11.4817C8.53132 11.5092 8.49843 11.531 8.46228 11.5457C8.42612 11.5605 8.3874 11.5681 8.34833 11.5679H7.97042C7.67458 11.5654 7.42875 11.5637 7.42875 11.8637L8.34833 12.16C8.51333 12.16 8.64708 12.2925 8.64708 12.4558V13.3442C8.64682 13.5478 8.59393 13.7479 8.49355 13.9251C8.39317 14.1023 8.2487 14.2505 8.07417 14.3554C7.86083 14.4846 7.63125 14.5017 7.42917 14.4754C7.23042 14.4496 7.04042 14.3796 6.88375 14.3129L5.66 13.7933V15.9538C5.66 16.1175 5.52667 16.25 5.36125 16.25H4.46542C4.38659 16.2503 4.31085 16.2194 4.25483 16.1639C4.19882 16.1084 4.16711 16.033 4.16667 15.9542V4.475C4.16667 4.32083 4.28583 4.1925 4.44083 4.18ZM7.30292 9.19958C7.3615 9.19986 7.41956 9.18858 7.47378 9.1664C7.52801 9.14423 7.57733 9.11158 7.61893 9.07033C7.66053 9.02908 7.69359 8.98003 7.71622 8.926C7.73885 8.87196 7.75061 8.814 7.75083 8.75542C7.75061 8.69683 7.73885 8.63887 7.71622 8.58483C7.69359 8.5308 7.66053 8.48175 7.61893 8.4405C7.57733 8.39925 7.52801 8.36661 7.47378 8.34443C7.41956 8.32225 7.3615 8.31098 7.30292 8.31125C7.24433 8.31098 7.18627 8.32225 7.13205 8.34443C7.07783 8.36661 7.0285 8.39925 6.98691 8.4405C6.94531 8.48175 6.91225 8.5308 6.88961 8.58483C6.86698 8.63887 6.85522 8.69683 6.855 8.75542C6.85522 8.814 6.86698 8.87196 6.88961 8.926C6.91225 8.98003 6.94531 9.02908 6.98691 9.07033C7.0285 9.11158 7.07783 9.14423 7.13205 9.1664C7.18627 9.18858 7.24433 9.19986 7.30292 9.19958ZM10.6229 12.535C10.7743 12.4463 10.8999 12.3194 10.9869 12.1671C11.074 12.0147 11.1196 11.8422 11.1192 11.6667C11.1192 11.2946 10.9192 10.9708 10.6233 10.7983L11.0442 10.0787C11.321 10.241 11.5506 10.473 11.7099 10.7516C11.8692 11.0303 11.9527 11.3457 11.9521 11.6667C11.9526 11.9876 11.8689 12.303 11.7096 12.5815C11.5502 12.8601 11.3206 13.092 11.0437 13.2542L10.6229 12.535ZM11.9925 9.72375C12.4979 10.0892 12.8729 10.8054 12.8729 11.6667C12.8729 12.5279 12.4979 13.2442 11.9925 13.6096L12.4812 14.2846C13.2342 13.74 13.7062 12.7546 13.7062 11.6667C13.7062 10.5792 13.2342 9.59333 12.4812 9.04833L11.9925 9.72375ZM13.3813 14.6737C14.1004 14.1033 14.6271 12.9921 14.6271 11.6667C14.6271 10.3412 14.1004 9.23 13.3813 8.66L13.8992 8.00708C14.8583 8.7675 15.4604 10.1437 15.4604 11.6667C15.4604 13.19 14.8583 14.5658 13.8992 15.3263L13.3813 14.6737Z" fill="#B01921"/>
</g>
</g>
<defs>
<clipPath id="clip0_6_42">
<rect width="20" height="20" fill="white"/>
</clipPath>
</defs>
</svg>
