<svg xmlns="http://www.w3.org/2000/svg" width="230.28" height="217" viewBox="0 0 230.28 217"><g data-name="Слой 2"><g data-name="Layer 1"><ellipse style="isolation:isolate" cx="105.68" cy="186.6" fill="#dfa2aa" data-name="&lt;Контур&gt;" opacity=".3" rx="70.4" ry="27.6"/><ellipse style="isolation:isolate" cx="173.38" cy="165.3" fill="#dfa2aa" data-name="&lt;Контур&gt;" opacity=".3" rx="41.6" ry="16.3"/><g fill="none" stroke="#c85f6d" stroke-miterlimit="10" stroke-width=".75" data-name="&lt;Группа&gt;"><path d="M.38 71.8h80.6v85.5H.38zM.38 140.2h80.5M.38 123.1h80.5M80.88 106H.38M.38 88.9h80.5M60.77 71.8v85.5M40.67 71.8v85.5M20.48 71.8v85.5" data-name="&lt;Контур&gt;"/></g><g data-name="&lt;Группа&gt;"><path fill="#dfa2aa" d="M215.08 117.7c-12.61-5.2-25.7-11.4-25.7-11.4l-26.9.5h-.3l-26.7-.5s-15.4 7-28 12.1-13 14.2-13 14.2 1.6 4.5 21.1 15.9c18.6 10.9 44.6 11 46.8 11s28.2-.2 46.8-11c19.4-11.3 21.1-15.9 21.1-15.9s-2.51-9.7-15.2-14.9z" data-name="&lt;Контур&gt;"/><path fill="#dfa2aa" d="M180.27 99c-2.39-5.3-3.19-21.7-3.19-21.7l-14.31 1.6h-15.6s0 14.8-2.4 20.2-9.19 7.3-9.19 7.3 3.39 24.8 27 24.8c26.19 0 27-24.8 27-24.8s-6.9-2.1-9.31-7.4z" data-name="&lt;Контур&gt;"/><path fill="#b94050" d="M147.18 84.9s7.2 12.9 17.7 15.7 15.3-1.6 15.3-1.6a39.93 39.93 0 0 1-2.2-9.2 116.61 116.61 0 0 1-.9-14l-30 3v6.1z" data-name="&lt;Контур&gt;"/><path fill="#dfa2aa" d="M136 65.5s2.61 7.8 7.11 7.8 35.8 0 38.5-1.1 3.19-9.1 3.19-9.1z" data-name="&lt;Контур&gt;"/><path fill="#dfa2aa" d="M138.47 64.5s8.4 24.8 22.5 24.8 22.5-24 22.5-24 4.8.2 6.11-6.9.69-15.2-2.11-12.5c-2.6 2.4-2.1 4.9-2.1 4.9l-2.3-28.2-39.5-3.4-6 31.1s-1.6-7.4-4.4-2.9 1.5 20.6 3.6 19.6 1.7-2.5 1.7-2.5z" data-name="&lt;Контур&gt;"/><path fill="#dfa2aa" d="M138.58 49.9a14.6 14.6 0 0 1 11-10.7c9.39-2.3 17.8-8.3 20.1-11.7a19.68 19.68 0 0 0 2.9-6.2s.6 3.7 7 9.4S185 49.9 185 49.9l1.11.6s0-3.2 1.39-4.3 1.8-.5 1.8-.5S194.38 7.5 162 7.2c-34.59-.1-29.39 42.3-29.39 42.3s-.31-3.1 2.8-2.8c1.5.2 2.3 3.5 2.3 3.5z" data-name="&lt;Контур&gt;"/><path fill="#b94050" d="M134.58 60.4s-1.81-8.2-.9-10.4 3 1.3 3 1.3-1.7-2.8-2.3.7a36.2 36.2 0 0 0 .2 8.4zM187.88 60.4s1.8-8.2.89-10.4-3 1.3-3 1.3 1.7-2.8 2.31.7a36.2 36.2 0 0 1-.2 8.4z" data-name="&lt;Контур&gt;"/></g><path fill="#b8001c" d="M181.08 149.7c-11.31-4.7-41.5-14.5-41.5-14.5H73.27s-30.19 9.8-41.5 14.5-11.5 16.3-11.5 16.3 21.6 30.1 86.2 30.1 86.2-30.1 86.2-30.1-.4-11.5-11.59-16.3z" data-name="&lt;Контур&gt;"/><path fill="#dfa2aa" d="M84.48 102.9s2.1 21.6-1.81 26.7a15 15 0 0 1-9.5 5.6s6.5 24 35.51 24 30.8-24 30.8-24-5.9-1.2-6.8-13.3a137.77 137.77 0 0 1 0-21.3z" data-name="&lt;Контур&gt;"/><g fill="#ffd6db" data-name="&lt;Группа&gt;"><path d="M42 5.1a8.11 8.11 0 1 0 8.49 7.7A8.08 8.08 0 0 0 42 5.1zm.79 15.1a7.06 7.06 0 1 1 6.7-7.4 7.05 7.05 0 0 1-6.72 7.4z" data-name="&lt;Составной контур&gt;"/><circle cx="39.48" cy="10.7" r="1.5" data-name="&lt;Контур&gt;"/><circle cx="45.08" cy="10.5" r="1.5" data-name="&lt;Контур&gt;"/><path d="M42.58 17a2.94 2.94 0 0 1-3.1-2.5l-1.1.2a4.21 4.21 0 0 0 4.3 3.4 4.1 4.1 0 0 0 3.9-3.8l-1.1-.1a3.11 3.11 0 0 1-2.9 2.8z" data-name="&lt;Контур&gt;"/></g><g fill="#ffd6db" data-name="&lt;Группа&gt;"><path d="M32.48 59.9h-.1c-.1 0-.1-.1-.1-.2v-14a.35.35 0 0 1 .1-.2l17.6-6h.19c.1 0 .1.1.1.2v6.1a.2.2 0 1 1-.39 0V40l-17.2 5.9v13.6l10.1-3.5a.22.22 0 0 1 .2.4l-10.5 3.5z" data-name="&lt;Контур&gt;"/><path d="M34.08 39.7v5.5l8-2.8v14l10 3.4v-14zm14.8 15.5l-.4-1.8-2.81-.9-.59 1.5-1.31-.4 2.81-7 1.3.4 2.4 8.6z" data-name="&lt;Составной контур&gt;"/><path d="M47.17 48.9l-1 2.4 1.91.5-.91-2.9zM35.67 47.3s.21.9 1 .9 1.41-.6 1.41-1-.5-.2-.91-.1-.9.3-1.09.2zM40.58 52.8a21 21 0 0 0-2.8-1.2c.89-1.4 1.49-2.6 1.7-3a1 1 0 0 0 .1-.7.84.84 0 0 0-.31.1 6.85 6.85 0 0 0-.9.4 21.79 21.79 0 0 1-2.4.8 11 11 0 0 1-1.5.4.65.65 0 0 0 .3.5 1.17 1.17 0 0 0 1 0c.3-.1.2-.3.2-.4s.4-.1 1.1-.3c.5-.2 1.1-.4 1.3-.5s.1 0 .1.1a1.54 1.54 0 0 0-.3.7 31 31 0 0 1-2 3.4c-.9 1.2-2 2.4-2 2.4h.5a22.2 22.2 0 0 0 3.1-3.8.1.1 0 0 1 .1-.1c.1.1.4.3.9.7a6 6 0 0 0 2.1 1c.01.3-.29-.4-.29-.5zM42 62.8a9.84 9.84 0 0 1-5.7-1.7.21.21 0 0 1 .3-.3 10 10 0 0 0 5.5 1.6 10.24 10.24 0 0 0 5.59-1.8.2.2 0 0 1 .31 0 .19.19 0 0 1 0 .3 11.12 11.12 0 0 1-6 1.9z" data-name="&lt;Контур&gt;"/><path d="M46.48 59.9l1.29 2.2.71-2-2-.2z" data-name="&lt;Контур&gt;"/></g><path fill="#b94050" d="M86 107.7s6.4 12.5 26.7 19.8c17.9 6.5 22.8 4.6 22.8 4.6s-3.1-4-3.1-14.5-.61-16-.61-16z" data-name="&lt;Контур&gt;"/><path fill="#dfa2aa" d="M76.77 91.7s11 29.9 32.31 29.9 28.69-26.9 28.69-26.9.61 1.9 3.4 1.8c5.2-.3 10.1-29.2 6.4-29.9-4.6-.9-6.4 4.3-6.4 4.3l1.9-25.9-63.7-8.6-3.8 34.9s-1.2-8.6-5.3-4.4c-5.6 5.6.4 27.1 4.3 27.7 2.91.3 2.2-2.9 2.2-2.9z" data-name="&lt;Контур&gt;"/><path fill="#b94050" d="M71.77 86S69 73.2 70.47 69.7s4.7 2.1 4.7 2.1-2.7-4.4-3.6 1.1.2 13.1.2 13.1zM143.27 87.7s4.31-12.4 3.2-16-4.89 1.5-4.89 1.5 3.1-4 3.5 1.5c.1 5.6-1.81 13-1.81 13z" data-name="&lt;Контур&gt;"/><path fill="#b8001c" d="M140.88 26.2a11.06 11.06 0 0 0-1-1.1 34.67 34.67 0 0 0-7.8-11.9C118.68.4 103.68 0 103.68 0s2.4 1.8 2.8 3.9-2.6 4.1-2.6 4.1-.8-.8-8.1-5.3-10.1-1.6-10.1-1.6 6.7 7.5 5.1 9.7-6.7-6.5-6.7-6.5a104.55 104.55 0 0 1-5.6 19.7C65.28 36.8 71 66 71 66a2.06 2.06 0 0 1 2.8.1c1.5 1.3 1.8 5 1.8 5s1.9.4 2.2-2.2.6-8 1.9-16a105.39 105.39 0 0 1 2.5-12s20.5-2 36.1.2c9.5 1.4 13.8 3.3 15.7 4.6l2.8 5.6c1.2 3.9 2.7 9.7 2.9 12.4.3 4.4-1 7.7.9 7s2.5-3.7 4.3-4.1l1.8-.4s3.77-27.9-5.82-40zM22 145.7s10.9-6.1 18.79-8.9 32.4-10.3 32.4-10.3l-3.4 13.6s-18 12.5-31 12.1S22 145.7 22 145.7z" data-name="&lt;Контур&gt;"/><g data-name="&lt;Группа&gt;"><path fill="#dfa2aa" d="M80.38 114a38.8 38.8 0 1 0-41.1 38.6v9.5l5.5-.1v-9.5a38.78 38.78 0 0 0 35.6-38.5zm-38.9 32a32.1 32.1 0 1 1 32.29-32 32 32 0 0 1-32.29 32z" data-name="&lt;Составной контур&gt;"/><g data-name="&lt;Группа&gt;"><path fill="none" stroke="#b8001c" stroke-miterlimit="10" d="M80.38 114a38.8 38.8 0 1 0-41.1 38.6v9.5l5.5-.1v-9.5a38.78 38.78 0 0 0 35.6-38.5zm-38.9 32a32.1 32.1 0 1 1 32.29-32 32 32 0 0 1-32.29 32z" data-name="&lt;Составной контур&gt;"/><path fill="#dfa2aa" d="M42.08 216.7a5.33 5.33 0 0 1-5.3-5.3l.2-45.8a5.34 5.34 0 0 1 5.3-5.3 5.34 5.34 0 0 1 5.3 5.3l-.2 45.8a5.34 5.34 0 0 1-5.3 5.3z" data-name="&lt;Контур&gt;"/><path fill="none" stroke="#b8001c" stroke-miterlimit="10" d="M42.08 216.5a5.33 5.33 0 0 1-5.3-5.3l.2-45.8a5.34 5.34 0 0 1 5.3-5.3 5.34 5.34 0 0 1 5.3 5.3l-.2 45.8a5.34 5.34 0 0 1-5.3 5.3z" data-name="&lt;Контур&gt;"/><ellipse cx="41.98" cy="212.1" fill="#b8001c" data-name="&lt;Контур&gt;" rx="4.2" ry="3"/></g><path fill="#b8001c" d="M42.08 150.7c-22.2 0-38.3-18.7-38.3-39.9a43.61 43.61 0 0 1 .3-5.1 37.7 37.7 0 0 0-.9 8.3c-.1 20.5 16.49 37 36.7 38.1 0 0 .5-1 2.3-1s2.1 1 2.1 1c19-1.6 34.7-16.8 35.6-36-2.5 18.6-18.5 34.6-37.8 34.6z" data-name="&lt;Контур&gt;"/><path fill="#b8001c" d="M41.77 81.1c18.1 0 32.5 15.4 33.1 33.8v-1.3c0-18.9-15-34.3-33.4-34.3s-33.4 15.3-33.4 34.3v1.3c.6-18.3 15.6-33.8 33.7-33.8z" data-name="&lt;Контур&gt;"/></g><circle cx="207.38" cy="60.5" r="3" fill="#ffd6db" data-name="&lt;Контур&gt;"/><circle cx="207.38" cy="42.7" r="3" fill="#ffd6db" data-name="&lt;Контур&gt;"/><circle cx="207.38" cy="27.5" r="3" fill="#f4f4f4" data-name="&lt;Контур&gt;"/><circle cx="207.38" cy="75.4" r="3" fill="#f4f4f4" data-name="&lt;Контур&gt;"/><path fill="#ec8266" d="M42.17 100.1a11.5 11.5 0 1 0 11.5 11.5 11.44 11.44 0 0 0-11.5-11.5zm1.21 17.3h-.1a.89.89 0 0 1-.5-.4 1.74 1.74 0 0 1-.3-.7h-.1a1.51 1.51 0 0 1-.8-.2c-.31-.2-.41-.5-.6-.5s-.5.2-.7 0-1.1-.6-1.3-.7-.1-.5-.31-.8-.59-.5-.59-.5v-.2a2.11 2.11 0 0 0-.6-.8c-.4-.4-.3-.5-.3-.5l-.3-.2a1.2 1.2 0 0 0 .3.6c.3.5.5 1 .4 1.2s-.1-.2-.3-.5-.3-.3-.3-.3v-.1q0-.15-.3-.3c-.2-.1 0-.1 0-.1a.44.44 0 0 1-.1-.3c0-.2-.2-.4-.3-.6s-.3-.2-.5-.3-.4-.8-.4-.8a.31.31 0 0 1-.2-.1c-.1 0-.3-.4-.3-.9a2 2 0 0 1 .1-.8c0-.1-.1-.4 0-.6s.1.2.3.1 0 0 0-.3-.6-.5-.8-.6 0-.3 0-.3a.35.35 0 0 1-.2.1c-.1 0-.1-.1-.1-.3s-.3-.3-.3-.3a4.84 4.84 0 0 1 .9-1.2 12 12 0 0 1 2-1.7c.5-.3.7-.4.9-.4a.82.82 0 0 1 .6.4c.2.2.1 0 0-.1s-.1-.1.1-.3a1.76 1.76 0 0 1 .6-.1v-.1s-.2-.3-.3-.3a.1.1 0 0 0-.1.1h-.2a1.33 1.33 0 0 0-.7.3c-.2.1-.2 0-.2-.1a5 5 0 0 1 1.3-.5c.1 0 .3.2.3.2a.48.48 0 0 0 0 .4c.1.2.4.1.8.1h.5c.1 0 .2.3.2.3v-.4c0-.3.3-.2.4-.2s0-.1-.1-.2-.5-.2-.5-.3.1-.3.6-.2.2.4.2.4l.2.1a1.24 1.24 0 0 1 .3.2.2.2 0 0 1 .2-.2c.2 0 .2.4.3.5s.4-.4.5-.5-.1 0 .2-.1.4.1.4.2-.1.2-.1.2a.35.35 0 0 1-.1.5c-.2.1-.3-.2-.5-.1s-.1.1-.4.5a.56.56 0 0 1-.7.2.31.31 0 0 1-.1.2 2.19 2.19 0 0 0-.3.5.48.48 0 0 0 0 .4l.1.2a.77.77 0 0 1 .1.3h.6a1.05 1.05 0 0 1 .8.5s.1-.1.3 0 .3.4.5.8.6 0 .6 0-.2-.3-.2-.5.5-.4.5-.7-.3-.3-.4-.4.1-.1.1-.4-.2-.4 0-.5a3.31 3.31 0 0 1 1.5.4c.1.1 0 .1-.1.1a.1.1 0 0 1 .1.1c.1.1-.1.4-.1.4h.3c.1 0 0 .2 0 .2a.49.49 0 0 0 .3-.1c.1-.1.1 0 .2-.1s.1-.2.2-.3.2.3.3.3l.3.3c.1.1.1.4.2.5s.2 0 .3 0 .2.2.2.2l.1-.1a.77.77 0 0 0 .1.3.22.22 0 0 0 .3.1v.3c0 .2-.2.1-.4.2a2.74 2.74 0 0 0-.5.4l-.1-.1c-.1-.1-.3-.1-.7 0a4.65 4.65 0 0 0-.9.3c-.2.2-.2.3-.2.3l.4-.4c.3-.2.7-.1.6.1s-.4.1-.4.1a.31.31 0 0 1 .2.1c.1.1 0 .1 0 .1s.3.2.1.3a1 1 0 0 1-.4.1 1.24 1.24 0 0 1-.3.2 1.38 1.38 0 0 0-.4.3c-.1.1 0 .3 0 .4s-.1 0-.1 0l-.1.1a1.42 1.42 0 0 1-.4.2v.2c0 .2-.3 0-.4 0s0 .1 0 .1a.31.31 0 0 0-.1.2v.1a.35.35 0 0 1-.1.2s.2.1.2.2l-.1.1a1 1 0 0 1-.1.4.92.92 0 0 1-.6.4c-.4.2-.3.2-.4.4s.3.4.3.4v.3a1.63 1.63 0 0 1 0 .7c0 .2-.2.1-.4-.2s-.3-.8-.3-.8l.4.1-.1-.1c-.1-.1-.2-.1-.4-.2a.48.48 0 0 1-.31-.1s0 .1-.19.1-.31-.3-.31-.3v.1c0 .1.1.3-.1.3s-.09 0-.19-.1-.2-.1-.4 0h-.41a.14.14 0 0 1 0 .2c-.09.1-.09 0-.19.1a1.41 1.41 0 0 1-.31.2.44.44 0 0 1 .1.3c0 .2-.1.6-.1.9a1 1 0 0 0 .81.9c.4 0 .6 0 .69-.3s.31-.5.5-.3.2.2 0 .5-.19.7-.09.8.3-.2.3-.2l.2.2c.09.1.19-.1.19-.1s.2.1.4.6-.19.2-.19.2-.1.1.19.6.81.3.81.3-.1.4-.31.5-.29-.2-.29-.2zm3.5 2.5a7 7 0 0 1-3.1 1.1s-.1 0 0-.2.2-.5.2-.6 0 0-.1-.1-.1-.3.1-.6.5-.4.5-.7a4.14 4.14 0 0 0-.2-1.4h.1a.35.35 0 0 1 .2.1v-.1a.51.51 0 0 1 .3-.4.77.77 0 0 0 .3-.2c.2-.2.4-.3.5-.2s0 .3-.1.4 0 .2.1.1.1-.3.1-.4a.37.37 0 0 1 .3-.1c.1.1.2.1.4.2a1.87 1.87 0 0 1 .4.3v-.1c0-.1.4-.2.6-.1a6.13 6.13 0 0 1 .6.4c.3.2.2.4.2.4h.2a1.3 1.3 0 0 1 .5.2 7.22 7.22 0 0 1-2.1 2z" data-name="&lt;Составной контур&gt;"/></g></g></svg>