<svg width="130" height="130" viewBox="0 0 130 130" fill="none" xmlns="http://www.w3.org/2000/svg">
<path fill-rule="evenodd" clip-rule="evenodd" d="M120.27 101.55C115.228 94.1218 103.043 88.4822 92.6796 85.5956C82.3159 82.7061 78.9917 76.2758 79.7272 73.2839C80.4627 70.292 82.7358 71.222 85.0408 66.9532C87.0041 63.3157 88.339 54.8179 88.339 54.8179C88.339 54.8179 93.0648 53.2708 93.5918 46.2575C94.1159 39.2414 93.5918 36.6619 91.8051 35.8371C90.0185 35.0123 89.283 35.1147 89.283 35.1147C89.283 35.1147 90.45 25.1352 90.4586 23.0448C90.4673 20.3971 90.7106 17.7977 89.9548 15.1016C87.2299 5.4064 75.9367 1.27977 62.8279 1.48454C49.719 1.69215 49.5164 5.61117 46.7944 8.50066C44.0724 11.3873 42.2568 9.11781 39.836 13.5544C38.3737 16.2363 39.7839 28.9262 39.7839 28.9262C40.2241 32.4385 40.7163 35.1147 40.7163 35.1147C40.7163 35.1147 39.9808 35.0123 38.1942 35.8371C36.4104 36.6619 35.8834 39.2414 36.4104 46.2575C36.9345 53.2708 41.6603 54.8179 41.6603 54.8179C41.6603 54.8179 42.9952 63.3157 44.9614 66.9532C47.2635 71.222 49.5395 70.292 50.275 73.2839C51.0105 76.2758 47.6834 82.7061 37.3197 85.5956C26.956 88.4822 14.7709 94.1218 9.72945 101.55C5.91871 107.167 6.50943 116.641 7.02486 120.924C7.17834 122.192 27.7378 128.523 65.4861 128.523C103.234 128.523 122.821 122.192 122.974 120.924C123.49 116.641 124.083 107.167 120.27 101.55V101.55Z" stroke="#dc848d"/>
<mask id="path-2-outside-1" maskUnits="userSpaceOnUse" x="74.7917" y="12.2955" width="55" height="49" fill="black">
<rect fill="white" x="74.7917" y="12.2955" width="55" height="49"/>
<path fill-rule="evenodd" clip-rule="evenodd" d="M103.59 59.326C117.36 59.326 128.523 49.0217 128.523 36.3107C128.523 23.5998 117.36 13.2955 103.59 13.2955C89.8194 13.2955 78.6565 23.5998 78.6565 36.3107C78.6565 40.757 80.0223 44.9088 82.3879 48.428C81.196 50.7862 79.5061 53.5648 77.7917 54.8943C81.3221 55.1841 85.7175 54.7213 87.5053 53.8973C91.847 57.2842 97.46 59.326 103.59 59.326Z"/>
</mask>
<path fill-rule="evenodd" clip-rule="evenodd" d="M103.59 59.326C117.36 59.326 128.523 49.0217 128.523 36.3107C128.523 23.5998 117.36 13.2955 103.59 13.2955C89.8194 13.2955 78.6565 23.5998 78.6565 36.3107C78.6565 40.757 80.0223 44.9088 82.3879 48.428C81.196 50.7862 79.5061 53.5648 77.7917 54.8943C81.3221 55.1841 85.7175 54.7213 87.5053 53.8973C91.847 57.2842 97.46 59.326 103.59 59.326Z" fill="white"/>
<path d="M82.3879 48.428L83.2804 48.8791L83.5446 48.3563L83.2178 47.8702L82.3879 48.428ZM77.7917 54.8943L77.1789 54.1041L75.1463 55.6805L77.7099 55.891L77.7917 54.8943ZM87.5053 53.8973L88.1203 53.1088L87.64 52.7341L87.0867 52.9891L87.5053 53.8973ZM127.523 36.3107C127.523 48.3956 116.884 58.326 103.59 58.326V60.326C117.835 60.326 129.523 49.6479 129.523 36.3107H127.523ZM103.59 14.2955C116.884 14.2955 127.523 24.2259 127.523 36.3107H129.523C129.523 22.9736 117.835 12.2955 103.59 12.2955V14.2955ZM79.6565 36.3107C79.6565 24.2259 90.2949 14.2955 103.59 14.2955V12.2955C89.344 12.2955 77.6565 22.9736 77.6565 36.3107H79.6565ZM83.2178 47.8702C80.9571 44.5068 79.6565 40.5476 79.6565 36.3107H77.6565C77.6565 40.9663 79.0876 45.3107 81.558 48.9859L83.2178 47.8702ZM78.4046 55.6845C79.3834 54.9254 80.304 53.7985 81.1127 52.6092C81.9297 51.4076 82.6717 50.0835 83.2804 48.8791L81.4954 47.977C80.9123 49.1307 80.2133 50.375 79.4588 51.4846C78.696 52.6065 77.9144 53.5337 77.1789 54.1041L78.4046 55.6845ZM87.0867 52.9891C86.3492 53.329 84.9403 53.6386 83.1991 53.8188C81.4886 53.9958 79.5695 54.0369 77.8736 53.8977L77.7099 55.891C79.5443 56.0416 81.5881 55.9962 83.4049 55.8082C85.1909 55.6234 86.8736 55.2895 87.9238 54.8055L87.0867 52.9891ZM103.59 58.326C97.6834 58.326 92.2867 56.359 88.1203 53.1088L86.8902 54.6858C91.4073 58.2095 97.2367 60.326 103.59 60.326V58.326Z" fill="#dc848d" mask="url(#path-2-outside-1)"/>
<ellipse cx="93.8068" cy="36.9318" rx="2.95455" ry="2.95455" fill="#dc848d"/>
<ellipse cx="104.148" cy="36.9318" rx="2.95455" ry="2.95455" fill="#dc848d"/>
<ellipse cx="114.489" cy="36.9318" rx="2.95454" ry="2.95455" fill="#dc848d"/>
</svg>
