<svg width="72" height="72" xmlns="http://www.w3.org/2000/svg"><g fill="none" fill-rule="evenodd"><g stroke="#dc848d"><path d="M2.127 69.373l7.36-2.662a19.261 19.261 0 0010.61 3.171c10.785 0 19.558-8.895 19.558-19.83 0-10.933-8.773-19.828-19.557-19.828C9.313 30.224.54 39.119.54 50.054c0 3.813 1.065 7.499 3.083 10.69L.992 68.222a.909.909 0 00.208.94.88.88 0 00.927.211zM69.63 40.77l-7.36-2.662a19.261 19.261 0 01-10.611 3.171c-10.784 0-19.557-8.895-19.557-19.829 0-10.934 8.772-19.829 19.557-19.829 10.784 0 19.557 8.896 19.557 19.83 0 3.813-1.064 7.5-3.083 10.69l2.632 7.479a.909.909 0 01-.209.94.88.88 0 01-.926.21z"/><g transform="translate(13.808 39.466)"><circle cx="6.411" cy="19.233" r="1.479"/><path d="M9.996 10.667l-2.383 2.026v2.656H4.839V11.41l3.36-2.857a3.05 3.05 0 001.078-2.327 3.055 3.055 0 00-3.051-3.051 3.057 3.057 0 00-2.972 2.358H.442A5.834 5.834 0 016.226.4a5.832 5.832 0 015.825 5.825c0 1.712-.749 3.33-2.055 4.44z" fill-rule="nonzero" stroke-linejoin="round"/></g><g stroke-linecap="round"><path d="M41.344 21.22h14.592M41.344 16.288h14.592M41.344 26.15h8.755M58.854 21.22h3.89M53.504 26.15h6.323"/></g><path d="M35.318 10.37c-11.366 1.528-17.02 6.951-21.699 16.767M36.135 61.841c10.927-1.676 16.287-7.036 20.632-16.641" stroke-linecap="round"/></g><path d="M0 0h72v72H0z"/></g></svg>