<svg width="72" height="72" viewBox="0 0 72 72" fill="none" xmlns="http://www.w3.org/2000/svg">
<path fill-rule="evenodd" clip-rule="evenodd" d="M44.4121 21.0441C44.4946 20.7867 44.6374 20.5534 44.8282 20.3642L52.7305 12.555L41.8109 10.9467C41.5466 10.9078 41.2955 10.8042 41.0794 10.645C40.8633 10.4859 40.6886 10.2758 40.5704 10.0329L35.687 0L30.8037 10.0329C30.6855 10.2758 30.5108 10.4859 30.2947 10.6451C30.0786 10.8043 29.8275 10.9078 29.5631 10.9467L18.6436 12.5551L26.5458 20.3642C26.7367 20.5534 26.8795 20.7867 26.962 21.0441C27.0444 21.3015 27.0641 21.5753 27.0194 21.8421L25.1533 32.8696L34.9209 27.6632C35.1572 27.5373 35.4201 27.4716 35.687 27.4716C35.954 27.4716 36.2169 27.5373 36.4532 27.6632L46.2207 32.8696L44.3547 21.8421C44.3099 21.5753 44.3296 21.3015 44.4121 21.0441Z" fill="#dc848d"/>
<path fill-rule="evenodd" clip-rule="evenodd" d="M67.2641 28.373C67.3111 28.2259 67.3924 28.0926 67.501 27.9845L72.0005 23.5221L65.783 22.603C65.6325 22.5808 65.4895 22.5216 65.3665 22.4307C65.2434 22.3397 65.144 22.2196 65.0767 22.0809L62.2961 16.3478L59.5156 22.0809C59.4483 22.2197 59.3489 22.3397 59.2258 22.4307C59.1027 22.5217 58.9598 22.5808 58.8093 22.6031L52.5918 23.5221L57.0913 27.9845C57.1999 28.0926 57.2812 28.2259 57.3282 28.373C57.3752 28.5201 57.3864 28.6765 57.3609 28.829L56.2984 35.1304L61.8599 32.1553C61.9945 32.0834 62.1442 32.0458 62.2961 32.0458C62.4481 32.0458 62.5978 32.0834 62.7324 32.1553L68.2939 35.1304L67.2314 28.829C67.2059 28.6765 67.2171 28.5201 67.2641 28.373Z" fill="#dc848d"/>
<path fill-rule="evenodd" clip-rule="evenodd" d="M14.6723 28.373C14.7193 28.2259 14.8006 28.0926 14.9092 27.9845L19.4087 23.5221L13.1912 22.603C13.0407 22.5808 12.8977 22.5216 12.7747 22.4307C12.6516 22.3397 12.5522 22.2196 12.4849 22.0809L9.70435 16.3478L6.92383 22.0809C6.85652 22.2197 6.75706 22.3397 6.634 22.4307C6.51095 22.5217 6.368 22.5808 6.21748 22.6031L0 23.5221L4.49945 27.9845C4.60813 28.0926 4.68944 28.2259 4.7364 28.373C4.78336 28.5201 4.79457 28.6765 4.76909 28.829L3.70659 35.1304L9.26809 32.1553C9.40265 32.0834 9.55236 32.0458 9.70435 32.0458C9.85633 32.0458 10.006 32.0834 10.1406 32.1553L15.7021 35.1304L14.6396 28.829C14.6141 28.6765 14.6253 28.5201 14.6723 28.373Z" fill="#dc848d"/>
</svg>
