<!DOCTYPE svg PUBLIC "-//W3C//DTD SVG 1.1//EN" "http://www.w3.org/Graphics/SVG/1.1/DTD/svg11.dtd">
<!-- Uploaded to: SVG Repo, www.svgrepo.com, Transformed by: SVG Repo Mixer Tools -->
<svg width="800px" height="800px" viewBox="0 -72.09 402.115 402.115" xmlns="http://www.w3.org/2000/svg" fill="#000000">
<g id="SVGRepo_bgCarrier" stroke-width="0"/>
<g id="SVGRepo_tracerCarrier" stroke-linecap="round" stroke-linejoin="round"/>
<g id="SVGRepo_iconCarrier">
<defs>
<style>.a{fill:#ffffff;}.b{fill:#d9d9d9;}.c{fill:#211715;}.d{fill:#b9091b;}</style>
</defs>
<path class="a" d="M10.039,5.164A16.612,16.612,0,0,1,19.1,2.5c54.121.009,217.291.041,273.993.048a16.685,16.685,0,0,1,16.69,16.68c.019,33.649.072,112.875.094,157.81h-.34c-4.66.27-283.16.53-306.66.53H2.8c-.109-43.929-.334-121.653-.4-158.338A16.686,16.686,0,0,1,10.039,5.164Z"/>
<path class="a" d="M119.569,255.454l-12.236,0c-2.6,0-2.841-6.91-2.049-8.624s2.36-2.814,5.073-3.33c9.4-1.789,11.728-6.865,12.508-15.858.335-3.856.681-6.248.871-10.088.122-2.485.338-5.258.709-9.033,20.81-.02,42.445-.049,63.292-.08.375,3.817.592,6.611.716,9.113.19,3.84.536,6.232.87,10.088.781,8.993,3.108,14.069,12.508,15.858,2.714.516,4.281,1.616,5.073,3.33s.911,8.644-1.755,8.644Z"/>
<path class="b" d="M12.028,206.707a16.632,16.632,0,0,0,7.433,1.775c53.444.206,219.066-.129,273.757-.223a16.685,16.685,0,0,0,16.666-16.695c0-4.26,0-9.148-.011-14.529h-.34c-4.66.27-283.16.53-306.66.53H2.8c.01,5.284.022,10.079.031,14.255A16.694,16.694,0,0,0,12.028,206.707Z"/>
<path class="a" d="M127.553,255.456l-20.22,0c-2.6,0-2.841-6.91-2.049-8.624s2.36-2.814,5.073-3.33a18.5,18.5,0,0,0,6.227-2.211c21.152,0,58.527,0,79.025,0a18.4,18.4,0,0,0,6.222,2.214c2.714.516,4.281,1.616,5.073,3.33s.911,8.644-1.755,8.644Z"/>
<path class="c" d="M185.446,209.575c.553,5.857.906,11.73,1.436,17.59.38,4.209.89,8.757,3.391,12.316,2.6,3.7,6.615,5.42,10.92,6.331a7.2,7.2,0,0,1,2.668.949,3.132,3.132,0,0,1,.778.9c.151.21.23.738.052.06.043.164.1.324.135.489.046.2.08.394.111.593-.073-.479,0,.035.007.155.028.463.058.923.056,1.387a8.6,8.6,0,0,1-.283,2.4c-.057.246-.069.608-.252.615l.157-.181-.12.131.224-.158q-.343.195.124-.042c.288-.2.3-.028-.084-.045-.456-.021-.918,0-1.375,0h-4.984l-16.5,0-44.161-.009-18.993,0c-3.635,0-7.285-.1-10.919,0-.376.011-.566-.157-.193.046.293.159.281.007.367.252-.064-.184-.216-.365-.3-.547.173.391-.047-.2-.072-.294a7.943,7.943,0,0,1-.338-2.166q-.029-.631,0-1.265c.01-.232.028-.463.048-.695.053-.612-.089.326.032-.169.043-.181.323-.828.106-.427a2.406,2.406,0,0,1,.74-.931,7.485,7.485,0,0,1,3.128-1.114,20.578,20.578,0,0,0,6.32-2.307,14.863,14.863,0,0,0,6.636-9.476,47.4,47.4,0,0,0,1.044-7.254c.267-2.893.6-5.779.762-8.681q.234-4.231.632-8.449a2.418,2.418,0,0,0-2.4-2.4,2.451,2.451,0,0,0-2.4,2.4c-.569,6.015-.93,12.046-1.478,18.065a29.086,29.086,0,0,1-1.125,6.236,9.605,9.605,0,0,1-2.371,4.091,6.9,6.9,0,0,1-1.722,1.323,12.239,12.239,0,0,1-2.884,1.248c-2.6.8-5.286.969-7.429,2.829-2.984,2.59-3.027,7.62-1.7,11.081.745,1.94,2.08,3.327,4.249,3.4.522.019,1.049,0,1.571,0h5.391l17.408,0,45.62.009,18.424,0c3.048,0,6.125.123,9.172,0,4.479-.179,5-5.835,4.639-9.262a7.551,7.551,0,0,0-2.682-5.423c-2.2-1.77-4.916-1.905-7.5-2.744a10.6,10.6,0,0,1-4.476-2.651,10,10,0,0,1-2.279-4.175,31.845,31.845,0,0,1-1.087-6.452c-.269-2.97-.622-5.932-.792-8.911-.164-2.9-.371-5.789-.644-8.679a2.466,2.466,0,0,0-2.4-2.4,2.417,2.417,0,0,0-2.4,2.4Z"/>
<path class="c" d="M128.1,243.684h56.094c3.089,0,3.094-4.8,0-4.8H128.1c-3.089,0-3.094,4.8,0,4.8Z"/>
<path class="c" d="M0,19.227Q.047,43.544.113,67.86.19,97.474.27,127.09q.069,26.289.136,52.58.012,5.018.023,10.035c.01,4.58.619,8.926,3.3,12.789A19.255,19.255,0,0,0,15.271,210.4c3.09.682,6.321.488,9.467.5q19.216.055,38.433.048,25,.006,50.006-.018,27.562-.024,55.125-.062,26.9-.037,53.789-.083,23.073-.038,46.147-.08l17.974-.033c2.68,0,5.4.125,8.077-.049a19.245,19.245,0,0,0,12.832-6,19.494,19.494,0,0,0,5.162-13.32c.011-3.223,0-6.447,0-9.671q-.007-11.794-.014-23.589-.016-28.571-.035-57.14-.018-27.655-.035-55.311-.007-10.861-.014-21.723c0-3.859.179-7.734-1.248-11.4a19.193,19.193,0,0,0-9.4-10.351C295.488-.794,288.135.145,281.587.144L261.87.14,213.482.132,158.42.122,103.2.112,54.352.1,34.286.1,25.669.1c-2.738,0-5.557-.182-8.282.086A19.321,19.321,0,0,0,0,19.227c-.033,3.09,4.767,3.092,4.8,0A14.5,14.5,0,0,1,10.307,7.894c3.176-2.473,6.772-3,10.667-3l16.557,0,43.576.007,52.268.01,55.129.01,51.392.009,41.821.007h8.168c3.621,0,7.048.014,10.3,1.881a14.443,14.443,0,0,1,7.053,10.289c.472,3.082.144,6.432.146,9.547l.03,48.5q.019,28.755.037,57.511.015,24.939.029,49.877c0,3.279.144,6.595-.017,9.871a14.3,14.3,0,0,1-5.8,10.675c-5.229,3.815-12.326,2.768-18.45,2.779l-40.247.072q-25.136.043-50.273.083-27.157.04-54.316.072-26.22.028-52.438.041-22.094.007-44.186-.013-8.507-.011-17.012-.033c-2.824-.008-5.838.261-8.593-.42a14.471,14.471,0,0,1-9.591-7.861c-1.624-3.436-1.323-7.2-1.331-10.894L5.2,176.753l-.063-24.7q-.075-28.785-.153-57.571-.072-27.32-.139-54.638Q4.82,29.533,4.8,19.227C4.794,16.139-.006,16.133,0,19.227Z"/>
<path class="c" d="M2.8,179.965q6.81,0,13.621-.007l25.388-.02q17.007-.015,34.013-.033,19.953-.021,39.908-.044,21.267-.024,42.534-.053,21.17-.027,42.339-.06,19.591-.031,39.184-.067,16.533-.033,33.066-.073,12.03-.03,24.058-.076c3.966-.017,7.934-.007,11.9-.078.353-.007.706-.019,1.06-.019,3.088,0,3.093-4.8,0-4.8-2.941,0-5.884.063-8.825.078q-10.689.054-21.378.077-15.561.043-31.122.073-19.058.039-38.114.069-20.925.035-41.851.062-21.378.03-42.757.055-20.352.025-40.7.046-17.844.02-35.689.036l-27.8.024q-8.364.006-16.728.01H2.8c-3.089,0-3.094,4.8,0,4.8Z"/>
<path class="c" d="M162.789,193.168a6.2,6.2,0,0,1-6.575,6.28c-4.433,0-6.72-3.029-6.72-6.283a6.373,6.373,0,0,1,6.461-6.462A6.724,6.724,0,0,1,162.789,193.168Z"/>
<path class="d" d="M244.028,101.079c-.018,8.814-.062,29.061-.062,31.924l-28.73-.059V97.033h28.8C244.036,97.286,244.033,98.8,244.028,101.079Z"/>
<path class="a" d="M195.89,84.349c0-3.09.006-5.08.006-5.316H167.1v53.806l28.74.064C195.836,129.371,195.875,97.259,195.89,84.349Z"/>
<path class="a" d="M147.76,66.878c0-3.464.006-5.633.006-5.845h-28.8v71.7c9.268.021,18.95.043,28.73.067C147.7,128.252,147.743,83.2,147.76,66.878Z"/>
<path class="a" d="M99.626,54.829c.006-6.949.01-11.518.01-11.8h-28.8v89.588c8.168.017,17.95.039,28.73.064C99.566,127.441,99.607,77.957,99.626,54.829Z"/>
<path class="c" d="M246.366,133.013c0-10.467.039-20.935.061-31.4q0-2.289.009-4.577a2.435,2.435,0,0,0-2.4-2.4h-28.8a2.435,2.435,0,0,0-2.4,2.4v35.92c0,3.089,4.8,3.094,4.8,0V97.033l-2.4,2.4h28.8l-2.4-2.4c0,10.069-.043,20.138-.062,30.207q0,2.886-.008,5.773c0,3.089,4.8,3.094,4.8,0Z"/>
<path class="c" d="M198.236,132.913q0-9.866.02-19.732.015-13.737.032-27.473,0-3.337.008-6.675a2.435,2.435,0,0,0-2.4-2.4H167.1a2.435,2.435,0,0,0-2.4,2.4v53.82c0,3.089,4.8,3.094,4.8,0V79.033l-2.4,2.4h28.8l-2.4-2.4q0,8.765-.021,17.528-.016,14.043-.032,28.088,0,4.132-.007,8.264c0,3.089,4.8,3.094,4.8,0Z"/>
<path class="c" d="M150.1,132.8q0-13.2.023-26.4.02-18.308.038-36.613,0-4.379.009-8.758a2.435,2.435,0,0,0-2.4-2.4h-28.8a2.435,2.435,0,0,0-2.4,2.4v71.7c0,3.089,4.8,3.094,4.8,0v-71.7l-2.4,2.4h28.8l-2.4-2.4q0,11.685-.024,23.371-.02,18.729-.038,37.459,0,5.471-.008,10.94c0,3.089,4.8,3.094,4.8,0Z"/>
<path class="c" d="M101.966,132.693q0-16.506.023-33.013.019-22.913.038-45.825,0-5.41.009-10.822a2.435,2.435,0,0,0-2.4-2.4h-28.8a2.435,2.435,0,0,0-2.4,2.4v89.59c0,3.089,4.8,3.094,4.8,0V43.033l-2.4,2.4h28.8l-2.4-2.4q0,14.521-.024,29.042-.02,23.467-.038,46.935,0,6.841-.008,13.683c0,3.089,4.8,3.094,4.8,0Z"/>
<path class="c" d="M47.236,134.979q4.578,0,9.155.013,8.244.014,16.489.032l21.988.049,26,.059,28.193.064,28.675.066,27.442.061,24.385.051q9.93.02,19.859.037,6.744.012,13.489.018h2.129c3.089,0,3.094-4.8,0-4.8q-5.837,0-11.675-.012-9.233-.013-18.463-.032l-23.412-.049-26.881-.059-28.533-.064-28.469-.066-26.69-.061-23.094-.051q-9.009-.019-18.017-.037-5.55-.011-11.1-.018H47.236c-3.088,0-3.093,4.8,0,4.8Z"/>
<path class="c" d="M330.406,150.077a17.548,17.548,0,0,0,10.238,15.1c5.308,2.309,13.188,3.961,17.491-1.053a9.2,9.2,0,0,0,1.755-9.4,7.485,7.485,0,0,0-8.509-4.333,9.39,9.39,0,0,0-7.247,7.416,22.443,22.443,0,0,0,1.217,10.794c2.377,6.444,8.16,12.225,15.51,11.488a2.467,2.467,0,0,0,2.4-2.4,2.417,2.417,0,0,0-2.4-2.4c-4.5.451-7.966-2.373-10.038-6.149a16.915,16.915,0,0,1-1.881-6.239c-.267-2.326-.646-5.029,1.329-6.726A4.342,4.342,0,0,1,353.223,155c.221.014,1.027.244.715.114a2.939,2.939,0,0,1,1.19.839c1.09,1.361.6,3.489-.387,4.771-2.559,3.338-8.138,1.594-11.409.392a12.16,12.16,0,0,1-6-4.739,13.273,13.273,0,0,1-1.706-3.862,10.146,10.146,0,0,1-.415-2.439,2.458,2.458,0,0,0-2.4-2.4,2.42,2.42,0,0,0-2.4,2.4Z"/>
<path class="a" d="M399.7,198.112c-1.648-3.288-6.149-9.854-12.59-11.045-5.572-1.03-12.611,1.641-15.1,5.4a14.335,14.335,0,0,0,11.217,12.816C390.4,207.05,397.64,201.78,399.7,198.112Z"/>
<path class="c" d="M364.329,190.846c5.009,3.283,10.7,4.7,16.469,5.982a2.4,2.4,0,1,0,1.276-4.629c-2.736-.606-5.485-1.2-8.155-2.061a28.3,28.3,0,0,1-7.167-3.436,2.4,2.4,0,1,0-2.423,4.144Z"/>
<path class="c" d="M401.771,196.9a24.95,24.95,0,0,0-9.586-10.485c-5.27-2.937-11.733-2.331-16.985.346-2.048,1.044-5.681,3.315-5.574,5.954a15.369,15.369,0,0,0,2.051,6.733,17.162,17.162,0,0,0,13.936,8.571c6.1.27,13.058-3.377,16.158-8.7,1.559-2.674-2.588-5.093-4.145-2.423-2.623,4.5-9.288,7.416-14.519,5.859a12.467,12.467,0,0,1-6.3-4.21,11.827,11.827,0,0,1-1.716-3.06,11.327,11.327,0,0,1-.685-3.027l-.328,1.212c1.283-1.854,3.813-3.081,6.014-3.74a13.219,13.219,0,0,1,8.054-.112c4.271,1.454,7.5,5.615,9.477,9.5C399.025,202.079,403.167,199.652,401.771,196.9Z"/>
</g>
</svg>