<svg width="20" height="20" viewBox="0 0 20 20" fill="none" xmlns="http://www.w3.org/2000/svg">
<path d="M16.25 2.5H3.75C3.41848 2.5 3.10054 2.6317 2.86612 2.86612C2.6317 3.10054 2.5 3.41848 2.5 3.75V16.25C2.5 16.5815 2.6317 16.8995 2.86612 17.1339C3.10054 17.3683 3.41848 17.5 3.75 17.5H16.25C16.5815 17.5 16.8995 17.3683 17.1339 17.1339C17.3683 16.8995 17.5 16.5815 17.5 16.25V3.75C17.5 3.41848 17.3683 3.10054 17.1339 2.86612C16.8995 2.6317 16.5815 2.5 16.25 2.5ZM14.375 7.5C14.375 7.66576 14.3092 7.82473 14.1919 7.94194C14.0747 8.05915 13.9158 8.125 13.75 8.125C13.5842 8.125 13.4253 8.05915 13.3081 7.94194C13.1908 7.82473 13.125 7.66576 13.125 7.5V6.875H10.625V13.75H11.875C12.0408 13.75 12.1997 13.8158 12.3169 13.9331C12.4342 14.0503 12.5 14.2092 12.5 14.375C12.5 14.5408 12.4342 14.6997 12.3169 14.8169C12.1997 14.9342 12.0408 15 11.875 15H8.125C7.95924 15 7.80027 14.9342 7.68306 14.8169C7.56585 14.6997 7.5 14.5408 7.5 14.375C7.5 14.2092 7.56585 14.0503 7.68306 13.9331C7.80027 13.8158 7.95924 13.75 8.125 13.75H9.375V6.875H6.875V7.5C6.875 7.66576 6.80915 7.82473 6.69194 7.94194C6.57473 8.05915 6.41576 8.125 6.25 8.125C6.08424 8.125 5.92527 8.05915 5.80806 7.94194C5.69085 7.82473 5.625 7.66576 5.625 7.5V6.25C5.625 6.08424 5.69085 5.92527 5.80806 5.80806C5.92527 5.69085 6.08424 5.625 6.25 5.625H13.75C13.9158 5.625 14.0747 5.69085 14.1919 5.80806C14.3092 5.92527 14.375 6.08424 14.375 6.25V7.5Z" fill="#B01921"/>
</svg>
