<svg width="20" height="20" viewBox="0 0 20 20" fill="none" xmlns="http://www.w3.org/2000/svg">
<path d="M15.2878 12.285C16.4752 12.285 17.4371 13.2469 17.4371 14.4343V15.2525H17.4311C17.3908 16.1787 17.1367 17.3389 16.0976 18.2865C14.9624 19.3231 13.0019 20 9.71854 20C6.434 20 4.47468 19.3231 3.33946 18.2865C2.30043 17.3389 2.04631 16.1775 2.00594 15.2525H2V14.4332C2 13.2469 2.96185 12.285 4.14932 12.285H15.2878ZM5.5624 2.18798C5.09 2.18798 4.63694 2.37565 4.3029 2.70969C3.96886 3.04373 3.7812 3.49678 3.7812 3.96919V8.71906C3.7812 9.19146 3.96886 9.64452 4.3029 9.97856C4.63694 10.3126 5.09 10.5003 5.5624 10.5003H13.8747C14.3471 10.5003 14.8001 10.3126 15.1342 9.97856C15.4682 9.64452 15.6559 9.19146 15.6559 8.71906V3.96919C15.6559 3.49678 15.4682 3.04373 15.1342 2.70969C14.8001 2.37565 14.3471 2.18798 13.8747 2.18798H10.3123V1.59425C10.3156 1.51538 10.3026 1.43668 10.2739 1.36312C10.2453 1.28957 10.2017 1.22276 10.1458 1.16694C10.09 1.11113 10.0232 1.06751 9.94967 1.03886C9.87611 1.01021 9.79741 0.997156 9.71854 1.00052C9.3908 1.00052 9.12481 1.27363 9.12481 1.59425V2.18798H5.5624ZM6.15614 6.34412C6.15614 6.02919 6.28125 5.72715 6.50394 5.50446C6.72663 5.28176 7.02867 5.15665 7.3436 5.15665C7.65854 5.15665 7.96058 5.28176 8.18327 5.50446C8.40596 5.72715 8.53107 6.02919 8.53107 6.34412C8.53107 6.65906 8.40596 6.96109 8.18327 7.18379C7.96058 7.40648 7.65854 7.53159 7.3436 7.53159C7.02867 7.53159 6.72663 7.40648 6.50394 7.18379C6.28125 6.96109 6.15614 6.65906 6.15614 6.34412ZM10.906 6.34412C10.906 6.02919 11.0311 5.72715 11.2538 5.50446C11.4765 5.28176 11.7785 5.15665 12.0935 5.15665C12.4084 5.15665 12.7104 5.28176 12.9331 5.50446C13.1558 5.72715 13.2809 6.02919 13.2809 6.34412C13.2809 6.65906 13.1558 6.96109 12.9331 7.18379C12.7104 7.40648 12.4084 7.53159 12.0935 7.53159C11.7785 7.53159 11.4765 7.40648 11.2538 7.18379C11.0311 6.96109 10.906 6.65906 10.906 6.34412Z" fill="#B01921"/>
</svg>
