<svg xmlns="http://www.w3.org/2000/svg" fill="#000000" width="800px" height="800px" viewBox="0 0 24 24" id="cashier" data-name="Line Color" class="icon line-color"><path id="secondary" d="M17,3H11a1,1,0,0,0-1,1V6a1,1,0,0,0,1,1h6a1,1,0,0,0,1-1V4A1,1,0,0,0,17,3ZM14,7v4" style="fill: none; stroke: #b8001c; stroke-linecap: round; stroke-linejoin: round; stroke-width: 2;"/><path id="primary" d="M21,17v3a1,1,0,0,1-1,1H4a1,1,0,0,1-1-1V17Zm-1,0V12a1,1,0,0,0-1-1H5a1,1,0,0,0-1,1v5Z" style="fill: none; stroke: #db838d; stroke-linecap: round; stroke-linejoin: round; stroke-width: 2;"/></svg>