<svg xmlns="http://www.w3.org/2000/svg" width="800px" height="800px" viewBox="0 0 1024 1024" class="icon" version="1.1"><path d="M757.1 955.7h-494c-132.4 0-240.8-108.3-240.8-240.8 0-132.4 108.3-240.8 240.8-240.8h494c132.4 0 240.8 108.3 240.8 240.8S889.6 955.7 757.1 955.7z" fill="#ffffff"/><path d="M757.1 968.8h-494c-67.6 0-131.2-26.5-179.3-74.6-48.1-48-74.5-111.7-74.5-179.3s26.5-131.2 74.6-179.3C132 487.5 195.7 461 263.2 461h494c67.6 0 131.2 26.5 179.3 74.6 48.1 48.1 74.6 111.8 74.6 179.3s-26.5 131.2-74.6 179.3c-48.1 48.2-111.8 74.6-179.4 74.6zM263.2 487.3c-60.5 0-117.6 23.8-160.8 66.9C59.3 597.3 35.5 654.4 35.5 715c0 60.5 23.8 117.6 66.9 160.8 43.1 43.1 100.2 66.9 160.8 66.9h494c60.5 0 117.6-23.8 160.8-66.9 43.1-43.1 66.9-100.2 66.9-160.8 0-60.5-23.8-117.6-66.9-160.8-43.1-43.1-100.2-66.9-160.8-66.9h-494z" fill="#b8001c"/><path d="M283.9 714.9m-132.8 0a132.8 132.8 0 1 0 265.6 0 132.8 132.8 0 1 0-265.6 0Z" fill="#db838d"/><path d="M283.9 860.9C203.4 860.9 138 795.4 138 715s65.4-146 145.9-146 145.9 65.5 145.9 145.9-65.4 146-145.9 146z m0-265.6c-66 0-119.7 53.7-119.7 119.7s53.7 119.7 119.7 119.7S403.6 781 403.6 715s-53.7-119.7-119.7-119.7z" fill="#b8001c"/><path d="M747.9 650.6a31 32.7 0 1 0 62 0 31 32.7 0 1 0-62 0Z" fill="#db838d"/><path d="M747.9 779.3a31 32.7 0 1 0 62 0 31 32.7 0 1 0-62 0Z" fill="#db838d"/><path d="M810.5 714.9a32.7 31 0 1 0 65.4 0 32.7 31 0 1 0-65.4 0Z" fill="#db838d"/><path d="M681.8 714.9a32.7 31 0 1 0 65.4 0 32.7 31 0 1 0-65.4 0Z" fill="#db838d"/><path d="M510.1 478.3c-6.5 0-12.2-4.8-13-11.5-1-7.5-23.1-183.7 0.7-249.5 9-24.9 42.3-63.6 85.2-67.3 45.8-4 77.3 33.3 95.7 65.2 25.2 43.7 48.1 50.9 62.9 49.2 27-3.1 50.6-36.3 55.7-53.2 10.6-35.2 3.2-135.4-0.5-171-0.8-7.2 4.5-13.7 11.7-14.4 7.2-0.8 13.7 4.5 14.4 11.7 0.6 5.4 13.7 133.9-0.5 181.3-4 13.4-13.9 29.7-25.8 42.5-11 11.8-28.9 26.5-52 29.2-15.7 1.8-31.1-2.2-45.6-12-15.3-10.3-29.8-27.2-43-50.1-21.2-36.9-45-54.4-70.7-52.2-30.8 2.7-56.9 33.6-62.9 50.1-21.7 59.9 0.5 235.4 0.7 237.2 0.9 7.2-4.2 13.8-11.4 14.7-0.5 0.1-1 0.1-1.6 0.1z" fill="#b8001c"/></svg>