<svg xmlns="http://www.w3.org/2000/svg" width="800px" height="800px" viewBox="0 0 64 64" data-name="Layer 1" id="Layer_1"><defs fill="#000000"><style>
      .cls-1 {
        fill: #d60120;
      }

      .cls-2 {
        fill: #8b8c89;
      }

      .cls-3 {
        fill: #db6e7a;
      }

      .cls-4 {
        fill: #ff9fab;
      }

      .cls-5 {
        fill: #b8001c;
      }
    </style></defs><path class="cls-5" d="M37,54c0,2.76-2.24,5-5,5s-5-2.24-5-5" fill="#000000"/><ellipse class="cls-3" cx="32" cy="27" rx="15" ry="4" fill="#000000"/><path class="cls-1" d="M37.55,30.71c-.9-2.17-3.05-3.71-5.55-3.71s-4.65,1.54-5.55,3.71c1.72,.19,3.59,.29,5.55,.29s3.83-.1,5.55-.29Z" fill="#000000"/><path class="cls-5" d="M37,50l9.6-22.08c-1.56,1.77-7.51,3.08-14.6,3.08s-13.04-1.31-14.6-3.08l9.6,22.08" fill="#000000"/><path class="cls-2" d="M38,51.59v2.41h-1c0,.49-.07,.95-.2,1.4,.99,.39,2.07,.6,3.2,.6,4.97,0,9-4.03,9-9,0-4.24-2.94-7.8-6.89-8.75l-1.64,3.78c2.54,.23,4.53,2.37,4.53,4.97,0,2.76-2.24,5-5,5-.71,0-1.39-.15-2-.41Z" fill="#000000"/><rect class="cls-4" height="4" width="12" x="26" y="50" fill="#000000"/><polygon class="cls-3" points="45 5 45 15 48 15 48 20 52 15 59 15 59 5 45 5" fill="#000000"/><polygon class="cls-3" points="19 5 19 15 16 15 16 20 12 15 5 15 5 5 19 5" fill="#000000"/><polygon class="cls-4" points="39 5 39 15 34 15 32 20 30 15 25 15 25 5 39 5" fill="#000000"/></svg>