<svg xmlns="http://www.w3.org/2000/svg" width="69" height="67" viewBox="0 0 69 67"><title>icon-reporting</title><path fill="#dc848d" d="M34.5 0C15.48 0 0 14.45 0 32.22A30.56 30.56 0 0 0 6.27 50.7a1.94 1.94 0 0 1 .28 1.86L1.3 67l16.26-5.74a1.93 1.93 0 0 1 1.81-.13 36.14 36.14 0 0 0 15.13 3.3C53.52 64.43 69 50 69 32.22S53.52 0 34.5 0zM16 36.93a4.76 4.76 0 1 1 4.76-4.75A4.75 4.75 0 0 1 16 36.93zm18.5 0a4.76 4.76 0 1 1 4.75-4.75 4.75 4.75 0 0 1-4.75 4.75zm18.5 0a4.76 4.76 0 1 1 4.75-4.75A4.76 4.76 0 0 1 53 36.93z"/></svg>
