<svg width="73" height="73" viewBox="0 0 73 73" fill="none" xmlns="http://www.w3.org/2000/svg">
<path fill-rule="evenodd" clip-rule="evenodd" d="M10.3966 23.8423C8.79684 23.8423 7.5 25.1391 7.5 26.7389C7.5 28.2907 8.72299 29.5668 10.2734 29.6328L27.8893 30.3824V69.8882C27.8893 71.5197 29.2119 72.8423 30.8434 72.8423C32.4055 72.8423 33.6976 71.6261 33.7921 70.0669L34.8982 51.8157C34.8982 48.6299 38.7212 48.152 40.6327 49.9042C42.3701 51.4968 43.5044 52.548 44.199 53.1978C44.6687 53.6373 44.6097 54.384 44.0828 54.7528L38.4966 58.6632C36.9314 59.7588 36.6949 61.9848 37.995 63.3849C38.9823 64.4482 40.5685 64.699 41.8357 63.9923L51.8044 58.4329C54.1296 57.1361 54.7367 54.0633 53.0793 51.9797L45.0929 41.9396V30.4416L62.7133 29.6406C64.2625 29.5702 65.4823 28.2937 65.4823 26.743C65.4823 25.141 64.1836 23.8423 62.5816 23.8423H10.3966Z" fill="#dc848d"/>
<circle cx="36.5" cy="11.8423" r="8" fill="#dc848d"/>
</svg>
