<svg xmlns="http://www.w3.org/2000/svg" xmlns:xlink="http://www.w3.org/1999/xlink" fill="#da828d" height="800px" width="800px" version="1.1" id="Capa_1" viewBox="0 0 297 297" xml:space="preserve">
<g>
	<path d="M186.401,117.484c-2.832-2.831-7.09-3.677-10.789-2.146c-3.699,1.532-6.111,5.142-6.111,9.147v143.982   c0,5.467,4.433,9.9,9.9,9.9h41.137c5.467,0,9.9-4.433,9.9-9.9V165.622c0-2.626-1.043-5.143-2.899-7.001L186.401,117.484z    M210.638,258.567h-21.337V148.386l21.337,21.337V258.567z" fill="#da828d"/>
	<path d="M142.052,115.338c-3.7-1.53-7.958-0.684-10.789,2.146l-41.137,41.138c-1.856,1.857-2.899,4.375-2.899,7.001v102.844   c0,5.467,4.433,9.9,9.9,9.9h41.137c5.467,0,9.9-4.433,9.9-9.9V124.484C148.163,120.48,145.751,116.87,142.052,115.338z    M128.363,258.567h-21.337v-88.843l21.337-21.338V258.567z" fill="#da828d"/>
	<path d="M21.851,117.484c-2.832-2.831-7.09-3.677-10.789-2.146c-3.699,1.532-6.111,5.142-6.111,9.147v143.982   c0,5.467,4.433,9.9,9.9,9.9h41.137c5.467,0,9.9-4.433,9.9-9.9V165.623c0-2.626-1.043-5.143-2.899-7.001L21.851,117.484z    M46.087,258.567H24.75V148.386l21.337,21.338V258.567z" fill="#da828d"/>
	<path d="M296.889,129.956l-6.359-42.116c-0.817-5.405-5.856-9.121-11.267-8.311c-5.406,0.816-9.128,5.861-8.311,11.267l2.35,15.562   L162.548,20.703c-3.698-2.86-8.888-2.744-12.455,0.277L77.563,82.401L16.901,21.739c-3.867-3.865-10.134-3.865-14.001,0   c-3.866,3.866-3.866,10.135,0,14.001l67.106,67.105c3.642,3.642,9.468,3.882,13.399,0.554l73.368-62.132l103.588,80.114   l-16.152-0.093c-5.475-0.021-9.926,4.376-9.957,9.843c-0.031,5.468,4.376,9.925,9.843,9.957l42.948,0.246c0.019,0,0.038,0,0.057,0   c2.872,0,5.605-1.248,7.486-3.421C296.48,135.724,297.321,132.818,296.889,129.956z" fill="#da828d"/>
</g>
</svg>