<?xml version="1.0" encoding="utf-8"?>
<!-- Generator: Adobe Illustrator 27.5.0, SVG Export Plug-In . SVG Version: 6.00 Build 0)  -->
<svg version="1.1" id="Capa_1" xmlns="http://www.w3.org/2000/svg" xmlns:xlink="http://www.w3.org/1999/xlink" x="0px" y="0px"
	 viewBox="0 0 425.2 425.2" style="enable-background:new 0 0 425.2 425.2;" xml:space="preserve">
<rect x="0.002" y="0.002" style="fill:#FFFFFF;" width="425.197" height="425.196"/>
<g>
	<g>
		<path style="fill:#9EABD3;" d="M146.658,338.656l-15.664,11.554c0,1.558,1.266,2.819,2.82,2.819h136.537
			c1.555,0,2.814-1.262,2.814-2.819l-15.658-11.554H146.658z"/>
		<g>
			<g>
				<rect x="147.096" y="335.049" style="fill:#184892;" width="109.975" height="7.833"/>
				<polygon style="fill:#A4DEF6;" points="147.096,335.049 161.67,324.864 242.492,324.864 257.07,335.049 				"/>
			</g>
			<g>
				<path style="fill:#184892;" d="M341.406,287.305c0,2.147-1.736,3.886-3.883,3.886H66.639c-2.143,0-3.885-1.739-3.885-3.886
					V112.423c0-2.146,1.742-3.886,3.885-3.886h270.885c2.146,0,3.883,1.74,3.883,3.886V287.305z"/>
				<g>
					<rect x="71.449" y="120.47" style="fill:#6A54A1;" width="261.268" height="158.788"/>
					<polygon style="opacity:0.3;fill:#FFFFFF;" points="71.449,120.47 71.449,279.258 332.717,279.258 					"/>
				</g>
			</g>
			<path style="fill:#184892;" d="M178.801,291.19v36.939c0,2.115,10.426,3.83,23.281,3.83c12.857,0,23.281-1.715,23.281-3.83
				V291.19H178.801z"/>
		</g>
	</g>
	<rect x="232.936" y="79.13" style="fill:#8DA4CE;" width="135.277" height="95.457"/>
	<g>
		<rect x="226.124" y="72.171" style="fill:#A5DBEF;" width="135.277" height="95.457"/>
		<rect x="226.124" y="72.171" style="fill:#6881BD;" width="135.277" height="8.941"/>
		<g>
			<circle style="fill:#A4DEF6;" cx="342.184" cy="76.368" r="2.5"/>
			<circle style="fill:#6A54A1;" cx="349.184" cy="76.368" r="2.5"/>
			<circle style="fill:#6C3D85;" cx="355.876" cy="76.368" r="2.5"/>
		</g>
		<rect x="234.669" y="89.112" style="fill:#00B4DB;" width="27.864" height="27.864"/>
		<rect x="234.669" y="126.612" style="fill:#00B4DB;" width="27.864" height="27.864"/>
		<g>
			<path style="fill:none;stroke:#AEE0EF;stroke-width:0.75;stroke-miterlimit:10;" d="M257.595,141.192
				c0.016-0.214,0.027-0.43,0.027-0.647c0-0.218-0.012-0.434-0.027-0.647c-1.781-0.758-2.025-1.64-0.861-3.164
				c-0.182-0.367-0.387-0.72-0.617-1.055c-1.897,0.273-2.525-0.356-2.252-2.252c-0.336-0.23-0.688-0.436-1.055-0.617
				c-1.523,1.165-2.406,0.92-3.164-0.86c-0.213-0.017-0.43-0.027-0.646-0.027c-0.219,0-0.435,0.011-0.648,0.026
				c-0.758,1.781-1.64,2.026-3.164,0.861c-0.367,0.182-0.72,0.388-1.055,0.617c0.273,1.895-0.355,2.525-2.252,2.252
				c-0.23,0.335-0.436,0.688-0.617,1.055c1.166,1.524,0.921,2.406-0.86,3.164c-0.017,0.214-0.026,0.43-0.026,0.647
				c0,0.218,0.01,0.434,0.026,0.647c1.781,0.758,2.026,1.64,0.86,3.164c0.182,0.367,0.387,0.72,0.617,1.055
				c1.896-0.273,2.525,0.355,2.252,2.252c0.335,0.229,0.688,0.436,1.055,0.616c1.524-1.164,2.406-0.919,3.164,0.861
				c0.214,0.017,0.43,0.027,0.648,0.027c0.217,0,0.434-0.011,0.646-0.027c0.758-1.78,1.641-2.025,3.164-0.86
				c0.367-0.182,0.719-0.388,1.055-0.617c-0.273-1.896,0.355-2.525,2.252-2.252c0.23-0.335,0.436-0.688,0.617-1.055
				C255.569,142.832,255.814,141.95,257.595,141.192z"/>
			<path style="fill:none;stroke:#AEE0EF;stroke-width:0.75;stroke-miterlimit:10;" d="M253.013,140.545
				c0,2.217-1.797,4.015-4.014,4.015c-2.217,0-4.016-1.798-4.016-4.015c0-2.217,1.799-4.015,4.016-4.015
				C251.216,136.53,253.013,138.328,253.013,140.545z"/>
			<g>
				<path style="fill:none;stroke:#AEE0EF;stroke-width:0.75;stroke-miterlimit:10;" d="M248.997,146.471
					c-3.271,0-5.925-2.652-5.925-5.925c0-3.273,2.653-5.927,5.925-5.927"/>
				<g>
					<g>
						<path style="fill:none;stroke:#AEE0EF;stroke-width:0.75;stroke-miterlimit:10;" d="M248.997,134.619
							c0.169,0,0.335,0.007,0.5,0.021"/>
						<path style="fill:none;stroke:#AEE0EF;stroke-width:0.75;stroke-miterlimit:10;stroke-dasharray:1.0348,1.0348;" d="
							M250.518,134.816c2.537,0.671,4.407,2.982,4.407,5.73c0,2.926-2.122,5.356-4.911,5.838"/>
						<path style="fill:none;stroke:#AEE0EF;stroke-width:0.75;stroke-miterlimit:10;" d="M249.497,146.45
							c-0.165,0.014-0.331,0.021-0.5,0.021"/>
					</g>
				</g>
			</g>
		</g>
		<g>
			<path style="fill:none;stroke:#AEE0EF;stroke-width:0.75;stroke-miterlimit:10;" d="M255.282,111.608
				c0,0.846-0.686,1.531-1.531,1.531h-9.724c-0.845,0-1.531-0.686-1.531-1.531v-9.725c0-0.846,0.687-1.53,1.531-1.53h9.724
				c0.846,0,1.531,0.685,1.531,1.53V111.608z"/>
			<path style="fill:none;stroke:#AEE0EF;stroke-width:0.75;stroke-miterlimit:10;" d="M243.864,106.145v-3.22
				c0-0.665,0.539-1.203,1.203-1.203h1.118"/>
			<g>
				
					<line style="fill:none;stroke:#AEE0EF;stroke-width:0.75;stroke-miterlimit:10;" x1="245.221" y1="111.771" x2="246.48" y2="111.771"/>
				
					<line style="fill:none;stroke:#AEE0EF;stroke-width:0.75;stroke-miterlimit:10;" x1="247.11" y1="111.771" x2="248.369" y2="111.771"/>
				
					<line style="fill:none;stroke:#AEE0EF;stroke-width:0.75;stroke-miterlimit:10;" x1="248.999" y1="111.771" x2="250.257" y2="111.771"/>
				
					<line style="fill:none;stroke:#AEE0EF;stroke-width:0.75;stroke-miterlimit:10;" x1="250.887" y1="111.771" x2="252.145" y2="111.771"/>
			</g>
			<path style="fill:none;stroke:#AEE0EF;stroke-width:0.75;stroke-miterlimit:10;" d="M248.89,109.583
				c-1.566,0-2.837-1.271-2.837-2.836c0-1.567,1.27-2.838,2.837-2.838"/>
			<g>
				<g>
					<path style="fill:none;stroke:#AEE0EF;stroke-width:0.75;stroke-miterlimit:10;" d="M248.89,103.909
						c0.17,0,0.337,0.015,0.499,0.043"/>
					<path style="fill:none;stroke:#AEE0EF;stroke-width:0.75;stroke-miterlimit:10;stroke-dasharray:1.1283,1.1283;" d="
						M250.432,104.365c0.779,0.506,1.294,1.384,1.294,2.382c0,1.199-0.745,2.225-1.798,2.64"/>
					<path style="fill:none;stroke:#AEE0EF;stroke-width:0.75;stroke-miterlimit:10;" d="M249.389,109.54
						c-0.162,0.028-0.329,0.043-0.499,0.043"/>
				</g>
			</g>
			<g>
				<path style="fill:none;stroke:#AEE0EF;stroke-width:0.75;stroke-miterlimit:10;" d="M253.491,100.354h-9.204v-4.015
					c0-1.868,1.52-3.389,3.389-3.389h2.428c1.868,0,3.388,1.521,3.388,3.389V100.354z M246.053,100.354h5.673v-4.015
					c0-0.895-0.728-1.622-1.622-1.622h-2.428c-0.895,0-1.623,0.728-1.623,1.622V100.354z"/>
			</g>
			<g>
				<g>
					
						<line style="fill:none;stroke:#AEE0EF;stroke-width:0.75;stroke-miterlimit:10;" x1="245.221" y1="100.077" x2="245.221" y2="99.577"/>
					<path style="fill:none;stroke:#AEE0EF;stroke-width:0.75;stroke-miterlimit:10;stroke-dasharray:0.9114,0.9114;" d="
						M245.221,98.665v-2.014c0,0-0.104-1.803,1.331-2.509"/>
					<path style="fill:none;stroke:#AEE0EF;stroke-width:0.75;stroke-miterlimit:10;" d="M246.979,93.98
						c0.15-0.043,0.314-0.075,0.492-0.094"/>
				</g>
			</g>
			<path style="fill:#AEE0EF;" d="M249.476,106.901l0.371-1.921h-1.785l0.309,1.968c-0.23,0.176-0.382,0.451-0.382,0.764
				c0,0.533,0.433,0.966,0.966,0.966c0.534,0,0.966-0.433,0.966-0.966C249.92,107.371,249.743,107.073,249.476,106.901z"/>
		</g>
		<g>
			<path style="fill:#FFFFFF;" d="M353.376,90.611c0,0.915-0.741,1.656-1.656,1.656h-76.273c-0.914,0-1.656-0.741-1.656-1.656l0,0
				c0-0.914,0.742-1.655,1.656-1.655h76.273C352.635,88.956,353.376,89.697,353.376,90.611L353.376,90.611z"/>
			<path style="fill:#FFFFFF;" d="M353.376,99.735c0,0.915-0.741,1.656-1.656,1.656h-76.273c-0.914,0-1.656-0.741-1.656-1.656l0,0
				c0-0.914,0.742-1.655,1.656-1.655h76.273C352.635,98.08,353.376,98.821,353.376,99.735L353.376,99.735z"/>
			<path style="fill:#FFFFFF;" d="M353.376,108.859c0,0.915-0.741,1.656-1.656,1.656h-76.273c-0.914,0-1.656-0.741-1.656-1.656l0,0
				c0-0.914,0.742-1.655,1.656-1.655h76.273C352.635,107.204,353.376,107.945,353.376,108.859L353.376,108.859z"/>
			<path style="fill:#FFFFFF;" d="M310.307,117.983c0,0.915-0.741,1.656-1.655,1.656h-33.205c-0.914,0-1.656-0.741-1.656-1.656l0,0
				c0-0.914,0.742-1.655,1.656-1.655h33.205C309.565,116.328,310.307,117.069,310.307,117.983L310.307,117.983z"/>
			<path style="fill:#FFFFFF;" d="M353.376,126.858c0,0.915-0.741,1.656-1.656,1.656h-76.273c-0.914,0-1.656-0.741-1.656-1.656l0,0
				c0-0.914,0.742-1.655,1.656-1.655h76.273C352.635,125.203,353.376,125.944,353.376,126.858L353.376,126.858z"/>
			<path style="fill:#FFFFFF;" d="M353.376,135.982c0,0.915-0.741,1.656-1.656,1.656h-76.273c-0.914,0-1.656-0.741-1.656-1.656l0,0
				c0-0.914,0.742-1.655,1.656-1.655h76.273C352.635,134.327,353.376,135.068,353.376,135.982L353.376,135.982z"/>
			<path style="fill:#FFFFFF;" d="M353.376,145.106c0,0.915-0.741,1.656-1.656,1.656h-76.273c-0.914,0-1.656-0.741-1.656-1.656l0,0
				c0-0.914,0.742-1.655,1.656-1.655h76.273C352.635,143.451,353.376,144.192,353.376,145.106L353.376,145.106z"/>
			<path style="fill:#FFFFFF;" d="M331.407,154.23c0,0.915-0.742,1.656-1.656,1.656h-54.305c-0.914,0-1.656-0.741-1.656-1.656l0,0
				c0-0.914,0.742-1.655,1.656-1.655h54.305C330.665,152.575,331.407,153.316,331.407,154.23L331.407,154.23z"/>
		</g>
	</g>
	<polygon style="fill:#8DA4CE;" points="28.265,163.691 28.265,172.633 28.265,259.148 149.367,259.148 149.367,172.633 
		149.367,163.691 	"/>
	<g>
		<rect x="318.528" y="207.929" style="fill:#8DA4CE;" width="86.523" height="125.864"/>
		<rect x="311.7" y="201.344" style="fill:#A5DBEF;" width="86.523" height="125.864"/>
		<rect x="311.7" y="201.344" style="fill:#6881BD;" width="86.523" height="10.076"/>
		<g>
			<path style="fill:#A4DEF6;" d="M385.939,206.382c0,0.94-0.762,1.703-1.701,1.703c-0.941,0-1.702-0.763-1.702-1.703
				c0-0.939,0.761-1.701,1.702-1.701C385.177,204.681,385.939,205.442,385.939,206.382z"/>
			<path style="fill:#6A54A1;" d="M390.704,206.382c0,0.94-0.762,1.703-1.701,1.703c-0.939,0-1.703-0.763-1.703-1.703
				c0-0.939,0.764-1.701,1.703-1.701C389.942,204.681,390.704,205.442,390.704,206.382z"/>
			<path style="fill:#6C3D85;" d="M395.261,206.382c0,0.94-0.762,1.703-1.702,1.703c-0.939,0-1.702-0.763-1.702-1.703
				c0-0.939,0.763-1.701,1.702-1.701C394.499,204.681,395.261,205.442,395.261,206.382z"/>
		</g>
		<g>
			<g>
				<defs>
					<path id="SVGID_1_" d="M376.056,239.632c0,11.651-9.444,21.096-21.096,21.096c-11.65,0-21.095-9.444-21.095-21.096
						c0-11.649,9.444-21.094,21.095-21.094C366.611,218.538,376.056,227.982,376.056,239.632z"/>
				</defs>
				<use xlink:href="#SVGID_1_"  style="overflow:visible;fill:#FFFFFF;"/>
				<clipPath id="SVGID_00000137830113845935097080000013347272276667085755_">
					<use xlink:href="#SVGID_1_"  style="overflow:visible;"/>
				</clipPath>
				<g style="clip-path:url(#SVGID_00000137830113845935097080000013347272276667085755_);">
					<path style="fill:#5C79BC;" d="M357.574,249.08c-1.407-0.511-2.293-1.686-3.963-1.538c-2.969,0.262-5.075,3.599-7.933,1.335
						c-3.459-2.742-2.549-19.237-1.051-22.974c1.272-3.168,3.615-0.071,6.961-1.136c3.887-1.236,7.238,1.83,9.247,5.015
						c2.091,3.316,3.168,7.538,2.859,11.428C363.41,244.804,362.761,250.964,357.574,249.08z"/>
					<g>
						<path style="fill:#46C6E6;" d="M370.841,266.515h-7.288l-1.302-5.262c0,0-1.061-7.987,4.418-8.099
							c0,0,2.842,1.993,3.615,6.681C370.284,259.835,370.897,263.581,370.841,266.515z"/>
					</g>
					<g>
						<path style="fill:#46C6E6;" d="M345.53,266.515l0.982-3.97c0,0,1.061-7.986-4.419-8.099c0,0-3.284,2.393-2.996,12.068H345.53"
							/>
					</g>
					<g>
						<rect x="351.034" y="241.607" style="fill:#A4DEF6;" width="6.65" height="9.734"/>
					</g>
					<g>
						<path style="fill:#6FCFF3;" d="M357.685,245.581v-3.974h-6.65v5.724C353.227,247.264,355.831,246.866,357.685,245.581z"/>
					</g>
					<path style="fill:#A4DEF6;" d="M342.22,254.446c1.494-2.309,3.838-2.934,3.838-2.934l5.619-2.082h5.364l6.87,2.082
						c0,0,2.346,0.625,3.838,2.934H342.22z"/>
					<path style="fill:#46C6E6;" d="M343.597,266.515h22.139l-0.141-4.159l3.255-4.927c-0.724-4.796-4.939-5.916-4.939-5.916
						l-5.412-1.541c0,0,0.323,1.762-4.141,1.762c0,0-3.588,0-4.016-1.81l-4.285,1.589c0,0-3.141,0.959-4.854,4.133l2.394,6.71
						V266.515z"/>
					<path style="fill:#A4DEF6;" d="M358.409,242.383c-0.23,0.525-0.545,1.013-0.989,1.439c-1.101,1.063-2.395,1.925-3.81,2.506
						c-1.742,0.714-4.364,0.805-5.746-0.627c-1.12-1.161-1.736-2.92-2.22-4.427c-0.946-2.933-0.935-6.135-0.694-9.179
						c0.055-0.695,0.125-1.39,0.24-2.077c1.082-6.641,6.765-6.626,6.765-6.626c4.289-0.186,8.205,1.841,8.863,6.362
						c0.255,1.731-0.079,3.591-0.166,5.321c-0.063,1.273-0.22,2.542-0.629,3.756C359.61,240.07,358.925,241.188,358.409,242.383z"/>
					<path style="fill:#5C79BC;" d="M344.491,236.01c-1.604-4.965-0.311-10.803,1.606-12.629c5.429-5.179,15.454-3.208,18.518,4.888
						c0.945,2.501,0.503,11.825,0.073,14.691c-0.574,3.84-1.986,6.471-4.9,6.471c0.076-3.166-0.166-6.674,0.113-10.545
						c0.279-3.841-0.23-3.936-3.428-5.723c-1.59-0.889-2.514-1.816-3.502-3.259c-1.22-1.786-0.301-2.41-2.721-2.33
						C350.251,227.574,344.628,227.383,344.491,236.01z"/>
					<path style="fill:#A4DEF6;" d="M358.962,237.32c0,0,0.567-2.363,2.385-1.387c0,0,0.818,0.416,0.228,2.038
						c0,0-0.862,2.334-2.615,1.48L358.962,237.32z"/>
				</g>
			</g>
		</g>
		<g>
			<path style="fill:#FFFFFF;" d="M388.084,270.71c0,0.623-0.505,1.127-1.128,1.127h-63.989c-0.622,0-1.128-0.504-1.128-1.127l0,0
				c0-0.623,0.506-1.127,1.128-1.127h63.989C387.579,269.583,388.084,270.087,388.084,270.71L388.084,270.71z"/>
			<path style="fill:#FFFFFF;" d="M388.084,276.922c0,0.623-0.505,1.127-1.128,1.127h-63.989c-0.622,0-1.128-0.504-1.128-1.127l0,0
				c0-0.623,0.506-1.127,1.128-1.127h63.989C387.579,275.795,388.084,276.299,388.084,276.922L388.084,276.922z"/>
			<path style="fill:#FFFFFF;" d="M388.084,283.134c0,0.623-0.505,1.128-1.128,1.128h-63.989c-0.622,0-1.128-0.505-1.128-1.128l0,0
				c0-0.622,0.506-1.127,1.128-1.127h63.989C387.579,282.007,388.084,282.512,388.084,283.134L388.084,283.134z"/>
			<path style="fill:#FFFFFF;" d="M346.7,289.346c0,0.623-0.505,1.128-1.127,1.128h-22.606c-0.622,0-1.128-0.505-1.128-1.128l0,0
				c0-0.622,0.506-1.127,1.128-1.127h22.606C346.195,288.219,346.7,288.724,346.7,289.346L346.7,289.346z"/>
			<path style="fill:#FFFFFF;" d="M388.084,295.388c0,0.623-0.505,1.128-1.128,1.128h-63.989c-0.622,0-1.128-0.505-1.128-1.128l0,0
				c0-0.622,0.506-1.127,1.128-1.127h63.989C387.579,294.261,388.084,294.766,388.084,295.388L388.084,295.388z"/>
			<path style="fill:#FFFFFF;" d="M388.084,301.6c0,0.623-0.505,1.128-1.128,1.128h-63.989c-0.622,0-1.128-0.505-1.128-1.128l0,0
				c0-0.622,0.506-1.127,1.128-1.127h63.989C387.579,300.473,388.084,300.978,388.084,301.6L388.084,301.6z"/>
			<path style="fill:#FFFFFF;" d="M388.084,307.813c0,0.622-0.505,1.127-1.128,1.127h-63.989c-0.622,0-1.128-0.505-1.128-1.127l0,0
				c0-0.623,0.506-1.128,1.128-1.128h63.989C387.579,306.685,388.084,307.19,388.084,307.813L388.084,307.813z"/>
			<path style="fill:#FFFFFF;" d="M361.067,314.024c0,0.623-0.507,1.127-1.128,1.127h-36.973c-0.622,0-1.128-0.504-1.128-1.127l0,0
				c0-0.623,0.506-1.128,1.128-1.128h36.973C360.56,312.897,361.067,313.401,361.067,314.024L361.067,314.024z"/>
		</g>
	</g>
	<g>
		<g>
			<rect x="20.148" y="154.509" style="fill:#A5DBEF;" width="121.103" height="95.457"/>
			<rect x="20.148" y="154.509" style="fill:#6881BD;" width="121.103" height="8.941"/>
			<g>
				<circle style="fill:#A4DEF6;" cx="122.033" cy="158.706" r="2.5"/>
				<circle style="fill:#6A54A1;" cx="129.033" cy="158.706" r="2.5"/>
				<circle style="fill:#6C3D85;" cx="135.726" cy="158.706" r="2.5"/>
			</g>
			<rect x="28.265" y="171.418" style="fill:#FFFFFF;" width="104.869" height="71"/>
		</g>
		<polygon style="fill:#AED38F;" points="28.265,242.418 55.356,199.918 80.699,228.918 101.356,204.418 133.134,242.418 		"/>
		<circle style="fill:#FDD371;" cx="80.699" cy="192.987" r="9.25"/>
		<path style="fill:#A5DBEF;" d="M64.856,185.418c0,1.934-1.566,3.5-3.5,3.5h-18.5c-1.934,0-3.5-1.566-3.5-3.5l0,0
			c0-1.933,1.566-3.5,3.5-3.5h18.5C63.29,181.918,64.856,183.485,64.856,185.418L64.856,185.418z"/>
		<path style="fill:#A5DBEF;" d="M124.533,196.418c0,1.934-1.566,3.5-3.5,3.5h-18.5c-1.934,0-3.5-1.566-3.5-3.5l0,0
			c0-1.933,1.566-3.5,3.5-3.5h18.5C122.967,192.918,124.533,194.485,124.533,196.418L124.533,196.418z"/>
	</g>
</g>
</svg>
