<svg width="20" height="20" viewBox="0 0 20 20" fill="none" xmlns="http://www.w3.org/2000/svg">
<path d="M14.8762 16.2689H15.3173C16.8577 16.2689 17.6278 15.4838 17.6278 13.921V6.71289H13.1934C12.4161 6.71289 11.9747 6.27182 11.9747 5.49384V1H8.09391C6.55355 1 5.77625 1.78511 5.77625 3.34786V3.71429H6.74796C7.80246 3.71429 8.64729 4.01354 9.48498 4.85089L13.7247 9.10554C14.5695 9.95036 14.8762 10.8179 14.8762 11.8347V16.2689ZM13.343 5.77816H17.2685C17.2241 5.53862 17.067 5.32929 16.8054 5.0677L13.6195 1.82243C13.3651 1.56084 13.1411 1.39629 12.9091 1.35896L12.9165 5.34421C12.9165 5.65093 13.0363 5.77816 13.343 5.77816ZM4.318 20H11.5414C13.0817 20 13.8591 19.2149 13.8591 17.6521V11.6329H8.44541C7.48082 11.6329 7.03229 11.1769 7.03229 10.2197V4.73112H4.318C2.77764 4.73112 2 5.51623 2 7.07898V17.6521C2 19.2224 2.77764 20 4.318 20ZM8.43795 10.6086H13.4628C13.3881 10.3168 13.1863 10.0477 12.8497 9.7037L8.96146 5.7483C8.63236 5.41173 8.34057 5.20986 8.05659 5.12741V10.2269C8.05659 10.4813 8.18382 10.6086 8.43795 10.6086Z" fill="#B01921"/>
</svg>
