<svg width="20" height="20" viewBox="0 0 20 20" fill="none" xmlns="http://www.w3.org/2000/svg">
<path d="M13.1317 10.8797C13.2742 10.9462 13.4357 10.9747 13.5877 10.9747C13.9012 10.9747 14.1957 10.8512 14.4237 10.6327L16.4946 8.59977H17.3876C18.8315 8.59977 20 7.43131 20 5.98735V3.61242C20 2.16847 18.8315 1 17.3876 1H13.1127C11.6687 1 10.5003 2.16847 10.5003 3.61242V5.98735C10.5003 7.18432 11.3078 8.19129 12.4002 8.50478V9.78724C12.4002 10.2622 12.6947 10.6897 13.1317 10.8797ZM6.70039 11.9247C4.86695 11.9247 3.37549 10.4332 3.37549 8.59977C3.37549 6.76633 4.86695 5.27487 6.70039 5.27487C8.53384 5.27487 10.0253 6.76633 10.0253 8.59977C10.0253 10.4332 8.53384 11.9247 6.70039 11.9247ZM6.70039 19.9994C4.74345 19.9994 3.2425 19.4675 2.23553 18.413C0.966364 17.0792 0.997713 15.3978 1.00056 15.2239V15.2116C1.00056 14.1951 1.85554 13.3496 2.90051 13.3496H10.5003C11.5452 13.3496 12.4002 14.2046 12.4002 15.2496L12.4012 15.2553C12.404 15.3759 12.4439 17.0697 11.1662 18.413C10.1583 19.4675 8.65734 19.9994 6.70039 19.9994Z" fill="#B01921"/>
</svg>
