<svg width="20" height="20" viewBox="0 0 20 20" fill="none" xmlns="http://www.w3.org/2000/svg">
<path fill-rule="evenodd" clip-rule="evenodd" d="M11.7436 1.24359C11.7436 1.17899 11.7179 1.11703 11.6722 1.07135C11.6266 1.02566 11.5646 1 11.5 1H4.67949C3.96884 1 3.2873 1.2823 2.7848 1.7848C2.2823 2.2873 2 2.96884 2 3.67949V17.3205C2 18.0312 2.2823 18.7127 2.7848 19.2152C3.2873 19.7177 3.96884 20 4.67949 20H14.4231C15.1337 20 15.8153 19.7177 16.3178 19.2152C16.8203 18.7127 17.1026 18.0312 17.1026 17.3205V7.72015C17.1026 7.65555 17.0769 7.59359 17.0312 7.54791C16.9855 7.50223 16.9236 7.47656 16.859 7.47656H12.4744C12.2805 7.47656 12.0947 7.39957 11.9576 7.26253C11.8206 7.12548 11.7436 6.93961 11.7436 6.7458V1.24359ZM12.4744 10.7436C12.6682 10.7436 12.854 10.8206 12.9911 10.9576C13.1281 11.0947 13.2051 11.2805 13.2051 11.4744C13.2051 11.6682 13.1281 11.854 12.9911 11.9911C12.854 12.1281 12.6682 12.2051 12.4744 12.2051H6.62821C6.43439 12.2051 6.24852 12.1281 6.11147 11.9911C5.97443 11.854 5.89744 11.6682 5.89744 11.4744C5.89744 11.2805 5.97443 11.0947 6.11147 10.9576C6.24852 10.8206 6.43439 10.7436 6.62821 10.7436H12.4744ZM12.4744 14.641C12.6682 14.641 12.854 14.718 12.9911 14.8551C13.1281 14.9921 13.2051 15.178 13.2051 15.3718C13.2051 15.5656 13.1281 15.7515 12.9911 15.8885C12.854 16.0256 12.6682 16.1026 12.4744 16.1026H6.62821C6.43439 16.1026 6.24852 16.0256 6.11147 15.8885C5.97443 15.7515 5.89744 15.5656 5.89744 15.3718C5.89744 15.178 5.97443 14.9921 6.11147 14.8551C6.24852 14.718 6.43439 14.641 6.62821 14.641H12.4744Z" fill="#B01921"/>
<path d="M13.2051 1.55929C13.2051 1.38001 13.3931 1.26601 13.5325 1.37806C13.6504 1.47354 13.7566 1.58462 13.8472 1.71129L16.7829 5.80067C16.8492 5.89421 16.7771 6.01503 16.6621 6.01503H13.4487C13.3841 6.01503 13.3221 5.98937 13.2764 5.94369C13.2307 5.898 13.2051 5.83605 13.2051 5.77144V1.55929Z" fill="#B01921"/>
</svg>
