<svg xmlns="http://www.w3.org/2000/svg" fill="#000000" width="800px" height="800px" viewBox="0 0 24 24" id="car-shipping" data-name="Flat Line" class="icon flat-line"><path id="secondary" d="M20.83,10.75,19.3,8.45A1,1,0,0,0,18.46,8H15V6a1,1,0,0,0-1-1H4A1,1,0,0,0,3,6V16a1,1,0,0,0,1,1H6a2,2,0,0,1,4,0h6a2,2,0,0,1,4,0h1V11.3A1,1,0,0,0,20.83,10.75Z" style="fill: #db838d; stroke-width: 2;"/><path id="primary" d="M15,6V17H10a2,2,0,0,0-4,0H4a1,1,0,0,1-1-1V6A1,1,0,0,1,4,5H14A1,1,0,0,1,15,6Zm5.83,4.75L19.3,8.45A1,1,0,0,0,18.46,8H15v9h1a2,2,0,0,1,4,0h1V11.3A1,1,0,0,0,20.83,10.75Z" style="fill: none; stroke: #b8001c; stroke-linecap: round; stroke-linejoin: round; stroke-width: 2;"/><path id="primary-2" data-name="primary" d="M10,17a2,2,0,1,1-2-2A2,2,0,0,1,10,17Zm8-2a2,2,0,1,0,2,2A2,2,0,0,0,18,15Z" style="fill: none; stroke: #b8001c; stroke-linecap: round; stroke-linejoin: round; stroke-width: 2;"/></svg>