<svg width="20" height="20" viewBox="0 0 20 20" fill="none" xmlns="http://www.w3.org/2000/svg">
<g clip-path="url(#clip0_6_91)">
<path fill-rule="evenodd" clip-rule="evenodd" d="M10.7529 13.33C11.5809 12.8501 12.3047 12.2094 12.8815 11.4457C12.6948 11.1575 12.5626 10.8374 12.4915 10.5014L12.4643 10.3757C12.3858 10.0171 12.2023 9.69005 11.9372 9.43614C11.6721 9.18223 11.3374 9.013 10.9758 8.95001C8.01577 8.43572 8.01577 4.18715 10.9758 3.67144C11.3251 3.61076 11.6497 3.45079 11.9106 3.21064C12.1715 2.97049 12.3578 2.66031 12.4472 2.31715C11.7511 1.55867 10.8994 0.959611 9.95023 0.561003C9.00109 0.162395 7.977 -0.0263396 6.94811 0.00772714C5.91922 0.0417939 4.90986 0.297857 3.98916 0.758377C3.06846 1.2189 2.25818 1.87299 1.61384 2.67585C0.969487 3.4787 0.506294 4.41135 0.255987 5.40991C0.00567944 6.40846 -0.0258271 7.44933 0.163625 8.46119C0.353078 9.47306 0.759013 10.432 1.35362 11.2724C1.94823 12.1127 2.71746 12.8146 3.60862 13.33V15C3.60862 15.3789 3.75913 15.7423 4.02704 16.0102C4.29495 16.2781 4.65831 16.4286 5.03719 16.4286H9.32291C9.70179 16.4286 10.0652 16.2781 10.3331 16.0102C10.601 15.7423 10.7515 15.3789 10.7515 15L10.7529 13.33ZM3.61005 18.9286C3.61005 18.6444 3.72293 18.3719 3.92386 18.171C4.1248 17.97 4.39732 17.8572 4.68148 17.8572H9.68148C9.96564 17.8572 10.2382 17.97 10.4391 18.171C10.64 18.3719 10.7529 18.6444 10.7529 18.9286C10.7529 19.2127 10.64 19.4853 10.4391 19.6862C10.2382 19.8871 9.96564 20 9.68148 20H4.68148C4.39732 20 4.1248 19.8871 3.92386 19.6862C3.72293 19.4853 3.61005 19.2127 3.61005 18.9286ZM14.0101 2.45286C14.2715 1.25858 15.9715 1.25144 16.2429 2.44286L16.2558 2.50001L16.2815 2.61144C16.4348 3.2644 16.7767 3.85789 17.2646 4.31812C17.7525 4.77835 18.365 5.08503 19.0258 5.20001C20.2715 5.41715 20.2715 7.20572 19.0258 7.42286C18.3612 7.53853 17.7456 7.84797 17.2564 8.31233C16.7671 8.77669 16.426 9.37526 16.2758 10.0329L16.2429 10.1786C15.9715 11.3714 14.2701 11.3643 14.0072 10.1686L13.9801 10.0443C13.836 9.38449 13.4988 8.78252 13.0113 8.31514C12.5238 7.84775 11.9082 7.53613 11.2429 7.42001C9.99862 7.20429 9.99862 5.41858 11.2429 5.20144C11.9059 5.08615 12.5197 4.77673 13.0067 4.31237C13.4937 3.84801 13.8319 3.24958 13.9786 2.59286L14.0001 2.50001L14.0101 2.45286Z" fill="#B01921"/>
</g>
<defs>
<clipPath id="clip0_6_91">
<rect width="20" height="20" fill="white"/>
</clipPath>
</defs>
</svg>
