<svg width="20" height="20" viewBox="0 0 20 20" fill="none" xmlns="http://www.w3.org/2000/svg">
<path d="M18 5.49999C18.0001 5.90992 17.8994 6.31359 17.7068 6.67544C17.5141 7.03729 17.2355 7.34622 16.8953 7.57502C16.5552 7.80382 16.164 7.94547 15.7562 7.98749C15.3485 8.02951 14.9366 7.97062 14.557 7.81599L13.275 9.73899C13.5187 9.98527 13.7087 10.2795 13.8327 10.6031C13.9566 10.9267 14.012 11.2725 13.9953 11.6186C13.9785 11.9648 13.8899 12.3036 13.7353 12.6137C13.5806 12.9238 13.3631 13.1983 13.0967 13.4199C12.8302 13.6414 12.5206 13.8052 12.1876 13.9008C11.8545 13.9963 11.5051 14.0216 11.1618 13.9749C10.8184 13.9283 10.4885 13.8108 10.1929 13.6299C9.89739 13.449 9.64268 13.2086 9.44498 12.924L6.94898 13.994C7.07394 14.6008 6.96916 15.2323 6.65496 15.7662C6.34076 16.3001 5.83952 16.6984 5.2484 16.8837C4.65728 17.0691 4.01839 17.0284 3.45558 16.7695C2.89277 16.5106 2.44613 16.0519 2.20225 15.4825C1.95836 14.913 1.9346 14.2732 2.13557 13.6872C2.33655 13.1012 2.74794 12.6107 3.28999 12.3108C3.83205 12.0109 4.46616 11.9229 5.0694 12.0639C5.67264 12.2049 6.20204 12.5649 6.55498 13.074L9.05098 12.005C8.95905 11.5612 8.9895 11.1007 9.13907 10.6729C9.28864 10.2451 9.5517 9.86594 9.90012 9.57608C10.2485 9.28621 10.6692 9.09651 11.1171 9.02728C11.565 8.95804 12.0233 9.01186 12.443 9.18299L13.725 7.26099C13.4358 6.96942 13.2229 6.61108 13.1051 6.21767C12.9872 5.82426 12.9682 5.40788 13.0495 5.00535C13.1308 4.60281 13.3101 4.22651 13.5714 3.9097C13.8327 3.5929 14.1681 3.34535 14.5478 3.18893C14.9275 3.03251 15.3399 2.97205 15.7485 3.01288C16.1572 3.05371 16.5495 3.19458 16.8907 3.42303C17.232 3.65149 17.5117 3.9605 17.7052 4.32274C17.8986 4.68499 17.9999 5.08932 18 5.49999Z" fill="#B01921"/>
</svg>
