<svg width="20" height="20" viewBox="0 0 20 20" fill="none" xmlns="http://www.w3.org/2000/svg">
<path d="M3.99999 3.293C4.18749 3.10545 4.4418 3.00006 4.70699 3H15.293C15.5582 3.00006 15.8125 3.10545 16 3.293L18.642 5.934C19.404 6.697 18.864 8 17.786 8H2.21399C1.13599 8 0.596993 6.697 1.35999 5.934L3.99999 3.293ZM17 9H2.99999V15C2.99999 15.5304 3.21071 16.0391 3.58578 16.4142C3.96085 16.7893 4.46956 17 4.99999 17H15C15.5304 17 16.0391 16.7893 16.4142 16.4142C16.7893 16.0391 17 15.5304 17 15V9ZM6.99999 13C6.73478 13 6.48042 12.8946 6.29289 12.7071C6.10535 12.5196 5.99999 12.2652 5.99999 12C5.99999 11.7348 6.10535 11.4804 6.29289 11.2929C6.48042 11.1054 6.73478 11 6.99999 11C7.26521 11 7.51956 11.1054 7.7071 11.2929C7.89464 11.4804 7.99999 11.7348 7.99999 12C7.99999 12.2652 7.89464 12.5196 7.7071 12.7071C7.51956 12.8946 7.26521 13 6.99999 13ZM9.99999 13C9.73478 13 9.48042 12.8946 9.29289 12.7071C9.10535 12.5196 8.99999 12.2652 8.99999 12C8.99999 11.7348 9.10535 11.4804 9.29289 11.2929C9.48042 11.1054 9.73478 11 9.99999 11C10.2652 11 10.5196 11.1054 10.7071 11.2929C10.8946 11.4804 11 11.7348 11 12C11 12.2652 10.8946 12.5196 10.7071 12.7071C10.5196 12.8946 10.2652 13 9.99999 13ZM13 13C12.7348 13 12.4804 12.8946 12.2929 12.7071C12.1053 12.5196 12 12.2652 12 12C12 11.7348 12.1053 11.4804 12.2929 11.2929C12.4804 11.1054 12.7348 11 13 11C13.2652 11 13.5196 11.1054 13.7071 11.2929C13.8946 11.4804 14 11.7348 14 12C14 12.2652 13.8946 12.5196 13.7071 12.7071C13.5196 12.8946 13.2652 13 13 13Z" fill="#B01921"/>
</svg>
