<svg width="20" height="20" viewBox="0 0 20 20" fill="none" xmlns="http://www.w3.org/2000/svg">
<g clip-path="url(#clip0_5_10)">
<path fill-rule="evenodd" clip-rule="evenodd" d="M8.35927 3.76093C9.37957 4.42903 10.1242 5.44319 10.4561 6.61674C10.788 7.79028 10.6849 9.04422 10.1656 10.1477C11.0927 10.8616 12.2212 11.265 13.3907 11.3007C14.5602 11.3364 15.7112 11.0026 16.6801 10.3466C17.649 9.69069 18.3865 8.74602 18.7878 7.64691C19.189 6.5478 19.2336 5.35018 18.9151 4.22429C18.5967 3.0984 17.9315 2.10153 17.014 1.37539C16.0965 0.64924 14.9735 0.23077 13.8046 0.179458C12.6356 0.128147 11.4803 0.446605 10.5027 1.08957C9.52516 1.73253 8.77514 2.66727 8.35927 3.76093ZM13.5629 5.22415C14.0364 5.22415 14.4208 5.60848 14.4208 6.08203V8.54452C14.4208 8.77204 14.3304 8.99025 14.1695 9.15114C14.0086 9.31202 13.7904 9.40241 13.5629 9.40241C13.3354 9.40241 13.1172 9.31202 12.9563 9.15114C12.7954 8.99025 12.705 8.77204 12.705 8.54452V6.08203C12.705 5.60848 13.0893 5.22415 13.5629 5.22415ZM12.5568 3.0554C12.5568 3.70191 13.0921 3.98604 13.4695 4.02722C13.5014 4.03082 13.5335 4.03265 13.5656 4.03271C13.9404 4.03271 14.5731 3.75819 14.5731 3.0554C14.5731 2.40753 14.0378 2.12339 13.6603 2.08221C13.6284 2.07861 13.5964 2.07678 13.5643 2.07672C13.1895 2.07672 12.5568 2.35125 12.5568 3.0554ZM5.57972 11.3433C6.02515 11.3523 6.46791 11.2724 6.88207 11.1081C7.29622 10.9439 7.67345 10.6987 7.99166 10.3869C8.30987 10.075 8.56266 9.70286 8.73524 9.29211C8.90782 8.88136 8.99671 8.44031 8.99671 7.99478C8.99671 7.54925 8.90782 7.1082 8.73524 6.69746C8.56266 6.28671 8.30987 5.91452 7.99166 5.60269C7.67345 5.29086 7.29622 5.04565 6.88207 4.88142C6.46791 4.7172 6.02515 4.63725 5.57972 4.64627C4.70337 4.66402 3.86891 5.0246 3.25542 5.65064C2.64194 6.27667 2.29832 7.11826 2.29832 7.99478C2.29832 8.8713 2.64194 9.71289 3.25542 10.3389C3.86891 10.965 4.70337 11.3256 5.57972 11.3433ZM7.37467e-06 18.0389C-0.0022694 16.6378 0.522709 15.287 1.47061 14.2552C2.41852 13.2233 3.71995 12.5858 5.11628 12.4694C6.51261 12.3531 7.90162 12.7663 9.00726 13.627C10.1129 14.4878 10.8542 15.733 11.0839 17.1152H18.1625C18.4356 17.1152 18.6974 17.2236 18.8905 17.4167C19.0835 17.6098 19.192 17.8716 19.192 18.1446C19.192 18.4177 19.0835 18.6795 18.8905 18.8726C18.6974 19.0656 18.4356 19.1741 18.1625 19.1741H1.05693C0.796297 19.174 0.545394 19.0751 0.354842 18.8973C0.164291 18.7195 0.0482754 18.476 0.0302051 18.216C0.0110972 18.1589 0.00136276 18.0991 0.00138 18.0389H7.37467e-06Z" fill="#B01921"/>
</g>
<defs>
<clipPath id="clip0_5_10">
<rect width="20" height="20" fill="white"/>
</clipPath>
</defs>
</svg>
