<svg width="20" height="20" viewBox="0 0 20 20" fill="none" xmlns="http://www.w3.org/2000/svg">
<g clip-path="url(#clip0_1_8)">
<path fill-rule="evenodd" clip-rule="evenodd" d="M7.04923 1.9024C7.70604 1.34272 8.53466 1.02476 9.39727 1.00139C10.2599 0.978017 11.1045 1.25065 11.7906 1.77395L11.9512 1.9024L12.3063 2.20464C12.5648 2.42531 12.8781 2.57214 13.2131 2.62967L13.3812 2.65045L13.8468 2.68823C14.7094 2.75705 15.5222 3.1199 16.1494 3.71611C16.7766 4.31233 17.18 5.10576 17.2924 5.96377L17.3122 6.15267L17.35 6.61925C17.3767 6.95769 17.4942 7.28266 17.69 7.55998L17.7939 7.6941L18.098 8.04923C18.6577 8.70604 18.9757 9.53466 18.9991 10.3973C19.0224 11.2599 18.7498 12.1045 18.2265 12.7906L18.098 12.9512L17.7949 13.3063C17.5742 13.5648 17.4274 13.8781 17.3698 14.2131L17.3491 14.3812L17.3122 14.8468C17.2434 15.7094 16.8805 16.5222 16.2843 17.1494C15.6881 17.7766 14.8947 18.18 14.0367 18.2924L13.8468 18.3122L13.3812 18.35C13.0428 18.3767 12.7178 18.4942 12.4405 18.69L12.3063 18.7949L11.9503 19.0971C11.2936 19.6569 10.465 19.975 9.6024 19.9986C8.73979 20.0221 7.89511 19.7497 7.20885 19.2265L7.04923 19.098L6.6941 18.7949C6.4356 18.5742 6.12235 18.4274 5.78738 18.3698L5.61925 18.35L5.15361 18.3122C4.29102 18.2434 3.4782 17.8805 2.85105 17.2843C2.22389 16.6881 1.82041 15.8947 1.70806 15.0367L1.68823 14.8478L1.65045 14.3812C1.6237 14.0428 1.50624 13.7178 1.31042 13.4405L1.20558 13.3063L0.902398 12.9503C0.34272 12.2935 0.0247561 11.4648 0.00138657 10.6022C-0.0219829 9.73962 0.250651 8.89501 0.773945 8.20885L0.902398 8.04923L1.20464 7.6941C1.42531 7.4356 1.57214 7.12235 1.62967 6.78738L1.65045 6.61925L1.68823 6.15361C1.75705 5.29102 2.1199 4.4782 2.71611 3.85105C3.31233 3.22389 4.10576 2.82041 4.96377 2.70806L5.15267 2.68823L5.61925 2.65045C5.95769 2.6237 6.28266 2.50624 6.55998 2.31042L6.6941 2.20558L7.04923 1.9024ZM11.8615 11.4447C11.4857 11.4447 11.1254 11.594 10.8597 11.8597C10.594 12.1254 10.4447 12.4857 10.4447 12.8615C10.4447 13.2372 10.594 13.5976 10.8597 13.8633C11.1254 14.129 11.4857 14.2782 11.8615 14.2782C12.2372 14.2782 12.5976 14.129 12.8633 13.8633C13.129 13.5976 13.2782 13.2372 13.2782 12.8615C13.2782 12.4857 13.129 12.1254 12.8633 11.8597C12.5976 11.594 12.2372 11.4447 11.8615 11.4447ZM11.666 6.99894L5.99894 12.666C5.90873 12.7531 5.83678 12.8573 5.78728 12.9726C5.73778 13.0878 5.71172 13.2117 5.71063 13.3371C5.70954 13.4625 5.73344 13.5869 5.78093 13.703C5.82842 13.8191 5.89856 13.9245 5.98724 14.0132C6.07592 14.1019 6.18137 14.172 6.29745 14.2195C6.41353 14.267 6.5379 14.2909 6.66331 14.2898C6.78872 14.2887 6.91266 14.2627 7.02789 14.2132C7.14312 14.1637 7.24735 14.0917 7.33447 14.0015L13.0015 8.33447C13.1735 8.15634 13.2688 7.91775 13.2666 7.67011C13.2644 7.42246 13.1651 7.18557 12.99 7.01045C12.8149 6.83533 12.578 6.736 12.3303 6.73385C12.0827 6.73169 11.8441 6.8269 11.666 6.99894ZM7.13896 6.7222C6.76321 6.7222 6.40286 6.87147 6.13716 7.13716C5.87147 7.40286 5.7222 7.76321 5.7222 8.13896C5.7222 8.51471 5.87147 8.87507 6.13716 9.14076C6.40286 9.40645 6.76321 9.55572 7.13896 9.55572C7.51471 9.55572 7.87507 9.40645 8.14076 9.14076C8.40645 8.87507 8.55572 8.51471 8.55572 8.13896C8.55572 7.76321 8.40645 7.40286 8.14076 7.13716C7.87507 6.87147 7.51471 6.7222 7.13896 6.7222Z" fill="#B01921"/>
</g>
<defs>
<clipPath id="clip0_1_8">
<rect width="20" height="20" fill="white"/>
</clipPath>
</defs>
</svg>
