<svg width="972" height="517" fill="none" xmlns="http://www.w3.org/2000/svg">
  <path d="M11 .65v516.001M49 .65v516.001M87 .65v516.001M125 .65v516.001M163 .65v516.001M201 .65v516.001M239 .65v516.001M277 .65v516.001M315 .65v516.001M353 .65v516.001M391 .65v516.001M429 .65v516.001M467 .65v516.001M505 .65v516.001M543 .65v516.001M581 .65v516.001M619 .65v516.001M657 .65v516.001M695 .65v516.001M733 .65v516.001M771 .65v516.001M809 .65v516.001M847 .65v516.001M885 .65v516.001M923 .65v516.001M961 .65v516.001M0 505.651h972M0 467.651h972M0 429.651h972M0 391.651h972M0 353.651h972M0 315.651h972M0 277.651h972M0 239.651h972M0 201.651h972M0 163.651h972M0 125.651h972M0 87.65h972M0 49.65h972M0 11.65h972" stroke="#0F4465" stroke-miterlimit="10"/>
  <path d="M271.699 437.922c20.269 0 36.699-16.402 36.699-36.636 0-20.233-16.43-36.635-36.699-36.635-20.268 0-36.699 16.402-36.699 36.635 0 20.234 16.431 36.636 36.699 36.636Z" fill="#046097"/>
  <path d="M281.746 422.927h-19.29a2.486 2.486 0 0 1-2.487-2.488 2.486 2.486 0 0 1 2.487-2.488h19.29a2.487 2.487 0 0 1 2.487 2.488 2.487 2.487 0 0 1-2.487 2.488ZM273.206 377.452h-1.702v8.578h1.702v-8.578Z" fill="#103654"/>
  <path d="M247.322 411.747a4.975 4.975 0 0 0 4.974-4.977 4.975 4.975 0 1 0-9.948 0 4.975 4.975 0 0 0 4.974 4.977ZM297.615 411.419a4.975 4.975 0 0 0 4.974-4.976 4.975 4.975 0 0 0-4.974-4.977 4.975 4.975 0 0 0-4.974 4.977 4.975 4.975 0 0 0 4.974 4.976Z" fill="#FF9C00"/>
  <path d="M273.09 384.229s20.255-.245 23.462 17.303c3.207 17.548-13.924 17.876-18.848 18.219-2.242.148-7.02.164-11.225.099-9.342-.164-15.936-1.965-18.177-10.641a16.478 16.478 0 0 1-.508-3.11c-.589-9.494 5.842-22.345 25.312-21.87h-.016Z" fill="#FF9C00"/>
  <path d="m258.397 410.977 29.434.458a5.58 5.58 0 0 0 5.678-5.5 5.592 5.592 0 0 0-5.498-5.68l-29.434-.458a5.581 5.581 0 0 0-5.678 5.5 5.581 5.581 0 0 0 5.498 5.68Z" fill="#103654"/>
  <path d="M281.711 405.313a1.793 1.793 0 1 0 3.518-.704 1.793 1.793 0 1 0-3.518.704ZM261.145 404.986a1.793 1.793 0 1 0 3.518-.704 1.793 1.793 0 1 0-3.518.704Z" fill="#fff"/>
  <path d="M275.135 377.288c0 1.539-1.244 2.8-2.798 2.8a2.787 2.787 0 0 1-2.798-2.8 2.787 2.787 0 0 1 2.798-2.799 2.787 2.787 0 0 1 2.798 2.799Z" fill="#FF9C00"/>
  <path d="M276.559 404.495s.131.131.18.426a2.7 2.7 0 0 1-.114 1.244 3.732 3.732 0 0 1-.982 1.587 3.464 3.464 0 0 1-2.111.999 3.522 3.522 0 0 1-2.257-.606 3.682 3.682 0 0 1-1.26-1.391c-.246-.475-.327-.917-.327-1.211 0-.295.049-.459.098-.459.131 0 .163.622.703 1.375.262.377.655.77 1.162 1.064.507.295 1.145.491 1.8.442.654-.065 1.243-.36 1.701-.753.442-.393.769-.851.949-1.26.393-.835.311-1.473.442-1.473l.016.016Z" fill="#fff"/>
  <path d="M248.513 401.073s-.065.148-.163.426a5.499 5.499 0 0 0-.147.524c-.05.212-.115.442-.164.704a15.667 15.667 0 0 0-.262 1.849 15.34 15.34 0 0 0 .017 2.292c.081.819.212 1.572.376 2.259.18.688.376 1.293.573 1.784.098.246.196.459.294.655.082.197.164.36.245.491.148.262.23.41.23.393 0 0-.05-.164-.18-.425a3.51 3.51 0 0 1-.213-.492c-.082-.196-.18-.409-.262-.654a13.65 13.65 0 0 1-.54-1.768 17.463 17.463 0 0 1-.376-2.243 17.685 17.685 0 0 1-.033-2.275 15.54 15.54 0 0 1 .229-1.834c.033-.262.098-.491.147-.704.049-.212.082-.376.131-.523.082-.295.115-.442.098-.442v-.017Z" fill="#103654"/>
  <path d="M252.898 432.749s6.005-5.877 18.604-5.877c12.598 0 19.028 5.877 19.028 5.877s-17.539 11.851-37.632 0Z" fill="#FF9C00"/>
  <path d="M330.824 384.016v-.225l-.168-.149-12.808-11.371h148.785c5.94 0 10.74 4.818 10.74 10.746v53.546c0 5.944-4.815 10.746-10.74 10.746H341.565c-5.941 0-10.741-4.817-10.741-10.746v-52.547Z" fill="#103654" stroke="#046097"/>
  <path d="M465.027 386.815c0 .23-27.308.426-60.98.426s-60.996-.196-60.996-.426c0-.229 27.307-.425 60.996-.425 33.689 0 60.98.196 60.98.425ZM465.027 395.786c0 .229-27.308.426-60.98.426s-60.996-.197-60.996-.426c0-.229 27.307-.426 60.996-.426 33.689 0 60.98.197 60.98.426ZM465.027 404.74c0 .229-27.308.426-60.98.426s-60.996-.197-60.996-.426c0-.229 27.307-.425 60.996-.425 33.689 0 60.98.196 60.98.425ZM465.027 413.711c0 .229-27.308.426-60.98.426s-60.996-.197-60.996-.426c0-.229 27.307-.426 60.996-.426 33.689 0 60.98.197 60.98.426ZM465.027 422.665c0 .229-27.308.426-60.98.426s-60.996-.197-60.996-.426c0-.229 27.307-.426 60.996-.426 33.689 0 60.98.197 60.98.426ZM465.027 433.453c0 .229-27.308.425-60.98.425s-60.996-.196-60.996-.425c0-.229 27.307-.426 60.996-.426 33.689 0 60.98.197 60.98.426Z" fill="#046097"/>
  <path d="M736.898 458.286c0 19.957-16.206 36.136-36.199 36.136S664.5 478.243 664.5 458.286c0-19.956 16.206-36.135 36.199-36.135s36.199 16.179 36.199 36.135Z" fill="#103654" stroke="#046097"/>
  <path d="m683.567 467.453 9.604-.818 23.463 3.961 2.765 17.663-.393 2.063c-11.338 6.302-24.035 6.138-34.784.802l-.671-23.654" fill="#77BCE8"/>
  <path d="M711.613 470.318s7.396-1.457 12.173 5.353c2.929 4.174 4.369 6.941 4.369 6.941-3.812 4.157-6.921 7.317-12.239 9.15l-4.303-21.444ZM683.568 467.454s-6.348.769-8.818 6.187c-2.471 5.419-3.027 7.121-3.027 7.121 3.288 3.945 7.461 8.627 12.582 10.379 0 0 1.161-13.636 1.325-17.5.164-4.223.344-6.318-2.062-6.187Z" fill="#77BCE8"/>
  <path d="M689.375 432.749c3.436-4.19 8.034-6.597 13.45-6.678 3.059-.05 4.319.589 6.512 1.178 2.192.589 4.188 1.768 5.497 3.634 1.555 2.21 2.863 4.682 3.158 7.367.311 2.766.605 5.533.393 8.299-.213 2.767-.966 5.549-2.602 7.808l-7.052 1.228c-3.894.131-7.853.262-11.649-.622-3.796-.884-7.477-2.93-9.523-6.253-2.83-4.616-1.652-11.77 1.784-15.944l.032-.017Z" fill="#1E527A"/>
  <path d="M682.537 453.195c.18-1.587 1.015-3.143 2.389-3.961 1.375-.819 3.305-.737 4.45.393l1.113 1.326c1.734.736 2.831 2.717 2.618 4.583-.213 1.866-1.653 3.52-3.452 4.076-1.8.557-3.878.017-5.252-1.26-1.375-1.293-2.062-3.258-1.849-5.14l-.017-.017Z" fill="#1E527A"/>
  <path d="M683.946 457.959s-.442-.475-.376-1.408c.065-.9.72-2.079 1.619-3.159a9.482 9.482 0 0 1 2.831-2.259c.834-.442 1.391-.606 1.374-.655 0-.033-.605.049-1.489.442-.883.376-2.028 1.129-2.977 2.259a8.318 8.318 0 0 0-1.146 1.735c-.278.573-.458 1.146-.458 1.653 0 .508.164.884.311 1.113.164.23.295.311.311.295v-.016Z" fill="#103654"/>
  <path d="m708.684 469.058-.033-6.532s5.759-.638 7.346-7.988c.786-3.667.933-9.724.9-14.684-.033-4.469-3.845-10.558-9.375-10.575l-2.454-.278-9.408 3.732a2.618 2.618 0 0 0-2.487 2.521l-.278 31.446 4.303 6.041c3.566 5.009 11.469 2.504 11.502-3.651l-.016-.032Z" fill="#FFBE9D"/>
  <path d="M704.938 452.802c.049-.393.261-.736.539-.966a1.6 1.6 0 0 1 1.947-.114c.589.409.933 1.244.819 2.013a1.92 1.92 0 0 1-1.391.802h-.262c-.425 0-.851-.147-1.178-.474a1.537 1.537 0 0 1-.458-1.293l-.016.032Z" fill="#EB996E"/>
  <path d="M713.492 444.961c0 .508-.442.917-.965.917-.524 0-.949-.409-.933-.917 0-.507.442-.917.966-.917.523 0 .949.41.932.917ZM715.066 442.588c-.131.114-.818-.459-1.849-.508-1.031-.065-1.8.426-1.914.279-.049-.066.082-.279.425-.491a2.61 2.61 0 0 1 1.538-.377 2.55 2.55 0 0 1 1.457.557c.294.262.392.491.343.54ZM708.618 450.363s.639-.13 1.686-.212c.262 0 .507-.049.572-.23.066-.18-.016-.474-.131-.785-.212-.655-.425-1.326-.67-2.03-.917-2.898-1.571-5.271-1.457-5.304.115-.033.966 2.275 1.882 5.173.213.72.425 1.391.638 2.046.082.311.229.655.082 1.031a.633.633 0 0 1-.458.361c-.164.049-.311.032-.442.032-1.047 0-1.685-.032-1.685-.098l-.017.016Z" fill="#263238"/>
  <path d="M708.653 462.526s-5.023.049-9.817-3.192c0 0 2.372 5.287 9.85 5.009l-.033-1.801v-.016Z" fill="#EB996E"/>
  <path d="M705.557 450.904c.164 0 .115 1.113 1.015 1.948.899.851 2.11.786 2.11.933 0 .065-.278.196-.785.18-.491 0-1.195-.213-1.751-.72-.556-.524-.769-1.179-.785-1.637-.017-.475.114-.737.196-.721v.017ZM714.851 438.725c-.18.245-.965.033-1.881.049-.917 0-1.702.229-1.882 0-.082-.115.033-.36.36-.589.327-.23.883-.442 1.522-.442.638 0 1.194.18 1.521.409.344.229.458.458.376.573h-.016ZM702.252 444.896c-.033.507.376.933.9.982.523.033.965-.344.998-.835.033-.507-.377-.933-.9-.982-.524-.033-.982.344-.998.835ZM700.992 442.228c.115.13.851-.393 1.882-.377 1.031 0 1.767.54 1.882.426.049-.049-.066-.279-.393-.524a2.565 2.565 0 0 0-1.505-.491c-.638 0-1.178.213-1.489.458-.328.229-.426.458-.377.524v-.016ZM700.404 440.018c.197.229.998 0 1.947 0 .949-.033 1.751.18 1.947-.049.082-.115-.032-.361-.392-.573-.344-.23-.917-.41-1.571-.41-.655 0-1.227.213-1.555.442-.343.229-.458.475-.376.59Z" fill="#263238"/>
  <path d="M694.448 447.711c.033-.556-.54-1.898-1.08-2.013-1.456-.311-4.09-.327-4.319 3.372-.311 5.058 4.843 4.322 4.859 4.191 0-.115.442-3.634.54-5.55Z" fill="#FFBE9D"/>
  <path d="M692.617 451.313s-.098.049-.245.114a.92.92 0 0 1-.655-.033c-.524-.229-.916-1.113-.883-2.013 0-.458.13-.9.327-1.244.18-.36.425-.606.703-.639a.444.444 0 0 1 .508.279c.065.147.016.245.049.262 0 0 .114-.082.081-.295 0-.098-.065-.229-.18-.327a.749.749 0 0 0-.474-.164c-.393 0-.769.344-.965.72a2.94 2.94 0 0 0-.393 1.392c-.033 1.015.425 2.013 1.162 2.259.343.114.654.032.818-.082.163-.115.196-.229.18-.229h-.033Z" fill="#EB996E"/>
  <path d="m693.158 445.714 1.293 1.326c5.562-5.32 16.427-18.629 15.821-17.826 0 0-3.812-1.572-7.952-.868-4.139.704-11.976 2.766-11.862 7.645.115 4.861 2.7 9.723 2.7 9.723Z" fill="#1E527A"/>
  <path d="M685.794 444.601s.016-.098.082-.294c.065-.197.163-.459.343-.802.36-.672 1.031-1.572 2.111-2.374 1.08-.835 2.569-1.506 4.27-2.046 1.702-.557 3.6-.982 5.481-1.785 1.882-.769 3.567-1.767 5.007-2.799a25.714 25.714 0 0 0 3.534-3.077 27.949 27.949 0 0 0 2.045-2.423c.213-.278.377-.524.507-.704.115-.164.18-.245.197-.229 0 0-.049.098-.147.262-.099.164-.262.426-.475.72-.425.622-1.08 1.49-1.996 2.488a24.843 24.843 0 0 1-3.534 3.16 24.453 24.453 0 0 1-5.056 2.848c-1.898.819-3.829 1.244-5.514 1.768s-3.158 1.162-4.221 1.964c-1.08.786-1.767 1.637-2.143 2.276-.377.638-.491 1.047-.508 1.047h.017Z" fill="#103654"/>
  <path d="M687.267 445.387s-.049-.409.196-1.113c.23-.687.835-1.621 1.898-2.39 1.064-.786 2.569-1.277 4.238-1.653 1.669-.36 3.469-.835 5.252-1.67a22.013 22.013 0 0 0 4.68-2.881 21.822 21.822 0 0 0 3.206-3.159c.835-.983 1.391-1.867 1.784-2.456.18-.294.311-.524.425-.704.098-.163.164-.245.164-.245s-.033.098-.115.262c-.098.196-.229.442-.392.736-.377.622-.917 1.523-1.735 2.521a21.894 21.894 0 0 1-3.207 3.225 21.227 21.227 0 0 1-4.728 2.93c-1.8.835-3.649 1.31-5.318 1.67-1.652.36-3.141.818-4.172 1.571-1.047.721-1.652 1.605-1.914 2.276-.278.655-.262 1.08-.295 1.064l.033.016Z" fill="#103654"/>
  <path d="M719.024 490.453s0-.655.049-1.719c.049-1.048.114-2.521-.147-4.109-.262-1.588-.802-2.946-1.178-3.945-.393-.982-.639-1.604-.589-1.621.032-.016.36.557.818 1.523.441.966 1.014 2.357 1.292 3.978.262 1.62.164 3.11.049 4.174-.114 1.064-.261 1.702-.294 1.702v.017Z" fill="#263238"/>
  <path d="M502.24 490.642h125.069c6.217 0 11.24-5.042 11.24-11.246v-36.308l13.793-12.245H502.24c-6.217 0-11.24 5.042-11.24 11.246v37.307c0 6.22 5.039 11.246 11.24 11.246Z" fill="#144368"/>
  <path d="M621.778 448.588c0 .229-25.754.425-57.528.425-31.774 0-57.527-.196-57.527-.425 0-.229 25.753-.426 57.527-.426s57.528.197 57.528.426ZM621.778 458.295c0 .229-25.754.426-57.528.426-31.774 0-57.527-.197-57.527-.426 0-.229 25.753-.425 57.527-.425s57.528.196 57.528.425ZM621.778 468.019c0 .229-25.754.426-57.528.426-31.774 0-57.527-.197-57.527-.426 0-.229 25.753-.426 57.527-.426s57.528.197 57.528.426ZM621.778 477.743c0 .229-25.754.425-57.528.425-31.774 0-57.527-.196-57.527-.425 0-.23 25.753-.426 57.527-.426s57.528.196 57.528.426Z" fill="#046097"/>
  <path d="M727.865 452.975s.066.147.164.426c.049.147.098.311.147.524.049.212.115.442.164.703.114.524.196 1.146.262 1.85.049.704.049 1.473-.017 2.292a17.261 17.261 0 0 1-.376 2.259c-.18.688-.376 1.293-.573 1.784a8.377 8.377 0 0 1-.294.655c-.082.197-.164.36-.246.491-.147.262-.229.409-.229.393 0 0 .049-.164.18-.426.066-.131.147-.294.213-.491.082-.196.18-.409.262-.654.196-.492.376-1.097.54-1.768.163-.688.294-1.441.36-2.243.065-.802.065-1.572.032-2.275a15.54 15.54 0 0 0-.229-1.834c-.033-.262-.098-.491-.147-.704-.049-.213-.082-.376-.131-.524-.082-.294-.114-.442-.098-.458h.016Z" fill="#103654"/>
</svg>
