<svg xmlns="http://www.w3.org/2000/svg" width="248" height="163" fill="none" viewBox="0 0 248 163"><path fill="#D9D9D9" d="M85.05 23l-4.5-6.8c2.275-.2 4.35-1.85 4.35-4.85 0-3.075-2.2-5.025-5.25-5.025h-6.7V23h2.075v-6.625h3.35L82.6 23h2.45zm-5.65-8.45h-4.375V8.175H79.4c1.975 0 3.35 1.275 3.35 3.175 0 1.875-1.375 3.2-3.35 3.2zM93.8844 23c5.2 0 8.5496-3.575 8.5496-8.325 0-4.725-3.3496-8.35-8.5496-8.35h-5.7V23h5.7zm0-1.85h-3.625V8.175h3.625c4.125 0 6.3996 2.9 6.3996 6.5 0 3.575-2.3496 6.475-6.3996 6.475zM113.289 23c3.05 0 4.825-1.825 4.825-4.5 0-2-1.475-3.825-3.25-4.1 1.525-.325 2.925-1.725 2.925-3.825 0-2.5-1.775-4.25-4.675-4.25h-7.425V23h7.6zm-.525-9.45h-5V8.175h5c1.875 0 2.875 1.2 2.875 2.7 0 1.525-1 2.675-2.875 2.675zm.125 7.6h-5.125V15.4h5.125c2.025 0 3.075 1.35 3.075 2.875 0 1.775-1.15 2.875-3.075 2.875zM137.737 23V6.325h-2.975l-5.175 12.85-5.2-12.85h-2.975V23h2.075V8.975L129.162 23h.85l5.65-14.025V23h2.075zm9.29.3c4.5 0 6.15-2.5 6.15-4.9 0-6.225-9.875-4.075-9.875-7.825 0-1.575 1.45-2.65 3.425-2.65 1.825 0 3.575.6 4.825 2l1.25-1.525c-1.4-1.475-3.375-2.35-5.9-2.35-3.3 0-5.75 1.9-5.75 4.65 0 5.95 9.875 3.55 9.875 7.85 0 1.3-.95 2.9-3.925 2.9-2.35 0-4.15-1.15-5.225-2.4l-1.25 1.6c1.375 1.55 3.525 2.65 6.4 2.65zM190.24 69.646V57.64h-1.494v9.378l-6.912-9.378h-1.53v12.006h1.494V60.07l7.002 9.576h1.44zm6.552.216c2.646 0 4.302-2.052 4.302-4.572s-1.656-4.554-4.302-4.554-4.302 2.034-4.302 4.554c0 2.52 1.656 4.572 4.302 4.572zm0-1.206c-1.854 0-2.88-1.584-2.88-3.366 0-1.764 1.026-3.348 2.88-3.348 1.854 0 2.88 1.584 2.88 3.348 0 1.782-1.026 3.366-2.88 3.366zm10.445 1.206c3.24 0 4.428-1.8 4.428-3.528 0-4.482-7.11-2.934-7.11-5.634 0-1.134 1.044-1.908 2.466-1.908 1.314 0 2.574.432 3.474 1.44l.9-1.098c-1.008-1.062-2.43-1.692-4.248-1.692-2.376 0-4.14 1.368-4.14 3.348 0 4.284 7.11 2.556 7.11 5.652 0 .936-.684 2.088-2.826 2.088-1.692 0-2.988-.828-3.762-1.728l-.9 1.152c.99 1.116 2.538 1.908 4.608 1.908zm12.131 0c1.242 0 2.358-.324 3.258-.9l1.17 1.242 1.026-.9-1.134-1.206c1.044-1.116 1.656-2.664 1.656-4.446 0-3.546-2.43-6.21-5.976-6.21s-5.958 2.664-5.958 6.21 2.412 6.21 5.958 6.21zm0-1.332c-2.7 0-4.41-2.088-4.41-4.878 0-2.808 1.71-4.878 4.41-4.878 2.682 0 4.428 2.07 4.428 4.878 0 1.332-.414 2.502-1.116 3.366l-1.692-1.836-1.044.882 1.71 1.854c-.648.396-1.422.612-2.286.612zm15.167 1.116v-1.332h-5.58V57.64h-1.494v12.006h7.074zM121.082 124.242v-16.675h-2.075v16.675h2.075zm9.106.3c3.675 0 5.975-2.85 5.975-6.35 0-3.5-2.3-6.325-5.975-6.325s-5.975 2.825-5.975 6.325 2.3 6.35 5.975 6.35zm0-1.675c-2.575 0-4-2.2-4-4.675 0-2.45 1.425-4.65 4-4.65s4 2.2 4 4.65c0 2.475-1.425 4.675-4 4.675zm12.426 1.375v-14.825h5.3v-1.85h-12.65v1.85h5.275v14.825h2.075zm20.403.3c3.175 0 5.375-2.45 5.375-6.35 0-3.925-2.2-6.325-5.375-6.325-1.7 0-3.2.875-4.075 2.1v-1.8h-1.875v16.675h1.875v-6.425c1 1.325 2.425 2.125 4.075 2.125zm-.475-1.675c-1.475 0-2.95-.9-3.6-1.95v-5.45c.65-1.05 2.125-1.925 3.6-1.925 2.425 0 3.875 1.975 3.875 4.65 0 2.675-1.45 4.675-3.875 4.675zm11.506 1.675c1.1 0 1.75-.325 2.25-.775l-.575-1.425c-.225.275-.725.525-1.25.525-.825 0-1.225-.65-1.225-1.55v-13.75h-1.875v14.15c0 1.8.9 2.825 2.675 2.825zm14.664-.3v-12.075h-1.875v1.825c-.975-1.325-2.45-2.125-4.075-2.125-3.15 0-5.375 2.475-5.375 6.35 0 3.925 2.225 6.325 5.375 6.325 1.7 0 3.175-.875 4.075-2.1v1.8h1.875zm-5.475-1.375c-2.45 0-3.9-1.975-3.9-4.65 0-2.675 1.45-4.675 3.9-4.675 1.475 0 2.95.9 3.6 1.95v5.45c-.65 1.05-2.125 1.925-3.6 1.925zm12.305 1.675c1.075 0 1.75-.325 2.225-.775l-.55-1.425c-.25.275-.725.525-1.275.525-.8 0-1.2-.65-1.2-1.55v-7.5h2.45v-1.65h-2.45v-3.3h-1.9v3.3h-2v1.65h2v7.9c0 1.8.9 2.825 2.7 2.825zm6.674-.3v-10.425h2.45v-1.65h-2.45v-.925c0-1.55.675-2.375 1.925-2.375.45 0 .775.1 1.075.275l.475-1.425c-.5-.275-1.125-.4-1.85-.4-2.075 0-3.5 1.425-3.5 3.925v.925h-2v1.65h2v10.425h1.875zm9.979.3c3.675 0 5.975-2.85 5.975-6.35 0-3.5-2.3-6.325-5.975-6.325s-5.975 2.825-5.975 6.325 2.3 6.35 5.975 6.35zm0-1.675c-2.575 0-4-2.2-4-4.675 0-2.45 1.425-4.65 4-4.65s4 2.2 4 4.65c0 2.475-1.425 4.675-4 4.675zm10.907 1.375v-8.55c.55-.975 2.125-1.925 3.3-1.925.275 0 .5.025.725.05v-1.925c-1.65 0-3.05.95-4.025 2.2v-1.925h-1.875v12.075h1.875zm22.827 0v-8.725c0-2.425-1.175-3.65-3.375-3.65-1.75 0-3.375 1.15-4.05 2.25-.35-1.25-1.4-2.25-3.225-2.25-1.8 0-3.4 1.275-3.925 2.05v-1.75h-1.875v12.075h1.875v-8.825c.65-.975 1.95-1.875 3.175-1.875 1.6 0 2.225.975 2.225 2.5v8.2h1.875v-8.85c.625-.975 1.95-1.85 3.2-1.85 1.575 0 2.225.975 2.225 2.5v8.2h1.875zM47.7399 115.205v-1.332h-6.372v-4.14h6.246v-1.332h-6.246v-3.87h6.372v-1.332h-7.866v12.006h7.866zm11.094 0l-3.24-4.896c1.638-.144 3.132-1.332 3.132-3.492 0-2.214-1.584-3.618-3.78-3.618h-4.824v12.006h1.494v-4.77h2.412l3.042 4.77h1.764zm-4.068-6.084h-3.15v-4.59h3.15c1.422 0 2.412.918 2.412 2.286 0 1.35-.99 2.304-2.412 2.304zm7.8188 6.084v-4.77h3.33c2.394 0 3.762-1.656 3.762-3.618s-1.35-3.618-3.762-3.618h-4.824v12.006h1.494zm3.15-6.102h-3.15v-4.572h3.15c1.422 0 2.394.936 2.394 2.286s-.972 2.286-2.394 2.286zm5.5784 6.462l4.266-12.726h-1.062l-4.266 12.726h1.062zm11.3562-.144c2.124 0 3.564-1.008 4.572-2.394l-1.26-.684c-.684 1.008-1.944 1.746-3.312 1.746-2.628 0-4.626-2.034-4.626-4.878 0-2.88 1.998-4.878 4.626-4.878 1.368 0 2.628.72 3.312 1.746l1.242-.702c-.954-1.368-2.43-2.376-4.554-2.376-3.456 0-6.174 2.52-6.174 6.21s2.718 6.21 6.174 6.21zm15.1881-.216l-3.24-4.896c1.638-.144 3.132-1.332 3.132-3.492 0-2.214-1.584-3.618-3.78-3.618h-4.824v12.006h1.494v-4.77h2.412l3.042 4.77h1.764zm-4.068-6.084h-3.15v-4.59h3.15c1.422 0 2.412.918 2.412 2.286 0 1.35-.99 2.304-2.412 2.304zm18.0786 6.084v-12.006h-2.142L106 112.451l-3.744-9.252h-2.142v12.006h1.494v-10.098l4.086 10.098h.612l4.068-10.098v10.098h1.494zM99.1296 62.6086v-3.878h2.7024c1.778 0 2.814-1.26 2.814-2.73s-1.022-2.73-2.814-2.73h-3.5004v9.338h.798zm2.6184-4.606h-2.6184v-4.004h2.6184c1.246 0 2.058.826 2.058 2.002 0 1.162-.812 2.002-2.058 2.002zm10.116 4.606v-6.762h-.742v1.092c-.546-.77-1.386-1.26-2.352-1.26-1.792 0-3.01 1.414-3.01 3.556 0 2.17 1.218 3.542 3.01 3.542 1.008 0 1.876-.546 2.352-1.246v1.078h.742zm-2.968-.49c-1.498 0-2.366-1.246-2.366-2.884s.868-2.898 2.366-2.898c.952 0 1.834.588 2.226 1.232v3.346c-.392.644-1.274 1.204-2.226 1.204zm10.966.49v-6.762h-.742v1.092c-.546-.77-1.386-1.26-2.352-1.26-1.792 0-3.01 1.414-3.01 3.556 0 2.17 1.218 3.542 3.01 3.542 1.008 0 1.876-.546 2.352-1.246v1.078h.742zm-2.968-.49c-1.498 0-2.366-1.246-2.366-2.884s.868-2.898 2.366-2.898c.952 0 1.834.588 2.226 1.232v3.346c-.392.644-1.274 1.204-2.226 1.204zm7.256.658c1.694 0 2.534-.896 2.534-1.988 0-2.604-4.256-1.568-4.256-3.262 0-.7.63-1.232 1.68-1.232.896 0 1.624.364 2.016.896l.406-.518c-.49-.546-1.26-.994-2.422-.994-1.526 0-2.408.84-2.408 1.876 0 2.436 4.27 1.386 4.27 3.234 0 .784-.672 1.372-1.806 1.372-.952 0-1.75-.448-2.184-.994l-.434.532c.672.756 1.512 1.078 2.604 1.078zM151.171 45.5655c2.52 0 3.318-1.442 3.318-2.646 0-3.486-5.6-2.17-5.6-4.564 0-1.008.938-1.722 2.184-1.722 1.05 0 2.002.364 2.674 1.176l.532-.588c-.714-.826-1.778-1.316-3.164-1.316-1.694 0-3.066.966-3.066 2.492 0 3.262 5.6 1.834 5.6 4.578 0 .798-.546 1.862-2.45 1.862-1.344 0-2.324-.672-2.926-1.358l-.518.602c.714.854 1.876 1.484 3.416 1.484zm10.935-.168v-6.762h-.742v1.092c-.546-.77-1.386-1.26-2.352-1.26-1.792 0-3.01 1.414-3.01 3.556 0 2.17 1.218 3.542 3.01 3.542 1.008 0 1.876-.546 2.352-1.246v1.078h.742zm-2.968-.49c-1.498 0-2.366-1.246-2.366-2.884s.868-2.898 2.366-2.898c.952 0 1.834.588 2.226 1.232v3.346c-.392.644-1.274 1.204-2.226 1.204zm10.966.49v-6.762h-.742v1.092c-.546-.77-1.386-1.26-2.352-1.26-1.792 0-3.01 1.414-3.01 3.556 0 2.17 1.218 3.542 3.01 3.542 1.008 0 1.876-.546 2.352-1.246v1.078h.742zm-2.968-.49c-1.498 0-2.366-1.246-2.366-2.884s.868-2.898 2.366-2.898c.952 0 1.834.588 2.226 1.232v3.346c-.392.644-1.274 1.204-2.226 1.204zm7.256.658c1.694 0 2.534-.896 2.534-1.988 0-2.604-4.256-1.568-4.256-3.262 0-.7.63-1.232 1.68-1.232.896 0 1.624.364 2.016.896l.406-.518c-.49-.546-1.26-.994-2.422-.994-1.526 0-2.408.84-2.408 1.876 0 2.436 4.27 1.386 4.27 3.234 0 .784-.672 1.372-1.806 1.372-.952 0-1.75-.448-2.184-.994l-.434.532c.672.756 1.512 1.078 2.604 1.078zM84.4476 152.882c2.73 0 4.536-2.1 4.536-4.83s-1.806-4.83-4.536-4.83c-2.744 0-4.536 2.1-4.536 4.83s1.792 4.83 4.536 4.83zm0-.728c-2.254 0-3.696-1.75-3.696-4.102 0-2.366 1.442-4.102 3.696-4.102 2.24 0 3.696 1.736 3.696 4.102 0 2.352-1.456 4.102-3.696 4.102zm9.5574.728c1.806 0 3.024-1.4 3.024-3.556 0-2.17-1.218-3.542-3.024-3.542-1.008 0-1.876.546-2.352 1.232v-1.064h-.728v9.338h.728v-3.668c.546.77 1.4 1.26 2.352 1.26zm-.126-.658c-.938 0-1.834-.588-2.226-1.232v-3.346c.392-.644 1.288-1.204 2.226-1.204 1.512 0 2.366 1.246 2.366 2.884s-.854 2.898-2.366 2.898zm7.985.658c1.12 0 1.974-.392 2.646-1.092l-.378-.476c-.574.616-1.358.938-2.212.938-1.596 0-2.5757-1.218-2.6457-2.688h5.6557v-.196c0-1.96-1.134-3.584-3.192-3.584-1.8757 0-3.2477 1.582-3.2477 3.542 0 2.086 1.4 3.556 3.3737 3.556zm2.324-3.892h-4.9137c.056-1.176.8537-2.576 2.4497-2.576 1.694 0 2.45 1.428 2.464 2.576zm7.916 3.724v-4.732c0-1.526-.756-2.198-2.128-2.198-.98 0-1.946.602-2.436 1.19v-1.022h-.728v6.762h.728v-5.11c.434-.616 1.33-1.162 2.198-1.162.98 0 1.638.392 1.638 1.694v4.578h.728zm8.901 0c2.898 0 4.718-2.072 4.718-4.662 0-2.562-1.82-4.676-4.718-4.676h-2.982v9.338h2.982zm0-.728h-2.184v-7.882h2.184c2.478 0 3.878 1.764 3.878 3.948s-1.414 3.934-3.878 3.934zm12.41.728v-6.762h-.742v1.092c-.546-.77-1.386-1.26-2.352-1.26-1.792 0-3.01 1.414-3.01 3.556 0 2.17 1.218 3.542 3.01 3.542 1.008 0 1.876-.546 2.352-1.246v1.078h.742zm-2.968-.49c-1.498 0-2.366-1.246-2.366-2.884s.868-2.898 2.366-2.898c.952 0 1.834.588 2.226 1.232v3.346c-.392.644-1.274 1.204-2.226 1.204zm6.71.658c.56 0 .882-.168 1.148-.42l-.28-.56c-.154.168-.434.322-.756.322-.476 0-.7-.378-.7-.924v-4.704h1.372v-.644h-1.372v-1.848h-.742v1.848h-1.12v.644h1.12v4.816c0 .924.434 1.47 1.33 1.47zm8.111-.168v-6.762h-.742v1.092c-.546-.77-1.386-1.26-2.352-1.26-1.792 0-3.01 1.414-3.01 3.556 0 2.17 1.218 3.542 3.01 3.542 1.008 0 1.876-.546 2.352-1.246v1.078h.742zm-2.968-.49c-1.498 0-2.366-1.246-2.366-2.884s.868-2.898 2.366-2.898c.952 0 1.834.588 2.226 1.232v3.346c-.392.644-1.274 1.204-2.226 1.204zM32.7572 75.7205v-12.006h-1.494v12.006h1.494zm6.5567.216c2.646 0 4.302-2.052 4.302-4.572s-1.656-4.554-4.302-4.554-4.302 2.034-4.302 4.554c0 2.52 1.656 4.572 4.302 4.572zm0-1.206c-1.854 0-2.88-1.584-2.88-3.366 0-1.764 1.026-3.348 2.88-3.348 1.854 0 2.88 1.584 2.88 3.348 0 1.782-1.026 3.366-2.88 3.366zm8.9465.99v-10.674h3.816v-1.332h-9.108v1.332h3.798v10.674h1.494z"/></svg>
