<svg xmlns="http://www.w3.org/2000/svg" width="1212" height="768" fill="none" viewBox="0 0 1212 768"><path fill="#fff" fill-rule="evenodd" stroke="	#D3D3D3" stroke-width="3" d="M49.0001 18c4.4182 0 8-3.5817 8-8 0-4.41828-3.5818-8-8-8-4.4183 0-8 3.58172-8 8 0 4.4183 3.5817 8 8 8z" clip-rule="evenodd"/><path fill="url(#paint0_linear)" fill-rule="evenodd" d="M1020.5 13H55.5001V8H1020.5C1126.26 8 1212 93.5074 1212 199c0 105.493-85.74 191-191.5 191h-829C88.4927 390 5.00006 473.281 5.00006 576S88.4927 762 191.5 762h.003l-.006 5C85.7421 766.998.000061 681.492.000061 576 .000061 470.507 85.7438 385 191.5 385h829c103.01 0 186.5-83.281 186.5-186 0-102.7187-83.49-186-186.5-186zM191.503 762l-.003 5 732.997 1 .006-5-733-1z" clip-rule="evenodd"/><defs><linearGradient id="paint0_linear" x1=".000061" x2=".000061" y1="8" y2="768" gradientUnits="userSpaceOnUse"><stop stop-color="	#D3D3D3"/><stop offset="1" stop-color="	#D3D3D3"/></linearGradient></defs></svg>
