<svg width="72" height="44" fill="none" xmlns="http://www.w3.org/2000/svg"><path fill-rule="evenodd" clip-rule="evenodd" d="M43.167 17.286c.068-.211.185-.403.342-.558L50 10.313l-8.97-1.321a1.344 1.344 0 0 1-.6-.248 1.368 1.368 0 0 1-.419-.503L36 0l-4.011 8.241a1.344 1.344 0 0 1-1.019.75L22 10.314l6.491 6.415a1.379 1.379 0 0 1 .39 1.214L27.346 27l8.024-4.277a1.34 1.34 0 0 1 1.258 0L44.653 27l-1.533-9.058c-.037-.22-.02-.444.047-.656zM61.938 23.306a.788.788 0 0 1 .195-.319l3.696-3.665-5.108-.755a.762.762 0 0 1-.58-.43l-2.284-4.708-2.284 4.709a.781.781 0 0 1-.58.429l-5.107.755 3.696 3.665a.788.788 0 0 1 .221.694l-.872 5.176 4.568-2.444a.76.76 0 0 1 .717 0l4.568 2.444-.873-5.176a.8.8 0 0 1 .027-.375zM18.738 23.306a.787.787 0 0 1 .195-.319l3.696-3.665-5.108-.755a.762.762 0 0 1-.58-.43l-2.284-4.708-2.284 4.709a.78.78 0 0 1-.58.429l-5.107.755 3.696 3.665a.787.787 0 0 1 .221.694l-.873 5.176 4.569-2.444a.76.76 0 0 1 .716 0l4.569 2.444-.873-5.176a.8.8 0 0 1 .027-.375zM69.49 36.142a.498.498 0 0 1 .126-.202L72 33.618l-3.295-.478a.498.498 0 0 1-.374-.272l-1.474-2.982-1.473 2.982a.497.497 0 0 1-.375.272l-3.295.478L64.1 35.94a.498.498 0 0 1 .143.439l-.563 3.278 2.947-1.548a.498.498 0 0 1 .462 0l2.948 1.548-.563-3.278a.497.497 0 0 1 .017-.237zM7.776 38.199a.498.498 0 0 1 .125-.202l2.385-2.322-3.295-.478a.498.498 0 0 1-.375-.272l-1.473-2.982-1.474 2.982a.496.496 0 0 1-.374.272L0 35.675l2.385 2.322a.498.498 0 0 1 .142.44l-.563 3.277 2.948-1.547a.498.498 0 0 1 .462 0l2.947 1.547-.563-3.278a.498.498 0 0 1 .018-.237z" fill="#dc848d"/><path d="M14.914 43.286C19.614 37.066 27.384 33 36.175 33c8.791 0 16.562 4.065 21.261 10.286" stroke="#dc848d" stroke-width="2"/></svg>